<?xml version="1.0" encoding="utf-8" standalone="no"?>
<!DOCTYPE svg PUBLIC "-//W3C//DTD SVG 1.1//EN"
  "http://www.w3.org/Graphics/SVG/1.1/DTD/svg11.dtd">
<!-- Created with matplotlib (http://matplotlib.org/) -->
<svg height="432pt" version="1.1" viewBox="0 0 864 432" width="864pt" xmlns="http://www.w3.org/2000/svg" xmlns:xlink="http://www.w3.org/1999/xlink">
 <defs>
  <style type="text/css">
*{stroke-linecap:butt;stroke-linejoin:round;}
  </style>
 </defs>
 <g id="figure_1">
  <g id="patch_1">
   <path d="
M0 432
L864 432
L864 0
L0 0
z
" style="fill:#ffffff;"/>
  </g>
  <g id="axes_1">
   <g id="patch_2">
    <path d="
M108 322.473
L777.6 322.473
L777.6 43.2
L108 43.2
z
" style="fill:#ffffff;"/>
   </g>
   <g id="patch_3">
    <path clip-path="url(#p9fd4257182)" d="
M736.864 322.473
L744.959 322.473
L744.959 43.2
L736.864 43.2
z
" style="fill:#008000;opacity:0.2;"/>
   </g>
   <g id="patch_4">
    <path clip-path="url(#p9fd4257182)" d="
M713.917 322.473
L716.071 322.473
L716.071 43.2
L713.917 43.2
z
" style="fill:#008000;opacity:0.2;"/>
   </g>
   <g id="patch_5">
    <path clip-path="url(#p9fd4257182)" d="
M669.982 322.473
L671.223 322.473
L671.223 43.2
L669.982 43.2
z
" style="fill:#008000;opacity:0.2;"/>
   </g>
   <g id="patch_6">
    <path clip-path="url(#p9fd4257182)" d="
M638.581 322.473
L641.78 322.473
L641.78 43.2
L638.581 43.2
z
" style="fill:#008000;opacity:0.2;"/>
   </g>
   <g id="patch_7">
    <path clip-path="url(#p9fd4257182)" d="
M620.498 322.473
L625.297 322.473
L625.297 43.2
L620.498 43.2
z
" style="fill:#008000;opacity:0.2;"/>
   </g>
   <g id="patch_8">
    <path clip-path="url(#p9fd4257182)" d="
M562.952 322.473
L565.694 322.473
L565.694 43.2
L562.952 43.2
z
" style="fill:#008000;opacity:0.2;"/>
   </g>
   <g id="patch_9">
    <path clip-path="url(#p9fd4257182)" d="
M329.339 322.473
L331.461 322.473
L331.461 43.2
L329.339 43.2
z
" style="fill:#008000;opacity:0.2;"/>
   </g>
   <g id="patch_10">
    <path clip-path="url(#p9fd4257182)" d="
M300.028 322.473
L313.411 322.473
L313.411 43.2
L300.028 43.2
z
" style="fill:#008000;opacity:0.2;"/>
   </g>
   <g id="patch_11">
    <path clip-path="url(#p9fd4257182)" d="
M252.404 322.473
L258.182 322.473
L258.182 43.2
L252.404 43.2
z
" style="fill:#008000;opacity:0.2;"/>
   </g>
   <g id="patch_12">
    <path clip-path="url(#p9fd4257182)" d="
M210.493 322.473
L215.324 322.473
L215.324 43.2
L210.493 43.2
z
" style="fill:#008000;opacity:0.2;"/>
   </g>
   <g id="patch_13">
    <path clip-path="url(#p9fd4257182)" d="
M140.641 322.473
L167.831 322.473
L167.831 43.2
L140.641 43.2
z
" style="fill:#008000;opacity:0.2;"/>
   </g>
   <g id="line2d_1">
    <path clip-path="url(#p9fd4257182)" d="
M108.685 119.106
L108.718 118.413
L112.08 89.6753
L112.113 89.7891
L112.537 91.6783
L113.941 102.781
L116.421 128.047
L116.976 130.297
L117.205 130.436
L119.196 122.577
L120.763 108.087
L134.309 68.7775
L141.62 67.8955
L144.036 68.7744
L148.344 73.6056
L153.045 97.5552
L155.036 125.531
L156.407 149.921
L157.517 162.803
L162.315 145.316
L162.511 143.525
L164.371 124.179
L165.024 118.401
L166.003 112.537
L166.787 111.038
L169.169 128.76
L172.434 185.814
L173.315 196.884
L176.905 189.888
L186.273 101.341
L186.306 101.46
L187.318 106.474
L187.938 111.53
L188.46 117.642
L194.336 320.256
L195.674 321.223
L195.968 321.288
L196.849 321.31
L197.241 321.194
L199.167 317.78
L202.17 254.588
L203.867 186.348
L205.825 131.909
L206.25 123.391
L209.187 85.0193
L209.547 84.1083
L211.538 87.4784
L212.223 84.9473
L213.594 75.2459
L214.051 74.4747
L216.597 131.554
L218.392 280.07
L225.639 317.917
L225.671 317.789
L227.826 295.136
L232.526 176.582
L241.241 216.992
L241.894 219.238
L242.808 220.927
L245.06 215.188
L248.716 172.999
L251.947 97.4379
L253.155 80.1215
L253.938 73.5076
L255.995 66.1819
L262.229 87.856
L278.289 56.8342
L279.235 57.2776
L280.704 59.0968
L284.295 69.1487
L284.98 70.2676
L286.057 70.3665
L288.212 68.5071
L288.995 67.2938
L290.17 63.8791
L291.541 57.6222
L291.867 56.9834
L293.467 56.5059
L300.942 56.5204
L301.856 56.884
L303.977 97.2796
L306.784 175.304
L306.817 174.382
L307.764 151.499
L309.069 130.861
L311.158 115.472
L322.583 104.809
L323.236 103.293
L335.052 75.5425
L344.877 75.4066
L347.651 81.4372
L354.506 84.9937
L359.206 77.0546
L362.144 63.014
L367.366 56.9106
L372.099 57.1216
L374.906 62.1747
L377.093 73.1613
L385.939 98.6579
L390.28 103.9
L404.349 116.125
L424.456 118.514
L424.488 117.512
L428.699 61.9693
L428.928 61.3329
L437.643 59.2957
L438.916 60.197
L442.735 65.135
L443.224 66.3691
L444.824 72.2931
L457.032 266.731
L461.014 286.625
L461.177 286.738
L462.842 284.839
L470.871 198.125
L472.569 175.047
L482.328 105.033
L492.643 82.5512
L501.717 77.2892
L502.207 77.1792
L525.023 100.191
L530.572 108.554
L532.139 118.148
L558.741 93.8733
L565.237 69.9481
L566.086 68.337
L567.913 65.7856
L568.795 64.929
L569.676 64.276
L570.623 63.7782
L575.094 64.2169
L585.866 125.914
L591.448 204.516
L594.19 226.584
L595.56 229.46
L596.376 228.181
L609.009 91.125
L618.409 102.807
L619.715 109.965
L622.032 132.694
L623.469 153.005
L627.32 226.949
L628.985 249.65
L632.739 249.282
L632.771 249.081
L635.35 227.348
L636.133 215.243
L642.368 152.072
L642.4 152.84
L645.534 249.104
L646.383 266.885
L648.961 281.429
L652.421 262.846
L652.78 259.815
L654.869 233.334
L659.145 148.355
L664.009 93.1405
L668.872 81.0996
L670.113 79.8839
L674.65 75.7087
L680.166 81.7397
L688.718 64.1263
L698.87 59.9832
L700.567 59.9507
L702.525 60.2341
L704.647 61.4578
L707.617 68.9538
L708.858 75.6792
L719.27 71.3356
L722.796 76.4749
L723.677 79.6866
L726.125 108.036
L728.214 183.689
L730.434 283.328
L732.718 313.699
L733.502 315.25
L734.383 315.422
L736.472 315.21
L737.125 314.717
L737.615 314.741
L737.778 314.895
L737.974 315.197
L739.997 320.464
L740.846 321.312
L741.434 321.531
L741.727 321.569
L746.297 320.998
L748.419 317.247
L750.704 291.791
L752.499 218.747
L758.048 104.697
L758.636 101.724
L762.226 106.566
L770.484 192.942
L770.517 192.145
L777.372 247.128
L777.404 249.085
L777.404 249.085" style="fill:none;opacity:0.5;stroke:#0000ff;stroke-linecap:square;"/>
   </g>
   <g id="line2d_2">
    <path clip-path="url(#p9fd4257182)" d="
M108.685 101.471
L108.718 101.049
L112.08 83.4852
L112.113 83.5487
L112.537 84.4574
L113.941 88.5525
L116.421 99.6491
L119.196 114.386
L120.763 120.603
L134.309 100.459
L134.341 100.616
L141.588 130.912
L141.62 130.838
L144.036 122.702
L148.344 93.7063
L153.012 91.3762
L153.045 91.5467
L155.036 103.291
L156.407 109.484
L157.517 123.823
L162.315 73.7249
L162.347 73.7657
L162.543 74.1475
L163.849 81.6138
L164.404 86.2644
L165.024 86.8508
L165.057 86.5669
L166.036 73.5178
L166.819 66.9461
L169.169 69.1531
L172.042 121.233
L172.401 133.483
L173.315 153.63
L176.905 174.611
L176.938 174.603
L186.306 86.5856
L187.318 88.4993
L187.938 96.506
L188.46 111.786
L194.336 322.006
L195.968 322.201
L199.167 322.232
L202.137 260.716
L203.247 156.067
L203.867 131.855
L206.25 103.193
L209.187 77.2099
L209.547 76.7559
L211.538 83.7836
L212.19 84.2445
L212.223 84.119
L213.594 74.7173
L214.051 73.1665
L216.597 106.659
L218.392 154.749
L225.639 225.072
L227.826 158.317
L232.526 113.139
L241.241 226.527
L241.894 232.256
L242.808 237.469
L245.027 236.114
L245.06 235.933
L248.716 164.774
L251.947 105.931
L253.155 95.2931
L253.938 90.1874
L255.995 81.6438
L262.229 77.6583
L278.256 57.8542
L278.289 57.9022
L279.203 61.7596
L280.704 69.2512
L284.295 59.2482
L284.98 58.1387
L286.057 57.0522
L287.428 57.6133
L288.212 59.6753
L288.995 63.8858
L290.137 68.503
L290.17 68.3576
L291.508 57.292
L291.835 56.6991
L291.867 56.6705
L293.467 56.499
L300.942 80.1689
L301.856 86.1178
L303.977 109.173
L306.784 104.586
L306.817 104.094
L307.764 91.6864
L309.069 79.7203
L311.191 68.9632
L322.583 63.1216
L323.236 63.2783
L335.052 71.2388
L344.844 113.029
L347.651 145.22
L354.473 198.36
L354.506 197.954
L359.206 109.797
L359.826 100.667
L361.23 85.7038
L362.144 79.6199
L367.366 75.6385
L372.099 67.8717
L374.906 64.4715
L377.093 62.2055
L384.47 85.529
L385.939 94.2808
L390.313 137.093
L404.349 101.938
L424.488 59.4406
L428.928 60.5578
L437.545 78.4572
L437.643 78.9777
L438.916 86.8881
L442.735 124.924
L443.224 131.509
L444.824 155.988
L457.032 318.777
L461.177 321.178
L462.874 320.905
L470.839 267.572
L472.569 203.773
L482.328 57.9565
L492.643 58.2141
L501.717 88.6552
L502.207 92.5899
L525.023 108.92
L530.605 105.835
L532.139 106.013
L558.741 93.3318
L565.237 78.062
L566.086 77.7338
L567.913 78.0741
L568.795 78.7043
L569.676 79.6256
L570.623 80.9392
L575.094 91.5154
L585.866 140.21
L591.448 225.908
L594.19 248.119
L595.56 247.841
L596.376 243.105
L600.065 166.656
L609.009 64.9869
L618.409 81.8427
L619.715 88.2105
L622.032 102.412
L623.469 115.908
L627.32 209.995
L628.985 245.609
L632.771 212.682
L634.926 171.706
L635.35 168.131
L636.133 159.983
L642.368 200.52
L642.4 202.148
L644.261 282.319
L645.534 305.52
L646.383 311.562
L648.961 314.096
L648.994 314.053
L652.421 297.446
L652.78 292.639
L654.869 227.674
L659.145 109.131
L664.009 88.0232
L668.872 75.5017
L670.113 73.4542
L674.65 64.8275
L680.166 59.974
L688.718 57.0366
L698.87 57.034
L700.567 61.5386
L702.395 104.679
L702.525 111.695
L704.647 259.927
L707.617 314.855
L708.858 317.121
L719.27 183.508
L722.796 155.93
L723.677 155.17
L726.125 159.876
L728.214 181.753
L730.434 269.239
L732.718 311.165
L733.502 310.851
L734.416 304.615
L736.146 285.428
L737.125 276.243
L737.778 272.377
L737.974 271.82
L738.594 272.421
L739.018 275.033
L739.997 285.587
L741.434 302.537
L741.727 304.923
L746.297 320.647
L748.419 321.656
L750.704 321.4
L752.499 311.242
L758.081 125.997
L758.668 118.658
L762.193 108.02
L762.226 108.054
L770.484 211.587
L777.404 290.418
L777.404 290.418" style="fill:none;opacity:0.5;stroke:#ff0000;stroke-linecap:square;"/>
   </g>
   <g id="line2d_3">
    <path clip-path="url(#p9fd4257182)" d="
M108.685 170.867
L108.718 169.963
L112.113 89.0292
L112.537 83.5667
L113.941 70.7882
L116.389 64.6083
L116.421 64.627
L116.976 65.4299
L117.205 66.087
L119.196 81.0263
L120.763 110.003
L141.588 78.4425
L144.036 72.7541
L148.344 65.5404
L153.045 72.786
L154.84 94.626
L155.036 98.4276
L156.407 134.358
L157.517 172.533
L162.347 75.9618
L162.543 75.2508
L164.11 72.2995
L164.404 71.9267
L165.057 70.3341
L166.036 66.5211
L166.819 64.6591
L169.169 67.7208
L172.075 115.035
L172.434 126.195
L173.315 144.615
L176.905 163.604
L176.938 163.591
L186.306 75.5594
L187.285 76.223
L187.318 76.59
L187.938 93.6875
L188.428 139.881
L188.46 144.916
L194.303 322.046
L194.336 322.034
L195.968 322.041
L197.273 322.062
L199.069 318.628
L199.167 317.825
L202.17 138.825
L203.247 109.208
L203.867 100.904
L205.825 99.0976
L206.25 97.4155
L209.187 76.5215
L209.547 77.0461
L211.538 94.4483
L212.223 90.3966
L213.594 71.6116
L214.051 69.096
L216.597 118.896
L218.392 178.151
L225.639 184.364
L225.671 183.388
L227.826 132.736
L232.526 151.264
L241.208 222.596
L241.241 222.342
L241.894 215.8
L242.808 202.771
L245.06 163.656
L248.683 148.837
L248.716 148.85
L251.947 122.639
L253.938 94.0465
L255.995 72.4083
L262.229 56.7228
L278.256 62.1952
L279.203 64.939
L280.737 70.3846
L284.295 77.8372
L284.98 78.3773
L286.057 80.2693
L287.396 80.016
L287.428 79.8905
L288.995 70.3553
L290.17 65.8058
L291.541 62.9529
L291.867 62.6702
L300.942 67.9738
L301.856 67.9823
L303.977 68.5563
L306.817 74.2783
L307.764 78.8058
L309.069 87.7094
L311.191 109.142
L322.55 92.1631
L323.236 86.293
L335.052 58.1147
L344.877 61.3318
L347.651 70.3424
L354.506 142.822
L359.206 113.267
L359.826 106.931
L361.23 93.9454
L362.144 87.0325
L367.366 60.1617
L371.773 57.0747
L372.099 57.0319
L374.906 57.0013
L377.093 57.5177
L384.47 97.2063
L385.939 118.23
L390.313 184.395
L404.349 138.956
L424.488 56.709
L428.928 56.7473
L437.545 59.4877
L437.643 59.6606
L438.916 63.8724
L442.735 119.912
L443.224 121.241
L444.824 121.327
L457.032 241.14
L461.014 320.394
L461.177 320.731
L462.874 321.963
L470.839 300.974
L470.871 300.534
L472.569 272.72
L482.361 131.941
L492.643 91.4253
L502.207 89.1701
L525.023 73.9069
L530.572 75.8531
L530.605 76.092
L532.139 103.019
L558.741 75.8356
L565.237 62.5777
L566.086 62.4965
L567.913 63.0362
L568.795 63.6486
L569.676 64.522
L570.623 65.7993
L575.094 78.8422
L585.866 168.48
L591.448 211.496
L594.19 220.396
L595.56 220.013
L596.376 217.941
L600.065 179.778
L609.009 86.7473
L618.377 79.028
L618.409 79.1097
L619.715 83.836
L622.032 101.8
L623.469 121.294
L627.32 201.044
L628.985 227.793
L632.739 235.953
L632.771 235.854
L634.926 231.008
L635.35 231.265
L636.133 227.811
L642.368 250.246
L642.4 251.406
L644.261 300.497
L645.534 313.057
L646.383 316.397
L648.994 317.786
L652.421 310.64
L652.78 308.771
L654.869 278.495
L659.145 127.521
L664.009 84.1382
L668.872 84.2353
L670.113 85.7335
L674.65 78.9271
L680.166 62.1914
L688.718 58.3598
L698.837 80.0085
L698.87 80.468
L700.567 116.971
L702.525 186.755
L704.647 255.274
L707.617 297.112
L708.858 301.393
L719.27 130.491
L722.763 134
L722.796 134.227
L723.677 142.138
L726.125 186.11
L728.214 244.835
L730.434 298.289
L732.718 317.033
L733.502 317.173
L734.416 315.791
L735.428 312.267
L736.472 306.255
L737.778 295.551
L738.594 288.942
L739.018 286.627
L739.997 284.803
L740.846 286.092
L741.205 287.061
L741.434 288.039
L741.727 289.828
L746.297 319.807
L748.419 321.525
L750.671 320.565
L752.499 316.721
L758.081 99.5749
L758.636 96.1177
L758.668 96.002
L762.193 151.654
L770.517 316.854
L777.404 317.318
L777.404 317.318" style="fill:none;opacity:0.5;stroke:#ff0000;stroke-linecap:square;"/>
   </g>
   <g id="line2d_4">
    <path clip-path="url(#p9fd4257182)" d="
M108.685 142.248
L108.718 142.184
L112.113 122.274
L113.941 106.727
L116.421 88.3569
L117.205 84.0486
L119.196 73.8706
L120.763 67.2903
L134.309 65.6765
L141.588 157.548
L141.62 157.53
L144.036 151.644
L148.344 103.716
L153.012 102.413
L155.036 121.107
L156.407 125.565
L157.517 136.663
L162.543 71.5232
L163.849 64.3868
L164.371 63.4069
L164.404 63.3766
L165.057 63.5924
L166.036 66.5928
L166.819 70.7723
L169.169 94.6773
L172.075 83.0625
L172.434 77.9356
L173.315 67.4623
L176.938 57.9224
L186.273 97.7374
L186.306 97.5074
L187.318 91.4581
L187.938 89.6007
L188.33 89.499
L188.46 89.6892
L194.336 321.48
L195.968 322.04
L197.273 322.062
L199.069 319.126
L199.167 318.392
L202.17 128.625
L203.247 107.367
L203.834 104.826
L203.867 104.951
L205.825 142.884
L206.25 146.826
L209.187 92.9261
L209.547 89.0151
L211.538 72.8471
L212.223 69.1207
L213.594 64.2061
L214.051 63.8756
L216.597 97.4129
L218.392 146.119
L225.639 222.392
L227.793 160.897
L227.826 160.246
L232.526 116.379
L241.241 192.156
L241.894 193.354
L242.808 191.977
L245.06 178.616
L248.716 164.322
L251.947 128.78
L253.938 96.6363
L255.995 72.4383
L262.229 56.5003
L278.289 75.7325
L279.235 80.141
L280.737 86.0923
L284.262 80.3605
L284.295 80.0903
L284.98 72.8427
L286.057 62.9855
L287.428 58.4516
L288.212 57.6352
L288.995 57.2223
L290.17 56.9288
L291.867 56.8098
L293.467 57.0329
L300.942 56.5583
L301.856 56.8216
L303.977 64.2364
L306.784 78.1547
L306.817 77.9033
L307.764 71.7557
L309.069 66.2125
L311.191 61.6782
L322.583 75.031
L323.236 78.0309
L335.019 97.7823
L335.052 97.745
L344.877 123.892
L347.651 150.81
L354.473 132.013
L354.506 131.419
L359.206 67.4717
L359.826 64.3587
L361.23 60.1326
L362.144 58.7076
L367.366 56.8932
L372.099 56.9324
L374.906 57.4216
L377.093 59.7086
L384.438 109.876
L384.47 109.566
L385.939 93.9128
L390.313 62.4785
L404.349 56.5432
L428.928 56.5425
L437.545 75.7663
L437.643 76.6106
L438.916 89.6858
L442.735 131.283
L443.224 133.601
L444.824 136.696
L457.032 283.156
L461.014 307.082
L461.177 307.327
L462.842 307.627
L470.839 284.579
L470.871 283.453
L472.569 144.214
L482.328 69.3346
L492.643 84.674
L501.717 88.4752
L502.207 88.8582
L525.023 156.343
L530.605 157.552
L532.139 155.755
L558.741 57.7195
L565.237 64.6057
L566.086 65.8006
L567.652 66.7891
L567.913 66.8088
L568.795 66.6459
L570.623 65.7277
L575.094 66.5558
L585.866 163.053
L591.448 190.132
L594.19 185.605
L595.56 177.831
L596.376 171.322
L600.065 114.362
L609.009 64.2495
L618.409 87.0932
L619.715 94.8549
L622.032 116.022
L623.469 135.879
L627.32 239.751
L628.985 268.108
L632.771 220.94
L634.926 166.124
L636.133 148.315
L642.368 178.808
L644.228 259.163
L644.261 260.227
L645.534 289.169
L646.383 297.692
L648.994 304.289
L652.421 294.64
L652.78 292.134
L654.869 266.367
L659.113 152.684
L664.009 85.0713
L668.872 68.6211
L670.113 65.9863
L674.65 59.5239
L680.166 57.2565
L688.718 56.721
L698.87 60.7597
L700.567 79.7811
L702.525 148.036
L704.647 239.439
L707.617 293.918
L708.858 299.73
L719.27 163.206
L722.763 162.281
L722.796 162.416
L723.677 166.779
L728.214 202.41
L730.434 216.816
L732.718 267.747
L733.469 269.16
L733.502 269.09
L734.416 264.444
L735.428 257.754
L736.244 255.888
L736.472 255.935
L737.125 256.98
L739.018 261.593
L739.997 263.733
L740.846 266.94
L741.434 270.382
L741.727 272.563
L746.297 320.414
L748.419 322.23
L750.704 322.059
L752.499 320.53
L758.081 59.451
L758.668 58.1846
L762.226 56.6869
L770.484 115.155
L770.517 116.961
L777.372 319.56
L777.404 319.541" style="fill:none;opacity:0.5;stroke:#ff0000;stroke-linecap:square;"/>
   </g>
   <g id="line2d_5">
    <path clip-path="url(#p9fd4257182)" d="
M108.685 194.065
L108.718 192.966
L112.113 103.931
L112.537 99.7346
L113.941 91.7965
L116.421 94.043
L117.205 99.2375
L119.196 122.07
L120.763 145.44
L134.309 138.466
L134.341 138.273
L141.588 109.134
L144.036 100.11
L148.344 87.2405
L153.045 98.7137
L155.036 123.734
L156.407 148.474
L157.517 180.29
L162.315 176.973
L162.543 173.54
L164.404 140.37
L166.036 104.348
L166.819 93.192
L169.137 85.9032
L169.169 85.9706
L172.075 168.798
L172.434 181.75
L173.315 190.588
L176.905 158.088
L186.306 58.9526
L187.318 59.8027
L187.938 69.7794
L188.33 110.251
L188.46 143.799
L194.303 322.404
L194.336 322.397
L195.968 322.022
L196.882 321.413
L197.273 320.769
L199.069 301.972
L199.167 299.276
L202.17 152.644
L203.247 133.813
L203.867 128.594
L205.825 146.381
L206.25 143.632
L209.547 68.5929
L211.538 58.6303
L212.223 57.6485
L213.594 56.6429
L214.051 56.5958
L216.564 76.2276
L216.597 78.1351
L218.392 227.406
L225.639 230.418
L227.826 168.246
L232.526 121.898
L241.241 230.053
L241.894 229.39
L242.808 224.971
L245.06 200.198
L248.716 148.674
L251.947 109.912
L253.938 89.4138
L255.995 72.9464
L262.229 56.4987
L279.235 56.9286
L280.737 57.0133
L284.262 58.4916
L284.948 60.2517
L286.025 65.005
L287.428 72.712
L288.212 74.6433
L288.995 73.0563
L290.17 65.817
L291.541 59.7423
L291.867 58.9644
L293.467 57.1619
L300.942 56.9828
L301.856 60.6393
L303.977 132.924
L306.784 156.914
L307.731 129.243
L307.764 128.426
L309.069 102.616
L311.191 81.3581
L322.583 84.7496
L323.236 86.5813
L335.052 90.7343
L344.877 87.3459
L347.651 88.4077
L354.506 77.1561
L359.206 66.941
L359.826 66.1468
L367.366 62.5401
L372.099 62.8605
L374.906 64.8961
L377.093 68.4321
L384.47 84.9788
L385.939 84.554
L390.313 84.3104
L404.349 75.2788
L424.456 96.1686
L428.928 81.8719
L437.643 65.1412
L438.916 64.6313
L443.224 65.1217
L444.824 65.7682
L457.032 231.018
L461.144 309.2
L461.177 309.407
L462.874 315.433
L470.871 267.347
L472.569 234.002
L482.361 122.545
L492.643 90.6843
L501.685 81.8863
L502.207 81.5919
L525.023 82.6404
L530.605 83.2715
L532.139 86.8404
L558.741 57.4289
L565.237 67.246
L566.086 69.7769
L567.881 73.1794
L567.913 73.2123
L568.795 73.7479
L569.676 73.7283
L570.623 73.3508
L575.094 74.8876
L585.866 170.424
L591.448 249.028
L594.19 265.001
L595.56 265.998
L596.376 264.093
L600.065 218.807
L608.976 86.0473
L618.409 85.8372
L619.715 89.8746
L622.032 99.8564
L623.469 110.999
L628.985 258.702
L632.771 221.314
L634.926 164.397
L635.35 158.408
L636.133 150.208
L642.368 164.266
L642.4 164.811
L644.261 197.942
L645.534 214.556
L646.383 218.769
L648.994 219.153
L652.421 197.918
L652.78 192.48
L654.869 152.694
L659.145 114.024
L664.009 102.212
L670.113 92.1686
L674.65 79.1997
L680.166 66.1114
L688.718 59.9299
L698.87 63.374
L700.567 67.1004
L702.525 72.1823
L704.647 77.9616
L707.617 85.1652
L708.858 87.0603
L719.27 87.1114
L722.796 99.4132
L723.677 105.028
L726.092 111.062
L726.125 111.022
L728.214 144.335
L730.434 286.444
L732.718 319.767
L733.502 320.934
L734.416 321.546
L735.428 321.835
L736.472 321.898
L741.727 321.673
L748.419 321.487
L750.704 320.917
L752.499 317.283
L758.081 130.333
L758.668 125.032
L762.226 121.919
L770.517 70.1088
L777.372 137.043
L777.404 138.923
L777.404 138.923" style="fill:none;opacity:0.5;stroke:#0000ff;stroke-linecap:square;"/>
   </g>
   <g id="line2d_6">
    <path clip-path="url(#p9fd4257182)" d="
M108.685 110.614
L108.718 110.345
L112.113 89.3875
L113.941 81.6617
L116.389 80.358
L116.421 80.4737
L117.172 84.8353
L117.205 85.1133
L119.196 111.235
L120.763 141.522
L134.309 106.15
L134.341 106.392
L141.588 173.346
L141.62 173.011
L144.036 140.031
L148.344 68.8005
L153.012 64.4949
L153.045 64.6075
L155.003 76.9818
L155.036 77.2997
L156.407 94.1059
L157.517 128.839
L162.315 105.447
L162.543 100.266
L164.077 74.9902
L164.404 72.3368
L165.057 68.9029
L166.036 66.1005
L166.819 65.3515
L169.169 72.4269
L172.075 143.423
L172.434 157.724
L173.315 179.378
L176.905 211.434
L186.306 77.7951
L187.318 76.6304
L187.938 77.084
L188.46 78.4879
L194.336 321.725
L195.968 322.181
L197.273 322.21
L199.069 321.234
L199.167 321.027
L202.17 181.848
L203.247 122.861
L203.867 108.862
L205.825 105.523
L206.25 104.11
L209.187 87.682
L209.547 87.4314
L211.538 94.3944
L212.19 95.8811
L212.223 95.8261
L213.594 88.8405
L214.051 88.0221
L216.597 143.855
L218.392 202.036
L225.639 271.742
L225.671 271.149
L227.826 218.479
L232.526 131.953
L241.208 185.41
L241.241 185.147
L241.894 178.28
L245.06 131.041
L248.716 140.587
L251.849 137.822
L251.947 136.814
L253.938 113.037
L255.995 87.7065
L262.229 57.4965
L278.256 56.5027
L279.235 56.5623
L280.737 58.9199
L284.262 93.2716
L284.295 92.9143
L284.98 78.9286
L286.057 61.8316
L287.428 58.0225
L288.212 58.2013
L288.995 59.0579
L290.17 60.7481
L291.508 67.8561
L291.867 70.4793
L293.434 68.2817
L300.942 57.0674
L303.977 56.7714
L306.817 56.95
L307.764 57.3064
L309.069 58.3156
L311.191 62.9269
L322.55 111.008
L322.583 110.864
L323.236 107.762
L335.052 62.6193
L344.877 67.4635
L347.651 80.9632
L354.473 155.761
L354.506 155.62
L359.826 94.5096
L361.23 83.1618
L362.144 78.3413
L367.366 66
L371.773 68.4512
L372.099 68.9485
L374.906 71.0913
L377.093 67.8955
L384.47 78.9272
L385.939 82.317
L390.28 97.8504
L404.316 143.979
L404.349 143.829
L424.488 56.8431
L428.928 57.2943
L437.545 75.9773
L437.643 76.5505
L438.916 85.2151
L443.224 127.436
L444.824 144.326
L457.032 281.621
L461.144 301.548
L461.177 301.608
L462.874 301.355
L470.839 260.831
L470.871 258.761
L472.569 88.7037
L482.361 60.3387
L492.643 71.0673
L502.207 75.6724
L525.023 90.4667
L530.605 91.0396
L532.139 90.0382
L558.741 96.4742
L565.237 79.6672
L566.086 77.8828
L567.913 74.6087
L568.795 73.3353
L569.676 72.2677
L570.623 71.3521
L575.094 70.3849
L585.866 96.2518
L591.448 159.619
L594.19 192.408
L595.56 201.683
L596.376 204.028
L600.065 180.199
L609.009 99.8494
L618.377 103.923
L618.409 104.074
L619.715 111.488
L622.032 132.151
L623.469 150.322
L627.32 227.383
L628.985 249.139
L632.771 208.217
L634.926 164.965
L635.35 160.111
L636.133 147.08
L642.368 151.925
L642.4 153.8
L644.261 269.602
L645.534 304.794
L646.383 312.639
L648.961 313.159
L648.994 313.046
L652.421 287.194
L652.78 282.828
L659.145 128.177
L664.009 105.787
L668.872 100.329
L670.113 99.5145
L674.65 85.7617
L680.166 65.2166
L688.718 59.4097
L698.837 69.0092
L698.87 69.2162
L700.567 87.6402
L702.525 139.105
L704.647 222.017
L707.617 289.11
L708.858 297.347
L719.27 170.895
L722.796 151.653
L723.677 153.026
L726.125 170.36
L728.214 201.36
L730.434 244.145
L732.718 274.46
L733.469 276.975
L733.502 276.945
L734.416 274.727
L735.428 278.094
L736.472 293.104
L737.778 313.352
L737.974 315.495
L738.594 319.845
L739.018 320.887
L739.997 321.588
L741.205 321.712
L741.434 321.635
L741.727 321.355
L746.265 300.741
L746.297 300.905
L748.419 296.539
L750.704 295.519
L752.499 284.767
L758.081 111.685
L758.668 107.42
L762.193 98.5669
L762.226 98.5834
L770.517 196.808
L777.372 317.985
L777.404 317.958" style="fill:none;opacity:0.5;stroke:#ff0000;stroke-linecap:square;"/>
   </g>
   <g id="line2d_7">
    <path clip-path="url(#p9fd4257182)" d="
M108.685 154.377
L108.718 153.858
L112.113 115.381
L112.537 113.964
L113.941 111.093
L116.421 112.843
L117.205 115.409
L119.196 122.026
L120.763 125.887
L134.309 126.982
L141.588 78.2085
L144.036 73.9373
L148.344 76.3273
L153.045 100.541
L155.036 116.69
L156.407 124.926
L157.517 146.461
L162.315 159.108
L162.543 155.807
L164.404 126.757
L165.057 119.436
L166.036 111.532
L166.819 108.593
L169.137 104.276
L172.434 213.506
L173.282 213.097
L173.315 212.747
L176.905 150.901
L186.306 70.1479
L187.318 83.3179
L187.938 97.687
L188.46 115.116
L194.336 321.237
L195.968 321.938
L197.273 321.989
L199.069 319.004
L199.167 318.301
L202.17 159.658
L203.247 134.376
L203.834 131.046
L203.867 131.178
L205.825 166.694
L206.217 167.736
L206.25 167.52
L209.187 101.411
L209.547 95.8392
L211.538 73.8584
L212.223 70.8824
L213.594 66.2828
L214.051 66.1248
L216.597 113.704
L218.392 201.272
L225.639 258.351
L225.671 257.341
L227.826 183.698
L232.526 125.142
L241.241 227.58
L241.894 230.885
L242.775 232.093
L242.808 232.068
L245.06 218.404
L248.716 144.263
L251.947 84.8547
L253.155 72.6512
L253.938 67.1636
L255.995 59.455
L262.229 56.4987
L278.256 76.2034
L279.235 79.2255
L280.737 75.5948
L284.295 63.9853
L284.98 63.5072
L286.057 64.1228
L287.428 68.6051
L288.212 72.5871
L288.995 75.8842
L290.17 76.0122
L291.541 66.9927
L291.867 64.2296
L293.467 57.7031
L300.942 56.9573
L301.856 57.5265
L303.977 64.0878
L306.817 101.591
L307.764 111.608
L309.037 115.093
L309.069 115.037
L311.191 101.638
L322.55 111.893
L323.236 117.22
L335.019 111.376
L335.052 111.226
L344.844 104.17
L347.651 114.405
L354.506 111.277
L359.826 93.5307
L362.144 84.5084
L367.366 70.4276
L371.773 66.3142
L372.099 66.213
L374.906 66.6512
L377.093 69.2865
L384.47 95.8183
L385.939 101.954
L390.313 114.593
L404.349 63.9037
L424.488 56.7346
L428.928 57.3105
L437.643 77.3981
L438.916 81.9427
L443.224 100.302
L444.824 109.933
L457.032 316.175
L461.144 320.773
L461.177 320.777
L462.874 320.581
L470.871 265.374
L472.569 214.852
L482.361 77.6215
L492.643 67.7354
L502.207 74.2946
L525.023 79.653
L530.605 79.5515
L532.139 78.7567
L558.741 87.9566
L565.237 82.1813
L568.795 72.8748
L569.676 71.0692
L570.623 69.4977
L575.094 67.6586
L585.866 137.663
L591.448 242.653
L594.19 269.052
L595.56 273.119
L596.376 272.67
L600.065 224.476
L609.009 77.7951
L618.409 87.7111
L619.715 93.1171
L622.032 112.036
L623.469 130.739
L627.32 210.412
L628.985 236.299
L632.771 214.932
L634.926 190.071
L635.35 188.975
L636.133 185.407
L642.368 231.972
L642.4 233.139
L644.261 286.168
L645.534 302.243
L646.383 306.589
L648.994 303.463
L652.78 273.383
L654.869 244.285
L659.145 156.621
L664.009 106.358
L668.84 107.289
L670.08 110.019
L674.617 113.025
L674.65 112.975
L680.166 107.65
L688.718 89.6517
L698.87 75.2711
L700.567 76.8053
L702.525 79.6927
L704.647 84.3091
L708.858 97.2378
L719.27 89.0527
L722.796 92.6676
L723.677 94.8631
L726.125 120.477
L728.214 164.478
L730.434 208.499
L732.718 288.324
L733.502 306.067
L734.416 316.518
L735.428 319.962
L736.44 320.613
L737.974 320.933
L739.997 321.93
L741.434 322.089
L746.297 321.825
L748.419 321.97
L750.704 321.879
L752.499 316.843
L758.081 133.65
L758.668 129.413
L762.226 141.19
L770.484 198.88
L770.517 198.543
L777.372 188.505
L777.404 189.033
L777.404 189.033" style="fill:none;opacity:0.5;stroke:#0000ff;stroke-linecap:square;"/>
   </g>
   <g id="line2d_8">
    <path clip-path="url(#p9fd4257182)" d="
M108.685 145.074
L108.718 144.976
L112.537 126.613
L113.941 120.928
L116.389 120.841
L116.421 120.969
L117.205 125.462
L119.196 139.776
L120.763 148.476
L134.341 97.9137
L141.62 82.8634
L144.036 81.387
L148.344 76.8983
L153.045 83.5333
L155.036 95.1096
L156.407 108.237
L157.517 124.946
L162.315 136.412
L162.347 136.361
L162.543 136.07
L163.849 132.845
L164.404 129.485
L165.057 121.594
L166.036 103.983
L166.819 93.7258
L169.137 87.7544
L169.169 87.8009
L172.075 132.577
L172.434 145.33
L173.315 183.598
L176.905 289.818
L186.306 87.552
L187.318 81.1051
L187.938 78.8653
L188.46 77.9928
L194.336 315.572
L195.674 316.627
L195.968 316.372
L196.882 315.334
L197.273 314.611
L199.069 299.053
L199.167 296.688
L202.17 164.907
L203.247 135.504
L203.867 126.981
L205.793 128.393
L205.825 128.175
L206.25 122.961
L209.187 69.0958
L209.547 67.746
L211.538 65.3719
L212.223 66.3312
L213.594 69.8549
L214.051 72.0734
L216.597 127.409
L218.392 189.058
L225.639 232.714
L227.826 163.677
L232.526 131.023
L241.241 257.05
L241.894 263.146
L242.808 268.817
L245.027 269.576
L245.06 269.441
L248.716 212.656
L251.947 85.7491
L253.155 67.839
L253.938 62.6574
L255.995 57.8885
L262.229 56.7835
L278.256 135.692
L279.235 102.766
L280.737 78.2779
L284.295 67.3015
L284.98 67.9899
L286.057 71.474
L287.428 76.3098
L288.212 77.1391
L288.995 76.1822
L290.17 71.6539
L291.867 61.1529
L293.467 57.2243
L300.909 68.7179
L300.942 69.1402
L301.856 85.4553
L303.945 114.463
L303.977 114.43
L306.817 69.8675
L307.764 62.389
L309.069 59.032
L311.191 57.6674
L323.236 57.088
L335.052 56.6785
L344.877 60.3707
L347.651 66.6177
L354.473 83.9514
L354.506 83.6525
L359.206 58.3799
L359.826 57.7678
L361.23 57.0746
L362.144 56.8863
L367.366 56.5904
L372.099 56.7954
L374.906 59.8602
L377.093 69.2033
L384.438 97.3979
L385.939 97.0284
L390.313 97.7421
L404.349 158.372
L424.456 110.688
L424.488 110.041
L428.699 66.0868
L428.928 65.2625
L437.643 58.6793
L438.916 59.2889
L442.735 69.4701
L443.224 72.9496
L444.824 89.6258
L457.032 269.867
L461.177 307.84
L462.874 312.309
L470.871 205.786
L472.569 112.94
L482.328 69.5679
L482.361 69.6904
L501.717 62.8669
L502.174 62.7693
L525.023 58.9594
L530.572 59.1799
L532.139 60.045
L558.709 98.9238
L558.741 98.7873
L565.237 78.6924
L566.086 78.7258
L567.652 80.3275
L567.913 80.7764
L568.795 82.6649
L569.676 85.1238
L570.623 88.3853
L575.094 109.057
L585.866 157.351
L591.448 259.901
L594.19 286.885
L595.56 292.535
L596.376 293.894
L600.065 282.035
L609.009 162.999
L618.377 101.164
L618.409 101.235
L619.715 104.949
L622.032 115.506
L623.469 126.844
L627.32 209.902
L628.985 240.222
L632.771 196.919
L634.926 154.564
L635.35 150.652
L636.133 146.633
L642.4 193.808
L644.261 233.463
L645.534 256.881
L646.383 268.233
L648.961 280.345
L648.994 280.3
L652.421 230.919
L654.869 146.648
L659.145 88.6434
L664.009 74.4027
L668.872 61.5439
L670.113 59.3489
L674.65 56.5852
L680.166 56.5815
L688.718 57.0313
L700.567 56.9267
L702.525 57.0551
L704.647 57.3446
L707.617 58.564
L708.858 59.6405
L719.27 76.3322
L722.796 104.84
L723.677 117.206
L728.214 228.041
L730.434 257.179
L733.502 313.871
L734.416 319.54
L735.428 321.205
L736.472 321.597
L737.647 321.636
L737.974 321.574
L738.594 321.295
L739.018 320.817
L739.997 317.881
L741.205 311.553
L741.727 310.428
L746.297 321.404
L748.419 321.884
L750.704 321.479
L752.499 316.434
L758.081 82.8674
L758.668 77.3629
L762.226 66.9564
L770.517 58.9181
L777.372 138.626
L777.404 141.425
L777.404 141.425" style="fill:none;opacity:0.5;stroke:#0000ff;stroke-linecap:square;"/>
   </g>
   <g id="patch_14">
    <path d="
M108 43.2
L777.6 43.2" style="fill:none;stroke:#000000;stroke-linecap:square;stroke-linejoin:miter;"/>
   </g>
   <g id="patch_15">
    <path d="
M777.6 322.473
L777.6 43.2" style="fill:none;stroke:#000000;stroke-linecap:square;stroke-linejoin:miter;"/>
   </g>
   <g id="patch_16">
    <path d="
M108 322.473
L777.6 322.473" style="fill:none;stroke:#000000;stroke-linecap:square;stroke-linejoin:miter;"/>
   </g>
   <g id="patch_17">
    <path d="
M108 322.473
L108 43.2" style="fill:none;stroke:#000000;stroke-linecap:square;stroke-linejoin:miter;"/>
   </g>
   <g id="matplotlib.axis_1">
    <g id="ytick_1">
     <g id="line2d_9">
      <defs>
       <path d="
M0 0
L4 0" id="m728421d6d4" style="stroke:#000000;stroke-width:0.5;"/>
      </defs>
      <g>
       <use style="stroke:#000000;stroke-width:0.5;" x="108.0" xlink:href="#m728421d6d4" y="322.472727273"/>
      </g>
     </g>
     <g id="line2d_10">
      <defs>
       <path d="
M0 0
L-4 0" id="mcb0005524f" style="stroke:#000000;stroke-width:0.5;"/>
      </defs>
      <g>
       <use style="stroke:#000000;stroke-width:0.5;" x="777.6" xlink:href="#mcb0005524f" y="322.472727273"/>
      </g>
     </g>
     <g id="text_1">
      <!-- 0 -->
      <defs>
       <path d="
M31.7812 66.4062
Q24.1719 66.4062 20.3281 58.9062
Q16.5 51.4219 16.5 36.375
Q16.5 21.3906 20.3281 13.8906
Q24.1719 6.39062 31.7812 6.39062
Q39.4531 6.39062 43.2812 13.8906
Q47.125 21.3906 47.125 36.375
Q47.125 51.4219 43.2812 58.9062
Q39.4531 66.4062 31.7812 66.4062
M31.7812 74.2188
Q44.0469 74.2188 50.5156 64.5156
Q56.9844 54.8281 56.9844 36.375
Q56.9844 17.9688 50.5156 8.26562
Q44.0469 -1.42188 31.7812 -1.42188
Q19.5312 -1.42188 13.0625 8.26562
Q6.59375 17.9688 6.59375 36.375
Q6.59375 54.8281 13.0625 64.5156
Q19.5312 74.2188 31.7812 74.2188" id="DejaVuSans-30"/>
      </defs>
      <g transform="translate(97.953125 325.783977273)scale(0.12 -0.12)">
       <use xlink:href="#DejaVuSans-30"/>
      </g>
     </g>
    </g>
    <g id="ytick_2">
     <g id="line2d_11">
      <g>
       <use style="stroke:#000000;stroke-width:0.5;" x="108.0" xlink:href="#m728421d6d4" y="269.277922078"/>
      </g>
     </g>
     <g id="line2d_12">
      <g>
       <use style="stroke:#000000;stroke-width:0.5;" x="777.6" xlink:href="#mcb0005524f" y="269.277922078"/>
      </g>
     </g>
     <g id="text_2">
      <!-- 20 -->
      <defs>
       <path d="
M19.1875 8.29688
L53.6094 8.29688
L53.6094 0
L7.32812 0
L7.32812 8.29688
Q12.9375 14.1094 22.625 23.8906
Q32.3281 33.6875 34.8125 36.5312
Q39.5469 41.8438 41.4219 45.5312
Q43.3125 49.2188 43.3125 52.7812
Q43.3125 58.5938 39.2344 62.25
Q35.1562 65.9219 28.6094 65.9219
Q23.9688 65.9219 18.8125 64.3125
Q13.6719 62.7031 7.8125 59.4219
L7.8125 69.3906
Q13.7656 71.7812 18.9375 73
Q24.125 74.2188 28.4219 74.2188
Q39.75 74.2188 46.4844 68.5469
Q53.2188 62.8906 53.2188 53.4219
Q53.2188 48.9219 51.5312 44.8906
Q49.8594 40.875 45.4062 35.4062
Q44.1875 33.9844 37.6406 27.2188
Q31.1094 20.4531 19.1875 8.29688" id="DejaVuSans-32"/>
      </defs>
      <g transform="translate(90.40625 272.589172078)scale(0.12 -0.12)">
       <use xlink:href="#DejaVuSans-32"/>
       <use x="63.623046875" xlink:href="#DejaVuSans-30"/>
      </g>
     </g>
    </g>
    <g id="ytick_3">
     <g id="line2d_13">
      <g>
       <use style="stroke:#000000;stroke-width:0.5;" x="108.0" xlink:href="#m728421d6d4" y="216.083116883"/>
      </g>
     </g>
     <g id="line2d_14">
      <g>
       <use style="stroke:#000000;stroke-width:0.5;" x="777.6" xlink:href="#mcb0005524f" y="216.083116883"/>
      </g>
     </g>
     <g id="text_3">
      <!-- 40 -->
      <defs>
       <path d="
M37.7969 64.3125
L12.8906 25.3906
L37.7969 25.3906
z

M35.2031 72.9062
L47.6094 72.9062
L47.6094 25.3906
L58.0156 25.3906
L58.0156 17.1875
L47.6094 17.1875
L47.6094 0
L37.7969 0
L37.7969 17.1875
L4.89062 17.1875
L4.89062 26.7031
z
" id="DejaVuSans-34"/>
      </defs>
      <g transform="translate(90.11375 219.394366883)scale(0.12 -0.12)">
       <use xlink:href="#DejaVuSans-34"/>
       <use x="63.623046875" xlink:href="#DejaVuSans-30"/>
      </g>
     </g>
    </g>
    <g id="ytick_4">
     <g id="line2d_15">
      <g>
       <use style="stroke:#000000;stroke-width:0.5;" x="108.0" xlink:href="#m728421d6d4" y="162.888311688"/>
      </g>
     </g>
     <g id="line2d_16">
      <g>
       <use style="stroke:#000000;stroke-width:0.5;" x="777.6" xlink:href="#mcb0005524f" y="162.888311688"/>
      </g>
     </g>
     <g id="text_4">
      <!-- 60 -->
      <defs>
       <path d="
M33.0156 40.375
Q26.375 40.375 22.4844 35.8281
Q18.6094 31.2969 18.6094 23.3906
Q18.6094 15.5312 22.4844 10.9531
Q26.375 6.39062 33.0156 6.39062
Q39.6562 6.39062 43.5312 10.9531
Q47.4062 15.5312 47.4062 23.3906
Q47.4062 31.2969 43.5312 35.8281
Q39.6562 40.375 33.0156 40.375
M52.5938 71.2969
L52.5938 62.3125
Q48.875 64.0625 45.0938 64.9844
Q41.3125 65.9219 37.5938 65.9219
Q27.8281 65.9219 22.6719 59.3281
Q17.5312 52.7344 16.7969 39.4062
Q19.6719 43.6562 24.0156 45.9219
Q28.375 48.1875 33.5938 48.1875
Q44.5781 48.1875 50.9531 41.5156
Q57.3281 34.8594 57.3281 23.3906
Q57.3281 12.1562 50.6875 5.35938
Q44.0469 -1.42188 33.0156 -1.42188
Q20.3594 -1.42188 13.6719 8.26562
Q6.98438 17.9688 6.98438 36.375
Q6.98438 53.6562 15.1875 63.9375
Q23.3906 74.2188 37.2031 74.2188
Q40.9219 74.2188 44.7031 73.4844
Q48.4844 72.75 52.5938 71.2969" id="DejaVuSans-36"/>
      </defs>
      <g transform="translate(90.365 166.199561688)scale(0.12 -0.12)">
       <use xlink:href="#DejaVuSans-36"/>
       <use x="63.623046875" xlink:href="#DejaVuSans-30"/>
      </g>
     </g>
    </g>
    <g id="ytick_5">
     <g id="line2d_17">
      <g>
       <use style="stroke:#000000;stroke-width:0.5;" x="108.0" xlink:href="#m728421d6d4" y="109.693506494"/>
      </g>
     </g>
     <g id="line2d_18">
      <g>
       <use style="stroke:#000000;stroke-width:0.5;" x="777.6" xlink:href="#mcb0005524f" y="109.693506494"/>
      </g>
     </g>
     <g id="text_5">
      <!-- 80 -->
      <defs>
       <path d="
M31.7812 34.625
Q24.75 34.625 20.7188 30.8594
Q16.7031 27.0938 16.7031 20.5156
Q16.7031 13.9219 20.7188 10.1562
Q24.75 6.39062 31.7812 6.39062
Q38.8125 6.39062 42.8594 10.1719
Q46.9219 13.9688 46.9219 20.5156
Q46.9219 27.0938 42.8906 30.8594
Q38.875 34.625 31.7812 34.625
M21.9219 38.8125
Q15.5781 40.375 12.0312 44.7188
Q8.5 49.0781 8.5 55.3281
Q8.5 64.0625 14.7188 69.1406
Q20.9531 74.2188 31.7812 74.2188
Q42.6719 74.2188 48.875 69.1406
Q55.0781 64.0625 55.0781 55.3281
Q55.0781 49.0781 51.5312 44.7188
Q48 40.375 41.7031 38.8125
Q48.8281 37.1562 52.7969 32.3125
Q56.7812 27.4844 56.7812 20.5156
Q56.7812 9.90625 50.3125 4.23438
Q43.8438 -1.42188 31.7812 -1.42188
Q19.7344 -1.42188 13.25 4.23438
Q6.78125 9.90625 6.78125 20.5156
Q6.78125 27.4844 10.7812 32.3125
Q14.7969 37.1562 21.9219 38.8125
M18.3125 54.3906
Q18.3125 48.7344 21.8438 45.5625
Q25.3906 42.3906 31.7812 42.3906
Q38.1406 42.3906 41.7188 45.5625
Q45.3125 48.7344 45.3125 54.3906
Q45.3125 60.0625 41.7188 63.2344
Q38.1406 66.4062 31.7812 66.4062
Q25.3906 66.4062 21.8438 63.2344
Q18.3125 60.0625 18.3125 54.3906" id="DejaVuSans-38"/>
      </defs>
      <g transform="translate(90.340625 113.004756494)scale(0.12 -0.12)">
       <use xlink:href="#DejaVuSans-38"/>
       <use x="63.623046875" xlink:href="#DejaVuSans-30"/>
      </g>
     </g>
    </g>
    <g id="ytick_6">
     <g id="line2d_19">
      <g>
       <use style="stroke:#000000;stroke-width:0.5;" x="108.0" xlink:href="#m728421d6d4" y="56.4987012987"/>
      </g>
     </g>
     <g id="line2d_20">
      <g>
       <use style="stroke:#000000;stroke-width:0.5;" x="777.6" xlink:href="#mcb0005524f" y="56.4987012987"/>
      </g>
     </g>
     <g id="text_6">
      <!-- 100 -->
      <defs>
       <path d="
M12.4062 8.29688
L28.5156 8.29688
L28.5156 63.9219
L10.9844 60.4062
L10.9844 69.3906
L28.4219 72.9062
L38.2812 72.9062
L38.2812 8.29688
L54.3906 8.29688
L54.3906 0
L12.4062 0
z
" id="DejaVuSans-31"/>
      </defs>
      <g transform="translate(83.21 59.8099512987)scale(0.12 -0.12)">
       <use xlink:href="#DejaVuSans-31"/>
       <use x="63.623046875" xlink:href="#DejaVuSans-30"/>
       <use x="127.24609375" xlink:href="#DejaVuSans-30"/>
      </g>
     </g>
    </g>
    <g id="text_7">
     <!-- Methylation -->
     <defs>
      <path d="
M9.8125 72.9062
L24.5156 72.9062
L43.1094 23.2969
L61.8125 72.9062
L76.5156 72.9062
L76.5156 0
L66.8906 0
L66.8906 64.0156
L48.0938 14.0156
L38.1875 14.0156
L19.3906 64.0156
L19.3906 0
L9.8125 0
z
" id="DejaVuSans-4d"/>
      <path d="
M30.6094 48.3906
Q23.3906 48.3906 19.1875 42.75
Q14.9844 37.1094 14.9844 27.2969
Q14.9844 17.4844 19.1562 11.8438
Q23.3438 6.20312 30.6094 6.20312
Q37.7969 6.20312 41.9844 11.8594
Q46.1875 17.5312 46.1875 27.2969
Q46.1875 37.0156 41.9844 42.7031
Q37.7969 48.3906 30.6094 48.3906
M30.6094 56
Q42.3281 56 49.0156 48.375
Q55.7188 40.7656 55.7188 27.2969
Q55.7188 13.875 49.0156 6.21875
Q42.3281 -1.42188 30.6094 -1.42188
Q18.8438 -1.42188 12.1719 6.21875
Q5.51562 13.875 5.51562 27.2969
Q5.51562 40.7656 12.1719 48.375
Q18.8438 56 30.6094 56" id="DejaVuSans-6f"/>
      <path d="
M54.8906 33.0156
L54.8906 0
L45.9062 0
L45.9062 32.7188
Q45.9062 40.4844 42.875 44.3281
Q39.8438 48.1875 33.7969 48.1875
Q26.5156 48.1875 22.3125 43.5469
Q18.1094 38.9219 18.1094 30.9062
L18.1094 0
L9.07812 0
L9.07812 54.6875
L18.1094 54.6875
L18.1094 46.1875
Q21.3438 51.125 25.7031 53.5625
Q30.0781 56 35.7969 56
Q45.2188 56 50.0469 50.1719
Q54.8906 44.3438 54.8906 33.0156" id="DejaVuSans-6e"/>
      <path d="
M9.42188 75.9844
L18.4062 75.9844
L18.4062 0
L9.42188 0
z
" id="DejaVuSans-6c"/>
      <path d="
M32.1719 -5.07812
Q28.375 -14.8438 24.75 -17.8125
Q21.1406 -20.7969 15.0938 -20.7969
L7.90625 -20.7969
L7.90625 -13.2812
L13.1875 -13.2812
Q16.8906 -13.2812 18.9375 -11.5156
Q21 -9.76562 23.4844 -3.21875
L25.0938 0.875
L2.98438 54.6875
L12.5 54.6875
L29.5938 11.9219
L46.6875 54.6875
L56.2031 54.6875
z
" id="DejaVuSans-79"/>
      <path d="
M54.8906 33.0156
L54.8906 0
L45.9062 0
L45.9062 32.7188
Q45.9062 40.4844 42.875 44.3281
Q39.8438 48.1875 33.7969 48.1875
Q26.5156 48.1875 22.3125 43.5469
Q18.1094 38.9219 18.1094 30.9062
L18.1094 0
L9.07812 0
L9.07812 75.9844
L18.1094 75.9844
L18.1094 46.1875
Q21.3438 51.125 25.7031 53.5625
Q30.0781 56 35.7969 56
Q45.2188 56 50.0469 50.1719
Q54.8906 44.3438 54.8906 33.0156" id="DejaVuSans-68"/>
      <path d="
M9.42188 54.6875
L18.4062 54.6875
L18.4062 0
L9.42188 0
z

M9.42188 75.9844
L18.4062 75.9844
L18.4062 64.5938
L9.42188 64.5938
z
" id="DejaVuSans-69"/>
      <path d="
M18.3125 70.2188
L18.3125 54.6875
L36.8125 54.6875
L36.8125 47.7031
L18.3125 47.7031
L18.3125 18.0156
Q18.3125 11.3281 20.1406 9.42188
Q21.9688 7.51562 27.5938 7.51562
L36.8125 7.51562
L36.8125 0
L27.5938 0
Q17.1875 0 13.2344 3.875
Q9.28125 7.76562 9.28125 18.0156
L9.28125 47.7031
L2.6875 47.7031
L2.6875 54.6875
L9.28125 54.6875
L9.28125 70.2188
z
" id="DejaVuSans-74"/>
      <path d="
M56.2031 29.5938
L56.2031 25.2031
L14.8906 25.2031
Q15.4844 15.9219 20.4844 11.0625
Q25.4844 6.20312 34.4219 6.20312
Q39.5938 6.20312 44.4531 7.46875
Q49.3125 8.73438 54.1094 11.2812
L54.1094 2.78125
Q49.2656 0.734375 44.1875 -0.34375
Q39.1094 -1.42188 33.8906 -1.42188
Q20.7969 -1.42188 13.1562 6.1875
Q5.51562 13.8125 5.51562 26.8125
Q5.51562 40.2344 12.7656 48.1094
Q20.0156 56 32.3281 56
Q43.3594 56 49.7812 48.8906
Q56.2031 41.7969 56.2031 29.5938
M47.2188 32.2344
Q47.125 39.5938 43.0938 43.9844
Q39.0625 48.3906 32.4219 48.3906
Q24.9062 48.3906 20.3906 44.1406
Q15.875 39.8906 15.1875 32.1719
z
" id="DejaVuSans-65"/>
      <path d="
M34.2812 27.4844
Q23.3906 27.4844 19.1875 25
Q14.9844 22.5156 14.9844 16.5
Q14.9844 11.7188 18.1406 8.90625
Q21.2969 6.10938 26.7031 6.10938
Q34.1875 6.10938 38.7031 11.4062
Q43.2188 16.7031 43.2188 25.4844
L43.2188 27.4844
z

M52.2031 31.2031
L52.2031 0
L43.2188 0
L43.2188 8.29688
Q40.1406 3.32812 35.5469 0.953125
Q30.9531 -1.42188 24.3125 -1.42188
Q15.9219 -1.42188 10.9531 3.29688
Q6 8.01562 6 15.9219
Q6 25.1406 12.1719 29.8281
Q18.3594 34.5156 30.6094 34.5156
L43.2188 34.5156
L43.2188 35.4062
Q43.2188 41.6094 39.1406 45
Q35.0625 48.3906 27.6875 48.3906
Q23 48.3906 18.5469 47.2656
Q14.1094 46.1406 10.0156 43.8906
L10.0156 52.2031
Q14.9375 54.1094 19.5781 55.0469
Q24.2188 56 28.6094 56
Q40.4844 56 46.3438 49.8438
Q52.2031 43.7031 52.2031 31.2031" id="DejaVuSans-61"/>
     </defs>
     <g transform="translate(75.714375 217.149801136)rotate(-90.0)scale(0.12 -0.12)">
      <use xlink:href="#DejaVuSans-4d"/>
      <use x="86.279296875" xlink:href="#DejaVuSans-65"/>
      <use x="147.802734375" xlink:href="#DejaVuSans-74"/>
      <use x="187.01171875" xlink:href="#DejaVuSans-68"/>
      <use x="250.390625" xlink:href="#DejaVuSans-79"/>
      <use x="309.5703125" xlink:href="#DejaVuSans-6c"/>
      <use x="337.353515625" xlink:href="#DejaVuSans-61"/>
      <use x="398.6328125" xlink:href="#DejaVuSans-74"/>
      <use x="437.841796875" xlink:href="#DejaVuSans-69"/>
      <use x="465.625" xlink:href="#DejaVuSans-6f"/>
      <use x="526.806640625" xlink:href="#DejaVuSans-6e"/>
     </g>
    </g>
   </g>
  </g>
  <g id="axes_2">
   <g id="patch_18">
    <path d="
M108 388.8
L777.6 388.8
L777.6 353.891
L108 353.891
z
" style="fill:#ffffff;"/>
   </g>
   <g id="line2d_21">
    <path clip-path="url(#pc82b1f09f0)" d="
M108 371.345
L777.6 371.345" style="fill:none;stroke:#000000;stroke-linecap:square;"/>
   </g>
   <g id="line2d_22">
    <path clip-path="url(#pc82b1f09f0)" d="
M140.641 371.345
L744.959 371.345" style="fill:none;stroke:#008000;stroke-linecap:square;stroke-width:3;"/>
   </g>
   <g id="patch_19">
    <path clip-path="url(#pc82b1f09f0)" d="
M736.864 388.8
L744.959 388.8
L744.959 353.891
L736.864 353.891
z
" style="fill:#008000;"/>
   </g>
   <g id="patch_20">
    <path clip-path="url(#pc82b1f09f0)" d="
M713.917 388.8
L716.071 388.8
L716.071 353.891
L713.917 353.891
z
" style="fill:#008000;"/>
   </g>
   <g id="patch_21">
    <path clip-path="url(#pc82b1f09f0)" d="
M669.982 388.8
L671.223 388.8
L671.223 353.891
L669.982 353.891
z
" style="fill:#008000;"/>
   </g>
   <g id="patch_22">
    <path clip-path="url(#pc82b1f09f0)" d="
M638.581 388.8
L641.78 388.8
L641.78 353.891
L638.581 353.891
z
" style="fill:#008000;"/>
   </g>
   <g id="patch_23">
    <path clip-path="url(#pc82b1f09f0)" d="
M620.498 388.8
L625.297 388.8
L625.297 353.891
L620.498 353.891
z
" style="fill:#008000;"/>
   </g>
   <g id="patch_24">
    <path clip-path="url(#pc82b1f09f0)" d="
M562.952 388.8
L565.694 388.8
L565.694 353.891
L562.952 353.891
z
" style="fill:#008000;"/>
   </g>
   <g id="patch_25">
    <path clip-path="url(#pc82b1f09f0)" d="
M329.339 388.8
L331.461 388.8
L331.461 353.891
L329.339 353.891
z
" style="fill:#008000;"/>
   </g>
   <g id="patch_26">
    <path clip-path="url(#pc82b1f09f0)" d="
M300.028 388.8
L313.411 388.8
L313.411 353.891
L300.028 353.891
z
" style="fill:#008000;"/>
   </g>
   <g id="patch_27">
    <path clip-path="url(#pc82b1f09f0)" d="
M252.404 388.8
L258.182 388.8
L258.182 353.891
L252.404 353.891
z
" style="fill:#008000;"/>
   </g>
   <g id="patch_28">
    <path clip-path="url(#pc82b1f09f0)" d="
M210.493 388.8
L215.324 388.8
L215.324 353.891
L210.493 353.891
z
" style="fill:#008000;"/>
   </g>
   <g id="patch_29">
    <path clip-path="url(#pc82b1f09f0)" d="
M140.641 388.8
L167.831 388.8
L167.831 353.891
L140.641 353.891
z
" style="fill:#008000;"/>
   </g>
   <g id="patch_30">
    <path d="
M108 353.891
L777.6 353.891" style="fill:none;"/>
   </g>
   <g id="patch_31">
    <path d="
M777.6 388.8
L777.6 353.891" style="fill:none;"/>
   </g>
   <g id="patch_32">
    <path d="
M108 388.8
L777.6 388.8" style="fill:none;"/>
   </g>
   <g id="patch_33">
    <path d="
M108 388.8
L108 353.891" style="fill:none;"/>
   </g>
   <g id="matplotlib.axis_2">
    <g id="xtick_1">
     <g id="line2d_23">
      <defs>
       <path d="
M0 0
L0 -4" id="m93b0483c22" style="stroke:#000000;stroke-width:0.5;"/>
      </defs>
      <g>
       <use style="stroke:#000000;stroke-width:0.5;" x="197.501959637" xlink:href="#m93b0483c22" y="388.8"/>
      </g>
     </g>
     <g id="line2d_24">
      <defs>
       <path d="
M0 0
L0 4" id="m741efc42ff" style="stroke:#000000;stroke-width:0.5;"/>
      </defs>
      <g>
       <use style="stroke:#000000;stroke-width:0.5;" x="197.501959637" xlink:href="#m741efc42ff" y="353.890909091"/>
      </g>
     </g>
     <g id="text_8">
      <!-- 1000 -->
      <g transform="translate(183.289459637 401.918125)scale(0.12 -0.12)">
       <use xlink:href="#DejaVuSans-31"/>
       <use x="63.623046875" xlink:href="#DejaVuSans-30"/>
       <use x="127.24609375" xlink:href="#DejaVuSans-30"/>
       <use x="190.869140625" xlink:href="#DejaVuSans-30"/>
      </g>
     </g>
    </g>
    <g id="xtick_2">
     <g id="line2d_25">
      <g>
       <use style="stroke:#000000;stroke-width:0.5;" x="360.707575314" xlink:href="#m93b0483c22" y="388.8"/>
      </g>
     </g>
     <g id="line2d_26">
      <g>
       <use style="stroke:#000000;stroke-width:0.5;" x="360.707575314" xlink:href="#m741efc42ff" y="353.890909091"/>
      </g>
     </g>
     <g id="text_9">
      <!-- 2000 -->
      <g transform="translate(346.275700314 401.918125)scale(0.12 -0.12)">
       <use xlink:href="#DejaVuSans-32"/>
       <use x="63.623046875" xlink:href="#DejaVuSans-30"/>
       <use x="127.24609375" xlink:href="#DejaVuSans-30"/>
       <use x="190.869140625" xlink:href="#DejaVuSans-30"/>
      </g>
     </g>
    </g>
    <g id="xtick_3">
     <g id="line2d_27">
      <g>
       <use style="stroke:#000000;stroke-width:0.5;" x="523.913190991" xlink:href="#m93b0483c22" y="388.8"/>
      </g>
     </g>
     <g id="line2d_28">
      <g>
       <use style="stroke:#000000;stroke-width:0.5;" x="523.913190991" xlink:href="#m741efc42ff" y="353.890909091"/>
      </g>
     </g>
     <g id="text_10">
      <!-- 3000 -->
      <defs>
       <path d="
M40.5781 39.3125
Q47.6562 37.7969 51.625 33
Q55.6094 28.2188 55.6094 21.1875
Q55.6094 10.4062 48.1875 4.48438
Q40.7656 -1.42188 27.0938 -1.42188
Q22.5156 -1.42188 17.6562 -0.515625
Q12.7969 0.390625 7.625 2.20312
L7.625 11.7188
Q11.7188 9.32812 16.5938 8.10938
Q21.4844 6.89062 26.8125 6.89062
Q36.0781 6.89062 40.9375 10.5469
Q45.7969 14.2031 45.7969 21.1875
Q45.7969 27.6406 41.2812 31.2656
Q36.7656 34.9062 28.7188 34.9062
L20.2188 34.9062
L20.2188 43.0156
L29.1094 43.0156
Q36.375 43.0156 40.2344 45.9219
Q44.0938 48.8281 44.0938 54.2969
Q44.0938 59.9062 40.1094 62.9062
Q36.1406 65.9219 28.7188 65.9219
Q24.6562 65.9219 20.0156 65.0312
Q15.375 64.1562 9.8125 62.3125
L9.8125 71.0938
Q15.4375 72.6562 20.3438 73.4375
Q25.25 74.2188 29.5938 74.2188
Q40.8281 74.2188 47.3594 69.1094
Q53.9062 64.0156 53.9062 55.3281
Q53.9062 49.2656 50.4375 45.0938
Q46.9688 40.9219 40.5781 39.3125" id="DejaVuSans-33"/>
      </defs>
      <g transform="translate(509.499128491 401.918125)scale(0.12 -0.12)">
       <use xlink:href="#DejaVuSans-33"/>
       <use x="63.623046875" xlink:href="#DejaVuSans-30"/>
       <use x="127.24609375" xlink:href="#DejaVuSans-30"/>
       <use x="190.869140625" xlink:href="#DejaVuSans-30"/>
      </g>
     </g>
    </g>
    <g id="xtick_4">
     <g id="line2d_29">
      <g>
       <use style="stroke:#000000;stroke-width:0.5;" x="687.118806669" xlink:href="#m93b0483c22" y="388.8"/>
      </g>
     </g>
     <g id="line2d_30">
      <g>
       <use style="stroke:#000000;stroke-width:0.5;" x="687.118806669" xlink:href="#m741efc42ff" y="353.890909091"/>
      </g>
     </g>
     <g id="text_11">
      <!-- 4000 -->
      <g transform="translate(672.540681669 401.918125)scale(0.12 -0.12)">
       <use xlink:href="#DejaVuSans-34"/>
       <use x="63.623046875" xlink:href="#DejaVuSans-30"/>
       <use x="127.24609375" xlink:href="#DejaVuSans-30"/>
       <use x="190.869140625" xlink:href="#DejaVuSans-30"/>
      </g>
     </g>
    </g>
    <g id="text_12">
     <!-- Length (bp) -->
     <defs>
      <path d="
M9.8125 72.9062
L19.6719 72.9062
L19.6719 8.29688
L55.1719 8.29688
L55.1719 0
L9.8125 0
z
" id="DejaVuSans-4c"/>
      <path id="DejaVuSans-20"/>
      <path d="
M45.4062 27.9844
Q45.4062 37.75 41.375 43.1094
Q37.3594 48.4844 30.0781 48.4844
Q22.8594 48.4844 18.8281 43.1094
Q14.7969 37.75 14.7969 27.9844
Q14.7969 18.2656 18.8281 12.8906
Q22.8594 7.51562 30.0781 7.51562
Q37.3594 7.51562 41.375 12.8906
Q45.4062 18.2656 45.4062 27.9844
M54.3906 6.78125
Q54.3906 -7.17188 48.1875 -13.9844
Q42 -20.7969 29.2031 -20.7969
Q24.4688 -20.7969 20.2656 -20.0938
Q16.0625 -19.3906 12.1094 -17.9219
L12.1094 -9.1875
Q16.0625 -11.3281 19.9219 -12.3438
Q23.7812 -13.375 27.7812 -13.375
Q36.625 -13.375 41.0156 -8.76562
Q45.4062 -4.15625 45.4062 5.17188
L45.4062 9.625
Q42.625 4.78125 38.2812 2.39062
Q33.9375 0 27.875 0
Q17.8281 0 11.6719 7.65625
Q5.51562 15.3281 5.51562 27.9844
Q5.51562 40.6719 11.6719 48.3281
Q17.8281 56 27.875 56
Q33.9375 56 38.2812 53.6094
Q42.625 51.2188 45.4062 46.3906
L45.4062 54.6875
L54.3906 54.6875
z
" id="DejaVuSans-67"/>
      <path d="
M31 75.875
Q24.4688 64.6562 21.2812 53.6562
Q18.1094 42.6719 18.1094 31.3906
Q18.1094 20.125 21.3125 9.0625
Q24.5156 -2 31 -13.1875
L23.1875 -13.1875
Q15.875 -1.70312 12.2344 9.375
Q8.59375 20.4531 8.59375 31.3906
Q8.59375 42.2812 12.2031 53.3125
Q15.8281 64.3594 23.1875 75.875
z
" id="DejaVuSans-28"/>
      <path d="
M8.01562 75.875
L15.8281 75.875
Q23.1406 64.3594 26.7812 53.3125
Q30.4219 42.2812 30.4219 31.3906
Q30.4219 20.4531 26.7812 9.375
Q23.1406 -1.70312 15.8281 -13.1875
L8.01562 -13.1875
Q14.5 -2 17.7031 9.0625
Q20.9062 20.125 20.9062 31.3906
Q20.9062 42.6719 17.7031 53.6562
Q14.5 64.6562 8.01562 75.875" id="DejaVuSans-29"/>
      <path d="
M48.6875 27.2969
Q48.6875 37.2031 44.6094 42.8438
Q40.5312 48.4844 33.4062 48.4844
Q26.2656 48.4844 22.1875 42.8438
Q18.1094 37.2031 18.1094 27.2969
Q18.1094 17.3906 22.1875 11.75
Q26.2656 6.10938 33.4062 6.10938
Q40.5312 6.10938 44.6094 11.75
Q48.6875 17.3906 48.6875 27.2969
M18.1094 46.3906
Q20.9531 51.2656 25.2656 53.625
Q29.5938 56 35.5938 56
Q45.5625 56 51.7812 48.0938
Q58.0156 40.1875 58.0156 27.2969
Q58.0156 14.4062 51.7812 6.48438
Q45.5625 -1.42188 35.5938 -1.42188
Q29.5938 -1.42188 25.2656 0.953125
Q20.9531 3.32812 18.1094 8.20312
L18.1094 0
L9.07812 0
L9.07812 75.9844
L18.1094 75.9844
z
" id="DejaVuSans-62"/>
      <path d="
M18.1094 8.20312
L18.1094 -20.7969
L9.07812 -20.7969
L9.07812 54.6875
L18.1094 54.6875
L18.1094 46.3906
Q20.9531 51.2656 25.2656 53.625
Q29.5938 56 35.5938 56
Q45.5625 56 51.7812 48.0938
Q58.0156 40.1875 58.0156 27.2969
Q58.0156 14.4062 51.7812 6.48438
Q45.5625 -1.42188 35.5938 -1.42188
Q29.5938 -1.42188 25.2656 0.953125
Q20.9531 3.32812 18.1094 8.20312
M48.6875 27.2969
Q48.6875 37.2031 44.6094 42.8438
Q40.5312 48.4844 33.4062 48.4844
Q26.2656 48.4844 22.1875 42.8438
Q18.1094 37.2031 18.1094 27.2969
Q18.1094 17.3906 22.1875 11.75
Q26.2656 6.10938 33.4062 6.10938
Q40.5312 6.10938 44.6094 11.75
Q48.6875 17.3906 48.6875 27.2969" id="DejaVuSans-70"/>
     </defs>
     <g transform="translate(408.4125 418.531875)scale(0.12 -0.12)">
      <use xlink:href="#DejaVuSans-4c"/>
      <use x="53.962890625" xlink:href="#DejaVuSans-65"/>
      <use x="115.486328125" xlink:href="#DejaVuSans-6e"/>
      <use x="178.865234375" xlink:href="#DejaVuSans-67"/>
      <use x="242.341796875" xlink:href="#DejaVuSans-74"/>
      <use x="281.55078125" xlink:href="#DejaVuSans-68"/>
      <use x="344.9296875" xlink:href="#DejaVuSans-20"/>
      <use x="376.716796875" xlink:href="#DejaVuSans-28"/>
      <use x="415.73046875" xlink:href="#DejaVuSans-62"/>
      <use x="479.20703125" xlink:href="#DejaVuSans-70"/>
      <use x="542.68359375" xlink:href="#DejaVuSans-29"/>
     </g>
     <!-- chr2:34943258-34961772 -->
     <defs>
      <path d="
M11.7188 12.4062
L22.0156 12.4062
L22.0156 0
L11.7188 0
z

M11.7188 51.7031
L22.0156 51.7031
L22.0156 39.3125
L11.7188 39.3125
z
" id="DejaVuSans-3a"/>
      <path d="
M4.89062 31.3906
L31.2031 31.3906
L31.2031 23.3906
L4.89062 23.3906
z
" id="DejaVuSans-2d"/>
      <path d="
M10.7969 72.9062
L49.5156 72.9062
L49.5156 64.5938
L19.8281 64.5938
L19.8281 46.7344
Q21.9688 47.4688 24.1094 47.8281
Q26.2656 48.1875 28.4219 48.1875
Q40.625 48.1875 47.75 41.5
Q54.8906 34.8125 54.8906 23.3906
Q54.8906 11.625 47.5625 5.09375
Q40.2344 -1.42188 26.9062 -1.42188
Q22.3125 -1.42188 17.5469 -0.640625
Q12.7969 0.140625 7.71875 1.70312
L7.71875 11.625
Q12.1094 9.23438 16.7969 8.0625
Q21.4844 6.89062 26.7031 6.89062
Q35.1562 6.89062 40.0781 11.3281
Q45.0156 15.7656 45.0156 23.3906
Q45.0156 31 40.0781 35.4375
Q35.1562 39.8906 26.7031 39.8906
Q22.75 39.8906 18.8125 39.0156
Q14.8906 38.1406 10.7969 36.2812
z
" id="DejaVuSans-35"/>
      <path d="
M8.20312 72.9062
L55.0781 72.9062
L55.0781 68.7031
L28.6094 0
L18.3125 0
L43.2188 64.5938
L8.20312 64.5938
z
" id="DejaVuSans-37"/>
      <path d="
M10.9844 1.51562
L10.9844 10.5
Q14.7031 8.73438 18.5 7.8125
Q22.3125 6.89062 25.9844 6.89062
Q35.75 6.89062 40.8906 13.4531
Q46.0469 20.0156 46.7812 33.4062
Q43.9531 29.2031 39.5938 26.9531
Q35.25 24.7031 29.9844 24.7031
Q19.0469 24.7031 12.6719 31.3125
Q6.29688 37.9375 6.29688 49.4219
Q6.29688 60.6406 12.9375 67.4219
Q19.5781 74.2188 30.6094 74.2188
Q43.2656 74.2188 49.9219 64.5156
Q56.5938 54.8281 56.5938 36.375
Q56.5938 19.1406 48.4062 8.85938
Q40.2344 -1.42188 26.4219 -1.42188
Q22.7031 -1.42188 18.8906 -0.6875
Q15.0938 0.046875 10.9844 1.51562
M30.6094 32.4219
Q37.25 32.4219 41.125 36.9531
Q45.0156 41.5 45.0156 49.4219
Q45.0156 57.2812 41.125 61.8438
Q37.25 66.4062 30.6094 66.4062
Q23.9688 66.4062 20.0938 61.8438
Q16.2188 57.2812 16.2188 49.4219
Q16.2188 41.5 20.0938 36.9531
Q23.9688 32.4219 30.6094 32.4219" id="DejaVuSans-39"/>
      <path d="
M48.7812 52.5938
L48.7812 44.1875
Q44.9688 46.2969 41.1406 47.3438
Q37.3125 48.3906 33.4062 48.3906
Q24.6562 48.3906 19.8125 42.8438
Q14.9844 37.3125 14.9844 27.2969
Q14.9844 17.2812 19.8125 11.7344
Q24.6562 6.20312 33.4062 6.20312
Q37.3125 6.20312 41.1406 7.25
Q44.9688 8.29688 48.7812 10.4062
L48.7812 2.09375
Q45.0156 0.34375 40.9844 -0.53125
Q36.9688 -1.42188 32.4219 -1.42188
Q20.0625 -1.42188 12.7812 6.34375
Q5.51562 14.1094 5.51562 27.2969
Q5.51562 40.6719 12.8594 48.3281
Q20.2188 56 33.0156 56
Q37.1562 56 41.1094 55.1406
Q45.0625 54.2969 48.7812 52.5938" id="DejaVuSans-63"/>
      <path d="
M41.1094 46.2969
Q39.5938 47.1719 37.8125 47.5781
Q36.0312 48 33.8906 48
Q26.2656 48 22.1875 43.0469
Q18.1094 38.0938 18.1094 28.8125
L18.1094 0
L9.07812 0
L9.07812 54.6875
L18.1094 54.6875
L18.1094 46.1875
Q20.9531 51.1719 25.4844 53.5781
Q30.0312 56 36.5312 56
Q37.4531 56 38.5781 55.875
Q39.7031 55.7656 41.0625 55.5156
z
" id="DejaVuSans-72"/>
     </defs>
     <g transform="translate(365.0803125 431.96925)scale(0.12 -0.12)">
      <use xlink:href="#DejaVuSans-63"/>
      <use x="54.98046875" xlink:href="#DejaVuSans-68"/>
      <use x="118.359375" xlink:href="#DejaVuSans-72"/>
      <use x="159.47265625" xlink:href="#DejaVuSans-32"/>
      <use x="223.095703125" xlink:href="#DejaVuSans-3a"/>
      <use x="256.787109375" xlink:href="#DejaVuSans-33"/>
      <use x="320.41015625" xlink:href="#DejaVuSans-34"/>
      <use x="384.033203125" xlink:href="#DejaVuSans-39"/>
      <use x="447.65625" xlink:href="#DejaVuSans-34"/>
      <use x="511.279296875" xlink:href="#DejaVuSans-33"/>
      <use x="574.90234375" xlink:href="#DejaVuSans-32"/>
      <use x="638.525390625" xlink:href="#DejaVuSans-35"/>
      <use x="702.1484375" xlink:href="#DejaVuSans-38"/>
      <use x="765.771484375" xlink:href="#DejaVuSans-2d"/>
      <use x="801.85546875" xlink:href="#DejaVuSans-33"/>
      <use x="865.478515625" xlink:href="#DejaVuSans-34"/>
      <use x="929.1015625" xlink:href="#DejaVuSans-39"/>
      <use x="992.724609375" xlink:href="#DejaVuSans-36"/>
      <use x="1056.34765625" xlink:href="#DejaVuSans-31"/>
      <use x="1119.97070312" xlink:href="#DejaVuSans-37"/>
      <use x="1183.59375" xlink:href="#DejaVuSans-37"/>
      <use x="1247.21679688" xlink:href="#DejaVuSans-32"/>
     </g>
    </g>
   </g>
  </g>
  <g id="text_13">
   <!-- ENSMUST00000113064 (Traf1) -->
   <defs>
    <path d="
M9.8125 72.9062
L23.0938 72.9062
L55.4219 11.9219
L55.4219 72.9062
L64.9844 72.9062
L64.9844 0
L51.7031 0
L19.3906 60.9844
L19.3906 0
L9.8125 0
z
" id="DejaVuSans-4e"/>
    <path d="
M9.8125 72.9062
L55.9062 72.9062
L55.9062 64.5938
L19.6719 64.5938
L19.6719 43.0156
L54.3906 43.0156
L54.3906 34.7188
L19.6719 34.7188
L19.6719 8.29688
L56.7812 8.29688
L56.7812 0
L9.8125 0
z
" id="DejaVuSans-45"/>
    <path d="
M53.5156 70.5156
L53.5156 60.8906
Q47.9062 63.5781 42.9219 64.8906
Q37.9375 66.2188 33.2969 66.2188
Q25.25 66.2188 20.875 63.0938
Q16.5 59.9688 16.5 54.2031
Q16.5 49.3594 19.4062 46.8906
Q22.3125 44.4375 30.4219 42.9219
L36.375 41.7031
Q47.4062 39.5938 52.6562 34.2969
Q57.9062 29 57.9062 20.125
Q57.9062 9.51562 50.7969 4.04688
Q43.7031 -1.42188 29.9844 -1.42188
Q24.8125 -1.42188 18.9688 -0.25
Q13.1406 0.921875 6.89062 3.21875
L6.89062 13.375
Q12.8906 10.0156 18.6562 8.29688
Q24.4219 6.59375 29.9844 6.59375
Q38.4219 6.59375 43.0156 9.90625
Q47.6094 13.2344 47.6094 19.3906
Q47.6094 24.75 44.3125 27.7812
Q41.0156 30.8125 33.5 32.3281
L27.4844 33.5
Q16.4531 35.6875 11.5156 40.375
Q6.59375 45.0625 6.59375 53.4219
Q6.59375 63.0938 13.4062 68.6562
Q20.2188 74.2188 32.1719 74.2188
Q37.3125 74.2188 42.625 73.2812
Q47.9531 72.3594 53.5156 70.5156" id="DejaVuSans-53"/>
    <path d="
M37.1094 75.9844
L37.1094 68.5
L28.5156 68.5
Q23.6875 68.5 21.7969 66.5469
Q19.9219 64.5938 19.9219 59.5156
L19.9219 54.6875
L34.7188 54.6875
L34.7188 47.7031
L19.9219 47.7031
L19.9219 0
L10.8906 0
L10.8906 47.7031
L2.29688 47.7031
L2.29688 54.6875
L10.8906 54.6875
L10.8906 58.5
Q10.8906 67.625 15.1406 71.7969
Q19.3906 75.9844 28.6094 75.9844
z
" id="DejaVuSans-66"/>
    <path d="
M8.6875 72.9062
L18.6094 72.9062
L18.6094 28.6094
Q18.6094 16.8906 22.8438 11.7344
Q27.0938 6.59375 36.625 6.59375
Q46.0938 6.59375 50.3438 11.7344
Q54.5938 16.8906 54.5938 28.6094
L54.5938 72.9062
L64.5 72.9062
L64.5 27.3906
Q64.5 13.1406 57.4375 5.85938
Q50.3906 -1.42188 36.625 -1.42188
Q22.7969 -1.42188 15.7344 5.85938
Q8.6875 13.1406 8.6875 27.3906
z
" id="DejaVuSans-55"/>
    <path d="
M-0.296875 72.9062
L61.375 72.9062
L61.375 64.5938
L35.5 64.5938
L35.5 0
L25.5938 0
L25.5938 64.5938
L-0.296875 64.5938
z
" id="DejaVuSans-54"/>
   </defs>
   <g transform="translate(339.950625 17.758125)scale(0.12 -0.12)">
    <use xlink:href="#DejaVuSans-45"/>
    <use x="63.18359375" xlink:href="#DejaVuSans-4e"/>
    <use x="137.98828125" xlink:href="#DejaVuSans-53"/>
    <use x="201.46484375" xlink:href="#DejaVuSans-4d"/>
    <use x="287.744140625" xlink:href="#DejaVuSans-55"/>
    <use x="360.9375" xlink:href="#DejaVuSans-53"/>
    <use x="424.4140625" xlink:href="#DejaVuSans-54"/>
    <use x="485.498046875" xlink:href="#DejaVuSans-30"/>
    <use x="549.12109375" xlink:href="#DejaVuSans-30"/>
    <use x="612.744140625" xlink:href="#DejaVuSans-30"/>
    <use x="676.3671875" xlink:href="#DejaVuSans-30"/>
    <use x="739.990234375" xlink:href="#DejaVuSans-30"/>
    <use x="803.61328125" xlink:href="#DejaVuSans-31"/>
    <use x="867.236328125" xlink:href="#DejaVuSans-31"/>
    <use x="930.859375" xlink:href="#DejaVuSans-33"/>
    <use x="994.482421875" xlink:href="#DejaVuSans-30"/>
    <use x="1058.10546875" xlink:href="#DejaVuSans-36"/>
    <use x="1121.72851562" xlink:href="#DejaVuSans-34"/>
    <use x="1185.3515625" xlink:href="#DejaVuSans-20"/>
    <use x="1217.13867188" xlink:href="#DejaVuSans-28"/>
    <use x="1256.15234375" xlink:href="#DejaVuSans-54"/>
    <use x="1302.48632812" xlink:href="#DejaVuSans-72"/>
    <use x="1343.59960938" xlink:href="#DejaVuSans-61"/>
    <use x="1404.87890625" xlink:href="#DejaVuSans-66"/>
    <use x="1440.08398438" xlink:href="#DejaVuSans-31"/>
    <use x="1503.70703125" xlink:href="#DejaVuSans-29"/>
   </g>
  </g>
 </g>
 <defs>
  <clipPath id="p9fd4257182">
   <rect height="279.272727273" width="669.6" x="108.0" y="43.2"/>
  </clipPath>
  <clipPath id="pc82b1f09f0">
   <rect height="34.9090909091" width="669.6" x="108.0" y="353.890909091"/>
  </clipPath>
 </defs>
</svg>
