<?xml version="1.0" encoding="utf-8" standalone="no"?>
<!DOCTYPE svg PUBLIC "-//W3C//DTD SVG 1.1//EN"
  "http://www.w3.org/Graphics/SVG/1.1/DTD/svg11.dtd">
<!-- Created with matplotlib (http://matplotlib.org/) -->
<svg height="432pt" version="1.1" viewBox="0 0 864 432" width="864pt" xmlns="http://www.w3.org/2000/svg" xmlns:xlink="http://www.w3.org/1999/xlink">
 <defs>
  <style type="text/css">
*{stroke-linecap:butt;stroke-linejoin:round;}
  </style>
 </defs>
 <g id="figure_1">
  <g id="patch_1">
   <path d="
M0 432
L864 432
L864 0
L0 0
z
" style="fill:#ffffff;"/>
  </g>
  <g id="axes_1">
   <g id="patch_2">
    <path d="
M108 322.473
L777.6 322.473
L777.6 43.2
L108 43.2
z
" style="fill:#ffffff;"/>
   </g>
   <g id="patch_3">
    <path clip-path="url(#p9fd4257182)" d="
M117.099 322.473
L120.357 322.473
L120.357 43.2
L117.099 43.2
z
" style="fill:#008000;opacity:0.2;"/>
   </g>
   <g id="patch_4">
    <path clip-path="url(#p9fd4257182)" d="
M156.416 322.473
L157.381 322.473
L157.381 43.2
L156.416 43.2
z
" style="fill:#008000;opacity:0.2;"/>
   </g>
   <g id="patch_5">
    <path clip-path="url(#p9fd4257182)" d="
M319.462 322.473
L319.817 322.473
L319.817 43.2
L319.462 43.2
z
" style="fill:#008000;opacity:0.2;"/>
   </g>
   <g id="patch_6">
    <path clip-path="url(#p9fd4257182)" d="
M364.421 322.473
L365.14 322.473
L365.14 43.2
L364.421 43.2
z
" style="fill:#008000;opacity:0.2;"/>
   </g>
   <g id="patch_7">
    <path clip-path="url(#p9fd4257182)" d="
M407.113 322.473
L407.796 322.473
L407.796 43.2
L407.113 43.2
z
" style="fill:#008000;opacity:0.2;"/>
   </g>
   <g id="patch_8">
    <path clip-path="url(#p9fd4257182)" d="
M472.9 322.473
L473.737 322.473
L473.737 43.2
L472.9 43.2
z
" style="fill:#008000;opacity:0.2;"/>
   </g>
   <g id="patch_9">
    <path clip-path="url(#p9fd4257182)" d="
M495.338 322.473
L495.629 322.473
L495.629 43.2
L495.338 43.2
z
" style="fill:#008000;opacity:0.2;"/>
   </g>
   <g id="patch_10">
    <path clip-path="url(#p9fd4257182)" d="
M512.08 322.473
L512.936 322.473
L512.936 43.2
L512.08 43.2
z
" style="fill:#008000;opacity:0.2;"/>
   </g>
   <g id="patch_11">
    <path clip-path="url(#p9fd4257182)" d="
M581.606 322.473
L582.234 322.473
L582.234 43.2
L581.606 43.2
z
" style="fill:#008000;opacity:0.2;"/>
   </g>
   <g id="patch_12">
    <path clip-path="url(#p9fd4257182)" d="
M626.938 322.473
L627.657 322.473
L627.657 43.2
L626.938 43.2
z
" style="fill:#008000;opacity:0.2;"/>
   </g>
   <g id="patch_13">
    <path clip-path="url(#p9fd4257182)" d="
M650.195 322.473
L650.714 322.473
L650.714 43.2
L650.195 43.2
z
" style="fill:#008000;opacity:0.2;"/>
   </g>
   <g id="patch_14">
    <path clip-path="url(#p9fd4257182)" d="
M677.983 322.473
L679.321 322.473
L679.321 43.2
L677.983 43.2
z
" style="fill:#008000;opacity:0.2;"/>
   </g>
   <g id="patch_15">
    <path clip-path="url(#p9fd4257182)" d="
M683.716 322.473
L684.598 322.473
L684.598 43.2
L683.716 43.2
z
" style="fill:#008000;opacity:0.2;"/>
   </g>
   <g id="patch_16">
    <path clip-path="url(#p9fd4257182)" d="
M731.113 322.473
L731.75 322.473
L731.75 43.2
L731.113 43.2
z
" style="fill:#008000;opacity:0.2;"/>
   </g>
   <g id="patch_17">
    <path clip-path="url(#p9fd4257182)" d="
M748.956 322.473
L749.72 322.473
L749.72 43.2
L748.956 43.2
z
" style="fill:#008000;opacity:0.2;"/>
   </g>
   <g id="patch_18">
    <path clip-path="url(#p9fd4257182)" d="
M759.065 322.473
L768.501 322.473
L768.501 43.2
L759.065 43.2
z
" style="fill:#008000;opacity:0.2;"/>
   </g>
   <g id="line2d_1">
    <path clip-path="url(#p9fd4257182)" d="
M108.264 62.1065
L109.046 63.1467
L109.119 63.2637
L110.411 66.3941
L112.54 87.6759
L113.723 145.24
L114.624 229.863
L116.262 320.221
L116.762 321.787
L117.117 321.716
L118.291 321.315
L119.683 321.597
L122.304 321.395
L122.968 321.566
L123.478 321.838
L126.808 57.5584
L126.962 57.3555
L127.827 57.2278
L128.245 58.0489
L128.309 58.3419
L129.537 77.072
L129.765 78.0885
L129.774 78.0734
L129.847 77.8076
L130.857 62.3613
L132.231 57.854
L132.64 57.2705
L134.87 226.53
L135.161 307.57
L146.653 59.8598
L151.166 58.0695
L151.675 58.4351
L155.624 65.7448
L156.689 87.4114
L157.271 90.936
L157.281 90.8286
L157.626 84.4622
L158.272 70.2317
L160.829 57.9937
L161.102 57.9637
L161.684 58.2689
L164.96 104.739
L169.218 78.4597
L170.511 74.1238
L170.984 73.3734
L171.657 73.7941
L173.595 72.3114
L174.733 77.643
L176.834 121.208
L177.298 121.966
L177.308 121.912
L177.371 121.47
L179.118 92.9671
L180.228 84.1453
L181.621 81.1403
L182.822 111.669
L185.187 100.387
L187.426 69.3215
L187.608 69.0625
L189.337 67.6432
L191.111 79.4356
L192.048 88.2078
L194.632 80.0529
L195.642 83.1175
L198.663 108.61
L198.672 108.492
L199.073 95.0792
L199.755 62.7008
L199.964 59.6218
L200.501 57.2411
L201.302 56.7387
L202.175 56.8437
L202.794 57.0556
L206.061 58.8095
L207.061 63.0244
L208.699 67.0515
L208.708 67.0645
L212.02 74.6998
L214.077 71.8859
L215.451 64.4515
L217.334 60.4705
L219.482 59.6799
L221.684 63.7741
L222.603 71.3072
L222.894 75.178
L223.385 83.7395
L227.735 90.9091
L227.98 85.3564
L228.726 72.2355
L231.438 58.3853
L236.679 57.2365
L237.816 57.5973
L239.117 59.1491
L241.492 64.7736
L242.511 64.6058
L243.021 64.9017
L243.221 65.102
L244.559 67.3218
L246.451 76.6868
L247.188 83.5567
L250 70.6451
L250.546 65.2601
L255.123 58.2841
L256.215 57.6592
L260.873 56.7516
L264.213 58.6671
L266.679 64.6738
L267.388 65.3489
L268.617 64.9677
L270.118 64.1237
L270.864 64.3891
L277.989 69.1338
L282.52 76.089
L282.529 76.048
L284.249 69.0291
L285.814 65.8124
L287.67 66.0416
L290.609 74.1404
L292.565 85.0994
L293.202 86.5802
L297.652 59.6292
L298.434 58.3449
L301.155 56.8331
L302.31 56.6985
L304.44 56.7818
L313.311 59.2567
L313.903 64.4707
L314.321 62.9319
L315.568 59.4715
L316.632 58.4831
L320.099 67.7583
L320.208 69.3552
L321.655 104.06
L322.165 108.88
L322.174 108.866
L322.41 107.251
L324.048 65.8198
L326.05 78.4025
L334.658 86.853
L334.667 86.8401
L334.803 86.6414
L342.729 60.9173
L349.262 57.6262
L357.524 57.8714
L361.482 57.2086
L362.947 57.1481
L366.322 57.5633
L366.504 57.6097
L367.305 58.0028
L369.471 60.3877
L370.917 58.3586
L371.755 57.9263
L372.346 60.603
L372.428 61.8625
L372.965 78.4404
L373.738 71.0523
L374.421 59.1125
L374.894 57.469
L376.113 57.4602
L377.478 57.6448
L379.07 57.6137
L382.601 57.1836
L383.137 57.2501
L384.302 57.7033
L387.46 63.753
L389.061 67.8074
L391.19 69.9607
L392 69.8591
L397.368 59.7359
L398.215 62.7111
L400.489 91.9274
L400.917 87.2655
L403.255 57.025
L404.174 58.121
L404.338 59.8988
L404.766 65.0898
L404.875 65.1145
L405.002 64.5915
L405.767 62.9977
L405.776 63.0235
L406.267 66.7408
L406.74 98.7273
L409.716 63.1623
L413.465 57.3042
L413.983 57.3241
L420.007 66.0907
L423.719 75.9843
L426.376 76.4262
L429.515 68.2945
L435.976 59.1956
L436.704 58.9825
L441.217 62.4051
L447.695 83.0306
L447.704 82.9918
L451.071 71.8042
L453.073 65.1459
L454.056 64.2471
L455.557 64.821
L456.43 65.4377
L457.65 65.5598
L461.58 58.6962
L463.437 57.6541
L464.501 57.5595
L472.745 57.47
L473.6 57.4865
L476.994 59.0485
L484.601 68.5834
L485.274 69.879
L489.032 77.9019
L490.879 74.9604
L491.98 71.828
L501.343 56.8656
L502.754 57.0438
L509.05 58.0968
L510.197 61.1701
L510.652 63.2857
L511.088 64.556
L512.39 64.832
L513.636 69.5148
L514.291 74.9798
L515.256 80.8027
L515.42 80.6566
L516.093 75.3251
L518.895 57.8515
L518.905 57.8626
L522.945 58.0554
L524.382 58.2815
L526.784 57.9138
L530.16 57.1155
L531.034 57.0765
L532.681 57.1204
L536.084 57.3474
L536.229 57.5153
L537.048 59.4239
L538.304 64.7406
L539.969 77.0383
L542.053 123.144
L542.28 123.718
L543.499 74.7534
L544.127 58.9921
L547.794 56.4988
L553.335 57.0035
L558.722 65.1919
L560.569 75.6953
L562.334 74.7801
L564.791 66.3939
L565.574 64.8914
L571.943 67.5429
L573.763 69.7282
L574.427 69.3332
L577.721 59.9962
L578.121 59.4858
L580.114 58.2844
L581.715 58.0797
L583.017 57.642
L584.072 57.6278
L585.51 57.7796
L587.83 63.733
L587.985 65.3334
L588.567 77.4536
L588.976 92.5766
L589.486 97.0104
L589.495 96.9209
L590.951 70.3426
L591.36 69.1342
L591.369 69.1497
L591.897 72.8135
L593.772 88.0106
L593.781 87.7395
L594.099 79.6329
L594.581 71.5217
L596.083 62.8404
L598.039 66.5954
L599.704 74.9776
L604.545 58.6127
L609.076 57.0746
L609.831 57.1258
L613.426 63.063
L613.535 63.7112
L616.911 84.3737
L616.92 84.2878
L618.303 66.6914
L619.476 59.2068
L620.932 57.1601
L624.672 59.4291
L624.727 59.6395
L625.227 62.4299
L627.283 88.7109
L627.293 88.6785
L627.529 86.7807
L630.705 63.0141
L630.714 63.0225
L630.969 63.3245
L631.815 65.2101
L632.443 65.7127
L632.452 65.6942
L632.879 64.3627
L634.253 60.7995
L634.954 61.2415
L635.718 62.5136
L636.073 63.3933
L637.556 71.5872
L639.212 113.849
L640.241 94.4392
L640.395 88.1166
L641.56 58.1545
L641.915 56.8476
L647.811 56.9037
L648.066 56.9549
L649.312 58.2136
L650.959 115.292
L651.633 132.279
L651.642 131.829
L651.842 117.138
L652.37 68.4328
L652.643 61.5694
L655.472 57.4038
L656.1 57.2272
L662.26 58.2071
L666.801 67.9305
L668.329 93.5505
L670.231 92.6867
L670.995 84.2054
L671.687 77.8889
L672.26 74.5138
L675.117 64.2302
L676.719 63.8269
L678.32 65.7736
L678.993 68.11
L680.768 81.9706
L681.232 92.8656
L682.56 138.062
L683.124 142.14
L683.789 129.13
L684.389 109.151
L686.446 64.96
L687.001 61.3099
L687.283 60.1724
L691.587 56.6829
L691.787 57.0139
L692.478 62.1694
L693.443 73.8325
L693.916 78.5105
L695.144 74.017
L695.836 64.96
L696.3 63.0589
L700.64 77.9811
L701.441 79.0169
L701.687 79.1045
L702.323 78.8241
L702.96 77.8523
L704.999 60.989
L710.631 57.3175
L710.949 57.6939
L712.069 61.2887
L712.278 62.6573
L713.597 79.2979
L716.254 106.973
L716.263 106.966
L723.242 67.9655
L725.38 64.2591
L726.982 62.0986
L729.857 57.661
L730.576 57.1739
L732.678 59.2222
L733.542 64.1813
L733.997 73.2768
L735.79 61.1316
L737.964 70.0169
L739.402 58.8189
L739.948 57.3565
L740.649 56.6778
L744.361 56.5644
L747.509 56.7438
L748.083 57.3409
L748.301 57.8597
L749.338 71.5033
L750.357 79.7845
L750.367 79.7204
L751.677 68.3251
L752.578 65.8715
L752.587 65.8766
L753.333 70.1863
L753.624 76.2232
L758.583 90.7458
L758.938 93.859
L758.947 93.8214
L759.511 84.9235
L760.43 66.7141
L762.113 61.5718
L762.122 61.7476
L762.714 98.6075
L763.515 124.93
L765.08 115.183
L765.726 105.587
L766.818 91.1435
L770.412 61.6206
L771.84 58.2589
L772.741 57.4684
L773.169 57.2641
L774.998 56.96
L777.218 57.0063
L777.218 57.0063" style="fill:none;opacity:0.5;stroke:#0000ff;stroke-linecap:square;"/>
   </g>
   <g id="line2d_2">
    <path clip-path="url(#p9fd4257182)" d="
M108.264 59.5868
L108.273 59.5786
L109.119 57.8102
L110.411 56.8832
L112.54 162.542
L113.714 317.389
L114.624 321.079
L116.262 315.008
L116.762 291.338
L117.117 266.512
L118.291 315.491
L118.946 321.564
L119.347 322.055
L119.692 322.114
L121.348 321.904
L122.176 321.882
L123.086 321.912
L123.487 321.654
L126.808 58.4289
L126.962 58.2142
L127.827 57.7406
L130.857 57.3023
L132.64 56.5901
L134.879 130.358
L135.17 238.425
L139.455 90.5152
L151.166 57.4394
L155.624 57.2856
L158.272 57.0828
L161.684 56.9975
L164.951 58.0147
L169.209 70.2708
L169.218 70.2576
L170.984 63.2614
L171.657 61.5788
L173.513 61.9075
L173.595 62.1069
L174.733 69.3844
L176.607 105.31
L176.834 104.974
L177.371 95.5582
L178.727 69.9556
L179.118 67.6649
L180.228 69.814
L181.621 81.822
L182.822 86.0697
L185.187 84.3481
L187.426 72.6843
L187.608 71.0242
L189.337 62.3709
L191.111 61.7912
L192.048 63.0931
L194.632 82.7321
L195.642 96.3541
L198.663 88.6126
L199.746 81.4442
L201.302 71.0537
L202.175 67.0909
L202.794 65.5697
L206.061 62.7267
L208.708 62.0861
L212.02 63.7288
L214.077 65.83
L219.491 67.6128
L221.693 66.9723
L222.894 65.3144
L223.394 64.3094
L227.744 57.8472
L228.726 57.5659
L231.438 57.11
L236.679 57.2753
L237.816 59.2969
L239.108 68.6197
L241.492 78.6086
L242.511 62.8189
L243.021 58.9426
L243.221 58.2098
L244.55 56.8074
L246.451 56.753
L247.197 56.9605
L250 78.0852
L250.546 90.4091
L255.114 124.37
L256.215 107.601
L260.873 60.1897
L264.213 61.3384
L267.388 61.193
L268.617 60.8662
L270.118 59.4956
L270.864 58.5186
L277.989 56.5817
L282.529 61.5621
L284.24 66.3338
L284.249 66.3295
L285.814 63.0971
L287.67 58.9352
L290.609 56.9322
L290.955 56.9007
L293.202 57.0365
L297.652 57.5233
L301.155 57.3068
L304.44 56.8526
L313.311 56.5046
L313.903 56.9217
L314.321 61.194
L315.559 87.1168
L315.568 86.7565
L316.541 57.3749
L316.632 57.0167
L320.208 57.0743
L321.655 61.9626
L322.374 64.6878
L322.41 64.7286
L324.057 59.2556
L326.059 56.6954
L334.667 68.5636
L334.803 68.5028
L342.729 57.6704
L350.317 56.7524
L357.533 56.9644
L360.999 60.9348
L361.482 62.1892
L362.947 81.62
L363.938 81.9813
L363.948 81.8905
L365.012 69.7445
L366.231 61.0291
L366.24 61.0532
L366.459 62.2538
L366.504 62.6743
L367.305 86.4202
L368.761 58.2809
L369.043 57.5048
L369.48 57.5712
L370.917 60.6798
L371.755 83.72
L372.346 80.082
L372.428 77.3158
L372.965 66.0815
L373.738 66.0913
L374.421 75.3836
L374.903 90.3362
L376.049 133.456
L376.104 132.969
L377.269 61.2938
L377.478 57.7652
L379.07 56.7735
L382.3 78.8849
L382.309 78.8664
L382.61 76.0026
L383.137 67.7601
L384.302 59.8748
L387.46 56.8759
L389.061 56.866
L391.181 57.3972
L392.009 57.8961
L397.377 60.7465
L398.215 97.3182
L400.48 61.8323
L400.917 58.5687
L403.255 57.3021
L404.174 57.622
L404.338 58.6184
L404.593 63.0557
L404.875 76.9309
L405.002 87.6666
L405.767 117.283
L405.776 116.267
L406.267 62.3453
L406.74 56.5372
L409.716 56.4998
L413.983 56.8539
L420.007 58.254
L421.335 59.8243
L422.591 63.1123
L422.973 64.7443
L423.719 68.9847
L426.367 71.1536
L426.376 71.12
L429.515 60.4376
L435.976 57.0857
L436.704 57.0397
L441.217 57.1502
L448.278 58.0459
L449.269 57.9684
L451.071 56.9563
L453.082 57.5716
L454.065 60.2944
L455.557 74.0316
L456.167 76.6622
L456.176 76.6503
L456.294 76.3413
L456.43 75.634
L457.65 66.1467
L461.58 56.9858
L464.501 57.3538
L473.6 57.3331
L476.994 56.8293
L482.554 58.3257
L483.036 59.5267
L484.601 68.3294
L485.274 73.8134
L489.032 73.5028
L490.879 63.3807
L491.98 61.7164
L501.343 57.2677
L502.754 57.5829
L509.05 57.7001
L510.652 56.877
L511.088 56.7878
L512.39 56.7218
L513.536 57.6087
L513.636 57.8761
L514.291 62.0099
L515.256 72.7434
L515.411 72.8695
L515.42 72.8542
L516.093 66.4942
L518.895 56.9071
L522.935 59.1973
L524.382 62.3885
L526.775 80.8352
L526.784 80.7653
L528.468 63.9988
L529.987 58.7587
L530.16 58.5857
L531.034 58.0407
L532.681 58.1774
L536.074 74.2994
L536.084 74.2632
L536.229 73.5636
L537.976 60.4159
L538.295 59.0445
L539.969 56.8317
L544.127 57.0437
L549.905 57.0097
L553.335 57.2306
L560.56 56.8227
L562.343 57.495
L562.616 57.8397
L563.454 60.2411
L564.646 74.0891
L564.791 77.515
L565.583 105.827
L571.943 71.1536
L573.763 57.3318
L574.427 57.0613
L577.566 63.5192
L577.73 65.5838
L578.121 73.2114
L579.159 106.348
L580.123 88.4192
L580.724 66.8196
L581.715 57.3542
L583.017 56.8511
L584.072 56.9409
L585.51 57.7883
L587.821 67.1299
L587.83 67.1151
L587.985 66.6907
L588.976 61.8673
L589.495 59.0799
L590.833 75.7095
L590.951 80.8909
L591.369 86.736
L591.906 87.7939
L593.781 73.1396
L594.099 69.3127
L594.581 65.378
L596.083 59.6198
L598.212 57.1589
L599.704 56.99
L604.545 57.8236
L609.076 58.1495
L609.841 58.0225
L613.426 60.3885
L613.535 60.6165
L616.92 73.3985
L618.303 76.4955
L619.476 77.3723
L620.932 77.2937
L624.718 78.9405
L625.218 78.8174
L627.293 73.8545
L627.529 72.5191
L630.714 64.0072
L630.969 64.0654
L631.815 66.8587
L632.443 71.0094
L632.87 71.6124
L634.244 69.6724
L634.253 69.682
L634.954 73.9954
L636.073 97.531
L637.556 78.1182
L639.212 59.2976
L640.241 60.8569
L640.395 61.5392
L641.56 74.6114
L641.915 82.2984
L646.692 67.3028
L646.701 67.3297
L647.811 87.9523
L648.057 88.8452
L648.066 88.8231
L649.312 70.1684
L650.959 58.8087
L651.842 57.6332
L652.643 57.5323
L656.1 57.9642
L662.26 58.512
L666.801 268.617
L668.329 317.73
L670.231 291.88
L670.995 202.763
L671.687 100.57
L672.26 68.2702
L675.117 56.9416
L676.719 64.3234
L678.311 88.1173
L678.32 87.927
L678.993 72.921
L680.695 65.9429
L680.704 66.1233
L680.768 67.5637
L681.232 94.0801
L682.56 209.839
L683.134 112.128
L683.789 74.244
L684.389 66.6735
L686.436 66.2792
L686.764 63.8125
L687.283 58.8664
L691.577 57.4991
L691.587 57.5382
L691.787 58.7402
L692.478 73.3585
L693.561 116.139
L693.916 112.836
L695.144 62.1261
L695.599 57.436
L695.836 56.9244
L696.3 56.6674
L700.64 73.4154
L701.441 89.5923
L701.687 91.1642
L702.323 80.3565
L702.96 62.4748
L704.999 56.8069
L710.622 72.7357
L710.631 72.7137
L710.958 71.9129
L712.278 69.4609
L713.397 69.7679
L713.597 70.0952
L716.263 74.1929
L723.242 57.4281
L724.307 57.2675
L726.973 57.2529
L730.585 57.22
L733.997 56.9368
L735.681 57.6863
L735.79 57.9025
L737.964 82.8821
L739.402 77.772
L740.485 67.0947
L740.649 65.9258
L744.37 58.7692
L747.509 62.269
L748.083 73.5587
L748.31 73.3677
L749.338 58.3662
L750.367 56.8555
L751.076 57.0954
L751.677 57.2433
L753.324 57.7387
L753.624 57.853
L758.574 59.9689
L758.583 60.1407
L759.502 86.7283
L759.511 86.6762
L759.948 72.1422
L760.385 58.5083
L760.43 58.0581
L762.122 56.6417
L762.714 56.5897
L765.08 57.1868
L770.412 59.439
L771.84 62.8797
L773.169 68.1725
L774.998 73.1942
L777.218 71.1958
L777.218 71.1958" style="fill:none;opacity:0.5;stroke:#ff0000;stroke-linecap:square;"/>
   </g>
   <g id="line2d_3">
    <path clip-path="url(#p9fd4257182)" d="
M108.264 56.4987
L110.411 56.5016
L112.531 62.4047
L112.54 62.7832
L113.723 319.055
L114.624 322.058
L116.262 314.204
L116.717 313.347
L116.726 313.407
L116.762 313.679
L117.117 317.893
L117.818 321.894
L118.291 322.185
L119.265 321.959
L120.193 321.703
L120.912 321.652
L123.086 321.827
L123.487 321.836
L126.799 67.1293
L126.808 67.1613
L126.962 67.8257
L127.827 72.3946
L128.173 71.4113
L129.537 59.8851
L129.847 59.0132
L130.857 58.7692
L132.231 65.5972
L132.64 70.8099
L135.17 220.76
L139.455 173.237
L151.166 68.6144
L151.675 73.2725
L155.624 81.5746
L156.689 60.9193
L157.281 58.9049
L157.626 58.4894
L158.272 58.2665
L160.829 69.1469
L161.102 72.3512
L161.684 76.0421
L164.951 78.4703
L164.96 78.3998
L169.218 58.7996
L170.511 58.1324
L170.984 58.1836
L171.657 58.9966
L173.595 68.5401
L174.733 89.7454
L176.598 139.032
L176.607 137.997
L176.834 111.035
L177.371 72.1046
L178.727 57.1524
L179.118 56.8909
L180.228 56.8349
L181.621 57.0921
L182.822 57.109
L185.187 58.7555
L187.38 74.0348
L187.426 73.8363
L189.337 63.5427
L191.111 68.4729
L192.048 73.8637
L194.623 170.677
L194.632 169.244
L195.651 68.2597
L198.663 58.7523
L198.672 58.7842
L199.073 60.7895
L199.964 69.2463
L200.501 71.304
L201.302 70.2949
L202.175 74.6562
L202.794 79.5188
L206.061 66.6806
L207.061 65.7381
L208.435 68.268
L208.708 69.263
L212.02 61.6561
L214.077 58.7188
L215.451 59.1672
L217.334 67.6642
L219.491 106.581
L221.684 87.3535
L222.894 65.8991
L223.394 61.7413
L227.744 56.8881
L231.438 57.0558
L239.117 56.6721
L241.501 57.4813
L242.184 58.3188
L242.511 59.5522
L243.021 65.7943
L243.221 69.5206
L244.55 81.4746
L244.559 81.4605
L246.451 80.0627
L247.188 75.2897
L250 58.94
L250.537 57.7672
L255.123 56.9374
L256.215 56.8658
L260.873 56.7681
L264.204 58.1394
L266.679 68.4906
L267.388 74.6984
L268.608 78.7772
L268.617 78.7403
L270.118 63.2787
L270.864 58.0943
L277.989 57.1044
L282.529 58.6951
L284.249 62.4691
L285.814 71.163
L287.67 93.3063
L290.6 99.0353
L290.609 98.9166
L290.955 93.9158
L292.565 67.3294
L293.202 61.7288
L297.652 56.7112
L298.434 56.7141
L302.32 56.9817
L304.449 57.9866
L313.311 72.5278
L313.903 76.1922
L314.321 75.2704
L316.541 69.1118
L316.632 69.5801
L320.09 308.793
L320.099 307.813
L321.655 58.6901
L322.174 58.6819
L322.41 58.8324
L324.057 62.3973
L326.05 63.1332
L326.059 63.0752
L334.803 69.773
L342.729 75.0976
L349.262 68.8771
L350.317 67.2574
L357.533 67.437
L360.99 66.3769
L361.473 67.0902
L362.938 73.1674
L362.947 73.1563
L364.876 63.8815
L365.012 63.5691
L366.231 62.5977
L366.24 62.6205
L366.459 63.625
L366.504 63.9447
L367.305 73.6244
L368.761 63.5207
L369.043 63.3351
L369.48 62.7385
L370.908 59.65
L371.755 58.8293
L372.346 59.8215
L372.428 60.1876
L372.965 65.052
L373.738 83.4017
L374.421 106.212
L374.894 116.593
L375.94 126.915
L375.949 126.811
L376.113 123.824
L377.478 68.0981
L379.07 58.053
L382.309 64.3345
L384.302 79.9109
L387.469 70.4834
L388.943 72.1913
L389.061 72.5239
L391.19 80.3627
L391.791 82.0315
L392.009 82.2011
L397.368 57.1784
L397.377 57.1834
L398.215 58.7691
L400.489 87.7427
L400.917 98.8204
L403.255 64.0817
L404.174 66.3654
L404.593 69.23
L404.766 69.5982
L404.875 69.4557
L405.002 68.9049
L405.776 60.5108
L406.267 57.2765
L406.74 56.5811
L413.983 57.2949
L420.007 74.7807
L421.326 77.3684
L422.591 75.3653
L422.973 73.9422
L423.719 70.6112
L426.376 62.8638
L429.515 58.746
L435.976 57.089
L441.217 56.9024
L447.704 57.0873
L448.278 57.4066
L449.26 59.2784
L451.071 69.8572
L453.073 76.2866
L453.082 76.2504
L455.557 59.7869
L456.43 57.7244
L457.65 56.8522
L461.58 56.9542
L463.437 57.7605
L464.501 57.887
L467.395 57.702
L472.454 57.7294
L472.909 57.9938
L473.6 58.8178
L476.994 277.751
L482.554 157.484
L483.036 92.9069
L484.592 61.8777
L485.274 61.8016
L489.023 64.9216
L490.879 71.6744
L491.98 77.821
L501.343 57.5341
L502.754 57.4632
L509.041 56.5102
L510.197 57.4453
L510.652 63.4594
L511.088 74.9651
L512.39 63.2582
L513.527 59.1076
L513.536 59.1179
L513.636 59.2552
L514.291 61.371
L515.42 67.5963
L516.093 68.8963
L518.895 76.1565
L522.935 80.9904
L522.945 80.9294
L524.382 67.2762
L526.784 57.2501
L528.468 57.0877
L530.16 57.6097
L530.934 59.1392
L531.034 59.5493
L532.681 80.693
L536.084 57.5623
L536.229 57.4615
L537.048 57.099
L538.295 56.9442
L539.969 57.1529
L542.28 57.0645
L543.499 57.3727
L544.127 58.2004
L547.803 80.4999
L549.905 76.639
L552.617 58.4341
L553.326 57.4548
L553.335 57.4466
L558.722 57.2679
L559.15 57.4275
L559.732 57.872
L560.36 59.27
L560.56 60.2553
L562.334 65.7187
L562.343 65.6697
L562.616 64.1163
L563.454 60.1179
L564.791 57.2995
L565.583 56.7506
L571.943 56.5019
L573.708 58.8927
L573.763 59.5547
L574.427 92.1359
L577.557 135.301
L577.566 134.373
L577.73 119.117
L578.121 94.3984
L579.149 80.7391
L579.159 80.7671
L580.123 88.0631
L580.714 89.0607
L580.724 89.0008
L581.715 70.1493
L583.017 57.9583
L583.772 57.1669
L584.072 57.1177
L585.51 58.5959
L587.83 70.003
L587.985 69.9282
L588.967 68.0444
L588.976 68.057
L589.495 69.2719
L591.369 57.7726
L591.906 57.4602
L593.781 57.7736
L594.581 57.2057
L596.083 56.7005
L598.039 58.2443
L598.212 58.8062
L599.058 63.8785
L599.704 73.6163
L604.427 74.9208
L604.545 73.174
L609.076 56.5419
L609.831 56.5109
L613.426 60.3775
L613.535 61.2602
L616.92 167.992
L618.303 146.059
L619.476 94.8134
L620.932 64.2228
L624.727 56.7702
L627.529 56.8375
L630.714 59.3109
L630.969 60.09
L631.815 64.9285
L632.879 74.932
L634.253 71.5676
L634.954 64.6613
L635.718 60.8667
L636.073 59.9652
L637.556 59.3196
L639.212 64.6728
L640.395 72.965
L641.915 85.8105
L646.701 57.8954
L648.066 57.378
L649.312 57.43
L650.959 57.8993
L651.842 58.41
L652.643 59.1177
L655.709 67.2967
L656.091 68.5406
L662.26 101.377
L666.801 220.136
L668.338 319.642
L670.222 312.99
L670.995 225.645
L671.687 70.047
L672.26 56.8895
L675.117 56.5032
L676.719 56.5992
L678.993 57.7747
L680.704 65.5429
L680.768 66.6959
L682.56 124.756
L683.124 90.4198
L683.789 71.2367
L684.389 64.8592
L686.764 62.0597
L687.001 61.3974
L687.283 60.2706
L691.577 61.5516
L691.787 67.1131
L692.624 99.3331
L693.434 110.551
L693.443 110.457
L693.561 108.92
L695.144 76.7557
L695.836 64.7915
L696.3 62.5349
L700.631 69.649
L700.64 69.6309
L701.687 66.844
L702.96 62.7385
L704.999 58.7786
L710.958 57.4139
L712.278 57.4036
L713.597 57.2102
L716.263 56.6943
L723.242 65.7727
L724.298 68.8074
L724.307 68.7914
L725.38 64.0914
L726.973 58.5437
L729.857 56.8415
L730.585 56.8128
L732.687 87.6842
L733.533 84.8759
L733.997 67.3901
L735.681 58.0502
L735.79 58.0109
L737.819 63.3304
L737.964 64.3969
L739.393 68.7119
L739.402 68.6948
L739.948 67.1252
L740.649 64.3107
L744.361 56.756
L747.509 56.5626
L748.083 57.5304
L748.31 58.8611
L749.202 66.6824
L749.211 66.6356
L749.338 65.688
L750.357 61.0331
L750.367 61.0429
L750.676 61.5479
L751.076 64.6921
L751.458 83.4242
L751.677 105.295
L752.587 97.967
L753.624 68.3475
L758.574 75.7222
L758.583 76.2571
L758.947 89.3719
L759.802 66.3276
L759.948 65.2055
L760.166 65.9998
L760.43 73.8668
L762.113 71.9195
L762.122 72.0322
L762.705 75.7873
L762.714 75.7372
L764.033 57.6054
L764.688 56.5603
L765.726 56.5982
L770.412 57.5105
L771.84 56.9688
L773.169 57.0163
L777.218 57.228
L777.218 57.228" style="fill:none;opacity:0.5;stroke:#ff0000;stroke-linecap:square;"/>
   </g>
   <g id="line2d_4">
    <path clip-path="url(#p9fd4257182)" d="
M108.264 56.4987
L110.411 56.5003
L112.54 60.0171
L113.723 320.696
L114.624 322.44
L116.762 321.936
L118.191 321.089
L118.291 321.136
L119.274 321.953
L119.692 322.038
L121.485 321.896
L121.867 321.658
L122.076 321.318
L122.176 320.886
L122.349 319.204
L122.959 309.386
L122.968 309.675
L123.086 314.584
L123.487 322.24
L126.953 89.498
L126.962 88.609
L127.827 62.6539
L128.309 61.8329
L129.537 68.1914
L129.847 74.2348
L130.848 87.4748
L130.857 87.3248
L132.231 58.8907
L132.64 57.6728
L134.879 116.322
L135.17 154.769
L139.455 86.1322
L146.653 56.5197
L151.675 56.7096
L155.624 56.4999
L156.689 56.8611
L157.281 64.5087
L158.272 97.5904
L160.829 58.7156
L161.102 57.8257
L161.684 57.0422
L164.96 56.713
L169.218 56.6389
L170.511 57.3868
L170.984 58.0785
L171.657 60.0391
L173.595 75.1388
L174.733 90.2329
L176.598 122.184
L176.607 121.937
L177.308 94.4858
L177.371 91.9541
L178.727 63.7617
L179.118 62.1105
L180.228 63.1705
L181.611 67.6745
L181.621 67.6675
L182.822 63.1625
L185.178 60.7066
L185.187 60.7246
L187.38 66.737
L187.426 66.6367
L189.337 61.3813
L191.111 61.8744
L192.048 63.6025
L194.632 104.945
L195.642 98.7066
L198.663 83.4019
L198.672 83.4211
L199.436 84.7336
L199.755 84.4506
L199.964 83.1338
L201.302 66.0871
L202.175 59.6355
L202.785 59.1919
L202.794 59.2049
L206.051 73.4648
L206.061 73.404
L207.061 63.3166
L208.435 57.6397
L208.708 57.3632
L212.02 56.5843
L219.491 57.5319
L223.394 56.9818
L227.744 71.7479
L227.98 77.6815
L231.429 225.026
L231.438 224.985
L236.67 61.7572
L237.816 57.5607
L239.117 56.9599
L241.492 64.8191
L243.221 84.6244
L244.55 86.4748
L244.559 86.4341
L247.197 67.0888
L250 58.6398
L250.546 58.534
L255.123 76.1746
L256.206 77.3925
L256.215 77.3686
L260.873 60.7225
L264.213 66.3981
L266.679 67.8712
L267.388 67.4419
L268.617 66.9186
L270.118 66.6436
L270.864 66.6488
L277.989 62.9992
L282.529 71.795
L284.249 71.3774
L285.814 71.4234
L287.67 75.0264
L293.202 107.553
L297.643 108.431
L297.652 108.379
L298.434 103.216
L301.155 78.6999
L302.32 70.1539
L304.44 62.7231
L313.311 61.7696
L313.903 63.6836
L315.568 66.035
L316.632 68.1255
L320.09 85.6757
L320.099 85.2992
L320.208 81.0377
L321.655 60.2434
L322.174 60.1352
L322.41 60.5808
L324.057 77.0125
L326.059 151.592
L334.794 82.7086
L334.803 82.5859
L342.729 58.1468
L349.262 57.0762
L357.533 56.9716
L361.482 56.5566
L362.947 61.3994
L363.938 78.0028
L363.948 77.9931
L365.012 60.8301
L366.331 56.8179
L367.305 56.6277
L368.761 57.9255
L369.043 61.1586
L369.471 79.2944
L370.908 127.109
L370.917 126.412
L371.755 70.1334
L372.428 58.658
L372.965 57.0986
L373.738 56.773
L374.421 57.0056
L374.903 58.2449
L376.113 105.61
L377.159 98.7796
L377.478 83.0548
L379.07 57.5045
L382.309 64.2968
L382.61 74.4928
L383.147 106.89
L384.302 84.0314
L387.469 57.2413
L389.061 57.2794
L391.791 57.4822
L392.009 57.4725
L397.377 56.9323
L398.215 57.3268
L400.48 64.4422
L403.255 76.7835
L404.338 79.8956
L404.766 80.3762
L404.875 80.3351
L405.002 80.1566
L406.258 71.9779
L406.267 72.0098
L406.74 86.0458
L409.716 59.3836
L413.474 57.0552
L413.983 57.0147
L422.973 57.0082
L423.719 57.1765
L426.376 61.7874
L429.515 86.1743
L435.976 74.1709
L436.704 70.745
L441.217 58.2902
L447.704 57.1387
L449.269 57.2953
L451.071 57.2774
L453.082 57.9168
L454.065 60.0807
L455.557 68.2897
L456.176 68.3053
L456.43 66.9198
L457.65 63.9627
L461.58 58.6033
L463.437 59.8621
L464.492 67.6248
L466.676 75.5244
L466.685 75.4745
L467.395 70.8687
L472.454 57.2904
L472.909 57.1307
L473.6 56.9878
L476.994 63.2595
L482.545 101.548
L482.554 101.087
L483.036 82.3765
L484.601 67.0955
L485.265 66.7423
L489.032 64.2263
L490.879 67.2886
L491.98 70.1331
L501.343 57.577
L502.754 57.9774
L509.05 58.6864
L510.643 57.5177
L511.088 57.366
L512.39 57.1622
L515.256 57.2258
L522.945 57.5423
L528.468 57.1113
L532.681 57.431
L536.084 69.613
L536.229 69.5873
L537.048 68.5471
L537.976 66.9094
L538.295 66.6546
L539.969 68.7274
L541.698 80.2631
L542.28 86.4773
L543.49 90.6057
L543.499 90.5882
L544.127 87.6758
L547.794 64.2295
L547.803 64.2366
L549.905 69.0048
L552.617 74.4885
L553.335 75.1518
L558.722 71.9057
L560.36 65.3762
L560.569 64.8439
L562.343 64.0373
L562.616 64.1001
L563.454 63.677
L565.583 57.2408
L571.943 56.9792
L573.763 57.6306
L574.427 58.7087
L577.557 64.0152
L577.566 63.9888
L578.121 62.7293
L579.159 64.7455
L580.724 85.1326
L581.715 71.066
L583.017 58.7333
L583.772 57.6404
L584.072 57.593
L585.51 57.8555
L588.976 56.9885
L589.495 56.6981
L590.833 64.1764
L590.951 70.1091
L591.369 111.456
L591.906 119.329
L593.781 59.9137
L594.099 58.4579
L594.581 57.5672
L596.083 56.9951
L599.058 56.9332
L599.704 57.0884
L604.427 77.3452
L604.545 78.9885
L609.067 113.23
L609.076 113.104
L609.841 102.671
L613.417 93.8446
L613.426 93.8854
L613.535 94.3857
L616.911 105.658
L616.92 105.619
L618.303 91.55
L619.476 76.4045
L620.932 64.6302
L624.727 57.0642
L630.969 56.9788
L631.815 59.4205
L632.452 71.3446
L632.879 83.2894
L634.244 92.2781
L634.253 92.1881
L636.073 68.4506
L637.547 67.1383
L637.556 67.1943
L639.212 91.3816
L640.395 105.88
L641.551 106.005
L641.56 105.834
L641.915 96.8547
L646.701 58.12
L648.066 57.6342
L649.312 57.7114
L652.643 57.2146
L655.791 58.2159
L656.1 58.3848
L662.26 59.3603
L666.801 255.17
L668.338 314.896
L670.231 277.291
L671.678 84.3602
L672.26 62.3883
L675.117 61.3686
L676.719 62.1765
L678.993 63.634
L680.695 64.9118
L680.704 64.8959
L680.768 64.7713
L683.124 57.4348
L683.78 56.9614
L684.389 56.8067
L686.446 57.2808
L687.283 57.9959
L691.587 56.5493
L691.787 56.6201
L692.478 58.1836
L692.624 59.1505
L693.916 85.2167
L695.144 62.3645
L695.599 57.8592
L695.836 57.2051
L696.3 56.8156
L700.64 58.8748
L701.432 63.0812
L701.677 65.9069
L702.323 81.0777
L702.96 114.812
L704.999 153.992
L710.631 62.88
L710.958 62.8585
L712.278 63.5161
L713.397 65.4791
L713.588 66.0507
L716.263 87.9424
L723.242 57.2295
L724.307 57.1294
L725.38 57.1664
L726.973 57.4477
L729.857 59.0921
L730.585 59.9085
L732.687 62.6397
L733.997 63.2667
L735.653 97.8265
L735.79 117.682
L737.81 224.501
L737.819 222.532
L737.964 188.524
L739.402 59.2281
L739.948 57.1262
L740.649 56.5663
L744.37 56.8207
L747.509 63.2707
L748.31 71.1293
L749.202 76.3095
L749.211 76.2696
L750.367 69.7254
L750.676 69.7994
L751.076 69.6442
L751.458 68.1556
L752.578 60.9107
L753.333 57.1503
L753.624 56.6804
L758.583 56.8488
L758.947 56.7106
L759.411 56.7612
L759.511 56.8605
L759.802 57.9132
L759.948 59.8544
L760.166 70.3484
L760.43 124.011
L762.122 62.4711
L762.714 57.5837
L763.76 57.0078
L764.033 56.9993
L764.688 57.4328
L765.08 58.4095
L765.726 64.215
L766.818 99.0842
L770.412 88.0899
L772.741 70.9151
L773.169 68.0949
L774.998 58.8244
L777.218 57.1378
L777.218 57.1378" style="fill:none;opacity:0.5;stroke:#ff0000;stroke-linecap:square;"/>
   </g>
   <g id="line2d_5">
    <path clip-path="url(#p9fd4257182)" d="
M108.264 60.9455
L108.273 60.939
L109.119 59.5978
L110.411 58.0822
L112.54 63.8523
L113.723 114.725
L114.624 198.876
L116.262 297.904
L116.762 313.11
L117.117 318.599
L117.818 321.826
L118.291 322.119
L119.356 321.949
L120.611 321.695
L122.468 321.911
L123.086 321.782
L123.487 321.882
L126.808 89.8906
L126.962 87.6769
L128.173 74.1456
L128.309 72.0514
L129.537 58.6035
L129.847 57.7782
L130.857 57.3468
L132.231 65.1693
L132.64 74.6761
L135.17 166.669
L139.455 61.3994
L151.157 57.7533
L151.675 58.7443
L155.624 67.2552
L156.689 62.2046
L157.281 61.2242
L157.626 61.0217
L158.272 61.1475
L160.82 82.1479
L160.829 82.0263
L161.684 60.8761
L164.96 56.5046
L170.511 56.8189
L171.657 56.9542
L173.595 56.4987
L174.733 58.9231
L176.598 96.7654
L176.607 96.7128
L176.834 96.7476
L177.371 96.1762
L178.727 86.0685
L179.118 81.4061
L180.228 64.8491
L181.621 56.9329
L182.822 56.651
L185.187 57.1606
L187.608 57.1894
L189.337 59.02
L191.111 67.4908
L192.048 72.9119
L194.632 61.9308
L195.642 61.8346
L199.436 87.0184
L199.964 88.1137
L200.501 85.0901
L201.302 67.7742
L202.175 57.0338
L202.794 56.7987
L206.061 187.23
L207.061 76.1007
L208.435 56.9097
L208.708 56.7715
L212.02 56.5037
L215.442 56.8926
L217.334 56.5748
L219.491 56.5257
L221.693 57.281
L222.603 63.0523
L222.894 69.0452
L223.394 90.3033
L227.744 67.0911
L227.98 63.3231
L228.726 58.3602
L231.438 56.6348
L236.679 68.1767
L237.816 111.809
L239.117 114.062
L241.501 79.837
L242.184 73.3103
L242.511 71.3031
L243.221 68.5859
L244.559 61.9917
L246.451 57.3704
L247.197 57.0705
L250.537 57.0673
L255.123 60.2546
L256.215 63.8093
L260.873 84.5195
L264.204 88.7428
L264.213 88.7264
L266.679 79.6491
L267.388 76.4056
L268.617 71.5523
L270.118 67.5284
L270.864 66.3155
L277.98 60.9529
L277.989 60.9664
L282.529 72.9188
L284.249 70.7885
L285.814 68.4536
L287.67 67.6311
L290.609 68.3048
L290.955 68.6335
L292.565 73.581
L293.202 77.6424
L297.643 85.8606
L297.652 85.7801
L298.434 78.5403
L301.155 60.5482
L302.32 58.0366
L304.449 56.8204
L313.311 57.2684
L314.321 82.6712
L315.568 81.9937
L316.632 73.5461
L320.208 70.7774
L321.655 67.1296
L322.41 64.1358
L324.057 58.861
L326.059 56.6986
L334.803 57.0437
L350.317 56.8852
L356.586 57.1161
L357.533 57.2881
L360.999 57.4116
L361.482 57.2639
L362.947 56.9786
L365.012 57.3604
L366.504 57.2711
L369.471 56.7709
L370.917 56.7863
L371.755 57.1242
L372.346 59.4185
L372.428 60.4429
L372.965 75.754
L374.421 57.5636
L374.903 57.0563
L377.478 56.9497
L379.07 57.0702
L384.302 57.9189
L387.469 63.856
L389.061 77.5451
L391.181 83.7119
L391.19 83.6183
L392.009 74.9982
L397.377 57.2855
L398.215 57.1801
L400.917 57.4042
L403.255 58.2203
L404.174 59.58
L404.766 66.0972
L404.875 66.0359
L405.002 65.2963
L405.776 58.2275
L406.267 57.0363
L406.74 56.6486
L409.716 57.8274
L413.474 85.0528
L413.983 93.8233
L419.998 122.197
L420.007 121.875
L421.335 80.9496
L422.591 62.4704
L422.973 60.0793
L423.719 57.7864
L426.376 57.1278
L429.515 57.4824
L435.976 66.8375
L436.704 68.456
L441.217 58.9466
L447.704 57.6187
L448.278 57.6968
L454.056 57.4806
L457.65 57.8839
L461.58 56.8688
L463.437 56.6986
L464.501 56.9006
L466.685 64.1658
L467.395 76.5522
L472.445 79.7777
L472.909 71.9657
L473.6 64.897
L476.994 59.3112
L483.036 71.9787
L484.601 79.0748
L485.274 84.0103
L489.023 89.9174
L490.879 78.1512
L491.98 73.6876
L501.343 87.7934
L501.989 101.483
L502.754 126.18
L509.05 56.7848
L510.197 57.8354
L510.652 59.4075
L511.088 61.6517
L512.39 69.7653
L513.636 74.5152
L514.291 72.1865
L515.42 62.2307
L516.093 58.7823
L518.905 56.5639
L522.945 57.6669
L524.382 57.5505
L526.784 56.8805
L528.468 57.0734
L529.987 61.0239
L530.16 62.3094
L531.034 67.022
L532.681 63.2898
L536.074 72.7724
L536.084 72.5782
L536.229 69.636
L537.048 60.0173
L537.594 58.1082
L537.976 57.6246
L538.295 57.4714
L539.969 60.3977
L541.698 98.3998
L542.043 96.0575
L543.499 59.862
L544.127 57.1837
L547.794 56.5001
L549.896 56.6698
L552.617 57.4703
L552.926 57.8339
L553.326 58.5604
L558.722 65.1996
L559.141 65.1907
L559.741 64.9671
L560.569 64.4473
L562.334 79.7179
L562.616 85.4263
L563.444 92.4132
L563.454 92.2592
L564.791 57.8015
L565.583 56.5117
L571.943 58.6646
L573.763 66.2909
L574.427 70.3466
L577.675 91.6263
L578.112 96.6576
L579.149 106.431
L580.114 105.297
L580.724 96.9632
L581.715 74.1092
L583.017 59.3302
L583.772 58.0209
L584.072 57.7695
L585.51 60.9298
L587.821 70.6778
L587.985 62.7834
L588.558 56.824
L588.567 56.8115
L588.976 56.6351
L590.833 57.6557
L591.906 57.4709
L594.09 57.0333
L599.704 57.0827
L604.545 57.7014
L609.841 57.1028
L613.535 57.071
L616.92 69.6782
L618.303 107.881
L619.467 110.619
L619.476 110.501
L620.932 82.559
L624.727 57.2128
L630.714 56.6055
L630.969 56.6594
L631.815 58.3575
L632.87 77.9877
L634.253 68.5488
L636.073 65.8616
L639.212 58.4992
L640.395 57.1746
L641.915 56.8669
L650.959 56.6834
L651.642 57.0762
L651.842 57.5679
L652.37 67.9508
L652.643 90.7638
L655.463 97.4527
L655.791 85.121
L656.1 77.9912
L662.26 99.6605
L666.801 183.966
L668.338 159.201
L670.231 90.8026
L670.995 75.6839
L671.687 68.3687
L672.26 65.1909
L675.117 67.476
L676.719 67.1914
L678.32 64.3959
L678.993 61.4018
L680.704 66.6366
L680.768 67.7013
L681.232 80.1729
L682.56 142.653
L683.134 132.223
L683.789 102.374
L684.38 81.7794
L686.436 72.2529
L686.446 72.2792
L687.001 73.7832
L687.283 74.2226
L691.577 61.109
L691.587 61.1527
L691.787 62.2364
L692.624 68.9016
L693.434 72.1907
L693.552 71.9013
L695.144 64.9281
L695.599 65.1007
L695.836 66.0381
L696.3 70.0814
L700.631 99.6586
L700.64 99.4549
L701.687 76.5812
L702.323 66.6179
L702.96 60.7971
L704.999 57.9655
L710.622 71.9937
L710.631 71.9549
L710.958 70.5743
L712.278 66.5527
L713.397 66.4253
L713.597 66.7814
L716.263 78.9884
L723.242 57.3429
L725.38 57.1065
L726.982 60.1958
L729.848 77.7318
L729.857 77.6117
L730.585 68.1297
L732.687 57.3413
L733.542 56.9072
L733.997 56.88
L735.79 57.2712
L737.819 69.9387
L737.964 71.8435
L739.402 63.4243
L739.939 58.8487
L740.649 56.8185
L747.509 59.1631
L748.31 63.7031
L749.211 67.5309
L749.338 67.5225
L750.367 66.8388
L750.676 67.3316
L751.076 67.5077
L751.458 66.177
L752.587 59.3561
L753.333 56.9354
L753.624 56.646
L758.583 56.6481
L759.511 61.8827
L759.802 65.3572
L759.948 69.2982
L760.166 83.6728
L760.43 139.564
L762.122 62.7424
L762.714 58.0647
L763.515 61.9236
L765.726 106.205
L766.818 89.9647
L770.412 59.5577
L771.704 60.9962
L771.84 61.5605
L772.559 63.207
L772.741 63.1937
L773.169 62.7617
L774.843 63.404
L774.998 64.0336
L777.218 77.1492
L777.218 77.1492" style="fill:none;opacity:0.5;stroke:#0000ff;stroke-linecap:square;"/>
   </g>
   <g id="line2d_6">
    <path clip-path="url(#p9fd4257182)" d="
M108.264 68.0469
L108.273 68.0535
L109.119 66.1838
L110.411 63.2103
L112.54 82.3066
L113.723 302.547
L114.615 317.567
L114.624 317.527
L116.253 282.385
L116.262 282.552
L117.117 316.799
L117.818 321.679
L118.291 322.048
L118.955 321.987
L119.274 321.608
L119.492 320.861
L119.692 319.919
L120.147 319.47
L120.193 319.569
L121.13 321.637
L121.485 321.794
L121.676 321.77
L121.985 321.493
L122.076 321.281
L122.176 320.798
L122.349 318.837
L122.959 306.582
L122.968 306.959
L123.086 313.248
L123.487 322.278
L126.799 58.2603
L126.808 58.2922
L126.962 59.2076
L127.818 70.0765
L127.827 70.0175
L128.3 67.3521
L128.309 67.3606
L129.847 73.9546
L130.848 74.859
L130.857 74.8429
L132.231 72.8531
L132.64 74.6827
L135.17 219.312
L139.455 64.6704
L146.662 56.5267
L151.666 57.9758
L155.624 70.2238
L156.689 76.006
L157.281 77.4305
L157.626 77.4296
L158.272 76.2004
L160.829 67.0985
L161.684 60.9877
L164.96 57.2028
L173.595 56.499
L174.733 69.1941
L176.598 194.537
L176.607 189.38
L176.834 87.4002
L177.371 58.7782
L178.727 61.3654
L179.118 63.4351
L180.228 62.65
L181.621 64.5072
L182.822 63.4078
L185.187 62.9582
L187.38 66.5993
L187.426 66.483
L187.608 65.9945
L189.337 62.4418
L191.111 60.0801
L192.048 60.5036
L194.632 106.124
L195.642 121.131
L195.651 121.115
L199.073 74.7491
L200.501 59.8841
L201.302 57.3596
L202.175 57.0091
L202.794 56.9874
L206.061 57.2474
L207.061 58.8646
L208.708 64.3807
L212.011 78.6921
L214.077 75.5776
L215.451 69.5918
L217.334 63.0578
L219.491 61.1733
L221.684 66.1596
L222.894 72.8643
L223.394 76.045
L227.744 66.9677
L228.726 61.8611
L231.429 56.9759
L236.679 57.1486
L237.816 57.5698
L239.117 59.2123
L242.184 75.3437
L242.511 75.2723
L243.021 72.5387
L244.55 61.0279
L246.442 56.9252
L247.197 56.7514
L250 68.1143
L250.546 78.2869
L255.123 75.6403
L256.215 76.8698
L260.873 94.9372
L264.213 79.981
L266.679 76.2892
L267.388 76.062
L270.864 74.405
L277.989 62.4339
L282.529 57.2026
L284.249 56.9817
L285.805 56.9869
L287.67 57.1692
L290.609 59.0845
L290.955 60.2488
L292.565 74.8843
L293.202 82.2
L297.652 61.1675
L298.434 59.0498
L301.155 56.8025
L302.32 56.6667
L313.311 57.2531
L313.903 58.7245
L314.321 60.3938
L315.568 70.6075
L316.632 84.235
L320.09 180.689
L320.099 178.416
L320.208 152.239
L321.655 60.8915
L322.174 60.638
L322.41 60.8865
L324.057 67.6706
L326.05 78.6592
L334.667 71.0549
L334.803 70.6033
L342.729 57.8424
L350.317 56.8284
L356.595 57.2567
L357.533 59.4198
L360.999 101.803
L361.482 100.825
L362.947 86.4157
L363.948 78.384
L364.876 72.964
L366.231 79.6679
L366.24 78.7684
L366.504 64.5058
L367.305 58.2581
L369.025 76.9143
L369.471 80.8826
L370.908 89.4543
L371.745 77.6828
L372.428 60.0665
L372.965 57.3063
L373.738 57.2178
L374.421 57.4245
L374.903 57.9554
L376.113 57.5869
L377.478 57.4214
L379.07 56.8213
L382.309 60.6475
L382.61 61.4527
L383.147 61.5184
L384.302 61.2179
L387.46 76.2147
L388.934 80.0289
L388.943 80.0164
L389.061 79.7731
L391.19 61.1033
L392.009 58.9998
L397.377 56.8158
L398.215 58.324
L400.48 92.7076
L400.908 97.1172
L400.917 96.9774
L403.255 58.0811
L404.165 57.4921
L404.174 57.5137
L404.338 58.2325
L405.002 63.971
L405.776 70.8259
L406.267 76.6268
L406.74 87.6355
L409.716 60.9286
L413.474 64.5536
L413.983 65.6861
L419.998 91.1623
L420.007 91.0916
L421.335 79.7786
L422.973 67.9753
L423.719 64.421
L426.376 59.0436
L429.515 57.8851
L435.976 62.0417
L436.704 64.3421
L441.217 118.326
L447.695 116.742
L448.278 111.415
L449.26 104.551
L451.062 93.0156
L453.082 70.0964
L454.065 61.4086
L455.557 58.1016
L456.43 57.7491
L457.65 57.6956
L463.437 58.2423
L472.454 57.4195
L472.909 57.6007
L473.6 58.2453
L476.994 87.2349
L482.809 63.8242
L483.036 63.2637
L484.601 61.6123
L485.265 61.8123
L489.032 68.2763
L490.879 69.6232
L491.98 69.664
L501.343 57.284
L502.754 57.3144
L509.05 59.8374
L510.197 76.2926
L511.088 101.146
L512.39 87.5565
L513.636 68.506
L514.291 65.8847
L515.256 66.2388
L515.42 66.4428
L516.093 66.7487
L518.905 58.916
L522.945 57.1444
L524.382 57.1345
L526.784 56.579
L528.468 56.6012
L529.987 58.4698
L530.16 59.5181
L531.034 74.4913
L532.681 60.6175
L536.22 57.0487
L538.304 57.0127
L539.969 56.6765
L541.698 61.6552
L542.28 72.364
L543.49 80.3855
L543.499 80.384
L544.127 80.7967
L547.794 79.2309
L549.905 73.5134
L552.935 61.9517
L553.335 61.0611
L558.722 56.6087
L559.15 57.2709
L559.741 61.8588
L560.56 75.1647
L562.343 58.5796
L562.616 57.749
L563.454 57.0553
L564.791 57.0589
L565.583 57.4753
L571.943 56.4997
L573.708 57.7316
L573.763 58.1637
L574.427 90.5828
L577.566 67.2481
L577.73 63.0838
L578.121 58.9768
L579.149 57.5403
L580.114 57.1386
L580.724 57.02
L581.715 57.0005
L584.072 57.2787
L588.44 57.1743
L591.897 57.6102
L593.781 58.4237
L594.581 58.4056
L596.083 58.086
L598.212 57.2083
L599.058 57.2065
L599.704 57.5033
L604.427 84.2082
L604.545 86.201
L609.067 101.177
L609.076 101.016
L609.841 89.1786
L613.417 85.7147
L613.426 85.78
L613.535 86.5855
L616.92 120.636
L618.303 101.472
L619.476 78.1872
L620.932 64.6709
L624.727 63.7645
L625.227 64.4672
L627.293 72.6879
L627.529 72.4074
L630.705 73.9793
L630.969 78.199
L631.806 83.2535
L631.815 83.1512
L632.87 63.3219
L634.253 57.4917
L634.954 57.8247
L635.718 59.9439
L636.073 62.5536
L637.547 93.2221
L637.556 93.1788
L639.212 66.2525
L640.241 72.448
L640.395 74.3099
L641.915 96.2859
L646.701 57.786
L648.066 57.3289
L649.312 57.3864
L652.37 57.3303
L652.643 57.4608
L655.791 66.1017
L656.1 66.7076
L662.251 73.3532
L666.792 303.621
L668.338 321.392
L670.231 301.404
L671.687 72.994
L672.26 58.609
L675.117 56.5085
L676.719 57.0721
L678.993 74.7532
L680.704 74.8652
L680.768 74.9864
L681.232 76.4103
L683.124 66.417
L683.78 65.9034
L683.789 65.9274
L684.389 69.0094
L686.436 73.1202
L686.446 73.0446
L687.001 68.9247
L687.283 67.5215
L691.587 103.936
L691.787 103.884
L692.469 101.642
L692.615 100.709
L693.561 91.2085
L695.144 71.8562
L695.836 66.2881
L696.3 65.3071
L700.631 60.5733
L700.64 60.5846
L701.441 62.8059
L701.687 64.1607
L702.323 70.2884
L705.008 122.213
L710.631 102.829
L710.958 102.739
L712.069 99.2017
L712.278 97.8718
L716.263 60.2915
L723.242 57.0867
L724.307 57.2807
L725.38 57.6181
L726.982 59.0203
L729.857 72.6933
L730.585 86.2641
L732.687 75.4633
L733.542 66.1194
L733.997 65.0729
L735.672 84.7321
L735.79 92.6963
L737.81 186.411
L737.819 185.54
L737.964 171.52
L739.402 102.761
L740.476 70.6949
L740.649 67.3534
L744.37 56.6156
L747.509 61.565
L749.202 99.9794
L749.211 99.9011
L749.338 98.2616
L750.676 75.2872
L751.076 71.3008
L751.449 70.1117
L751.458 70.1192
L751.677 70.5439
L752.578 71.0133
L752.587 70.9537
L753.624 60.0092
L758.574 103.617
L758.583 101.661
L758.947 69.3793
L759.32 67.9413
L759.329 68.0744
L759.802 77.1746
L759.948 74.8381
L760.43 57.343
L762.122 56.9174
L762.714 58.3511
L763.951 58.1896
L764.688 58.2039
L765.726 58.2393
L770.412 56.6562
L771.84 56.6003
L772.559 57.2004
L772.741 57.5841
L773.169 59.2801
L774.998 90.9484
L777.209 93.1317
L777.218 93.1042" style="fill:none;opacity:0.5;stroke:#ff0000;stroke-linecap:square;"/>
   </g>
   <g id="line2d_7">
    <path clip-path="url(#p9fd4257182)" d="
M108.264 69.3506
L108.273 69.3065
L109.119 62.7857
L110.411 58.0056
L112.54 61.8428
L113.723 102.944
L114.624 205.749
L116.262 319.474
L116.762 321.231
L117.117 321.03
L117.818 321.183
L119.119 322
L119.547 322.01
L119.683 321.969
L120.611 321.381
L121.021 321.522
L121.676 321.989
L122.076 321.996
L122.349 321.822
L122.468 321.676
L122.968 319.713
L123.086 318.471
L123.487 307.091
L126.962 97.1244
L127.827 66.9952
L128.309 62.7537
L129.537 64.2346
L129.847 66.2206
L130.857 76.6798
L132.231 84.8394
L132.64 89.6835
L135.17 218.533
L139.455 71.2042
L146.653 56.4994
L151.157 57.7554
L151.675 60.0458
L155.624 94.0688
L155.634 93.767
L156.689 65.2284
L157.281 60.5604
L157.626 59.3356
L158.272 58.1614
L160.829 57.2195
L161.102 57.2916
L161.684 57.7243
L164.951 166.006
L164.96 165.833
L169.218 58.6881
L170.511 57.5323
L170.984 57.5039
L171.657 58.2535
L173.513 73.8343
L173.595 75.6416
L174.733 119.313
L176.607 115.651
L176.834 110.181
L177.371 92.9377
L178.727 65.5315
L179.118 63.3164
L180.228 63.4034
L181.511 61.7913
L181.621 61.1059
L182.822 57.7853
L185.187 58.4898
L187.526 63.5671
L187.608 63.5832
L189.337 64.1181
L191.111 69.4775
L192.048 73.3288
L194.623 91.3233
L194.632 91.0535
L195.651 64.9645
L198.663 60.4072
L198.672 60.4549
L199.073 63.2919
L199.873 71.2148
L199.882 71.2087
L199.964 70.9778
L200.501 64.8645
L201.302 58.2822
L202.175 57.1275
L202.794 57.102
L207.061 57.0833
L208.708 56.9044
L212.02 57.7555
L214.077 61.9913
L215.442 67.7298
L217.334 76.643
L219.482 78.3121
L219.491 78.2879
L222.894 63.7172
L223.385 62.0886
L227.744 56.9903
L228.726 56.8634
L231.438 56.8971
L236.67 57.3884
L237.807 57.0363
L239.117 57.0826
L241.501 57.75
L242.184 58.6452
L242.511 59.622
L243.021 63.0933
L243.221 65.4066
L244.559 98.0525
L246.442 101.131
L247.197 82.2296
L250 57.5501
L250.546 56.9905
L256.215 56.6229
L260.873 57.4579
L264.213 60.9394
L267.388 71.1266
L268.617 75.2632
L270.864 81.8745
L277.989 82.9369
L282.529 75.2698
L284.24 72.1298
L285.814 71.9944
L287.67 75.5217
L290.955 89.3817
L292.556 93.2457
L292.565 93.2381
L293.202 92.0536
L298.434 71.1781
L301.155 66.6625
L302.32 68.0621
L304.449 72.1977
L313.311 57.3081
L313.903 59.607
L314.321 64.4825
L315.568 85.9657
L316.45 83.2599
L316.623 81.5861
L316.632 81.6752
L320.09 131.887
L320.208 92.7537
L321.646 56.9487
L321.655 56.9615
L322.174 58.617
L322.41 60.4841
L324.057 126.729
L326.05 122.613
L326.059 122.025
L334.667 58.9261
L334.803 58.7647
L342.729 59.3402
L349.262 66.9141
L350.317 68.416
L356.541 72.0414
L356.595 72.3471
L357.533 81.1337
L360.999 58.3176
L361.473 57.3407
L362.947 56.9091
L363.948 57.2336
L364.876 58.8183
L366.231 64.8028
L366.24 64.679
L366.504 60.9543
L367.305 56.9126
L369.043 57.2981
L369.48 57.5182
L370.908 57.4674
L372.428 57.0869
L373.738 56.8782
L374.421 57.0455
L376.113 58.092
L377.469 58.543
L379.07 58.4841
L382.309 56.9403
L382.61 56.9476
L383.147 57.2025
L384.302 64.1727
L387.46 137.977
L387.469 137.384
L389.061 75.1381
L391.19 63.5519
L392.009 61.2175
L397.377 56.9582
L398.205 56.8806
L403.255 56.9799
L404.174 58.3698
L404.338 59.5722
L404.593 63.3709
L405.002 76.1241
L405.767 82.0776
L405.776 81.6523
L406.267 60.3476
L406.74 56.5922
L409.716 56.52
L413.474 57.0334
L413.983 57.3521
L419.998 135.789
L420.007 135.195
L421.335 72.0974
L422.582 58.1053
L422.964 57.2248
L423.719 56.6486
L426.376 56.5309
L429.515 56.5304
L435.976 57.6607
L436.704 58.5862
L441.217 76.9912
L447.704 72.3611
L448.278 73.8124
L449.269 81.9793
L451.062 98.7169
L451.071 98.6785
L453.082 62.3377
L454.065 59.3883
L455.557 62.7653
L456.43 66.7646
L457.65 101.054
L461.571 113.006
L461.58 112.848
L463.437 78.2527
L464.501 74.2918
L466.685 70.9155
L467.395 69.4183
L472.454 58.0021
L472.909 57.6623
L473.6 57.322
L476.994 56.9326
L483.036 57.0933
L484.601 58.385
L485.274 60.0014
L489.032 82.8885
L490.87 83.0361
L491.971 82.0256
L501.343 61.0159
L501.989 57.6036
L502.754 56.6701
L516.093 57.334
L522.945 56.6291
L524.382 56.6787
L526.784 57.1576
L528.468 85.0337
L529.978 104.265
L529.987 103.671
L530.16 91.9363
L531.034 60.2285
L532.681 56.5663
L536.229 57.0237
L544.127 57.0515
L547.803 57.4175
L549.905 58.6325
L552.617 68.1133
L553.335 73.0051
L559.741 65.1072
L560.569 64.1291
L562.334 64.2431
L562.616 64.5383
L563.454 65.5868
L564.791 67.7362
L565.583 71.7044
L571.943 57.0072
L573.708 69.8927
L573.763 72.1973
L574.427 121.534
L577.73 61.8764
L578.121 58.9914
L579.159 57.6765
L580.724 57.2445
L583.017 56.9868
L584.072 57.1094
L585.51 58.8637
L587.985 65.0023
L588.567 65.5388
L588.976 66.5509
L589.495 71.6343
L590.951 57.7329
L591.369 56.764
L591.906 56.6863
L594.099 57.4526
L594.581 58.0102
L596.083 67.3831
L598.03 68.7987
L598.212 65.8203
L599.058 57.5183
L599.704 57.1501
L604.427 75.3975
L604.545 76.3107
L609.067 79.3619
L609.076 79.3043
L609.841 74.8397
L613.535 65.364
L616.92 67.1221
L618.303 72.101
L619.476 74.8283
L620.932 74.6715
L624.663 58.4171
L624.727 58.4966
L625.227 59.5597
L627.283 70.4043
L627.293 70.3694
L627.529 69.0382
L630.714 56.9508
L630.969 56.8622
L631.815 57.4075
L632.452 61.4237
L632.879 63.3334
L634.253 59.2908
L634.954 58.8948
L635.718 60.1837
L636.073 61.6403
L637.556 75.5082
L639.212 66.7805
L641.915 63.9533
L646.701 57.4743
L648.066 57.3621
L649.312 57.4409
L652.643 57.2008
L656.1 57.3097
L662.26 59.1667
L666.801 85.0905
L668.338 171.932
L670.231 124.129
L670.986 85.4374
L671.687 66.7011
L672.26 60.5389
L675.117 56.7251
L676.719 56.8591
L678.784 57.7124
L678.993 57.8757
L680.768 62.0064
L681.232 65.4062
L683.124 103.697
L683.789 122.198
L684.389 133.104
L687.283 69.0487
L691.577 57.4578
L691.587 57.4702
L691.787 57.8002
L692.615 60.8481
L693.552 65.9082
L693.916 66.9501
L695.144 68.0628
L695.599 69.4733
L695.836 71.2416
L696.3 77.8369
L700.631 79.4129
L700.64 79.2553
L701.687 65.2426
L702.323 60.6902
L702.951 58.3251
L704.999 56.8197
L713.597 57.0333
L716.263 56.9297
L723.242 56.9351
L724.307 58.3343
L725.38 62.1498
L726.982 74.5148
L729.857 71.9035
L730.585 67.074
L732.687 67.2077
L733.542 67.6721
L733.997 66.5167
L735.681 61.6857
L735.79 61.6997
L737.964 85.4753
L739.402 59.2738
L739.948 57.2309
L740.649 56.6826
L744.37 57.4326
L747.509 56.717
L748.31 56.7612
L749.211 59.9824
L749.338 61.7356
L750.367 96.399
L750.676 102.911
L751.076 97.6086
L751.677 73.3263
L752.587 60.473
L753.333 57.8363
L753.624 57.3536
L758.574 96.8367
L758.583 96.7229
L759.511 74.2859
L759.793 74.0191
L759.802 74.0835
L759.948 75.8945
L760.166 82.535
L760.43 101.808
L762.122 98.1189
L763.615 82.4571
L764.033 79.99
L764.688 80.8915
L765.08 83.4049
L765.726 89.3293
L766.809 95.0753
L766.818 95.0676
L770.412 70.1496
L771.704 62.787
L771.84 62.8014
L772.559 63.9955
L772.741 64.5638
L773.169 66.3174
L774.998 75.9957
L777.218 80.1819
L777.218 80.1819" style="fill:none;opacity:0.5;stroke:#0000ff;stroke-linecap:square;"/>
   </g>
   <g id="line2d_8">
    <path clip-path="url(#p9fd4257182)" d="
M108.264 56.7268
L109.119 56.7968
L110.411 57.127
L112.54 61.0131
L113.723 86.9046
L114.624 172.979
L116.262 302.784
L116.762 306.26
L117.117 316.153
L117.818 322.19
L118.955 321.548
L120.593 321.956
L121.021 321.883
L121.303 321.574
L121.485 320.997
L121.676 319.767
L122.295 313.606
L122.304 313.64
L122.349 313.924
L122.968 321.189
L123.086 321.609
L123.487 321.967
L126.808 57.5964
L126.962 58.1025
L127.827 78.9225
L128.309 115.14
L129.847 62.9495
L130.857 56.9297
L132.231 56.505
L132.64 56.4992
L134.87 76.972
L134.879 78.9797
L135.17 240.703
L139.455 66.9536
L146.662 56.5021
L151.166 60.5432
L151.675 72.5187
L155.624 134.823
L156.689 63.4357
L157.281 57.7947
L157.626 57.0778
L158.272 56.6848
L161.102 56.8456
L161.684 57.1445
L164.96 88.1048
L169.218 69.6742
L170.511 63.0688
L170.984 61.268
L171.657 59.7334
L173.595 56.5469
L174.733 60.2928
L176.598 138.395
L176.607 137.176
L176.834 107.345
L177.371 67.8422
L178.718 59.7652
L178.727 59.8021
L179.118 63.6527
L180.228 118.516
L181.621 67.1783
L182.822 68.3454
L185.178 88.5179
L185.187 88.5025
L187.526 68.359
L189.337 63.6227
L191.111 63.2086
L192.048 64.0169
L194.632 73.5287
L195.651 78.0654
L198.663 56.5434
L198.672 56.549
L199.073 65.6219
L199.427 87.2658
L199.436 87.0462
L199.882 58.4727
L199.964 57.203
L200.501 56.5236
L202.175 56.9099
L202.794 58.3661
L206.061 57.8864
L207.061 60.1717
L208.708 64.5649
L212.02 71.0828
L214.077 71.7216
L217.334 62.5835
L219.491 60.459
L221.684 64.0834
L222.603 72.8281
L222.894 77.4487
L223.394 87.7016
L227.744 72.887
L227.98 70.1674
L228.726 64.4528
L231.429 62.3148
L231.438 62.341
L236.67 109.245
L237.807 93.5008
L239.117 77.7529
L241.492 70.5564
L242.511 72.5477
L242.921 72.3743
L243.221 71.4928
L244.559 63.33
L246.451 56.6988
L247.197 56.6844
L250.546 56.7675
L255.123 64.3184
L256.215 71.5966
L260.873 80.1666
L264.213 77.1488
L268.617 66.1021
L270.118 63.1189
L270.864 61.9431
L277.989 56.8276
L285.814 56.5818
L287.67 57.7311
L290.609 78.3401
L290.955 85.1334
L292.565 125.058
L293.202 124.401
L297.652 67.1691
L298.434 63.3251
L301.146 59.6946
L301.155 59.7036
L302.32 63.3653
L304.449 108.088
L313.311 67.2466
L313.903 67.0405
L314.321 67.0598
L315.568 66.6549
L316.632 64.9873
L320.199 56.981
L320.208 56.983
L321.655 59.3104
L322.174 66.9152
L322.41 75.3103
L324.057 165.651
L326.05 72.9525
L334.803 58.1914
L342.729 59.2526
L350.317 69.9461
L356.595 68.3121
L357.533 67.1841
L360.999 57.4227
L361.473 56.8415
L362.947 62.2593
L363.938 96.3724
L363.948 96.2571
L365.012 61.3143
L366.331 57.0849
L366.504 57.1122
L367.305 56.5833
L368.761 57.5229
L369.043 62.7434
L369.471 126.115
L370.908 79.6433
L371.745 58.9419
L372.419 57.2307
L372.956 57.0053
L373.729 57.1008
L376.049 58.0203
L377.259 58.0261
L377.469 58.0102
L379.07 58.3908
L382.309 67.1384
L382.61 70.7835
L383.01 82.1204
L383.147 89.3352
L384.293 89.7153
L384.302 89.3739
L387.46 64.8089
L387.469 64.8233
L389.061 66.9469
L391.19 70.3302
L392.009 72.4487
L397.368 85.5242
L397.377 85.5104
L398.215 82.7764
L400.917 79.3193
L403.255 73.8443
L404.165 69.9101
L405.776 58.0408
L406.267 56.9547
L406.74 56.7083
L409.716 56.9289
L413.983 81.1179
L419.998 64.5872
L420.007 64.592
L421.335 65.7076
L423.719 68.9389
L426.376 79.0455
L429.515 66.7791
L435.976 57.1552
L436.704 56.9699
L441.217 56.7487
L448.269 56.6931
L449.269 57.2971
L451.071 68.2102
L453.073 77.8807
L453.082 77.8128
L454.065 67.127
L455.557 58.4267
L456.43 57.4016
L457.65 56.9276
L461.58 56.9676
L463.437 57.5356
L464.501 57.6951
L467.395 57.4842
L473.6 57.1717
L476.994 57.2929
L482.554 67.4449
L482.809 67.3685
L483.036 67.0678
L485.274 58.7117
L489.032 57.2578
L490.879 57.6022
L491.98 57.9971
L501.334 86.9073
L501.343 86.8957
L501.989 85.6795
L502.754 83.2543
L509.05 57.0365
L512.39 57.3775
L515.256 57.231
L516.093 57.1504
L518.905 58.4356
L522.935 73.5585
L522.945 73.413
L524.382 59.7296
L526.784 56.9685
L528.468 56.9765
L530.16 57.1968
L530.934 58.16
L531.034 58.4601
L532.681 97.9537
L536.084 64.7924
L536.229 64.577
L537.048 63.9231
L537.985 63.5143
L538.304 63.2613
L539.969 58.1988
L541.698 57.9474
L542.053 58.7628
L542.28 59.5974
L543.499 67.4616
L544.127 77.6191
L547.794 69.1604
L549.905 57.7861
L552.935 57.3236
L553.335 57.3904
L558.722 61.4958
L559.15 62.2536
L559.741 63.7769
L560.569 66.7313
L562.343 70.7982
L562.616 70.7001
L563.454 70.2046
L565.574 69.5393
L571.943 57.6627
L573.763 57.133
L574.427 57.2095
L577.566 73.4694
L578.121 87.1794
L579.159 66.3692
L580.123 58.3143
L580.724 57.4781
L581.715 57.1873
L584.072 57.6665
L587.83 56.4998
L587.985 56.5112
L588.44 59.4014
L588.567 64.561
L588.976 94.1101
L589.495 75.22
L590.951 57.6818
L591.369 57.176
L591.906 56.9734
L593.772 57.4874
L594.099 58.4578
L594.581 61.78
L596.083 91.9263
L598.212 60.7369
L599.058 57.0124
L599.704 56.6118
L604.545 57.1907
L609.076 57.7935
L609.841 57.7436
L613.535 61.2576
L616.92 79.0145
L618.303 123.754
L619.467 122.275
L619.476 122.082
L620.932 78.7769
L624.727 56.7319
L625.227 56.734
L627.529 56.946
L630.714 60.4923
L630.969 61.2987
L631.815 66.2028
L632.879 79.3424
L634.954 67.6454
L636.073 65.5622
L637.556 64.1571
L639.212 62.9396
L640.395 63.6606
L641.915 65.4746
L646.701 58.7246
L647.811 61.3293
L648.066 63.373
L649.312 80.8271
L650.95 87.6868
L650.959 87.5653
L651.842 74.1042
L652.643 65.5668
L655.472 57.3197
L656.1 57.0364
L662.26 57.5979
L666.801 82.9063
L668.338 106.762
L670.231 104.426
L672.26 76.2551
L675.117 62.2779
L676.719 58.7357
L678.993 57.3637
L680.768 56.9066
L681.232 56.9789
L682.56 58.8729
L683.124 64.0862
L683.789 101.215
L684.389 211.445
L686.446 137.379
L686.764 95.347
L687.001 78.0855
L687.283 67.4907
L691.577 80.6355
L691.587 80.4103
L691.787 75.4692
L692.478 63.9344
L692.624 63.3843
L693.443 64.7984
L693.561 65.9687
L693.916 74.2748
L695.135 93.7047
L695.144 93.3301
L695.836 65.543
L696.3 59.0542
L700.64 57.3535
L702.96 57.4461
L704.999 76.4
L710.622 279.345
L710.631 278.227
L710.958 221.26
L712.069 64.3419
L712.278 60.2664
L713.397 56.5888
L713.588 56.5496
L716.263 56.5215
L726.982 57.3988
L732.687 57.1999
L733.997 56.9675
L735.653 73.033
L735.79 83.6471
L737.81 261.814
L737.819 260.608
L737.964 237.477
L739.402 62.4721
L739.948 58.4865
L740.649 57.1614
L744.37 57.5546
L747.509 56.8461
L748.31 57.1227
L749.211 61.3893
L749.338 64.6749
L750.367 112.354
L750.676 107.534
L751.677 64.472
L752.578 57.2613
L753.615 56.7354
L753.624 56.7342
L758.583 60.9975
L758.947 68.3708
L759.329 73.0877
L759.411 73.0591
L759.511 72.5331
L759.948 65.4952
L760.43 57.6993
L762.122 57.4009
L762.714 56.6458
L763.515 58.0585
L763.624 59.7497
L763.76 64.0377
L764.033 86.4511
L764.688 185.793
L765.08 190.438
L765.726 98.1129
L766.818 56.5209
L770.412 57.195
L771.704 58.3259
L771.84 58.7822
L772.741 69.1587
L773.169 74.2856
L774.998 58.6292
L777.218 56.9016
L777.218 56.9016" style="fill:none;opacity:0.5;stroke:#0000ff;stroke-linecap:square;"/>
   </g>
   <g id="patch_19">
    <path d="
M108 43.2
L777.6 43.2" style="fill:none;stroke:#000000;stroke-linecap:square;stroke-linejoin:miter;"/>
   </g>
   <g id="patch_20">
    <path d="
M777.6 322.473
L777.6 43.2" style="fill:none;stroke:#000000;stroke-linecap:square;stroke-linejoin:miter;"/>
   </g>
   <g id="patch_21">
    <path d="
M108 322.473
L777.6 322.473" style="fill:none;stroke:#000000;stroke-linecap:square;stroke-linejoin:miter;"/>
   </g>
   <g id="patch_22">
    <path d="
M108 322.473
L108 43.2" style="fill:none;stroke:#000000;stroke-linecap:square;stroke-linejoin:miter;"/>
   </g>
   <g id="matplotlib.axis_1">
    <g id="ytick_1">
     <g id="line2d_9">
      <defs>
       <path d="
M0 0
L4 0" id="m728421d6d4" style="stroke:#000000;stroke-width:0.5;"/>
      </defs>
      <g>
       <use style="stroke:#000000;stroke-width:0.5;" x="108.0" xlink:href="#m728421d6d4" y="322.472727273"/>
      </g>
     </g>
     <g id="line2d_10">
      <defs>
       <path d="
M0 0
L-4 0" id="mcb0005524f" style="stroke:#000000;stroke-width:0.5;"/>
      </defs>
      <g>
       <use style="stroke:#000000;stroke-width:0.5;" x="777.6" xlink:href="#mcb0005524f" y="322.472727273"/>
      </g>
     </g>
     <g id="text_1">
      <!-- 0 -->
      <defs>
       <path d="
M31.7812 66.4062
Q24.1719 66.4062 20.3281 58.9062
Q16.5 51.4219 16.5 36.375
Q16.5 21.3906 20.3281 13.8906
Q24.1719 6.39062 31.7812 6.39062
Q39.4531 6.39062 43.2812 13.8906
Q47.125 21.3906 47.125 36.375
Q47.125 51.4219 43.2812 58.9062
Q39.4531 66.4062 31.7812 66.4062
M31.7812 74.2188
Q44.0469 74.2188 50.5156 64.5156
Q56.9844 54.8281 56.9844 36.375
Q56.9844 17.9688 50.5156 8.26562
Q44.0469 -1.42188 31.7812 -1.42188
Q19.5312 -1.42188 13.0625 8.26562
Q6.59375 17.9688 6.59375 36.375
Q6.59375 54.8281 13.0625 64.5156
Q19.5312 74.2188 31.7812 74.2188" id="DejaVuSans-30"/>
      </defs>
      <g transform="translate(97.953125 325.783977273)scale(0.12 -0.12)">
       <use xlink:href="#DejaVuSans-30"/>
      </g>
     </g>
    </g>
    <g id="ytick_2">
     <g id="line2d_11">
      <g>
       <use style="stroke:#000000;stroke-width:0.5;" x="108.0" xlink:href="#m728421d6d4" y="269.277922078"/>
      </g>
     </g>
     <g id="line2d_12">
      <g>
       <use style="stroke:#000000;stroke-width:0.5;" x="777.6" xlink:href="#mcb0005524f" y="269.277922078"/>
      </g>
     </g>
     <g id="text_2">
      <!-- 20 -->
      <defs>
       <path d="
M19.1875 8.29688
L53.6094 8.29688
L53.6094 0
L7.32812 0
L7.32812 8.29688
Q12.9375 14.1094 22.625 23.8906
Q32.3281 33.6875 34.8125 36.5312
Q39.5469 41.8438 41.4219 45.5312
Q43.3125 49.2188 43.3125 52.7812
Q43.3125 58.5938 39.2344 62.25
Q35.1562 65.9219 28.6094 65.9219
Q23.9688 65.9219 18.8125 64.3125
Q13.6719 62.7031 7.8125 59.4219
L7.8125 69.3906
Q13.7656 71.7812 18.9375 73
Q24.125 74.2188 28.4219 74.2188
Q39.75 74.2188 46.4844 68.5469
Q53.2188 62.8906 53.2188 53.4219
Q53.2188 48.9219 51.5312 44.8906
Q49.8594 40.875 45.4062 35.4062
Q44.1875 33.9844 37.6406 27.2188
Q31.1094 20.4531 19.1875 8.29688" id="DejaVuSans-32"/>
      </defs>
      <g transform="translate(90.40625 272.589172078)scale(0.12 -0.12)">
       <use xlink:href="#DejaVuSans-32"/>
       <use x="63.623046875" xlink:href="#DejaVuSans-30"/>
      </g>
     </g>
    </g>
    <g id="ytick_3">
     <g id="line2d_13">
      <g>
       <use style="stroke:#000000;stroke-width:0.5;" x="108.0" xlink:href="#m728421d6d4" y="216.083116883"/>
      </g>
     </g>
     <g id="line2d_14">
      <g>
       <use style="stroke:#000000;stroke-width:0.5;" x="777.6" xlink:href="#mcb0005524f" y="216.083116883"/>
      </g>
     </g>
     <g id="text_3">
      <!-- 40 -->
      <defs>
       <path d="
M37.7969 64.3125
L12.8906 25.3906
L37.7969 25.3906
z

M35.2031 72.9062
L47.6094 72.9062
L47.6094 25.3906
L58.0156 25.3906
L58.0156 17.1875
L47.6094 17.1875
L47.6094 0
L37.7969 0
L37.7969 17.1875
L4.89062 17.1875
L4.89062 26.7031
z
" id="DejaVuSans-34"/>
      </defs>
      <g transform="translate(90.11375 219.394366883)scale(0.12 -0.12)">
       <use xlink:href="#DejaVuSans-34"/>
       <use x="63.623046875" xlink:href="#DejaVuSans-30"/>
      </g>
     </g>
    </g>
    <g id="ytick_4">
     <g id="line2d_15">
      <g>
       <use style="stroke:#000000;stroke-width:0.5;" x="108.0" xlink:href="#m728421d6d4" y="162.888311688"/>
      </g>
     </g>
     <g id="line2d_16">
      <g>
       <use style="stroke:#000000;stroke-width:0.5;" x="777.6" xlink:href="#mcb0005524f" y="162.888311688"/>
      </g>
     </g>
     <g id="text_4">
      <!-- 60 -->
      <defs>
       <path d="
M33.0156 40.375
Q26.375 40.375 22.4844 35.8281
Q18.6094 31.2969 18.6094 23.3906
Q18.6094 15.5312 22.4844 10.9531
Q26.375 6.39062 33.0156 6.39062
Q39.6562 6.39062 43.5312 10.9531
Q47.4062 15.5312 47.4062 23.3906
Q47.4062 31.2969 43.5312 35.8281
Q39.6562 40.375 33.0156 40.375
M52.5938 71.2969
L52.5938 62.3125
Q48.875 64.0625 45.0938 64.9844
Q41.3125 65.9219 37.5938 65.9219
Q27.8281 65.9219 22.6719 59.3281
Q17.5312 52.7344 16.7969 39.4062
Q19.6719 43.6562 24.0156 45.9219
Q28.375 48.1875 33.5938 48.1875
Q44.5781 48.1875 50.9531 41.5156
Q57.3281 34.8594 57.3281 23.3906
Q57.3281 12.1562 50.6875 5.35938
Q44.0469 -1.42188 33.0156 -1.42188
Q20.3594 -1.42188 13.6719 8.26562
Q6.98438 17.9688 6.98438 36.375
Q6.98438 53.6562 15.1875 63.9375
Q23.3906 74.2188 37.2031 74.2188
Q40.9219 74.2188 44.7031 73.4844
Q48.4844 72.75 52.5938 71.2969" id="DejaVuSans-36"/>
      </defs>
      <g transform="translate(90.365 166.199561688)scale(0.12 -0.12)">
       <use xlink:href="#DejaVuSans-36"/>
       <use x="63.623046875" xlink:href="#DejaVuSans-30"/>
      </g>
     </g>
    </g>
    <g id="ytick_5">
     <g id="line2d_17">
      <g>
       <use style="stroke:#000000;stroke-width:0.5;" x="108.0" xlink:href="#m728421d6d4" y="109.693506494"/>
      </g>
     </g>
     <g id="line2d_18">
      <g>
       <use style="stroke:#000000;stroke-width:0.5;" x="777.6" xlink:href="#mcb0005524f" y="109.693506494"/>
      </g>
     </g>
     <g id="text_5">
      <!-- 80 -->
      <defs>
       <path d="
M31.7812 34.625
Q24.75 34.625 20.7188 30.8594
Q16.7031 27.0938 16.7031 20.5156
Q16.7031 13.9219 20.7188 10.1562
Q24.75 6.39062 31.7812 6.39062
Q38.8125 6.39062 42.8594 10.1719
Q46.9219 13.9688 46.9219 20.5156
Q46.9219 27.0938 42.8906 30.8594
Q38.875 34.625 31.7812 34.625
M21.9219 38.8125
Q15.5781 40.375 12.0312 44.7188
Q8.5 49.0781 8.5 55.3281
Q8.5 64.0625 14.7188 69.1406
Q20.9531 74.2188 31.7812 74.2188
Q42.6719 74.2188 48.875 69.1406
Q55.0781 64.0625 55.0781 55.3281
Q55.0781 49.0781 51.5312 44.7188
Q48 40.375 41.7031 38.8125
Q48.8281 37.1562 52.7969 32.3125
Q56.7812 27.4844 56.7812 20.5156
Q56.7812 9.90625 50.3125 4.23438
Q43.8438 -1.42188 31.7812 -1.42188
Q19.7344 -1.42188 13.25 4.23438
Q6.78125 9.90625 6.78125 20.5156
Q6.78125 27.4844 10.7812 32.3125
Q14.7969 37.1562 21.9219 38.8125
M18.3125 54.3906
Q18.3125 48.7344 21.8438 45.5625
Q25.3906 42.3906 31.7812 42.3906
Q38.1406 42.3906 41.7188 45.5625
Q45.3125 48.7344 45.3125 54.3906
Q45.3125 60.0625 41.7188 63.2344
Q38.1406 66.4062 31.7812 66.4062
Q25.3906 66.4062 21.8438 63.2344
Q18.3125 60.0625 18.3125 54.3906" id="DejaVuSans-38"/>
      </defs>
      <g transform="translate(90.340625 113.004756494)scale(0.12 -0.12)">
       <use xlink:href="#DejaVuSans-38"/>
       <use x="63.623046875" xlink:href="#DejaVuSans-30"/>
      </g>
     </g>
    </g>
    <g id="ytick_6">
     <g id="line2d_19">
      <g>
       <use style="stroke:#000000;stroke-width:0.5;" x="108.0" xlink:href="#m728421d6d4" y="56.4987012987"/>
      </g>
     </g>
     <g id="line2d_20">
      <g>
       <use style="stroke:#000000;stroke-width:0.5;" x="777.6" xlink:href="#mcb0005524f" y="56.4987012987"/>
      </g>
     </g>
     <g id="text_6">
      <!-- 100 -->
      <defs>
       <path d="
M12.4062 8.29688
L28.5156 8.29688
L28.5156 63.9219
L10.9844 60.4062
L10.9844 69.3906
L28.4219 72.9062
L38.2812 72.9062
L38.2812 8.29688
L54.3906 8.29688
L54.3906 0
L12.4062 0
z
" id="DejaVuSans-31"/>
      </defs>
      <g transform="translate(83.21 59.8099512987)scale(0.12 -0.12)">
       <use xlink:href="#DejaVuSans-31"/>
       <use x="63.623046875" xlink:href="#DejaVuSans-30"/>
       <use x="127.24609375" xlink:href="#DejaVuSans-30"/>
      </g>
     </g>
    </g>
    <g id="text_7">
     <!-- Methylation -->
     <defs>
      <path d="
M9.8125 72.9062
L24.5156 72.9062
L43.1094 23.2969
L61.8125 72.9062
L76.5156 72.9062
L76.5156 0
L66.8906 0
L66.8906 64.0156
L48.0938 14.0156
L38.1875 14.0156
L19.3906 64.0156
L19.3906 0
L9.8125 0
z
" id="DejaVuSans-4d"/>
      <path d="
M30.6094 48.3906
Q23.3906 48.3906 19.1875 42.75
Q14.9844 37.1094 14.9844 27.2969
Q14.9844 17.4844 19.1562 11.8438
Q23.3438 6.20312 30.6094 6.20312
Q37.7969 6.20312 41.9844 11.8594
Q46.1875 17.5312 46.1875 27.2969
Q46.1875 37.0156 41.9844 42.7031
Q37.7969 48.3906 30.6094 48.3906
M30.6094 56
Q42.3281 56 49.0156 48.375
Q55.7188 40.7656 55.7188 27.2969
Q55.7188 13.875 49.0156 6.21875
Q42.3281 -1.42188 30.6094 -1.42188
Q18.8438 -1.42188 12.1719 6.21875
Q5.51562 13.875 5.51562 27.2969
Q5.51562 40.7656 12.1719 48.375
Q18.8438 56 30.6094 56" id="DejaVuSans-6f"/>
      <path d="
M54.8906 33.0156
L54.8906 0
L45.9062 0
L45.9062 32.7188
Q45.9062 40.4844 42.875 44.3281
Q39.8438 48.1875 33.7969 48.1875
Q26.5156 48.1875 22.3125 43.5469
Q18.1094 38.9219 18.1094 30.9062
L18.1094 0
L9.07812 0
L9.07812 54.6875
L18.1094 54.6875
L18.1094 46.1875
Q21.3438 51.125 25.7031 53.5625
Q30.0781 56 35.7969 56
Q45.2188 56 50.0469 50.1719
Q54.8906 44.3438 54.8906 33.0156" id="DejaVuSans-6e"/>
      <path d="
M9.42188 75.9844
L18.4062 75.9844
L18.4062 0
L9.42188 0
z
" id="DejaVuSans-6c"/>
      <path d="
M32.1719 -5.07812
Q28.375 -14.8438 24.75 -17.8125
Q21.1406 -20.7969 15.0938 -20.7969
L7.90625 -20.7969
L7.90625 -13.2812
L13.1875 -13.2812
Q16.8906 -13.2812 18.9375 -11.5156
Q21 -9.76562 23.4844 -3.21875
L25.0938 0.875
L2.98438 54.6875
L12.5 54.6875
L29.5938 11.9219
L46.6875 54.6875
L56.2031 54.6875
z
" id="DejaVuSans-79"/>
      <path d="
M54.8906 33.0156
L54.8906 0
L45.9062 0
L45.9062 32.7188
Q45.9062 40.4844 42.875 44.3281
Q39.8438 48.1875 33.7969 48.1875
Q26.5156 48.1875 22.3125 43.5469
Q18.1094 38.9219 18.1094 30.9062
L18.1094 0
L9.07812 0
L9.07812 75.9844
L18.1094 75.9844
L18.1094 46.1875
Q21.3438 51.125 25.7031 53.5625
Q30.0781 56 35.7969 56
Q45.2188 56 50.0469 50.1719
Q54.8906 44.3438 54.8906 33.0156" id="DejaVuSans-68"/>
      <path d="
M9.42188 54.6875
L18.4062 54.6875
L18.4062 0
L9.42188 0
z

M9.42188 75.9844
L18.4062 75.9844
L18.4062 64.5938
L9.42188 64.5938
z
" id="DejaVuSans-69"/>
      <path d="
M18.3125 70.2188
L18.3125 54.6875
L36.8125 54.6875
L36.8125 47.7031
L18.3125 47.7031
L18.3125 18.0156
Q18.3125 11.3281 20.1406 9.42188
Q21.9688 7.51562 27.5938 7.51562
L36.8125 7.51562
L36.8125 0
L27.5938 0
Q17.1875 0 13.2344 3.875
Q9.28125 7.76562 9.28125 18.0156
L9.28125 47.7031
L2.6875 47.7031
L2.6875 54.6875
L9.28125 54.6875
L9.28125 70.2188
z
" id="DejaVuSans-74"/>
      <path d="
M56.2031 29.5938
L56.2031 25.2031
L14.8906 25.2031
Q15.4844 15.9219 20.4844 11.0625
Q25.4844 6.20312 34.4219 6.20312
Q39.5938 6.20312 44.4531 7.46875
Q49.3125 8.73438 54.1094 11.2812
L54.1094 2.78125
Q49.2656 0.734375 44.1875 -0.34375
Q39.1094 -1.42188 33.8906 -1.42188
Q20.7969 -1.42188 13.1562 6.1875
Q5.51562 13.8125 5.51562 26.8125
Q5.51562 40.2344 12.7656 48.1094
Q20.0156 56 32.3281 56
Q43.3594 56 49.7812 48.8906
Q56.2031 41.7969 56.2031 29.5938
M47.2188 32.2344
Q47.125 39.5938 43.0938 43.9844
Q39.0625 48.3906 32.4219 48.3906
Q24.9062 48.3906 20.3906 44.1406
Q15.875 39.8906 15.1875 32.1719
z
" id="DejaVuSans-65"/>
      <path d="
M34.2812 27.4844
Q23.3906 27.4844 19.1875 25
Q14.9844 22.5156 14.9844 16.5
Q14.9844 11.7188 18.1406 8.90625
Q21.2969 6.10938 26.7031 6.10938
Q34.1875 6.10938 38.7031 11.4062
Q43.2188 16.7031 43.2188 25.4844
L43.2188 27.4844
z

M52.2031 31.2031
L52.2031 0
L43.2188 0
L43.2188 8.29688
Q40.1406 3.32812 35.5469 0.953125
Q30.9531 -1.42188 24.3125 -1.42188
Q15.9219 -1.42188 10.9531 3.29688
Q6 8.01562 6 15.9219
Q6 25.1406 12.1719 29.8281
Q18.3594 34.5156 30.6094 34.5156
L43.2188 34.5156
L43.2188 35.4062
Q43.2188 41.6094 39.1406 45
Q35.0625 48.3906 27.6875 48.3906
Q23 48.3906 18.5469 47.2656
Q14.1094 46.1406 10.0156 43.8906
L10.0156 52.2031
Q14.9375 54.1094 19.5781 55.0469
Q24.2188 56 28.6094 56
Q40.4844 56 46.3438 49.8438
Q52.2031 43.7031 52.2031 31.2031" id="DejaVuSans-61"/>
     </defs>
     <g transform="translate(75.714375 217.149801136)rotate(-90.0)scale(0.12 -0.12)">
      <use xlink:href="#DejaVuSans-4d"/>
      <use x="86.279296875" xlink:href="#DejaVuSans-65"/>
      <use x="147.802734375" xlink:href="#DejaVuSans-74"/>
      <use x="187.01171875" xlink:href="#DejaVuSans-68"/>
      <use x="250.390625" xlink:href="#DejaVuSans-79"/>
      <use x="309.5703125" xlink:href="#DejaVuSans-6c"/>
      <use x="337.353515625" xlink:href="#DejaVuSans-61"/>
      <use x="398.6328125" xlink:href="#DejaVuSans-74"/>
      <use x="437.841796875" xlink:href="#DejaVuSans-69"/>
      <use x="465.625" xlink:href="#DejaVuSans-6f"/>
      <use x="526.806640625" xlink:href="#DejaVuSans-6e"/>
     </g>
    </g>
   </g>
  </g>
  <g id="axes_2">
   <g id="patch_23">
    <path d="
M108 388.8
L777.6 388.8
L777.6 353.891
L108 353.891
z
" style="fill:#ffffff;"/>
   </g>
   <g id="line2d_21">
    <path clip-path="url(#pc82b1f09f0)" d="
M108 371.345
L777.6 371.345" style="fill:none;stroke:#000000;stroke-linecap:square;"/>
   </g>
   <g id="line2d_22">
    <path clip-path="url(#pc82b1f09f0)" d="
M117.099 371.345
L768.501 371.345" style="fill:none;stroke:#008000;stroke-linecap:square;stroke-width:3;"/>
   </g>
   <g id="patch_24">
    <path clip-path="url(#pc82b1f09f0)" d="
M117.099 388.8
L120.357 388.8
L120.357 353.891
L117.099 353.891
z
" style="fill:#008000;"/>
   </g>
   <g id="patch_25">
    <path clip-path="url(#pc82b1f09f0)" d="
M156.416 388.8
L157.381 388.8
L157.381 353.891
L156.416 353.891
z
" style="fill:#008000;"/>
   </g>
   <g id="patch_26">
    <path clip-path="url(#pc82b1f09f0)" d="
M319.462 388.8
L319.817 388.8
L319.817 353.891
L319.462 353.891
z
" style="fill:#008000;"/>
   </g>
   <g id="patch_27">
    <path clip-path="url(#pc82b1f09f0)" d="
M364.421 388.8
L365.14 388.8
L365.14 353.891
L364.421 353.891
z
" style="fill:#008000;"/>
   </g>
   <g id="patch_28">
    <path clip-path="url(#pc82b1f09f0)" d="
M407.113 388.8
L407.796 388.8
L407.796 353.891
L407.113 353.891
z
" style="fill:#008000;"/>
   </g>
   <g id="patch_29">
    <path clip-path="url(#pc82b1f09f0)" d="
M472.9 388.8
L473.737 388.8
L473.737 353.891
L472.9 353.891
z
" style="fill:#008000;"/>
   </g>
   <g id="patch_30">
    <path clip-path="url(#pc82b1f09f0)" d="
M495.338 388.8
L495.629 388.8
L495.629 353.891
L495.338 353.891
z
" style="fill:#008000;"/>
   </g>
   <g id="patch_31">
    <path clip-path="url(#pc82b1f09f0)" d="
M512.08 388.8
L512.936 388.8
L512.936 353.891
L512.08 353.891
z
" style="fill:#008000;"/>
   </g>
   <g id="patch_32">
    <path clip-path="url(#pc82b1f09f0)" d="
M581.606 388.8
L582.234 388.8
L582.234 353.891
L581.606 353.891
z
" style="fill:#008000;"/>
   </g>
   <g id="patch_33">
    <path clip-path="url(#pc82b1f09f0)" d="
M626.938 388.8
L627.657 388.8
L627.657 353.891
L626.938 353.891
z
" style="fill:#008000;"/>
   </g>
   <g id="patch_34">
    <path clip-path="url(#pc82b1f09f0)" d="
M650.195 388.8
L650.714 388.8
L650.714 353.891
L650.195 353.891
z
" style="fill:#008000;"/>
   </g>
   <g id="patch_35">
    <path clip-path="url(#pc82b1f09f0)" d="
M677.983 388.8
L679.321 388.8
L679.321 353.891
L677.983 353.891
z
" style="fill:#008000;"/>
   </g>
   <g id="patch_36">
    <path clip-path="url(#pc82b1f09f0)" d="
M683.716 388.8
L684.598 388.8
L684.598 353.891
L683.716 353.891
z
" style="fill:#008000;"/>
   </g>
   <g id="patch_37">
    <path clip-path="url(#pc82b1f09f0)" d="
M731.113 388.8
L731.75 388.8
L731.75 353.891
L731.113 353.891
z
" style="fill:#008000;"/>
   </g>
   <g id="patch_38">
    <path clip-path="url(#pc82b1f09f0)" d="
M748.956 388.8
L749.72 388.8
L749.72 353.891
L748.956 353.891
z
" style="fill:#008000;"/>
   </g>
   <g id="patch_39">
    <path clip-path="url(#pc82b1f09f0)" d="
M759.065 388.8
L768.501 388.8
L768.501 353.891
L759.065 353.891
z
" style="fill:#008000;"/>
   </g>
   <g id="patch_40">
    <path d="
M108 353.891
L777.6 353.891" style="fill:none;"/>
   </g>
   <g id="patch_41">
    <path d="
M777.6 388.8
L777.6 353.891" style="fill:none;"/>
   </g>
   <g id="patch_42">
    <path d="
M108 388.8
L777.6 388.8" style="fill:none;"/>
   </g>
   <g id="patch_43">
    <path d="
M108 388.8
L108 353.891" style="fill:none;"/>
   </g>
   <g id="matplotlib.axis_2">
    <g id="xtick_1">
     <g id="line2d_23">
      <defs>
       <path d="
M0 0
L0 -4" id="m93b0483c22" style="stroke:#000000;stroke-width:0.5;"/>
      </defs>
      <g>
       <use style="stroke:#000000;stroke-width:0.5;" x="161.029335508" xlink:href="#m93b0483c22" y="388.8"/>
      </g>
     </g>
     <g id="line2d_24">
      <defs>
       <path d="
M0 0
L0 4" id="m741efc42ff" style="stroke:#000000;stroke-width:0.5;"/>
      </defs>
      <g>
       <use style="stroke:#000000;stroke-width:0.5;" x="161.029335508" xlink:href="#m741efc42ff" y="353.890909091"/>
      </g>
     </g>
     <g id="text_8">
      <!-- 1000 -->
      <g transform="translate(146.816835508 401.918125)scale(0.12 -0.12)">
       <use xlink:href="#DejaVuSans-31"/>
       <use x="63.623046875" xlink:href="#DejaVuSans-30"/>
       <use x="127.24609375" xlink:href="#DejaVuSans-30"/>
       <use x="190.869140625" xlink:href="#DejaVuSans-30"/>
      </g>
     </g>
    </g>
    <g id="xtick_2">
     <g id="line2d_25">
      <g>
       <use style="stroke:#000000;stroke-width:0.5;" x="252.019959234" xlink:href="#m93b0483c22" y="388.8"/>
      </g>
     </g>
     <g id="line2d_26">
      <g>
       <use style="stroke:#000000;stroke-width:0.5;" x="252.019959234" xlink:href="#m741efc42ff" y="353.890909091"/>
      </g>
     </g>
     <g id="text_9">
      <!-- 2000 -->
      <g transform="translate(237.588084234 401.918125)scale(0.12 -0.12)">
       <use xlink:href="#DejaVuSans-32"/>
       <use x="63.623046875" xlink:href="#DejaVuSans-30"/>
       <use x="127.24609375" xlink:href="#DejaVuSans-30"/>
       <use x="190.869140625" xlink:href="#DejaVuSans-30"/>
      </g>
     </g>
    </g>
    <g id="xtick_3">
     <g id="line2d_27">
      <g>
       <use style="stroke:#000000;stroke-width:0.5;" x="343.01058296" xlink:href="#m93b0483c22" y="388.8"/>
      </g>
     </g>
     <g id="line2d_28">
      <g>
       <use style="stroke:#000000;stroke-width:0.5;" x="343.01058296" xlink:href="#m741efc42ff" y="353.890909091"/>
      </g>
     </g>
     <g id="text_10">
      <!-- 3000 -->
      <defs>
       <path d="
M40.5781 39.3125
Q47.6562 37.7969 51.625 33
Q55.6094 28.2188 55.6094 21.1875
Q55.6094 10.4062 48.1875 4.48438
Q40.7656 -1.42188 27.0938 -1.42188
Q22.5156 -1.42188 17.6562 -0.515625
Q12.7969 0.390625 7.625 2.20312
L7.625 11.7188
Q11.7188 9.32812 16.5938 8.10938
Q21.4844 6.89062 26.8125 6.89062
Q36.0781 6.89062 40.9375 10.5469
Q45.7969 14.2031 45.7969 21.1875
Q45.7969 27.6406 41.2812 31.2656
Q36.7656 34.9062 28.7188 34.9062
L20.2188 34.9062
L20.2188 43.0156
L29.1094 43.0156
Q36.375 43.0156 40.2344 45.9219
Q44.0938 48.8281 44.0938 54.2969
Q44.0938 59.9062 40.1094 62.9062
Q36.1406 65.9219 28.7188 65.9219
Q24.6562 65.9219 20.0156 65.0312
Q15.375 64.1562 9.8125 62.3125
L9.8125 71.0938
Q15.4375 72.6562 20.3438 73.4375
Q25.25 74.2188 29.5938 74.2188
Q40.8281 74.2188 47.3594 69.1094
Q53.9062 64.0156 53.9062 55.3281
Q53.9062 49.2656 50.4375 45.0938
Q46.9688 40.9219 40.5781 39.3125" id="DejaVuSans-33"/>
      </defs>
      <g transform="translate(328.59652046 401.918125)scale(0.12 -0.12)">
       <use xlink:href="#DejaVuSans-33"/>
       <use x="63.623046875" xlink:href="#DejaVuSans-30"/>
       <use x="127.24609375" xlink:href="#DejaVuSans-30"/>
       <use x="190.869140625" xlink:href="#DejaVuSans-30"/>
      </g>
     </g>
    </g>
    <g id="xtick_4">
     <g id="line2d_29">
      <g>
       <use style="stroke:#000000;stroke-width:0.5;" x="434.001206686" xlink:href="#m93b0483c22" y="388.8"/>
      </g>
     </g>
     <g id="line2d_30">
      <g>
       <use style="stroke:#000000;stroke-width:0.5;" x="434.001206686" xlink:href="#m741efc42ff" y="353.890909091"/>
      </g>
     </g>
     <g id="text_11">
      <!-- 4000 -->
      <g transform="translate(419.423081686 401.918125)scale(0.12 -0.12)">
       <use xlink:href="#DejaVuSans-34"/>
       <use x="63.623046875" xlink:href="#DejaVuSans-30"/>
       <use x="127.24609375" xlink:href="#DejaVuSans-30"/>
       <use x="190.869140625" xlink:href="#DejaVuSans-30"/>
      </g>
     </g>
    </g>
    <g id="xtick_5">
     <g id="line2d_31">
      <g>
       <use style="stroke:#000000;stroke-width:0.5;" x="524.991830412" xlink:href="#m93b0483c22" y="388.8"/>
      </g>
     </g>
     <g id="line2d_32">
      <g>
       <use style="stroke:#000000;stroke-width:0.5;" x="524.991830412" xlink:href="#m741efc42ff" y="353.890909091"/>
      </g>
     </g>
     <g id="text_12">
      <!-- 5000 -->
      <defs>
       <path d="
M10.7969 72.9062
L49.5156 72.9062
L49.5156 64.5938
L19.8281 64.5938
L19.8281 46.7344
Q21.9688 47.4688 24.1094 47.8281
Q26.2656 48.1875 28.4219 48.1875
Q40.625 48.1875 47.75 41.5
Q54.8906 34.8125 54.8906 23.3906
Q54.8906 11.625 47.5625 5.09375
Q40.2344 -1.42188 26.9062 -1.42188
Q22.3125 -1.42188 17.5469 -0.640625
Q12.7969 0.140625 7.71875 1.70312
L7.71875 11.625
Q12.1094 9.23438 16.7969 8.0625
Q21.4844 6.89062 26.7031 6.89062
Q35.1562 6.89062 40.0781 11.3281
Q45.0156 15.7656 45.0156 23.3906
Q45.0156 31 40.0781 35.4375
Q35.1562 39.8906 26.7031 39.8906
Q22.75 39.8906 18.8125 39.0156
Q14.8906 38.1406 10.7969 36.2812
z
" id="DejaVuSans-35"/>
      </defs>
      <g transform="translate(510.583392912 401.918125)scale(0.12 -0.12)">
       <use xlink:href="#DejaVuSans-35"/>
       <use x="63.623046875" xlink:href="#DejaVuSans-30"/>
       <use x="127.24609375" xlink:href="#DejaVuSans-30"/>
       <use x="190.869140625" xlink:href="#DejaVuSans-30"/>
      </g>
     </g>
    </g>
    <g id="xtick_6">
     <g id="line2d_33">
      <g>
       <use style="stroke:#000000;stroke-width:0.5;" x="615.982454138" xlink:href="#m93b0483c22" y="388.8"/>
      </g>
     </g>
     <g id="line2d_34">
      <g>
       <use style="stroke:#000000;stroke-width:0.5;" x="615.982454138" xlink:href="#m741efc42ff" y="353.890909091"/>
      </g>
     </g>
     <g id="text_13">
      <!-- 6000 -->
      <g transform="translate(601.529954138 401.918125)scale(0.12 -0.12)">
       <use xlink:href="#DejaVuSans-36"/>
       <use x="63.623046875" xlink:href="#DejaVuSans-30"/>
       <use x="127.24609375" xlink:href="#DejaVuSans-30"/>
       <use x="190.869140625" xlink:href="#DejaVuSans-30"/>
      </g>
     </g>
    </g>
    <g id="xtick_7">
     <g id="line2d_35">
      <g>
       <use style="stroke:#000000;stroke-width:0.5;" x="706.973077864" xlink:href="#m93b0483c22" y="388.8"/>
      </g>
     </g>
     <g id="line2d_36">
      <g>
       <use style="stroke:#000000;stroke-width:0.5;" x="706.973077864" xlink:href="#m741efc42ff" y="353.890909091"/>
      </g>
     </g>
     <g id="text_14">
      <!-- 7000 -->
      <defs>
       <path d="
M8.20312 72.9062
L55.0781 72.9062
L55.0781 68.7031
L28.6094 0
L18.3125 0
L43.2188 64.5938
L8.20312 64.5938
z
" id="DejaVuSans-37"/>
      </defs>
      <g transform="translate(692.593702864 401.918125)scale(0.12 -0.12)">
       <use xlink:href="#DejaVuSans-37"/>
       <use x="63.623046875" xlink:href="#DejaVuSans-30"/>
       <use x="127.24609375" xlink:href="#DejaVuSans-30"/>
       <use x="190.869140625" xlink:href="#DejaVuSans-30"/>
      </g>
     </g>
    </g>
    <g id="text_15">
     <!-- Length (bp) -->
     <defs>
      <path d="
M9.8125 72.9062
L19.6719 72.9062
L19.6719 8.29688
L55.1719 8.29688
L55.1719 0
L9.8125 0
z
" id="DejaVuSans-4c"/>
      <path id="DejaVuSans-20"/>
      <path d="
M45.4062 27.9844
Q45.4062 37.75 41.375 43.1094
Q37.3594 48.4844 30.0781 48.4844
Q22.8594 48.4844 18.8281 43.1094
Q14.7969 37.75 14.7969 27.9844
Q14.7969 18.2656 18.8281 12.8906
Q22.8594 7.51562 30.0781 7.51562
Q37.3594 7.51562 41.375 12.8906
Q45.4062 18.2656 45.4062 27.9844
M54.3906 6.78125
Q54.3906 -7.17188 48.1875 -13.9844
Q42 -20.7969 29.2031 -20.7969
Q24.4688 -20.7969 20.2656 -20.0938
Q16.0625 -19.3906 12.1094 -17.9219
L12.1094 -9.1875
Q16.0625 -11.3281 19.9219 -12.3438
Q23.7812 -13.375 27.7812 -13.375
Q36.625 -13.375 41.0156 -8.76562
Q45.4062 -4.15625 45.4062 5.17188
L45.4062 9.625
Q42.625 4.78125 38.2812 2.39062
Q33.9375 0 27.875 0
Q17.8281 0 11.6719 7.65625
Q5.51562 15.3281 5.51562 27.9844
Q5.51562 40.6719 11.6719 48.3281
Q17.8281 56 27.875 56
Q33.9375 56 38.2812 53.6094
Q42.625 51.2188 45.4062 46.3906
L45.4062 54.6875
L54.3906 54.6875
z
" id="DejaVuSans-67"/>
      <path d="
M31 75.875
Q24.4688 64.6562 21.2812 53.6562
Q18.1094 42.6719 18.1094 31.3906
Q18.1094 20.125 21.3125 9.0625
Q24.5156 -2 31 -13.1875
L23.1875 -13.1875
Q15.875 -1.70312 12.2344 9.375
Q8.59375 20.4531 8.59375 31.3906
Q8.59375 42.2812 12.2031 53.3125
Q15.8281 64.3594 23.1875 75.875
z
" id="DejaVuSans-28"/>
      <path d="
M8.01562 75.875
L15.8281 75.875
Q23.1406 64.3594 26.7812 53.3125
Q30.4219 42.2812 30.4219 31.3906
Q30.4219 20.4531 26.7812 9.375
Q23.1406 -1.70312 15.8281 -13.1875
L8.01562 -13.1875
Q14.5 -2 17.7031 9.0625
Q20.9062 20.125 20.9062 31.3906
Q20.9062 42.6719 17.7031 53.6562
Q14.5 64.6562 8.01562 75.875" id="DejaVuSans-29"/>
      <path d="
M48.6875 27.2969
Q48.6875 37.2031 44.6094 42.8438
Q40.5312 48.4844 33.4062 48.4844
Q26.2656 48.4844 22.1875 42.8438
Q18.1094 37.2031 18.1094 27.2969
Q18.1094 17.3906 22.1875 11.75
Q26.2656 6.10938 33.4062 6.10938
Q40.5312 6.10938 44.6094 11.75
Q48.6875 17.3906 48.6875 27.2969
M18.1094 46.3906
Q20.9531 51.2656 25.2656 53.625
Q29.5938 56 35.5938 56
Q45.5625 56 51.7812 48.0938
Q58.0156 40.1875 58.0156 27.2969
Q58.0156 14.4062 51.7812 6.48438
Q45.5625 -1.42188 35.5938 -1.42188
Q29.5938 -1.42188 25.2656 0.953125
Q20.9531 3.32812 18.1094 8.20312
L18.1094 0
L9.07812 0
L9.07812 75.9844
L18.1094 75.9844
z
" id="DejaVuSans-62"/>
      <path d="
M18.1094 8.20312
L18.1094 -20.7969
L9.07812 -20.7969
L9.07812 54.6875
L18.1094 54.6875
L18.1094 46.3906
Q20.9531 51.2656 25.2656 53.625
Q29.5938 56 35.5938 56
Q45.5625 56 51.7812 48.0938
Q58.0156 40.1875 58.0156 27.2969
Q58.0156 14.4062 51.7812 6.48438
Q45.5625 -1.42188 35.5938 -1.42188
Q29.5938 -1.42188 25.2656 0.953125
Q20.9531 3.32812 18.1094 8.20312
M48.6875 27.2969
Q48.6875 37.2031 44.6094 42.8438
Q40.5312 48.4844 33.4062 48.4844
Q26.2656 48.4844 22.1875 42.8438
Q18.1094 37.2031 18.1094 27.2969
Q18.1094 17.3906 22.1875 11.75
Q26.2656 6.10938 33.4062 6.10938
Q40.5312 6.10938 44.6094 11.75
Q48.6875 17.3906 48.6875 27.2969" id="DejaVuSans-70"/>
     </defs>
     <g transform="translate(408.4125 418.531875)scale(0.12 -0.12)">
      <use xlink:href="#DejaVuSans-4c"/>
      <use x="53.962890625" xlink:href="#DejaVuSans-65"/>
      <use x="115.486328125" xlink:href="#DejaVuSans-6e"/>
      <use x="178.865234375" xlink:href="#DejaVuSans-67"/>
      <use x="242.341796875" xlink:href="#DejaVuSans-74"/>
      <use x="281.55078125" xlink:href="#DejaVuSans-68"/>
      <use x="344.9296875" xlink:href="#DejaVuSans-20"/>
      <use x="376.716796875" xlink:href="#DejaVuSans-28"/>
      <use x="415.73046875" xlink:href="#DejaVuSans-62"/>
      <use x="479.20703125" xlink:href="#DejaVuSans-70"/>
      <use x="542.68359375" xlink:href="#DejaVuSans-29"/>
     </g>
     <!-- chr6:40325172-40396762 -->
     <defs>
      <path d="
M11.7188 12.4062
L22.0156 12.4062
L22.0156 0
L11.7188 0
z

M11.7188 51.7031
L22.0156 51.7031
L22.0156 39.3125
L11.7188 39.3125
z
" id="DejaVuSans-3a"/>
      <path d="
M10.9844 1.51562
L10.9844 10.5
Q14.7031 8.73438 18.5 7.8125
Q22.3125 6.89062 25.9844 6.89062
Q35.75 6.89062 40.8906 13.4531
Q46.0469 20.0156 46.7812 33.4062
Q43.9531 29.2031 39.5938 26.9531
Q35.25 24.7031 29.9844 24.7031
Q19.0469 24.7031 12.6719 31.3125
Q6.29688 37.9375 6.29688 49.4219
Q6.29688 60.6406 12.9375 67.4219
Q19.5781 74.2188 30.6094 74.2188
Q43.2656 74.2188 49.9219 64.5156
Q56.5938 54.8281 56.5938 36.375
Q56.5938 19.1406 48.4062 8.85938
Q40.2344 -1.42188 26.4219 -1.42188
Q22.7031 -1.42188 18.8906 -0.6875
Q15.0938 0.046875 10.9844 1.51562
M30.6094 32.4219
Q37.25 32.4219 41.125 36.9531
Q45.0156 41.5 45.0156 49.4219
Q45.0156 57.2812 41.125 61.8438
Q37.25 66.4062 30.6094 66.4062
Q23.9688 66.4062 20.0938 61.8438
Q16.2188 57.2812 16.2188 49.4219
Q16.2188 41.5 20.0938 36.9531
Q23.9688 32.4219 30.6094 32.4219" id="DejaVuSans-39"/>
      <path d="
M48.7812 52.5938
L48.7812 44.1875
Q44.9688 46.2969 41.1406 47.3438
Q37.3125 48.3906 33.4062 48.3906
Q24.6562 48.3906 19.8125 42.8438
Q14.9844 37.3125 14.9844 27.2969
Q14.9844 17.2812 19.8125 11.7344
Q24.6562 6.20312 33.4062 6.20312
Q37.3125 6.20312 41.1406 7.25
Q44.9688 8.29688 48.7812 10.4062
L48.7812 2.09375
Q45.0156 0.34375 40.9844 -0.53125
Q36.9688 -1.42188 32.4219 -1.42188
Q20.0625 -1.42188 12.7812 6.34375
Q5.51562 14.1094 5.51562 27.2969
Q5.51562 40.6719 12.8594 48.3281
Q20.2188 56 33.0156 56
Q37.1562 56 41.1094 55.1406
Q45.0625 54.2969 48.7812 52.5938" id="DejaVuSans-63"/>
      <path d="
M4.89062 31.3906
L31.2031 31.3906
L31.2031 23.3906
L4.89062 23.3906
z
" id="DejaVuSans-2d"/>
      <path d="
M41.1094 46.2969
Q39.5938 47.1719 37.8125 47.5781
Q36.0312 48 33.8906 48
Q26.2656 48 22.1875 43.0469
Q18.1094 38.0938 18.1094 28.8125
L18.1094 0
L9.07812 0
L9.07812 54.6875
L18.1094 54.6875
L18.1094 46.1875
Q20.9531 51.1719 25.4844 53.5781
Q30.0312 56 36.5312 56
Q37.4531 56 38.5781 55.875
Q39.7031 55.7656 41.0625 55.5156
z
" id="DejaVuSans-72"/>
     </defs>
     <g transform="translate(365.0803125 431.96925)scale(0.12 -0.12)">
      <use xlink:href="#DejaVuSans-63"/>
      <use x="54.98046875" xlink:href="#DejaVuSans-68"/>
      <use x="118.359375" xlink:href="#DejaVuSans-72"/>
      <use x="159.47265625" xlink:href="#DejaVuSans-36"/>
      <use x="223.095703125" xlink:href="#DejaVuSans-3a"/>
      <use x="256.787109375" xlink:href="#DejaVuSans-34"/>
      <use x="320.41015625" xlink:href="#DejaVuSans-30"/>
      <use x="384.033203125" xlink:href="#DejaVuSans-33"/>
      <use x="447.65625" xlink:href="#DejaVuSans-32"/>
      <use x="511.279296875" xlink:href="#DejaVuSans-35"/>
      <use x="574.90234375" xlink:href="#DejaVuSans-31"/>
      <use x="638.525390625" xlink:href="#DejaVuSans-37"/>
      <use x="702.1484375" xlink:href="#DejaVuSans-32"/>
      <use x="765.771484375" xlink:href="#DejaVuSans-2d"/>
      <use x="801.85546875" xlink:href="#DejaVuSans-34"/>
      <use x="865.478515625" xlink:href="#DejaVuSans-30"/>
      <use x="929.1015625" xlink:href="#DejaVuSans-33"/>
      <use x="992.724609375" xlink:href="#DejaVuSans-39"/>
      <use x="1056.34765625" xlink:href="#DejaVuSans-36"/>
      <use x="1119.97070312" xlink:href="#DejaVuSans-37"/>
      <use x="1183.59375" xlink:href="#DejaVuSans-36"/>
      <use x="1247.21679688" xlink:href="#DejaVuSans-32"/>
     </g>
    </g>
   </g>
  </g>
  <g id="text_16">
   <!-- ENSMUST00000031977 (Agk) -->
   <defs>
    <path d="
M9.8125 72.9062
L23.0938 72.9062
L55.4219 11.9219
L55.4219 72.9062
L64.9844 72.9062
L64.9844 0
L51.7031 0
L19.3906 60.9844
L19.3906 0
L9.8125 0
z
" id="DejaVuSans-4e"/>
    <path d="
M9.07812 75.9844
L18.1094 75.9844
L18.1094 31.1094
L44.9219 54.6875
L56.3906 54.6875
L27.3906 29.1094
L57.625 0
L45.9062 0
L18.1094 26.7031
L18.1094 0
L9.07812 0
z
" id="DejaVuSans-6b"/>
    <path d="
M9.8125 72.9062
L55.9062 72.9062
L55.9062 64.5938
L19.6719 64.5938
L19.6719 43.0156
L54.3906 43.0156
L54.3906 34.7188
L19.6719 34.7188
L19.6719 8.29688
L56.7812 8.29688
L56.7812 0
L9.8125 0
z
" id="DejaVuSans-45"/>
    <path d="
M34.1875 63.1875
L20.7969 26.9062
L47.6094 26.9062
z

M28.6094 72.9062
L39.7969 72.9062
L67.5781 0
L57.3281 0
L50.6875 18.7031
L17.8281 18.7031
L11.1875 0
L0.78125 0
z
" id="DejaVuSans-41"/>
    <path d="
M53.5156 70.5156
L53.5156 60.8906
Q47.9062 63.5781 42.9219 64.8906
Q37.9375 66.2188 33.2969 66.2188
Q25.25 66.2188 20.875 63.0938
Q16.5 59.9688 16.5 54.2031
Q16.5 49.3594 19.4062 46.8906
Q22.3125 44.4375 30.4219 42.9219
L36.375 41.7031
Q47.4062 39.5938 52.6562 34.2969
Q57.9062 29 57.9062 20.125
Q57.9062 9.51562 50.7969 4.04688
Q43.7031 -1.42188 29.9844 -1.42188
Q24.8125 -1.42188 18.9688 -0.25
Q13.1406 0.921875 6.89062 3.21875
L6.89062 13.375
Q12.8906 10.0156 18.6562 8.29688
Q24.4219 6.59375 29.9844 6.59375
Q38.4219 6.59375 43.0156 9.90625
Q47.6094 13.2344 47.6094 19.3906
Q47.6094 24.75 44.3125 27.7812
Q41.0156 30.8125 33.5 32.3281
L27.4844 33.5
Q16.4531 35.6875 11.5156 40.375
Q6.59375 45.0625 6.59375 53.4219
Q6.59375 63.0938 13.4062 68.6562
Q20.2188 74.2188 32.1719 74.2188
Q37.3125 74.2188 42.625 73.2812
Q47.9531 72.3594 53.5156 70.5156" id="DejaVuSans-53"/>
    <path d="
M8.6875 72.9062
L18.6094 72.9062
L18.6094 28.6094
Q18.6094 16.8906 22.8438 11.7344
Q27.0938 6.59375 36.625 6.59375
Q46.0938 6.59375 50.3438 11.7344
Q54.5938 16.8906 54.5938 28.6094
L54.5938 72.9062
L64.5 72.9062
L64.5 27.3906
Q64.5 13.1406 57.4375 5.85938
Q50.3906 -1.42188 36.625 -1.42188
Q22.7969 -1.42188 15.7344 5.85938
Q8.6875 13.1406 8.6875 27.3906
z
" id="DejaVuSans-55"/>
    <path d="
M-0.296875 72.9062
L61.375 72.9062
L61.375 64.5938
L35.5 64.5938
L35.5 0
L25.5938 0
L25.5938 64.5938
L-0.296875 64.5938
z
" id="DejaVuSans-54"/>
   </defs>
   <g transform="translate(343.415625 17.758125)scale(0.12 -0.12)">
    <use xlink:href="#DejaVuSans-45"/>
    <use x="63.18359375" xlink:href="#DejaVuSans-4e"/>
    <use x="137.98828125" xlink:href="#DejaVuSans-53"/>
    <use x="201.46484375" xlink:href="#DejaVuSans-4d"/>
    <use x="287.744140625" xlink:href="#DejaVuSans-55"/>
    <use x="360.9375" xlink:href="#DejaVuSans-53"/>
    <use x="424.4140625" xlink:href="#DejaVuSans-54"/>
    <use x="485.498046875" xlink:href="#DejaVuSans-30"/>
    <use x="549.12109375" xlink:href="#DejaVuSans-30"/>
    <use x="612.744140625" xlink:href="#DejaVuSans-30"/>
    <use x="676.3671875" xlink:href="#DejaVuSans-30"/>
    <use x="739.990234375" xlink:href="#DejaVuSans-30"/>
    <use x="803.61328125" xlink:href="#DejaVuSans-30"/>
    <use x="867.236328125" xlink:href="#DejaVuSans-33"/>
    <use x="930.859375" xlink:href="#DejaVuSans-31"/>
    <use x="994.482421875" xlink:href="#DejaVuSans-39"/>
    <use x="1058.10546875" xlink:href="#DejaVuSans-37"/>
    <use x="1121.72851562" xlink:href="#DejaVuSans-37"/>
    <use x="1185.3515625" xlink:href="#DejaVuSans-20"/>
    <use x="1217.13867188" xlink:href="#DejaVuSans-28"/>
    <use x="1256.15234375" xlink:href="#DejaVuSans-41"/>
    <use x="1324.56054688" xlink:href="#DejaVuSans-67"/>
    <use x="1388.03710938" xlink:href="#DejaVuSans-6b"/>
    <use x="1445.94726562" xlink:href="#DejaVuSans-29"/>
   </g>
  </g>
 </g>
 <defs>
  <clipPath id="p9fd4257182">
   <rect height="279.272727273" width="669.6" x="108.0" y="43.2"/>
  </clipPath>
  <clipPath id="pc82b1f09f0">
   <rect height="34.9090909091" width="669.6" x="108.0" y="353.890909091"/>
  </clipPath>
 </defs>
</svg>
