<?xml version="1.0" encoding="utf-8" standalone="no"?>
<!DOCTYPE svg PUBLIC "-//W3C//DTD SVG 1.1//EN"
  "http://www.w3.org/Graphics/SVG/1.1/DTD/svg11.dtd">
<!-- Created with matplotlib (http://matplotlib.org/) -->
<svg height="432pt" version="1.1" viewBox="0 0 864 432" width="864pt" xmlns="http://www.w3.org/2000/svg" xmlns:xlink="http://www.w3.org/1999/xlink">
 <defs>
  <style type="text/css">
*{stroke-linecap:butt;stroke-linejoin:round;}
  </style>
 </defs>
 <g id="figure_1">
  <g id="patch_1">
   <path d="
M0 432
L864 432
L864 0
L0 0
z
" style="fill:#ffffff;"/>
  </g>
  <g id="axes_1">
   <g id="patch_2">
    <path d="
M108 322.473
L777.6 322.473
L777.6 43.2
L108 43.2
z
" style="fill:#ffffff;"/>
   </g>
   <g id="patch_3">
    <path clip-path="url(#p9fd4257182)" d="
M730.762 322.473
L746.437 322.473
L746.437 43.2
L730.762 43.2
z
" style="fill:#008000;opacity:0.2;"/>
   </g>
   <g id="patch_4">
    <path clip-path="url(#p9fd4257182)" d="
M666.815 322.473
L668.685 322.473
L668.685 43.2
L666.815 43.2
z
" style="fill:#008000;opacity:0.2;"/>
   </g>
   <g id="patch_5">
    <path clip-path="url(#p9fd4257182)" d="
M572.578 322.473
L574.199 322.473
L574.199 43.2
L572.578 43.2
z
" style="fill:#008000;opacity:0.2;"/>
   </g>
   <g id="patch_6">
    <path clip-path="url(#p9fd4257182)" d="
M543.846 322.473
L545.622 322.473
L545.622 43.2
L543.846 43.2
z
" style="fill:#008000;opacity:0.2;"/>
   </g>
   <g id="patch_7">
    <path clip-path="url(#p9fd4257182)" d="
M428.294 322.473
L430.475 322.473
L430.475 43.2
L428.294 43.2
z
" style="fill:#008000;opacity:0.2;"/>
   </g>
   <g id="patch_8">
    <path clip-path="url(#p9fd4257182)" d="
M335.303 322.473
L338.825 322.473
L338.825 43.2
L335.303 43.2
z
" style="fill:#008000;opacity:0.2;"/>
   </g>
   <g id="patch_9">
    <path clip-path="url(#p9fd4257182)" d="
M246.146 322.473
L247.548 322.473
L247.548 43.2
L246.146 43.2
z
" style="fill:#008000;opacity:0.2;"/>
   </g>
   <g id="patch_10">
    <path clip-path="url(#p9fd4257182)" d="
M189.491 322.473
L191.797 322.473
L191.797 43.2
L189.491 43.2
z
" style="fill:#008000;opacity:0.2;"/>
   </g>
   <g id="patch_11">
    <path clip-path="url(#p9fd4257182)" d="
M139.163 322.473
L147.764 322.473
L147.764 43.2
L139.163 43.2
z
" style="fill:#008000;opacity:0.2;"/>
   </g>
   <g id="line2d_1">
    <path clip-path="url(#p9fd4257182)" d="
M116.414 61.4085
L117.816 67.8227
L117.848 68.0261
L121.681 128.474
L121.992 136.826
L134.457 302.032
L145.738 75.0713
L150.725 58.2827
L150.88 58.2134
L167.459 93.5578
L169.89 94.2806
L170.326 92.1847
L173.661 76.2653
L175.53 71.1175
L175.935 70.4219
L176.714 69.5289
L180.454 76.8204
L182.293 98.948
L205.447 57.9872
L209.747 58.1161
L225.298 62.7922
L229.536 66.2346
L235.021 71.591
L236.142 72.4385
L259.733 56.499
L264.625 56.5003
L270.951 59.1512
L273.538 98.6202
L273.943 101.421
L274.909 94.4314
L276.405 70.3326
L277.028 63.9377
L277.465 61.1717
L278.431 58.6424
L280.113 57.6536
L284.102 57.44
L286.408 57.5843
L290.023 58.2506
L292.953 59.4146
L308.815 57.0583
L312.523 57.0694
L316.076 57.6923
L317.447 59.6956
L320.843 154.756
L327.263 270.547
L328.136 246.428
L337.017 74.9069
L337.391 70.8385
L338.139 65.2829
L342.346 58.0325
L344.278 57.5895
L347.363 57.3856
L364.472 56.4987
L367.058 56.7051
L367.463 57.3217
L369.115 122.106
L369.364 154.051
L372.138 312.287
L376.376 121.425
L381.549 65.3077
L382.796 64.2266
L382.827 64.2111
L384.073 63.9464
L391.552 74.5303
L391.926 75.5881
L394.98 87.071
L397.349 99.404
L397.38 99.5783
L400.559 116.475
L416.389 89.716
L418.54 90.7234
L421.812 84.7221
L422.217 82.7996
L425.146 65.7738
L428.013 58.8104
L429.042 58.1394
L429.447 57.9923
L430.163 57.8547
L440.478 56.5245
L441.164 56.7308
L441.382 57.009
L442.099 61.9291
L443.003 111.948
L449.858 281.5
L449.89 280.704
L451.23 228.872
L467.559 56.5329
L469.086 56.6413
L470.706 57.1055
L471.984 58.1371
L472.763 59.4398
L473.916 63.6375
L478.03 100.958
L480.274 89.1254
L481.769 78.4246
L483.733 70.7896
L484.262 69.8993
L485.821 69.1765
L489.996 70.2954
L497.351 91.739
L506.014 57.436
L506.295 57.3383
L509.66 57.3118
L514.117 57.4558
L517.015 57.1893
L517.046 57.1916
L518.355 57.5549
L519.258 58.5453
L520.474 62.91
L521.346 71.2146
L524.868 128.22
L525.865 129.821
L530.446 64.6808
L562.513 57.2599
L564.757 57.0663
L584.171 56.8226
L594.174 57.7541
L595.701 58.1745
L602.246 69.1068
L607.699 110.258
L610.971 158.582
L612.966 192.633
L615.615 231.57
L618.7 260.551
L623.935 277.608
L627.083 275.776
L629.825 256.479
L633.004 183.582
L634.749 134.544
L635.933 109.288
L637.024 92.5573
L639.766 70.5518
L654.413 57.1591
L658.838 57.2539
L660.178 57.3982
L664.696 58.5503
L670.929 65.0947
L672.799 70.4686
L674.575 78.7964
L675.635 85.8948
L678.283 127.987
L683.051 243.691
L688.069 76.5949
L689.346 60.6552
L690.188 58.0474
L691.465 56.9546
L694.675 56.5856
L698.384 56.5749
L702.279 58.6697
L703.619 75.6519
L706.579 158.52
L712.313 250.346
L715.025 299.021
L718.203 321.511
L719.294 322.049
L723.937 321.642
L732.476 321.525
L733.909 321.246
L735.249 320.641
L735.873 320.359
L737.15 320.126
L738.179 320.218
L739.114 320.5
L740.672 321.279
L741.108 321.407
L742.261 321.438
L744.287 321.072
L746.281 321.971
L747.247 321.96
L747.777 321.776
L748.774 320.624
L749.117 319.598
L749.522 317.325
L752.545 143.331
L753.885 96.4484
L756.409 94.1776
L757.001 104.343
L760.647 156.788
L762.05 183.015
L763.826 195.82
L770.401 113.513
L775.2 85.8378
L775.668 85.2646
L775.668 85.2646" style="fill:none;opacity:0.5;stroke:#0000ff;stroke-linecap:square;"/>
   </g>
   <g id="line2d_2">
    <path clip-path="url(#p9fd4257182)" d="
M116.414 87.4634
L117.848 91.207
L121.992 104.469
L134.426 107.515
L142.778 59.5542
L167.459 56.5763
L169.983 58.1445
L170.326 58.8211
L173.661 85.4267
L175.53 117.3
L175.935 122.403
L176.714 126.79
L180.454 63.8117
L182.293 56.7711
L186.344 56.4987
L198.186 71.1461
L199.744 80.1546
L205.447 124.51
L211.305 105.269
L225.298 60.8724
L229.536 58.5912
L230.907 58.2808
L232.34 58.0896
L235.021 58.0363
L236.142 58.1397
L259.733 104.067
L261.945 105.357
L270.92 86.2621
L270.951 85.8221
L273.538 65.7598
L274.878 64.5657
L275.408 64.4289
L275.844 64.5376
L277.465 65.5395
L278.462 67.0252
L280.113 69.8323
L281.796 70.7074
L282.201 70.7556
L284.102 68.7625
L286.408 62.8028
L289.182 58.2587
L290.023 57.5839
L292.953 56.6373
L308.815 60.076
L311.183 60.0471
L312.523 59.98
L316.076 60.0252
L320.843 65.1026
L327.263 117.599
L328.136 120.394
L329.912 106.143
L337.017 58.6887
L338.108 58.1864
L338.139 58.1763
L342.346 57.9313
L344.278 58.5117
L346.366 60.3014
L347.332 62.0715
L351.165 78.432
L353.502 86.0535
L364.347 75.6886
L364.472 75.4967
L367.463 71.4519
L369.364 69.5908
L376.376 62.9626
L381.549 64.3431
L382.422 66.5717
L382.796 67.9872
L384.042 75.6839
L391.241 213.76
L391.552 214.419
L391.926 213.708
L394.98 179.263
L397.38 136.419
L400.559 93.8274
L402.023 83.6191
L402.865 79.9147
L403.737 77.0558
L416.389 58.5369
L418.54 58.0962
L422.248 57.9132
L425.177 57.9665
L430.163 57.8279
L442.099 57.1078
L443.003 57.1056
L449.89 57.9055
L451.23 58.3418
L467.559 71.8263
L467.59 71.7208
L469.086 66.386
L470.706 63.6431
L471.984 62.8587
L472.763 62.7125
L473.916 62.8107
L477.999 85.3088
L480.274 66.6656
L481.769 60.2662
L483.733 57.4026
L484.262 57.0709
L485.821 56.665
L497.351 56.676
L506.295 56.8872
L509.66 63.8244
L514.085 82.1746
L514.117 82.0246
L517.015 66.2151
L517.046 66.1025
L518.355 63.9332
L519.258 63.8321
L521.346 62.6969
L522.499 60.6888
L523.808 57.6822
L524.868 57.0913
L525.896 56.7245
L530.446 56.5957
L545.498 59.2065
L557.527 57.9732
L562.513 57.2525
L564.757 57.1022
L570.646 57.2871
L582.021 60.8613
L584.171 63.0214
L594.174 88.5074
L595.701 93.3159
L602.246 115.434
L607.699 148.862
L611.002 187.326
L612.997 206.139
L615.615 224.818
L618.7 229.81
L620.85 252.169
L621.442 266.69
L623.935 317.871
L627.083 322.017
L629.825 319.314
L634.749 119.798
L635.652 111.137
L635.933 109.762
L637.024 105.334
L639.766 90.1971
L647.806 78.2653
L654.413 71.9015
L658.838 74.1293
L660.178 77.2534
L664.696 101.41
L670.929 235.691
L672.799 253.755
L674.575 238.852
L675.666 204.515
L678.315 81.5763
L683.02 57.1361
L688.037 60.8779
L688.069 61.0452
L690.188 75.9926
L691.465 80.7424
L694.644 79.8956
L694.706 79.7509
L697.355 76.1623
L697.48 76.2523
L698.384 77.7787
L702.279 93.5421
L703.588 104.239
L710.942 251.294
L712.313 284.96
L715.025 316.718
L718.203 321.687
L719.294 321.899
L722.878 321.413
L727.833 321.445
L732.881 321.992
L734.844 321.994
L739.114 321.78
L741.108 322.123
L742.261 321.962
L743.85 320.219
L744.287 318.922
L745.097 316.612
L745.564 316.135
L745.97 316.218
L747.777 317.611
L748.805 317.236
L749.366 316.293
L749.522 315.878
L752.545 251.745
L753.885 146.772
L756.409 78.0445
L757.001 78.4062
L760.647 77.4299
L762.05 80.8329
L764.605 84.3699
L770.401 106.372
L775.2 98.4268
L775.668 94.9666
L775.668 94.9666" style="fill:none;opacity:0.5;stroke:#ff0000;stroke-linecap:square;"/>
   </g>
   <g id="line2d_3">
    <path clip-path="url(#p9fd4257182)" d="
M116.414 57.5645
L121.992 57.4971
L142.778 57.8444
L150.849 58.25
L167.459 64.7433
L170.014 70.388
L170.326 71.3806
L173.661 93.1559
L175.935 129.709
L176.714 135.788
L180.454 62.6337
L182.293 56.6008
L186.344 56.4988
L199.744 56.6692
L205.447 57.2464
L209.747 60.2635
L219.813 79.6951
L225.298 89.3931
L229.536 83.0146
L232.34 76.5233
L235.021 71.2368
L236.142 69.5012
L259.733 72.5008
L261.945 153.369
L270.92 57.0983
L270.951 57.1018
L273.538 58.7915
L273.943 60.5402
L274.909 62.3696
L275.844 61.5158
L276.405 61.6793
L277.028 62.6186
L278.462 65.8496
L280.113 70.3057
L281.796 59.4678
L282.201 58.1356
L284.102 57.15
L286.377 56.7166
L286.408 56.7157
L289.182 57.152
L290.023 57.8501
L292.953 120.424
L308.815 59.3889
L310.03 59.5572
L311.183 59.9438
L312.523 60.7128
L316.076 65.2078
L317.447 68.2486
L320.843 78.8632
L327.232 113.732
L328.104 115.376
L329.881 111.485
L337.017 60.4371
L337.391 60.3211
L338.139 60.2434
L342.346 68.8528
L344.247 70.9649
L344.278 70.8986
L346.366 63.2866
L347.363 60.1713
L351.165 57.4239
L353.502 56.9863
L364.441 56.9996
L367.463 57.4509
L369.364 58.224
L372.138 62.0791
L376.345 74.4104
L376.376 74.3416
L381.518 70.1401
L381.549 70.3031
L382.453 77.0275
L382.827 81.1673
L384.042 101.36
L391.21 240.589
L391.521 236.924
L391.895 230.561
L394.98 107.798
L396.196 72.3282
L397.38 60.9991
L400.559 56.9759
L402.865 56.709
L416.389 56.7997
L418.54 56.9346
L422.217 57.983
L422.248 58.001
L425.146 60.3524
L428.013 64.4705
L429.042 67.5181
L429.447 68.9436
L430.163 70.7557
L440.478 63.6223
L441.382 65.431
L442.099 68.0885
L443.003 73.6024
L449.858 96.0179
L449.89 95.2812
L451.23 68.5001
L467.559 56.6072
L469.055 57.82
L470.706 65.4308
L472.763 84.2929
L473.885 85.4589
L473.916 85.3286
L478.03 60.255
L480.274 57.9678
L481.769 57.5833
L485.384 57.3659
L485.821 57.3689
L490.028 58.1817
L492.147 61.9473
L497.351 87.1365
L509.66 58.6306
L514.117 59.1233
L516.578 60.5911
L517.046 61.0492
L518.355 63.156
L520.474 65.8687
L521.346 65.308
L522.499 60.3026
L523.684 56.9102
L523.839 56.7794
L524.868 56.5145
L525.865 56.5002
L545.467 56.5008
L562.513 58.9892
L564.757 65.2572
L582.021 112.757
L584.171 111.868
L594.174 107.056
L595.701 105.02
L602.246 95.9004
L607.699 101.987
L611.002 116.558
L612.997 133.819
L615.615 172.033
L618.7 225.417
L620.85 252.546
L621.442 262.646
L623.935 298.53
L627.083 316.587
L629.825 321.724
L633.004 172.839
L634.749 102.077
L635.621 97.9034
L635.652 97.92
L635.933 98.4621
L637.024 105.342
L639.766 131.728
L647.806 161.59
L654.413 71.164
L658.807 63.7866
L658.838 63.8089
L660.178 65.5328
L664.696 93.2545
L670.929 192.625
L672.799 202.784
L674.575 201.489
L675.666 195.966
L678.315 169.682
L683.051 197.949
L688.069 70.131
L689.346 59.7522
L690.188 58.1322
L691.465 57.633
L694.644 62.7518
L694.706 63.0932
L698.415 127.639
L702.279 153.504
L703.619 189.488
L706.611 258.011
L710.942 288.944
L712.313 294.949
L715.025 312.486
L718.203 321.023
L719.294 321.416
L723.937 321.546
L730.544 321.972
L738.428 321.856
L741.108 321.901
L742.261 321.981
L743.882 321.699
L744.287 321.439
L745.097 320.459
L746.281 318.228
L747.216 318.963
L747.777 319.578
L748.65 319.344
L749.117 318.334
L749.522 316.826
L752.545 252.994
L753.885 174.501
L756.409 108.77
L757.001 104.617
L760.647 103.601
L763.826 97.3839
L764.605 96.4335
L770.401 78.8945
L775.2 68.1845
L775.668 67.8422
L775.668 67.8422" style="fill:none;opacity:0.5;stroke:#ff0000;stroke-linecap:square;"/>
   </g>
   <g id="line2d_4">
    <path clip-path="url(#p9fd4257182)" d="
M116.383 58.3334
L116.414 58.3737
L117.848 61.3934
L121.681 97.1043
L121.992 103.003
L134.426 290.005
L142.778 208.414
L145.738 135.278
L147.452 104.089
L167.459 56.4987
L170.326 56.5082
L173.629 61.095
L173.661 61.3423
L175.53 98.9861
L175.935 110.618
L176.714 128.973
L180.454 94.4771
L182.293 66.4768
L186.344 56.6848
L198.186 57.7678
L205.447 62.8082
L225.266 178.722
L225.298 177.837
L229.536 79.629
L230.907 67.2393
L232.34 61.022
L235.021 57.332
L236.142 56.9083
L259.733 58.6321
L270.951 57.091
L277.465 57.1242
L278.462 56.8944
L280.113 56.7912
L281.796 57.98
L282.201 59.2833
L284.071 76.6488
L284.102 76.6185
L285.723 75.5894
L285.754 75.6765
L289.182 77.7889
L290.023 81.522
L292.953 107.841
L308.783 103.331
L310.03 83.7453
L311.183 72.2545
L312.523 66.1404
L316.076 62.3298
L317.447 63.5244
L320.843 71.7219
L328.136 106.895
L329.912 113.41
L336.986 105.154
L338.108 99.3178
L342.346 77.2936
L344.278 69.2216
L346.366 62.9917
L347.363 60.9457
L351.165 57.5531
L353.502 57.0922
L364.472 57.0779
L372.138 57.8323
L376.376 60.4225
L381.549 77.355
L382.453 85.5829
L382.827 90.2097
L384.073 112.043
L387.501 204.229
L391.241 229.836
L391.552 225.259
L391.926 217.886
L394.98 126.218
L396.196 96.0243
L397.38 77.5499
L400.527 60.6077
L403.737 58.1729
L416.389 83.5422
L418.54 84.9562
L421.812 80.9011
L422.217 79.5638
L425.177 66.7884
L428.013 60.3936
L429.042 59.3795
L430.163 58.6565
L441.351 57.8212
L442.971 57.8753
L449.89 58.6494
L451.23 59.1362
L467.559 79.7591
L469.055 79.0359
L470.706 76.732
L472.763 72.2338
L473.916 69.3691
L477.999 60.699
L480.274 58.365
L481.769 57.6739
L484.262 57.2814
L485.821 57.3525
L489.996 58.2057
L492.178 58.0486
L497.351 57.1694
L506.295 56.9469
L509.66 57.7275
L514.117 62.364
L516.578 66.981
L517.046 68.2718
L518.355 72.5354
L519.258 73.2228
L520.474 68.4314
L521.346 62.8452
L522.468 57.9967
L523.808 56.6624
L525.865 56.6569
L530.446 57.3035
L562.513 57.3551
L564.757 57.5579
L570.646 57.446
L584.171 56.8087
L595.701 57.1986
L602.246 58.8284
L607.699 67.6843
L610.971 110.878
L612.997 158.17
L615.615 196.729
L618.7 209.365
L620.85 221.438
L621.442 229.921
L623.935 307.07
L627.083 321.067
L629.825 321.214
L633.004 229.841
L634.749 127.242
L635.652 118.632
L635.933 118.271
L637.024 118.774
L639.766 102.217
L644.659 86.5392
L645.344 83.729
L647.806 75.7191
L654.413 67.7811
L658.838 74.3314
L660.178 79.4172
L664.696 111.846
L670.929 198.064
L674.544 230.77
L675.635 231.9
L678.283 201.848
L688.037 72.7847
L688.069 72.8462
L689.346 76.817
L690.188 81.1408
L691.465 90.6649
L694.675 124.934
L697.511 148.317
L698.415 151.447
L702.279 162.06
L703.619 174.793
L706.611 229.549
L710.942 267.674
L712.313 272.623
L715.025 304.38
L718.203 321.78
L719.294 322.12
L722.878 320.775
L726.742 321.854
L727.833 321.968
L739.114 321.823
L740.485 320.838
L741.108 319.879
L741.794 318.632
L742.261 317.381
L743.882 312.867
L744.287 313.565
L745.564 319.496
L745.97 320.531
L746.281 321.01
L747.216 321.418
L747.777 321.261
L748.65 320.211
L748.805 319.8
L749.117 318.535
L749.522 315.226
L752.545 226.303
L753.885 150.405
L756.409 115.118
L757.001 126.554
L760.647 143.246
L762.05 148.314
L763.826 147.033
L764.605 144.4
L770.401 115.98
L775.668 89.7399
L775.668 89.7399" style="fill:none;opacity:0.5;stroke:#ff0000;stroke-linecap:square;"/>
   </g>
   <g id="line2d_5">
    <path clip-path="url(#p9fd4257182)" d="
M116.383 61.5924
L116.414 61.6443
L117.848 64.5396
L121.681 78.361
L121.992 79.9247
L134.426 161.726
L142.778 186.361
L150.88 180.857
L167.459 58.026
L170.326 57.7564
L173.661 64.1742
L175.53 86.1948
L176.714 105.833
L180.454 142.602
L182.293 141.313
L186.344 110.755
L205.447 58.4069
L209.747 58.6557
L211.305 59.1219
L219.813 62.8
L225.298 67.8533
L229.536 75.607
L232.34 82.572
L236.142 92.2466
L259.733 59.5299
L261.945 58.3283
L264.594 58.0318
L270.951 59.1721
L273.538 71.3088
L273.943 71.0785
L274.909 66.9614
L275.844 62.2783
L276.405 60.4118
L277.028 59.157
L277.465 58.6393
L278.462 57.7016
L280.113 57.1503
L282.201 57.8835
L284.102 57.6798
L285.754 57.7265
L286.408 58.4403
L289.182 64.7451
L289.712 64.675
L290.023 64.423
L292.953 58.5203
L308.783 103.594
L308.815 102.767
L310.03 78.2417
L311.183 66.4885
L312.523 60.6297
L316.076 57.355
L317.447 57.3275
L320.843 58.9923
L327.232 85.9172
L328.104 88.6876
L329.881 90.8293
L342.346 82.0805
L346.366 85.6069
L347.363 91.3031
L351.165 135.115
L353.502 151.295
L364.16 75.8978
L364.472 75.9477
L367.058 82.4295
L367.463 84.3355
L369.364 95.0879
L372.138 189.089
L376.376 71.112
L381.549 56.5912
L384.042 56.5221
L387.532 56.5938
L391.241 57.806
L391.926 58.3085
L394.98 65.0765
L396.196 74.2738
L397.38 91.9254
L400.559 188.407
L416.389 64.4931
L418.54 59.7245
L421.812 57.774
L422.217 57.6885
L425.177 57.5265
L428.013 58.4994
L429.042 59.4524
L429.447 59.9823
L430.163 61.2049
L440.447 75.093
L442.099 67.651
L443.003 64.42
L449.89 57.1595
L451.23 57.1596
L467.559 57.7409
L469.086 57.6056
L470.706 57.6299
L472.763 58.0106
L473.916 58.5024
L478.03 69.795
L480.242 81.7682
L480.274 81.7275
L483.733 60.7219
L484.262 59.2585
L485.384 57.7129
L485.821 57.4778
L492.178 57.1501
L497.351 57.3151
L506.295 57.3067
L509.66 58.277
L514.117 61.7801
L516.578 76.0869
L517.015 76.7239
L517.046 76.6715
L518.355 66.0756
L519.258 60.4608
L520.474 58.2092
L521.346 57.7455
L522.499 57.4411
L524.868 57.4423
L525.865 57.4559
L530.446 57.6807
L564.757 56.7746
L582.021 57.7708
L584.171 58.2615
L594.174 66.6004
L595.701 69.4153
L602.246 88.8646
L610.971 167.846
L612.997 202.938
L615.615 239.732
L618.7 268.36
L621.286 282.896
L621.442 283.585
L623.935 299.027
L627.083 307.57
L629.825 303.28
L633.004 259.554
L635.933 127.766
L637.024 95.486
L639.735 67.367
L644.69 58.4986
L645.375 58.0815
L647.806 57.1758
L654.413 56.7539
L658.838 57.9108
L660.178 59.4133
L664.696 77.1949
L670.898 66.7117
L672.768 62.0532
L674.544 60.0172
L675.635 59.5294
L678.283 61.4981
L683.02 124.149
L688.037 107.929
L688.069 106.074
L689.346 63.1778
L690.188 57.9111
L691.465 56.6751
L694.706 56.6153
L697.511 57.9875
L698.415 58.8501
L702.279 91.3839
L703.619 144.587
L706.579 206.922
L712.282 235.173
L718.203 314.79
L719.294 318.669
L722.878 321.547
L723.937 321.098
L727.552 321.334
L727.833 321.368
L731.198 321.522
L733.909 321.947
L735.873 322.099
L736.527 322.036
L737.244 321.782
L738.428 320.802
L739.114 320.235
L740.672 319.611
L741.794 319.295
L742.261 319.088
L744.287 317.798
L745.097 316.097
L746.281 310.998
L747.06 309.969
L747.528 311.255
L747.777 312.128
L748.805 315.044
L749.117 315.393
L749.366 315.419
L749.522 315.299
L752.545 283.319
L753.885 212.398
L756.409 108.683
L757.001 105.899
L760.647 103.266
L762.05 111.207
L763.826 114.199
L764.605 112.595
L770.401 88.9948
L775.169 78.1077
L775.637 77.8999
L775.637 77.8999" style="fill:none;opacity:0.5;stroke:#0000ff;stroke-linecap:square;"/>
   </g>
   <g id="line2d_6">
    <path clip-path="url(#p9fd4257182)" d="
M116.414 56.5073
L121.649 72.977
L121.992 80.5407
L134.426 318.263
L134.457 318.224
L142.778 73.7795
L145.738 58.009
L147.452 56.9987
L150.849 56.6096
L164.904 56.6084
L167.459 57.0589
L169.983 62.8631
L170.326 64.8003
L173.661 100.631
L175.499 112.661
L175.53 112.687
L175.935 112.507
L176.714 109.765
L180.454 80.1996
L182.293 69.2381
L186.344 59.5071
L199.744 58.739
L205.447 58.2551
L209.747 59.6651
L211.305 61.297
L212.708 63.6593
L225.266 79.1075
L225.298 79.051
L230.907 66.7358
L232.34 64.0559
L235.021 60.387
L236.142 59.3447
L259.733 57.8107
L270.951 57.8159
L273.943 56.9865
L275.844 56.9209
L276.405 57.0495
L277.028 57.5621
L277.465 58.6672
L278.462 63.3475
L280.113 72.7452
L281.796 80.1277
L282.201 81.2514
L284.102 91.491
L285.723 90.5811
L285.754 90.2702
L286.408 82.3531
L289.182 57.7557
L289.992 56.8624
L290.023 56.8446
L292.953 56.4997
L310.03 56.6079
L311.183 57.183
L316.076 64.9434
L317.447 65.5855
L320.843 71.1779
L327.263 103.821
L328.136 102.463
L329.881 89.095
L336.986 59.0778
L337.36 58.9892
L338.108 58.9349
L342.346 61.4429
L344.278 66.1725
L346.366 79.1976
L347.363 91.0386
L351.165 169.567
L353.471 206.288
L364.347 104.35
L364.472 102.75
L367.058 81.8967
L367.463 80.4088
L369.115 78.2741
L369.364 78.5106
L372.138 100.706
L376.345 160.93
L376.376 160.573
L381.549 87.7512
L382.827 82.9836
L384.042 79.4801
L391.241 184.656
L391.926 225.317
L394.949 159.433
L396.196 92.7885
L397.38 75.7091
L400.527 83.4158
L402.023 91.2254
L402.865 93.3592
L403.737 93.9946
L416.389 89.3871
L418.54 81.2038
L421.812 72.3685
L422.217 71.6181
L425.177 68.3961
L428.013 79.9457
L429.042 92.3149
L429.447 99.0268
L430.163 113.656
L440.447 96.6961
L441.164 86.2918
L441.382 83.7448
L442.099 77.1191
L443.003 71.8204
L449.89 106.05
L451.23 128.269
L467.559 64.8954
L467.59 64.9232
L469.086 67.7902
L470.706 64.3465
L471.984 60.5294
L472.763 59.0799
L473.916 57.9789
L478.03 57.25
L483.733 57.2672
L485.821 57.3727
L497.351 61.0833
L505.983 68.5885
L506.014 68.5153
L506.295 67.9488
L509.66 57.8126
L514.117 56.8024
L516.298 58.1698
L516.578 58.5694
L517.046 59.5193
L519.258 70.5505
L520.474 69.4177
L521.346 64.8566
L522.499 59.7129
L523.839 57.3351
L524.899 56.9185
L525.896 56.6989
L530.446 56.6477
L545.498 59.142
L582.021 79.1513
L584.171 78.3592
L594.174 74.3832
L595.701 74.938
L612.997 233.052
L615.615 280.831
L618.7 307.081
L620.85 313.19
L621.442 313.976
L623.935 318.059
L627.083 319.548
L629.825 313.744
L633.004 208.23
L634.749 132.382
L635.933 110.577
L637.024 99.0764
L639.766 80.4497
L647.401 58.0369
L647.806 57.6607
L654.413 56.5619
L660.178 56.5423
L664.665 60.1279
L664.696 60.3542
L670.929 320.454
L672.799 321.001
L674.575 318.442
L675.635 308.511
L678.283 91.9217
L683.02 56.6621
L691.465 57.2606
L694.706 60.5511
L697.511 72.6812
L702.279 97.7915
L706.611 219.024
L710.911 240.915
L710.942 240.751
L712.313 235.373
L715.025 271.552
L718.203 318.736
L719.294 320.976
L722.878 322.058
L723.937 321.809
L726.742 319.714
L727.833 319.508
L730.544 318.175
L731.354 317.895
L731.853 317.582
L732.476 317.484
L733.037 318.043
L733.598 319.201
L734.221 320.338
L734.844 321.09
L735.53 321.548
L736.184 321.735
L737.15 321.691
L739.114 321.319
L742.261 321.517
L744.287 321.466
L747.247 321.812
L747.777 321.725
L748.805 321.323
L749.522 320.695
L752.545 283.628
L753.885 183.692
L756.409 91.1834
L757.001 98.3328
L760.647 132.887
L762.05 157.816
L763.826 169.22
L764.605 167.264
L770.401 119.065
L775.2 89.0846
L775.637 87.3021
L775.637 87.3021" style="fill:none;opacity:0.5;stroke:#ff0000;stroke-linecap:square;"/>
   </g>
   <g id="line2d_7">
    <path clip-path="url(#p9fd4257182)" d="
M116.383 56.7729
L117.848 57.0928
L121.681 61.607
L121.992 62.6059
L134.426 276.224
L164.873 56.4994
L173.661 56.503
L175.406 59.0928
L175.53 60.0678
L175.935 65.4356
L176.714 88.3594
L180.423 127.407
L180.454 126.691
L182.293 82.227
L186.344 57.0805
L199.744 57.6581
L205.447 57.7726
L211.274 58.5756
L212.677 59.1402
L217.258 62.0152
L219.813 63.8886
L225.298 67.692
L229.536 67.5446
L230.907 66.5922
L232.34 65.2061
L236.142 60.8244
L259.733 57.0683
L261.945 57.645
L263.192 58.2418
L270.92 66.7854
L273.507 70.7738
L273.538 70.7471
L273.943 70.4478
L274.909 70.8806
L275.408 72.5789
L275.844 74.7879
L276.405 78.0738
L277.028 80.9364
L277.465 81.3337
L278.462 77.4975
L280.113 69.6718
L281.796 64.7045
L282.201 64.2611
L284.102 83.8505
L285.723 95.6182
L286.408 77.074
L289.182 56.6147
L290.023 56.5189
L292.921 56.4987
L308.815 56.6625
L310.03 57.7186
L311.183 61.0772
L312.523 67.8913
L316.076 68.7707
L317.447 66.3742
L320.843 66.7234
L327.263 109.268
L328.136 121.052
L329.912 140.002
L337.36 120.769
L338.108 113.692
L342.346 78.7111
L344.278 70.1593
L346.366 65.1551
L347.363 63.8162
L351.165 59.2854
L353.502 57.3908
L364.16 57.8364
L364.472 58.1398
L367.058 69.4877
L367.463 75.3957
L369.115 141.884
L372.138 292.491
L376.376 215.791
L381.549 75.6721
L382.422 76.33
L382.796 77.3361
L384.042 84.0786
L391.241 176.103
L391.552 172.752
L391.926 166.887
L394.98 82.5034
L396.196 64.3393
L397.38 58.2868
L401.992 56.4993
L403.706 56.4987
L416.389 57.7161
L418.54 58.6135
L422.217 63.1714
L425.146 71.3584
L428.013 79.7583
L428.668 80.6065
L429.042 80.7818
L429.447 80.692
L430.163 79.789
L440.478 57.1957
L442.099 57.0516
L443.003 57.0263
L451.23 57.3418
L467.59 56.8602
L469.086 58.2254
L470.706 63.5092
L472.763 74.9849
L473.916 78.2492
L478.03 61.1445
L480.274 58.4137
L481.738 57.7368
L484.262 57.3098
L485.821 57.3626
L492.178 58.1585
L497.351 66.8523
L505.983 116.518
L506.295 109.81
L509.66 59.422
L514.117 56.7815
L519.258 57.1139
L520.474 57.3263
L521.346 57.6613
L522.499 58.3117
L523.808 58.3013
L525.865 57.7964
L530.446 57.1888
L545.467 58.2028
L564.757 56.9795
L584.171 56.7284
L594.174 57.1654
L595.701 57.3672
L602.246 71.8962
L607.699 168.767
L611.002 240.494
L612.997 254.418
L615.615 255.981
L618.7 242.8
L620.819 235.58
L620.85 235.693
L621.442 239.677
L623.935 301.59
L627.083 318.863
L629.825 308.524
L633.004 175.777
L634.749 123.989
L635.621 119.652
L635.652 119.689
L635.933 120.583
L637.024 134.046
L639.735 165.273
L639.766 164.82
L654.413 70.8961
L658.838 72.3451
L660.178 73.9077
L664.696 81.5513
L670.929 96.4531
L672.799 97.3323
L674.575 93.2739
L675.666 88.2925
L678.315 74.9734
L683.051 60.6778
L688.069 57.121
L689.346 57.5462
L690.188 58.1061
L691.434 59.7055
L697.511 77.0157
L698.415 80.841
L702.279 120.95
L703.619 138.732
L706.611 182.535
L710.942 228.472
L712.313 233.035
L715.025 257.546
L718.203 293.998
L719.294 312.834
L722.878 322.442
L723.937 322.371
L726.742 322.009
L727.552 321.128
L727.646 320.822
L727.833 319.828
L729.578 313.547
L729.609 313.725
L730.544 317.812
L731.853 320.664
L732.476 321.427
L733.255 321.825
L733.909 321.901
L735.53 321.814
L737.244 321.792
L742.261 321.821
L743.882 321.015
L744.287 320.488
L745.564 317.834
L746.281 316.279
L747.06 315.481
L747.528 315.495
L747.777 315.553
L748.805 315.557
L749.117 315.3
L749.522 314.606
L752.545 279.255
L753.885 227.89
L756.409 148.841
L757.001 143.214
L760.647 122.085
L762.05 122.909
L763.826 122.493
L764.605 121.691
L770.401 114.922
L775.169 106.66
L775.2 106.71
L775.668 107.953
L775.668 107.953" style="fill:none;opacity:0.5;stroke:#0000ff;stroke-linecap:square;"/>
   </g>
   <g id="line2d_8">
    <path clip-path="url(#p9fd4257182)" d="
M116.414 57.6296
L121.992 57.4875
L142.778 58.0847
L150.88 59.8287
L167.459 76.738
L170.014 78.9057
L170.326 79.4405
L173.661 87.4925
L175.935 95.7858
L176.714 97.9463
L180.454 81.983
L182.293 69.7815
L186.344 59.0537
L198.186 58.4559
L199.744 58.2418
L205.447 57.7936
L212.708 59.6452
L225.298 71.4437
L229.536 76.6633
L230.907 77.5462
L232.34 77.7097
L235.021 75.5492
L236.142 73.7293
L259.733 57.5819
L270.951 56.5237
L273.538 57.0272
L273.943 57.5267
L274.909 63.4885
L275.844 73.5632
L276.405 76.0337
L277.465 76.8135
L278.462 74.3579
L280.082 71.0308
L280.113 71.0789
L281.796 78.7404
L282.17 79.3627
L282.201 79.3427
L284.102 65.9777
L285.754 59.0631
L286.408 57.9463
L289.182 57.0544
L290.023 57.1256
L292.953 58.4187
L308.783 57.3288
L311.183 57.9069
L312.523 58.4885
L316.076 62.0445
L317.447 64.9369
L320.843 79.001
L327.232 113.076
L328.104 109.534
L329.881 94.7874
L336.986 61.7491
L337.391 61.5814
L338.139 61.6561
L342.346 75.0887
L344.278 90.791
L346.335 98.3911
L346.366 98.3062
L347.363 91.8629
L351.134 70.5574
L353.502 73.6621
L364.16 88.7616
L364.472 90.4324
L367.432 122.012
L369.364 147.5
L372.138 194.809
L376.376 130.453
L381.549 69.2516
L382.453 69.3075
L382.827 69.9031
L384.073 74.496
L391.552 157.288
L391.926 151.456
L394.98 89.0043
L396.196 73.4283
L397.38 64.9106
L400.559 57.8532
L402.023 57.2054
L402.865 57.0337
L416.358 81.3978
L418.508 89.0932
L421.812 96.6097
L422.217 96.2464
L425.146 82.4058
L428.013 69.7955
L429.042 67.3353
L429.447 66.5755
L430.163 65.4743
L443.003 67.651
L449.89 77.5588
L451.23 79.7537
L467.59 56.5823
L469.086 58.1001
L470.706 67.7205
L471.984 73.1743
L472.763 71.0809
L473.916 64.3699
L478.03 57.9693
L485.821 57.6403
L490.028 58.3659
L492.178 58.1961
L497.351 59.1223
L505.983 71.4713
L506.014 71.4369
L506.295 71.215
L509.66 65.5821
L514.117 64.0046
L516.578 69.5042
L517.046 70.2979
L518.355 70.8378
L519.258 70.1616
L520.474 69.9333
L522.499 74.138
L523.839 68.9944
L524.868 63.9468
L525.865 60.185
L530.446 56.6309
L545.498 57.8484
L557.527 58.2862
L564.757 58.107
L570.646 58.5411
L582.021 61.3326
L584.171 62.3045
L594.174 69.1763
L595.701 70.6673
L602.246 82.328
L607.699 122.767
L610.971 174.477
L612.997 204.095
L615.615 229.629
L618.7 246.721
L620.85 250.28
L621.442 249.977
L623.935 247.099
L627.083 228.047
L629.825 198.079
L633.004 113.266
L634.749 72.3773
L635.652 62.9878
L635.933 61.2689
L637.024 57.7683
L639.735 56.6294
L654.413 58.8129
L658.838 65.7848
L660.178 71.0834
L664.696 109.458
L670.898 151.011
L670.929 150.708
L672.799 119.043
L674.575 79.926
L675.666 65.0734
L678.315 58.1059
L690.188 58.1652
L691.465 58.2167
L694.706 57.4857
L697.511 57.1435
L698.384 57.4204
L702.279 82.0104
L703.619 153.119
L706.611 188.542
L710.911 195.056
L710.942 195.482
L712.313 220.44
L715.025 300.841
L718.203 322.258
L719.294 322.398
L722.878 321.339
L726.742 321.689
L733.722 321.654
L735.343 321.378
L737.244 320.875
L738.397 320.551
L739.114 320.585
L741.108 321.25
L742.261 321.419
L743.882 321.349
L744.287 321.207
L745.097 320.605
L745.814 319.534
L746.281 318.437
L749.117 308.568
L749.522 306.442
L752.545 265.734
L753.885 163.504
L756.409 86.9233
L757.001 85.6884
L760.647 88.1871
L762.05 91.6116
L763.826 90.0189
L770.37 67.2632
L775.2 59.0738
L775.668 58.7023
L775.668 58.7023" style="fill:none;opacity:0.5;stroke:#0000ff;stroke-linecap:square;"/>
   </g>
   <g id="patch_12">
    <path d="
M108 43.2
L777.6 43.2" style="fill:none;stroke:#000000;stroke-linecap:square;stroke-linejoin:miter;"/>
   </g>
   <g id="patch_13">
    <path d="
M777.6 322.473
L777.6 43.2" style="fill:none;stroke:#000000;stroke-linecap:square;stroke-linejoin:miter;"/>
   </g>
   <g id="patch_14">
    <path d="
M108 322.473
L777.6 322.473" style="fill:none;stroke:#000000;stroke-linecap:square;stroke-linejoin:miter;"/>
   </g>
   <g id="patch_15">
    <path d="
M108 322.473
L108 43.2" style="fill:none;stroke:#000000;stroke-linecap:square;stroke-linejoin:miter;"/>
   </g>
   <g id="matplotlib.axis_1">
    <g id="ytick_1">
     <g id="line2d_9">
      <defs>
       <path d="
M0 0
L4 0" id="m728421d6d4" style="stroke:#000000;stroke-width:0.5;"/>
      </defs>
      <g>
       <use style="stroke:#000000;stroke-width:0.5;" x="108.0" xlink:href="#m728421d6d4" y="322.472727273"/>
      </g>
     </g>
     <g id="line2d_10">
      <defs>
       <path d="
M0 0
L-4 0" id="mcb0005524f" style="stroke:#000000;stroke-width:0.5;"/>
      </defs>
      <g>
       <use style="stroke:#000000;stroke-width:0.5;" x="777.6" xlink:href="#mcb0005524f" y="322.472727273"/>
      </g>
     </g>
     <g id="text_1">
      <!-- 0 -->
      <defs>
       <path d="
M31.7812 66.4062
Q24.1719 66.4062 20.3281 58.9062
Q16.5 51.4219 16.5 36.375
Q16.5 21.3906 20.3281 13.8906
Q24.1719 6.39062 31.7812 6.39062
Q39.4531 6.39062 43.2812 13.8906
Q47.125 21.3906 47.125 36.375
Q47.125 51.4219 43.2812 58.9062
Q39.4531 66.4062 31.7812 66.4062
M31.7812 74.2188
Q44.0469 74.2188 50.5156 64.5156
Q56.9844 54.8281 56.9844 36.375
Q56.9844 17.9688 50.5156 8.26562
Q44.0469 -1.42188 31.7812 -1.42188
Q19.5312 -1.42188 13.0625 8.26562
Q6.59375 17.9688 6.59375 36.375
Q6.59375 54.8281 13.0625 64.5156
Q19.5312 74.2188 31.7812 74.2188" id="DejaVuSans-30"/>
      </defs>
      <g transform="translate(97.953125 325.783977273)scale(0.12 -0.12)">
       <use xlink:href="#DejaVuSans-30"/>
      </g>
     </g>
    </g>
    <g id="ytick_2">
     <g id="line2d_11">
      <g>
       <use style="stroke:#000000;stroke-width:0.5;" x="108.0" xlink:href="#m728421d6d4" y="269.277922078"/>
      </g>
     </g>
     <g id="line2d_12">
      <g>
       <use style="stroke:#000000;stroke-width:0.5;" x="777.6" xlink:href="#mcb0005524f" y="269.277922078"/>
      </g>
     </g>
     <g id="text_2">
      <!-- 20 -->
      <defs>
       <path d="
M19.1875 8.29688
L53.6094 8.29688
L53.6094 0
L7.32812 0
L7.32812 8.29688
Q12.9375 14.1094 22.625 23.8906
Q32.3281 33.6875 34.8125 36.5312
Q39.5469 41.8438 41.4219 45.5312
Q43.3125 49.2188 43.3125 52.7812
Q43.3125 58.5938 39.2344 62.25
Q35.1562 65.9219 28.6094 65.9219
Q23.9688 65.9219 18.8125 64.3125
Q13.6719 62.7031 7.8125 59.4219
L7.8125 69.3906
Q13.7656 71.7812 18.9375 73
Q24.125 74.2188 28.4219 74.2188
Q39.75 74.2188 46.4844 68.5469
Q53.2188 62.8906 53.2188 53.4219
Q53.2188 48.9219 51.5312 44.8906
Q49.8594 40.875 45.4062 35.4062
Q44.1875 33.9844 37.6406 27.2188
Q31.1094 20.4531 19.1875 8.29688" id="DejaVuSans-32"/>
      </defs>
      <g transform="translate(90.40625 272.589172078)scale(0.12 -0.12)">
       <use xlink:href="#DejaVuSans-32"/>
       <use x="63.623046875" xlink:href="#DejaVuSans-30"/>
      </g>
     </g>
    </g>
    <g id="ytick_3">
     <g id="line2d_13">
      <g>
       <use style="stroke:#000000;stroke-width:0.5;" x="108.0" xlink:href="#m728421d6d4" y="216.083116883"/>
      </g>
     </g>
     <g id="line2d_14">
      <g>
       <use style="stroke:#000000;stroke-width:0.5;" x="777.6" xlink:href="#mcb0005524f" y="216.083116883"/>
      </g>
     </g>
     <g id="text_3">
      <!-- 40 -->
      <defs>
       <path d="
M37.7969 64.3125
L12.8906 25.3906
L37.7969 25.3906
z

M35.2031 72.9062
L47.6094 72.9062
L47.6094 25.3906
L58.0156 25.3906
L58.0156 17.1875
L47.6094 17.1875
L47.6094 0
L37.7969 0
L37.7969 17.1875
L4.89062 17.1875
L4.89062 26.7031
z
" id="DejaVuSans-34"/>
      </defs>
      <g transform="translate(90.11375 219.394366883)scale(0.12 -0.12)">
       <use xlink:href="#DejaVuSans-34"/>
       <use x="63.623046875" xlink:href="#DejaVuSans-30"/>
      </g>
     </g>
    </g>
    <g id="ytick_4">
     <g id="line2d_15">
      <g>
       <use style="stroke:#000000;stroke-width:0.5;" x="108.0" xlink:href="#m728421d6d4" y="162.888311688"/>
      </g>
     </g>
     <g id="line2d_16">
      <g>
       <use style="stroke:#000000;stroke-width:0.5;" x="777.6" xlink:href="#mcb0005524f" y="162.888311688"/>
      </g>
     </g>
     <g id="text_4">
      <!-- 60 -->
      <defs>
       <path d="
M33.0156 40.375
Q26.375 40.375 22.4844 35.8281
Q18.6094 31.2969 18.6094 23.3906
Q18.6094 15.5312 22.4844 10.9531
Q26.375 6.39062 33.0156 6.39062
Q39.6562 6.39062 43.5312 10.9531
Q47.4062 15.5312 47.4062 23.3906
Q47.4062 31.2969 43.5312 35.8281
Q39.6562 40.375 33.0156 40.375
M52.5938 71.2969
L52.5938 62.3125
Q48.875 64.0625 45.0938 64.9844
Q41.3125 65.9219 37.5938 65.9219
Q27.8281 65.9219 22.6719 59.3281
Q17.5312 52.7344 16.7969 39.4062
Q19.6719 43.6562 24.0156 45.9219
Q28.375 48.1875 33.5938 48.1875
Q44.5781 48.1875 50.9531 41.5156
Q57.3281 34.8594 57.3281 23.3906
Q57.3281 12.1562 50.6875 5.35938
Q44.0469 -1.42188 33.0156 -1.42188
Q20.3594 -1.42188 13.6719 8.26562
Q6.98438 17.9688 6.98438 36.375
Q6.98438 53.6562 15.1875 63.9375
Q23.3906 74.2188 37.2031 74.2188
Q40.9219 74.2188 44.7031 73.4844
Q48.4844 72.75 52.5938 71.2969" id="DejaVuSans-36"/>
      </defs>
      <g transform="translate(90.365 166.199561688)scale(0.12 -0.12)">
       <use xlink:href="#DejaVuSans-36"/>
       <use x="63.623046875" xlink:href="#DejaVuSans-30"/>
      </g>
     </g>
    </g>
    <g id="ytick_5">
     <g id="line2d_17">
      <g>
       <use style="stroke:#000000;stroke-width:0.5;" x="108.0" xlink:href="#m728421d6d4" y="109.693506494"/>
      </g>
     </g>
     <g id="line2d_18">
      <g>
       <use style="stroke:#000000;stroke-width:0.5;" x="777.6" xlink:href="#mcb0005524f" y="109.693506494"/>
      </g>
     </g>
     <g id="text_5">
      <!-- 80 -->
      <defs>
       <path d="
M31.7812 34.625
Q24.75 34.625 20.7188 30.8594
Q16.7031 27.0938 16.7031 20.5156
Q16.7031 13.9219 20.7188 10.1562
Q24.75 6.39062 31.7812 6.39062
Q38.8125 6.39062 42.8594 10.1719
Q46.9219 13.9688 46.9219 20.5156
Q46.9219 27.0938 42.8906 30.8594
Q38.875 34.625 31.7812 34.625
M21.9219 38.8125
Q15.5781 40.375 12.0312 44.7188
Q8.5 49.0781 8.5 55.3281
Q8.5 64.0625 14.7188 69.1406
Q20.9531 74.2188 31.7812 74.2188
Q42.6719 74.2188 48.875 69.1406
Q55.0781 64.0625 55.0781 55.3281
Q55.0781 49.0781 51.5312 44.7188
Q48 40.375 41.7031 38.8125
Q48.8281 37.1562 52.7969 32.3125
Q56.7812 27.4844 56.7812 20.5156
Q56.7812 9.90625 50.3125 4.23438
Q43.8438 -1.42188 31.7812 -1.42188
Q19.7344 -1.42188 13.25 4.23438
Q6.78125 9.90625 6.78125 20.5156
Q6.78125 27.4844 10.7812 32.3125
Q14.7969 37.1562 21.9219 38.8125
M18.3125 54.3906
Q18.3125 48.7344 21.8438 45.5625
Q25.3906 42.3906 31.7812 42.3906
Q38.1406 42.3906 41.7188 45.5625
Q45.3125 48.7344 45.3125 54.3906
Q45.3125 60.0625 41.7188 63.2344
Q38.1406 66.4062 31.7812 66.4062
Q25.3906 66.4062 21.8438 63.2344
Q18.3125 60.0625 18.3125 54.3906" id="DejaVuSans-38"/>
      </defs>
      <g transform="translate(90.340625 113.004756494)scale(0.12 -0.12)">
       <use xlink:href="#DejaVuSans-38"/>
       <use x="63.623046875" xlink:href="#DejaVuSans-30"/>
      </g>
     </g>
    </g>
    <g id="ytick_6">
     <g id="line2d_19">
      <g>
       <use style="stroke:#000000;stroke-width:0.5;" x="108.0" xlink:href="#m728421d6d4" y="56.4987012987"/>
      </g>
     </g>
     <g id="line2d_20">
      <g>
       <use style="stroke:#000000;stroke-width:0.5;" x="777.6" xlink:href="#mcb0005524f" y="56.4987012987"/>
      </g>
     </g>
     <g id="text_6">
      <!-- 100 -->
      <defs>
       <path d="
M12.4062 8.29688
L28.5156 8.29688
L28.5156 63.9219
L10.9844 60.4062
L10.9844 69.3906
L28.4219 72.9062
L38.2812 72.9062
L38.2812 8.29688
L54.3906 8.29688
L54.3906 0
L12.4062 0
z
" id="DejaVuSans-31"/>
      </defs>
      <g transform="translate(83.21 59.8099512987)scale(0.12 -0.12)">
       <use xlink:href="#DejaVuSans-31"/>
       <use x="63.623046875" xlink:href="#DejaVuSans-30"/>
       <use x="127.24609375" xlink:href="#DejaVuSans-30"/>
      </g>
     </g>
    </g>
    <g id="text_7">
     <!-- Methylation -->
     <defs>
      <path d="
M9.8125 72.9062
L24.5156 72.9062
L43.1094 23.2969
L61.8125 72.9062
L76.5156 72.9062
L76.5156 0
L66.8906 0
L66.8906 64.0156
L48.0938 14.0156
L38.1875 14.0156
L19.3906 64.0156
L19.3906 0
L9.8125 0
z
" id="DejaVuSans-4d"/>
      <path d="
M30.6094 48.3906
Q23.3906 48.3906 19.1875 42.75
Q14.9844 37.1094 14.9844 27.2969
Q14.9844 17.4844 19.1562 11.8438
Q23.3438 6.20312 30.6094 6.20312
Q37.7969 6.20312 41.9844 11.8594
Q46.1875 17.5312 46.1875 27.2969
Q46.1875 37.0156 41.9844 42.7031
Q37.7969 48.3906 30.6094 48.3906
M30.6094 56
Q42.3281 56 49.0156 48.375
Q55.7188 40.7656 55.7188 27.2969
Q55.7188 13.875 49.0156 6.21875
Q42.3281 -1.42188 30.6094 -1.42188
Q18.8438 -1.42188 12.1719 6.21875
Q5.51562 13.875 5.51562 27.2969
Q5.51562 40.7656 12.1719 48.375
Q18.8438 56 30.6094 56" id="DejaVuSans-6f"/>
      <path d="
M54.8906 33.0156
L54.8906 0
L45.9062 0
L45.9062 32.7188
Q45.9062 40.4844 42.875 44.3281
Q39.8438 48.1875 33.7969 48.1875
Q26.5156 48.1875 22.3125 43.5469
Q18.1094 38.9219 18.1094 30.9062
L18.1094 0
L9.07812 0
L9.07812 54.6875
L18.1094 54.6875
L18.1094 46.1875
Q21.3438 51.125 25.7031 53.5625
Q30.0781 56 35.7969 56
Q45.2188 56 50.0469 50.1719
Q54.8906 44.3438 54.8906 33.0156" id="DejaVuSans-6e"/>
      <path d="
M9.42188 75.9844
L18.4062 75.9844
L18.4062 0
L9.42188 0
z
" id="DejaVuSans-6c"/>
      <path d="
M32.1719 -5.07812
Q28.375 -14.8438 24.75 -17.8125
Q21.1406 -20.7969 15.0938 -20.7969
L7.90625 -20.7969
L7.90625 -13.2812
L13.1875 -13.2812
Q16.8906 -13.2812 18.9375 -11.5156
Q21 -9.76562 23.4844 -3.21875
L25.0938 0.875
L2.98438 54.6875
L12.5 54.6875
L29.5938 11.9219
L46.6875 54.6875
L56.2031 54.6875
z
" id="DejaVuSans-79"/>
      <path d="
M54.8906 33.0156
L54.8906 0
L45.9062 0
L45.9062 32.7188
Q45.9062 40.4844 42.875 44.3281
Q39.8438 48.1875 33.7969 48.1875
Q26.5156 48.1875 22.3125 43.5469
Q18.1094 38.9219 18.1094 30.9062
L18.1094 0
L9.07812 0
L9.07812 75.9844
L18.1094 75.9844
L18.1094 46.1875
Q21.3438 51.125 25.7031 53.5625
Q30.0781 56 35.7969 56
Q45.2188 56 50.0469 50.1719
Q54.8906 44.3438 54.8906 33.0156" id="DejaVuSans-68"/>
      <path d="
M9.42188 54.6875
L18.4062 54.6875
L18.4062 0
L9.42188 0
z

M9.42188 75.9844
L18.4062 75.9844
L18.4062 64.5938
L9.42188 64.5938
z
" id="DejaVuSans-69"/>
      <path d="
M18.3125 70.2188
L18.3125 54.6875
L36.8125 54.6875
L36.8125 47.7031
L18.3125 47.7031
L18.3125 18.0156
Q18.3125 11.3281 20.1406 9.42188
Q21.9688 7.51562 27.5938 7.51562
L36.8125 7.51562
L36.8125 0
L27.5938 0
Q17.1875 0 13.2344 3.875
Q9.28125 7.76562 9.28125 18.0156
L9.28125 47.7031
L2.6875 47.7031
L2.6875 54.6875
L9.28125 54.6875
L9.28125 70.2188
z
" id="DejaVuSans-74"/>
      <path d="
M56.2031 29.5938
L56.2031 25.2031
L14.8906 25.2031
Q15.4844 15.9219 20.4844 11.0625
Q25.4844 6.20312 34.4219 6.20312
Q39.5938 6.20312 44.4531 7.46875
Q49.3125 8.73438 54.1094 11.2812
L54.1094 2.78125
Q49.2656 0.734375 44.1875 -0.34375
Q39.1094 -1.42188 33.8906 -1.42188
Q20.7969 -1.42188 13.1562 6.1875
Q5.51562 13.8125 5.51562 26.8125
Q5.51562 40.2344 12.7656 48.1094
Q20.0156 56 32.3281 56
Q43.3594 56 49.7812 48.8906
Q56.2031 41.7969 56.2031 29.5938
M47.2188 32.2344
Q47.125 39.5938 43.0938 43.9844
Q39.0625 48.3906 32.4219 48.3906
Q24.9062 48.3906 20.3906 44.1406
Q15.875 39.8906 15.1875 32.1719
z
" id="DejaVuSans-65"/>
      <path d="
M34.2812 27.4844
Q23.3906 27.4844 19.1875 25
Q14.9844 22.5156 14.9844 16.5
Q14.9844 11.7188 18.1406 8.90625
Q21.2969 6.10938 26.7031 6.10938
Q34.1875 6.10938 38.7031 11.4062
Q43.2188 16.7031 43.2188 25.4844
L43.2188 27.4844
z

M52.2031 31.2031
L52.2031 0
L43.2188 0
L43.2188 8.29688
Q40.1406 3.32812 35.5469 0.953125
Q30.9531 -1.42188 24.3125 -1.42188
Q15.9219 -1.42188 10.9531 3.29688
Q6 8.01562 6 15.9219
Q6 25.1406 12.1719 29.8281
Q18.3594 34.5156 30.6094 34.5156
L43.2188 34.5156
L43.2188 35.4062
Q43.2188 41.6094 39.1406 45
Q35.0625 48.3906 27.6875 48.3906
Q23 48.3906 18.5469 47.2656
Q14.1094 46.1406 10.0156 43.8906
L10.0156 52.2031
Q14.9375 54.1094 19.5781 55.0469
Q24.2188 56 28.6094 56
Q40.4844 56 46.3438 49.8438
Q52.2031 43.7031 52.2031 31.2031" id="DejaVuSans-61"/>
     </defs>
     <g transform="translate(75.714375 217.149801136)rotate(-90.0)scale(0.12 -0.12)">
      <use xlink:href="#DejaVuSans-4d"/>
      <use x="86.279296875" xlink:href="#DejaVuSans-65"/>
      <use x="147.802734375" xlink:href="#DejaVuSans-74"/>
      <use x="187.01171875" xlink:href="#DejaVuSans-68"/>
      <use x="250.390625" xlink:href="#DejaVuSans-79"/>
      <use x="309.5703125" xlink:href="#DejaVuSans-6c"/>
      <use x="337.353515625" xlink:href="#DejaVuSans-61"/>
      <use x="398.6328125" xlink:href="#DejaVuSans-74"/>
      <use x="437.841796875" xlink:href="#DejaVuSans-69"/>
      <use x="465.625" xlink:href="#DejaVuSans-6f"/>
      <use x="526.806640625" xlink:href="#DejaVuSans-6e"/>
     </g>
    </g>
   </g>
  </g>
  <g id="axes_2">
   <g id="patch_16">
    <path d="
M108 388.8
L777.6 388.8
L777.6 353.891
L108 353.891
z
" style="fill:#ffffff;"/>
   </g>
   <g id="line2d_21">
    <path clip-path="url(#pc82b1f09f0)" d="
M108 371.345
L777.6 371.345" style="fill:none;stroke:#000000;stroke-linecap:square;"/>
   </g>
   <g id="line2d_22">
    <path clip-path="url(#pc82b1f09f0)" d="
M139.163 371.345
L746.437 371.345" style="fill:none;stroke:#008000;stroke-linecap:square;stroke-width:3;"/>
   </g>
   <g id="patch_17">
    <path clip-path="url(#pc82b1f09f0)" d="
M730.762 388.8
L746.437 388.8
L746.437 353.891
L730.762 353.891
z
" style="fill:#008000;"/>
   </g>
   <g id="patch_18">
    <path clip-path="url(#pc82b1f09f0)" d="
M666.815 388.8
L668.685 388.8
L668.685 353.891
L666.815 353.891
z
" style="fill:#008000;"/>
   </g>
   <g id="patch_19">
    <path clip-path="url(#pc82b1f09f0)" d="
M572.578 388.8
L574.199 388.8
L574.199 353.891
L572.578 353.891
z
" style="fill:#008000;"/>
   </g>
   <g id="patch_20">
    <path clip-path="url(#pc82b1f09f0)" d="
M543.846 388.8
L545.622 388.8
L545.622 353.891
L543.846 353.891
z
" style="fill:#008000;"/>
   </g>
   <g id="patch_21">
    <path clip-path="url(#pc82b1f09f0)" d="
M428.294 388.8
L430.475 388.8
L430.475 353.891
L428.294 353.891
z
" style="fill:#008000;"/>
   </g>
   <g id="patch_22">
    <path clip-path="url(#pc82b1f09f0)" d="
M335.303 388.8
L338.825 388.8
L338.825 353.891
L335.303 353.891
z
" style="fill:#008000;"/>
   </g>
   <g id="patch_23">
    <path clip-path="url(#pc82b1f09f0)" d="
M246.146 388.8
L247.548 388.8
L247.548 353.891
L246.146 353.891
z
" style="fill:#008000;"/>
   </g>
   <g id="patch_24">
    <path clip-path="url(#pc82b1f09f0)" d="
M189.491 388.8
L191.797 388.8
L191.797 353.891
L189.491 353.891
z
" style="fill:#008000;"/>
   </g>
   <g id="patch_25">
    <path clip-path="url(#pc82b1f09f0)" d="
M139.163 388.8
L147.764 388.8
L147.764 353.891
L139.163 353.891
z
" style="fill:#008000;"/>
   </g>
   <g id="patch_26">
    <path d="
M108 353.891
L777.6 353.891" style="fill:none;"/>
   </g>
   <g id="patch_27">
    <path d="
M777.6 388.8
L777.6 353.891" style="fill:none;"/>
   </g>
   <g id="patch_28">
    <path d="
M108 388.8
L777.6 388.8" style="fill:none;"/>
   </g>
   <g id="patch_29">
    <path d="
M108 388.8
L108 353.891" style="fill:none;"/>
   </g>
   <g id="matplotlib.axis_2">
    <g id="xtick_1">
     <g id="line2d_23">
      <defs>
       <path d="
M0 0
L0 -4" id="m93b0483c22" style="stroke:#000000;stroke-width:0.5;"/>
      </defs>
      <g>
       <use style="stroke:#000000;stroke-width:0.5;" x="182.479638851" xlink:href="#m93b0483c22" y="388.8"/>
      </g>
     </g>
     <g id="line2d_24">
      <defs>
       <path d="
M0 0
L0 4" id="m741efc42ff" style="stroke:#000000;stroke-width:0.5;"/>
      </defs>
      <g>
       <use style="stroke:#000000;stroke-width:0.5;" x="182.479638851" xlink:href="#m741efc42ff" y="353.890909091"/>
      </g>
     </g>
     <g id="text_8">
      <!-- 1000 -->
      <g transform="translate(168.267138851 401.918125)scale(0.12 -0.12)">
       <use xlink:href="#DejaVuSans-31"/>
       <use x="63.623046875" xlink:href="#DejaVuSans-30"/>
       <use x="127.24609375" xlink:href="#DejaVuSans-30"/>
       <use x="190.869140625" xlink:href="#DejaVuSans-30"/>
      </g>
     </g>
    </g>
    <g id="xtick_2">
     <g id="line2d_25">
      <g>
       <use style="stroke:#000000;stroke-width:0.5;" x="338.294782892" xlink:href="#m93b0483c22" y="388.8"/>
      </g>
     </g>
     <g id="line2d_26">
      <g>
       <use style="stroke:#000000;stroke-width:0.5;" x="338.294782892" xlink:href="#m741efc42ff" y="353.890909091"/>
      </g>
     </g>
     <g id="text_9">
      <!-- 2000 -->
      <g transform="translate(323.862907892 401.918125)scale(0.12 -0.12)">
       <use xlink:href="#DejaVuSans-32"/>
       <use x="63.623046875" xlink:href="#DejaVuSans-30"/>
       <use x="127.24609375" xlink:href="#DejaVuSans-30"/>
       <use x="190.869140625" xlink:href="#DejaVuSans-30"/>
      </g>
     </g>
    </g>
    <g id="xtick_3">
     <g id="line2d_27">
      <g>
       <use style="stroke:#000000;stroke-width:0.5;" x="494.109926933" xlink:href="#m93b0483c22" y="388.8"/>
      </g>
     </g>
     <g id="line2d_28">
      <g>
       <use style="stroke:#000000;stroke-width:0.5;" x="494.109926933" xlink:href="#m741efc42ff" y="353.890909091"/>
      </g>
     </g>
     <g id="text_10">
      <!-- 3000 -->
      <defs>
       <path d="
M40.5781 39.3125
Q47.6562 37.7969 51.625 33
Q55.6094 28.2188 55.6094 21.1875
Q55.6094 10.4062 48.1875 4.48438
Q40.7656 -1.42188 27.0938 -1.42188
Q22.5156 -1.42188 17.6562 -0.515625
Q12.7969 0.390625 7.625 2.20312
L7.625 11.7188
Q11.7188 9.32812 16.5938 8.10938
Q21.4844 6.89062 26.8125 6.89062
Q36.0781 6.89062 40.9375 10.5469
Q45.7969 14.2031 45.7969 21.1875
Q45.7969 27.6406 41.2812 31.2656
Q36.7656 34.9062 28.7188 34.9062
L20.2188 34.9062
L20.2188 43.0156
L29.1094 43.0156
Q36.375 43.0156 40.2344 45.9219
Q44.0938 48.8281 44.0938 54.2969
Q44.0938 59.9062 40.1094 62.9062
Q36.1406 65.9219 28.7188 65.9219
Q24.6562 65.9219 20.0156 65.0312
Q15.375 64.1562 9.8125 62.3125
L9.8125 71.0938
Q15.4375 72.6562 20.3438 73.4375
Q25.25 74.2188 29.5938 74.2188
Q40.8281 74.2188 47.3594 69.1094
Q53.9062 64.0156 53.9062 55.3281
Q53.9062 49.2656 50.4375 45.0938
Q46.9688 40.9219 40.5781 39.3125" id="DejaVuSans-33"/>
      </defs>
      <g transform="translate(479.695864433 401.918125)scale(0.12 -0.12)">
       <use xlink:href="#DejaVuSans-33"/>
       <use x="63.623046875" xlink:href="#DejaVuSans-30"/>
       <use x="127.24609375" xlink:href="#DejaVuSans-30"/>
       <use x="190.869140625" xlink:href="#DejaVuSans-30"/>
      </g>
     </g>
    </g>
    <g id="xtick_4">
     <g id="line2d_29">
      <g>
       <use style="stroke:#000000;stroke-width:0.5;" x="649.925070973" xlink:href="#m93b0483c22" y="388.8"/>
      </g>
     </g>
     <g id="line2d_30">
      <g>
       <use style="stroke:#000000;stroke-width:0.5;" x="649.925070973" xlink:href="#m741efc42ff" y="353.890909091"/>
      </g>
     </g>
     <g id="text_11">
      <!-- 4000 -->
      <g transform="translate(635.346945973 401.918125)scale(0.12 -0.12)">
       <use xlink:href="#DejaVuSans-34"/>
       <use x="63.623046875" xlink:href="#DejaVuSans-30"/>
       <use x="127.24609375" xlink:href="#DejaVuSans-30"/>
       <use x="190.869140625" xlink:href="#DejaVuSans-30"/>
      </g>
     </g>
    </g>
    <g id="text_12">
     <!-- Length (bp) -->
     <defs>
      <path d="
M9.8125 72.9062
L19.6719 72.9062
L19.6719 8.29688
L55.1719 8.29688
L55.1719 0
L9.8125 0
z
" id="DejaVuSans-4c"/>
      <path id="DejaVuSans-20"/>
      <path d="
M45.4062 27.9844
Q45.4062 37.75 41.375 43.1094
Q37.3594 48.4844 30.0781 48.4844
Q22.8594 48.4844 18.8281 43.1094
Q14.7969 37.75 14.7969 27.9844
Q14.7969 18.2656 18.8281 12.8906
Q22.8594 7.51562 30.0781 7.51562
Q37.3594 7.51562 41.375 12.8906
Q45.4062 18.2656 45.4062 27.9844
M54.3906 6.78125
Q54.3906 -7.17188 48.1875 -13.9844
Q42 -20.7969 29.2031 -20.7969
Q24.4688 -20.7969 20.2656 -20.0938
Q16.0625 -19.3906 12.1094 -17.9219
L12.1094 -9.1875
Q16.0625 -11.3281 19.9219 -12.3438
Q23.7812 -13.375 27.7812 -13.375
Q36.625 -13.375 41.0156 -8.76562
Q45.4062 -4.15625 45.4062 5.17188
L45.4062 9.625
Q42.625 4.78125 38.2812 2.39062
Q33.9375 0 27.875 0
Q17.8281 0 11.6719 7.65625
Q5.51562 15.3281 5.51562 27.9844
Q5.51562 40.6719 11.6719 48.3281
Q17.8281 56 27.875 56
Q33.9375 56 38.2812 53.6094
Q42.625 51.2188 45.4062 46.3906
L45.4062 54.6875
L54.3906 54.6875
z
" id="DejaVuSans-67"/>
      <path d="
M31 75.875
Q24.4688 64.6562 21.2812 53.6562
Q18.1094 42.6719 18.1094 31.3906
Q18.1094 20.125 21.3125 9.0625
Q24.5156 -2 31 -13.1875
L23.1875 -13.1875
Q15.875 -1.70312 12.2344 9.375
Q8.59375 20.4531 8.59375 31.3906
Q8.59375 42.2812 12.2031 53.3125
Q15.8281 64.3594 23.1875 75.875
z
" id="DejaVuSans-28"/>
      <path d="
M8.01562 75.875
L15.8281 75.875
Q23.1406 64.3594 26.7812 53.3125
Q30.4219 42.2812 30.4219 31.3906
Q30.4219 20.4531 26.7812 9.375
Q23.1406 -1.70312 15.8281 -13.1875
L8.01562 -13.1875
Q14.5 -2 17.7031 9.0625
Q20.9062 20.125 20.9062 31.3906
Q20.9062 42.6719 17.7031 53.6562
Q14.5 64.6562 8.01562 75.875" id="DejaVuSans-29"/>
      <path d="
M48.6875 27.2969
Q48.6875 37.2031 44.6094 42.8438
Q40.5312 48.4844 33.4062 48.4844
Q26.2656 48.4844 22.1875 42.8438
Q18.1094 37.2031 18.1094 27.2969
Q18.1094 17.3906 22.1875 11.75
Q26.2656 6.10938 33.4062 6.10938
Q40.5312 6.10938 44.6094 11.75
Q48.6875 17.3906 48.6875 27.2969
M18.1094 46.3906
Q20.9531 51.2656 25.2656 53.625
Q29.5938 56 35.5938 56
Q45.5625 56 51.7812 48.0938
Q58.0156 40.1875 58.0156 27.2969
Q58.0156 14.4062 51.7812 6.48438
Q45.5625 -1.42188 35.5938 -1.42188
Q29.5938 -1.42188 25.2656 0.953125
Q20.9531 3.32812 18.1094 8.20312
L18.1094 0
L9.07812 0
L9.07812 75.9844
L18.1094 75.9844
z
" id="DejaVuSans-62"/>
      <path d="
M18.1094 8.20312
L18.1094 -20.7969
L9.07812 -20.7969
L9.07812 54.6875
L18.1094 54.6875
L18.1094 46.3906
Q20.9531 51.2656 25.2656 53.625
Q29.5938 56 35.5938 56
Q45.5625 56 51.7812 48.0938
Q58.0156 40.1875 58.0156 27.2969
Q58.0156 14.4062 51.7812 6.48438
Q45.5625 -1.42188 35.5938 -1.42188
Q29.5938 -1.42188 25.2656 0.953125
Q20.9531 3.32812 18.1094 8.20312
M48.6875 27.2969
Q48.6875 37.2031 44.6094 42.8438
Q40.5312 48.4844 33.4062 48.4844
Q26.2656 48.4844 22.1875 42.8438
Q18.1094 37.2031 18.1094 27.2969
Q18.1094 17.3906 22.1875 11.75
Q26.2656 6.10938 33.4062 6.10938
Q40.5312 6.10938 44.6094 11.75
Q48.6875 17.3906 48.6875 27.2969" id="DejaVuSans-70"/>
     </defs>
     <g transform="translate(408.4125 418.531875)scale(0.12 -0.12)">
      <use xlink:href="#DejaVuSans-4c"/>
      <use x="53.962890625" xlink:href="#DejaVuSans-65"/>
      <use x="115.486328125" xlink:href="#DejaVuSans-6e"/>
      <use x="178.865234375" xlink:href="#DejaVuSans-67"/>
      <use x="242.341796875" xlink:href="#DejaVuSans-74"/>
      <use x="281.55078125" xlink:href="#DejaVuSans-68"/>
      <use x="344.9296875" xlink:href="#DejaVuSans-20"/>
      <use x="376.716796875" xlink:href="#DejaVuSans-28"/>
      <use x="415.73046875" xlink:href="#DejaVuSans-62"/>
      <use x="479.20703125" xlink:href="#DejaVuSans-70"/>
      <use x="542.68359375" xlink:href="#DejaVuSans-29"/>
     </g>
     <!-- chr17:8128610-8148097 -->
     <defs>
      <path d="
M11.7188 12.4062
L22.0156 12.4062
L22.0156 0
L11.7188 0
z

M11.7188 51.7031
L22.0156 51.7031
L22.0156 39.3125
L11.7188 39.3125
z
" id="DejaVuSans-3a"/>
      <path d="
M4.89062 31.3906
L31.2031 31.3906
L31.2031 23.3906
L4.89062 23.3906
z
" id="DejaVuSans-2d"/>
      <path d="
M8.20312 72.9062
L55.0781 72.9062
L55.0781 68.7031
L28.6094 0
L18.3125 0
L43.2188 64.5938
L8.20312 64.5938
z
" id="DejaVuSans-37"/>
      <path d="
M10.9844 1.51562
L10.9844 10.5
Q14.7031 8.73438 18.5 7.8125
Q22.3125 6.89062 25.9844 6.89062
Q35.75 6.89062 40.8906 13.4531
Q46.0469 20.0156 46.7812 33.4062
Q43.9531 29.2031 39.5938 26.9531
Q35.25 24.7031 29.9844 24.7031
Q19.0469 24.7031 12.6719 31.3125
Q6.29688 37.9375 6.29688 49.4219
Q6.29688 60.6406 12.9375 67.4219
Q19.5781 74.2188 30.6094 74.2188
Q43.2656 74.2188 49.9219 64.5156
Q56.5938 54.8281 56.5938 36.375
Q56.5938 19.1406 48.4062 8.85938
Q40.2344 -1.42188 26.4219 -1.42188
Q22.7031 -1.42188 18.8906 -0.6875
Q15.0938 0.046875 10.9844 1.51562
M30.6094 32.4219
Q37.25 32.4219 41.125 36.9531
Q45.0156 41.5 45.0156 49.4219
Q45.0156 57.2812 41.125 61.8438
Q37.25 66.4062 30.6094 66.4062
Q23.9688 66.4062 20.0938 61.8438
Q16.2188 57.2812 16.2188 49.4219
Q16.2188 41.5 20.0938 36.9531
Q23.9688 32.4219 30.6094 32.4219" id="DejaVuSans-39"/>
      <path d="
M48.7812 52.5938
L48.7812 44.1875
Q44.9688 46.2969 41.1406 47.3438
Q37.3125 48.3906 33.4062 48.3906
Q24.6562 48.3906 19.8125 42.8438
Q14.9844 37.3125 14.9844 27.2969
Q14.9844 17.2812 19.8125 11.7344
Q24.6562 6.20312 33.4062 6.20312
Q37.3125 6.20312 41.1406 7.25
Q44.9688 8.29688 48.7812 10.4062
L48.7812 2.09375
Q45.0156 0.34375 40.9844 -0.53125
Q36.9688 -1.42188 32.4219 -1.42188
Q20.0625 -1.42188 12.7812 6.34375
Q5.51562 14.1094 5.51562 27.2969
Q5.51562 40.6719 12.8594 48.3281
Q20.2188 56 33.0156 56
Q37.1562 56 41.1094 55.1406
Q45.0625 54.2969 48.7812 52.5938" id="DejaVuSans-63"/>
      <path d="
M41.1094 46.2969
Q39.5938 47.1719 37.8125 47.5781
Q36.0312 48 33.8906 48
Q26.2656 48 22.1875 43.0469
Q18.1094 38.0938 18.1094 28.8125
L18.1094 0
L9.07812 0
L9.07812 54.6875
L18.1094 54.6875
L18.1094 46.1875
Q20.9531 51.1719 25.4844 53.5781
Q30.0312 56 36.5312 56
Q37.4531 56 38.5781 55.875
Q39.7031 55.7656 41.0625 55.5156
z
" id="DejaVuSans-72"/>
     </defs>
     <g transform="translate(368.8096875 431.96925)scale(0.12 -0.12)">
      <use xlink:href="#DejaVuSans-63"/>
      <use x="54.98046875" xlink:href="#DejaVuSans-68"/>
      <use x="118.359375" xlink:href="#DejaVuSans-72"/>
      <use x="159.47265625" xlink:href="#DejaVuSans-31"/>
      <use x="223.095703125" xlink:href="#DejaVuSans-37"/>
      <use x="286.71875" xlink:href="#DejaVuSans-3a"/>
      <use x="320.41015625" xlink:href="#DejaVuSans-38"/>
      <use x="384.033203125" xlink:href="#DejaVuSans-31"/>
      <use x="447.65625" xlink:href="#DejaVuSans-32"/>
      <use x="511.279296875" xlink:href="#DejaVuSans-38"/>
      <use x="574.90234375" xlink:href="#DejaVuSans-36"/>
      <use x="638.525390625" xlink:href="#DejaVuSans-31"/>
      <use x="702.1484375" xlink:href="#DejaVuSans-30"/>
      <use x="765.771484375" xlink:href="#DejaVuSans-2d"/>
      <use x="801.85546875" xlink:href="#DejaVuSans-38"/>
      <use x="865.478515625" xlink:href="#DejaVuSans-31"/>
      <use x="929.1015625" xlink:href="#DejaVuSans-34"/>
      <use x="992.724609375" xlink:href="#DejaVuSans-38"/>
      <use x="1056.34765625" xlink:href="#DejaVuSans-30"/>
      <use x="1119.97070312" xlink:href="#DejaVuSans-39"/>
      <use x="1183.59375" xlink:href="#DejaVuSans-37"/>
     </g>
    </g>
   </g>
  </g>
  <g id="text_13">
   <!-- ENSMUST00000097420 (Rnaset2a) -->
   <defs>
    <path d="
M9.8125 72.9062
L23.0938 72.9062
L55.4219 11.9219
L55.4219 72.9062
L64.9844 72.9062
L64.9844 0
L51.7031 0
L19.3906 60.9844
L19.3906 0
L9.8125 0
z
" id="DejaVuSans-4e"/>
    <path d="
M9.8125 72.9062
L55.9062 72.9062
L55.9062 64.5938
L19.6719 64.5938
L19.6719 43.0156
L54.3906 43.0156
L54.3906 34.7188
L19.6719 34.7188
L19.6719 8.29688
L56.7812 8.29688
L56.7812 0
L9.8125 0
z
" id="DejaVuSans-45"/>
    <path d="
M44.2812 53.0781
L44.2812 44.5781
Q40.4844 46.5312 36.375 47.5
Q32.2812 48.4844 27.875 48.4844
Q21.1875 48.4844 17.8438 46.4375
Q14.5 44.3906 14.5 40.2812
Q14.5 37.1562 16.8906 35.375
Q19.2812 33.5938 26.5156 31.9844
L29.5938 31.2969
Q39.1562 29.25 43.1875 25.5156
Q47.2188 21.7812 47.2188 15.0938
Q47.2188 7.46875 41.1875 3.01562
Q35.1562 -1.42188 24.6094 -1.42188
Q20.2188 -1.42188 15.4531 -0.5625
Q10.6875 0.296875 5.42188 2
L5.42188 11.2812
Q10.4062 8.6875 15.2344 7.39062
Q20.0625 6.10938 24.8125 6.10938
Q31.1562 6.10938 34.5625 8.28125
Q37.9844 10.4531 37.9844 14.4062
Q37.9844 18.0625 35.5156 20.0156
Q33.0625 21.9688 24.7031 23.7812
L21.5781 24.5156
Q13.2344 26.2656 9.51562 29.9062
Q5.8125 33.5469 5.8125 39.8906
Q5.8125 47.6094 11.2812 51.7969
Q16.75 56 26.8125 56
Q31.7812 56 36.1719 55.2656
Q40.5781 54.5469 44.2812 53.0781" id="DejaVuSans-73"/>
    <path d="
M53.5156 70.5156
L53.5156 60.8906
Q47.9062 63.5781 42.9219 64.8906
Q37.9375 66.2188 33.2969 66.2188
Q25.25 66.2188 20.875 63.0938
Q16.5 59.9688 16.5 54.2031
Q16.5 49.3594 19.4062 46.8906
Q22.3125 44.4375 30.4219 42.9219
L36.375 41.7031
Q47.4062 39.5938 52.6562 34.2969
Q57.9062 29 57.9062 20.125
Q57.9062 9.51562 50.7969 4.04688
Q43.7031 -1.42188 29.9844 -1.42188
Q24.8125 -1.42188 18.9688 -0.25
Q13.1406 0.921875 6.89062 3.21875
L6.89062 13.375
Q12.8906 10.0156 18.6562 8.29688
Q24.4219 6.59375 29.9844 6.59375
Q38.4219 6.59375 43.0156 9.90625
Q47.6094 13.2344 47.6094 19.3906
Q47.6094 24.75 44.3125 27.7812
Q41.0156 30.8125 33.5 32.3281
L27.4844 33.5
Q16.4531 35.6875 11.5156 40.375
Q6.59375 45.0625 6.59375 53.4219
Q6.59375 63.0938 13.4062 68.6562
Q20.2188 74.2188 32.1719 74.2188
Q37.3125 74.2188 42.625 73.2812
Q47.9531 72.3594 53.5156 70.5156" id="DejaVuSans-53"/>
    <path d="
M44.3906 34.1875
Q47.5625 33.1094 50.5625 29.5938
Q53.5625 26.0781 56.5938 19.9219
L66.6094 0
L56 0
L46.6875 18.7031
Q43.0625 26.0312 39.6719 28.4219
Q36.2812 30.8125 30.4219 30.8125
L19.6719 30.8125
L19.6719 0
L9.8125 0
L9.8125 72.9062
L32.0781 72.9062
Q44.5781 72.9062 50.7344 67.6719
Q56.8906 62.4531 56.8906 51.9062
Q56.8906 45.0156 53.6875 40.4688
Q50.4844 35.9375 44.3906 34.1875
M19.6719 64.7969
L19.6719 38.9219
L32.0781 38.9219
Q39.2031 38.9219 42.8438 42.2188
Q46.4844 45.5156 46.4844 51.9062
Q46.4844 58.2969 42.8438 61.5469
Q39.2031 64.7969 32.0781 64.7969
z
" id="DejaVuSans-52"/>
    <path d="
M8.6875 72.9062
L18.6094 72.9062
L18.6094 28.6094
Q18.6094 16.8906 22.8438 11.7344
Q27.0938 6.59375 36.625 6.59375
Q46.0938 6.59375 50.3438 11.7344
Q54.5938 16.8906 54.5938 28.6094
L54.5938 72.9062
L64.5 72.9062
L64.5 27.3906
Q64.5 13.1406 57.4375 5.85938
Q50.3906 -1.42188 36.625 -1.42188
Q22.7969 -1.42188 15.7344 5.85938
Q8.6875 13.1406 8.6875 27.3906
z
" id="DejaVuSans-55"/>
    <path d="
M-0.296875 72.9062
L61.375 72.9062
L61.375 64.5938
L35.5 64.5938
L35.5 0
L25.5938 0
L25.5938 64.5938
L-0.296875 64.5938
z
" id="DejaVuSans-54"/>
   </defs>
   <g transform="translate(326.4909375 17.758125)scale(0.12 -0.12)">
    <use xlink:href="#DejaVuSans-45"/>
    <use x="63.18359375" xlink:href="#DejaVuSans-4e"/>
    <use x="137.98828125" xlink:href="#DejaVuSans-53"/>
    <use x="201.46484375" xlink:href="#DejaVuSans-4d"/>
    <use x="287.744140625" xlink:href="#DejaVuSans-55"/>
    <use x="360.9375" xlink:href="#DejaVuSans-53"/>
    <use x="424.4140625" xlink:href="#DejaVuSans-54"/>
    <use x="485.498046875" xlink:href="#DejaVuSans-30"/>
    <use x="549.12109375" xlink:href="#DejaVuSans-30"/>
    <use x="612.744140625" xlink:href="#DejaVuSans-30"/>
    <use x="676.3671875" xlink:href="#DejaVuSans-30"/>
    <use x="739.990234375" xlink:href="#DejaVuSans-30"/>
    <use x="803.61328125" xlink:href="#DejaVuSans-30"/>
    <use x="867.236328125" xlink:href="#DejaVuSans-39"/>
    <use x="930.859375" xlink:href="#DejaVuSans-37"/>
    <use x="994.482421875" xlink:href="#DejaVuSans-34"/>
    <use x="1058.10546875" xlink:href="#DejaVuSans-32"/>
    <use x="1121.72851562" xlink:href="#DejaVuSans-30"/>
    <use x="1185.3515625" xlink:href="#DejaVuSans-20"/>
    <use x="1217.13867188" xlink:href="#DejaVuSans-28"/>
    <use x="1256.15234375" xlink:href="#DejaVuSans-52"/>
    <use x="1325.63476562" xlink:href="#DejaVuSans-6e"/>
    <use x="1389.01367188" xlink:href="#DejaVuSans-61"/>
    <use x="1450.29296875" xlink:href="#DejaVuSans-73"/>
    <use x="1502.39257812" xlink:href="#DejaVuSans-65"/>
    <use x="1563.91601562" xlink:href="#DejaVuSans-74"/>
    <use x="1603.125" xlink:href="#DejaVuSans-32"/>
    <use x="1666.74804688" xlink:href="#DejaVuSans-61"/>
    <use x="1728.02734375" xlink:href="#DejaVuSans-29"/>
   </g>
  </g>
 </g>
 <defs>
  <clipPath id="p9fd4257182">
   <rect height="279.272727273" width="669.6" x="108.0" y="43.2"/>
  </clipPath>
  <clipPath id="pc82b1f09f0">
   <rect height="34.9090909091" width="669.6" x="108.0" y="353.890909091"/>
  </clipPath>
 </defs>
</svg>
