<?xml version="1.0" encoding="utf-8" standalone="no"?>
<!DOCTYPE svg PUBLIC "-//W3C//DTD SVG 1.1//EN"
  "http://www.w3.org/Graphics/SVG/1.1/DTD/svg11.dtd">
<!-- Created with matplotlib (http://matplotlib.org/) -->
<svg height="432pt" version="1.1" viewBox="0 0 864 432" width="864pt" xmlns="http://www.w3.org/2000/svg" xmlns:xlink="http://www.w3.org/1999/xlink">
 <defs>
  <style type="text/css">
*{stroke-linecap:butt;stroke-linejoin:round;}
  </style>
 </defs>
 <g id="figure_1">
  <g id="patch_1">
   <path d="
M0 432
L864 432
L864 0
L0 0
z
" style="fill:#ffffff;"/>
  </g>
  <g id="axes_1">
   <g id="patch_2">
    <path d="
M108 322.473
L777.6 322.473
L777.6 43.2
L108 43.2
z
" style="fill:#ffffff;"/>
   </g>
   <g id="patch_3">
    <path clip-path="url(#p9fd4257182)" d="
M171.753 322.473
L180.934 322.473
L180.934 43.2
L171.753 43.2
z
" style="fill:#008000;opacity:0.2;"/>
   </g>
   <g id="patch_4">
    <path clip-path="url(#p9fd4257182)" d="
M258.968 322.473
L263.367 322.473
L263.367 43.2
L258.968 43.2
z
" style="fill:#008000;opacity:0.2;"/>
   </g>
   <g id="patch_5">
    <path clip-path="url(#p9fd4257182)" d="
M268.658 322.473
L275.99 322.473
L275.99 43.2
L268.658 43.2
z
" style="fill:#008000;opacity:0.2;"/>
   </g>
   <g id="patch_6">
    <path clip-path="url(#p9fd4257182)" d="
M348.158 322.473
L356.701 322.473
L356.701 43.2
L348.158 43.2
z
" style="fill:#008000;opacity:0.2;"/>
   </g>
   <g id="patch_7">
    <path clip-path="url(#p9fd4257182)" d="
M373.468 322.473
L386.347 322.473
L386.347 43.2
L373.468 43.2
z
" style="fill:#008000;opacity:0.2;"/>
   </g>
   <g id="patch_8">
    <path clip-path="url(#p9fd4257182)" d="
M440.473 322.473
L451.757 322.473
L451.757 43.2
L440.473 43.2
z
" style="fill:#008000;opacity:0.2;"/>
   </g>
   <g id="patch_9">
    <path clip-path="url(#p9fd4257182)" d="
M598.071 322.473
L603.681 322.473
L603.681 43.2
L598.071 43.2
z
" style="fill:#008000;opacity:0.2;"/>
   </g>
   <g id="patch_10">
    <path clip-path="url(#p9fd4257182)" d="
M643.208 322.473
L713.847 322.473
L713.847 43.2
L643.208 43.2
z
" style="fill:#008000;opacity:0.2;"/>
   </g>
   <g id="line2d_1">
    <path clip-path="url(#p9fd4257182)" d="
M108 80.1677
L108.064 80.301
L109.148 82.2281
L125.851 58.8885
L126.042 58.8932
L140.769 72.3467
L140.96 72.8104
L142.363 76.5969
L150.651 114.792
L151.48 123.585
L154.157 158.675
L154.221 159.613
L157.409 216.098
L161.553 296.952
L164.294 316.343
L166.143 319.702
L167.227 320.431
L169.458 320.562
L170.733 319.892
L172.965 317.298
L173.347 316.582
L175.132 311.767
L175.961 308.655
L178.575 297.447
L179.212 295.427
L179.595 294.542
L180.424 293.553
L182.655 296.922
L183.356 299.345
L186.671 312.294
L188.265 316.698
L189.222 318.426
L189.732 319.119
L190.815 320.198
L192.218 321.041
L193.302 321.424
L194.577 321.694
L196.426 321.873
L200.187 321.928
L211.918 321.786
L216.954 321.704
L219.504 321.807
L222.182 321.704
L225.688 318.602
L225.752 318.389
L226.39 315.296
L227.219 307.056
L228.239 285.208
L230.279 210.528
L234.678 288.443
L236.399 313.152
L237.1 316.941
L241.946 321.761
L242.774 321.706
L251.317 310.012
L256.099 283.07
L263.175 177.529
L270.124 112.509
L270.507 110.183
L274.141 92.3695
L278.349 80.1307
L290.207 64.6438
L348.86 105.207
L350.198 102.111
L356.319 89.3361
L362.885 79.175
L364.415 77.3637
L378.76 72.2099
L381.693 72.1933
L396.228 66.3072
L398.46 66.2829
L414.78 79.6553
L428.232 101.86
L428.296 101.709
L435.883 82.2321
L440.919 75.3268
L444.171 76.9776
L446.657 80.3225
L448.442 81.7964
L450.801 80.311
L452.65 79.843
L462.914 91.1775
L470.373 105.488
L474.453 105.606
L486.439 69.8752
L488.543 65.5878
L490.583 62.5194
L500.337 57.4109
L519.591 56.684
L556.313 58.1487
L561.349 60.7997
L569.701 66.6137
L600.366 72.3629
L608.59 74.1339
L625.74 73.4015
L628.162 73.01
L643.654 72.376
L645.758 72.5734
L678.91 109.792
L681.333 116.237
L700.905 121.162
L700.969 120.941
L706.77 99.179
L721.178 66.9313
L741.771 69.0489
L748.146 74.7009
L749.357 74.976
L756.434 73.6799
L758.474 72.6411
L758.474 72.6411" style="fill:none;opacity:0.5;stroke:#0000ff;stroke-linecap:square;"/>
   </g>
   <g id="line2d_2">
    <path clip-path="url(#p9fd4257182)" d="
M108 84.2279
L109.148 90.6046
L112.845 102.261
L125.851 60.905
L126.042 60.8425
L140.705 82.3547
L140.96 84.6783
L142.363 104.149
L150.715 165.435
L151.48 169.896
L153.201 182.512
L154.221 193.792
L157.409 279.076
L161.553 322.365
L164.294 322.433
L167.227 322.247
L169.458 321.952
L173.347 322.075
L179.595 322.033
L184.504 321.734
L187.819 321.569
L191.517 321.664
L202.801 322.096
L210.643 322.204
L217.018 322.118
L228.239 321.851
L237.1 321.75
L241.946 321.204
L242.774 320.976
L251.126 313.121
L251.317 312.738
L256.099 255.384
L262.602 122.595
L262.984 122.913
L263.175 123.276
L270.061 152.379
L270.124 152.302
L270.507 151.797
L274.077 139.969
L278.349 99.9177
L281.983 64.865
L290.27 56.5017
L348.923 81.199
L350.198 81.0139
L364.415 78.4546
L378.696 78.3614
L381.693 78.7978
L396.228 82.1637
L398.46 81.5211
L414.78 58.4132
L428.296 56.9042
L435.883 56.9967
L440.919 57.5547
L444.171 58.8718
L446.657 61.3551
L448.442 64.6013
L450.801 71.4634
L452.65 78.9381
L462.85 105.667
L462.914 105.549
L470.373 81.1651
L474.453 70.5132
L486.439 59.8909
L488.543 59.2351
L490.583 58.7408
L500.337 57.4534
L507.605 57.0834
L519.591 57.1335
L556.313 69.9345
L563.262 71.9342
L569.637 73.897
L600.302 72.5623
L605.849 69.2562
L608.59 67.47
L625.74 59.0263
L628.162 58.8106
L643.591 61.062
L678.846 74.8287
L681.269 76.2482
L700.969 82.6575
L706.77 83.2149
L721.178 81.3664
L741.771 79.1535
L748.146 61.9473
L749.357 59.7205
L756.434 56.7785
L758.474 56.667
L758.474 56.667" style="fill:none;opacity:0.5;stroke:#ff0000;stroke-linecap:square;"/>
   </g>
   <g id="line2d_3">
    <path clip-path="url(#p9fd4257182)" d="
M108 83.1629
L108.064 83.4046
L109.148 86.4045
L112.845 80.5841
L125.851 61.6413
L126.042 61.57
L140.769 76.9632
L140.96 77.3272
L142.363 79.1652
L150.651 105.464
L151.288 113.332
L151.543 117.068
L153.201 150.517
L154.221 178.937
L157.409 272.76
L161.553 316.969
L164.294 320.997
L166.143 321.7
L167.227 321.881
L170.733 321.981
L173.347 321.74
L177.555 321.077
L179.595 321.135
L185.396 321.723
L186.671 321.723
L188.775 321.501
L189.732 321.267
L191.517 320.535
L193.621 319.231
L194.577 318.669
L195.278 318.394
L196.362 318.36
L197.063 318.635
L198.083 319.251
L200.187 320.603
L202.419 321.53
L203.694 321.817
L207.328 322.101
L214.787 322.071
L217.018 321.97
L219.504 321.561
L222.182 320.475
L225.752 318.671
L226.39 318.73
L227.219 318.971
L230.342 320.283
L234.678 320.468
L236.399 319.663
L237.1 319.078
L241.946 299.702
L242.774 291.017
L251.126 269.714
L251.317 268.562
L256.099 187.122
L262.538 124.31
L262.602 124.613
L263.175 127.892
L270.124 182.734
L270.507 183.436
L274.141 182.244
L278.349 166.624
L290.27 86.5586
L348.923 80.1675
L364.415 80.3011
L381.693 77.7904
L396.228 91.8236
L398.46 97.7731
L414.78 165.965
L428.232 161.57
L428.296 160.717
L435.118 82.916
L435.819 78.911
L440.919 65.4938
L444.171 64.6636
L446.657 66.1735
L448.442 68.4411
L450.801 73.3376
L452.65 78.9231
L462.914 107.206
L470.373 94.711
L474.39 86.1927
L486.439 72.8731
L488.543 71.7009
L490.583 70.9298
L500.337 73.2857
L507.605 81.7809
L519.591 90.6832
L556.313 58.5057
L561.349 57.6417
L563.262 57.4526
L569.701 57.1443
L608.59 56.8733
L625.74 57.0681
L628.162 57.2888
L643.654 65.0773
L645.758 68.0774
L678.846 121.164
L681.333 121.35
L700.969 106.164
L706.77 98.1759
L721.178 79.6589
L741.707 64.462
L749.357 61.6009
L756.434 60.0559
L758.474 59.7589
L758.474 59.7589" style="fill:none;opacity:0.5;stroke:#ff0000;stroke-linecap:square;"/>
   </g>
   <g id="line2d_4">
    <path clip-path="url(#p9fd4257182)" d="
M108 70.3581
L108.064 70.2017
L109.148 67.0853
L112.845 57.8793
L126.042 57.9001
L140.769 62.2627
L140.96 62.5187
L142.363 64.9449
L150.651 162.127
L151.48 217.705
L151.543 222.297
L153.137 297.371
L154.157 313.014
L157.345 321.81
L161.553 322.365
L166.143 322.225
L169.458 322.025
L173.347 322.006
L180.424 321.887
L189.222 321.983
L199.04 321.842
L207.328 322.027
L215.934 321.959
L217.018 321.855
L218.931 321.467
L219.504 321.28
L222.182 319.76
L225.752 317.061
L226.39 316.929
L227.219 316.987
L228.239 317.365
L230.342 318.745
L234.678 321.127
L237.1 321.57
L241.946 321.456
L242.774 321.259
L251.126 300.82
L251.317 299.544
L256.099 229.651
L262.602 130.407
L263.175 127.506
L270.061 136.732
L270.507 139.474
L274.141 163.303
L278.285 176.784
L281.919 167.194
L290.27 102.306
L348.923 83.2307
L350.198 83.7525
L362.822 89.316
L364.415 89.8764
L378.696 93.6092
L381.629 92.8682
L396.228 77.1919
L398.46 76.0597
L414.717 101.477
L414.78 101.871
L428.232 173.612
L435.118 81.8308
L435.883 76.9831
L440.856 64.4054
L444.171 64.0725
L446.657 65.2999
L448.442 66.9404
L450.801 70.1619
L452.65 73.4923
L462.914 87.2002
L470.373 90.1183
L474.453 89.253
L486.439 72.4777
L488.543 70.0724
L490.583 68.5172
L500.337 73.661
L519.591 136.89
L556.313 78.8504
L560.457 73.7465
L561.349 72.872
L563.262 71.262
L568.617 68.6486
L569.701 68.6389
L600.302 63.4745
L605.849 63.5292
L608.59 64.603
L625.74 76.7689
L628.162 77.8069
L643.654 82.4509
L645.758 82.9665
L678.91 100.587
L681.333 99.3484
L700.969 62.5824
L706.77 58.4118
L721.115 56.6615
L741.771 56.778
L748.146 57.7948
L749.357 58.4806
L756.434 70.395
L758.474 76.7568
L758.474 76.7568" style="fill:none;opacity:0.5;stroke:#ff0000;stroke-linecap:square;"/>
   </g>
   <g id="line2d_5">
    <path clip-path="url(#p9fd4257182)" d="
M108 57.1186
L108.064 57.1462
L109.148 57.9577
L112.845 84.8223
L125.851 63.1617
L126.042 63.22
L140.769 95.219
L142.299 105.631
L142.363 106.093
L164.23 319.935
L170.733 321.517
L174.813 321.864
L179.595 321.96
L186.671 321.811
L203.694 321.531
L219.504 322.085
L227.219 322.145
L230.342 322.228
L234.678 322.1
L237.037 321.555
L237.1 321.528
L241.946 312.959
L242.774 309.587
L251.126 291.424
L251.317 290.294
L256.035 226.464
L262.602 141.015
L263.175 138.361
L270.507 114.431
L274.141 100.178
L278.349 86.6094
L281.983 76.5985
L290.27 61.4348
L348.923 67.7135
L350.198 68.6657
L356.383 73.8314
L362.885 79.0129
L364.415 79.929
L378.76 75.8864
L381.629 71.9791
L396.228 59.8684
L398.46 59.6672
L414.78 63.031
L428.296 80.5507
L435.118 81.9604
L435.883 81.6199
L440.919 77.9162
L444.171 74.9615
L446.657 72.8742
L448.442 71.5921
L450.801 70.2586
L452.65 69.5406
L462.85 73.3371
L470.373 87.7383
L474.453 93.1117
L488.543 66.6446
L490.583 63.7053
L500.337 57.8874
L507.669 57.2315
L519.591 56.8582
L556.313 60.5959
L560.457 63.1592
L561.349 63.9192
L563.262 65.8695
L568.617 74.398
L569.701 76.7936
L600.366 67.9379
L605.849 66.6912
L608.59 67.201
L628.162 73.4713
L643.654 78.2168
L645.758 78.5873
L678.91 70.6423
L681.333 69.3426
L700.969 60.0871
L706.77 59.9842
L721.178 63.992
L741.771 82.8867
L748.146 78.1514
L749.357 76.1024
L756.434 63.022
L758.474 60.9122
L758.474 60.9122" style="fill:none;opacity:0.5;stroke:#0000ff;stroke-linecap:square;"/>
   </g>
   <g id="line2d_6">
    <path clip-path="url(#p9fd4257182)" d="
M108 57.2436
L112.845 57.0965
L126.042 56.8636
L140.96 57.5559
L142.363 58.2232
L150.651 69.2439
L153.137 77.865
L154.157 80.0944
L157.409 100.017
L161.553 298.614
L164.294 320.286
L166.143 321.643
L167.227 321.895
L170.733 322.094
L177.3 321.964
L185.779 321.571
L189.222 321.523
L195.278 321.784
L200.187 321.892
L227.219 321.984
L241.946 321.56
L242.774 321.344
L251.126 280.422
L251.317 278.101
L256.099 190.272
L262.538 128.248
L262.602 128.329
L263.175 129.475
L270.124 160.803
L270.507 161.591
L274.141 164.665
L278.349 156.554
L281.983 140.654
L290.207 94.054
L348.923 67.6571
L350.198 69.3286
L356.383 80.8914
L362.885 96.1678
L364.415 99.0537
L378.76 63.8356
L381.693 60.0667
L396.228 59.8194
L398.46 60.9301
L414.78 132.46
L428.232 124.304
L428.296 123.936
L435.118 88.6571
L435.883 85.9202
L440.919 74.7135
L444.171 72.6162
L446.657 72.8291
L448.442 73.7436
L450.801 75.8563
L452.65 78.213
L462.85 100.573
L470.31 115.673
L470.373 115.631
L474.453 103.123
L486.439 65.877
L488.543 65.2211
L490.583 64.9979
L500.337 68.3764
L507.669 82.0697
L519.591 105.603
L556.249 75.4736
L563.262 69.2713
L568.617 65.2596
L569.701 64.5918
L600.366 61.1142
L605.849 63.7437
L608.59 65.8841
L625.74 99.5587
L628.162 101.936
L643.654 80.2849
L645.758 76.9505
L678.846 67.651
L681.333 67.8318
L700.969 72.5972
L706.77 78.4351
L721.178 109.822
L741.707 96.2002
L741.771 95.9503
L748.146 82.2471
L749.357 82.0419
L756.434 82.4684
L758.474 82.9896
L758.474 82.9896" style="fill:none;opacity:0.5;stroke:#ff0000;stroke-linecap:square;"/>
   </g>
   <g id="line2d_7">
    <path clip-path="url(#p9fd4257182)" d="
M108.064 56.936
L112.845 56.8462
L126.042 57.4359
L140.96 78.465
L142.363 78.2585
L150.715 94.4719
L151.543 99.2211
L153.201 110.424
L154.221 119.434
L157.409 175.705
L161.553 301.166
L164.294 317.49
L166.143 319.824
L167.227 320.427
L170.096 321.08
L175.961 321.757
L180.424 321.998
L186.671 321.988
L190.815 321.998
L196.426 322.095
L198.083 321.992
L199.04 321.829
L200.187 321.462
L201.972 320.209
L202.801 319.187
L203.694 317.715
L207.264 313.402
L207.328 313.475
L210.579 319.43
L210.643 319.517
L211.918 320.839
L213.639 321.661
L214.787 321.871
L217.018 321.969
L219.504 321.895
L222.182 321.736
L237.1 321.688
L241.946 320.856
L242.774 320.373
L251.126 258.483
L251.317 256.008
L256.099 173.679
L262.602 117.69
L263.175 117.859
L270.061 126.081
L270.507 125.224
L274.141 109.858
L278.349 78.8367
L290.27 56.5017
L348.923 66.477
L350.198 66.8972
L356.383 69.4093
L362.885 73.0824
L364.415 74.1312
L378.76 93.0922
L381.693 98.9373
L396.228 104.552
L398.46 102.735
L414.78 83.5228
L428.232 90.3332
L428.296 90.2189
L435.883 68.7561
L440.919 60.3095
L444.171 58.5919
L446.657 58.2406
L448.442 58.2303
L450.801 58.469
L452.65 58.8871
L462.85 67.867
L470.373 68.5237
L474.453 66.7692
L486.439 69.4473
L488.543 71.1131
L490.583 72.9031
L500.337 84.0488
L507.605 102.211
L519.591 92.5722
L556.313 76.6215
L560.457 74.9079
L561.349 73.6174
L568.617 59.0585
L569.701 58.3051
L600.366 57.4107
L608.59 57.4975
L625.74 58.6935
L628.162 59.2942
L643.654 72.6799
L645.758 76.7076
L678.846 90.5677
L681.269 86.26
L700.969 76.8682
L706.77 81.3224
L721.178 109.412
L741.707 137.076
L741.771 136.835
L749.357 104.634
L756.434 82.3125
L758.474 78.3114
L758.474 78.3114" style="fill:none;opacity:0.5;stroke:#0000ff;stroke-linecap:square;"/>
   </g>
   <g id="line2d_8">
    <path clip-path="url(#p9fd4257182)" d="
M108 78.6757
L109.148 79.9926
L112.845 80.9462
L126.042 62.3195
L140.705 67.5696
L140.96 68.3619
L142.363 74.6288
L150.715 135.1
L151.543 139.824
L153.201 146.376
L154.221 149.673
L157.409 179.191
L161.553 295.05
L164.294 318.181
L166.143 320.991
L167.227 321.565
L170.096 321.998
L173.347 322.006
L179.212 321.719
L187.755 321.239
L189.732 321.447
L193.621 321.953
L196.426 322.069
L198.083 321.98
L199.04 321.812
L200.187 321.409
L201.908 319.985
L202.482 319.139
L202.801 318.559
L207.264 308.097
L207.328 308.179
L210.643 317.837
L211.918 320.123
L213.575 321.48
L214.723 321.859
L216.954 322.042
L218.867 321.908
L219.441 321.814
L222.182 320.704
L225.752 317.014
L226.39 316.536
L227.219 316.197
L228.239 316.248
L230.342 317.61
L234.678 320.943
L237.1 321.644
L241.946 321.662
L242.774 321.417
L251.317 263.61
L256.099 193.67
L262.602 131.245
L263.175 130.05
L270.124 126.168
L270.507 125.476
L274.141 115.618
L290.27 76.8654
L348.86 72.0208
L350.135 68.9177
L350.198 68.7786
L356.383 60.608
L362.885 58.0192
L364.415 57.7621
L378.76 58.7725
L381.693 60.6115
L396.228 71.8469
L398.46 70.734
L414.78 77.0836
L428.232 109.491
L428.296 109.378
L435.118 87.369
L435.883 84.2057
L440.919 72.0815
L444.171 72.4062
L446.657 74.2477
L448.442 74.9691
L450.801 73.5119
L452.65 71.569
L462.914 60.0622
L470.373 57.5459
L474.453 57.1899
L490.583 57.2795
L507.605 57.3758
L519.591 57.0269
L556.313 59.0911
L560.457 67.0195
L561.349 70.1008
L563.262 78.5511
L569.637 110.823
L569.701 111.115
L600.366 57.7914
L605.849 57.2684
L608.59 57.2118
L645.758 57.086
L678.91 57.8093
L681.333 58.093
L700.969 67.5424
L706.77 76.272
L721.115 108.138
L741.771 76.8517
L748.146 68.6379
L749.357 68.0246
L756.434 61.8016
L758.474 60.4626
L758.474 60.4626" style="fill:none;opacity:0.5;stroke:#0000ff;stroke-linecap:square;"/>
   </g>
   <g id="patch_11">
    <path d="
M108 43.2
L777.6 43.2" style="fill:none;stroke:#000000;stroke-linecap:square;stroke-linejoin:miter;"/>
   </g>
   <g id="patch_12">
    <path d="
M777.6 322.473
L777.6 43.2" style="fill:none;stroke:#000000;stroke-linecap:square;stroke-linejoin:miter;"/>
   </g>
   <g id="patch_13">
    <path d="
M108 322.473
L777.6 322.473" style="fill:none;stroke:#000000;stroke-linecap:square;stroke-linejoin:miter;"/>
   </g>
   <g id="patch_14">
    <path d="
M108 322.473
L108 43.2" style="fill:none;stroke:#000000;stroke-linecap:square;stroke-linejoin:miter;"/>
   </g>
   <g id="matplotlib.axis_1">
    <g id="ytick_1">
     <g id="line2d_9">
      <defs>
       <path d="
M0 0
L4 0" id="m728421d6d4" style="stroke:#000000;stroke-width:0.5;"/>
      </defs>
      <g>
       <use style="stroke:#000000;stroke-width:0.5;" x="108.0" xlink:href="#m728421d6d4" y="322.472727273"/>
      </g>
     </g>
     <g id="line2d_10">
      <defs>
       <path d="
M0 0
L-4 0" id="mcb0005524f" style="stroke:#000000;stroke-width:0.5;"/>
      </defs>
      <g>
       <use style="stroke:#000000;stroke-width:0.5;" x="777.6" xlink:href="#mcb0005524f" y="322.472727273"/>
      </g>
     </g>
     <g id="text_1">
      <!-- 0 -->
      <defs>
       <path d="
M31.7812 66.4062
Q24.1719 66.4062 20.3281 58.9062
Q16.5 51.4219 16.5 36.375
Q16.5 21.3906 20.3281 13.8906
Q24.1719 6.39062 31.7812 6.39062
Q39.4531 6.39062 43.2812 13.8906
Q47.125 21.3906 47.125 36.375
Q47.125 51.4219 43.2812 58.9062
Q39.4531 66.4062 31.7812 66.4062
M31.7812 74.2188
Q44.0469 74.2188 50.5156 64.5156
Q56.9844 54.8281 56.9844 36.375
Q56.9844 17.9688 50.5156 8.26562
Q44.0469 -1.42188 31.7812 -1.42188
Q19.5312 -1.42188 13.0625 8.26562
Q6.59375 17.9688 6.59375 36.375
Q6.59375 54.8281 13.0625 64.5156
Q19.5312 74.2188 31.7812 74.2188" id="DejaVuSans-30"/>
      </defs>
      <g transform="translate(97.953125 325.783977273)scale(0.12 -0.12)">
       <use xlink:href="#DejaVuSans-30"/>
      </g>
     </g>
    </g>
    <g id="ytick_2">
     <g id="line2d_11">
      <g>
       <use style="stroke:#000000;stroke-width:0.5;" x="108.0" xlink:href="#m728421d6d4" y="269.277922078"/>
      </g>
     </g>
     <g id="line2d_12">
      <g>
       <use style="stroke:#000000;stroke-width:0.5;" x="777.6" xlink:href="#mcb0005524f" y="269.277922078"/>
      </g>
     </g>
     <g id="text_2">
      <!-- 20 -->
      <defs>
       <path d="
M19.1875 8.29688
L53.6094 8.29688
L53.6094 0
L7.32812 0
L7.32812 8.29688
Q12.9375 14.1094 22.625 23.8906
Q32.3281 33.6875 34.8125 36.5312
Q39.5469 41.8438 41.4219 45.5312
Q43.3125 49.2188 43.3125 52.7812
Q43.3125 58.5938 39.2344 62.25
Q35.1562 65.9219 28.6094 65.9219
Q23.9688 65.9219 18.8125 64.3125
Q13.6719 62.7031 7.8125 59.4219
L7.8125 69.3906
Q13.7656 71.7812 18.9375 73
Q24.125 74.2188 28.4219 74.2188
Q39.75 74.2188 46.4844 68.5469
Q53.2188 62.8906 53.2188 53.4219
Q53.2188 48.9219 51.5312 44.8906
Q49.8594 40.875 45.4062 35.4062
Q44.1875 33.9844 37.6406 27.2188
Q31.1094 20.4531 19.1875 8.29688" id="DejaVuSans-32"/>
      </defs>
      <g transform="translate(90.40625 272.589172078)scale(0.12 -0.12)">
       <use xlink:href="#DejaVuSans-32"/>
       <use x="63.623046875" xlink:href="#DejaVuSans-30"/>
      </g>
     </g>
    </g>
    <g id="ytick_3">
     <g id="line2d_13">
      <g>
       <use style="stroke:#000000;stroke-width:0.5;" x="108.0" xlink:href="#m728421d6d4" y="216.083116883"/>
      </g>
     </g>
     <g id="line2d_14">
      <g>
       <use style="stroke:#000000;stroke-width:0.5;" x="777.6" xlink:href="#mcb0005524f" y="216.083116883"/>
      </g>
     </g>
     <g id="text_3">
      <!-- 40 -->
      <defs>
       <path d="
M37.7969 64.3125
L12.8906 25.3906
L37.7969 25.3906
z

M35.2031 72.9062
L47.6094 72.9062
L47.6094 25.3906
L58.0156 25.3906
L58.0156 17.1875
L47.6094 17.1875
L47.6094 0
L37.7969 0
L37.7969 17.1875
L4.89062 17.1875
L4.89062 26.7031
z
" id="DejaVuSans-34"/>
      </defs>
      <g transform="translate(90.11375 219.394366883)scale(0.12 -0.12)">
       <use xlink:href="#DejaVuSans-34"/>
       <use x="63.623046875" xlink:href="#DejaVuSans-30"/>
      </g>
     </g>
    </g>
    <g id="ytick_4">
     <g id="line2d_15">
      <g>
       <use style="stroke:#000000;stroke-width:0.5;" x="108.0" xlink:href="#m728421d6d4" y="162.888311688"/>
      </g>
     </g>
     <g id="line2d_16">
      <g>
       <use style="stroke:#000000;stroke-width:0.5;" x="777.6" xlink:href="#mcb0005524f" y="162.888311688"/>
      </g>
     </g>
     <g id="text_4">
      <!-- 60 -->
      <defs>
       <path d="
M33.0156 40.375
Q26.375 40.375 22.4844 35.8281
Q18.6094 31.2969 18.6094 23.3906
Q18.6094 15.5312 22.4844 10.9531
Q26.375 6.39062 33.0156 6.39062
Q39.6562 6.39062 43.5312 10.9531
Q47.4062 15.5312 47.4062 23.3906
Q47.4062 31.2969 43.5312 35.8281
Q39.6562 40.375 33.0156 40.375
M52.5938 71.2969
L52.5938 62.3125
Q48.875 64.0625 45.0938 64.9844
Q41.3125 65.9219 37.5938 65.9219
Q27.8281 65.9219 22.6719 59.3281
Q17.5312 52.7344 16.7969 39.4062
Q19.6719 43.6562 24.0156 45.9219
Q28.375 48.1875 33.5938 48.1875
Q44.5781 48.1875 50.9531 41.5156
Q57.3281 34.8594 57.3281 23.3906
Q57.3281 12.1562 50.6875 5.35938
Q44.0469 -1.42188 33.0156 -1.42188
Q20.3594 -1.42188 13.6719 8.26562
Q6.98438 17.9688 6.98438 36.375
Q6.98438 53.6562 15.1875 63.9375
Q23.3906 74.2188 37.2031 74.2188
Q40.9219 74.2188 44.7031 73.4844
Q48.4844 72.75 52.5938 71.2969" id="DejaVuSans-36"/>
      </defs>
      <g transform="translate(90.365 166.199561688)scale(0.12 -0.12)">
       <use xlink:href="#DejaVuSans-36"/>
       <use x="63.623046875" xlink:href="#DejaVuSans-30"/>
      </g>
     </g>
    </g>
    <g id="ytick_5">
     <g id="line2d_17">
      <g>
       <use style="stroke:#000000;stroke-width:0.5;" x="108.0" xlink:href="#m728421d6d4" y="109.693506494"/>
      </g>
     </g>
     <g id="line2d_18">
      <g>
       <use style="stroke:#000000;stroke-width:0.5;" x="777.6" xlink:href="#mcb0005524f" y="109.693506494"/>
      </g>
     </g>
     <g id="text_5">
      <!-- 80 -->
      <defs>
       <path d="
M31.7812 34.625
Q24.75 34.625 20.7188 30.8594
Q16.7031 27.0938 16.7031 20.5156
Q16.7031 13.9219 20.7188 10.1562
Q24.75 6.39062 31.7812 6.39062
Q38.8125 6.39062 42.8594 10.1719
Q46.9219 13.9688 46.9219 20.5156
Q46.9219 27.0938 42.8906 30.8594
Q38.875 34.625 31.7812 34.625
M21.9219 38.8125
Q15.5781 40.375 12.0312 44.7188
Q8.5 49.0781 8.5 55.3281
Q8.5 64.0625 14.7188 69.1406
Q20.9531 74.2188 31.7812 74.2188
Q42.6719 74.2188 48.875 69.1406
Q55.0781 64.0625 55.0781 55.3281
Q55.0781 49.0781 51.5312 44.7188
Q48 40.375 41.7031 38.8125
Q48.8281 37.1562 52.7969 32.3125
Q56.7812 27.4844 56.7812 20.5156
Q56.7812 9.90625 50.3125 4.23438
Q43.8438 -1.42188 31.7812 -1.42188
Q19.7344 -1.42188 13.25 4.23438
Q6.78125 9.90625 6.78125 20.5156
Q6.78125 27.4844 10.7812 32.3125
Q14.7969 37.1562 21.9219 38.8125
M18.3125 54.3906
Q18.3125 48.7344 21.8438 45.5625
Q25.3906 42.3906 31.7812 42.3906
Q38.1406 42.3906 41.7188 45.5625
Q45.3125 48.7344 45.3125 54.3906
Q45.3125 60.0625 41.7188 63.2344
Q38.1406 66.4062 31.7812 66.4062
Q25.3906 66.4062 21.8438 63.2344
Q18.3125 60.0625 18.3125 54.3906" id="DejaVuSans-38"/>
      </defs>
      <g transform="translate(90.340625 113.004756494)scale(0.12 -0.12)">
       <use xlink:href="#DejaVuSans-38"/>
       <use x="63.623046875" xlink:href="#DejaVuSans-30"/>
      </g>
     </g>
    </g>
    <g id="ytick_6">
     <g id="line2d_19">
      <g>
       <use style="stroke:#000000;stroke-width:0.5;" x="108.0" xlink:href="#m728421d6d4" y="56.4987012987"/>
      </g>
     </g>
     <g id="line2d_20">
      <g>
       <use style="stroke:#000000;stroke-width:0.5;" x="777.6" xlink:href="#mcb0005524f" y="56.4987012987"/>
      </g>
     </g>
     <g id="text_6">
      <!-- 100 -->
      <defs>
       <path d="
M12.4062 8.29688
L28.5156 8.29688
L28.5156 63.9219
L10.9844 60.4062
L10.9844 69.3906
L28.4219 72.9062
L38.2812 72.9062
L38.2812 8.29688
L54.3906 8.29688
L54.3906 0
L12.4062 0
z
" id="DejaVuSans-31"/>
      </defs>
      <g transform="translate(83.21 59.8099512987)scale(0.12 -0.12)">
       <use xlink:href="#DejaVuSans-31"/>
       <use x="63.623046875" xlink:href="#DejaVuSans-30"/>
       <use x="127.24609375" xlink:href="#DejaVuSans-30"/>
      </g>
     </g>
    </g>
    <g id="text_7">
     <!-- Methylation -->
     <defs>
      <path d="
M9.8125 72.9062
L24.5156 72.9062
L43.1094 23.2969
L61.8125 72.9062
L76.5156 72.9062
L76.5156 0
L66.8906 0
L66.8906 64.0156
L48.0938 14.0156
L38.1875 14.0156
L19.3906 64.0156
L19.3906 0
L9.8125 0
z
" id="DejaVuSans-4d"/>
      <path d="
M30.6094 48.3906
Q23.3906 48.3906 19.1875 42.75
Q14.9844 37.1094 14.9844 27.2969
Q14.9844 17.4844 19.1562 11.8438
Q23.3438 6.20312 30.6094 6.20312
Q37.7969 6.20312 41.9844 11.8594
Q46.1875 17.5312 46.1875 27.2969
Q46.1875 37.0156 41.9844 42.7031
Q37.7969 48.3906 30.6094 48.3906
M30.6094 56
Q42.3281 56 49.0156 48.375
Q55.7188 40.7656 55.7188 27.2969
Q55.7188 13.875 49.0156 6.21875
Q42.3281 -1.42188 30.6094 -1.42188
Q18.8438 -1.42188 12.1719 6.21875
Q5.51562 13.875 5.51562 27.2969
Q5.51562 40.7656 12.1719 48.375
Q18.8438 56 30.6094 56" id="DejaVuSans-6f"/>
      <path d="
M54.8906 33.0156
L54.8906 0
L45.9062 0
L45.9062 32.7188
Q45.9062 40.4844 42.875 44.3281
Q39.8438 48.1875 33.7969 48.1875
Q26.5156 48.1875 22.3125 43.5469
Q18.1094 38.9219 18.1094 30.9062
L18.1094 0
L9.07812 0
L9.07812 54.6875
L18.1094 54.6875
L18.1094 46.1875
Q21.3438 51.125 25.7031 53.5625
Q30.0781 56 35.7969 56
Q45.2188 56 50.0469 50.1719
Q54.8906 44.3438 54.8906 33.0156" id="DejaVuSans-6e"/>
      <path d="
M9.42188 75.9844
L18.4062 75.9844
L18.4062 0
L9.42188 0
z
" id="DejaVuSans-6c"/>
      <path d="
M32.1719 -5.07812
Q28.375 -14.8438 24.75 -17.8125
Q21.1406 -20.7969 15.0938 -20.7969
L7.90625 -20.7969
L7.90625 -13.2812
L13.1875 -13.2812
Q16.8906 -13.2812 18.9375 -11.5156
Q21 -9.76562 23.4844 -3.21875
L25.0938 0.875
L2.98438 54.6875
L12.5 54.6875
L29.5938 11.9219
L46.6875 54.6875
L56.2031 54.6875
z
" id="DejaVuSans-79"/>
      <path d="
M54.8906 33.0156
L54.8906 0
L45.9062 0
L45.9062 32.7188
Q45.9062 40.4844 42.875 44.3281
Q39.8438 48.1875 33.7969 48.1875
Q26.5156 48.1875 22.3125 43.5469
Q18.1094 38.9219 18.1094 30.9062
L18.1094 0
L9.07812 0
L9.07812 75.9844
L18.1094 75.9844
L18.1094 46.1875
Q21.3438 51.125 25.7031 53.5625
Q30.0781 56 35.7969 56
Q45.2188 56 50.0469 50.1719
Q54.8906 44.3438 54.8906 33.0156" id="DejaVuSans-68"/>
      <path d="
M9.42188 54.6875
L18.4062 54.6875
L18.4062 0
L9.42188 0
z

M9.42188 75.9844
L18.4062 75.9844
L18.4062 64.5938
L9.42188 64.5938
z
" id="DejaVuSans-69"/>
      <path d="
M18.3125 70.2188
L18.3125 54.6875
L36.8125 54.6875
L36.8125 47.7031
L18.3125 47.7031
L18.3125 18.0156
Q18.3125 11.3281 20.1406 9.42188
Q21.9688 7.51562 27.5938 7.51562
L36.8125 7.51562
L36.8125 0
L27.5938 0
Q17.1875 0 13.2344 3.875
Q9.28125 7.76562 9.28125 18.0156
L9.28125 47.7031
L2.6875 47.7031
L2.6875 54.6875
L9.28125 54.6875
L9.28125 70.2188
z
" id="DejaVuSans-74"/>
      <path d="
M56.2031 29.5938
L56.2031 25.2031
L14.8906 25.2031
Q15.4844 15.9219 20.4844 11.0625
Q25.4844 6.20312 34.4219 6.20312
Q39.5938 6.20312 44.4531 7.46875
Q49.3125 8.73438 54.1094 11.2812
L54.1094 2.78125
Q49.2656 0.734375 44.1875 -0.34375
Q39.1094 -1.42188 33.8906 -1.42188
Q20.7969 -1.42188 13.1562 6.1875
Q5.51562 13.8125 5.51562 26.8125
Q5.51562 40.2344 12.7656 48.1094
Q20.0156 56 32.3281 56
Q43.3594 56 49.7812 48.8906
Q56.2031 41.7969 56.2031 29.5938
M47.2188 32.2344
Q47.125 39.5938 43.0938 43.9844
Q39.0625 48.3906 32.4219 48.3906
Q24.9062 48.3906 20.3906 44.1406
Q15.875 39.8906 15.1875 32.1719
z
" id="DejaVuSans-65"/>
      <path d="
M34.2812 27.4844
Q23.3906 27.4844 19.1875 25
Q14.9844 22.5156 14.9844 16.5
Q14.9844 11.7188 18.1406 8.90625
Q21.2969 6.10938 26.7031 6.10938
Q34.1875 6.10938 38.7031 11.4062
Q43.2188 16.7031 43.2188 25.4844
L43.2188 27.4844
z

M52.2031 31.2031
L52.2031 0
L43.2188 0
L43.2188 8.29688
Q40.1406 3.32812 35.5469 0.953125
Q30.9531 -1.42188 24.3125 -1.42188
Q15.9219 -1.42188 10.9531 3.29688
Q6 8.01562 6 15.9219
Q6 25.1406 12.1719 29.8281
Q18.3594 34.5156 30.6094 34.5156
L43.2188 34.5156
L43.2188 35.4062
Q43.2188 41.6094 39.1406 45
Q35.0625 48.3906 27.6875 48.3906
Q23 48.3906 18.5469 47.2656
Q14.1094 46.1406 10.0156 43.8906
L10.0156 52.2031
Q14.9375 54.1094 19.5781 55.0469
Q24.2188 56 28.6094 56
Q40.4844 56 46.3438 49.8438
Q52.2031 43.7031 52.2031 31.2031" id="DejaVuSans-61"/>
     </defs>
     <g transform="translate(75.714375 217.149801136)rotate(-90.0)scale(0.12 -0.12)">
      <use xlink:href="#DejaVuSans-4d"/>
      <use x="86.279296875" xlink:href="#DejaVuSans-65"/>
      <use x="147.802734375" xlink:href="#DejaVuSans-74"/>
      <use x="187.01171875" xlink:href="#DejaVuSans-68"/>
      <use x="250.390625" xlink:href="#DejaVuSans-79"/>
      <use x="309.5703125" xlink:href="#DejaVuSans-6c"/>
      <use x="337.353515625" xlink:href="#DejaVuSans-61"/>
      <use x="398.6328125" xlink:href="#DejaVuSans-74"/>
      <use x="437.841796875" xlink:href="#DejaVuSans-69"/>
      <use x="465.625" xlink:href="#DejaVuSans-6f"/>
      <use x="526.806640625" xlink:href="#DejaVuSans-6e"/>
     </g>
    </g>
   </g>
  </g>
  <g id="axes_2">
   <g id="patch_15">
    <path d="
M108 388.8
L777.6 388.8
L777.6 353.891
L108 353.891
z
" style="fill:#ffffff;"/>
   </g>
   <g id="line2d_21">
    <path clip-path="url(#pc82b1f09f0)" d="
M108 371.345
L777.6 371.345" style="fill:none;stroke:#000000;stroke-linecap:square;"/>
   </g>
   <g id="line2d_22">
    <path clip-path="url(#pc82b1f09f0)" d="
M171.753 371.345
L713.847 371.345" style="fill:none;stroke:#008000;stroke-linecap:square;stroke-width:3;"/>
   </g>
   <g id="patch_16">
    <path clip-path="url(#pc82b1f09f0)" d="
M171.753 388.8
L180.934 388.8
L180.934 353.891
L171.753 353.891
z
" style="fill:#008000;"/>
   </g>
   <g id="patch_17">
    <path clip-path="url(#pc82b1f09f0)" d="
M258.968 388.8
L263.367 388.8
L263.367 353.891
L258.968 353.891
z
" style="fill:#008000;"/>
   </g>
   <g id="patch_18">
    <path clip-path="url(#pc82b1f09f0)" d="
M268.658 388.8
L275.99 388.8
L275.99 353.891
L268.658 353.891
z
" style="fill:#008000;"/>
   </g>
   <g id="patch_19">
    <path clip-path="url(#pc82b1f09f0)" d="
M348.158 388.8
L356.701 388.8
L356.701 353.891
L348.158 353.891
z
" style="fill:#008000;"/>
   </g>
   <g id="patch_20">
    <path clip-path="url(#pc82b1f09f0)" d="
M373.468 388.8
L386.347 388.8
L386.347 353.891
L373.468 353.891
z
" style="fill:#008000;"/>
   </g>
   <g id="patch_21">
    <path clip-path="url(#pc82b1f09f0)" d="
M440.473 388.8
L451.757 388.8
L451.757 353.891
L440.473 353.891
z
" style="fill:#008000;"/>
   </g>
   <g id="patch_22">
    <path clip-path="url(#pc82b1f09f0)" d="
M598.071 388.8
L603.681 388.8
L603.681 353.891
L598.071 353.891
z
" style="fill:#008000;"/>
   </g>
   <g id="patch_23">
    <path clip-path="url(#pc82b1f09f0)" d="
M643.208 388.8
L713.847 388.8
L713.847 353.891
L643.208 353.891
z
" style="fill:#008000;"/>
   </g>
   <g id="patch_24">
    <path d="
M108 353.891
L777.6 353.891" style="fill:none;"/>
   </g>
   <g id="patch_25">
    <path d="
M777.6 388.8
L777.6 353.891" style="fill:none;"/>
   </g>
   <g id="patch_26">
    <path d="
M108 388.8
L777.6 388.8" style="fill:none;"/>
   </g>
   <g id="patch_27">
    <path d="
M108 388.8
L108 353.891" style="fill:none;"/>
   </g>
   <g id="matplotlib.axis_2">
    <g id="xtick_1">
     <g id="line2d_23">
      <defs>
       <path d="
M0 0
L0 -4" id="m93b0483c22" style="stroke:#000000;stroke-width:0.5;"/>
      </defs>
      <g>
       <use style="stroke:#000000;stroke-width:0.5;" x="139.749100258" xlink:href="#m93b0483c22" y="388.8"/>
      </g>
     </g>
     <g id="line2d_24">
      <defs>
       <path d="
M0 0
L0 4" id="m741efc42ff" style="stroke:#000000;stroke-width:0.5;"/>
      </defs>
      <g>
       <use style="stroke:#000000;stroke-width:0.5;" x="139.749100258" xlink:href="#m741efc42ff" y="353.890909091"/>
      </g>
     </g>
     <g id="text_8">
      <!-- 1000 -->
      <g transform="translate(125.536600258 401.918125)scale(0.12 -0.12)">
       <use xlink:href="#DejaVuSans-31"/>
       <use x="63.623046875" xlink:href="#DejaVuSans-30"/>
       <use x="127.24609375" xlink:href="#DejaVuSans-30"/>
       <use x="190.869140625" xlink:href="#DejaVuSans-30"/>
      </g>
     </g>
    </g>
    <g id="xtick_2">
     <g id="line2d_25">
      <g>
       <use style="stroke:#000000;stroke-width:0.5;" x="267.255526992" xlink:href="#m93b0483c22" y="388.8"/>
      </g>
     </g>
     <g id="line2d_26">
      <g>
       <use style="stroke:#000000;stroke-width:0.5;" x="267.255526992" xlink:href="#m741efc42ff" y="353.890909091"/>
      </g>
     </g>
     <g id="text_9">
      <!-- 2000 -->
      <g transform="translate(252.823651992 401.918125)scale(0.12 -0.12)">
       <use xlink:href="#DejaVuSans-32"/>
       <use x="63.623046875" xlink:href="#DejaVuSans-30"/>
       <use x="127.24609375" xlink:href="#DejaVuSans-30"/>
       <use x="190.869140625" xlink:href="#DejaVuSans-30"/>
      </g>
     </g>
    </g>
    <g id="xtick_3">
     <g id="line2d_27">
      <g>
       <use style="stroke:#000000;stroke-width:0.5;" x="394.761953728" xlink:href="#m93b0483c22" y="388.8"/>
      </g>
     </g>
     <g id="line2d_28">
      <g>
       <use style="stroke:#000000;stroke-width:0.5;" x="394.761953728" xlink:href="#m741efc42ff" y="353.890909091"/>
      </g>
     </g>
     <g id="text_10">
      <!-- 3000 -->
      <defs>
       <path d="
M40.5781 39.3125
Q47.6562 37.7969 51.625 33
Q55.6094 28.2188 55.6094 21.1875
Q55.6094 10.4062 48.1875 4.48438
Q40.7656 -1.42188 27.0938 -1.42188
Q22.5156 -1.42188 17.6562 -0.515625
Q12.7969 0.390625 7.625 2.20312
L7.625 11.7188
Q11.7188 9.32812 16.5938 8.10938
Q21.4844 6.89062 26.8125 6.89062
Q36.0781 6.89062 40.9375 10.5469
Q45.7969 14.2031 45.7969 21.1875
Q45.7969 27.6406 41.2812 31.2656
Q36.7656 34.9062 28.7188 34.9062
L20.2188 34.9062
L20.2188 43.0156
L29.1094 43.0156
Q36.375 43.0156 40.2344 45.9219
Q44.0938 48.8281 44.0938 54.2969
Q44.0938 59.9062 40.1094 62.9062
Q36.1406 65.9219 28.7188 65.9219
Q24.6562 65.9219 20.0156 65.0312
Q15.375 64.1562 9.8125 62.3125
L9.8125 71.0938
Q15.4375 72.6562 20.3438 73.4375
Q25.25 74.2188 29.5938 74.2188
Q40.8281 74.2188 47.3594 69.1094
Q53.9062 64.0156 53.9062 55.3281
Q53.9062 49.2656 50.4375 45.0938
Q46.9688 40.9219 40.5781 39.3125" id="DejaVuSans-33"/>
      </defs>
      <g transform="translate(380.347891228 401.918125)scale(0.12 -0.12)">
       <use xlink:href="#DejaVuSans-33"/>
       <use x="63.623046875" xlink:href="#DejaVuSans-30"/>
       <use x="127.24609375" xlink:href="#DejaVuSans-30"/>
       <use x="190.869140625" xlink:href="#DejaVuSans-30"/>
      </g>
     </g>
    </g>
    <g id="xtick_4">
     <g id="line2d_29">
      <g>
       <use style="stroke:#000000;stroke-width:0.5;" x="522.268380463" xlink:href="#m93b0483c22" y="388.8"/>
      </g>
     </g>
     <g id="line2d_30">
      <g>
       <use style="stroke:#000000;stroke-width:0.5;" x="522.268380463" xlink:href="#m741efc42ff" y="353.890909091"/>
      </g>
     </g>
     <g id="text_11">
      <!-- 4000 -->
      <g transform="translate(507.690255463 401.918125)scale(0.12 -0.12)">
       <use xlink:href="#DejaVuSans-34"/>
       <use x="63.623046875" xlink:href="#DejaVuSans-30"/>
       <use x="127.24609375" xlink:href="#DejaVuSans-30"/>
       <use x="190.869140625" xlink:href="#DejaVuSans-30"/>
      </g>
     </g>
    </g>
    <g id="xtick_5">
     <g id="line2d_31">
      <g>
       <use style="stroke:#000000;stroke-width:0.5;" x="649.774807198" xlink:href="#m93b0483c22" y="388.8"/>
      </g>
     </g>
     <g id="line2d_32">
      <g>
       <use style="stroke:#000000;stroke-width:0.5;" x="649.774807198" xlink:href="#m741efc42ff" y="353.890909091"/>
      </g>
     </g>
     <g id="text_12">
      <!-- 5000 -->
      <defs>
       <path d="
M10.7969 72.9062
L49.5156 72.9062
L49.5156 64.5938
L19.8281 64.5938
L19.8281 46.7344
Q21.9688 47.4688 24.1094 47.8281
Q26.2656 48.1875 28.4219 48.1875
Q40.625 48.1875 47.75 41.5
Q54.8906 34.8125 54.8906 23.3906
Q54.8906 11.625 47.5625 5.09375
Q40.2344 -1.42188 26.9062 -1.42188
Q22.3125 -1.42188 17.5469 -0.640625
Q12.7969 0.140625 7.71875 1.70312
L7.71875 11.625
Q12.1094 9.23438 16.7969 8.0625
Q21.4844 6.89062 26.7031 6.89062
Q35.1562 6.89062 40.0781 11.3281
Q45.0156 15.7656 45.0156 23.3906
Q45.0156 31 40.0781 35.4375
Q35.1562 39.8906 26.7031 39.8906
Q22.75 39.8906 18.8125 39.0156
Q14.8906 38.1406 10.7969 36.2812
z
" id="DejaVuSans-35"/>
      </defs>
      <g transform="translate(635.366369698 401.918125)scale(0.12 -0.12)">
       <use xlink:href="#DejaVuSans-35"/>
       <use x="63.623046875" xlink:href="#DejaVuSans-30"/>
       <use x="127.24609375" xlink:href="#DejaVuSans-30"/>
       <use x="190.869140625" xlink:href="#DejaVuSans-30"/>
      </g>
     </g>
    </g>
    <g id="xtick_6">
     <g id="line2d_33">
      <g>
       <use style="stroke:#000000;stroke-width:0.5;" x="777.281233934" xlink:href="#m93b0483c22" y="388.8"/>
      </g>
     </g>
     <g id="line2d_34">
      <g>
       <use style="stroke:#000000;stroke-width:0.5;" x="777.281233934" xlink:href="#m741efc42ff" y="353.890909091"/>
      </g>
     </g>
     <g id="text_13">
      <!-- 6000 -->
      <g transform="translate(762.828733934 401.918125)scale(0.12 -0.12)">
       <use xlink:href="#DejaVuSans-36"/>
       <use x="63.623046875" xlink:href="#DejaVuSans-30"/>
       <use x="127.24609375" xlink:href="#DejaVuSans-30"/>
       <use x="190.869140625" xlink:href="#DejaVuSans-30"/>
      </g>
     </g>
    </g>
    <g id="text_14">
     <!-- Length (bp) -->
     <defs>
      <path d="
M9.8125 72.9062
L19.6719 72.9062
L19.6719 8.29688
L55.1719 8.29688
L55.1719 0
L9.8125 0
z
" id="DejaVuSans-4c"/>
      <path id="DejaVuSans-20"/>
      <path d="
M45.4062 27.9844
Q45.4062 37.75 41.375 43.1094
Q37.3594 48.4844 30.0781 48.4844
Q22.8594 48.4844 18.8281 43.1094
Q14.7969 37.75 14.7969 27.9844
Q14.7969 18.2656 18.8281 12.8906
Q22.8594 7.51562 30.0781 7.51562
Q37.3594 7.51562 41.375 12.8906
Q45.4062 18.2656 45.4062 27.9844
M54.3906 6.78125
Q54.3906 -7.17188 48.1875 -13.9844
Q42 -20.7969 29.2031 -20.7969
Q24.4688 -20.7969 20.2656 -20.0938
Q16.0625 -19.3906 12.1094 -17.9219
L12.1094 -9.1875
Q16.0625 -11.3281 19.9219 -12.3438
Q23.7812 -13.375 27.7812 -13.375
Q36.625 -13.375 41.0156 -8.76562
Q45.4062 -4.15625 45.4062 5.17188
L45.4062 9.625
Q42.625 4.78125 38.2812 2.39062
Q33.9375 0 27.875 0
Q17.8281 0 11.6719 7.65625
Q5.51562 15.3281 5.51562 27.9844
Q5.51562 40.6719 11.6719 48.3281
Q17.8281 56 27.875 56
Q33.9375 56 38.2812 53.6094
Q42.625 51.2188 45.4062 46.3906
L45.4062 54.6875
L54.3906 54.6875
z
" id="DejaVuSans-67"/>
      <path d="
M31 75.875
Q24.4688 64.6562 21.2812 53.6562
Q18.1094 42.6719 18.1094 31.3906
Q18.1094 20.125 21.3125 9.0625
Q24.5156 -2 31 -13.1875
L23.1875 -13.1875
Q15.875 -1.70312 12.2344 9.375
Q8.59375 20.4531 8.59375 31.3906
Q8.59375 42.2812 12.2031 53.3125
Q15.8281 64.3594 23.1875 75.875
z
" id="DejaVuSans-28"/>
      <path d="
M8.01562 75.875
L15.8281 75.875
Q23.1406 64.3594 26.7812 53.3125
Q30.4219 42.2812 30.4219 31.3906
Q30.4219 20.4531 26.7812 9.375
Q23.1406 -1.70312 15.8281 -13.1875
L8.01562 -13.1875
Q14.5 -2 17.7031 9.0625
Q20.9062 20.125 20.9062 31.3906
Q20.9062 42.6719 17.7031 53.6562
Q14.5 64.6562 8.01562 75.875" id="DejaVuSans-29"/>
      <path d="
M48.6875 27.2969
Q48.6875 37.2031 44.6094 42.8438
Q40.5312 48.4844 33.4062 48.4844
Q26.2656 48.4844 22.1875 42.8438
Q18.1094 37.2031 18.1094 27.2969
Q18.1094 17.3906 22.1875 11.75
Q26.2656 6.10938 33.4062 6.10938
Q40.5312 6.10938 44.6094 11.75
Q48.6875 17.3906 48.6875 27.2969
M18.1094 46.3906
Q20.9531 51.2656 25.2656 53.625
Q29.5938 56 35.5938 56
Q45.5625 56 51.7812 48.0938
Q58.0156 40.1875 58.0156 27.2969
Q58.0156 14.4062 51.7812 6.48438
Q45.5625 -1.42188 35.5938 -1.42188
Q29.5938 -1.42188 25.2656 0.953125
Q20.9531 3.32812 18.1094 8.20312
L18.1094 0
L9.07812 0
L9.07812 75.9844
L18.1094 75.9844
z
" id="DejaVuSans-62"/>
      <path d="
M18.1094 8.20312
L18.1094 -20.7969
L9.07812 -20.7969
L9.07812 54.6875
L18.1094 54.6875
L18.1094 46.3906
Q20.9531 51.2656 25.2656 53.625
Q29.5938 56 35.5938 56
Q45.5625 56 51.7812 48.0938
Q58.0156 40.1875 58.0156 27.2969
Q58.0156 14.4062 51.7812 6.48438
Q45.5625 -1.42188 35.5938 -1.42188
Q29.5938 -1.42188 25.2656 0.953125
Q20.9531 3.32812 18.1094 8.20312
M48.6875 27.2969
Q48.6875 37.2031 44.6094 42.8438
Q40.5312 48.4844 33.4062 48.4844
Q26.2656 48.4844 22.1875 42.8438
Q18.1094 37.2031 18.1094 27.2969
Q18.1094 17.3906 22.1875 11.75
Q26.2656 6.10938 33.4062 6.10938
Q40.5312 6.10938 44.6094 11.75
Q48.6875 17.3906 48.6875 27.2969" id="DejaVuSans-70"/>
     </defs>
     <g transform="translate(408.4125 418.531875)scale(0.12 -0.12)">
      <use xlink:href="#DejaVuSans-4c"/>
      <use x="53.962890625" xlink:href="#DejaVuSans-65"/>
      <use x="115.486328125" xlink:href="#DejaVuSans-6e"/>
      <use x="178.865234375" xlink:href="#DejaVuSans-67"/>
      <use x="242.341796875" xlink:href="#DejaVuSans-74"/>
      <use x="281.55078125" xlink:href="#DejaVuSans-68"/>
      <use x="344.9296875" xlink:href="#DejaVuSans-20"/>
      <use x="376.716796875" xlink:href="#DejaVuSans-28"/>
      <use x="415.73046875" xlink:href="#DejaVuSans-62"/>
      <use x="479.20703125" xlink:href="#DejaVuSans-70"/>
      <use x="542.68359375" xlink:href="#DejaVuSans-29"/>
     </g>
     <!-- chr5:107900502-107909005 -->
     <defs>
      <path d="
M11.7188 12.4062
L22.0156 12.4062
L22.0156 0
L11.7188 0
z

M11.7188 51.7031
L22.0156 51.7031
L22.0156 39.3125
L11.7188 39.3125
z
" id="DejaVuSans-3a"/>
      <path d="
M4.89062 31.3906
L31.2031 31.3906
L31.2031 23.3906
L4.89062 23.3906
z
" id="DejaVuSans-2d"/>
      <path d="
M8.20312 72.9062
L55.0781 72.9062
L55.0781 68.7031
L28.6094 0
L18.3125 0
L43.2188 64.5938
L8.20312 64.5938
z
" id="DejaVuSans-37"/>
      <path d="
M10.9844 1.51562
L10.9844 10.5
Q14.7031 8.73438 18.5 7.8125
Q22.3125 6.89062 25.9844 6.89062
Q35.75 6.89062 40.8906 13.4531
Q46.0469 20.0156 46.7812 33.4062
Q43.9531 29.2031 39.5938 26.9531
Q35.25 24.7031 29.9844 24.7031
Q19.0469 24.7031 12.6719 31.3125
Q6.29688 37.9375 6.29688 49.4219
Q6.29688 60.6406 12.9375 67.4219
Q19.5781 74.2188 30.6094 74.2188
Q43.2656 74.2188 49.9219 64.5156
Q56.5938 54.8281 56.5938 36.375
Q56.5938 19.1406 48.4062 8.85938
Q40.2344 -1.42188 26.4219 -1.42188
Q22.7031 -1.42188 18.8906 -0.6875
Q15.0938 0.046875 10.9844 1.51562
M30.6094 32.4219
Q37.25 32.4219 41.125 36.9531
Q45.0156 41.5 45.0156 49.4219
Q45.0156 57.2812 41.125 61.8438
Q37.25 66.4062 30.6094 66.4062
Q23.9688 66.4062 20.0938 61.8438
Q16.2188 57.2812 16.2188 49.4219
Q16.2188 41.5 20.0938 36.9531
Q23.9688 32.4219 30.6094 32.4219" id="DejaVuSans-39"/>
      <path d="
M48.7812 52.5938
L48.7812 44.1875
Q44.9688 46.2969 41.1406 47.3438
Q37.3125 48.3906 33.4062 48.3906
Q24.6562 48.3906 19.8125 42.8438
Q14.9844 37.3125 14.9844 27.2969
Q14.9844 17.2812 19.8125 11.7344
Q24.6562 6.20312 33.4062 6.20312
Q37.3125 6.20312 41.1406 7.25
Q44.9688 8.29688 48.7812 10.4062
L48.7812 2.09375
Q45.0156 0.34375 40.9844 -0.53125
Q36.9688 -1.42188 32.4219 -1.42188
Q20.0625 -1.42188 12.7812 6.34375
Q5.51562 14.1094 5.51562 27.2969
Q5.51562 40.6719 12.8594 48.3281
Q20.2188 56 33.0156 56
Q37.1562 56 41.1094 55.1406
Q45.0625 54.2969 48.7812 52.5938" id="DejaVuSans-63"/>
      <path d="
M41.1094 46.2969
Q39.5938 47.1719 37.8125 47.5781
Q36.0312 48 33.8906 48
Q26.2656 48 22.1875 43.0469
Q18.1094 38.0938 18.1094 28.8125
L18.1094 0
L9.07812 0
L9.07812 54.6875
L18.1094 54.6875
L18.1094 46.1875
Q20.9531 51.1719 25.4844 53.5781
Q30.0312 56 36.5312 56
Q37.4531 56 38.5781 55.875
Q39.7031 55.7656 41.0625 55.5156
z
" id="DejaVuSans-72"/>
     </defs>
     <g transform="translate(357.3684375 431.96925)scale(0.12 -0.12)">
      <use xlink:href="#DejaVuSans-63"/>
      <use x="54.98046875" xlink:href="#DejaVuSans-68"/>
      <use x="118.359375" xlink:href="#DejaVuSans-72"/>
      <use x="159.47265625" xlink:href="#DejaVuSans-35"/>
      <use x="223.095703125" xlink:href="#DejaVuSans-3a"/>
      <use x="256.787109375" xlink:href="#DejaVuSans-31"/>
      <use x="320.41015625" xlink:href="#DejaVuSans-30"/>
      <use x="384.033203125" xlink:href="#DejaVuSans-37"/>
      <use x="447.65625" xlink:href="#DejaVuSans-39"/>
      <use x="511.279296875" xlink:href="#DejaVuSans-30"/>
      <use x="574.90234375" xlink:href="#DejaVuSans-30"/>
      <use x="638.525390625" xlink:href="#DejaVuSans-35"/>
      <use x="702.1484375" xlink:href="#DejaVuSans-30"/>
      <use x="765.771484375" xlink:href="#DejaVuSans-32"/>
      <use x="829.39453125" xlink:href="#DejaVuSans-2d"/>
      <use x="865.478515625" xlink:href="#DejaVuSans-31"/>
      <use x="929.1015625" xlink:href="#DejaVuSans-30"/>
      <use x="992.724609375" xlink:href="#DejaVuSans-37"/>
      <use x="1056.34765625" xlink:href="#DejaVuSans-39"/>
      <use x="1119.97070312" xlink:href="#DejaVuSans-30"/>
      <use x="1183.59375" xlink:href="#DejaVuSans-39"/>
      <use x="1247.21679688" xlink:href="#DejaVuSans-30"/>
      <use x="1310.83984375" xlink:href="#DejaVuSans-30"/>
      <use x="1374.46289062" xlink:href="#DejaVuSans-35"/>
     </g>
    </g>
   </g>
  </g>
  <g id="text_15">
   <!-- ENSMUST00000082223 (Rpl5) -->
   <defs>
    <path d="
M9.8125 72.9062
L23.0938 72.9062
L55.4219 11.9219
L55.4219 72.9062
L64.9844 72.9062
L64.9844 0
L51.7031 0
L19.3906 60.9844
L19.3906 0
L9.8125 0
z
" id="DejaVuSans-4e"/>
    <path d="
M9.8125 72.9062
L55.9062 72.9062
L55.9062 64.5938
L19.6719 64.5938
L19.6719 43.0156
L54.3906 43.0156
L54.3906 34.7188
L19.6719 34.7188
L19.6719 8.29688
L56.7812 8.29688
L56.7812 0
L9.8125 0
z
" id="DejaVuSans-45"/>
    <path d="
M53.5156 70.5156
L53.5156 60.8906
Q47.9062 63.5781 42.9219 64.8906
Q37.9375 66.2188 33.2969 66.2188
Q25.25 66.2188 20.875 63.0938
Q16.5 59.9688 16.5 54.2031
Q16.5 49.3594 19.4062 46.8906
Q22.3125 44.4375 30.4219 42.9219
L36.375 41.7031
Q47.4062 39.5938 52.6562 34.2969
Q57.9062 29 57.9062 20.125
Q57.9062 9.51562 50.7969 4.04688
Q43.7031 -1.42188 29.9844 -1.42188
Q24.8125 -1.42188 18.9688 -0.25
Q13.1406 0.921875 6.89062 3.21875
L6.89062 13.375
Q12.8906 10.0156 18.6562 8.29688
Q24.4219 6.59375 29.9844 6.59375
Q38.4219 6.59375 43.0156 9.90625
Q47.6094 13.2344 47.6094 19.3906
Q47.6094 24.75 44.3125 27.7812
Q41.0156 30.8125 33.5 32.3281
L27.4844 33.5
Q16.4531 35.6875 11.5156 40.375
Q6.59375 45.0625 6.59375 53.4219
Q6.59375 63.0938 13.4062 68.6562
Q20.2188 74.2188 32.1719 74.2188
Q37.3125 74.2188 42.625 73.2812
Q47.9531 72.3594 53.5156 70.5156" id="DejaVuSans-53"/>
    <path d="
M44.3906 34.1875
Q47.5625 33.1094 50.5625 29.5938
Q53.5625 26.0781 56.5938 19.9219
L66.6094 0
L56 0
L46.6875 18.7031
Q43.0625 26.0312 39.6719 28.4219
Q36.2812 30.8125 30.4219 30.8125
L19.6719 30.8125
L19.6719 0
L9.8125 0
L9.8125 72.9062
L32.0781 72.9062
Q44.5781 72.9062 50.7344 67.6719
Q56.8906 62.4531 56.8906 51.9062
Q56.8906 45.0156 53.6875 40.4688
Q50.4844 35.9375 44.3906 34.1875
M19.6719 64.7969
L19.6719 38.9219
L32.0781 38.9219
Q39.2031 38.9219 42.8438 42.2188
Q46.4844 45.5156 46.4844 51.9062
Q46.4844 58.2969 42.8438 61.5469
Q39.2031 64.7969 32.0781 64.7969
z
" id="DejaVuSans-52"/>
    <path d="
M8.6875 72.9062
L18.6094 72.9062
L18.6094 28.6094
Q18.6094 16.8906 22.8438 11.7344
Q27.0938 6.59375 36.625 6.59375
Q46.0938 6.59375 50.3438 11.7344
Q54.5938 16.8906 54.5938 28.6094
L54.5938 72.9062
L64.5 72.9062
L64.5 27.3906
Q64.5 13.1406 57.4375 5.85938
Q50.3906 -1.42188 36.625 -1.42188
Q22.7969 -1.42188 15.7344 5.85938
Q8.6875 13.1406 8.6875 27.3906
z
" id="DejaVuSans-55"/>
    <path d="
M-0.296875 72.9062
L61.375 72.9062
L61.375 64.5938
L35.5 64.5938
L35.5 0
L25.5938 0
L25.5938 64.5938
L-0.296875 64.5938
z
" id="DejaVuSans-54"/>
   </defs>
   <g transform="translate(341.3409375 17.758125)scale(0.12 -0.12)">
    <use xlink:href="#DejaVuSans-45"/>
    <use x="63.18359375" xlink:href="#DejaVuSans-4e"/>
    <use x="137.98828125" xlink:href="#DejaVuSans-53"/>
    <use x="201.46484375" xlink:href="#DejaVuSans-4d"/>
    <use x="287.744140625" xlink:href="#DejaVuSans-55"/>
    <use x="360.9375" xlink:href="#DejaVuSans-53"/>
    <use x="424.4140625" xlink:href="#DejaVuSans-54"/>
    <use x="485.498046875" xlink:href="#DejaVuSans-30"/>
    <use x="549.12109375" xlink:href="#DejaVuSans-30"/>
    <use x="612.744140625" xlink:href="#DejaVuSans-30"/>
    <use x="676.3671875" xlink:href="#DejaVuSans-30"/>
    <use x="739.990234375" xlink:href="#DejaVuSans-30"/>
    <use x="803.61328125" xlink:href="#DejaVuSans-30"/>
    <use x="867.236328125" xlink:href="#DejaVuSans-38"/>
    <use x="930.859375" xlink:href="#DejaVuSans-32"/>
    <use x="994.482421875" xlink:href="#DejaVuSans-32"/>
    <use x="1058.10546875" xlink:href="#DejaVuSans-32"/>
    <use x="1121.72851562" xlink:href="#DejaVuSans-33"/>
    <use x="1185.3515625" xlink:href="#DejaVuSans-20"/>
    <use x="1217.13867188" xlink:href="#DejaVuSans-28"/>
    <use x="1256.15234375" xlink:href="#DejaVuSans-52"/>
    <use x="1325.63476562" xlink:href="#DejaVuSans-70"/>
    <use x="1389.11132812" xlink:href="#DejaVuSans-6c"/>
    <use x="1416.89453125" xlink:href="#DejaVuSans-35"/>
    <use x="1480.51757812" xlink:href="#DejaVuSans-29"/>
   </g>
  </g>
 </g>
 <defs>
  <clipPath id="p9fd4257182">
   <rect height="279.272727273" width="669.6" x="108.0" y="43.2"/>
  </clipPath>
  <clipPath id="pc82b1f09f0">
   <rect height="34.9090909091" width="669.6" x="108.0" y="353.890909091"/>
  </clipPath>
 </defs>
</svg>
