<?xml version="1.0" encoding="utf-8" standalone="no"?>
<!DOCTYPE svg PUBLIC "-//W3C//DTD SVG 1.1//EN"
  "http://www.w3.org/Graphics/SVG/1.1/DTD/svg11.dtd">
<!-- Created with matplotlib (http://matplotlib.org/) -->
<svg height="432pt" version="1.1" viewBox="0 0 864 432" width="864pt" xmlns="http://www.w3.org/2000/svg" xmlns:xlink="http://www.w3.org/1999/xlink">
 <defs>
  <style type="text/css">
*{stroke-linecap:butt;stroke-linejoin:round;}
  </style>
 </defs>
 <g id="figure_1">
  <g id="patch_1">
   <path d="
M0 432
L864 432
L864 0
L0 0
z
" style="fill:#ffffff;"/>
  </g>
  <g id="axes_1">
   <g id="patch_2">
    <path d="
M108 322.473
L777.6 322.473
L777.6 43.2
L108 43.2
z
" style="fill:#ffffff;"/>
   </g>
   <g id="patch_3">
    <path clip-path="url(#p9fd4257182)" d="
M745.295 322.473
L752.163 322.473
L752.163 43.2
L745.295 43.2
z
" style="fill:#008000;opacity:0.2;"/>
   </g>
   <g id="patch_4">
    <path clip-path="url(#p9fd4257182)" d="
M250.904 322.473
L254.745 322.473
L254.745 43.2
L250.904 43.2
z
" style="fill:#008000;opacity:0.2;"/>
   </g>
   <g id="patch_5">
    <path clip-path="url(#p9fd4257182)" d="
M133.437 322.473
L194.765 322.473
L194.765 43.2
L133.437 43.2
z
" style="fill:#008000;opacity:0.2;"/>
   </g>
   <g id="line2d_1">
    <path clip-path="url(#p9fd4257182)" d="
M116.877 61.5246
L116.903 61.5749
L120.49 77.0881
L123.466 74.2253
L125.068 65.5505
L127.612 60.4652
L129.265 59.5266
L132.725 59.6134
L135.472 61.2267
L136.159 62.1528
L140.178 79.126
L142.543 81.6021
L151.929 57.5067
L155.389 57.6437
L162.791 60.242
L163.452 61.3782
L165.029 65.815
L166.174 67.4153
L168.336 67.1605
L169.277 67.2137
L171.643 71.6688
L174.009 75.1077
L174.416 74.2402
L177.773 62.1095
L178.765 60.8647
L182.784 66.769
L183.369 69.0395
L186.931 79.6287
L187.083 79.6233
L188.457 78.7895
L188.482 78.7647
L190.924 81.743
L191.891 86.7688
L192.934 93.5121
L193.9 100.581
L195.706 100.802
L195.732 100.654
L197.131 87.0392
L205.678 57.1472
L207.382 57.7073
L215.115 56.7084
L225.874 56.8745
L227.35 63.0943
L227.68 66.4052
L228.291 73.7376
L229.537 84.4638
L231.343 76.3623
L234.141 59.5072
L239.661 56.9195
L240.984 57.0071
L245.079 57.0507
L245.461 57.6182
L245.842 61.1712
L246.962 91.2329
L249.276 71.6448
L251.26 63.3238
L251.617 62.4034
L253.143 59.8061
L254.008 59.313
L254.516 59.3498
L256.45 62.2904
L260.214 86.2543
L261.969 88.9183
L262.783 86.4858
L266.014 64.134
L269.422 58.1503
L274.103 57.7044
L284.43 72.1038
L285.88 75.8997
L288.602 81.2518
L289.161 83.3034
L291.502 87.5265
L291.527 87.3155
L293.791 70.3655
L294.045 70.4017
L294.35 70.8377
L294.554 71.3496
L297.861 107.638
L298.268 117.735
L300.43 184.332
L301.575 207.649
L302.694 218.385
L303.126 216.942
L303.813 209.041
L304.118 204.163
L306.865 164.812
L309.613 148.447
L310.681 136.188
L320.55 59.4476
L320.576 59.4521
L321.746 59.6502
L325.612 61.2628
L327.698 63.3876
L331.107 64.7332
L346.954 58.4937
L355.679 70.0671
L371.068 189.305
L378.318 219.967
L390.604 303.214
L394.47 318.545
L395.106 318.843
L398.82 314.374
L403.983 166.011
L406.476 102.118
L407.417 90.8656
L408.816 82.1696
L412.606 73.7389
L415.125 73.0174
L415.43 73.4092
L417.312 77.0655
L421.128 92.1386
L423.544 104.946
L425.757 100.22
L431.964 74.8466
L432.6 73.3204
L434.965 67.0044
L438.908 59.0858
L441.833 57.8317
L443.105 57.8133
L459.639 57.2866
L478.564 57.2839
L484.211 56.499
L489.222 56.5472
L490.52 56.7829
L491.512 58.4321
L492.046 63.7845
L493.343 118.277
L496.65 64.1566
L498.329 58.5453
L500.058 57.9507
L500.847 60.5875
L503.391 73.5157
L503.416 73.2325
L504.332 61.9355
L505.4 57.4145
L505.654 57.1469
L506.494 56.8574
L506.799 56.8462
L510.589 57.098
L514.354 63.2394
L514.939 65.3302
L516.44 74.4722
L516.872 78.3034
L518.373 94.4199
L521.858 102.829
L526.004 64.3724
L529.031 58.0917
L534.322 57.0852
L542.614 56.8844
L556.986 56.6186
L561.031 63.0442
L562.608 78.0995
L563.244 85.3692
L565.151 99.2122
L568.484 87.3707
L569.857 79.8825
L577.565 67.2757
L578.836 67.1663
L579.32 67.2367
L589.622 99.9182
L590.486 103.25
L592.14 104.233
L593.183 100.178
L594.098 93.899
L600.737 65.3393
L602.06 61.3707
L612.133 58.4284
L615.236 67.1891
L615.313 67.743
L616.076 75.4292
L617.271 106.476
L618.06 157.474
L618.569 202.176
L620.629 307.806
L629.379 117.34
L629.736 118.808
L630.168 121.555
L630.753 127.114
L631.516 138.026
L632.025 147.964
L638.664 189.861
L639.376 202.022
L640.826 232.427
L644.616 295.191
L656.088 294.141
L665.144 85.7949
L667.586 72.9512
L669.163 70.3851
L671.859 71.2139
L676.438 71.1863
L677.099 70.9683
L684.094 103.723
L685.188 106.716
L686.816 104.933
L688.189 99.4554
L699.382 82.8831
L699.509 83.5262
L701.289 95.8744
L703.833 125.927
L706.58 168.581
L711.54 121.094
L721.156 222.945
L721.893 205.28
L722.275 194.811
L725.353 226.026
L726.446 272.912
L727.184 291.873
L728.812 313.103
L729.55 317.134
L730.949 321.537
L732.5 322.22
L733.696 322.124
L738.682 321.294
L740.208 321.326
L744.507 321.756
L746.898 321.967
L749.645 321.876
L752.443 321.757
L754.809 322.075
L755.979 322.066
L757.607 321.46
L758.115 320.309
L758.471 318.828
L758.751 317.073
L759.464 309.007
L759.743 303.985
L761.778 257.442
L762.465 253.343
L762.719 252.56
L764.576 257.018
L764.602 257.392
L765.67 265.452
L765.696 265.316
L767.247 205.553
L768.341 143.233
L768.544 135.37
L772.818 182.245
L772.843 183.792
L774.624 263.321
L774.624 263.321" style="fill:none;opacity:0.5;stroke:#0000ff;stroke-linecap:square;"/>
   </g>
   <g id="line2d_2">
    <path clip-path="url(#p9fd4257182)" d="
M116.877 73.8012
L116.903 73.8354
L120.49 78.8722
L123.466 79.4245
L125.068 76.6859
L127.637 71.6259
L129.291 69.3493
L135.472 70.3103
L136.159 71.9854
L140.178 100.876
L142.569 137.963
L151.904 107.303
L151.929 106.813
L155.389 66.9345
L162.791 60.2913
L163.452 61.2435
L165.029 64.722
L166.149 67.881
L168.311 70.7119
L168.336 70.6852
L169.277 68.5283
L171.643 59.7848
L174.009 57.085
L174.416 56.9586
L178.765 56.6658
L182.784 56.8715
L183.369 57.0906
L186.931 60.9804
L187.083 61.8764
L188.177 68.8197
L188.482 69.7366
L190.924 67.0067
L191.891 65.3771
L192.908 65.7619
L193.57 67.0182
L193.9 67.7973
L197.131 79.3769
L205.678 58.3427
L207.382 57.5078
L215.115 56.5642
L225.874 56.5056
L227.35 58.8944
L227.68 63.4202
L228.291 86.8916
L229.537 158.294
L231.369 86.8784
L234.167 56.7158
L239.636 67.6777
L239.661 67.6394
L240.984 65.6731
L245.079 60.7246
L245.461 60.5436
L245.842 61.0863
L246.987 77.1671
L249.225 74.0412
L249.276 73.733
L251.26 63.1471
L251.617 62.2167
L253.143 61.581
L254.516 63.1861
L256.45 65.4779
L260.24 58.7159
L261.995 59.0114
L262.809 59.404
L266.014 61.972
L269.422 68.7426
L284.43 134.685
L285.855 135.599
L285.88 135.255
L288.398 58.1933
L288.805 56.9611
L289.136 56.6494
L289.161 56.6376
L291.527 56.5045
L293.765 58.9903
L294.045 61.9979
L294.554 70.0917
L297.861 83.4874
L298.268 86.7556
L300.43 108.121
L301.142 112.295
L301.575 113.359
L303.126 113.954
L304.093 114.436
L304.118 114.44
L306.331 117.919
L306.865 122.462
L308.849 124.133
L308.875 123.687
L309.613 106.035
L310.681 76.2176
L320.55 59.7393
L320.576 59.7919
L321.746 62.8785
L327.698 69.9585
L331.107 71.696
L346.954 75.944
L355.679 94.7577
L364.124 150.728
L371.068 211.176
L378.292 230.06
L378.318 229.953
L390.604 318.839
L394.47 321.919
L395.106 321.9
L398.82 319.517
L403.983 231.91
L406.476 125.154
L407.417 102.607
L408.816 84.5026
L412.606 65.1468
L415.125 58.6214
L415.43 58.6969
L417.338 61.2841
L421.128 70.0854
L423.544 81.8358
L425.732 86.5609
L425.757 86.536
L431.964 66.3534
L432.6 64.9869
L434.965 62.1756
L438.908 65.5475
L441.833 71.6601
L442.266 71.5659
L443.105 70.0014
L452.848 56.8536
L457.146 56.5108
L459.639 58.6449
L463.455 247.64
L464.828 246.796
L465.083 241.083
L467.347 137.578
L470.017 77.6118
L471.9 78.0454
L472.663 80.5462
L474.036 86.178
L474.672 88.156
L478.564 70.7631
L484.237 57.4237
L489.222 63.1064
L490.52 72.2218
L492.046 89.7318
L493.343 105.852
L496.65 95.3878
L498.329 78.7956
L500.058 65.5262
L500.847 63.1768
L503.416 71.231
L504.332 76.0543
L505.654 82.1101
L506.418 84.5281
L506.774 84.9599
L510.462 68.5717
L510.487 68.5921
L510.589 68.676
L514.354 69.7193
L514.939 70.1606
L516.872 72.6705
L518.373 73.9264
L521.858 68.3458
L526.004 59.0557
L529.031 57.2536
L534.322 57.7082
L540.02 67.0399
L542.614 83.4797
L551.67 61.5862
L553.527 61.0401
L556.299 63.2737
L556.986 64.8626
L561.031 82.344
L562.582 84.0629
L562.608 84.0307
L563.244 82.6029
L565.151 73.0559
L568.484 60.639
L568.992 60.1219
L569.857 59.554
L579.32 66.5054
L589.622 69.0786
L590.512 69.5074
L592.165 70.6131
L594.124 72.4298
L600.407 81.526
L600.763 84.5738
L602.086 128.304
L612.133 58.9979
L615.313 59.427
L616.076 60.0541
L617.271 62.2932
L618.06 66.0771
L618.569 70.7712
L620.629 134.721
L629.379 77.0343
L629.405 77.2853
L630.193 86.3528
L631.491 106.3
L632.025 115.673
L638.638 190.429
L640.826 218.947
L644.616 284.545
L656.088 295.177
L665.144 106.395
L667.586 76.3862
L669.163 69.1437
L671.859 65.7694
L676.31 79.5243
L676.438 80.7443
L677.099 88.8291
L684.094 306.842
L685.188 313.547
L686.816 317.923
L688.189 319.352
L699.382 230.28
L699.509 227.16
L701.289 193.712
L703.808 189.744
L703.833 189.837
L711.515 235.411
L711.54 235.482
L721.13 259.451
L721.664 105.465
L721.919 88.9827
L722.071 85.6037
L722.275 83.8459
L725.353 286.995
L726.446 312.487
L726.853 316.313
L727.184 318.293
L728.609 321.575
L728.812 321.729
L729.55 322.055
L730.949 322.208
L734.078 322.082
L738.86 322.105
L739.292 322.016
L740.488 321.467
L741.2 321.001
L741.938 320.803
L742.421 320.968
L744.227 321.854
L745.295 321.962
L746.465 321.836
L746.898 321.728
L747.737 321.361
L748.068 321.066
L749.111 319.224
L750.001 317.343
L750.103 317.25
L750.662 317.621
L751.222 318.948
L751.883 320.443
L752.443 321.23
L753.206 321.721
L753.613 321.842
L755.114 322.025
L758.115 322.041
L759.743 322.117
L760.583 322.189
L761.778 322.124
L762.719 321.624
L764.602 314.409
L765.696 292.118
L767.909 141.027
L768.544 122.346
L772.843 187.101
L774.624 241.058
L774.624 241.058" style="fill:none;opacity:0.5;stroke:#ff0000;stroke-linecap:square;"/>
   </g>
   <g id="line2d_3">
    <path clip-path="url(#p9fd4257182)" d="
M116.877 161.054
L120.108 88.6399
L120.133 88.2766
L120.49 83.5675
L123.466 64.1116
L125.068 61.2693
L127.612 60.5744
L129.265 61.8857
L132.75 74.6826
L135.472 112.525
L136.159 128.371
L140.05 167.967
L140.152 166.368
L142.569 112.317
L151.904 86.0669
L151.929 86.6192
L155.389 268.15
L162.791 309.776
L163.452 285.568
L165.029 109.088
L166.149 63.7135
L168.336 57.4598
L169.277 57.2281
L171.643 57.1286
L174.009 64.2911
L174.416 70.0377
L177.748 123.964
L177.773 123.312
L178.765 94.5053
L182.784 58.7536
L183.369 58.6872
L187.083 61.9866
L188.482 63.7364
L190.924 78.4901
L191.891 86.4587
L192.832 90.0862
L192.908 89.9677
L192.934 89.9112
L193.57 85.6331
L195.706 60.0902
L195.732 59.948
L197.131 56.8109
L207.382 56.6809
L215.115 57.8127
L225.849 61.7809
L227.324 67.4085
L228.265 75.1588
L229.512 80.8945
L231.369 72.5581
L234.167 58.683
L239.661 56.6625
L240.984 56.6704
L245.079 58.1218
L245.461 59.0852
L245.842 60.432
L246.987 67.2163
L249.276 80.9598
L251.26 78.6968
L251.617 77.8202
L253.143 77.6351
L254.008 82.6932
L254.516 87.1979
L256.424 95.6474
L256.45 95.562
L260.214 78.4891
L261.995 73.1433
L266.014 65.7604
L269.422 61.8857
L274.103 60.6178
L284.405 62.2575
L284.43 62.4402
L285.88 73.7049
L288.398 66.9325
L289.136 63.065
L289.161 62.9648
L291.527 56.9349
L293.791 57.461
L294.35 58.3207
L294.554 58.7401
L297.861 86.5266
L298.268 99.6159
L299.107 119.203
L299.896 113.009
L300.43 105.023
L301.117 100.498
L301.142 100.556
L301.575 103.696
L302.694 123.905
L303.813 150.207
L304.118 155.121
L306.306 150.687
L306.331 149.692
L306.865 122.897
L308.875 62.7775
L309.613 58.2849
L310.681 56.6545
L321.746 57.254
L331.107 57.033
L355.679 119.685
L364.124 205.795
L371.068 238.292
L378.292 254.099
L378.318 254.062
L390.604 296.435
L394.47 311.644
L395.106 312.406
L398.82 309.786
L403.983 225.07
L406.476 136.913
L407.417 117.012
L408.816 96.4045
L412.606 72.0409
L415.125 58.661
L415.43 58.2601
L417.338 57.5107
L421.128 59.15
L423.443 71.5488
L423.544 72.8359
L425.757 125.449
L432.6 67.1318
L434.965 60.6545
L438.908 60.0109
L442.266 61.8732
L443.105 62.1291
L452.848 65.6823
L457.146 82.7416
L459.639 135.701
L463.429 180.94
L463.455 180.757
L465.083 163.584
L467.347 132.349
L470.017 104.099
L471.9 98.754
L472.663 99.6678
L474.036 104.495
L474.672 107.82
L478.564 144.688
L484.211 164.406
L484.237 163.802
L489.197 87.2782
L490.52 82.1685
L491.512 80.1599
L492.046 79.7407
L493.343 80.9371
L496.624 98.8602
L496.65 98.8223
L498.329 91.0442
L500.058 85.6894
L500.847 81.0084
L503.416 69.3734
L504.332 63.8924
L505.4 58.4672
L505.654 58.0313
L506.418 57.4704
L506.799 57.4099
L510.462 110.458
L510.487 110.418
L510.589 109.617
L514.354 58.2841
L514.939 57.5472
L516.847 56.9343
L518.373 56.8054
L521.858 56.6879
L526.004 57.0728
L529.031 57.1782
L534.322 57.0587
L542.614 57.2165
L553.527 58.4543
L556.299 58.5099
L556.986 58.3779
L561.031 57.4566
L565.151 57.0873
L568.484 57.3167
L568.992 57.5879
L569.857 58.4564
L577.565 68.6648
L578.836 69.4733
L579.32 69.927
L589.622 74.0881
L590.512 72.2281
L592.14 67.7389
L593.208 65.4271
L594.124 64.1937
L600.407 84.4725
L600.763 86.0333
L602.086 91.2138
L612.133 59.1823
L615.313 61.2927
L616.076 62.8153
L617.271 68.0567
L618.06 76.1335
L618.569 85.7711
L620.629 190.119
L629.379 61.2707
L629.405 61.3923
L629.761 63.7401
L630.193 69.0763
L630.778 84.5907
L631.516 127.177
L632.025 169.042
L638.664 208.812
L639.376 218.589
L640.826 244.77
L644.616 305.783
L656.088 293.289
L665.144 119.724
L667.586 90.8669
L669.163 83.1143
L671.859 78.3578
L676.31 89.7971
L676.438 90.7338
L677.099 96.8886
L684.094 320.125
L685.188 321.586
L686.816 321.786
L688.189 320.158
L699.356 144.161
L699.382 144.472
L701.289 168.453
L703.833 193.291
L706.606 251.447
L711.54 212.477
L721.13 322.042
L721.385 321.432
L721.69 319.599
L721.944 316.002
L722.046 313.604
L722.249 306.129
L725.327 257.325
L725.353 260.364
L726.268 316.326
L726.446 318.724
L726.853 321.229
L727.184 321.933
L728.812 322.413
L729.55 322.358
L730.949 321.87
L734.357 321.927
L737.995 322.163
L739.292 322.042
L740.488 321.325
L742.116 319.822
L742.599 319.973
L742.904 320.3
L743.972 321.556
L744.71 321.965
L745.321 322.075
L746.185 321.976
L746.465 321.875
L746.898 321.619
L747.737 320.536
L748.068 319.797
L749.111 315.437
L750.103 308.833
L750.739 306.929
L750.891 307.156
L751.069 307.794
L751.527 310.685
L752.443 317.278
L752.977 319.725
L753.231 320.488
L753.613 321.267
L754.173 321.842
L754.809 322.048
L755.979 322.108
L759.743 322.1
L760.583 321.978
L761.778 321.259
L762.465 319.988
L762.719 319.25
L764.602 306.435
L765.696 282.416
L767.909 141.945
L767.934 140.996
L768.519 128.61
L768.544 128.411
L772.843 191.535
L774.598 193.072
L774.624 192.823
L774.624 192.823" style="fill:none;opacity:0.5;stroke:#ff0000;stroke-linecap:square;"/>
   </g>
   <g id="line2d_4">
    <path clip-path="url(#p9fd4257182)" d="
M116.877 64.2433
L116.903 64.3084
L120.49 77.582
L125.068 95.5673
L127.612 103.704
L129.265 107.217
L132.725 108.607
L135.446 102.64
L136.133 100.038
L140.178 79.4945
L142.569 68.1694
L151.929 57.0441
L155.389 56.9702
L162.816 60.4349
L163.452 61.4216
L165.029 64.7096
L166.174 67.9687
L168.336 71.7493
L169.277 70.8948
L171.643 68.1626
L174.009 70.5867
L177.773 79.2615
L178.587 79.0474
L178.765 78.8626
L182.784 70.4558
L183.369 69.5582
L186.905 73.1599
L187.083 69.2421
L188.177 58.6324
L188.482 57.8821
L190.924 58.5314
L191.891 62.7722
L193.9 78.6284
L195.732 74.8669
L197.131 62.5751
L205.678 57.5195
L207.382 57.281
L215.115 56.5329
L225.874 57.9886
L227.35 66.3664
L227.68 70.5938
L228.291 82.2051
L229.537 111.203
L231.369 83.2377
L234.167 59.5824
L239.661 62.1214
L240.984 64.6287
L245.079 75.9625
L245.461 77.7014
L245.842 79.9807
L246.987 89.2337
L249.2 86.5724
L249.276 85.5765
L251.26 68.1052
L251.617 67.5054
L253.143 66.2403
L254.491 65.3317
L256.45 65.0956
L260.214 65.0276
L261.995 64.5014
L262.809 63.6356
L266.014 59.9534
L269.422 57.4373
L274.103 56.7331
L284.43 57.0527
L285.88 57.2592
L288.831 57.3756
L291.527 56.9578
L294.045 56.9436
L294.554 57.2363
L297.861 77.1916
L298.268 77.8233
L299.107 76.9701
L299.87 76.5229
L299.896 76.5684
L300.43 78.4903
L301.142 83.8472
L301.575 88.6207
L303.101 112.632
L304.118 131.814
L306.306 134.787
L306.865 126.174
L309.613 80.5573
L310.655 68.0992
L320.576 82.4801
L321.746 86.4941
L325.587 93.2679
L325.612 93.2322
L327.698 89.0744
L331.107 80.7288
L346.954 74.9818
L355.679 128.175
L364.124 174.436
L371.068 190.33
L378.318 199
L390.604 318.062
L395.106 319.766
L398.82 313.539
L406.476 127.082
L407.417 112.814
L408.816 97.8053
L412.606 76.3107
L415.125 70.6144
L415.43 70.256
L421.102 78.8564
L421.128 78.7907
L423.544 73.4505
L425.757 67.251
L431.964 56.879
L432.6 56.852
L434.965 57.1919
L438.908 60.3923
L441.833 69.505
L442.266 72.2223
L443.105 79.0449
L452.822 87.9944
L452.848 87.5834
L457.121 73.0549
L457.146 73.1985
L459.639 115.938
L463.429 252.659
L463.455 252.642
L464.854 217.639
L467.347 65.2878
L469.992 61.4019
L470.017 61.4456
L471.9 66.8262
L472.663 69.4653
L474.036 78.9065
L474.672 85.9403
L478.564 132.841
L484.211 96.8794
L489.222 60.8522
L490.52 60.7106
L491.512 61.3318
L492.046 61.8657
L493.343 66.9118
L496.65 161.439
L498.303 156.243
L500.058 88.9494
L500.847 75.6698
L503.416 63.4204
L504.332 63.3225
L505.4 63.2943
L505.654 63.0604
L506.519 61.4838
L506.799 60.9423
L510.487 64.3617
L510.589 64.7547
L514.328 69.2745
L514.354 69.1959
L516.44 62.2752
L516.872 61.1221
L518.373 58.5019
L521.883 57.0067
L526.004 56.8063
L529.031 56.8685
L534.322 58.6271
L540.02 70.1165
L542.614 81.158
L551.644 144.178
L551.67 144.136
L553.527 141.262
L556.986 69.8698
L561.031 57.0787
L562.608 57.0779
L563.244 57.2185
L565.151 58.8791
L568.992 76.6809
L569.857 78.2958
L577.565 67.2533
L578.836 66.4223
L579.32 66.3204
L589.596 81.4711
L589.622 81.444
L592.165 78.7359
L593.208 77.8832
L594.124 77.3864
L600.407 81.2164
L600.763 80.7187
L602.06 76.5514
L612.133 65.0043
L615.313 67.2256
L616.076 68.3476
L617.271 71.0609
L618.06 73.8291
L618.569 76.2287
L620.629 93.7556
L629.379 66.7732
L629.405 66.8365
L629.761 68.4333
L630.193 73.1096
L630.778 88.3839
L631.516 121.312
L632.025 151.074
L638.638 258.541
L638.664 258.223
L639.376 253.881
L640.826 240.656
L644.616 191.729
L656.088 245.704
L667.586 123.496
L669.163 115.391
L671.859 110.027
L676.31 126.696
L676.438 128.525
L677.099 139.941
L684.094 319.52
L685.188 321.301
L686.816 321.942
L688.189 321.898
L699.356 141.424
L699.382 141.595
L699.509 142.516
L701.289 164.832
L703.833 201.953
L706.58 211.518
L706.606 211.469
L711.54 156.815
L721.13 167.066
L721.41 121.667
L721.766 104.086
L721.842 103.674
L721.893 103.905
L722.02 106.172
L722.071 107.752
L722.275 118.139
L725.353 320.445
L726.421 321.936
L726.853 322.042
L727.184 322.074
L733.111 321.948
L734.357 322.037
L735.807 321.898
L737.512 320.615
L737.995 320.168
L738.834 320.431
L740.335 321.75
L740.971 321.959
L742.116 322.116
L743.972 322.119
L745.321 321.89
L746.465 321.444
L746.898 321.157
L749.009 319.076
L749.314 319.195
L749.645 319.551
L751.044 321.352
L751.654 321.727
L752.418 321.907
L753.613 321.976
L761.778 321.964
L762.694 321.489
L762.719 321.461
L764.602 311.674
L765.696 295.371
L767.247 191.349
L767.934 132.108
L768.544 103.25
L772.843 221.486
L774.598 272.277
L774.624 272.13" style="fill:none;opacity:0.5;stroke:#ff0000;stroke-linecap:square;"/>
   </g>
   <g id="line2d_5">
    <path clip-path="url(#p9fd4257182)" d="
M116.877 57.8867
L116.903 57.9031
L120.133 63.6112
L120.49 64.9909
L123.466 85.4832
L125.068 98.2503
L127.612 104.593
L127.637 104.565
L129.291 100.104
L135.446 81.0587
L136.133 81.2
L140.178 81.1649
L142.569 78.1157
L151.929 58.441
L155.389 57.748
L162.816 70.3264
L163.452 72.3597
L165.029 76.8965
L166.149 78.5132
L168.336 78.5686
L169.277 78.1261
L171.643 78.1743
L174.009 78.0164
L174.416 77.6576
L178.765 63.5452
L182.784 62.6338
L183.369 64.2031
L186.905 96.9105
L187.083 88.8315
L188.177 63.1253
L188.482 60.8616
L190.899 59.7014
L190.924 59.7784
L191.891 64.8347
L192.934 75.8511
L193.57 94.793
L193.9 110.336
L195.732 180.453
L197.131 135.36
L205.678 60.7477
L207.382 60.8121
L215.089 94.7354
L225.849 94.3916
L225.874 93.6215
L227.35 64.8567
L227.68 62.2445
L228.291 59.3567
L229.537 57.2343
L231.369 56.6665
L240.984 56.499
L245.054 59.1016
L245.079 59.2966
L245.461 64.5285
L245.842 78.5867
L246.987 179.089
L249.276 61.3488
L251.26 56.9555
L251.617 56.8944
L253.143 56.9216
L254.516 57.0981
L260.214 56.8671
L269.422 57.0963
L274.103 60.6259
L284.405 97.0825
L284.43 95.8141
L285.88 60.4213
L288.398 56.833
L289.136 56.8511
L289.161 56.8572
L291.527 61.8638
L294.045 62.0033
L294.554 62.4142
L297.861 73.983
L298.268 78.0277
L299.107 89.8232
L300.43 114.488
L301.575 130.321
L302.694 139.352
L303.126 141.517
L303.813 142.982
L304.118 143.002
L306.331 136.394
L306.865 132.045
L308.875 104.172
L309.613 90.7183
L310.681 73.8453
L320.55 59.9969
L320.576 60.0382
L321.746 61.8743
L325.612 62.0808
L327.698 61.8527
L331.107 60.8556
L346.954 57.2587
L355.679 58.3894
L364.124 74.2029
L371.068 129.84
L378.318 183.981
L390.604 313.105
L394.47 320.001
L395.106 319.95
L398.82 310.655
L403.983 130.256
L406.476 75.5976
L407.417 68.1348
L408.816 61.5854
L412.606 57.2248
L415.43 57.4575
L417.338 59.2594
L421.128 105.848
L423.417 104.098
L423.544 100.808
L425.757 62.9623
L431.964 57.2116
L432.6 57.1304
L442.266 56.9625
L443.105 56.9752
L452.848 57.5808
L457.146 57.0146
L459.639 56.9058
L463.455 57.2199
L465.083 58.5749
L467.347 64.8423
L470.017 79.93
L471.9 80.207
L472.663 76.3357
L474.672 64.2412
L478.564 58.0984
L484.237 58.6716
L489.197 75.9981
L490.494 76.8717
L490.52 76.7713
L491.512 69.9044
L492.046 65.2127
L493.343 57.4733
L496.65 56.5009
L498.329 56.6748
L500.058 76.8931
L500.847 107.805
L504.332 69.6171
L505.654 57.8172
L506.163 56.6381
L506.519 56.5144
L506.799 56.5035
L510.589 57.0088
L516.872 57.2258
L521.883 57.3318
L526.004 57.559
L534.322 57.423
L542.614 57.2156
L553.527 56.9939
L556.299 57.4432
L556.986 57.8215
L561.031 64.4587
L563.244 69.9071
L565.151 73.2411
L568.484 68.96
L568.992 67.8713
L569.857 66.3362
L577.565 67.2196
L579.294 68.3973
L579.32 68.4212
L589.596 79.1066
L589.622 79.0795
L590.512 77.926
L593.183 73.2163
L594.098 71.5769
L602.06 63.6805
L612.133 59.7436
L615.313 62.3067
L616.076 64.0831
L617.271 70.6537
L618.06 83.3406
L618.569 99.1868
L620.629 232.512
L629.379 56.5369
L629.405 56.5383
L630.193 56.7013
L630.778 58.4874
L631.516 125.963
L632.025 259.318
L638.664 151.549
L639.249 139.233
L639.351 139.084
L639.376 139.152
L640.826 156.064
L644.616 222.5
L656.063 202.462
L656.088 202.075
L665.144 69.6993
L667.586 65.8066
L669.163 66.9601
L671.859 77.9107
L676.438 136.895
L677.099 149.665
L684.069 188.887
L684.094 188.381
L686.816 114.829
L688.164 88.5005
L699.356 63.6653
L699.382 63.7034
L701.289 66.5777
L703.833 79.312
L706.606 151.517
L711.54 95.9888
L721.13 193.117
L721.664 95.6876
L721.97 78.2621
L722.071 75.6476
L722.275 72.8499
L725.353 196.629
L726.853 275.082
L727.184 286.991
L728.609 315.957
L728.812 317.542
L729.55 320.657
L730.949 322.024
L732.5 321.982
L733.111 321.568
L733.696 320.323
L734.078 318.482
L734.357 316.272
L735.782 301.013
L735.807 301.076
L737.206 317.412
L737.537 319.437
L737.995 320.878
L738.885 321.692
L739.292 321.839
L740.869 322.028
L741.759 321.909
L742.421 321.615
L742.904 321.251
L744.227 320.125
L746.465 319.168
L746.898 318.897
L747.737 317.813
L748.933 315.648
L749.111 315.578
L749.34 315.698
L749.645 316.264
L751.197 320.767
L751.654 321.36
L752.163 321.708
L752.799 321.859
L754.173 321.9
L755.114 321.838
L755.979 321.691
L757.607 320.493
L758.446 318.921
L758.751 318.049
L759.464 314.972
L759.743 313.259
L760.583 306.112
L761.778 294.061
L762.694 290.275
L762.719 290.212
L764.576 283.19
L764.602 283.267
L765.67 284.834
L765.696 284.66
L767.247 193.402
L767.934 133.517
L768.544 104.677
L772.843 217.758
L774.598 254.282
L774.624 253.995" style="fill:none;opacity:0.5;stroke:#0000ff;stroke-linecap:square;"/>
   </g>
   <g id="line2d_6">
    <path clip-path="url(#p9fd4257182)" d="
M116.877 57.1092
L120.49 57.0488
L129.265 57.0582
L135.446 60.1378
L136.133 61.599
L140.178 86.9032
L142.569 107.063
L151.929 58.4955
L155.389 58.4264
L162.791 88.4191
L163.452 95.9037
L165.029 109.847
L166.149 108.977
L166.174 108.811
L168.336 77.1783
L169.277 66.714
L171.643 58.777
L174.009 58.9175
L174.416 59.2495
L177.773 70.6844
L178.765 77.521
L182.784 78.3519
L183.369 77.4467
L186.931 75.2727
L187.083 73.8346
L188.177 65.8294
L188.482 64.5342
L190.924 65.1917
L192.934 70.389
L193.9 74.7182
L195.732 87.3226
L197.131 96.0738
L205.678 58.4684
L207.382 57.1721
L215.115 57.4259
L225.874 67.0821
L227.35 66.9469
L227.68 66.7649
L229.537 65.3085
L231.369 66.3522
L234.167 65.3675
L239.661 56.9841
L240.984 56.9501
L245.079 57.4071
L245.842 57.9418
L246.987 61.2146
L249.2 73.5258
L249.251 73.2674
L249.276 73.1287
L251.26 60.3661
L251.617 59.4943
L253.143 60.0113
L254.008 61.4002
L254.516 61.8192
L256.45 64.2799
L260.24 75.6433
L261.995 79.0182
L262.809 77.5144
L266.014 70.3362
L269.422 68.6171
L274.103 68.3657
L284.405 102.355
L285.88 78.186
L288.373 67.7261
L288.398 67.7966
L288.602 68.6103
L288.831 70.0878
L289.161 73.4493
L291.502 132.673
L291.527 132.278
L293.791 61.2738
L294.045 59.7991
L294.554 58.5414
L297.861 65.3728
L298.268 69.0815
L299.107 82.8571
L299.896 104.957
L300.43 115.645
L301.142 121.493
L301.575 122.296
L302.694 126.037
L303.126 127.031
L303.813 127.09
L304.118 126.739
L306.331 118.933
L306.865 112.095
L308.875 74.24
L309.613 65.1463
L310.655 58.9332
L320.576 78.2937
L321.746 78.6036
L325.612 73.568
L327.698 69.804
L331.107 65.8748
L346.928 75.1341
L355.679 122.344
L364.124 239.587
L371.068 248.563
L378.318 203.141
L390.604 321.696
L395.106 321.931
L398.82 320.32
L403.983 249.731
L406.476 113.533
L407.417 89.2079
L408.816 71.48
L412.606 59.3754
L415.125 58.4636
L415.43 58.4756
L417.338 60.0498
L421.128 74.293
L423.443 72.4198
L423.544 72.1629
L425.757 66.0869
L431.964 58.7545
L432.6 58.7851
L434.965 60.6472
L438.908 66.2643
L441.833 63.9443
L443.105 62.3392
L452.848 56.9567
L457.146 57.9033
L459.639 77.3902
L463.429 291.284
L463.455 291.155
L464.854 264.282
L465.083 255.163
L467.347 127.978
L470.017 80.0224
L471.9 73.8027
L472.663 73.6318
L474.036 78.2719
L474.672 82.3513
L478.539 101.529
L478.564 101.474
L484.237 84.7393
L490.52 65.3374
L491.512 67.0662
L492.046 73.8678
L493.343 94.4465
L496.65 76.6751
L498.329 71.471
L500.058 72.9756
L500.847 74.7246
L503.391 78.45
L503.416 78.3812
L504.332 74.6009
L506.392 62.5296
L506.774 61.2203
L510.589 56.7515
L514.354 58.3906
L514.939 60.6117
L516.44 62.9484
L516.872 62.8966
L518.373 64.9756
L521.883 75.5149
L526.004 73.1097
L529.031 68.2283
L534.322 72.171
L540.02 83.233
L542.614 83.1959
L551.67 71.9753
L553.527 75.1797
L556.299 90.7479
L556.986 95.7995
L561.031 66.7726
L562.608 63.4006
L563.244 63.4913
L565.151 65.8228
L568.992 81.1504
L569.857 83.6497
L577.565 89.9029
L579.32 97.6544
L589.596 108.123
L592.165 86.351
L593.208 78.8395
L594.124 73.367
L600.407 58.8454
L602.086 57.8035
L612.133 57.4397
L615.236 60.3141
L615.313 60.5601
L616.076 64.2825
L617.271 78.525
L618.06 97.7349
L618.569 115.095
L620.629 198.725
L629.405 83.3137
L629.761 84.0487
L630.193 89.1524
L630.778 106.37
L631.999 165.737
L632.025 167.163
L638.638 256.756
L638.664 256.37
L639.376 254.022
L644.591 238.23
L644.616 238.248
L656.088 230.612
L665.144 134.236
L667.586 116.578
L669.163 111.046
L671.859 113.777
L676.31 142.055
L676.438 143.77
L677.099 154.354
L684.094 318.455
L685.188 320.825
L686.816 321.684
L688.189 321.555
L699.356 106.83
L699.382 107.058
L699.509 108.274
L701.289 138.378
L703.833 202.441
L706.606 242.63
L711.54 228.722
L721.13 240.452
L721.613 178.542
L721.893 165.054
L722.02 163.612
L722.046 163.633
L722.071 163.751
L722.275 168.007
L725.353 317.732
L726.268 320.9
L726.446 321.078
L727.159 321.288
L727.184 321.288
L728.812 320.934
L729.55 321.068
L730.949 321.81
L733.085 322.138
L735.807 322.029
L739.165 321.848
L741.861 321.72
L743.337 321.617
L744.786 321.809
L746.465 321.997
L746.898 321.979
L748.068 321.717
L749.645 320.857
L750.968 319.967
L751.222 319.922
L751.782 320.131
L752.265 320.625
L753.231 321.608
L753.613 321.85
L754.707 322.17
L755.979 322.202
L758.471 322.226
L759.743 322.339
L760.583 322.319
L761.778 321.665
L762.465 319.02
L762.719 316.368
L767.247 98.1831
L767.934 84.2055
L768.544 78.2435
L772.843 148.337
L774.624 200.572
L774.624 200.572" style="fill:none;opacity:0.5;stroke:#ff0000;stroke-linecap:square;"/>
   </g>
   <g id="line2d_7">
    <path clip-path="url(#p9fd4257182)" d="
M116.877 82.6544
L116.903 82.2658
L120.133 58.2068
L120.49 57.746
L123.466 56.7269
L129.265 56.6228
L135.472 62.0837
L136.159 68.1383
L140.178 131.382
L142.569 112.897
L151.904 61.187
L151.929 61.2047
L155.262 68.7637
L155.389 69.3679
L163.452 118.951
L165.029 91.2667
L166.149 75.996
L168.311 62.2852
L169.277 59.843
L171.643 57.7765
L174.009 58.357
L174.416 58.9691
L177.773 78.2569
L178.587 75.4914
L178.765 73.7653
L182.759 58.5454
L182.784 58.5711
L183.369 59.3031
L187.058 66.7644
L187.083 66.8501
L188.482 72.4382
L190.899 75.9006
L190.924 75.812
L191.891 72.6598
L192.857 72.6544
L192.934 72.8551
L193.57 75.4132
L193.9 77.3936
L197.131 110.318
L205.678 62.0058
L207.382 61.7139
L215.115 78.4601
L225.849 113.267
L225.874 113.21
L227.68 107.713
L228.291 105.316
L229.537 99.8491
L231.343 84.2934
L234.141 66.9063
L239.661 73.6262
L240.526 72.6936
L240.984 70.9598
L245.079 57.8065
L245.842 57.3485
L246.987 57.1729
L249.276 57.4466
L251.617 56.7163
L253.143 57.1593
L254.008 59.3097
L254.516 63.453
L256.45 91.3407
L260.214 107.054
L261.995 102.35
L262.809 95.2378
L266.014 64.1064
L269.422 56.7377
L274.103 57.0265
L284.405 143.156
L284.43 142.616
L285.88 103.15
L288.398 57.6646
L288.831 56.9355
L289.161 56.705
L291.527 56.5195
L293.791 60.1967
L294.35 67.5516
L294.554 70.2918
L297.861 102.271
L298.268 118.088
L299.896 208.451
L300.43 226.199
L301.117 231.452
L301.142 231.359
L301.575 227.479
L304.118 180.578
L306.306 154.461
L306.84 154.821
L308.875 143.794
L309.613 134.183
L310.681 122.571
L320.576 78.3695
L321.746 76.662
L325.612 72.2018
L331.107 66.3214
L346.928 75.0863
L355.679 115.94
L364.124 119.182
L371.068 121.306
L378.318 156.104
L390.604 316.319
L394.47 319.985
L395.106 320.047
L398.82 314.953
L403.983 206.521
L406.476 139.608
L407.417 123.146
L408.816 105.489
L412.606 78.5488
L415.125 69.9778
L415.43 69.385
L417.338 67.6389
L421.128 70.9906
L423.544 75.4402
L425.732 76.8687
L425.757 76.8011
L431.964 57.3493
L432.6 57.1828
L434.965 56.9472
L438.908 56.9092
L443.105 57.1371
L457.146 57.1218
L459.639 58.1059
L463.455 63.5031
L465.083 63.6473
L467.347 63.6417
L470.017 68.017
L471.9 72.6245
L472.663 73.6613
L474.036 77.7954
L474.672 81.1626
L478.564 60.2068
L484.237 56.7678
L490.494 56.8202
L492.046 57.1
L493.343 57.8716
L496.65 77.5179
L498.303 96.2371
L498.329 96.1266
L500.058 61.6429
L500.847 57.499
L503.416 57.0535
L505.654 57.6856
L506.519 58.1765
L506.799 58.4042
L510.462 70.5531
L510.487 70.4232
L510.589 69.8658
L514.328 64.9872
L514.354 65.1049
L514.939 67.5213
L516.872 70.7169
L518.373 73.667
L521.883 92.8594
L525.979 103.277
L526.004 103.237
L529.031 95.6447
L534.322 83.3307
L542.614 69.1799
L551.67 56.8051
L553.527 56.7854
L556.986 56.9331
L561.031 57.3637
L562.608 57.9573
L563.244 58.3223
L565.151 60.8565
L568.992 78.0357
L569.857 80.3909
L577.565 57.7307
L578.836 57.1041
L579.32 57.0055
L589.622 72.1062
L590.512 77.3263
L594.124 109.52
L600.407 75.5079
L600.763 71.311
L602.086 60.4929
L612.133 57.0997
L615.236 63.9676
L615.313 64.425
L616.076 71.0516
L617.271 94.9116
L618.06 126.876
L618.569 156.116
L620.629 263.149
L629.379 57.3182
L629.405 57.3329
L629.761 57.6821
L630.193 58.8894
L630.778 67.1885
L631.516 158.948
L632.025 249.625
L638.638 257.501
L639.376 245.768
L640.826 226.232
L644.616 233.879
L656.088 218.046
L665.144 131.805
L667.586 117.598
L669.163 112.684
L671.859 112.367
L676.438 124.887
L677.099 127.627
L684.069 146.531
L684.094 146.308
L685.188 134.14
L688.189 93.5329
L699.356 72.4253
L699.382 72.5366
L699.509 73.1097
L701.289 84.6264
L703.833 115.675
L706.606 166.654
L711.515 157.084
L711.54 156.667
L721.13 246.49
L721.41 170.575
L721.741 138.772
L722.02 132.811
L722.071 132.441
L722.249 132.652
L722.275 132.863
L725.353 274.262
L726.446 299.508
L727.184 309.043
L728.787 318.805
L728.812 318.878
L729.55 320.3
L730.949 320.91
L732.5 319.799
L733.085 318.231
L733.111 318.15
L733.696 316.91
L734.078 316.867
L734.357 317.167
L735.807 319.849
L737.206 321.584
L737.995 321.96
L739.292 322.049
L742.675 321.945
L743.82 321.632
L744.507 321.253
L745.321 320.55
L746.465 319.147
L746.898 318.608
L747.737 318.037
L748.068 318.086
L749.34 319.119
L750.103 319.825
L751.069 320.363
L751.807 320.476
L752.418 320.346
L752.824 320.102
L753.231 319.62
L753.613 318.88
L754.503 315.976
L755.114 313.63
L755.953 312.9
L755.979 312.943
L757.607 316.88
L758.115 317.058
L758.471 316.539
L758.751 315.697
L759.464 311.527
L759.743 308.786
L760.583 295.272
L761.778 266.48
L762.719 249.729
L764.602 231.546
L765.67 209.624
L767.247 180.57
L767.934 177.956
L768.341 178.958
L768.544 180.031
L772.818 209.391
L772.843 209.266
L774.624 195.769
L774.624 195.769" style="fill:none;opacity:0.5;stroke:#0000ff;stroke-linecap:square;"/>
   </g>
   <g id="line2d_8">
    <path clip-path="url(#p9fd4257182)" d="
M116.877 63.2088
L116.903 63.2107
L120.133 65.1304
L120.49 65.5385
L123.466 70.7585
L125.068 75.1116
L127.612 84.0387
L129.291 90.3833
L140.076 107.509
L142.569 105.118
L155.389 63.7053
L162.791 58.0612
L169.277 57.1993
L171.643 57.1527
L174.416 57.2627
L178.765 57.1331
L182.784 59.0407
L183.369 61.03
L186.905 100.837
L186.931 100.691
L187.083 99.5111
L188.482 79.7712
L190.899 71.7087
L190.924 71.7504
L191.891 73.3889
L192.934 75.9071
L195.732 90.5608
L197.105 93.1903
L197.131 93.1715
L205.678 57.7004
L207.382 57.2056
L215.115 56.5088
L225.874 56.6806
L227.35 65.6437
L228.291 82.7413
L229.512 93.4087
L229.537 93.3861
L231.343 83.1165
L234.167 68.8577
L239.636 64.0278
L239.661 64.0654
L240.984 66.2481
L245.079 65.9432
L245.461 66.406
L245.842 67.6117
L246.962 69.3823
L246.987 69.3629
L249.276 62.7566
L251.26 61.069
L251.617 61.4471
L253.143 67.5531
L254.516 80.7931
L256.45 98.506
L260.214 65.2081
L261.995 59.0628
L262.809 58.2519
L266.014 56.9076
L269.422 56.8185
L274.103 58.1695
L284.405 87.5509
L284.43 87.4095
L285.88 74.7415
L288.398 67.1808
L288.602 67.262
L288.831 67.5021
L289.161 68.1002
L291.527 77.0057
L293.791 86.7872
L294.045 87.0998
L294.35 86.4447
L294.554 85.5287
L297.835 83.7176
L298.242 89.7156
L298.268 90.186
L299.107 115.52
L299.896 158.825
L300.43 172.849
L301.142 170.151
L301.575 162.417
L304.118 123.956
L306.306 126.647
L306.865 135.06
L308.849 129.791
L308.875 129.364
L309.613 114.878
L310.681 90.3711
L320.55 78.0056
L320.576 78.065
L321.746 79.3189
L327.698 68.3393
L331.107 62.7064
L346.954 57.3707
L355.679 60.1041
L364.124 77.2298
L371.068 103.318
L378.318 144.866
L390.604 306.668
L394.47 307.294
L395.106 306.335
L398.82 275.478
L403.983 95.0368
L406.476 71.4522
L407.417 68.5691
L408.816 67.8643
L412.606 74.793
L415.125 82.6503
L415.43 84.1639
L417.338 94.5155
L421.128 94.15
L423.544 85.5013
L425.757 82.0284
L431.964 77.0821
L432.6 77.1765
L434.965 76.6295
L438.908 72.1447
L443.105 66.69
L452.848 57.4907
L457.146 57.4902
L459.639 59.4242
L463.455 65.9429
L464.854 66.145
L465.083 65.6907
L467.347 60.5464
L470.017 59.402
L471.9 62.8266
L474.036 70.1721
L474.672 70.3445
L478.564 60.1656
L484.237 62.8937
L489.197 79.498
L489.222 79.4681
L490.52 76.0751
L492.046 69.7553
L493.343 65.7656
L496.65 58.5281
L498.329 57.4031
L500.058 57.038
L500.847 57.0384
L503.416 57.623
L504.332 59.3534
L505.654 65.7388
L506.163 65.6526
L506.799 63.5529
L510.589 56.9396
L516.44 57.0864
L518.373 56.9767
L521.858 57.5972
L526.004 68.4601
L529.031 72.4986
L534.322 64.3707
L540.02 61.9829
L542.614 62.6957
L551.644 79.6869
L551.67 79.6481
L553.527 75.9977
L556.961 60.4625
L556.986 60.3865
L561.031 58.049
L562.608 61.4653
L563.244 64.8449
L565.151 82.1485
L568.484 61.2204
L568.992 59.0233
L569.857 57.2832
L577.565 56.8238
L578.836 57.1398
L579.32 57.4064
L589.596 94.8403
L589.622 94.7544
L590.512 90.8876
L593.208 75.453
L594.124 71.0334
L600.407 58.7748
L600.763 58.5306
L602.086 57.8171
L612.133 56.864
L615.313 57.5845
L616.076 58.0919
L617.271 60.3765
L618.06 65.6254
L618.569 73.2908
L620.629 187.525
L629.379 70.0572
L629.405 70.2214
L629.761 72.8813
L630.193 77.1873
L630.778 85.463
L631.516 101.177
L632.025 116.054
L638.664 222.613
L639.376 224.597
L640.826 227.292
L644.616 230.881
L656.088 160.954
L665.144 103.457
L667.586 101.752
L669.163 106.918
L671.859 127.782
L676.285 140.48
L676.31 140.466
L676.438 140.385
L677.099 139.824
L684.094 125.458
L685.188 117.528
L688.189 89.0872
L699.356 71.2107
L699.382 71.3268
L699.509 71.9273
L701.289 84.505
L703.833 118.91
L706.606 161.245
L711.54 126.525
L721.13 166.619
L721.41 143.569
L721.868 123.472
L722.071 119.485
L722.275 117.684
L725.353 235.548
L726.446 283.433
L727.184 297.039
L728.787 309.134
L728.812 309.224
L729.55 311.012
L730.949 302.885
L732.475 303.257
L733.111 311.233
L733.696 316.159
L734.357 319.178
L735.807 321.236
L737.537 321.697
L741.2 321.788
L742.116 321.402
L743.718 320.458
L744.227 320.568
L745.321 321.223
L746.338 321.708
L747.712 322.02
L749.111 322.13
L755.114 322.07
L755.979 322.009
L757.607 321.448
L758.115 320.878
L758.726 319.492
L758.751 319.409
L759.438 315.853
L759.743 313.122
L760.557 300.257
L761.778 273.567
L762.44 268.425
L762.465 268.456
L762.719 269.747
L764.602 301.578
L765.67 304.848
L765.696 304.742
L767.222 274.026
L768.316 240.541
L768.519 236.341
L772.843 285.091
L774.598 288.969
L774.624 288.82" style="fill:none;opacity:0.5;stroke:#0000ff;stroke-linecap:square;"/>
   </g>
   <g id="patch_6">
    <path d="
M108 43.2
L777.6 43.2" style="fill:none;stroke:#000000;stroke-linecap:square;stroke-linejoin:miter;"/>
   </g>
   <g id="patch_7">
    <path d="
M777.6 322.473
L777.6 43.2" style="fill:none;stroke:#000000;stroke-linecap:square;stroke-linejoin:miter;"/>
   </g>
   <g id="patch_8">
    <path d="
M108 322.473
L777.6 322.473" style="fill:none;stroke:#000000;stroke-linecap:square;stroke-linejoin:miter;"/>
   </g>
   <g id="patch_9">
    <path d="
M108 322.473
L108 43.2" style="fill:none;stroke:#000000;stroke-linecap:square;stroke-linejoin:miter;"/>
   </g>
   <g id="matplotlib.axis_1">
    <g id="ytick_1">
     <g id="line2d_9">
      <defs>
       <path d="
M0 0
L4 0" id="m728421d6d4" style="stroke:#000000;stroke-width:0.5;"/>
      </defs>
      <g>
       <use style="stroke:#000000;stroke-width:0.5;" x="108.0" xlink:href="#m728421d6d4" y="322.472727273"/>
      </g>
     </g>
     <g id="line2d_10">
      <defs>
       <path d="
M0 0
L-4 0" id="mcb0005524f" style="stroke:#000000;stroke-width:0.5;"/>
      </defs>
      <g>
       <use style="stroke:#000000;stroke-width:0.5;" x="777.6" xlink:href="#mcb0005524f" y="322.472727273"/>
      </g>
     </g>
     <g id="text_1">
      <!-- 0 -->
      <defs>
       <path d="
M31.7812 66.4062
Q24.1719 66.4062 20.3281 58.9062
Q16.5 51.4219 16.5 36.375
Q16.5 21.3906 20.3281 13.8906
Q24.1719 6.39062 31.7812 6.39062
Q39.4531 6.39062 43.2812 13.8906
Q47.125 21.3906 47.125 36.375
Q47.125 51.4219 43.2812 58.9062
Q39.4531 66.4062 31.7812 66.4062
M31.7812 74.2188
Q44.0469 74.2188 50.5156 64.5156
Q56.9844 54.8281 56.9844 36.375
Q56.9844 17.9688 50.5156 8.26562
Q44.0469 -1.42188 31.7812 -1.42188
Q19.5312 -1.42188 13.0625 8.26562
Q6.59375 17.9688 6.59375 36.375
Q6.59375 54.8281 13.0625 64.5156
Q19.5312 74.2188 31.7812 74.2188" id="DejaVuSans-30"/>
      </defs>
      <g transform="translate(97.953125 325.783977273)scale(0.12 -0.12)">
       <use xlink:href="#DejaVuSans-30"/>
      </g>
     </g>
    </g>
    <g id="ytick_2">
     <g id="line2d_11">
      <g>
       <use style="stroke:#000000;stroke-width:0.5;" x="108.0" xlink:href="#m728421d6d4" y="269.277922078"/>
      </g>
     </g>
     <g id="line2d_12">
      <g>
       <use style="stroke:#000000;stroke-width:0.5;" x="777.6" xlink:href="#mcb0005524f" y="269.277922078"/>
      </g>
     </g>
     <g id="text_2">
      <!-- 20 -->
      <defs>
       <path d="
M19.1875 8.29688
L53.6094 8.29688
L53.6094 0
L7.32812 0
L7.32812 8.29688
Q12.9375 14.1094 22.625 23.8906
Q32.3281 33.6875 34.8125 36.5312
Q39.5469 41.8438 41.4219 45.5312
Q43.3125 49.2188 43.3125 52.7812
Q43.3125 58.5938 39.2344 62.25
Q35.1562 65.9219 28.6094 65.9219
Q23.9688 65.9219 18.8125 64.3125
Q13.6719 62.7031 7.8125 59.4219
L7.8125 69.3906
Q13.7656 71.7812 18.9375 73
Q24.125 74.2188 28.4219 74.2188
Q39.75 74.2188 46.4844 68.5469
Q53.2188 62.8906 53.2188 53.4219
Q53.2188 48.9219 51.5312 44.8906
Q49.8594 40.875 45.4062 35.4062
Q44.1875 33.9844 37.6406 27.2188
Q31.1094 20.4531 19.1875 8.29688" id="DejaVuSans-32"/>
      </defs>
      <g transform="translate(90.40625 272.589172078)scale(0.12 -0.12)">
       <use xlink:href="#DejaVuSans-32"/>
       <use x="63.623046875" xlink:href="#DejaVuSans-30"/>
      </g>
     </g>
    </g>
    <g id="ytick_3">
     <g id="line2d_13">
      <g>
       <use style="stroke:#000000;stroke-width:0.5;" x="108.0" xlink:href="#m728421d6d4" y="216.083116883"/>
      </g>
     </g>
     <g id="line2d_14">
      <g>
       <use style="stroke:#000000;stroke-width:0.5;" x="777.6" xlink:href="#mcb0005524f" y="216.083116883"/>
      </g>
     </g>
     <g id="text_3">
      <!-- 40 -->
      <defs>
       <path d="
M37.7969 64.3125
L12.8906 25.3906
L37.7969 25.3906
z

M35.2031 72.9062
L47.6094 72.9062
L47.6094 25.3906
L58.0156 25.3906
L58.0156 17.1875
L47.6094 17.1875
L47.6094 0
L37.7969 0
L37.7969 17.1875
L4.89062 17.1875
L4.89062 26.7031
z
" id="DejaVuSans-34"/>
      </defs>
      <g transform="translate(90.11375 219.394366883)scale(0.12 -0.12)">
       <use xlink:href="#DejaVuSans-34"/>
       <use x="63.623046875" xlink:href="#DejaVuSans-30"/>
      </g>
     </g>
    </g>
    <g id="ytick_4">
     <g id="line2d_15">
      <g>
       <use style="stroke:#000000;stroke-width:0.5;" x="108.0" xlink:href="#m728421d6d4" y="162.888311688"/>
      </g>
     </g>
     <g id="line2d_16">
      <g>
       <use style="stroke:#000000;stroke-width:0.5;" x="777.6" xlink:href="#mcb0005524f" y="162.888311688"/>
      </g>
     </g>
     <g id="text_4">
      <!-- 60 -->
      <defs>
       <path d="
M33.0156 40.375
Q26.375 40.375 22.4844 35.8281
Q18.6094 31.2969 18.6094 23.3906
Q18.6094 15.5312 22.4844 10.9531
Q26.375 6.39062 33.0156 6.39062
Q39.6562 6.39062 43.5312 10.9531
Q47.4062 15.5312 47.4062 23.3906
Q47.4062 31.2969 43.5312 35.8281
Q39.6562 40.375 33.0156 40.375
M52.5938 71.2969
L52.5938 62.3125
Q48.875 64.0625 45.0938 64.9844
Q41.3125 65.9219 37.5938 65.9219
Q27.8281 65.9219 22.6719 59.3281
Q17.5312 52.7344 16.7969 39.4062
Q19.6719 43.6562 24.0156 45.9219
Q28.375 48.1875 33.5938 48.1875
Q44.5781 48.1875 50.9531 41.5156
Q57.3281 34.8594 57.3281 23.3906
Q57.3281 12.1562 50.6875 5.35938
Q44.0469 -1.42188 33.0156 -1.42188
Q20.3594 -1.42188 13.6719 8.26562
Q6.98438 17.9688 6.98438 36.375
Q6.98438 53.6562 15.1875 63.9375
Q23.3906 74.2188 37.2031 74.2188
Q40.9219 74.2188 44.7031 73.4844
Q48.4844 72.75 52.5938 71.2969" id="DejaVuSans-36"/>
      </defs>
      <g transform="translate(90.365 166.199561688)scale(0.12 -0.12)">
       <use xlink:href="#DejaVuSans-36"/>
       <use x="63.623046875" xlink:href="#DejaVuSans-30"/>
      </g>
     </g>
    </g>
    <g id="ytick_5">
     <g id="line2d_17">
      <g>
       <use style="stroke:#000000;stroke-width:0.5;" x="108.0" xlink:href="#m728421d6d4" y="109.693506494"/>
      </g>
     </g>
     <g id="line2d_18">
      <g>
       <use style="stroke:#000000;stroke-width:0.5;" x="777.6" xlink:href="#mcb0005524f" y="109.693506494"/>
      </g>
     </g>
     <g id="text_5">
      <!-- 80 -->
      <defs>
       <path d="
M31.7812 34.625
Q24.75 34.625 20.7188 30.8594
Q16.7031 27.0938 16.7031 20.5156
Q16.7031 13.9219 20.7188 10.1562
Q24.75 6.39062 31.7812 6.39062
Q38.8125 6.39062 42.8594 10.1719
Q46.9219 13.9688 46.9219 20.5156
Q46.9219 27.0938 42.8906 30.8594
Q38.875 34.625 31.7812 34.625
M21.9219 38.8125
Q15.5781 40.375 12.0312 44.7188
Q8.5 49.0781 8.5 55.3281
Q8.5 64.0625 14.7188 69.1406
Q20.9531 74.2188 31.7812 74.2188
Q42.6719 74.2188 48.875 69.1406
Q55.0781 64.0625 55.0781 55.3281
Q55.0781 49.0781 51.5312 44.7188
Q48 40.375 41.7031 38.8125
Q48.8281 37.1562 52.7969 32.3125
Q56.7812 27.4844 56.7812 20.5156
Q56.7812 9.90625 50.3125 4.23438
Q43.8438 -1.42188 31.7812 -1.42188
Q19.7344 -1.42188 13.25 4.23438
Q6.78125 9.90625 6.78125 20.5156
Q6.78125 27.4844 10.7812 32.3125
Q14.7969 37.1562 21.9219 38.8125
M18.3125 54.3906
Q18.3125 48.7344 21.8438 45.5625
Q25.3906 42.3906 31.7812 42.3906
Q38.1406 42.3906 41.7188 45.5625
Q45.3125 48.7344 45.3125 54.3906
Q45.3125 60.0625 41.7188 63.2344
Q38.1406 66.4062 31.7812 66.4062
Q25.3906 66.4062 21.8438 63.2344
Q18.3125 60.0625 18.3125 54.3906" id="DejaVuSans-38"/>
      </defs>
      <g transform="translate(90.340625 113.004756494)scale(0.12 -0.12)">
       <use xlink:href="#DejaVuSans-38"/>
       <use x="63.623046875" xlink:href="#DejaVuSans-30"/>
      </g>
     </g>
    </g>
    <g id="ytick_6">
     <g id="line2d_19">
      <g>
       <use style="stroke:#000000;stroke-width:0.5;" x="108.0" xlink:href="#m728421d6d4" y="56.4987012987"/>
      </g>
     </g>
     <g id="line2d_20">
      <g>
       <use style="stroke:#000000;stroke-width:0.5;" x="777.6" xlink:href="#mcb0005524f" y="56.4987012987"/>
      </g>
     </g>
     <g id="text_6">
      <!-- 100 -->
      <defs>
       <path d="
M12.4062 8.29688
L28.5156 8.29688
L28.5156 63.9219
L10.9844 60.4062
L10.9844 69.3906
L28.4219 72.9062
L38.2812 72.9062
L38.2812 8.29688
L54.3906 8.29688
L54.3906 0
L12.4062 0
z
" id="DejaVuSans-31"/>
      </defs>
      <g transform="translate(83.21 59.8099512987)scale(0.12 -0.12)">
       <use xlink:href="#DejaVuSans-31"/>
       <use x="63.623046875" xlink:href="#DejaVuSans-30"/>
       <use x="127.24609375" xlink:href="#DejaVuSans-30"/>
      </g>
     </g>
    </g>
    <g id="text_7">
     <!-- Methylation -->
     <defs>
      <path d="
M9.8125 72.9062
L24.5156 72.9062
L43.1094 23.2969
L61.8125 72.9062
L76.5156 72.9062
L76.5156 0
L66.8906 0
L66.8906 64.0156
L48.0938 14.0156
L38.1875 14.0156
L19.3906 64.0156
L19.3906 0
L9.8125 0
z
" id="DejaVuSans-4d"/>
      <path d="
M30.6094 48.3906
Q23.3906 48.3906 19.1875 42.75
Q14.9844 37.1094 14.9844 27.2969
Q14.9844 17.4844 19.1562 11.8438
Q23.3438 6.20312 30.6094 6.20312
Q37.7969 6.20312 41.9844 11.8594
Q46.1875 17.5312 46.1875 27.2969
Q46.1875 37.0156 41.9844 42.7031
Q37.7969 48.3906 30.6094 48.3906
M30.6094 56
Q42.3281 56 49.0156 48.375
Q55.7188 40.7656 55.7188 27.2969
Q55.7188 13.875 49.0156 6.21875
Q42.3281 -1.42188 30.6094 -1.42188
Q18.8438 -1.42188 12.1719 6.21875
Q5.51562 13.875 5.51562 27.2969
Q5.51562 40.7656 12.1719 48.375
Q18.8438 56 30.6094 56" id="DejaVuSans-6f"/>
      <path d="
M54.8906 33.0156
L54.8906 0
L45.9062 0
L45.9062 32.7188
Q45.9062 40.4844 42.875 44.3281
Q39.8438 48.1875 33.7969 48.1875
Q26.5156 48.1875 22.3125 43.5469
Q18.1094 38.9219 18.1094 30.9062
L18.1094 0
L9.07812 0
L9.07812 54.6875
L18.1094 54.6875
L18.1094 46.1875
Q21.3438 51.125 25.7031 53.5625
Q30.0781 56 35.7969 56
Q45.2188 56 50.0469 50.1719
Q54.8906 44.3438 54.8906 33.0156" id="DejaVuSans-6e"/>
      <path d="
M9.42188 75.9844
L18.4062 75.9844
L18.4062 0
L9.42188 0
z
" id="DejaVuSans-6c"/>
      <path d="
M32.1719 -5.07812
Q28.375 -14.8438 24.75 -17.8125
Q21.1406 -20.7969 15.0938 -20.7969
L7.90625 -20.7969
L7.90625 -13.2812
L13.1875 -13.2812
Q16.8906 -13.2812 18.9375 -11.5156
Q21 -9.76562 23.4844 -3.21875
L25.0938 0.875
L2.98438 54.6875
L12.5 54.6875
L29.5938 11.9219
L46.6875 54.6875
L56.2031 54.6875
z
" id="DejaVuSans-79"/>
      <path d="
M54.8906 33.0156
L54.8906 0
L45.9062 0
L45.9062 32.7188
Q45.9062 40.4844 42.875 44.3281
Q39.8438 48.1875 33.7969 48.1875
Q26.5156 48.1875 22.3125 43.5469
Q18.1094 38.9219 18.1094 30.9062
L18.1094 0
L9.07812 0
L9.07812 75.9844
L18.1094 75.9844
L18.1094 46.1875
Q21.3438 51.125 25.7031 53.5625
Q30.0781 56 35.7969 56
Q45.2188 56 50.0469 50.1719
Q54.8906 44.3438 54.8906 33.0156" id="DejaVuSans-68"/>
      <path d="
M9.42188 54.6875
L18.4062 54.6875
L18.4062 0
L9.42188 0
z

M9.42188 75.9844
L18.4062 75.9844
L18.4062 64.5938
L9.42188 64.5938
z
" id="DejaVuSans-69"/>
      <path d="
M18.3125 70.2188
L18.3125 54.6875
L36.8125 54.6875
L36.8125 47.7031
L18.3125 47.7031
L18.3125 18.0156
Q18.3125 11.3281 20.1406 9.42188
Q21.9688 7.51562 27.5938 7.51562
L36.8125 7.51562
L36.8125 0
L27.5938 0
Q17.1875 0 13.2344 3.875
Q9.28125 7.76562 9.28125 18.0156
L9.28125 47.7031
L2.6875 47.7031
L2.6875 54.6875
L9.28125 54.6875
L9.28125 70.2188
z
" id="DejaVuSans-74"/>
      <path d="
M56.2031 29.5938
L56.2031 25.2031
L14.8906 25.2031
Q15.4844 15.9219 20.4844 11.0625
Q25.4844 6.20312 34.4219 6.20312
Q39.5938 6.20312 44.4531 7.46875
Q49.3125 8.73438 54.1094 11.2812
L54.1094 2.78125
Q49.2656 0.734375 44.1875 -0.34375
Q39.1094 -1.42188 33.8906 -1.42188
Q20.7969 -1.42188 13.1562 6.1875
Q5.51562 13.8125 5.51562 26.8125
Q5.51562 40.2344 12.7656 48.1094
Q20.0156 56 32.3281 56
Q43.3594 56 49.7812 48.8906
Q56.2031 41.7969 56.2031 29.5938
M47.2188 32.2344
Q47.125 39.5938 43.0938 43.9844
Q39.0625 48.3906 32.4219 48.3906
Q24.9062 48.3906 20.3906 44.1406
Q15.875 39.8906 15.1875 32.1719
z
" id="DejaVuSans-65"/>
      <path d="
M34.2812 27.4844
Q23.3906 27.4844 19.1875 25
Q14.9844 22.5156 14.9844 16.5
Q14.9844 11.7188 18.1406 8.90625
Q21.2969 6.10938 26.7031 6.10938
Q34.1875 6.10938 38.7031 11.4062
Q43.2188 16.7031 43.2188 25.4844
L43.2188 27.4844
z

M52.2031 31.2031
L52.2031 0
L43.2188 0
L43.2188 8.29688
Q40.1406 3.32812 35.5469 0.953125
Q30.9531 -1.42188 24.3125 -1.42188
Q15.9219 -1.42188 10.9531 3.29688
Q6 8.01562 6 15.9219
Q6 25.1406 12.1719 29.8281
Q18.3594 34.5156 30.6094 34.5156
L43.2188 34.5156
L43.2188 35.4062
Q43.2188 41.6094 39.1406 45
Q35.0625 48.3906 27.6875 48.3906
Q23 48.3906 18.5469 47.2656
Q14.1094 46.1406 10.0156 43.8906
L10.0156 52.2031
Q14.9375 54.1094 19.5781 55.0469
Q24.2188 56 28.6094 56
Q40.4844 56 46.3438 49.8438
Q52.2031 43.7031 52.2031 31.2031" id="DejaVuSans-61"/>
     </defs>
     <g transform="translate(75.714375 217.149801136)rotate(-90.0)scale(0.12 -0.12)">
      <use xlink:href="#DejaVuSans-4d"/>
      <use x="86.279296875" xlink:href="#DejaVuSans-65"/>
      <use x="147.802734375" xlink:href="#DejaVuSans-74"/>
      <use x="187.01171875" xlink:href="#DejaVuSans-68"/>
      <use x="250.390625" xlink:href="#DejaVuSans-79"/>
      <use x="309.5703125" xlink:href="#DejaVuSans-6c"/>
      <use x="337.353515625" xlink:href="#DejaVuSans-61"/>
      <use x="398.6328125" xlink:href="#DejaVuSans-74"/>
      <use x="437.841796875" xlink:href="#DejaVuSans-69"/>
      <use x="465.625" xlink:href="#DejaVuSans-6f"/>
      <use x="526.806640625" xlink:href="#DejaVuSans-6e"/>
     </g>
    </g>
   </g>
  </g>
  <g id="axes_2">
   <g id="patch_10">
    <path d="
M108 388.8
L777.6 388.8
L777.6 353.891
L108 353.891
z
" style="fill:#ffffff;"/>
   </g>
   <g id="line2d_21">
    <path clip-path="url(#pc82b1f09f0)" d="
M108 371.345
L777.6 371.345" style="fill:none;stroke:#000000;stroke-linecap:square;"/>
   </g>
   <g id="line2d_22">
    <path clip-path="url(#pc82b1f09f0)" d="
M133.437 371.345
L752.163 371.345" style="fill:none;stroke:#008000;stroke-linecap:square;stroke-width:3;"/>
   </g>
   <g id="patch_11">
    <path clip-path="url(#pc82b1f09f0)" d="
M745.295 388.8
L752.163 388.8
L752.163 353.891
L745.295 353.891
z
" style="fill:#008000;"/>
   </g>
   <g id="patch_12">
    <path clip-path="url(#pc82b1f09f0)" d="
M250.904 388.8
L254.745 388.8
L254.745 353.891
L250.904 353.891
z
" style="fill:#008000;"/>
   </g>
   <g id="patch_13">
    <path clip-path="url(#pc82b1f09f0)" d="
M133.437 388.8
L194.765 388.8
L194.765 353.891
L133.437 353.891
z
" style="fill:#008000;"/>
   </g>
   <g id="patch_14">
    <path d="
M108 353.891
L777.6 353.891" style="fill:none;"/>
   </g>
   <g id="patch_15">
    <path d="
M777.6 388.8
L777.6 353.891" style="fill:none;"/>
   </g>
   <g id="patch_16">
    <path d="
M108 388.8
L777.6 388.8" style="fill:none;"/>
   </g>
   <g id="patch_17">
    <path d="
M108 388.8
L108 353.891" style="fill:none;"/>
   </g>
   <g id="matplotlib.axis_2">
    <g id="xtick_1">
     <g id="line2d_23">
      <defs>
       <path d="
M0 0
L0 -4" id="m93b0483c22" style="stroke:#000000;stroke-width:0.5;"/>
      </defs>
      <g>
       <use style="stroke:#000000;stroke-width:0.5;" x="202.319890594" xlink:href="#m93b0483c22" y="388.8"/>
      </g>
     </g>
     <g id="line2d_24">
      <defs>
       <path d="
M0 0
L0 4" id="m741efc42ff" style="stroke:#000000;stroke-width:0.5;"/>
      </defs>
      <g>
       <use style="stroke:#000000;stroke-width:0.5;" x="202.319890594" xlink:href="#m741efc42ff" y="353.890909091"/>
      </g>
     </g>
     <g id="text_8">
      <!-- 1000 -->
      <g transform="translate(188.107390594 401.918125)scale(0.12 -0.12)">
       <use xlink:href="#DejaVuSans-31"/>
       <use x="63.623046875" xlink:href="#DejaVuSans-30"/>
       <use x="127.24609375" xlink:href="#DejaVuSans-30"/>
       <use x="190.869140625" xlink:href="#DejaVuSans-30"/>
      </g>
     </g>
    </g>
    <g id="xtick_2">
     <g id="line2d_25">
      <g>
       <use style="stroke:#000000;stroke-width:0.5;" x="329.504209087" xlink:href="#m93b0483c22" y="388.8"/>
      </g>
     </g>
     <g id="line2d_26">
      <g>
       <use style="stroke:#000000;stroke-width:0.5;" x="329.504209087" xlink:href="#m741efc42ff" y="353.890909091"/>
      </g>
     </g>
     <g id="text_9">
      <!-- 2000 -->
      <g transform="translate(315.072334087 401.918125)scale(0.12 -0.12)">
       <use xlink:href="#DejaVuSans-32"/>
       <use x="63.623046875" xlink:href="#DejaVuSans-30"/>
       <use x="127.24609375" xlink:href="#DejaVuSans-30"/>
       <use x="190.869140625" xlink:href="#DejaVuSans-30"/>
      </g>
     </g>
    </g>
    <g id="xtick_3">
     <g id="line2d_27">
      <g>
       <use style="stroke:#000000;stroke-width:0.5;" x="456.688527579" xlink:href="#m93b0483c22" y="388.8"/>
      </g>
     </g>
     <g id="line2d_28">
      <g>
       <use style="stroke:#000000;stroke-width:0.5;" x="456.688527579" xlink:href="#m741efc42ff" y="353.890909091"/>
      </g>
     </g>
     <g id="text_10">
      <!-- 3000 -->
      <defs>
       <path d="
M40.5781 39.3125
Q47.6562 37.7969 51.625 33
Q55.6094 28.2188 55.6094 21.1875
Q55.6094 10.4062 48.1875 4.48438
Q40.7656 -1.42188 27.0938 -1.42188
Q22.5156 -1.42188 17.6562 -0.515625
Q12.7969 0.390625 7.625 2.20312
L7.625 11.7188
Q11.7188 9.32812 16.5938 8.10938
Q21.4844 6.89062 26.8125 6.89062
Q36.0781 6.89062 40.9375 10.5469
Q45.7969 14.2031 45.7969 21.1875
Q45.7969 27.6406 41.2812 31.2656
Q36.7656 34.9062 28.7188 34.9062
L20.2188 34.9062
L20.2188 43.0156
L29.1094 43.0156
Q36.375 43.0156 40.2344 45.9219
Q44.0938 48.8281 44.0938 54.2969
Q44.0938 59.9062 40.1094 62.9062
Q36.1406 65.9219 28.7188 65.9219
Q24.6562 65.9219 20.0156 65.0312
Q15.375 64.1562 9.8125 62.3125
L9.8125 71.0938
Q15.4375 72.6562 20.3438 73.4375
Q25.25 74.2188 29.5938 74.2188
Q40.8281 74.2188 47.3594 69.1094
Q53.9062 64.0156 53.9062 55.3281
Q53.9062 49.2656 50.4375 45.0938
Q46.9688 40.9219 40.5781 39.3125" id="DejaVuSans-33"/>
      </defs>
      <g transform="translate(442.274465079 401.918125)scale(0.12 -0.12)">
       <use xlink:href="#DejaVuSans-33"/>
       <use x="63.623046875" xlink:href="#DejaVuSans-30"/>
       <use x="127.24609375" xlink:href="#DejaVuSans-30"/>
       <use x="190.869140625" xlink:href="#DejaVuSans-30"/>
      </g>
     </g>
    </g>
    <g id="xtick_4">
     <g id="line2d_29">
      <g>
       <use style="stroke:#000000;stroke-width:0.5;" x="583.872846072" xlink:href="#m93b0483c22" y="388.8"/>
      </g>
     </g>
     <g id="line2d_30">
      <g>
       <use style="stroke:#000000;stroke-width:0.5;" x="583.872846072" xlink:href="#m741efc42ff" y="353.890909091"/>
      </g>
     </g>
     <g id="text_11">
      <!-- 4000 -->
      <g transform="translate(569.294721072 401.918125)scale(0.12 -0.12)">
       <use xlink:href="#DejaVuSans-34"/>
       <use x="63.623046875" xlink:href="#DejaVuSans-30"/>
       <use x="127.24609375" xlink:href="#DejaVuSans-30"/>
       <use x="190.869140625" xlink:href="#DejaVuSans-30"/>
      </g>
     </g>
    </g>
    <g id="xtick_5">
     <g id="line2d_31">
      <g>
       <use style="stroke:#000000;stroke-width:0.5;" x="711.057164565" xlink:href="#m93b0483c22" y="388.8"/>
      </g>
     </g>
     <g id="line2d_32">
      <g>
       <use style="stroke:#000000;stroke-width:0.5;" x="711.057164565" xlink:href="#m741efc42ff" y="353.890909091"/>
      </g>
     </g>
     <g id="text_12">
      <!-- 5000 -->
      <defs>
       <path d="
M10.7969 72.9062
L49.5156 72.9062
L49.5156 64.5938
L19.8281 64.5938
L19.8281 46.7344
Q21.9688 47.4688 24.1094 47.8281
Q26.2656 48.1875 28.4219 48.1875
Q40.625 48.1875 47.75 41.5
Q54.8906 34.8125 54.8906 23.3906
Q54.8906 11.625 47.5625 5.09375
Q40.2344 -1.42188 26.9062 -1.42188
Q22.3125 -1.42188 17.5469 -0.640625
Q12.7969 0.140625 7.71875 1.70312
L7.71875 11.625
Q12.1094 9.23438 16.7969 8.0625
Q21.4844 6.89062 26.7031 6.89062
Q35.1562 6.89062 40.0781 11.3281
Q45.0156 15.7656 45.0156 23.3906
Q45.0156 31 40.0781 35.4375
Q35.1562 39.8906 26.7031 39.8906
Q22.75 39.8906 18.8125 39.0156
Q14.8906 38.1406 10.7969 36.2812
z
" id="DejaVuSans-35"/>
      </defs>
      <g transform="translate(696.648727065 401.918125)scale(0.12 -0.12)">
       <use xlink:href="#DejaVuSans-35"/>
       <use x="63.623046875" xlink:href="#DejaVuSans-30"/>
       <use x="127.24609375" xlink:href="#DejaVuSans-30"/>
       <use x="190.869140625" xlink:href="#DejaVuSans-30"/>
      </g>
     </g>
    </g>
    <g id="text_13">
     <!-- Length (bp) -->
     <defs>
      <path d="
M9.8125 72.9062
L19.6719 72.9062
L19.6719 8.29688
L55.1719 8.29688
L55.1719 0
L9.8125 0
z
" id="DejaVuSans-4c"/>
      <path id="DejaVuSans-20"/>
      <path d="
M45.4062 27.9844
Q45.4062 37.75 41.375 43.1094
Q37.3594 48.4844 30.0781 48.4844
Q22.8594 48.4844 18.8281 43.1094
Q14.7969 37.75 14.7969 27.9844
Q14.7969 18.2656 18.8281 12.8906
Q22.8594 7.51562 30.0781 7.51562
Q37.3594 7.51562 41.375 12.8906
Q45.4062 18.2656 45.4062 27.9844
M54.3906 6.78125
Q54.3906 -7.17188 48.1875 -13.9844
Q42 -20.7969 29.2031 -20.7969
Q24.4688 -20.7969 20.2656 -20.0938
Q16.0625 -19.3906 12.1094 -17.9219
L12.1094 -9.1875
Q16.0625 -11.3281 19.9219 -12.3438
Q23.7812 -13.375 27.7812 -13.375
Q36.625 -13.375 41.0156 -8.76562
Q45.4062 -4.15625 45.4062 5.17188
L45.4062 9.625
Q42.625 4.78125 38.2812 2.39062
Q33.9375 0 27.875 0
Q17.8281 0 11.6719 7.65625
Q5.51562 15.3281 5.51562 27.9844
Q5.51562 40.6719 11.6719 48.3281
Q17.8281 56 27.875 56
Q33.9375 56 38.2812 53.6094
Q42.625 51.2188 45.4062 46.3906
L45.4062 54.6875
L54.3906 54.6875
z
" id="DejaVuSans-67"/>
      <path d="
M31 75.875
Q24.4688 64.6562 21.2812 53.6562
Q18.1094 42.6719 18.1094 31.3906
Q18.1094 20.125 21.3125 9.0625
Q24.5156 -2 31 -13.1875
L23.1875 -13.1875
Q15.875 -1.70312 12.2344 9.375
Q8.59375 20.4531 8.59375 31.3906
Q8.59375 42.2812 12.2031 53.3125
Q15.8281 64.3594 23.1875 75.875
z
" id="DejaVuSans-28"/>
      <path d="
M8.01562 75.875
L15.8281 75.875
Q23.1406 64.3594 26.7812 53.3125
Q30.4219 42.2812 30.4219 31.3906
Q30.4219 20.4531 26.7812 9.375
Q23.1406 -1.70312 15.8281 -13.1875
L8.01562 -13.1875
Q14.5 -2 17.7031 9.0625
Q20.9062 20.125 20.9062 31.3906
Q20.9062 42.6719 17.7031 53.6562
Q14.5 64.6562 8.01562 75.875" id="DejaVuSans-29"/>
      <path d="
M48.6875 27.2969
Q48.6875 37.2031 44.6094 42.8438
Q40.5312 48.4844 33.4062 48.4844
Q26.2656 48.4844 22.1875 42.8438
Q18.1094 37.2031 18.1094 27.2969
Q18.1094 17.3906 22.1875 11.75
Q26.2656 6.10938 33.4062 6.10938
Q40.5312 6.10938 44.6094 11.75
Q48.6875 17.3906 48.6875 27.2969
M18.1094 46.3906
Q20.9531 51.2656 25.2656 53.625
Q29.5938 56 35.5938 56
Q45.5625 56 51.7812 48.0938
Q58.0156 40.1875 58.0156 27.2969
Q58.0156 14.4062 51.7812 6.48438
Q45.5625 -1.42188 35.5938 -1.42188
Q29.5938 -1.42188 25.2656 0.953125
Q20.9531 3.32812 18.1094 8.20312
L18.1094 0
L9.07812 0
L9.07812 75.9844
L18.1094 75.9844
z
" id="DejaVuSans-62"/>
      <path d="
M18.1094 8.20312
L18.1094 -20.7969
L9.07812 -20.7969
L9.07812 54.6875
L18.1094 54.6875
L18.1094 46.3906
Q20.9531 51.2656 25.2656 53.625
Q29.5938 56 35.5938 56
Q45.5625 56 51.7812 48.0938
Q58.0156 40.1875 58.0156 27.2969
Q58.0156 14.4062 51.7812 6.48438
Q45.5625 -1.42188 35.5938 -1.42188
Q29.5938 -1.42188 25.2656 0.953125
Q20.9531 3.32812 18.1094 8.20312
M48.6875 27.2969
Q48.6875 37.2031 44.6094 42.8438
Q40.5312 48.4844 33.4062 48.4844
Q26.2656 48.4844 22.1875 42.8438
Q18.1094 37.2031 18.1094 27.2969
Q18.1094 17.3906 22.1875 11.75
Q26.2656 6.10938 33.4062 6.10938
Q40.5312 6.10938 44.6094 11.75
Q48.6875 17.3906 48.6875 27.2969" id="DejaVuSans-70"/>
     </defs>
     <g transform="translate(408.4125 418.531875)scale(0.12 -0.12)">
      <use xlink:href="#DejaVuSans-4c"/>
      <use x="53.962890625" xlink:href="#DejaVuSans-65"/>
      <use x="115.486328125" xlink:href="#DejaVuSans-6e"/>
      <use x="178.865234375" xlink:href="#DejaVuSans-67"/>
      <use x="242.341796875" xlink:href="#DejaVuSans-74"/>
      <use x="281.55078125" xlink:href="#DejaVuSans-68"/>
      <use x="344.9296875" xlink:href="#DejaVuSans-20"/>
      <use x="376.716796875" xlink:href="#DejaVuSans-28"/>
      <use x="415.73046875" xlink:href="#DejaVuSans-62"/>
      <use x="479.20703125" xlink:href="#DejaVuSans-70"/>
      <use x="542.68359375" xlink:href="#DejaVuSans-29"/>
     </g>
     <!-- chr19:40247292-40271616 -->
     <defs>
      <path d="
M11.7188 12.4062
L22.0156 12.4062
L22.0156 0
L11.7188 0
z

M11.7188 51.7031
L22.0156 51.7031
L22.0156 39.3125
L11.7188 39.3125
z
" id="DejaVuSans-3a"/>
      <path d="
M4.89062 31.3906
L31.2031 31.3906
L31.2031 23.3906
L4.89062 23.3906
z
" id="DejaVuSans-2d"/>
      <path d="
M8.20312 72.9062
L55.0781 72.9062
L55.0781 68.7031
L28.6094 0
L18.3125 0
L43.2188 64.5938
L8.20312 64.5938
z
" id="DejaVuSans-37"/>
      <path d="
M10.9844 1.51562
L10.9844 10.5
Q14.7031 8.73438 18.5 7.8125
Q22.3125 6.89062 25.9844 6.89062
Q35.75 6.89062 40.8906 13.4531
Q46.0469 20.0156 46.7812 33.4062
Q43.9531 29.2031 39.5938 26.9531
Q35.25 24.7031 29.9844 24.7031
Q19.0469 24.7031 12.6719 31.3125
Q6.29688 37.9375 6.29688 49.4219
Q6.29688 60.6406 12.9375 67.4219
Q19.5781 74.2188 30.6094 74.2188
Q43.2656 74.2188 49.9219 64.5156
Q56.5938 54.8281 56.5938 36.375
Q56.5938 19.1406 48.4062 8.85938
Q40.2344 -1.42188 26.4219 -1.42188
Q22.7031 -1.42188 18.8906 -0.6875
Q15.0938 0.046875 10.9844 1.51562
M30.6094 32.4219
Q37.25 32.4219 41.125 36.9531
Q45.0156 41.5 45.0156 49.4219
Q45.0156 57.2812 41.125 61.8438
Q37.25 66.4062 30.6094 66.4062
Q23.9688 66.4062 20.0938 61.8438
Q16.2188 57.2812 16.2188 49.4219
Q16.2188 41.5 20.0938 36.9531
Q23.9688 32.4219 30.6094 32.4219" id="DejaVuSans-39"/>
      <path d="
M48.7812 52.5938
L48.7812 44.1875
Q44.9688 46.2969 41.1406 47.3438
Q37.3125 48.3906 33.4062 48.3906
Q24.6562 48.3906 19.8125 42.8438
Q14.9844 37.3125 14.9844 27.2969
Q14.9844 17.2812 19.8125 11.7344
Q24.6562 6.20312 33.4062 6.20312
Q37.3125 6.20312 41.1406 7.25
Q44.9688 8.29688 48.7812 10.4062
L48.7812 2.09375
Q45.0156 0.34375 40.9844 -0.53125
Q36.9688 -1.42188 32.4219 -1.42188
Q20.0625 -1.42188 12.7812 6.34375
Q5.51562 14.1094 5.51562 27.2969
Q5.51562 40.6719 12.8594 48.3281
Q20.2188 56 33.0156 56
Q37.1562 56 41.1094 55.1406
Q45.0625 54.2969 48.7812 52.5938" id="DejaVuSans-63"/>
      <path d="
M41.1094 46.2969
Q39.5938 47.1719 37.8125 47.5781
Q36.0312 48 33.8906 48
Q26.2656 48 22.1875 43.0469
Q18.1094 38.0938 18.1094 28.8125
L18.1094 0
L9.07812 0
L9.07812 54.6875
L18.1094 54.6875
L18.1094 46.1875
Q20.9531 51.1719 25.4844 53.5781
Q30.0312 56 36.5312 56
Q37.4531 56 38.5781 55.875
Q39.7031 55.7656 41.0625 55.5156
z
" id="DejaVuSans-72"/>
     </defs>
     <g transform="translate(361.0396875 431.96925)scale(0.12 -0.12)">
      <use xlink:href="#DejaVuSans-63"/>
      <use x="54.98046875" xlink:href="#DejaVuSans-68"/>
      <use x="118.359375" xlink:href="#DejaVuSans-72"/>
      <use x="159.47265625" xlink:href="#DejaVuSans-31"/>
      <use x="223.095703125" xlink:href="#DejaVuSans-39"/>
      <use x="286.71875" xlink:href="#DejaVuSans-3a"/>
      <use x="320.41015625" xlink:href="#DejaVuSans-34"/>
      <use x="384.033203125" xlink:href="#DejaVuSans-30"/>
      <use x="447.65625" xlink:href="#DejaVuSans-32"/>
      <use x="511.279296875" xlink:href="#DejaVuSans-34"/>
      <use x="574.90234375" xlink:href="#DejaVuSans-37"/>
      <use x="638.525390625" xlink:href="#DejaVuSans-32"/>
      <use x="702.1484375" xlink:href="#DejaVuSans-39"/>
      <use x="765.771484375" xlink:href="#DejaVuSans-32"/>
      <use x="829.39453125" xlink:href="#DejaVuSans-2d"/>
      <use x="865.478515625" xlink:href="#DejaVuSans-34"/>
      <use x="929.1015625" xlink:href="#DejaVuSans-30"/>
      <use x="992.724609375" xlink:href="#DejaVuSans-32"/>
      <use x="1056.34765625" xlink:href="#DejaVuSans-37"/>
      <use x="1119.97070312" xlink:href="#DejaVuSans-31"/>
      <use x="1183.59375" xlink:href="#DejaVuSans-36"/>
      <use x="1247.21679688" xlink:href="#DejaVuSans-31"/>
      <use x="1310.83984375" xlink:href="#DejaVuSans-36"/>
     </g>
    </g>
   </g>
  </g>
  <g id="text_14">
   <!-- ENSMUST00000182636 (Pdlim1) -->
   <defs>
    <path d="
M9.8125 72.9062
L23.0938 72.9062
L55.4219 11.9219
L55.4219 72.9062
L64.9844 72.9062
L64.9844 0
L51.7031 0
L19.3906 60.9844
L19.3906 0
L9.8125 0
z
" id="DejaVuSans-4e"/>
    <path d="
M52 44.1875
Q55.375 50.25 60.0625 53.125
Q64.75 56 71.0938 56
Q79.6406 56 84.2812 50.0156
Q88.9219 44.0469 88.9219 33.0156
L88.9219 0
L79.8906 0
L79.8906 32.7188
Q79.8906 40.5781 77.0938 44.375
Q74.3125 48.1875 68.6094 48.1875
Q61.625 48.1875 57.5625 43.5469
Q53.5156 38.9219 53.5156 30.9062
L53.5156 0
L44.4844 0
L44.4844 32.7188
Q44.4844 40.625 41.7031 44.4062
Q38.9219 48.1875 33.1094 48.1875
Q26.2188 48.1875 22.1562 43.5312
Q18.1094 38.875 18.1094 30.9062
L18.1094 0
L9.07812 0
L9.07812 54.6875
L18.1094 54.6875
L18.1094 46.1875
Q21.1875 51.2188 25.4844 53.6094
Q29.7812 56 35.6875 56
Q41.6562 56 45.8281 52.9688
Q50 49.9531 52 44.1875" id="DejaVuSans-6d"/>
    <path d="
M9.8125 72.9062
L55.9062 72.9062
L55.9062 64.5938
L19.6719 64.5938
L19.6719 43.0156
L54.3906 43.0156
L54.3906 34.7188
L19.6719 34.7188
L19.6719 8.29688
L56.7812 8.29688
L56.7812 0
L9.8125 0
z
" id="DejaVuSans-45"/>
    <path d="
M53.5156 70.5156
L53.5156 60.8906
Q47.9062 63.5781 42.9219 64.8906
Q37.9375 66.2188 33.2969 66.2188
Q25.25 66.2188 20.875 63.0938
Q16.5 59.9688 16.5 54.2031
Q16.5 49.3594 19.4062 46.8906
Q22.3125 44.4375 30.4219 42.9219
L36.375 41.7031
Q47.4062 39.5938 52.6562 34.2969
Q57.9062 29 57.9062 20.125
Q57.9062 9.51562 50.7969 4.04688
Q43.7031 -1.42188 29.9844 -1.42188
Q24.8125 -1.42188 18.9688 -0.25
Q13.1406 0.921875 6.89062 3.21875
L6.89062 13.375
Q12.8906 10.0156 18.6562 8.29688
Q24.4219 6.59375 29.9844 6.59375
Q38.4219 6.59375 43.0156 9.90625
Q47.6094 13.2344 47.6094 19.3906
Q47.6094 24.75 44.3125 27.7812
Q41.0156 30.8125 33.5 32.3281
L27.4844 33.5
Q16.4531 35.6875 11.5156 40.375
Q6.59375 45.0625 6.59375 53.4219
Q6.59375 63.0938 13.4062 68.6562
Q20.2188 74.2188 32.1719 74.2188
Q37.3125 74.2188 42.625 73.2812
Q47.9531 72.3594 53.5156 70.5156" id="DejaVuSans-53"/>
    <path d="
M45.4062 46.3906
L45.4062 75.9844
L54.3906 75.9844
L54.3906 0
L45.4062 0
L45.4062 8.20312
Q42.5781 3.32812 38.25 0.953125
Q33.9375 -1.42188 27.875 -1.42188
Q17.9688 -1.42188 11.7344 6.48438
Q5.51562 14.4062 5.51562 27.2969
Q5.51562 40.1875 11.7344 48.0938
Q17.9688 56 27.875 56
Q33.9375 56 38.25 53.625
Q42.5781 51.2656 45.4062 46.3906
M14.7969 27.2969
Q14.7969 17.3906 18.875 11.75
Q22.9531 6.10938 30.0781 6.10938
Q37.2031 6.10938 41.2969 11.75
Q45.4062 17.3906 45.4062 27.2969
Q45.4062 37.2031 41.2969 42.8438
Q37.2031 48.4844 30.0781 48.4844
Q22.9531 48.4844 18.875 42.8438
Q14.7969 37.2031 14.7969 27.2969" id="DejaVuSans-64"/>
    <path d="
M19.6719 64.7969
L19.6719 37.4062
L32.0781 37.4062
Q38.9688 37.4062 42.7188 40.9688
Q46.4844 44.5312 46.4844 51.125
Q46.4844 57.6719 42.7188 61.2344
Q38.9688 64.7969 32.0781 64.7969
z

M9.8125 72.9062
L32.0781 72.9062
Q44.3438 72.9062 50.6094 67.3594
Q56.8906 61.8125 56.8906 51.125
Q56.8906 40.3281 50.6094 34.8125
Q44.3438 29.2969 32.0781 29.2969
L19.6719 29.2969
L19.6719 0
L9.8125 0
z
" id="DejaVuSans-50"/>
    <path d="
M8.6875 72.9062
L18.6094 72.9062
L18.6094 28.6094
Q18.6094 16.8906 22.8438 11.7344
Q27.0938 6.59375 36.625 6.59375
Q46.0938 6.59375 50.3438 11.7344
Q54.5938 16.8906 54.5938 28.6094
L54.5938 72.9062
L64.5 72.9062
L64.5 27.3906
Q64.5 13.1406 57.4375 5.85938
Q50.3906 -1.42188 36.625 -1.42188
Q22.7969 -1.42188 15.7344 5.85938
Q8.6875 13.1406 8.6875 27.3906
z
" id="DejaVuSans-55"/>
    <path d="
M-0.296875 72.9062
L61.375 72.9062
L61.375 64.5938
L35.5 64.5938
L35.5 0
L25.5938 0
L25.5938 64.5938
L-0.296875 64.5938
z
" id="DejaVuSans-54"/>
   </defs>
   <g transform="translate(334.3809375 17.758125)scale(0.12 -0.12)">
    <use xlink:href="#DejaVuSans-45"/>
    <use x="63.18359375" xlink:href="#DejaVuSans-4e"/>
    <use x="137.98828125" xlink:href="#DejaVuSans-53"/>
    <use x="201.46484375" xlink:href="#DejaVuSans-4d"/>
    <use x="287.744140625" xlink:href="#DejaVuSans-55"/>
    <use x="360.9375" xlink:href="#DejaVuSans-53"/>
    <use x="424.4140625" xlink:href="#DejaVuSans-54"/>
    <use x="485.498046875" xlink:href="#DejaVuSans-30"/>
    <use x="549.12109375" xlink:href="#DejaVuSans-30"/>
    <use x="612.744140625" xlink:href="#DejaVuSans-30"/>
    <use x="676.3671875" xlink:href="#DejaVuSans-30"/>
    <use x="739.990234375" xlink:href="#DejaVuSans-30"/>
    <use x="803.61328125" xlink:href="#DejaVuSans-31"/>
    <use x="867.236328125" xlink:href="#DejaVuSans-38"/>
    <use x="930.859375" xlink:href="#DejaVuSans-32"/>
    <use x="994.482421875" xlink:href="#DejaVuSans-36"/>
    <use x="1058.10546875" xlink:href="#DejaVuSans-33"/>
    <use x="1121.72851562" xlink:href="#DejaVuSans-36"/>
    <use x="1185.3515625" xlink:href="#DejaVuSans-20"/>
    <use x="1217.13867188" xlink:href="#DejaVuSans-28"/>
    <use x="1256.15234375" xlink:href="#DejaVuSans-50"/>
    <use x="1316.45507812" xlink:href="#DejaVuSans-64"/>
    <use x="1379.93164062" xlink:href="#DejaVuSans-6c"/>
    <use x="1407.71484375" xlink:href="#DejaVuSans-69"/>
    <use x="1435.49804688" xlink:href="#DejaVuSans-6d"/>
    <use x="1532.91015625" xlink:href="#DejaVuSans-31"/>
    <use x="1596.53320312" xlink:href="#DejaVuSans-29"/>
   </g>
  </g>
 </g>
 <defs>
  <clipPath id="p9fd4257182">
   <rect height="279.272727273" width="669.6" x="108.0" y="43.2"/>
  </clipPath>
  <clipPath id="pc82b1f09f0">
   <rect height="34.9090909091" width="669.6" x="108.0" y="353.890909091"/>
  </clipPath>
 </defs>
</svg>
