<?xml version="1.0" encoding="utf-8" standalone="no"?>
<!DOCTYPE svg PUBLIC "-//W3C//DTD SVG 1.1//EN"
  "http://www.w3.org/Graphics/SVG/1.1/DTD/svg11.dtd">
<!-- Created with matplotlib (http://matplotlib.org/) -->
<svg height="432pt" version="1.1" viewBox="0 0 864 432" width="864pt" xmlns="http://www.w3.org/2000/svg" xmlns:xlink="http://www.w3.org/1999/xlink">
 <defs>
  <style type="text/css">
*{stroke-linecap:butt;stroke-linejoin:round;}
  </style>
 </defs>
 <g id="figure_1">
  <g id="patch_1">
   <path d="
M0 432
L864 432
L864 0
L0 0
z
" style="fill:#ffffff;"/>
  </g>
  <g id="axes_1">
   <g id="patch_2">
    <path d="
M108 322.473
L777.6 322.473
L777.6 43.2
L108 43.2
z
" style="fill:#ffffff;"/>
   </g>
   <g id="patch_3">
    <path clip-path="url(#p9fd4257182)" d="
M760.663 322.473
L766.086 322.473
L766.086 43.2
L760.663 43.2
z
" style="fill:#008000;opacity:0.2;"/>
   </g>
   <g id="patch_4">
    <path clip-path="url(#p9fd4257182)" d="
M491.382 322.473
L496.77 322.473
L496.77 43.2
L491.382 43.2
z
" style="fill:#008000;opacity:0.2;"/>
   </g>
   <g id="patch_5">
    <path clip-path="url(#p9fd4257182)" d="
M250.102 322.473
L253.015 322.473
L253.015 43.2
L250.102 43.2
z
" style="fill:#008000;opacity:0.2;"/>
   </g>
   <g id="patch_6">
    <path clip-path="url(#p9fd4257182)" d="
M218.243 322.473
L220.995 322.473
L220.995 43.2
L218.243 43.2
z
" style="fill:#008000;opacity:0.2;"/>
   </g>
   <g id="patch_7">
    <path clip-path="url(#p9fd4257182)" d="
M171.498 322.473
L173.881 322.473
L173.881 43.2
L171.498 43.2
z
" style="fill:#008000;opacity:0.2;"/>
   </g>
   <g id="patch_8">
    <path clip-path="url(#p9fd4257182)" d="
M119.514 322.473
L149.219 322.473
L149.219 43.2
L119.514 43.2
z
" style="fill:#008000;opacity:0.2;"/>
   </g>
   <g id="line2d_1">
    <path clip-path="url(#p9fd4257182)" d="
M110.326 80.4901
L110.855 78.9243
L111.017 78.305
L113.895 65.0206
L114.609 62.318
L116.048 59.3534
L117.648 58.3145
L121.943 76.6037
L123.325 130.415
L128.057 157.851
L128.955 114.529
L129.738 86.4004
L131.534 63.8458
L131.925 61.8229
L133.169 74.9523
L133.71 74.0169
L134.101 75.5936
L134.447 78.785
L135.356 95.8782
L136.151 126.287
L136.496 121.174
L136.876 94.5039
L137.602 63.6734
L138.189 59.2318
L138.557 58.9337
L139.524 65.4946
L139.916 69.2782
L140.112 68.5136
L140.607 61.7949
L141.113 57.8913
L142.909 57.4003
L143.531 57.2408
L145.442 62.937
L146.007 72.8552
L146.202 79.3736
L147.434 170.08
L151.291 98.9562
L151.729 85.3237
L153.56 66.6153
L154.377 66.0674
L155.148 66.0407
L158.303 67.5853
L160.583 62.9377
L163.761 57.1245
L164.394 56.9514
L169.771 57.4191
L171.843 57.229
L172.292 57.4874
L172.81 57.9344
L173.973 57.9993
L175.47 57.2937
L175.838 57.489
L177.761 90.1481
L179.949 151.626
L179.96 151.372
L182.378 99.1611
L184.025 73.1505
L184.992 64.2156
L185.579 61.0174
L188.791 57.0182
L202.182 85.8939
L212.728 91.3269
L220.166 73.3929
L229.826 58.0384
L236.435 57.4029
L244.103 57.5635
L246.717 57.5181
L251.426 57.7702
L252.842 58.0778
L253.924 58.4888
L260.13 70.2089
L262.859 81.9319
L263.63 84.1812
L270.331 58.4951
L272.427 57.7477
L274.476 57.5221
L281.902 57.3178
L284.159 57.4182
L288.085 57.8493
L290.63 57.9192
L303.203 57.3823
L307.624 57.3993
L312.943 69.423
L316.478 82.4737
L316.489 82.2806
L317.157 73.3569
L317.387 71.1185
L322.177 57.5603
L324.929 56.7843
L334.462 65.2381
L336.535 70.5674
L338.63 73.9722
L342.994 66.6712
L346.805 71.4941
L349.326 131.281
L349.43 139.288
L349.96 205.377
L353.817 322.472
L354.012 322.472
L355.624 322.098
L356.338 310.571
L357.455 182.625
L358.457 104.461
L359.101 85.9259
L362.037 98.9328
L364.444 270.313
L368.635 215.648
L369.406 148.363
L372.043 67.0716
L372.572 66.5122
L374.38 76.2458
L375.428 91.7554
L378.03 98.3594
L378.041 98.0723
L379.158 67.1985
L381.185 56.5476
L386.182 58.3131
L387.057 60.6559
L388.312 72.3335
L388.991 81.0982
L389.498 81.4462
L389.509 81.3902
L393.355 58.8682
L393.723 58.5371
L394.057 58.445
L396.106 59.9928
L397.212 61.3221
L400.459 58.5398
L400.47 58.5608
L401.011 60.1078
L402.381 88.2893
L404.223 309.188
L405.421 321.302
L406.964 322.456
L408.196 321.153
L408.311 318.496
L409.577 141.462
L409.865 143.499
L410.165 154.483
L412.767 68.6739
L416.255 63.0945
L416.267 63.1193
L416.992 64.6954
L417.971 71.4876
L423.382 62.4681
L424.038 59.6901
L426.836 57.4738
L433.549 66.6781
L433.56 66.9627
L435.541 119.337
L435.552 119.264
L435.852 115.668
L437.74 74.0119
L438.477 67.1232
L441.044 64.8036
L441.136 64.8824
L443.692 68.0124
L444.636 68.1924
L445.132 67.1062
L448.206 61.1758
L448.989 61.4528
L452.04 78.4529
L452.846 78.3078
L453.087 77.372
L454.976 65.3108
L455.402 63.269
L460.606 56.8773
L462.54 58.801
L463.726 68.8404
L464.175 79.5129
L464.693 100.556
L472.902 66.2958
L474.733 64.4014
L478.579 100.069
L479.983 119.504
L479.995 119.417
L482.182 79.0926
L483.173 68.7622
L484.669 59.3487
L491.497 61.5755
L492.833 75.4834
L493.754 78.8675
L493.765 78.799
L495.25 69.1004
L495.262 69.1664
L495.976 78.4503
L496.264 88.6645
L496.678 119.911
L497.565 221.237
L500.927 88.2318
L503.034 65.8044
L503.506 65.2585
L503.92 65.5013
L505.532 71.4176
L508.848 159.641
L513.258 319.339
L514.363 321.219
L515.123 321.635
L516.712 321.673
L522.86 59.3486
L522.872 59.349
L523.044 59.385
L523.839 59.9538
L525.877 67.9058
L526.671 78.2741
L527.201 85.1201
L528.122 119.87
L530.079 251.348
L531.38 263.147
L534.443 148.138
L539.325 96.5276
L539.428 96.559
L542.48 90.3337
L544.253 109.978
L544.748 119.493
L547.43 106.381
L547.741 83.1417
L548.144 68.051
L548.398 64.5458
L548.766 63.9674
L548.777 63.9987
L549.457 69.2401
L550.021 78.963
L550.032 79.3377
L551.61 146.777
L551.621 146.777
L553.452 113.902
L553.924 99.3604
L557.781 82.3398
L559.393 83.3415
L559.405 83.322
L559.646 82.9392
L562.133 79.332
L563.239 77.3618
L564.286 76.135
L568.282 72.9317
L570.642 73.2165
L571.218 72.609
L573.279 65.2601
L575.973 57.205
L578.817 57.5977
L579.323 57.5006
L580.371 57.1353
L582.351 57.0284
L585.725 75.069
L587.083 73.2038
L587.544 71.5822
L591.056 65.0099
L592.622 62.69
L595.373 67.2095
L595.811 68.8009
L598.286 58.9522
L599.645 58.0663
L600.566 58.373
L600.842 58.7437
L601.752 63.0126
L601.994 65.4375
L603.145 89.1889
L603.502 100.376
L605.367 105
L605.379 104.653
L607.037 93.8214
L607.048 94.2034
L607.543 117.787
L609.385 260.801
L609.397 261.258
L612.103 280.64
L612.114 280.554
L616.72 110.502
L617.33 97.8854
L618.988 94.4897
L622.096 173.963
L623.996 120.669
L626.644 58.3684
L627.485 57.0948
L628.487 56.7054
L632.551 56.8244
L634.911 57.7265
L639.632 72.9364
L640.081 77.5553
L642.13 109.795
L643.65 146.51
L647.53 211.659
L648.106 211.515
L648.843 208.607
L650.616 195.239
L656.223 230.906
L656.661 235.543
L657.812 251.449
L659.596 311.012
L660.782 311.513
L660.794 311.479
L663.35 133.32
L663.511 112.893
L666.09 58.1672
L668.6 57.1849
L668.796 57.1631
L669.752 57.4386
L670.408 58.2415
L676.395 245.227
L677.201 235.047
L678.571 102.91
L684.788 62.0004
L688.231 58.2693
L692.929 57.1879
L694.667 57.1043
L701.944 57.0631
L703.452 57.1671
L705.455 57.5775
L707.631 58.7463
L717.648 88.4684
L720.204 92.9815
L726.767 77.0489
L728.759 70.9307
L729.162 70.091
L730.221 68.618
L731.304 69.5427
L733.687 83.6937
L734.481 91.7257
L736.669 105.976
L738.81 101.077
L740.687 90.7244
L744.302 68.2728
L752.304 100.224
L752.316 99.8756
L752.788 105
L754.193 284.309
L754.722 298.401
L755.033 301.706
L756.507 312.632
L756.841 314.54
L758.199 319.698
L758.66 321.323
L758.89 321.747
L759.374 322.129
L759.673 322.18
L760.387 322.009
L761.193 321.707
L762.126 321.552
L762.494 321.202
L762.644 320.877
L762.886 319.95
L763.277 316.751
L764.014 308.143
L764.152 307.707
L764.325 307.795
L764.59 308.849
L764.923 310.653
L765.614 311.699
L765.626 311.677
L765.764 311.364
L766.846 313.542
L767.215 318.679
L767.41 320.251
L767.79 321.543
L768.285 321.77
L769.103 316.595
L769.23 310.211
L769.667 205.985
L770.853 139.306
L771.659 141.273
L771.705 141.494
L772.534 113.504
L773.398 74.9125
L773.616 73.4539
L773.754 73.2393
L774.146 73.4936
L774.514 75.8313
L775.263 98.8447
L776.253 222.798
L776.253 222.798" style="fill:none;opacity:0.5;stroke:#0000ff;stroke-linecap:square;"/>
   </g>
   <g id="line2d_2">
    <path clip-path="url(#p9fd4257182)" d="
M110.314 56.8717
L111.017 57.0451
L112.329 59.4272
L112.479 60.4005
L112.744 63.3249
L113.895 109.716
L114.609 130.338
L117.648 70.9318
L121.943 138.178
L123.325 205.171
L128.057 127.048
L128.943 83.6661
L128.955 83.322
L129.738 69.3292
L131.545 79.2103
L131.937 87.5812
L132.651 98.8482
L132.662 98.75
L133.71 69.4603
L134.09 66.8897
L134.101 66.9008
L134.228 67.3421
L134.447 69.4449
L135.356 93.7102
L135.748 97.4919
L135.759 97.4609
L136.151 92.6477
L136.876 76.3007
L137.602 67.6376
L138.177 67.129
L138.189 67.177
L138.557 75.2129
L139.513 119.077
L139.524 117.78
L139.916 69.9095
L140.112 60.7916
L140.607 56.7189
L141.113 56.5418
L142.103 57.1632
L142.909 57.142
L143.531 56.7649
L145.442 69.5047
L146.202 115.963
L147.423 145.236
L147.434 144.899
L151.291 66.3398
L151.729 64.8535
L153.56 63.4366
L154.377 63.5453
L155.148 64.7392
L158.303 115.593
L160.583 200.842
L164.394 62.6897
L169.759 57.2386
L173.973 58.1489
L175.47 57.8993
L175.838 58.2224
L177.75 104.314
L177.761 104.308
L179.96 70.7309
L182.378 69.7206
L184.025 67.6502
L184.992 65.8584
L185.579 64.4908
L188.791 57.9843
L202.182 57.5754
L211.001 57.9551
L212.74 57.6534
L220.166 56.9816
L229.826 56.8639
L236.435 56.9586
L246.717 57.6221
L251.426 57.0898
L252.347 57.3176
L252.842 57.6715
L253.924 59.9088
L260.118 127.223
L260.13 127.088
L262.87 82.554
L263.642 73.7253
L270.331 58.2652
L272.427 57.656
L274.488 57.3405
L276.514 57.2053
L281.902 57.2718
L284.159 57.7178
L287.463 63.1389
L288.085 66.0566
L290.63 85.3377
L297.665 61.8144
L300.013 58.2478
L303.203 57.1388
L307.624 56.8508
L312.943 58.4289
L316.662 62.2734
L317.387 63.3657
L322.177 76.0822
L324.929 85.0117
L334.462 94.9494
L336.535 93.1062
L338.63 100.299
L342.994 134.705
L346.805 260.618
L349.43 307.471
L349.96 307.297
L353.817 253.87
L356.338 190.148
L358.457 145.055
L359.101 135.649
L362.026 125.14
L362.037 125.174
L364.444 152.584
L368.635 257.703
L368.807 257.722
L369.406 252.856
L372.043 127.078
L372.572 108.273
L374.38 79.2379
L375.428 75.7088
L378.041 73.8531
L379.158 62.1496
L381.173 56.5179
L386.182 56.5178
L387.057 56.8759
L388.312 65.0393
L388.991 82.9322
L389.509 104.442
L393.355 73.8218
L394.057 65.3166
L395.899 58.3175
L396.21 58.1755
L397.212 58.451
L400.47 83.5516
L401.011 94.4598
L402.381 152.516
L403.072 200.487
L404.223 262.126
L405.421 287.488
L408.311 307.322
L409.566 308.267
L409.577 308.183
L409.98 303.129
L410.165 299.283
L412.767 62.3536
L416.267 56.8354
L416.992 57.0112
L417.971 58.0294
L423.371 121.242
L423.382 121.19
L424.038 115.652
L426.836 67.0731
L433.56 56.5023
L435.552 58.2305
L435.852 61.7211
L436.957 97.8658
L437.74 89.1498
L438.477 68.9109
L441.136 56.9549
L443.692 56.7625
L445.132 56.8687
L448.989 56.7892
L452.04 63.1021
L453.087 72.3518
L454.757 57.5321
L454.976 57.0307
L455.402 56.6943
L464.175 57.4458
L464.693 57.5552
L472.902 122.941
L474.733 150.326
L478.579 137.161
L479.995 107.271
L482.182 75.9303
L483.081 71.4615
L483.161 71.5722
L483.173 71.595
L484.669 95.1812
L491.497 84.3226
L491.509 83.1237
L491.935 61.4417
L492.833 56.7115
L493.765 56.5346
L495.262 56.7722
L495.976 59.0236
L496.264 62.7386
L496.678 76.4628
L497.565 125.372
L500.927 60.7709
L503.034 57.299
L503.92 57.0855
L505.532 56.9963
L508.848 59.7025
L513.258 116.523
L514.363 139.249
L515.123 147.528
L516.723 135.601
L522.86 56.6276
L523.839 56.5734
L525.877 61.299
L526.188 64.3654
L526.89 74.8408
L527.201 80.5831
L528.122 101.963
L530.068 114.627
L530.079 114.218
L531.38 94.2739
L531.392 94.3231
L534.443 161.386
L539.325 89.0169
L539.428 88.7799
L542.48 75.3088
L544.253 60.4357
L544.748 60.5202
L547.43 71.8652
L547.442 71.7639
L548.398 63.17
L548.777 62.3641
L549.457 59.3431
L550.032 56.6504
L553.924 56.8643
L557.793 56.7091
L559.646 57.0663
L562.133 65.2501
L563.239 72.853
L564.286 78.817
L568.282 121.416
L570.642 170.033
L571.091 171.21
L571.218 170.729
L573.279 118.632
L575.961 69.3717
L578.817 61.4435
L579.323 61.0922
L580.371 60.6742
L582.34 60.9738
L585.725 71.8927
L587.083 83.0973
L587.544 85.6271
L591.056 62.1882
L592.622 58.1602
L598.286 56.6864
L599.645 56.5637
L600.405 57.4884
L600.566 58.3237
L600.854 60.8332
L601.752 71.854
L601.994 73.3696
L603.145 74.5847
L603.502 74.3888
L605.379 67.4747
L607.048 65.6127
L607.543 65.5187
L609.132 68.0996
L609.397 70.0632
L612.103 118.242
L613.611 118.938
L613.749 117.559
L615.983 74.5697
L616.72 69.1323
L617.318 69.384
L617.33 69.4245
L618.999 91.2857
L622.108 255.392
L623.996 228.975
L626.656 105.186
L627.485 81.1121
L628.487 67.8509
L632.551 57.1265
L634.911 56.7698
L640.081 56.8252
L641.865 57.7914
L642.13 58.1733
L643.65 64.935
L648.106 241.153
L648.843 262.705
L650.627 284.441
L656.211 214.367
L656.223 214.741
L656.661 232.612
L657.812 286.897
L659.596 316.86
L660.794 318.88
L663.35 271.684
L663.511 262.035
L666.09 93.4561
L668.301 69.4681
L668.6 69.3215
L668.796 69.4161
L669.752 71.8648
L670.408 75.5386
L676.395 137.256
L677.201 141.35
L678.559 143.448
L678.571 143.439
L684.788 92.9444
L688.231 68.7121
L692.353 62.8958
L692.929 62.6145
L694.667 62.1671
L700.746 68.0914
L701.944 72.9134
L703.464 82.4407
L704.845 95.1079
L705.455 101.897
L707.631 129.353
L717.648 89.1913
L720.204 85.9485
L726.756 68.3942
L728.759 63.5347
L729.162 63.2389
L730.221 64.6913
L731.304 68.9631
L733.687 94.6989
L734.493 110.392
L736.657 110.494
L740.687 64.7955
L742.656 57.8711
L743.335 57.1231
L744.302 56.7955
L746.87 56.5102
L752.788 56.5433
L753.41 132.388
L754.193 309.408
L754.492 314.266
L754.734 315.107
L754.93 314.944
L755.252 314.05
L755.77 314.566
L756.507 317.448
L756.841 318.018
L757.359 317.632
L757.854 316.939
L758.061 316.986
L758.199 317.226
L759.374 321.456
L759.673 321.777
L760.387 321.95
L762.31 321.872
L764.025 321.723
L764.59 321.96
L764.923 322.071
L765.683 321.837
L765.775 321.699
L766.846 307.29
L767.41 288.841
L767.79 278.69
L768.285 257.098
L769.241 175.164
L769.667 158.052
L770.853 159.962
L770.865 159.853
L771.717 153.094
L772.546 136.317
L773.57 76.5939
L773.754 73.1674
L774.146 69.8394
L774.514 68.5812
L775.274 69.3402
L776.264 77.1761
L776.264 77.1761" style="fill:none;opacity:0.5;stroke:#ff0000;stroke-linecap:square;"/>
   </g>
   <g id="line2d_3">
    <path clip-path="url(#p9fd4257182)" d="
M110.314 70.6702
L110.855 70.9391
L111.017 70.9561
L112.341 69.6738
L112.744 68.7422
L113.895 66.0072
L114.609 65.1233
L116.048 64.7287
L117.66 66.3276
L121.943 114.137
L123.325 175.987
L128.045 136.03
L128.057 134.817
L128.632 88.4614
L128.955 75.0672
L129.738 62.934
L131.534 81.8764
L131.545 81.5917
L131.937 71.6241
L132.662 62.4751
L133.169 61.3979
L133.526 61.6557
L133.71 62.1035
L134.101 64.0585
L134.343 66.7942
L134.447 68.5363
L135.356 97.9345
L135.748 102.788
L135.759 102.746
L136.151 97.109
L136.876 82.2246
L137.602 74.383
L139.916 58.5089
L140.112 58.0317
L140.607 57.4945
L141.102 57.3814
L142.103 56.6256
L142.909 57.2954
L143.405 61.7111
L143.531 64.1947
L145.431 76.4187
L145.442 76.2771
L146.202 65.6334
L147.423 59.3411
L147.434 59.3505
L151.291 104.865
L151.729 131.798
L153.548 120.582
L153.56 119.242
L154.377 64.706
L155.148 57.7001
L157.543 56.8402
L160.583 56.7722
L163.761 57.771
L164.394 57.8096
L169.759 59.7532
L171.601 61.7756
L171.613 61.7394
L171.97 60.4158
L172.292 58.3337
L172.81 56.9289
L173.973 60.8886
L174.745 127.684
L175.47 119.158
L175.838 103.539
L177.761 100.87
L179.96 78.4024
L182.378 66.3234
L184.025 61.9129
L184.992 60.1809
L185.579 59.3829
L188.791 58.0181
L202.182 70.4699
L211.001 72.4061
L212.74 72.562
L219.694 71.8794
L220.166 72.0321
L229.815 82.491
L229.826 82.4176
L235.687 58.3716
L236.435 57.7813
L241.282 56.7037
L244.138 56.806
L246.717 57.3317
L252.842 56.9382
L253.924 56.9251
L260.13 57.8734
L262.225 65.1194
L262.87 71.1792
L263.642 81.7754
L270.331 61.0541
L272.127 57.7242
L272.427 57.5105
L274.476 56.9184
L276.514 56.9294
L280.36 58.2161
L281.902 64.4245
L284.159 77.1073
L287.463 62.3037
L288.085 61.044
L290.63 59.8835
L297.665 81.0615
L300.013 89.7458
L303.203 78.9871
L305.148 68.2696
L306.023 65.2357
L307.624 62.0465
L312.943 62.6359
L316.662 64.6634
L317.387 65.2234
L322.177 71.6494
L324.929 76.2303
L336.535 98.6837
L338.63 107.049
L342.994 140.191
L346.805 250.067
L349.43 291.823
L349.96 298.45
L353.805 292.857
L354.012 286.357
L356.338 175.023
L357.455 135.021
L358.457 116.06
L359.101 110.406
L362.037 158.391
L364.444 241.731
L368.635 224.804
L368.807 219.28
L369.406 195.645
L372.043 82.5259
L372.572 75.595
L374.369 76.8266
L374.38 76.9786
L375.428 100.962
L378.041 188.033
L378.893 191.666
L378.905 191.438
L379.158 184.771
L381.185 109.31
L386.182 66.9069
L387.057 66.6824
L388.312 67.7366
L389.509 71.5989
L393.723 62.5218
L394.057 61.6691
L396.106 58.9033
L397.212 58.0943
L400.47 67.9562
L401.011 82.1737
L403.061 295.945
L403.072 296.515
L404.223 318.103
L405.421 322.415
L406.964 322.442
L408.196 313.328
L408.311 310.165
L410.165 233.891
L412.767 154.993
L416.267 59.3009
L416.992 58.3852
L417.971 58.2373
L423.382 97.2607
L424.038 135.229
L426.836 81.8605
L433.56 57.7237
L435.852 57.3175
L438.477 57.246
L441.136 56.7836
L443.692 57.6142
L445.132 62.1604
L448.989 65.6125
L452.04 111.747
L452.846 70.1012
L453.087 63.8274
L454.342 56.574
L455.402 56.5003
L460.617 58.6959
L462.54 63.3997
L463.726 71.2009
L464.175 75.8186
L464.693 82.4878
L472.891 135.839
L472.902 135.639
L474.733 109.995
L478.579 86.9123
L479.995 81.2884
L483.173 71.1201
L484.669 61.9997
L491.509 57.143
L493.765 56.9504
L496.678 56.8706
L497.565 56.8597
L500.927 57.5913
L503.506 62.8332
L503.92 63.4519
L505.532 64.1621
L508.837 69.677
L513.258 106.807
L515.123 139.016
L516.712 150.579
L516.723 150.568
L522.86 56.5231
L523.827 56.5012
L525.877 61.7646
L526.188 67.6127
L528.122 122.589
L530.079 195.385
L531.38 210.213
L531.392 210.195
L534.443 114.59
L539.325 58.2278
L539.428 58.1079
L542.48 57.2715
L544.253 57.4764
L544.748 57.3316
L547.442 56.7137
L548.386 57.0235
L548.398 57.0293
L548.777 57.4575
L549.457 61.1262
L550.032 67.7052
L551.621 63.6494
L553.452 74.0672
L553.924 80.6472
L557.781 60.7806
L559.405 62.7248
L559.646 63.9864
L562.133 73.8055
L562.698 75.4425
L563.239 76.1814
L564.286 72.6793
L568.27 73.9167
L570.642 99.859
L571.218 108.878
L573.267 125.498
L573.279 125.437
L575.973 89.8809
L578.817 59.1543
L579.323 57.9402
L580.371 57.1298
L582.351 58.6775
L585.713 96.3259
L585.725 96.0888
L587.083 67.5859
L587.544 64.9207
L591.056 56.8766
L592.622 56.8545
L595.373 60.8736
L595.811 62.8884
L598.275 78.1826
L598.286 78.1488
L600.405 63.7456
L600.854 62.3987
L601.752 61.5787
L601.994 61.6237
L603.145 62.9971
L603.502 63.8599
L607.048 79.4562
L609.397 86.9844
L612.103 91.1887
L612.114 91.1537
L613.68 84.4888
L615.983 68.2009
L616.72 66.7065
L617.33 68.5821
L618.999 103.293
L622.108 254.328
L623.996 190.42
L626.656 67.0338
L627.473 60.1374
L628.487 57.5543
L632.551 56.8499
L634.209 56.9939
L634.911 57.175
L639.897 69.3217
L640.081 69.4869
L642.13 67.0006
L643.662 67.2284
L647.53 231.542
L648.106 270.389
L648.843 298.227
L650.616 315.657
L656.211 219.608
L656.223 219.705
L656.661 228.248
L657.812 270.346
L659.596 299.872
L660.782 304.4
L660.794 304.382
L663.35 185.609
L663.511 170.148
L666.09 74.501
L668.289 67.5717
L668.301 67.5863
L668.796 68.6269
L669.763 73.2326
L670.408 78.6596
L676.395 282.734
L677.201 268.336
L678.571 85.7905
L684.8 58.7384
L688.231 56.9129
L692.353 57.2551
L692.929 57.5824
L694.667 61.2686
L700.746 79.4205
L701.944 81.0403
L703.464 80.8325
L705.455 78.7018
L707.631 77.4655
L717.637 89.6023
L720.204 82.3791
L726.767 67.032
L728.759 66.8928
L729.162 67.6019
L730.221 71.7561
L731.304 80.3413
L733.687 110.283
L734.274 114.385
L734.493 114.899
L736.669 96.8144
L738.81 76.32
L740.687 71.5375
L742.645 72.2998
L743.335 73.1396
L744.302 74.6732
L746.87 72.0465
L752.304 211.273
L752.316 205.751
L752.788 86.2707
L753.41 119.048
L754.193 288.254
L754.492 296.472
L754.734 295.541
L755.252 287.87
L755.759 299.323
L756.426 316.673
L756.507 317.544
L756.841 319.556
L757.359 319.928
L757.981 319.449
L758.188 319.669
L758.199 319.692
L758.89 321.421
L759.374 321.91
L759.673 322.014
L760.387 321.922
L762.632 321.122
L763.277 321.19
L764.336 321.584
L764.923 321.821
L765.683 321.571
L765.775 321.412
L766.846 307.597
L767.41 291.537
L768.285 271.691
L769.241 244.409
L769.667 238.23
L770.853 253.344
L771.717 208.862
L772.546 130.504
L773.57 84.5942
L773.754 82.0386
L774.146 79.2476
L774.514 78.4379
L775.274 81.5629
L776.264 98.9086
L776.264 98.9086" style="fill:none;opacity:0.5;stroke:#ff0000;stroke-linecap:square;"/>
   </g>
   <g id="line2d_4">
    <path clip-path="url(#p9fd4257182)" d="
M110.314 56.8639
L110.855 57.4639
L110.867 57.4862
L111.017 57.8421
L112.479 73.1476
L112.732 73.9355
L112.744 73.9269
L113.895 62.402
L114.609 57.944
L116.048 56.7568
L117.66 56.6647
L121.932 57.6892
L123.325 64.8346
L128.045 123.457
L128.057 122.429
L128.632 81.0466
L128.955 70.9844
L129.738 62.3527
L131.534 67.9484
L131.545 67.9423
L131.937 67.0917
L133.169 60.3155
L133.526 59.8895
L133.71 60.1702
L134.101 63.2256
L134.343 68.9207
L134.447 73.0617
L135.759 189.189
L136.151 165.581
L136.496 95.4388
L136.876 60.2314
L137.602 56.7387
L138.557 56.6056
L139.524 56.8875
L139.916 57.4452
L140.112 58.1545
L140.975 65.8702
L141.044 65.7216
L141.113 65.3257
L142.103 58.3401
L142.909 60.0599
L143.405 68.2586
L143.531 74.0543
L145.431 67.7821
L145.442 67.8325
L146.202 72.0496
L147.434 80.3023
L151.291 73.2357
L151.729 68.9448
L153.56 59.3506
L154.377 58.1658
L155.148 57.7075
L157.543 57.4782
L164.394 58.1121
L169.771 56.555
L171.613 83.4075
L171.843 93.2693
L171.958 94.2859
L171.97 94.2178
L172.292 82.0317
L172.81 59.5389
L173.973 56.5513
L174.745 56.8182
L175.47 75.0183
L175.838 108.029
L177.75 128.007
L177.761 127.789
L179.96 115.131
L182.378 104.823
L184.992 88.5141
L185.579 85.5737
L188.791 75.0742
L202.182 59.8603
L211.001 61.5568
L212.74 62.257
L220.166 67.4921
L229.826 69.1214
L235.687 68.9227
L236.435 70.297
L241.282 62.027
L244.149 58.1717
L246.717 57.2785
L252.842 57.1726
L253.924 57.2588
L260.13 69.0063
L263.642 93.21
L270.331 59.5446
L272.127 60.5963
L272.427 61.1522
L274.488 70.2929
L276.525 88.9674
L281.891 69.3021
L281.902 69.2888
L284.021 71.0996
L284.159 71.4228
L288.085 86.611
L290.63 98.5841
L297.653 104.248
L297.665 104.199
L303.203 68.1256
L305.148 61.19
L306.023 59.1657
L307.624 57.4013
L312.943 74.5842
L316.478 89.8679
L316.489 89.4552
L316.662 83.9069
L317.387 69.9299
L322.177 57.5475
L324.929 59.0392
L334.462 85.0474
L336.535 85.4817
L338.63 92.1909
L342.994 122.427
L346.805 291.552
L349.43 315.72
L349.96 316.081
L353.817 297.078
L354.012 293.49
L355.624 236.482
L356.338 203.033
L357.455 159.629
L358.445 135.871
L359.101 127.196
L362.037 159.802
L364.444 271.509
L368.623 260.995
L368.807 251.074
L369.406 207.171
L372.043 60.9751
L372.572 58.9867
L374.38 59.5633
L375.428 64.4831
L378.041 89.4475
L378.905 87.0581
L379.158 85.5299
L381.185 69.2204
L386.182 57.1048
L387.057 56.9654
L389.509 56.9509
L393.355 63.1873
L393.723 68.5962
L394.057 78.1093
L395.899 64.0966
L396.21 60.3084
L397.212 57.4226
L400.47 60.5473
L401.011 67.365
L402.381 173.701
L403.072 262.22
L404.212 312.091
L405.421 319.982
L406.964 321.074
L408.196 317.255
L408.311 316.011
L409.577 284.003
L410.165 256.665
L412.767 118.547
L416.267 59.5738
L416.992 58.6821
L417.971 58.6484
L423.382 76.4484
L424.038 80.1627
L426.836 102.762
L433.549 107.805
L435.552 68.2966
L435.852 65.8743
L436.439 63.296
L436.796 63.0725
L437.74 63.5642
L438.477 61.1371
L441.136 56.5522
L443.692 58.5219
L444.636 72.7988
L445.132 91.4746
L448.206 62.621
L448.989 57.9801
L452.04 56.8871
L455.402 56.9676
L464.693 56.4993
L472.902 127.012
L474.733 149.566
L478.579 117.499
L479.995 93.3853
L482.182 69.9465
L483.173 65.5106
L484.669 62.6783
L491.509 56.7948
L491.935 57.0387
L492.833 61.3854
L493.765 72.2751
L495.262 67.5061
L496.264 62.2276
L496.678 61.0387
L497.565 59.7772
L500.927 57.4928
L503.034 63.6299
L503.506 64.4462
L503.92 64.2914
L505.532 62.285
L508.848 59.8959
L513.258 69.4259
L514.363 94.1052
L515.123 129.125
L516.723 221.423
L522.86 66.4697
L523.033 68.6737
L523.839 77.2348
L525.865 67.4163
L525.877 67.4471
L526.188 69.1467
L526.89 79.0045
L527.201 84.994
L528.122 120.044
L530.079 140.21
L531.392 129.563
L534.328 129.884
L534.339 129.778
L534.443 128.753
L539.325 70.1869
L539.428 69.8902
L542.48 77.8703
L544.253 84.4781
L544.736 84.7352
L544.748 84.7057
L547.442 57.3823
L547.741 57.0802
L548.398 56.8701
L549.457 56.8263
L550.032 57.1624
L551.621 70.9429
L553.924 57.8829
L559.646 68.6155
L562.133 72.5039
L563.239 73.0757
L564.286 73.3266
L568.282 73.1901
L570.642 71.4389
L571.218 73.0568
L573.279 85.5324
L575.973 89.8663
L578.817 79.4059
L580.371 64.6315
L582.34 56.697
L585.725 57.0662
L591.056 57.0315
L592.622 57.1067
L595.811 56.9553
L598.286 56.5662
L599.645 56.5267
L600.405 59.8618
L600.566 64.2227
L600.854 78.5448
L601.74 99.802
L601.752 99.669
L601.994 95.9125
L603.145 73.2832
L603.49 69.3935
L605.379 67.6278
L607.048 80.8413
L609.132 112.533
L609.397 114.924
L612.114 78.236
L613.611 96.3192
L613.749 102.689
L615.971 169.393
L615.983 168.923
L616.72 134.756
L617.33 112.847
L618.999 136.722
L622.096 243.456
L622.108 243.391
L623.996 101.453
L626.644 58.8722
L627.485 58.6301
L628.487 58.7038
L632.551 59.9703
L634.209 61.0545
L634.911 60.7687
L639.632 61.4686
L640.081 62.7908
L641.865 76.5229
L642.13 79.7726
L643.662 106.919
L647.519 246.362
L648.106 259.597
L648.843 270.801
L650.627 282.045
L656.661 274.135
L657.812 277.268
L659.596 309.682
L660.794 308.342
L663.35 194.744
L663.511 181.412
L666.09 69.7262
L668.301 60.5633
L668.796 60.333
L669.763 61.8596
L670.408 65.1612
L676.383 182.814
L676.395 182.686
L678.571 153.474
L684.8 112.287
L688.231 142.191
L692.353 61.3079
L692.929 58.8747
L694.667 56.94
L700.746 58.1454
L701.944 59.743
L703.464 61.5899
L704.845 64.2402
L705.455 65.8032
L707.631 73.5689
L717.648 71.3224
L720.204 68.4326
L726.767 69.0778
L729.162 76.2693
L730.221 77.8326
L731.304 86.3075
L733.687 81.9262
L734.493 73.6149
L736.657 71.2554
L736.669 71.3065
L738.81 81.2697
L740.687 81.3048
L742.656 77.0348
L744.291 71.5994
L744.302 71.5687
L746.859 69.8984
L746.87 69.9221
L752.304 211.111
L752.316 208.192
L752.788 140.214
L753.41 166.688
L754.492 293.25
L754.941 311.364
L755.252 315.758
L755.77 317.8
L756.369 317.995
L756.507 317.891
L756.841 317.513
L757.981 313.753
L758.05 313.822
L758.199 314.302
L759.236 320.754
L759.57 321.442
L759.673 321.559
L760.387 321.886
L761.158 321.802
L763.519 321.186
L764.164 321.362
L765.775 322.237
L766.846 319.629
L767.077 314.126
L767.41 297.524
L768.285 227.5
L769.103 186.072
L769.241 187.457
L769.667 215.283
L770.853 269.306
L770.865 268.384
L771.717 114.915
L772.546 66.6066
L773.386 62.1321
L773.398 62.148
L773.616 62.8963
L773.754 64.3787
L774.146 79.2525
L774.514 123.393
L775.263 193.464
L775.274 193.353
L776.264 77.0613
L776.264 77.0613" style="fill:none;opacity:0.5;stroke:#ff0000;stroke-linecap:square;"/>
   </g>
   <g id="line2d_5">
    <path clip-path="url(#p9fd4257182)" d="
M110.314 66.8296
L110.326 66.7915
L111.017 65.3587
L112.341 68.9747
L112.744 72.0977
L113.895 89.7094
L114.597 102.604
L114.609 102.587
L116.048 61.5098
L117.66 56.5106
L121.943 110.92
L123.325 204.444
L128.057 151.271
L128.632 83.3528
L128.955 68.7132
L129.738 59.2925
L131.545 66.7623
L131.937 77.6873
L132.651 100.361
L132.662 100.172
L133.514 69.7777
L133.71 67.1389
L134.009 66.5334
L134.021 66.5602
L134.228 67.5558
L134.447 69.6983
L135.356 92.5984
L135.759 112.07
L136.139 120.331
L136.151 120.154
L136.496 100.298
L136.876 72.1175
L137.602 61.3491
L138.189 61.4356
L138.557 70.1112
L139.513 135.729
L139.524 134.953
L140.112 77.7307
L140.607 58.8557
L141.102 56.7657
L141.113 56.7587
L142.103 56.7832
L142.909 57.0701
L143.531 58.2963
L145.431 102.089
L145.442 101.896
L146.202 85.596
L147.434 69.7918
L151.28 97.8624
L151.291 97.6864
L151.729 90.8592
L153.56 72.5433
L154.377 69.3912
L155.148 67.0713
L157.543 62.7803
L160.583 59.8736
L163.761 57.4546
L164.394 57.3456
L169.759 65.6785
L171.601 101.371
L171.613 99.9883
L171.97 67.707
L172.292 58.7607
L172.81 56.7324
L173.973 57.0799
L174.745 57.4629
L175.47 57.3726
L175.838 57.6556
L177.761 94.7841
L179.949 149.408
L179.96 148.988
L182.378 96.9203
L184.025 79.4216
L184.992 71.0757
L185.579 67.1391
L188.791 59.2125
L202.182 76.2388
L210.99 136.437
L211.001 136.432
L212.728 131.43
L219.694 93.2257
L220.166 92.3557
L229.826 60.4612
L235.687 64.1222
L236.435 66.4731
L241.282 109.632
L244.103 132.451
L244.138 132.372
L246.717 104.666
L251.426 61.929
L252.347 59.9566
L252.842 59.2635
L253.924 58.3118
L260.13 57.1847
L263.642 56.7775
L270.331 56.5432
L272.127 57.2759
L272.427 57.6776
L274.488 65.525
L276.525 79.4424
L280.36 101.009
L281.902 100.413
L284.159 86.8916
L287.463 71.9225
L288.085 71.1535
L290.63 69.3479
L297.665 81.6218
L300.013 100.189
L303.203 69.6579
L305.148 58.6908
L306.023 57.7432
L307.624 57.3453
L312.943 61.8647
L316.489 82.6615
L316.662 82.9955
L317.157 83.1497
L317.387 82.8585
L322.177 69.5903
L324.917 73.129
L334.462 85.1461
L336.535 70.0596
L338.63 66.6887
L342.994 60.9646
L346.805 72.0906
L349.43 120.129
L349.96 141.005
L353.817 299.284
L354.012 300.479
L355.624 291.807
L356.338 271.51
L357.455 205.453
L358.457 135.724
L359.101 106.811
L362.037 108.084
L364.444 243.663
L368.635 186.049
L369.406 123.406
L372.043 58.9063
L372.572 57.9213
L374.38 56.9476
L375.428 56.8302
L378.041 56.8272
L379.158 57.0105
L381.185 58.343
L387.057 75.7677
L388.312 77.2306
L388.991 75.2256
L389.509 70.3436
L393.343 62.9338
L393.355 62.9895
L393.723 65.3328
L394.057 68.8106
L395.899 85.5087
L396.21 85.3295
L397.2 86.2251
L397.212 86.2123
L400.459 76.606
L400.47 76.7532
L401.011 86.4736
L402.381 147.124
L404.223 281.87
L405.409 308.026
L406.964 302.917
L408.299 291.654
L408.311 291.649
L409.577 293.32
L409.865 293.145
L409.98 292.892
L410.165 292.206
L412.767 194.11
L416.267 59.0033
L416.992 57.3358
L417.971 56.8079
L424.038 56.6937
L426.836 57.1828
L433.56 63.57
L435.541 72.4241
L435.552 72.3983
L435.852 71.3503
L436.439 67.5548
L436.957 63.2469
L437.74 58.9927
L438.477 57.4809
L441.136 56.7682
L445.132 56.9326
L448.989 57.1004
L453.087 57.0375
L455.402 57.2682
L460.606 94.2287
L462.54 79.8316
L463.726 66.6883
L464.175 63.6766
L464.693 61.307
L472.891 66.597
L472.902 66.797
L474.733 113.069
L478.579 103.282
L479.995 91.6367
L482.182 75.5896
L483.173 71.8109
L484.669 70.0238
L491.497 72.4412
L491.935 67.5178
L492.833 60.4856
L493.765 57.9957
L495.262 57.1091
L495.976 58.436
L496.264 60.559
L496.678 70.9365
L497.565 149.671
L500.927 61.4953
L503.034 57.1333
L503.92 57.1197
L505.532 57.5387
L508.848 79.878
L513.258 314.129
L514.363 319.117
L515.123 320.273
L516.723 320.824
L523.033 91.7283
L523.827 85.9806
L525.877 87.4845
L526.188 91.0538
L526.89 101.548
L527.201 107.852
L528.122 137.098
L530.079 250.281
L531.38 260.338
L531.392 259.993
L534.443 58.8757
L539.428 57.1011
L542.48 57.0529
L544.253 58.1162
L544.748 59.1847
L547.442 72.2992
L547.741 72.08
L548.398 70.7798
L548.777 71.1861
L549.457 72.6158
L549.929 73.163
L550.032 73.5754
L551.495 77.1262
L551.506 77.0554
L551.621 76.2347
L553.452 58.1864
L553.924 57.0476
L557.793 56.9277
L559.646 58.1873
L562.133 62.9757
L562.698 64.4145
L563.239 65.1757
L564.286 64.9763
L568.282 64.0205
L570.642 80.2641
L571.218 91.2204
L573.279 138.769
L575.961 98.4548
L578.817 65.9517
L579.323 64.9399
L580.141 64.8317
L580.371 65.0446
L582.34 70.4319
L585.713 72.1993
L585.725 72.0894
L587.083 59.8448
L587.544 57.856
L591.056 57.4987
L592.622 57.0545
L595.811 56.9853
L598.286 56.7095
L599.633 57.1713
L600.405 58.6695
L600.854 60.7645
L601.994 70.5317
L603.133 74.2069
L603.145 74.1704
L603.502 72.4022
L605.379 58.6783
L607.037 57.7842
L607.048 57.807
L607.543 60.1858
L609.397 240.119
L612.114 60.647
L613.611 59.8552
L613.622 59.8977
L613.761 60.4837
L615.971 83.7769
L615.983 83.7197
L617.33 70.5211
L618.999 76.1113
L622.108 157.805
L623.985 167.818
L623.996 167.615
L626.656 93.635
L627.485 78.3794
L628.487 68.3492
L632.551 58.8747
L634.209 58.109
L634.911 58.0044
L639.632 58.052
L640.081 58.9688
L641.854 66.7129
L641.865 66.6945
L642.13 66.1201
L643.662 66.2961
L647.53 185.062
L648.106 248.891
L648.843 290.497
L650.616 292.696
L650.627 292.524
L656.223 192.997
L656.661 189.554
L657.812 211.275
L659.596 313.68
L660.782 313.825
L660.794 313.715
L663.511 146.436
L666.09 85.9537
L668.301 82.2422
L668.796 79.3643
L669.763 76.199
L670.408 75.8318
L676.395 105.418
L677.201 111.376
L678.559 113.741
L678.571 113.699
L684.8 62.2943
L688.231 57.3447
L692.929 56.8812
L694.667 57.017
L701.944 57.3167
L705.455 57.1283
L707.631 56.9547
L717.648 56.5826
L720.204 59.416
L726.756 101.792
L726.767 101.474
L728.759 67.9967
L729.162 65.6411
L730.221 63.0183
L731.304 62.7543
L733.687 86.7709
L734.493 99.7412
L736.669 68.1888
L738.81 66.8881
L740.687 68.2074
L742.656 65.5236
L743.335 63.9068
L744.302 61.9231
L746.87 59.5609
L752.304 105.698
L752.316 104.542
L752.777 89.4185
L752.788 89.7145
L753.41 170.555
L754.193 298.16
L754.492 304.782
L754.722 305.692
L754.734 305.683
L754.941 304.911
L755.77 299.708
L756.3 297.482
L756.369 297.51
L756.507 297.915
L756.841 301.001
L758.199 316.618
L758.66 319.573
L758.89 320.324
L759.374 321.039
L759.673 321.066
L760.214 319.647
L760.848 316.796
L760.859 316.799
L761.078 317.557
L761.78 320.986
L762.126 321.632
L762.494 321.834
L762.874 321.801
L763.864 321.532
L764.923 321.887
L765.672 321.022
L765.775 320.577
L767.79 279.423
L768.285 254.157
L769.241 148.632
L769.667 133.775
L770.853 133.307
L771.705 98.6985
L773.386 106.727
L773.398 106.564
L773.743 95.1712
L774.503 67.0211
L776.264 56.5062
L776.264 56.5062" style="fill:none;opacity:0.5;stroke:#0000ff;stroke-linecap:square;"/>
   </g>
   <g id="line2d_6">
    <path clip-path="url(#p9fd4257182)" d="
M110.314 63.5757
L110.855 65.0641
L111.005 65.55
L112.732 73.3733
L113.895 78.6946
L114.609 80.193
L116.048 79.2111
L117.66 74.8967
L123.325 84.9848
L128.045 78.8566
L128.632 70.0619
L128.955 66.6311
L129.738 61.9597
L131.534 88.6885
L131.545 86.7722
L131.937 59.0054
L132.662 56.5676
L133.169 56.6406
L133.526 57.1929
L133.71 58.1573
L134.217 65.4459
L134.447 71.4328
L135.356 103.195
L135.759 110.665
L136.151 107.924
L136.496 93.9651
L136.876 73.3268
L137.602 60.9283
L138.189 59.6955
L138.557 61.4593
L139.524 93.8735
L140.112 71.0379
L140.607 59.9871
L141.113 57.6664
L142.092 56.9182
L142.898 57.046
L143.531 57.4433
L145.442 69.2744
L146.202 67.2738
L147.434 76.5809
L151.28 154.428
L151.291 153.925
L151.729 129.541
L153.56 65.2567
L154.377 62.6125
L155.148 61.4121
L157.543 60.9006
L158.315 61.3858
L160.583 72.128
L163.761 101.555
L164.394 94.4238
L169.771 81.2407
L171.717 61.6288
L171.843 61.5244
L171.97 61.663
L172.292 63.2946
L172.81 67.9368
L173.973 58.62
L174.733 58.1621
L174.745 58.1964
L175.47 65.4589
L175.838 73.3755
L177.75 79.6523
L177.761 79.5087
L179.949 75.5732
L179.96 75.6039
L182.378 99.8671
L184.025 88.0458
L185.579 66.1629
L188.791 56.5192
L202.182 62.4326
L210.99 83.1038
L211.001 83.0957
L219.694 71.8371
L220.166 71.8839
L229.826 80.1316
L235.687 61.8653
L236.435 61.05
L241.282 63.1823
L244.149 74.5581
L246.717 93.2594
L251.426 85.1229
L252.842 66.8332
L253.924 60.8248
L260.13 68.5571
L263.642 76.736
L270.331 77.0088
L272.427 70.8959
L274.488 66.5138
L276.525 64.501
L280.348 64.092
L281.902 68.1063
L284.159 79.5571
L287.463 104.148
L288.085 107.607
L290.63 115.86
L297.653 133.396
L297.665 133.323
L300.013 109.19
L303.203 79.677
L305.137 76.0383
L305.148 76.0548
L306.023 78.2661
L307.624 86.2462
L312.943 59.33
L316.489 58.7101
L317.157 59.6271
L317.387 60.0497
L322.177 69.0593
L324.929 65.8226
L334.462 62.3568
L336.535 65.5171
L338.63 74.7028
L342.994 160.457
L346.805 248.166
L349.418 275.695
L349.96 277.977
L353.817 267.325
L354.012 265.1
L355.624 222.552
L357.455 145.416
L358.457 117.538
L359.101 108.331
L362.037 150.154
L364.444 236.88
L368.623 231.818
L368.807 227.328
L369.406 209.282
L372.031 106.956
L372.561 97.2218
L374.369 92.2892
L374.38 92.4019
L375.428 117.101
L378.03 236.64
L378.041 236.545
L378.905 216.673
L379.158 206.558
L381.185 111.863
L386.182 90.7397
L387.057 80.4482
L388.312 64.4614
L388.991 60.6324
L389.509 59.1175
L393.355 56.8546
L394.057 56.8784
L396.106 57.3534
L396.21 57.4287
L397.212 59.544
L400.47 111.733
L401.011 122.897
L402.381 173.542
L403.072 206.258
L404.223 279.124
L405.421 314.625
L406.964 319.839
L408.196 315.539
L408.311 314.47
L410.165 279.724
L412.767 266.209
L416.267 91.495
L416.992 82.3457
L417.971 79.9635
L423.382 116.68
L424.038 123.526
L426.836 98.9435
L433.56 59.3958
L435.552 65.4163
L435.852 68.2497
L437.74 90.509
L438.477 92.4535
L441.136 72.1998
L443.692 72.1185
L444.636 71.0219
L445.132 70.2713
L448.206 61.0453
L448.989 60.2573
L452.04 82.5337
L452.834 89.8141
L452.846 89.8114
L453.087 89.2115
L454.342 81.1769
L454.745 81.0465
L454.757 81.0916
L454.976 82.5659
L455.402 89.1268
L460.606 266.13
L462.54 118.413
L463.726 73.6373
L464.175 67.4575
L464.693 63.5886
L472.902 153.764
L474.733 131.696
L478.579 65.5602
L479.995 58.9892
L482.182 57.0806
L483.173 57.027
L484.669 57.635
L491.497 80.4616
L491.509 80.2816
L491.935 74.7169
L492.833 67.807
L493.765 64.3178
L495.262 62.0552
L496.264 60.7807
L496.678 60.1319
L497.565 60.8877
L500.915 79.1423
L500.927 79.1171
L503.034 60.433
L503.506 58.9409
L503.92 58.104
L505.532 56.7422
L508.848 57.3085
L513.258 70.2005
L514.363 85.431
L515.123 102.434
L516.723 152.857
L522.872 57.2057
L523.044 57.1398
L525.877 87.6452
L526.188 124.793
L526.66 160.776
L526.671 160.646
L526.89 146.285
L527.201 96.2944
L528.122 57.0588
L530.079 60.2702
L531.392 94.3832
L534.339 156.035
L534.443 152.858
L539.325 64.6295
L539.428 64.3608
L542.48 65.8717
L544.253 64.9501
L544.748 66.831
L547.43 114.646
L547.442 114.166
L548.386 76.1766
L548.766 68.2601
L549.457 62.4608
L549.917 62.0654
L549.929 62.0804
L550.032 62.2588
L551.621 76.6002
L553.452 75.9428
L553.924 71.9625
L557.793 56.8444
L559.405 57.1336
L559.646 57.3423
L563.227 66.3121
L563.239 66.3482
L564.286 70.3699
L568.282 93.2787
L570.642 115.645
L571.091 114.346
L571.218 113.49
L573.279 72.6677
L575.973 57.3619
L580.371 57.8991
L582.351 62.407
L585.713 77.4526
L585.725 77.2942
L587.083 64.1553
L587.544 63.8874
L591.056 73.374
L592.622 84.987
L595.373 59.4173
L595.811 58.1322
L598.286 57.0579
L600.566 57.0845
L600.842 57.1536
L601.752 57.7189
L601.994 58.0109
L603.145 61.217
L603.502 62.6987
L605.379 67.9617
L607.048 83.0059
L607.543 93.2674
L609.397 138.768
L612.103 143.911
L612.114 143.795
L613.622 158.384
L613.749 165.004
L615.983 126.661
L616.72 63.0888
L617.33 57.0583
L618.999 62.433
L622.108 224.178
L623.996 196.813
L626.656 91.8581
L627.485 77.1478
L628.487 71.4952
L632.551 84.7792
L634.209 84.2368
L634.911 80.9349
L639.632 71.3227
L640.081 72.9263
L641.865 85.9115
L642.13 89.0751
L643.662 116.269
L648.106 255.83
L648.843 272.192
L650.627 293.694
L656.211 218.48
L656.223 218.806
L656.661 235.148
L657.812 284.004
L659.596 306.403
L660.794 305.035
L663.35 198.571
L663.511 184.811
L666.09 89.3463
L668.301 67.4175
L668.796 65.5664
L669.763 63.8645
L670.408 63.5787
L676.395 97.5363
L677.201 107.612
L678.559 109.436
L678.571 109.332
L684.8 69.5197
L688.231 61.124
L692.353 65.1864
L692.929 67.9505
L694.667 86.2464
L700.746 58.8093
L701.944 59.1333
L703.464 60.418
L704.845 62.932
L705.455 64.6959
L707.631 78.9456
L717.637 87.3966
L717.648 87.1552
L720.204 59.4874
L726.767 56.6186
L728.759 56.923
L729.162 57.1844
L730.221 58.747
L731.292 62.6376
L734.274 85.3539
L734.493 86.4161
L736.669 85.015
L738.81 74.3363
L740.687 67.5373
L742.656 61.4198
L743.335 60.15
L744.302 59.0511
L746.87 58.9831
L752.304 175.199
L752.316 170.001
L752.788 90.6909
L753.41 173.736
L754.193 316.569
L754.492 320.399
L754.861 321.496
L755.24 321.781
L755.759 321.847
L755.77 321.844
L756.426 321.209
L756.507 321.043
L756.841 320.077
L757.762 316.699
L757.981 316.598
L758.188 317.013
L758.499 318.336
L758.89 319.673
L759.374 320.528
L759.673 320.713
L760.214 320.365
L760.859 319.597
L761.078 319.779
L762.126 321.644
L762.644 321.882
L764.164 322.028
L764.923 321.961
L765.775 321.83
L766.846 320.484
L767.077 319.111
L767.215 317.714
L767.41 314.459
L767.79 299.643
L768.285 247.581
L769.103 188.759
L769.241 187.76
L769.667 191.49
L770.853 177.269
L771.705 129.374
L772.546 95.3074
L773.754 58.4101
L774.146 56.8551
L774.514 56.7931
L775.274 56.9141
L776.264 57.283
L776.264 57.283" style="fill:none;opacity:0.5;stroke:#ff0000;stroke-linecap:square;"/>
   </g>
   <g id="line2d_7">
    <path clip-path="url(#p9fd4257182)" d="
M110.314 63.803
L110.326 63.9462
L112.341 97.0791
L112.479 97.0344
L112.744 95.3342
L113.895 76.6024
L114.609 68.6281
L116.037 64.8278
L116.048 64.8347
L117.66 64.8695
L121.943 83.5152
L123.325 126.073
L128.057 173.178
L128.632 91.5805
L128.955 72.0569
L129.738 59.4872
L131.545 67.4964
L131.937 84.4455
L132.651 103.624
L132.662 103.52
L133.71 73.9365
L134.101 70.5505
L134.228 70.6855
L134.447 71.9827
L135.356 85.8821
L135.759 96.4027
L136.151 110.767
L136.496 101.804
L136.876 69.2379
L137.602 59.2821
L138.189 59.2787
L138.557 61.3066
L139.513 99.5519
L139.524 99.233
L140.112 65.9193
L140.607 57.9887
L141.113 56.9481
L142.103 56.8269
L142.909 57.3947
L143.405 61.0825
L143.52 63.6325
L145.431 114.695
L145.442 113.365
L146.007 76.3354
L146.202 71.8161
L147.434 73.5027
L151.28 131.348
L151.291 131.302
L151.729 127.522
L153.56 91.6715
L154.377 81.4934
L155.148 75.9077
L157.543 65.4176
L158.315 65.1592
L160.583 70.5514
L163.761 89.0447
L164.394 116.996
L169.771 56.588
L171.613 57.0459
L171.843 57.6395
L171.97 58.233
L172.81 63.9664
L173.973 73.7681
L174.745 72.598
L175.838 60.3896
L177.761 63.674
L179.96 89.0195
L182.378 126.309
L184.025 107.894
L185.579 74.1947
L188.78 63.633
L188.791 63.6581
L202.182 71.5924
L212.74 70.4271
L220.166 70.3112
L229.826 67.3973
L236.435 65.9691
L241.282 102.735
L244.149 127.148
L246.705 108.742
L251.426 59.4551
L252.347 57.3703
L252.842 56.8928
L253.924 56.5911
L260.13 56.7315
L262.859 57.3054
L263.63 57.5035
L274.488 57.6226
L281.902 57.4553
L284.159 58.1758
L287.463 62.2241
L288.085 63.6372
L290.63 70.7071
L297.665 60.4769
L300.013 58.4942
L303.203 57.4283
L307.624 57.3475
L312.943 57.2463
L316.489 58.8328
L316.662 59.122
L317.387 60.8864
L322.177 90.772
L324.917 95.0677
L324.929 95.059
L334.462 90.18
L336.535 91.9424
L338.63 91.7276
L342.994 84.905
L346.793 76.7993
L346.805 76.8498
L349.326 188.716
L349.96 264.228
L353.805 319.524
L353.817 319.517
L354.012 319.322
L355.624 305.714
L356.338 276.857
L357.455 185.365
L358.457 120.857
L359.101 100.24
L362.037 112.084
L364.444 185.013
L368.635 126.932
L369.406 104.534
L372.043 62.9113
L372.572 61.2841
L374.38 66.3558
L375.428 104.983
L378.03 151.976
L378.041 150.407
L378.905 65.0671
L379.158 59.4822
L381.185 56.5099
L386.17 56.5393
L387.057 57.6909
L388.991 98.5874
L389.509 93.8782
L393.355 56.8236
L394.057 56.823
L397.212 56.9411
L400.47 59.8368
L401.011 62.305
L402.381 91.3551
L403.072 149.646
L404.223 265.523
L405.421 297.31
L408.299 304.919
L408.311 304.942
L409.577 302.692
L410.153 295.736
L410.165 295.554
L412.767 125.85
L416.267 58.0946
L416.992 57.9151
L417.971 58.4724
L423.382 90.5513
L424.038 103.106
L426.836 143.22
L433.56 60.7453
L435.541 61.2287
L435.84 61.4367
L436.439 62.0838
L436.957 62.9338
L437.74 64.8807
L438.477 67.685
L441.136 84.7648
L443.692 82.6382
L445.132 76.2214
L448.206 77.0362
L448.989 80.1759
L452.028 99.1085
L452.04 98.998
L453.087 85.3669
L454.342 67.7489
L454.976 62.394
L455.402 60.6563
L462.54 68.2436
L463.726 80.667
L464.693 94.8299
L472.902 56.9659
L474.733 56.548
L478.579 59.0276
L479.995 73.1725
L482.182 117.861
L483.081 120.824
L483.092 120.774
L483.173 120.362
L484.669 100.387
L491.509 56.8693
L491.935 56.8215
L492.833 56.9061
L493.765 57.9059
L495.262 68.268
L496.678 85.4695
L497.565 92.5496
L500.927 94.7718
L503.034 101.038
L503.92 106.099
L505.532 118.137
L508.848 177.689
L513.258 318.52
L514.363 321.149
L515.123 321.687
L516.723 321.697
L522.86 129.816
L523.033 119.214
L523.839 85.6818
L525.865 75.0184
L525.877 75.1616
L526.188 80.1379
L526.89 102.042
L527.201 117.77
L528.122 190.125
L530.068 278.132
L530.079 277.982
L531.392 255.633
L534.443 168.765
L539.428 97.587
L542.48 73.2427
L544.253 91.4197
L544.748 102.836
L548.777 66.8406
L549.457 62.9052
L550.032 60.4812
L551.621 57.0496
L553.452 61.0653
L553.924 68.6106
L557.793 60.242
L559.405 60.8707
L559.646 61.3355
L562.133 66.4357
L562.698 68.1941
L563.239 70.326
L564.286 75.6941
L568.282 112.033
L570.63 148.833
L570.642 148.752
L571.218 139.075
L573.279 66.1788
L575.973 57.4077
L578.817 62.1811
L579.323 64.6592
L580.359 72.6246
L582.34 80.7954
L582.351 80.7354
L585.713 59.2835
L587.083 57.3891
L587.544 57.1391
L591.056 56.7557
L595.811 56.8131
L598.286 76.1273
L599.633 134.774
L599.645 134.481
L600.566 79.052
L600.842 70.6143
L601.752 60.7175
L601.994 59.8935
L603.145 58.8506
L603.502 58.9492
L605.379 61.6076
L607.048 95.6951
L609.132 282.283
L609.397 291.362
L612.103 277.57
L613.749 108.815
L615.983 68.7219
L616.72 67.0232
L617.33 67.2289
L618.999 95.1451
L622.096 250.79
L623.996 162.665
L626.656 58.6408
L627.485 56.8287
L628.487 56.5275
L632.551 56.7336
L634.911 57.0921
L639.632 59.5451
L640.081 60.2251
L642.13 63.6218
L643.662 68.2492
L647.53 193.196
L648.106 231.138
L648.843 267.841
L650.627 302.488
L656.211 164.829
L656.223 165.105
L656.661 181.08
L657.812 253.724
L659.596 311.049
L660.782 314.9
L660.794 314.881
L663.35 192.346
L663.511 174.313
L666.09 62.1242
L668.301 59.2468
L668.796 59.5333
L669.763 60.7405
L670.408 62.1592
L676.395 106.977
L677.189 109.173
L677.201 109.138
L678.571 90.348
L684.8 69.5223
L688.231 63.052
L692.353 65.2503
L692.929 66.1847
L694.667 69.7113
L700.746 95.469
L701.944 94.7439
L703.464 91.5961
L707.631 80.1194
L717.648 99.1403
L720.204 102.595
L726.767 56.774
L728.759 56.6984
L729.162 56.8964
L730.221 58.4819
L731.304 64.8043
L733.687 130.583
L734.263 130.115
L734.493 125.336
L736.669 65.6396
L738.81 57.0838
L740.687 56.8297
L744.302 57.1226
L746.87 58.0398
L752.304 121.491
L752.316 120.344
L752.777 104.009
L752.788 104.209
L753.41 168.705
L754.193 291.034
L754.492 304.719
L754.941 313.21
L755.252 315.513
L755.759 316.487
L755.77 316.474
L756.507 313.414
L756.841 312.123
L757.359 313.664
L758.061 317.028
L758.199 317.333
L758.499 317.433
L758.89 316.774
L759.293 316.147
L759.374 316.153
L759.662 316.804
L760.663 320.627
L761.009 320.992
L761.274 320.975
L761.446 320.778
L761.78 319.955
L762.379 317.916
L762.483 317.867
L762.632 318.137
L763.519 321.205
L764.014 321.796
L764.336 321.895
L764.923 321.861
L765.775 321.801
L766.846 320.346
L767.077 317.857
L767.215 315.123
L767.41 308.528
L767.79 280.992
L768.285 220.582
L769.103 173.938
L769.23 173.413
L769.241 173.422
L769.667 177.712
L770.853 176.253
L771.717 168.292
L772.546 143.844
L773.398 90.1455
L773.616 87.3356
L773.754 88.7491
L775.274 125.811
L776.253 123.232
L776.264 122.843
L776.264 122.843" style="fill:none;opacity:0.5;stroke:#0000ff;stroke-linecap:square;"/>
   </g>
   <g id="line2d_8">
    <path clip-path="url(#p9fd4257182)" d="
M110.314 74.0085
L110.855 72.1582
L111.017 71.6415
L112.744 67.8723
L113.895 65.7387
L114.609 64.1159
L116.048 61.5259
L117.66 60.2631
L121.943 82.2506
L123.325 130.84
L128.045 193.616
L128.632 98.8263
L128.955 78.8185
L129.738 64.2091
L131.545 79.8119
L131.937 90.2289
L132.651 99.5619
L132.662 99.4632
L133.71 83.2037
L134.009 82.7268
L134.021 82.754
L134.228 83.6468
L134.447 85.1857
L135.299 88.8286
L135.356 88.7299
L135.759 88.4813
L136.151 87.4875
L136.496 84.5436
L137.602 63.737
L138.177 61.591
L138.189 61.6089
L138.557 63.1151
L139.513 65.7916
L139.524 65.6857
L140.112 59.7552
L140.607 57.364
L141.113 56.8197
L142.103 58.2995
L142.909 58.8903
L143.531 58.8292
L145.442 57.2246
L146.007 58.5841
L146.202 59.7284
L147.434 98.7043
L151.28 67.3389
L151.291 67.3425
L151.729 67.5671
L153.56 69.2478
L154.377 70.8082
L155.148 73.5644
L158.315 94.3381
L160.571 101.594
L160.583 101.573
L163.761 58.0453
L164.394 56.707
L169.759 56.4987
L171.613 57.2174
L171.843 59.2464
L171.97 61.5646
L172.799 86.1698
L172.81 86.1275
L173.973 66.8776
L174.745 68.1801
L175.47 74.0636
L175.838 73.6788
L177.75 71.409
L177.761 71.4198
L179.96 70.6008
L182.378 70.9807
L184.025 70.5685
L184.992 69.2048
L185.579 67.9128
L188.78 62.2102
L188.791 62.2168
L202.17 136.024
L202.182 135.993
L211.001 94.1514
L212.74 83.4293
L219.694 62.6143
L220.166 62.2734
L229.826 58.8971
L235.687 61.7918
L236.435 63.1906
L241.282 88.7861
L244.149 112.28
L246.705 114.369
L246.717 114.324
L252.347 69.452
L252.842 66.5999
L253.924 61.988
L260.13 57.1434
L262.859 57.4848
L263.63 57.7245
L270.331 57.0386
L272.427 57.2564
L274.488 58.178
L276.525 62.7511
L280.36 96.2673
L281.891 97.8373
L281.902 97.7871
L284.159 77.8036
L287.463 62.1145
L288.085 61.6337
L290.63 63.4028
L297.665 77.5309
L300.013 77.8773
L303.203 69.2775
L305.148 67.8357
L306.023 70.867
L307.624 85.5551
L312.943 68.8848
L316.478 59.9892
L316.489 59.9976
L316.662 60.1394
L317.387 61.1091
L322.177 75.6101
L324.929 73.6871
L334.462 68.9265
L336.535 69.2175
L338.63 69.3177
L342.994 58.2681
L346.805 57.8008
L349.326 73.334
L349.43 77.6392
L349.96 114.64
L353.817 305.012
L354.012 305.277
L355.624 296.997
L356.338 281.233
L357.455 226.335
L358.457 157.266
L359.101 123.113
L362.026 99.7887
L362.037 99.9458
L364.444 161.023
L368.635 134.209
L369.406 110.337
L372.043 73.5926
L372.572 73.0213
L374.38 81.8671
L375.428 92.9022
L378.03 95.3482
L378.041 95.2123
L379.158 81.3406
L381.185 65.3444
L386.182 68.9115
L387.057 75.2386
L388.312 86.0462
L388.991 89.685
L389.509 89.5885
L393.355 68.4178
L393.723 67.9227
L394.057 67.8425
L395.899 72.1757
L396.21 73.4283
L397.2 76.8076
L397.212 76.7657
L400.47 60.5387
L401.011 62.7577
L402.381 101.28
L403.072 190.374
L404.223 294.372
L405.421 313.528
L406.964 303.892
L408.311 276.434
L409.865 284.183
L409.98 284.252
L410.165 283.69
L412.755 112.177
L416.267 66.295
L416.992 65.3433
L417.971 69.2042
L423.382 63.4707
L424.038 59.9682
L426.836 57.0113
L433.56 56.5007
L435.552 57.5174
L435.852 58.7049
L436.439 67.1249
L436.957 76.7739
L438.477 57.378
L441.136 56.5405
L443.692 59.6872
L444.636 78.4743
L445.132 93.2173
L448.206 71.4687
L448.989 75.3831
L452.028 83.7326
L452.04 83.3998
L453.076 62.6109
L453.087 62.4918
L454.342 57.0129
L454.976 56.613
L455.402 56.5356
L462.529 57.0916
L464.175 57.7353
L464.693 58.1516
L472.902 103.1
L474.733 88.4047
L478.579 64.1403
L479.995 63.2977
L482.182 64.532
L483.173 66.4192
L484.669 70.4236
L491.509 76.3091
L491.935 76.2618
L493.765 72.3246
L495.262 69.2731
L495.976 69.4856
L496.264 70.0942
L497.565 74.5586
L500.927 58.6791
L503.034 56.8985
L503.92 57.0278
L505.532 58.3874
L508.837 244.886
L513.246 321.803
L513.258 321.8
L514.363 320.969
L515.123 318.758
L516.723 282.689
L522.86 57.5825
L523.033 57.6049
L523.839 57.9376
L525.877 66.0792
L526.188 73.4572
L526.89 103.402
L527.201 123.101
L528.122 197.432
L530.068 268.779
L530.079 268.373
L531.392 126.101
L534.443 75.7923
L539.267 69.0691
L539.279 69.178
L539.428 70.7704
L542.468 78.4127
L542.48 78.264
L544.253 62.2157
L544.748 60.739
L547.43 67.6621
L547.741 79.9396
L548.144 77.941
L548.398 68.5724
L548.777 60.5267
L549.457 57.3011
L549.929 57.3559
L550.032 57.5237
L551.621 72.0849
L553.441 74.7805
L553.452 74.7592
L553.924 73.9733
L557.793 61.7814
L559.405 60.3203
L559.646 60.3732
L562.133 64.9532
L562.698 65.7377
L563.239 66.6891
L564.286 69.2022
L568.282 90.2814
L570.642 117.722
L571.218 131.397
L573.279 60.1738
L575.973 56.6597
L578.817 58.0079
L579.323 59.6194
L580.371 65.1663
L582.351 60.4333
L585.725 56.916
L587.544 56.7291
L591.056 67.6894
L592.622 101.422
L595.373 70.7478
L595.811 68.5001
L598.286 70.5323
L599.645 69.5036
L600.566 68.4103
L600.854 68.2174
L601.752 68.7076
L601.982 69.3175
L603.145 72.8925
L603.502 72.7558
L605.379 62.5905
L607.048 64.9986
L607.543 72.039
L609.397 209.593
L612.114 116.354
L613.749 81.2477
L615.983 69.0504
L616.72 70.7253
L617.33 73.3004
L618.988 81.3804
L622.108 122.312
L623.985 133.836
L623.996 133.773
L627.485 86.8261
L628.487 78.351
L632.539 70.1604
L632.551 70.1729
L634.209 76.998
L634.911 85.9547
L639.632 57.578
L640.081 57.3331
L642.13 57.2637
L643.662 57.5026
L647.53 147.344
L648.106 190.96
L648.843 233.528
L650.627 272.76
L656.223 181.619
L656.649 181.105
L656.661 181.151
L657.812 211.719
L659.596 308.013
L660.782 310.806
L660.794 310.746
L663.35 190.797
L663.511 174.415
L666.09 60.2444
L668.301 57.0413
L668.796 56.9218
L669.752 56.9746
L670.408 57.2706
L676.395 177.412
L677.201 170.488
L678.571 83.0299
L684.788 58.747
L684.8 58.769
L688.231 57.7811
L694.667 56.9775
L700.735 59.8885
L703.464 66.1487
L707.631 77.0846
L717.648 81.8292
L720.204 79.6314
L726.767 71.8125
L728.759 74.5093
L729.162 75.5429
L730.221 79.4296
L731.304 82.2109
L733.687 78.2748
L734.493 76.2566
L736.669 74.3534
L740.687 77.4
L742.656 75.4576
L744.302 71.5594
L746.87 69.3076
L752.788 138.356
L753.41 221.245
L754.193 290.867
L754.492 296.887
L754.861 299.329
L755.033 299.552
L755.252 299.52
L755.77 299.21
L756.3 300.618
L756.507 302.71
L757.359 316.511
L757.854 319.919
L758.188 320.535
L758.199 320.541
L758.66 320.411
L759.362 319.88
L759.57 320.016
L760.376 320.885
L760.709 320.931
L760.859 320.849
L761.078 320.529
L761.285 319.746
L761.446 318.615
L761.78 313.784
L762.632 294.976
L762.644 294.978
L762.886 296.755
L763.519 306.228
L763.864 308.547
L764.152 308.762
L764.336 308.732
L764.555 309.04
L764.751 309.995
L764.923 311.525
L765.775 320.696
L766.846 321.961
L767.215 321.678
L767.79 320.731
L769.656 321.777
L770.853 283.41
L771.717 160.373
L773.754 99.6162
L774.146 95.5873
L774.514 96.0183
L775.274 102.572
L776.264 117.046
L776.264 117.046" style="fill:none;opacity:0.5;stroke:#0000ff;stroke-linecap:square;"/>
   </g>
   <g id="patch_9">
    <path d="
M108 43.2
L777.6 43.2" style="fill:none;stroke:#000000;stroke-linecap:square;stroke-linejoin:miter;"/>
   </g>
   <g id="patch_10">
    <path d="
M777.6 322.473
L777.6 43.2" style="fill:none;stroke:#000000;stroke-linecap:square;stroke-linejoin:miter;"/>
   </g>
   <g id="patch_11">
    <path d="
M108 322.473
L777.6 322.473" style="fill:none;stroke:#000000;stroke-linecap:square;stroke-linejoin:miter;"/>
   </g>
   <g id="patch_12">
    <path d="
M108 322.473
L108 43.2" style="fill:none;stroke:#000000;stroke-linecap:square;stroke-linejoin:miter;"/>
   </g>
   <g id="matplotlib.axis_1">
    <g id="ytick_1">
     <g id="line2d_9">
      <defs>
       <path d="
M0 0
L4 0" id="m728421d6d4" style="stroke:#000000;stroke-width:0.5;"/>
      </defs>
      <g>
       <use style="stroke:#000000;stroke-width:0.5;" x="108.0" xlink:href="#m728421d6d4" y="322.472727273"/>
      </g>
     </g>
     <g id="line2d_10">
      <defs>
       <path d="
M0 0
L-4 0" id="mcb0005524f" style="stroke:#000000;stroke-width:0.5;"/>
      </defs>
      <g>
       <use style="stroke:#000000;stroke-width:0.5;" x="777.6" xlink:href="#mcb0005524f" y="322.472727273"/>
      </g>
     </g>
     <g id="text_1">
      <!-- 0 -->
      <defs>
       <path d="
M31.7812 66.4062
Q24.1719 66.4062 20.3281 58.9062
Q16.5 51.4219 16.5 36.375
Q16.5 21.3906 20.3281 13.8906
Q24.1719 6.39062 31.7812 6.39062
Q39.4531 6.39062 43.2812 13.8906
Q47.125 21.3906 47.125 36.375
Q47.125 51.4219 43.2812 58.9062
Q39.4531 66.4062 31.7812 66.4062
M31.7812 74.2188
Q44.0469 74.2188 50.5156 64.5156
Q56.9844 54.8281 56.9844 36.375
Q56.9844 17.9688 50.5156 8.26562
Q44.0469 -1.42188 31.7812 -1.42188
Q19.5312 -1.42188 13.0625 8.26562
Q6.59375 17.9688 6.59375 36.375
Q6.59375 54.8281 13.0625 64.5156
Q19.5312 74.2188 31.7812 74.2188" id="DejaVuSans-30"/>
      </defs>
      <g transform="translate(97.953125 325.783977273)scale(0.12 -0.12)">
       <use xlink:href="#DejaVuSans-30"/>
      </g>
     </g>
    </g>
    <g id="ytick_2">
     <g id="line2d_11">
      <g>
       <use style="stroke:#000000;stroke-width:0.5;" x="108.0" xlink:href="#m728421d6d4" y="269.277922078"/>
      </g>
     </g>
     <g id="line2d_12">
      <g>
       <use style="stroke:#000000;stroke-width:0.5;" x="777.6" xlink:href="#mcb0005524f" y="269.277922078"/>
      </g>
     </g>
     <g id="text_2">
      <!-- 20 -->
      <defs>
       <path d="
M19.1875 8.29688
L53.6094 8.29688
L53.6094 0
L7.32812 0
L7.32812 8.29688
Q12.9375 14.1094 22.625 23.8906
Q32.3281 33.6875 34.8125 36.5312
Q39.5469 41.8438 41.4219 45.5312
Q43.3125 49.2188 43.3125 52.7812
Q43.3125 58.5938 39.2344 62.25
Q35.1562 65.9219 28.6094 65.9219
Q23.9688 65.9219 18.8125 64.3125
Q13.6719 62.7031 7.8125 59.4219
L7.8125 69.3906
Q13.7656 71.7812 18.9375 73
Q24.125 74.2188 28.4219 74.2188
Q39.75 74.2188 46.4844 68.5469
Q53.2188 62.8906 53.2188 53.4219
Q53.2188 48.9219 51.5312 44.8906
Q49.8594 40.875 45.4062 35.4062
Q44.1875 33.9844 37.6406 27.2188
Q31.1094 20.4531 19.1875 8.29688" id="DejaVuSans-32"/>
      </defs>
      <g transform="translate(90.40625 272.589172078)scale(0.12 -0.12)">
       <use xlink:href="#DejaVuSans-32"/>
       <use x="63.623046875" xlink:href="#DejaVuSans-30"/>
      </g>
     </g>
    </g>
    <g id="ytick_3">
     <g id="line2d_13">
      <g>
       <use style="stroke:#000000;stroke-width:0.5;" x="108.0" xlink:href="#m728421d6d4" y="216.083116883"/>
      </g>
     </g>
     <g id="line2d_14">
      <g>
       <use style="stroke:#000000;stroke-width:0.5;" x="777.6" xlink:href="#mcb0005524f" y="216.083116883"/>
      </g>
     </g>
     <g id="text_3">
      <!-- 40 -->
      <defs>
       <path d="
M37.7969 64.3125
L12.8906 25.3906
L37.7969 25.3906
z

M35.2031 72.9062
L47.6094 72.9062
L47.6094 25.3906
L58.0156 25.3906
L58.0156 17.1875
L47.6094 17.1875
L47.6094 0
L37.7969 0
L37.7969 17.1875
L4.89062 17.1875
L4.89062 26.7031
z
" id="DejaVuSans-34"/>
      </defs>
      <g transform="translate(90.11375 219.394366883)scale(0.12 -0.12)">
       <use xlink:href="#DejaVuSans-34"/>
       <use x="63.623046875" xlink:href="#DejaVuSans-30"/>
      </g>
     </g>
    </g>
    <g id="ytick_4">
     <g id="line2d_15">
      <g>
       <use style="stroke:#000000;stroke-width:0.5;" x="108.0" xlink:href="#m728421d6d4" y="162.888311688"/>
      </g>
     </g>
     <g id="line2d_16">
      <g>
       <use style="stroke:#000000;stroke-width:0.5;" x="777.6" xlink:href="#mcb0005524f" y="162.888311688"/>
      </g>
     </g>
     <g id="text_4">
      <!-- 60 -->
      <defs>
       <path d="
M33.0156 40.375
Q26.375 40.375 22.4844 35.8281
Q18.6094 31.2969 18.6094 23.3906
Q18.6094 15.5312 22.4844 10.9531
Q26.375 6.39062 33.0156 6.39062
Q39.6562 6.39062 43.5312 10.9531
Q47.4062 15.5312 47.4062 23.3906
Q47.4062 31.2969 43.5312 35.8281
Q39.6562 40.375 33.0156 40.375
M52.5938 71.2969
L52.5938 62.3125
Q48.875 64.0625 45.0938 64.9844
Q41.3125 65.9219 37.5938 65.9219
Q27.8281 65.9219 22.6719 59.3281
Q17.5312 52.7344 16.7969 39.4062
Q19.6719 43.6562 24.0156 45.9219
Q28.375 48.1875 33.5938 48.1875
Q44.5781 48.1875 50.9531 41.5156
Q57.3281 34.8594 57.3281 23.3906
Q57.3281 12.1562 50.6875 5.35938
Q44.0469 -1.42188 33.0156 -1.42188
Q20.3594 -1.42188 13.6719 8.26562
Q6.98438 17.9688 6.98438 36.375
Q6.98438 53.6562 15.1875 63.9375
Q23.3906 74.2188 37.2031 74.2188
Q40.9219 74.2188 44.7031 73.4844
Q48.4844 72.75 52.5938 71.2969" id="DejaVuSans-36"/>
      </defs>
      <g transform="translate(90.365 166.199561688)scale(0.12 -0.12)">
       <use xlink:href="#DejaVuSans-36"/>
       <use x="63.623046875" xlink:href="#DejaVuSans-30"/>
      </g>
     </g>
    </g>
    <g id="ytick_5">
     <g id="line2d_17">
      <g>
       <use style="stroke:#000000;stroke-width:0.5;" x="108.0" xlink:href="#m728421d6d4" y="109.693506494"/>
      </g>
     </g>
     <g id="line2d_18">
      <g>
       <use style="stroke:#000000;stroke-width:0.5;" x="777.6" xlink:href="#mcb0005524f" y="109.693506494"/>
      </g>
     </g>
     <g id="text_5">
      <!-- 80 -->
      <defs>
       <path d="
M31.7812 34.625
Q24.75 34.625 20.7188 30.8594
Q16.7031 27.0938 16.7031 20.5156
Q16.7031 13.9219 20.7188 10.1562
Q24.75 6.39062 31.7812 6.39062
Q38.8125 6.39062 42.8594 10.1719
Q46.9219 13.9688 46.9219 20.5156
Q46.9219 27.0938 42.8906 30.8594
Q38.875 34.625 31.7812 34.625
M21.9219 38.8125
Q15.5781 40.375 12.0312 44.7188
Q8.5 49.0781 8.5 55.3281
Q8.5 64.0625 14.7188 69.1406
Q20.9531 74.2188 31.7812 74.2188
Q42.6719 74.2188 48.875 69.1406
Q55.0781 64.0625 55.0781 55.3281
Q55.0781 49.0781 51.5312 44.7188
Q48 40.375 41.7031 38.8125
Q48.8281 37.1562 52.7969 32.3125
Q56.7812 27.4844 56.7812 20.5156
Q56.7812 9.90625 50.3125 4.23438
Q43.8438 -1.42188 31.7812 -1.42188
Q19.7344 -1.42188 13.25 4.23438
Q6.78125 9.90625 6.78125 20.5156
Q6.78125 27.4844 10.7812 32.3125
Q14.7969 37.1562 21.9219 38.8125
M18.3125 54.3906
Q18.3125 48.7344 21.8438 45.5625
Q25.3906 42.3906 31.7812 42.3906
Q38.1406 42.3906 41.7188 45.5625
Q45.3125 48.7344 45.3125 54.3906
Q45.3125 60.0625 41.7188 63.2344
Q38.1406 66.4062 31.7812 66.4062
Q25.3906 66.4062 21.8438 63.2344
Q18.3125 60.0625 18.3125 54.3906" id="DejaVuSans-38"/>
      </defs>
      <g transform="translate(90.340625 113.004756494)scale(0.12 -0.12)">
       <use xlink:href="#DejaVuSans-38"/>
       <use x="63.623046875" xlink:href="#DejaVuSans-30"/>
      </g>
     </g>
    </g>
    <g id="ytick_6">
     <g id="line2d_19">
      <g>
       <use style="stroke:#000000;stroke-width:0.5;" x="108.0" xlink:href="#m728421d6d4" y="56.4987012987"/>
      </g>
     </g>
     <g id="line2d_20">
      <g>
       <use style="stroke:#000000;stroke-width:0.5;" x="777.6" xlink:href="#mcb0005524f" y="56.4987012987"/>
      </g>
     </g>
     <g id="text_6">
      <!-- 100 -->
      <defs>
       <path d="
M12.4062 8.29688
L28.5156 8.29688
L28.5156 63.9219
L10.9844 60.4062
L10.9844 69.3906
L28.4219 72.9062
L38.2812 72.9062
L38.2812 8.29688
L54.3906 8.29688
L54.3906 0
L12.4062 0
z
" id="DejaVuSans-31"/>
      </defs>
      <g transform="translate(83.21 59.8099512987)scale(0.12 -0.12)">
       <use xlink:href="#DejaVuSans-31"/>
       <use x="63.623046875" xlink:href="#DejaVuSans-30"/>
       <use x="127.24609375" xlink:href="#DejaVuSans-30"/>
      </g>
     </g>
    </g>
    <g id="text_7">
     <!-- Methylation -->
     <defs>
      <path d="
M9.8125 72.9062
L24.5156 72.9062
L43.1094 23.2969
L61.8125 72.9062
L76.5156 72.9062
L76.5156 0
L66.8906 0
L66.8906 64.0156
L48.0938 14.0156
L38.1875 14.0156
L19.3906 64.0156
L19.3906 0
L9.8125 0
z
" id="DejaVuSans-4d"/>
      <path d="
M30.6094 48.3906
Q23.3906 48.3906 19.1875 42.75
Q14.9844 37.1094 14.9844 27.2969
Q14.9844 17.4844 19.1562 11.8438
Q23.3438 6.20312 30.6094 6.20312
Q37.7969 6.20312 41.9844 11.8594
Q46.1875 17.5312 46.1875 27.2969
Q46.1875 37.0156 41.9844 42.7031
Q37.7969 48.3906 30.6094 48.3906
M30.6094 56
Q42.3281 56 49.0156 48.375
Q55.7188 40.7656 55.7188 27.2969
Q55.7188 13.875 49.0156 6.21875
Q42.3281 -1.42188 30.6094 -1.42188
Q18.8438 -1.42188 12.1719 6.21875
Q5.51562 13.875 5.51562 27.2969
Q5.51562 40.7656 12.1719 48.375
Q18.8438 56 30.6094 56" id="DejaVuSans-6f"/>
      <path d="
M54.8906 33.0156
L54.8906 0
L45.9062 0
L45.9062 32.7188
Q45.9062 40.4844 42.875 44.3281
Q39.8438 48.1875 33.7969 48.1875
Q26.5156 48.1875 22.3125 43.5469
Q18.1094 38.9219 18.1094 30.9062
L18.1094 0
L9.07812 0
L9.07812 54.6875
L18.1094 54.6875
L18.1094 46.1875
Q21.3438 51.125 25.7031 53.5625
Q30.0781 56 35.7969 56
Q45.2188 56 50.0469 50.1719
Q54.8906 44.3438 54.8906 33.0156" id="DejaVuSans-6e"/>
      <path d="
M9.42188 75.9844
L18.4062 75.9844
L18.4062 0
L9.42188 0
z
" id="DejaVuSans-6c"/>
      <path d="
M32.1719 -5.07812
Q28.375 -14.8438 24.75 -17.8125
Q21.1406 -20.7969 15.0938 -20.7969
L7.90625 -20.7969
L7.90625 -13.2812
L13.1875 -13.2812
Q16.8906 -13.2812 18.9375 -11.5156
Q21 -9.76562 23.4844 -3.21875
L25.0938 0.875
L2.98438 54.6875
L12.5 54.6875
L29.5938 11.9219
L46.6875 54.6875
L56.2031 54.6875
z
" id="DejaVuSans-79"/>
      <path d="
M54.8906 33.0156
L54.8906 0
L45.9062 0
L45.9062 32.7188
Q45.9062 40.4844 42.875 44.3281
Q39.8438 48.1875 33.7969 48.1875
Q26.5156 48.1875 22.3125 43.5469
Q18.1094 38.9219 18.1094 30.9062
L18.1094 0
L9.07812 0
L9.07812 75.9844
L18.1094 75.9844
L18.1094 46.1875
Q21.3438 51.125 25.7031 53.5625
Q30.0781 56 35.7969 56
Q45.2188 56 50.0469 50.1719
Q54.8906 44.3438 54.8906 33.0156" id="DejaVuSans-68"/>
      <path d="
M9.42188 54.6875
L18.4062 54.6875
L18.4062 0
L9.42188 0
z

M9.42188 75.9844
L18.4062 75.9844
L18.4062 64.5938
L9.42188 64.5938
z
" id="DejaVuSans-69"/>
      <path d="
M18.3125 70.2188
L18.3125 54.6875
L36.8125 54.6875
L36.8125 47.7031
L18.3125 47.7031
L18.3125 18.0156
Q18.3125 11.3281 20.1406 9.42188
Q21.9688 7.51562 27.5938 7.51562
L36.8125 7.51562
L36.8125 0
L27.5938 0
Q17.1875 0 13.2344 3.875
Q9.28125 7.76562 9.28125 18.0156
L9.28125 47.7031
L2.6875 47.7031
L2.6875 54.6875
L9.28125 54.6875
L9.28125 70.2188
z
" id="DejaVuSans-74"/>
      <path d="
M56.2031 29.5938
L56.2031 25.2031
L14.8906 25.2031
Q15.4844 15.9219 20.4844 11.0625
Q25.4844 6.20312 34.4219 6.20312
Q39.5938 6.20312 44.4531 7.46875
Q49.3125 8.73438 54.1094 11.2812
L54.1094 2.78125
Q49.2656 0.734375 44.1875 -0.34375
Q39.1094 -1.42188 33.8906 -1.42188
Q20.7969 -1.42188 13.1562 6.1875
Q5.51562 13.8125 5.51562 26.8125
Q5.51562 40.2344 12.7656 48.1094
Q20.0156 56 32.3281 56
Q43.3594 56 49.7812 48.8906
Q56.2031 41.7969 56.2031 29.5938
M47.2188 32.2344
Q47.125 39.5938 43.0938 43.9844
Q39.0625 48.3906 32.4219 48.3906
Q24.9062 48.3906 20.3906 44.1406
Q15.875 39.8906 15.1875 32.1719
z
" id="DejaVuSans-65"/>
      <path d="
M34.2812 27.4844
Q23.3906 27.4844 19.1875 25
Q14.9844 22.5156 14.9844 16.5
Q14.9844 11.7188 18.1406 8.90625
Q21.2969 6.10938 26.7031 6.10938
Q34.1875 6.10938 38.7031 11.4062
Q43.2188 16.7031 43.2188 25.4844
L43.2188 27.4844
z

M52.2031 31.2031
L52.2031 0
L43.2188 0
L43.2188 8.29688
Q40.1406 3.32812 35.5469 0.953125
Q30.9531 -1.42188 24.3125 -1.42188
Q15.9219 -1.42188 10.9531 3.29688
Q6 8.01562 6 15.9219
Q6 25.1406 12.1719 29.8281
Q18.3594 34.5156 30.6094 34.5156
L43.2188 34.5156
L43.2188 35.4062
Q43.2188 41.6094 39.1406 45
Q35.0625 48.3906 27.6875 48.3906
Q23 48.3906 18.5469 47.2656
Q14.1094 46.1406 10.0156 43.8906
L10.0156 52.2031
Q14.9375 54.1094 19.5781 55.0469
Q24.2188 56 28.6094 56
Q40.4844 56 46.3438 49.8438
Q52.2031 43.7031 52.2031 31.2031" id="DejaVuSans-61"/>
     </defs>
     <g transform="translate(75.714375 217.149801136)rotate(-90.0)scale(0.12 -0.12)">
      <use xlink:href="#DejaVuSans-4d"/>
      <use x="86.279296875" xlink:href="#DejaVuSans-65"/>
      <use x="147.802734375" xlink:href="#DejaVuSans-74"/>
      <use x="187.01171875" xlink:href="#DejaVuSans-68"/>
      <use x="250.390625" xlink:href="#DejaVuSans-79"/>
      <use x="309.5703125" xlink:href="#DejaVuSans-6c"/>
      <use x="337.353515625" xlink:href="#DejaVuSans-61"/>
      <use x="398.6328125" xlink:href="#DejaVuSans-74"/>
      <use x="437.841796875" xlink:href="#DejaVuSans-69"/>
      <use x="465.625" xlink:href="#DejaVuSans-6f"/>
      <use x="526.806640625" xlink:href="#DejaVuSans-6e"/>
     </g>
    </g>
   </g>
  </g>
  <g id="axes_2">
   <g id="patch_13">
    <path d="
M108 388.8
L777.6 388.8
L777.6 353.891
L108 353.891
z
" style="fill:#ffffff;"/>
   </g>
   <g id="line2d_21">
    <path clip-path="url(#pc82b1f09f0)" d="
M108 371.345
L777.6 371.345" style="fill:none;stroke:#000000;stroke-linecap:square;"/>
   </g>
   <g id="line2d_22">
    <path clip-path="url(#pc82b1f09f0)" d="
M119.514 371.345
L766.086 371.345" style="fill:none;stroke:#008000;stroke-linecap:square;stroke-width:3;"/>
   </g>
   <g id="patch_14">
    <path clip-path="url(#pc82b1f09f0)" d="
M760.663 388.8
L766.086 388.8
L766.086 353.891
L760.663 353.891
z
" style="fill:#008000;"/>
   </g>
   <g id="patch_15">
    <path clip-path="url(#pc82b1f09f0)" d="
M491.382 388.8
L496.77 388.8
L496.77 353.891
L491.382 353.891
z
" style="fill:#008000;"/>
   </g>
   <g id="patch_16">
    <path clip-path="url(#pc82b1f09f0)" d="
M250.102 388.8
L253.015 388.8
L253.015 353.891
L250.102 353.891
z
" style="fill:#008000;"/>
   </g>
   <g id="patch_17">
    <path clip-path="url(#pc82b1f09f0)" d="
M218.243 388.8
L220.995 388.8
L220.995 353.891
L218.243 353.891
z
" style="fill:#008000;"/>
   </g>
   <g id="patch_18">
    <path clip-path="url(#pc82b1f09f0)" d="
M171.498 388.8
L173.881 388.8
L173.881 353.891
L171.498 353.891
z
" style="fill:#008000;"/>
   </g>
   <g id="patch_19">
    <path clip-path="url(#pc82b1f09f0)" d="
M119.514 388.8
L149.219 388.8
L149.219 353.891
L119.514 353.891
z
" style="fill:#008000;"/>
   </g>
   <g id="patch_20">
    <path d="
M108 353.891
L777.6 353.891" style="fill:none;"/>
   </g>
   <g id="patch_21">
    <path d="
M777.6 388.8
L777.6 353.891" style="fill:none;"/>
   </g>
   <g id="patch_22">
    <path d="
M108 388.8
L777.6 388.8" style="fill:none;"/>
   </g>
   <g id="patch_23">
    <path d="
M108 388.8
L108 353.891" style="fill:none;"/>
   </g>
   <g id="matplotlib.axis_2">
    <g id="xtick_1">
     <g id="line2d_23">
      <defs>
       <path d="
M0 0
L0 -4" id="m93b0483c22" style="stroke:#000000;stroke-width:0.5;"/>
      </defs>
      <g>
       <use style="stroke:#000000;stroke-width:0.5;" x="218.600230411" xlink:href="#m93b0483c22" y="388.8"/>
      </g>
     </g>
     <g id="line2d_24">
      <defs>
       <path d="
M0 0
L0 4" id="m741efc42ff" style="stroke:#000000;stroke-width:0.5;"/>
      </defs>
      <g>
       <use style="stroke:#000000;stroke-width:0.5;" x="218.600230411" xlink:href="#m741efc42ff" y="353.890909091"/>
      </g>
     </g>
     <g id="text_8">
      <!-- 1000 -->
      <g transform="translate(204.387730411 401.918125)scale(0.12 -0.12)">
       <use xlink:href="#DejaVuSans-31"/>
       <use x="63.623046875" xlink:href="#DejaVuSans-30"/>
       <use x="127.24609375" xlink:href="#DejaVuSans-30"/>
       <use x="190.869140625" xlink:href="#DejaVuSans-30"/>
      </g>
     </g>
    </g>
    <g id="xtick_2">
     <g id="line2d_25">
      <g>
       <use style="stroke:#000000;stroke-width:0.5;" x="333.736843372" xlink:href="#m93b0483c22" y="388.8"/>
      </g>
     </g>
     <g id="line2d_26">
      <g>
       <use style="stroke:#000000;stroke-width:0.5;" x="333.736843372" xlink:href="#m741efc42ff" y="353.890909091"/>
      </g>
     </g>
     <g id="text_9">
      <!-- 2000 -->
      <g transform="translate(319.304968372 401.918125)scale(0.12 -0.12)">
       <use xlink:href="#DejaVuSans-32"/>
       <use x="63.623046875" xlink:href="#DejaVuSans-30"/>
       <use x="127.24609375" xlink:href="#DejaVuSans-30"/>
       <use x="190.869140625" xlink:href="#DejaVuSans-30"/>
      </g>
     </g>
    </g>
    <g id="xtick_3">
     <g id="line2d_27">
      <g>
       <use style="stroke:#000000;stroke-width:0.5;" x="448.873456334" xlink:href="#m93b0483c22" y="388.8"/>
      </g>
     </g>
     <g id="line2d_28">
      <g>
       <use style="stroke:#000000;stroke-width:0.5;" x="448.873456334" xlink:href="#m741efc42ff" y="353.890909091"/>
      </g>
     </g>
     <g id="text_10">
      <!-- 3000 -->
      <defs>
       <path d="
M40.5781 39.3125
Q47.6562 37.7969 51.625 33
Q55.6094 28.2188 55.6094 21.1875
Q55.6094 10.4062 48.1875 4.48438
Q40.7656 -1.42188 27.0938 -1.42188
Q22.5156 -1.42188 17.6562 -0.515625
Q12.7969 0.390625 7.625 2.20312
L7.625 11.7188
Q11.7188 9.32812 16.5938 8.10938
Q21.4844 6.89062 26.8125 6.89062
Q36.0781 6.89062 40.9375 10.5469
Q45.7969 14.2031 45.7969 21.1875
Q45.7969 27.6406 41.2812 31.2656
Q36.7656 34.9062 28.7188 34.9062
L20.2188 34.9062
L20.2188 43.0156
L29.1094 43.0156
Q36.375 43.0156 40.2344 45.9219
Q44.0938 48.8281 44.0938 54.2969
Q44.0938 59.9062 40.1094 62.9062
Q36.1406 65.9219 28.7188 65.9219
Q24.6562 65.9219 20.0156 65.0312
Q15.375 64.1562 9.8125 62.3125
L9.8125 71.0938
Q15.4375 72.6562 20.3438 73.4375
Q25.25 74.2188 29.5938 74.2188
Q40.8281 74.2188 47.3594 69.1094
Q53.9062 64.0156 53.9062 55.3281
Q53.9062 49.2656 50.4375 45.0938
Q46.9688 40.9219 40.5781 39.3125" id="DejaVuSans-33"/>
      </defs>
      <g transform="translate(434.459393834 401.918125)scale(0.12 -0.12)">
       <use xlink:href="#DejaVuSans-33"/>
       <use x="63.623046875" xlink:href="#DejaVuSans-30"/>
       <use x="127.24609375" xlink:href="#DejaVuSans-30"/>
       <use x="190.869140625" xlink:href="#DejaVuSans-30"/>
      </g>
     </g>
    </g>
    <g id="xtick_4">
     <g id="line2d_29">
      <g>
       <use style="stroke:#000000;stroke-width:0.5;" x="564.010069295" xlink:href="#m93b0483c22" y="388.8"/>
      </g>
     </g>
     <g id="line2d_30">
      <g>
       <use style="stroke:#000000;stroke-width:0.5;" x="564.010069295" xlink:href="#m741efc42ff" y="353.890909091"/>
      </g>
     </g>
     <g id="text_11">
      <!-- 4000 -->
      <g transform="translate(549.431944295 401.918125)scale(0.12 -0.12)">
       <use xlink:href="#DejaVuSans-34"/>
       <use x="63.623046875" xlink:href="#DejaVuSans-30"/>
       <use x="127.24609375" xlink:href="#DejaVuSans-30"/>
       <use x="190.869140625" xlink:href="#DejaVuSans-30"/>
      </g>
     </g>
    </g>
    <g id="xtick_5">
     <g id="line2d_31">
      <g>
       <use style="stroke:#000000;stroke-width:0.5;" x="679.146682257" xlink:href="#m93b0483c22" y="388.8"/>
      </g>
     </g>
     <g id="line2d_32">
      <g>
       <use style="stroke:#000000;stroke-width:0.5;" x="679.146682257" xlink:href="#m741efc42ff" y="353.890909091"/>
      </g>
     </g>
     <g id="text_12">
      <!-- 5000 -->
      <defs>
       <path d="
M10.7969 72.9062
L49.5156 72.9062
L49.5156 64.5938
L19.8281 64.5938
L19.8281 46.7344
Q21.9688 47.4688 24.1094 47.8281
Q26.2656 48.1875 28.4219 48.1875
Q40.625 48.1875 47.75 41.5
Q54.8906 34.8125 54.8906 23.3906
Q54.8906 11.625 47.5625 5.09375
Q40.2344 -1.42188 26.9062 -1.42188
Q22.3125 -1.42188 17.5469 -0.640625
Q12.7969 0.140625 7.71875 1.70312
L7.71875 11.625
Q12.1094 9.23438 16.7969 8.0625
Q21.4844 6.89062 26.7031 6.89062
Q35.1562 6.89062 40.0781 11.3281
Q45.0156 15.7656 45.0156 23.3906
Q45.0156 31 40.0781 35.4375
Q35.1562 39.8906 26.7031 39.8906
Q22.75 39.8906 18.8125 39.0156
Q14.8906 38.1406 10.7969 36.2812
z
" id="DejaVuSans-35"/>
      </defs>
      <g transform="translate(664.738244757 401.918125)scale(0.12 -0.12)">
       <use xlink:href="#DejaVuSans-35"/>
       <use x="63.623046875" xlink:href="#DejaVuSans-30"/>
       <use x="127.24609375" xlink:href="#DejaVuSans-30"/>
       <use x="190.869140625" xlink:href="#DejaVuSans-30"/>
      </g>
     </g>
    </g>
    <g id="text_13">
     <!-- Length (bp) -->
     <defs>
      <path d="
M9.8125 72.9062
L19.6719 72.9062
L19.6719 8.29688
L55.1719 8.29688
L55.1719 0
L9.8125 0
z
" id="DejaVuSans-4c"/>
      <path id="DejaVuSans-20"/>
      <path d="
M45.4062 27.9844
Q45.4062 37.75 41.375 43.1094
Q37.3594 48.4844 30.0781 48.4844
Q22.8594 48.4844 18.8281 43.1094
Q14.7969 37.75 14.7969 27.9844
Q14.7969 18.2656 18.8281 12.8906
Q22.8594 7.51562 30.0781 7.51562
Q37.3594 7.51562 41.375 12.8906
Q45.4062 18.2656 45.4062 27.9844
M54.3906 6.78125
Q54.3906 -7.17188 48.1875 -13.9844
Q42 -20.7969 29.2031 -20.7969
Q24.4688 -20.7969 20.2656 -20.0938
Q16.0625 -19.3906 12.1094 -17.9219
L12.1094 -9.1875
Q16.0625 -11.3281 19.9219 -12.3438
Q23.7812 -13.375 27.7812 -13.375
Q36.625 -13.375 41.0156 -8.76562
Q45.4062 -4.15625 45.4062 5.17188
L45.4062 9.625
Q42.625 4.78125 38.2812 2.39062
Q33.9375 0 27.875 0
Q17.8281 0 11.6719 7.65625
Q5.51562 15.3281 5.51562 27.9844
Q5.51562 40.6719 11.6719 48.3281
Q17.8281 56 27.875 56
Q33.9375 56 38.2812 53.6094
Q42.625 51.2188 45.4062 46.3906
L45.4062 54.6875
L54.3906 54.6875
z
" id="DejaVuSans-67"/>
      <path d="
M31 75.875
Q24.4688 64.6562 21.2812 53.6562
Q18.1094 42.6719 18.1094 31.3906
Q18.1094 20.125 21.3125 9.0625
Q24.5156 -2 31 -13.1875
L23.1875 -13.1875
Q15.875 -1.70312 12.2344 9.375
Q8.59375 20.4531 8.59375 31.3906
Q8.59375 42.2812 12.2031 53.3125
Q15.8281 64.3594 23.1875 75.875
z
" id="DejaVuSans-28"/>
      <path d="
M8.01562 75.875
L15.8281 75.875
Q23.1406 64.3594 26.7812 53.3125
Q30.4219 42.2812 30.4219 31.3906
Q30.4219 20.4531 26.7812 9.375
Q23.1406 -1.70312 15.8281 -13.1875
L8.01562 -13.1875
Q14.5 -2 17.7031 9.0625
Q20.9062 20.125 20.9062 31.3906
Q20.9062 42.6719 17.7031 53.6562
Q14.5 64.6562 8.01562 75.875" id="DejaVuSans-29"/>
      <path d="
M48.6875 27.2969
Q48.6875 37.2031 44.6094 42.8438
Q40.5312 48.4844 33.4062 48.4844
Q26.2656 48.4844 22.1875 42.8438
Q18.1094 37.2031 18.1094 27.2969
Q18.1094 17.3906 22.1875 11.75
Q26.2656 6.10938 33.4062 6.10938
Q40.5312 6.10938 44.6094 11.75
Q48.6875 17.3906 48.6875 27.2969
M18.1094 46.3906
Q20.9531 51.2656 25.2656 53.625
Q29.5938 56 35.5938 56
Q45.5625 56 51.7812 48.0938
Q58.0156 40.1875 58.0156 27.2969
Q58.0156 14.4062 51.7812 6.48438
Q45.5625 -1.42188 35.5938 -1.42188
Q29.5938 -1.42188 25.2656 0.953125
Q20.9531 3.32812 18.1094 8.20312
L18.1094 0
L9.07812 0
L9.07812 75.9844
L18.1094 75.9844
z
" id="DejaVuSans-62"/>
      <path d="
M18.1094 8.20312
L18.1094 -20.7969
L9.07812 -20.7969
L9.07812 54.6875
L18.1094 54.6875
L18.1094 46.3906
Q20.9531 51.2656 25.2656 53.625
Q29.5938 56 35.5938 56
Q45.5625 56 51.7812 48.0938
Q58.0156 40.1875 58.0156 27.2969
Q58.0156 14.4062 51.7812 6.48438
Q45.5625 -1.42188 35.5938 -1.42188
Q29.5938 -1.42188 25.2656 0.953125
Q20.9531 3.32812 18.1094 8.20312
M48.6875 27.2969
Q48.6875 37.2031 44.6094 42.8438
Q40.5312 48.4844 33.4062 48.4844
Q26.2656 48.4844 22.1875 42.8438
Q18.1094 37.2031 18.1094 27.2969
Q18.1094 17.3906 22.1875 11.75
Q26.2656 6.10938 33.4062 6.10938
Q40.5312 6.10938 44.6094 11.75
Q48.6875 17.3906 48.6875 27.2969" id="DejaVuSans-70"/>
     </defs>
     <g transform="translate(408.4125 418.531875)scale(0.12 -0.12)">
      <use xlink:href="#DejaVuSans-4c"/>
      <use x="53.962890625" xlink:href="#DejaVuSans-65"/>
      <use x="115.486328125" xlink:href="#DejaVuSans-6e"/>
      <use x="178.865234375" xlink:href="#DejaVuSans-67"/>
      <use x="242.341796875" xlink:href="#DejaVuSans-74"/>
      <use x="281.55078125" xlink:href="#DejaVuSans-68"/>
      <use x="344.9296875" xlink:href="#DejaVuSans-20"/>
      <use x="376.716796875" xlink:href="#DejaVuSans-28"/>
      <use x="415.73046875" xlink:href="#DejaVuSans-62"/>
      <use x="479.20703125" xlink:href="#DejaVuSans-70"/>
      <use x="542.68359375" xlink:href="#DejaVuSans-29"/>
     </g>
     <!-- chr10:34151394-34207551 -->
     <defs>
      <path d="
M11.7188 12.4062
L22.0156 12.4062
L22.0156 0
L11.7188 0
z

M11.7188 51.7031
L22.0156 51.7031
L22.0156 39.3125
L11.7188 39.3125
z
" id="DejaVuSans-3a"/>
      <path d="
M4.89062 31.3906
L31.2031 31.3906
L31.2031 23.3906
L4.89062 23.3906
z
" id="DejaVuSans-2d"/>
      <path d="
M8.20312 72.9062
L55.0781 72.9062
L55.0781 68.7031
L28.6094 0
L18.3125 0
L43.2188 64.5938
L8.20312 64.5938
z
" id="DejaVuSans-37"/>
      <path d="
M10.9844 1.51562
L10.9844 10.5
Q14.7031 8.73438 18.5 7.8125
Q22.3125 6.89062 25.9844 6.89062
Q35.75 6.89062 40.8906 13.4531
Q46.0469 20.0156 46.7812 33.4062
Q43.9531 29.2031 39.5938 26.9531
Q35.25 24.7031 29.9844 24.7031
Q19.0469 24.7031 12.6719 31.3125
Q6.29688 37.9375 6.29688 49.4219
Q6.29688 60.6406 12.9375 67.4219
Q19.5781 74.2188 30.6094 74.2188
Q43.2656 74.2188 49.9219 64.5156
Q56.5938 54.8281 56.5938 36.375
Q56.5938 19.1406 48.4062 8.85938
Q40.2344 -1.42188 26.4219 -1.42188
Q22.7031 -1.42188 18.8906 -0.6875
Q15.0938 0.046875 10.9844 1.51562
M30.6094 32.4219
Q37.25 32.4219 41.125 36.9531
Q45.0156 41.5 45.0156 49.4219
Q45.0156 57.2812 41.125 61.8438
Q37.25 66.4062 30.6094 66.4062
Q23.9688 66.4062 20.0938 61.8438
Q16.2188 57.2812 16.2188 49.4219
Q16.2188 41.5 20.0938 36.9531
Q23.9688 32.4219 30.6094 32.4219" id="DejaVuSans-39"/>
      <path d="
M48.7812 52.5938
L48.7812 44.1875
Q44.9688 46.2969 41.1406 47.3438
Q37.3125 48.3906 33.4062 48.3906
Q24.6562 48.3906 19.8125 42.8438
Q14.9844 37.3125 14.9844 27.2969
Q14.9844 17.2812 19.8125 11.7344
Q24.6562 6.20312 33.4062 6.20312
Q37.3125 6.20312 41.1406 7.25
Q44.9688 8.29688 48.7812 10.4062
L48.7812 2.09375
Q45.0156 0.34375 40.9844 -0.53125
Q36.9688 -1.42188 32.4219 -1.42188
Q20.0625 -1.42188 12.7812 6.34375
Q5.51562 14.1094 5.51562 27.2969
Q5.51562 40.6719 12.8594 48.3281
Q20.2188 56 33.0156 56
Q37.1562 56 41.1094 55.1406
Q45.0625 54.2969 48.7812 52.5938" id="DejaVuSans-63"/>
      <path d="
M41.1094 46.2969
Q39.5938 47.1719 37.8125 47.5781
Q36.0312 48 33.8906 48
Q26.2656 48 22.1875 43.0469
Q18.1094 38.0938 18.1094 28.8125
L18.1094 0
L9.07812 0
L9.07812 54.6875
L18.1094 54.6875
L18.1094 46.1875
Q20.9531 51.1719 25.4844 53.5781
Q30.0312 56 36.5312 56
Q37.4531 56 38.5781 55.875
Q39.7031 55.7656 41.0625 55.5156
z
" id="DejaVuSans-72"/>
     </defs>
     <g transform="translate(361.2159375 431.96925)scale(0.12 -0.12)">
      <use xlink:href="#DejaVuSans-63"/>
      <use x="54.98046875" xlink:href="#DejaVuSans-68"/>
      <use x="118.359375" xlink:href="#DejaVuSans-72"/>
      <use x="159.47265625" xlink:href="#DejaVuSans-31"/>
      <use x="223.095703125" xlink:href="#DejaVuSans-30"/>
      <use x="286.71875" xlink:href="#DejaVuSans-3a"/>
      <use x="320.41015625" xlink:href="#DejaVuSans-33"/>
      <use x="384.033203125" xlink:href="#DejaVuSans-34"/>
      <use x="447.65625" xlink:href="#DejaVuSans-31"/>
      <use x="511.279296875" xlink:href="#DejaVuSans-35"/>
      <use x="574.90234375" xlink:href="#DejaVuSans-31"/>
      <use x="638.525390625" xlink:href="#DejaVuSans-33"/>
      <use x="702.1484375" xlink:href="#DejaVuSans-39"/>
      <use x="765.771484375" xlink:href="#DejaVuSans-34"/>
      <use x="829.39453125" xlink:href="#DejaVuSans-2d"/>
      <use x="865.478515625" xlink:href="#DejaVuSans-33"/>
      <use x="929.1015625" xlink:href="#DejaVuSans-34"/>
      <use x="992.724609375" xlink:href="#DejaVuSans-32"/>
      <use x="1056.34765625" xlink:href="#DejaVuSans-30"/>
      <use x="1119.97070312" xlink:href="#DejaVuSans-37"/>
      <use x="1183.59375" xlink:href="#DejaVuSans-35"/>
      <use x="1247.21679688" xlink:href="#DejaVuSans-35"/>
      <use x="1310.83984375" xlink:href="#DejaVuSans-31"/>
     </g>
    </g>
   </g>
  </g>
  <g id="text_14">
   <!-- ENSMUST00000048010 (Dse) -->
   <defs>
    <path d="
M9.8125 72.9062
L23.0938 72.9062
L55.4219 11.9219
L55.4219 72.9062
L64.9844 72.9062
L64.9844 0
L51.7031 0
L19.3906 60.9844
L19.3906 0
L9.8125 0
z
" id="DejaVuSans-4e"/>
    <path d="
M19.6719 64.7969
L19.6719 8.10938
L31.5938 8.10938
Q46.6875 8.10938 53.6875 14.9375
Q60.6875 21.7812 60.6875 36.5312
Q60.6875 51.1719 53.6875 57.9844
Q46.6875 64.7969 31.5938 64.7969
z

M9.8125 72.9062
L30.0781 72.9062
Q51.2656 72.9062 61.1719 64.0938
Q71.0938 55.2812 71.0938 36.5312
Q71.0938 17.6719 61.125 8.82812
Q51.1719 0 30.0781 0
L9.8125 0
z
" id="DejaVuSans-44"/>
    <path d="
M9.8125 72.9062
L55.9062 72.9062
L55.9062 64.5938
L19.6719 64.5938
L19.6719 43.0156
L54.3906 43.0156
L54.3906 34.7188
L19.6719 34.7188
L19.6719 8.29688
L56.7812 8.29688
L56.7812 0
L9.8125 0
z
" id="DejaVuSans-45"/>
    <path d="
M44.2812 53.0781
L44.2812 44.5781
Q40.4844 46.5312 36.375 47.5
Q32.2812 48.4844 27.875 48.4844
Q21.1875 48.4844 17.8438 46.4375
Q14.5 44.3906 14.5 40.2812
Q14.5 37.1562 16.8906 35.375
Q19.2812 33.5938 26.5156 31.9844
L29.5938 31.2969
Q39.1562 29.25 43.1875 25.5156
Q47.2188 21.7812 47.2188 15.0938
Q47.2188 7.46875 41.1875 3.01562
Q35.1562 -1.42188 24.6094 -1.42188
Q20.2188 -1.42188 15.4531 -0.5625
Q10.6875 0.296875 5.42188 2
L5.42188 11.2812
Q10.4062 8.6875 15.2344 7.39062
Q20.0625 6.10938 24.8125 6.10938
Q31.1562 6.10938 34.5625 8.28125
Q37.9844 10.4531 37.9844 14.4062
Q37.9844 18.0625 35.5156 20.0156
Q33.0625 21.9688 24.7031 23.7812
L21.5781 24.5156
Q13.2344 26.2656 9.51562 29.9062
Q5.8125 33.5469 5.8125 39.8906
Q5.8125 47.6094 11.2812 51.7969
Q16.75 56 26.8125 56
Q31.7812 56 36.1719 55.2656
Q40.5781 54.5469 44.2812 53.0781" id="DejaVuSans-73"/>
    <path d="
M53.5156 70.5156
L53.5156 60.8906
Q47.9062 63.5781 42.9219 64.8906
Q37.9375 66.2188 33.2969 66.2188
Q25.25 66.2188 20.875 63.0938
Q16.5 59.9688 16.5 54.2031
Q16.5 49.3594 19.4062 46.8906
Q22.3125 44.4375 30.4219 42.9219
L36.375 41.7031
Q47.4062 39.5938 52.6562 34.2969
Q57.9062 29 57.9062 20.125
Q57.9062 9.51562 50.7969 4.04688
Q43.7031 -1.42188 29.9844 -1.42188
Q24.8125 -1.42188 18.9688 -0.25
Q13.1406 0.921875 6.89062 3.21875
L6.89062 13.375
Q12.8906 10.0156 18.6562 8.29688
Q24.4219 6.59375 29.9844 6.59375
Q38.4219 6.59375 43.0156 9.90625
Q47.6094 13.2344 47.6094 19.3906
Q47.6094 24.75 44.3125 27.7812
Q41.0156 30.8125 33.5 32.3281
L27.4844 33.5
Q16.4531 35.6875 11.5156 40.375
Q6.59375 45.0625 6.59375 53.4219
Q6.59375 63.0938 13.4062 68.6562
Q20.2188 74.2188 32.1719 74.2188
Q37.3125 74.2188 42.625 73.2812
Q47.9531 72.3594 53.5156 70.5156" id="DejaVuSans-53"/>
    <path d="
M8.6875 72.9062
L18.6094 72.9062
L18.6094 28.6094
Q18.6094 16.8906 22.8438 11.7344
Q27.0938 6.59375 36.625 6.59375
Q46.0938 6.59375 50.3438 11.7344
Q54.5938 16.8906 54.5938 28.6094
L54.5938 72.9062
L64.5 72.9062
L64.5 27.3906
Q64.5 13.1406 57.4375 5.85938
Q50.3906 -1.42188 36.625 -1.42188
Q22.7969 -1.42188 15.7344 5.85938
Q8.6875 13.1406 8.6875 27.3906
z
" id="DejaVuSans-55"/>
    <path d="
M-0.296875 72.9062
L61.375 72.9062
L61.375 64.5938
L35.5 64.5938
L35.5 0
L25.5938 0
L25.5938 64.5938
L-0.296875 64.5938
z
" id="DejaVuSans-54"/>
   </defs>
   <g transform="translate(343.3659375 17.758125)scale(0.12 -0.12)">
    <use xlink:href="#DejaVuSans-45"/>
    <use x="63.18359375" xlink:href="#DejaVuSans-4e"/>
    <use x="137.98828125" xlink:href="#DejaVuSans-53"/>
    <use x="201.46484375" xlink:href="#DejaVuSans-4d"/>
    <use x="287.744140625" xlink:href="#DejaVuSans-55"/>
    <use x="360.9375" xlink:href="#DejaVuSans-53"/>
    <use x="424.4140625" xlink:href="#DejaVuSans-54"/>
    <use x="485.498046875" xlink:href="#DejaVuSans-30"/>
    <use x="549.12109375" xlink:href="#DejaVuSans-30"/>
    <use x="612.744140625" xlink:href="#DejaVuSans-30"/>
    <use x="676.3671875" xlink:href="#DejaVuSans-30"/>
    <use x="739.990234375" xlink:href="#DejaVuSans-30"/>
    <use x="803.61328125" xlink:href="#DejaVuSans-30"/>
    <use x="867.236328125" xlink:href="#DejaVuSans-34"/>
    <use x="930.859375" xlink:href="#DejaVuSans-38"/>
    <use x="994.482421875" xlink:href="#DejaVuSans-30"/>
    <use x="1058.10546875" xlink:href="#DejaVuSans-31"/>
    <use x="1121.72851562" xlink:href="#DejaVuSans-30"/>
    <use x="1185.3515625" xlink:href="#DejaVuSans-20"/>
    <use x="1217.13867188" xlink:href="#DejaVuSans-28"/>
    <use x="1256.15234375" xlink:href="#DejaVuSans-44"/>
    <use x="1333.15429688" xlink:href="#DejaVuSans-73"/>
    <use x="1385.25390625" xlink:href="#DejaVuSans-65"/>
    <use x="1446.77734375" xlink:href="#DejaVuSans-29"/>
   </g>
  </g>
 </g>
 <defs>
  <clipPath id="p9fd4257182">
   <rect height="279.272727273" width="669.6" x="108.0" y="43.2"/>
  </clipPath>
  <clipPath id="pc82b1f09f0">
   <rect height="34.9090909091" width="669.6" x="108.0" y="353.890909091"/>
  </clipPath>
 </defs>
</svg>
