<?xml version="1.0" encoding="utf-8" standalone="no"?>
<!DOCTYPE svg PUBLIC "-//W3C//DTD SVG 1.1//EN"
  "http://www.w3.org/Graphics/SVG/1.1/DTD/svg11.dtd">
<!-- Created with matplotlib (http://matplotlib.org/) -->
<svg height="432pt" version="1.1" viewBox="0 0 864 432" width="864pt" xmlns="http://www.w3.org/2000/svg" xmlns:xlink="http://www.w3.org/1999/xlink">
 <defs>
  <style type="text/css">
*{stroke-linecap:butt;stroke-linejoin:round;}
  </style>
 </defs>
 <g id="figure_1">
  <g id="patch_1">
   <path d="
M0 432
L864 432
L864 0
L0 0
z
" style="fill:#ffffff;"/>
  </g>
  <g id="axes_1">
   <g id="patch_2">
    <path d="
M108 322.473
L777.6 322.473
L777.6 43.2
L108 43.2
z
" style="fill:#ffffff;"/>
   </g>
   <g id="patch_3">
    <path clip-path="url(#p9fd4257182)" d="
M746.445 322.473
L751.085 322.473
L751.085 43.2
L746.445 43.2
z
" style="fill:#008000;opacity:0.2;"/>
   </g>
   <g id="patch_4">
    <path clip-path="url(#p9fd4257182)" d="
M506.462 322.473
L512.746 322.473
L512.746 43.2
L506.462 43.2
z
" style="fill:#008000;opacity:0.2;"/>
   </g>
   <g id="patch_5">
    <path clip-path="url(#p9fd4257182)" d="
M134.515 322.473
L227.13 322.473
L227.13 43.2
L134.515 43.2
z
" style="fill:#008000;opacity:0.2;"/>
   </g>
   <g id="line2d_1">
    <path clip-path="url(#p9fd4257182)" d="
M110.678 57.343
L111.076 57.4797
L111.526 58.098
L112.03 61.0817
L112.136 62.6796
L112.375 69.9004
L114.496 147.396
L114.523 145.712
L117.757 61.0875
L117.784 61.1968
L132.261 208.891
L132.287 208.827
L135.443 213.957
L138.28 236.343
L140.533 267.964
L141.647 284.989
L142.522 289.235
L142.549 289.216
L143.927 273.604
L145.041 224.165
L147.189 83.9492
L150.662 74.9986
L150.689 75.0408
L151.298 76.404
L152.279 79.2559
L156.946 69.4211
L158.935 70.1586
L163.203 82.0997
L164.344 89.0798
L166.12 94.4277
L166.147 94.2596
L169.222 132.974
L169.249 134.86
L171.158 300.854
L175.718 322.421
L177.548 322.408
L179.51 322.282
L189.055 322.407
L193.298 320.443
L195.525 272.818
L197.885 129.611
L198.866 109.856
L200.96 211.322
L204.407 268.181
L206.979 145.138
L207.854 134.42
L210.85 161.081
L211.593 169.245
L212.255 174.054
L212.786 174.018
L212.918 173.265
L213.767 159.461
L216.63 64.3721
L217.824 59.9185
L218.168 59.6855
L220.846 63.9818
L221.668 71.1826
L222.358 81.454
L225.009 131.858
L225.301 134.883
L229.49 112.702
L230.047 106.438
L231.426 94.1606
L232.857 86.6216
L235.668 72.9616
L244.02 64.8267
L244.046 64.8753
L244.259 65.2889
L248.103 88.9
L249.747 119.053
L249.774 119.673
L252.054 180.911
L254.626 229.88
L259.319 180.15
L259.955 166.83
L260.379 155.221
L264.887 103.75
L264.913 103.954
L266.504 109.558
L266.531 109.416
L267.936 107.676
L267.963 107.755
L269.05 111.759
L270.959 105.983
L272.868 87.7854
L281.246 62.2383
L283.951 60.5215
L288.167 66.158
L288.511 69.1268
L289.095 76.0521
L292.807 75.0097
L292.939 72.0941
L294.504 59.1936
L301.875 63.6644
L301.901 63.8491
L303.095 79.9417
L303.996 107.212
L304.288 118.863
L310.36 71.6007
L310.678 68.0632
L312.03 60.4276
L312.428 59.4478
L320.621 57.1191
L330.749 57.4267
L332.738 58.3467
L342.919 99.8701
L343.847 111.14
L351.563 244.564
L351.59 244.316
L352.279 235.919
L352.73 228.243
L355.593 104.674
L356.044 90.387
L356.866 75.8019
L358.059 68.6173
L359.73 66.4079
L360.658 65.7872
L360.949 65.2016
L361.029 64.9655
L362.434 59.8162
L363.548 57.9004
L363.972 57.6194
L365.563 57.4663
L371.582 57.9024
L375.904 59.2505
L380.491 58.7732
L382.188 58.0294
L383.964 57.7475
L384.998 57.8495
L386.191 58.2823
L387.093 59.0061
L387.384 59.2594
L399.343 56.8518
L400.085 60.0315
L401.437 79.9443
L402.869 70.4111
L403.85 61.4099
L405.096 57.8117
L408.517 57.5304
L411.619 58.0885
L413.634 58.4145
L416.126 59.1195
L418.698 59.8517
L430.471 153.657
L434.58 74.9658
L435.031 72.2354
L443.94 59.1663
L447.016 57.3441
L447.811 57.2015
L452.743 79.6031
L454.413 82.9503
L454.44 82.7091
L455.66 67.6868
L456.429 60.5764
L457.542 56.9726
L459.796 56.5166
L461.254 56.6501
L463.985 57.4592
L466.902 59.1201
L468.121 58.7363
L469.341 58.8743
L471.012 60.3113
L472.046 61.5766
L472.311 61.9947
L473.133 63.7347
L473.743 65.6748
L475.625 73.0213
L478.436 74.6717
L478.462 74.6034
L481.538 70.0481
L483.129 66.3643
L484.083 64.5398
L486.151 65.8915
L488.75 76.953
L491.428 83.0844
L491.454 82.88
L491.879 78.6648
L493.443 64.8891
L493.947 63.2631
L499.197 57.1153
L502.299 56.9565
L504.473 57.1173
L506.196 58.1486
L506.568 58.6396
L507.284 60.0916
L508.927 66.3891
L509.988 72.3788
L510.89 78.0556
L513.355 91.199
L514.31 92.8708
L520.276 69.8838
L522.476 63.0003
L523.961 59.4272
L524.332 58.8973
L528.177 62.9227
L528.204 63.1147
L529.556 79.4643
L532.844 112.152
L532.87 110.708
L534.063 60.39
L535.416 56.7782
L543.052 56.5589
L546.631 56.7609
L550.317 58.0865
L552.57 72.6631
L553.976 94.746
L554.718 96.917
L554.745 96.7446
L555.858 76.9064
L558.404 57.4305
L558.43 57.4091
L566.04 56.9936
L570.786 78.864
L572.483 106.197
L574.021 110.394
L574.047 110.215
L578.767 60.9715
L579.324 59.0792
L580.782 57.3627
L581.392 57.1557
L582.665 57.0689
L584.998 59.1992
L585.687 61.3897
L588.074 70.6096
L588.418 70.5851
L589.611 66.1745
L597.857 57.3427
L603.319 57.0552
L607.668 59.0334
L608.781 73.3771
L609.153 90.7487
L611.91 166.257
L611.937 165.596
L612.944 131.58
L615.543 66.0572
L615.781 64.7109
L618.698 63.9033
L619.838 65.6925
L623.126 69.5099
L624.133 68.9916
L625.645 63.163
L628.349 68.102
L628.641 73.2969
L631.796 280.632
L632.592 293.909
L636.542 145.55
L637.629 70.2675
L637.815 65.5756
L640.493 56.5391
L640.944 56.5362
L652.318 286.893
L653.697 296.744
L655.076 286.638
L663.322 62.6406
L663.349 62.6507
L663.932 63.0495
L667.405 72.013
L671.409 80.8511
L672.443 83.2712
L679.31 59.2988
L683.022 57.1216
L687.053 60.4005
L690.818 85.0971
L697.393 116.49
L699.488 141.456
L702.431 192.71
L703.386 202.919
L704.367 205.797
L704.393 205.747
L704.605 205.074
L708.874 111.052
L715.185 81.8125
L716.829 96.058
L716.935 97.3544
L721.097 169.144
L722.078 177.706
L722.105 177.677
L724.73 135.747
L728.389 235.532
L733.48 319.632
L735.919 321.706
L736.582 321.866
L739.499 322.048
L742.15 321.548
L743.873 320.468
L745.729 320.376
L747.983 321.259
L749.282 321.399
L752.385 321.601
L755.089 321.983
L757.422 322.033
L764.104 321.773
L767.551 321.595
L770.415 321.634
L773.039 321.92
L774.047 321.552
L774.074 321.528
L774.71 320.471
L775.426 318.077
L777.6 301.774
L777.6 301.774" style="fill:none;opacity:0.5;stroke:#0000ff;stroke-linecap:square;"/>
   </g>
   <g id="line2d_2">
    <path clip-path="url(#p9fd4257182)" d="
M110.678 110.032
L111.076 101.99
L111.526 94.6608
L112.136 88.6542
L112.375 87.6586
L114.523 139.82
L117.784 261.603
L123.617 211.113
L132.261 209.79
L135.443 275.761
L138.306 306.951
L140.533 308.662
L141.408 307.39
L141.647 306.721
L142.549 302.161
L143.927 277.901
L145.041 227.909
L147.189 118.721
L150.689 81.9384
L151.298 82.3678
L152.279 84.8074
L156.946 89.1504
L158.935 84.1883
L163.177 74.5324
L163.203 74.5513
L164.105 76.205
L164.344 77.0459
L166.147 96.8317
L169.249 209.582
L171.158 255.904
L177.548 309.28
L179.51 319.679
L181.101 321.958
L182.161 322.246
L189.055 322.35
L193.298 321.863
L195.498 272.309
L195.525 269.165
L197.169 107.677
L197.487 102.815
L197.725 102.759
L197.885 104.384
L197.911 104.791
L198.892 159.927
L200.96 292.83
L204.381 257.648
L204.407 256.087
L206.051 133.312
L206.422 114.921
L206.979 96.6943
L207.854 81.2381
L210.479 74.6943
L210.505 74.7476
L210.85 75.1916
L211.593 74.8376
L212.255 73.6369
L215.623 68.0479
L215.941 67.8017
L216.604 68.8579
L217.797 86.3501
L218.168 96.0059
L220.846 76.5138
L221.456 76.0636
L221.668 77.3468
L222.145 82.379
L222.358 85.6395
L224.664 136.889
L225.009 135.283
L225.301 129.608
L230.047 70.2433
L231.452 61.2373
L232.857 57.8589
L234.263 57.0812
L235.668 56.9696
L244.02 128.865
L244.046 128.68
L244.259 127.139
L248.103 103.658
L249.402 103.503
L249.774 103.944
L252.054 108.507
L254.599 108.689
L259.319 74.7283
L260.379 70.0748
L264.887 87.4078
L264.913 88.048
L266.531 157.41
L267.963 226.799
L269.023 243.192
L269.05 243.141
L271.463 147.575
L272.523 127.227
L272.868 125.093
L281.22 145.902
L282.837 115.907
L283.951 98.1873
L288.167 70.0319
L292.939 60.4724
L294.504 60.8558
L301.875 87.068
L301.901 86.5624
L303.095 71.484
L303.996 66.2515
L304.288 65.172
L310.678 63.3459
L312.428 61.6396
L320.621 56.936
L321.284 57.0317
L325.579 68.8878
L327.011 70.776
L327.037 70.7383
L328.23 66.9563
L329.583 61.2651
L330.749 58.2304
L332.738 57.2737
L342.919 131.384
L343.847 155.294
L349.389 205.365
L351.563 230.798
L351.59 230.773
L352.253 222.975
L352.279 222.318
L352.73 205.847
L355.62 60.9118
L356.071 58.9197
L356.866 57.7791
L358.059 58.348
L359.73 64.0014
L360.287 65.1701
L360.313 65.1572
L360.764 63.8579
L361.877 59.3154
L362.434 58.071
L363.548 57.1049
L363.972 57.0064
L365.589 57.2386
L366.279 57.5713
L370.468 98.6481
L371.582 137.608
L373.623 99.136
L379.298 57.0187
L379.324 57.035
L380.279 58.4486
L380.517 59.0923
L381.1 61.3273
L383.328 73.9196
L383.513 74.4007
L383.991 74.7828
L384.998 71.6085
L386.881 60.7095
L387.384 59.1438
L388.286 58.1548
L389.85 58.1099
L390.54 58.3792
L392.528 72.8567
L399.369 78.6209
L401.464 89.2179
L402.869 97.0204
L403.85 116.168
L405.096 147.728
L408.517 61.367
L410.373 57.9597
L410.797 57.7217
L411.619 57.6133
L412.52 58.7857
L413.342 70.7862
L414.535 122.331
L415.41 118.131
L416.126 104.907
L418.698 166.458
L422.888 183.596
L424.054 156.366
L427.368 121.086
L428.853 104.073
L430.471 88.4891
L434.58 67.4266
L435.031 66.3406
L447.042 57.7861
L447.838 58.1436
L452.743 76.2677
L454.413 85.2833
L454.44 85.2525
L455.66 76.2706
L456.429 66.8606
L457.542 58.4348
L461.228 56.9083
L468.121 57.9489
L471.012 61.047
L471.595 63.3927
L472.311 67.8991
L473.743 79.7925
L475.254 79.6066
L475.625 77.9109
L478.462 70.8731
L481.538 67.9191
L486.151 62.4097
L488.75 61.4176
L491.454 72.3567
L491.879 75.0611
L493.416 77.0279
L493.443 76.9439
L493.973 74.9009
L499.17 68.0937
L499.197 68.194
L501.026 82.1993
L502.272 83.9206
L502.299 83.8544
L503.837 75.6869
L504.5 70.6473
L506.223 62.1608
L506.594 61.4063
L507.284 60.7681
L508.927 63.56
L509.431 66.1719
L509.988 70.644
L510.306 74.1046
L510.89 82.203
L513.355 127.449
L514.31 136.911
L520.276 67.5494
L521.628 62.4315
L522.476 60.5672
L524.306 58.0987
L524.332 58.0765
L528.204 57.0689
L529.556 57.1302
L535.442 57.1308
L546.631 56.8723
L550.29 57.0843
L552.889 58.0073
L553.976 58.9866
L554.745 60.1337
L555.858 62.9497
L558.43 76.6281
L566.013 95.6865
L566.04 95.5612
L570.998 71.7276
L572.483 68.4456
L574.047 66.167
L574.816 64.4618
L578.767 56.635
L579.324 56.6416
L580.782 56.8893
L581.392 57.2179
L582.665 58.8334
L584.998 65.6249
L585.687 68.8696
L588.418 88.7973
L589.611 96.3108
L597.857 57.8533
L603.319 56.8508
L607.668 59.1153
L608.834 67.2742
L609.153 72.9544
L611.937 141.434
L612.918 144.446
L612.944 144.191
L615.781 83.6519
L618.671 77.1504
L619.149 77.3791
L619.838 77.221
L623.126 72.0728
L624.133 72.259
L625.645 77.2763
L628.349 80.3254
L628.376 80.2004
L628.641 78.8815
L631.77 68.6764
L631.796 68.69
L632.592 69.8887
L636.516 74.3047
L636.542 74.2546
L637.815 70.3446
L640.493 60.6285
L640.944 60.1453
L652.318 70.349
L653.697 74.8026
L655.076 85.7852
L663.322 144.182
L663.349 141.207
L663.932 90.1057
L667.405 56.5711
L670.826 57.1176
L671.382 58.3842
L671.595 59.4323
L672.443 73.5079
L679.125 73.0673
L679.31 69.5096
L683.022 56.8138
L687.053 56.8693
L690.818 58.0737
L697.393 67.7073
L699.488 68.3702
L702.166 65.9616
L703.386 64.7661
L704.605 63.8968
L708.874 62.855
L715.185 88.9488
L716.935 119.993
L721.097 175.298
L722.105 187.198
L724.73 211.994
L728.389 271.491
L733.055 321.813
L733.48 321.925
L736.582 322.098
L742.15 321.966
L743.873 321.746
L746.127 321.255
L747.771 321.193
L749.309 321.386
L751.722 321.697
L755.116 321.827
L759.384 321.881
L763.043 322.281
L764.104 322.091
L765.085 321.271
L765.536 320.411
L766.835 316.719
L767.551 317.181
L768.956 320.88
L770.415 322.018
L773.039 322.08
L775.426 322.114
L777.6 322.2
L777.6 322.2" style="fill:none;opacity:0.5;stroke:#ff0000;stroke-linecap:square;"/>
   </g>
   <g id="line2d_3">
    <path clip-path="url(#p9fd4257182)" d="
M110.678 98.7822
L111.076 88.8598
L111.526 81.1231
L112.136 75.8757
L112.375 75.2771
L114.523 132.119
L117.784 265.868
L123.617 241.548
L132.261 194.979
L132.287 195.1
L135.443 215.476
L138.28 271.94
L140.533 281.275
L141.408 282.855
L141.647 282.607
L142.549 277.484
L143.927 260.475
L145.041 227.903
L147.189 94.6198
L150.689 61.5637
L151.298 60.7118
L152.279 59.7932
L156.946 59.6211
L158.935 60.2994
L163.203 66.1143
L164.344 71.7629
L166.147 98.3586
L169.249 230.639
L171.158 279.753
L175.718 302.488
L179.51 318.231
L181.101 321.341
L182.161 321.964
L186.801 322.386
L189.055 322.333
L193.298 320.227
L195.525 265.125
L197.169 135.456
L197.487 128.847
L197.725 127.79
L197.752 127.877
L197.911 129.281
L198.892 180.349
L200.96 303.139
L204.381 305.123
L204.407 304.797
L205.892 167.418
L206.396 76.1581
L206.422 73.8056
L206.979 58.2444
L207.854 56.7957
L210.505 57.2634
L210.85 57.6664
L211.593 60.8308
L212.255 71.8896
L212.918 96.2944
L213.661 112.676
L213.767 111.186
L215.623 63.8269
L215.941 61.3589
L216.604 58.782
L217.797 57.7118
L220.846 57.6195
L221.483 60.2734
L221.668 62.4741
L222.039 70.5815
L222.358 83.31
L223.471 157.675
L224.638 154.429
L225.009 123.767
L225.301 97.2064
L229.463 57.218
L230.02 56.9928
L231.426 56.8325
L234.263 56.8262
L235.668 57.0167
L244.02 69.3657
L244.232 70.0231
L248.103 81.4136
L249.402 86.1098
L249.774 87.9036
L252.054 101.421
L254.599 109.826
L254.626 109.799
L259.319 82.2151
L260.379 72.0774
L264.887 67.1463
L264.913 67.2724
L267.963 87.6871
L269.023 89.4836
L269.05 89.4538
L270.959 81.1823
L271.463 81.3309
L272.523 87.526
L272.868 91.4292
L281.22 175.689
L281.246 174.93
L282.837 128.525
L283.951 102.865
L288.167 70.7087
L289.095 68.986
L292.939 61.9432
L294.504 57.6425
L301.901 56.5144
L303.095 56.5964
L303.996 56.887
L304.288 57.0957
L310.36 78.5129
L310.678 78.7321
L312.03 78.5019
L312.428 78.0803
L320.621 59.593
L321.284 59.4541
L327.037 67.393
L328.23 69.2254
L329.583 72.6774
L330.749 78.7386
L332.738 97.2989
L343.847 244.043
L349.363 272.425
L349.389 272.06
L351.59 205.381
L352.73 165.089
L356.071 147.086
L356.866 134.223
L358.059 101.607
L359.73 71.4752
L360.313 66.863
L360.976 63.961
L361.029 63.8183
L362.434 61.0274
L363.548 58.0671
L363.972 57.2333
L365.563 56.5578
L366.252 56.5748
L370.468 57.5054
L371.582 58.0763
L375.93 58.7044
L382.188 57.1195
L383.991 57.0959
L384.998 57.2861
L386.191 57.873
L386.881 58.5889
L387.384 59.3116
L392.528 60.9318
L393.642 62.2217
L394.623 64.9519
L399.343 71.4895
L400.085 74.5454
L401.437 81.683
L402.869 90.6163
L403.85 99.5041
L405.096 106.571
L408.517 59.8578
L410.399 57.6167
L410.797 57.5507
L412.52 57.674
L413.634 58.184
L414.562 59.9935
L415.41 65.035
L416.1 74.2531
L418.698 135.27
L422.861 84.248
L427.342 62.2597
L428.853 59.9777
L430.471 58.4202
L435.005 57.0325
L435.031 57.0308
L447.042 63.8618
L447.838 67.2301
L452.716 111.4
L452.743 111.345
L454.44 97.9954
L455.66 84.7511
L456.429 78.0361
L457.542 71.5016
L459.822 68.4676
L466.875 110.131
L468.121 85.134
L469.341 71.2471
L471.012 65.5296
L471.595 65.1195
L472.311 65.083
L473.133 65.3478
L473.743 66.0237
L475.254 88.2516
L475.625 98.8074
L478.462 65.6481
L481.352 57.985
L481.511 57.8784
L483.102 57.0844
L484.057 56.9088
L486.125 57.2294
L488.75 61.4742
L491.879 68.5341
L493.443 70.2828
L493.973 69.8514
L499.17 96.5147
L499.197 97.4523
L501 153.187
L501.026 151.891
L502.299 67.6704
L503.837 56.512
L506.223 56.5747
L506.594 56.6864
L509.325 58.0834
L509.882 58.8223
L510.306 59.6508
L510.89 61.3543
L513.17 122.676
L513.355 138.57
L514.31 233.103
L520.276 98.4661
L521.628 75.1778
L522.476 68.8679
L524.332 59.738
L528.204 56.7403
L529.556 57.1345
L532.87 57.2373
L534.063 57.4199
L535.442 58.6034
L543.025 86.9174
L543.052 86.3232
L545.677 58.8598
L546.631 57.4133
L550.317 56.6766
L552.915 56.8679
L553.976 57.1579
L554.745 57.5725
L555.858 58.8248
L558.43 64.5544
L566.04 61.202
L570.786 64.5896
L572.483 73.1086
L574.047 68.3301
L574.816 64.0354
L578.767 57.2896
L579.324 57.2336
L582.665 57.219
L585.687 56.8682
L589.611 57.1893
L597.857 57.2215
L603.319 59.1495
L607.668 68.3263
L608.861 78.4849
L609.153 82.1099
L611.91 96.5354
L611.937 96.4634
L612.944 91.0826
L615.569 62.9822
L615.781 62.2694
L618.671 62.9487
L619.838 65.4259
L623.126 71.4556
L624.133 71.7725
L625.645 69.7789
L628.641 66.1474
L631.796 64.0678
L632.592 64.3771
L636.542 65.2234
L637.815 64.8188
L640.493 64.9827
L640.944 65.2599
L652.318 71.8749
L655.076 71.0019
L663.349 64.3946
L663.932 62.7273
L667.405 58.1517
L671.595 58.5708
L672.443 58.7031
L679.31 57.0515
L683.022 56.7255
L687.053 59.6084
L690.818 117.474
L697.393 71.5489
L699.488 65.6735
L701.636 65.9518
L702.431 66.6495
L703.386 67.9167
L704.605 70.2809
L708.874 86.2544
L715.185 147.264
L716.935 165.212
L721.097 183.582
L722.105 183.018
L724.703 168.855
L724.73 168.889
L728.389 252.406
L733.055 321.825
L733.48 321.926
L742.15 322.01
L743.873 321.754
L746.154 321.68
L752.385 321.954
L763.017 322.154
L766.464 322.073
L770.415 321.82
L773.039 321.938
L774.074 321.739
L774.71 321.252
L775.426 319.384
L777.6 305.287
L777.6 305.287" style="fill:none;opacity:0.5;stroke:#ff0000;stroke-linecap:square;"/>
   </g>
   <g id="line2d_4">
    <path clip-path="url(#p9fd4257182)" d="
M110.678 114.552
L111.076 95.7432
L111.526 82.1478
L112.136 73.6113
L112.375 72.4862
L114.523 131.217
L117.784 257.173
L123.617 170.112
L132.261 136.917
L132.287 137.27
L135.443 195.66
L138.306 261.956
L140.533 277.541
L141.408 280.638
L141.647 280.943
L142.549 279.286
L143.927 257.077
L145.041 214.28
L147.189 120.527
L150.689 80.4874
L152.279 75.0101
L156.946 58.808
L158.935 59.0495
L163.203 73.0031
L164.344 82.1738
L166.147 95.1503
L169.249 123.717
L175.718 289.605
L177.548 304.996
L179.51 313.053
L181.101 315.957
L182.161 316.812
L186.801 319.045
L189.055 321.761
L193.298 322.406
L195.498 318.162
L195.525 317.768
L197.911 134.072
L198.866 119.24
L198.892 119.493
L200.96 234.571
L204.381 299.58
L204.407 299.525
L205.892 216.433
L206.422 102.83
L206.979 64.1434
L207.854 59.0043
L210.505 72.0646
L210.85 76.7035
L211.593 97.3619
L212.918 154.092
L213.661 149.301
L213.767 144.499
L215.013 84.7103
L215.384 76.0837
L215.967 67.9335
L216.63 63.3413
L217.797 60.5996
L218.142 60.1214
L220.82 58.9254
L220.846 58.9892
L221.483 62.9573
L221.907 70.7824
L222.331 84.0489
L223.471 128.538
L224.664 112.483
L225.301 80.307
L229.463 60.3484
L229.49 60.3889
L230.047 61.7353
L231.452 71.6676
L234.263 104.004
L235.668 124.668
L244.02 81.1759
L244.046 81.1939
L244.259 81.3558
L248.103 90.9508
L249.774 102.076
L252.054 123.568
L254.599 136.936
L254.626 136.91
L259.319 95.987
L260.379 82.0093
L264.887 76.7305
L264.913 77.0301
L266.531 129.824
L267.963 213.63
L269.023 226.253
L269.05 226.088
L271.463 153.25
L272.523 139.85
L272.868 138.77
L281.22 110.851
L281.246 110.236
L282.837 81.0212
L283.951 69.9814
L288.14 62.1435
L288.167 62.1757
L288.511 62.663
L289.095 63.7978
L292.939 79.2855
L294.504 81.897
L301.901 77.3245
L303.095 76.783
L304.288 75.9747
L310.333 104.045
L310.678 118.209
L312.428 235.07
L320.621 60.627
L321.284 57.9817
L325.579 59.3371
L327.037 64.3471
L328.23 72.9922
L329.583 87.204
L330.749 97.0631
L332.738 101.934
L342.919 183.447
L343.847 205.81
L349.363 237.392
L349.389 236.975
L352.2 151.341
L352.73 135.791
L355.593 113.664
L356.84 66.4553
L358.059 57.1259
L359.73 56.7723
L360.313 57.1772
L360.737 58.578
L361.029 60.9316
L362.196 79.2486
L362.408 79.8286
L362.434 79.7524
L363.548 60.9094
L363.972 57.4181
L365.589 56.5049
L366.279 56.514
L370.495 58.2167
L371.582 59.415
L381.074 163.265
L381.1 157.058
L382.188 62.655
L383.328 57.4558
L383.513 57.342
L383.991 57.3149
L384.998 58.4826
L386.191 65.5072
L386.881 70.8394
L387.384 71.8158
L390.54 75.5983
L392.528 118.526
L393.642 137.144
L394.623 90.8404
L399.343 59.1927
L400.085 59.6198
L401.464 61.6229
L402.869 66.6825
L403.824 73.2496
L405.096 87.4037
L408.49 116.393
L412.494 94.6093
L413.607 90.8768
L414.535 88.9514
L415.41 87.6374
L416.1 86.8889
L418.698 85.806
L422.888 89.926
L424.054 93.2614
L427.368 98.0757
L428.853 93.2644
L435.031 64.0163
L452.743 56.4988
L454.44 56.5683
L455.66 58.1672
L456.429 63.3866
L457.542 80.1518
L459.796 84.7839
L461.254 72.8984
L463.985 59.6223
L467.353 58.2389
L468.148 59.2357
L469.341 64.5389
L470.985 74.4237
L471.012 74.2363
L472.231 64.7629
L472.311 64.363
L473.133 62.4434
L473.743 64.0057
L475.254 84.3946
L475.625 92.1324
L478.462 62.105
L481.511 58.2721
L483.102 57.7024
L484.057 57.583
L486.151 57.9591
L488.75 60.8879
L491.454 65.5812
L491.879 65.7125
L493.443 63.8655
L493.973 62.802
L499.17 57.176
L501.026 57.0189
L507.284 57.1871
L510.306 56.8765
L510.89 56.9472
L513.17 60.4787
L513.355 62.2543
L514.31 130.689
L520.276 74.4313
L521.628 71.0593
L522.476 68.4454
L524.332 63.8106
L528.204 59.2416
L529.529 58.763
L532.87 64.0536
L534.063 67.2141
L535.416 72.6517
L543.025 105.443
L543.052 105.23
L545.677 83.1631
L546.605 77.1368
L550.317 66.6601
L552.597 63.6342
L554.745 58.1974
L555.858 56.867
L558.43 56.5253
L566.04 57.6272
L570.786 74.2735
L570.998 75.7458
L572.456 74.6194
L572.483 74.3978
L574.047 63.1503
L574.816 61.0087
L578.767 60.5044
L579.324 61.366
L580.782 64.8441
L581.392 66.8508
L582.665 71.6257
L584.971 75.5861
L584.998 75.5018
L585.687 71.9847
L588.074 58.2379
L588.418 57.5696
L589.611 56.6426
L607.668 56.5829
L608.781 57.5688
L608.861 57.8549
L609.153 59.6117
L611.91 130.48
L611.937 130.066
L612.944 93.9099
L615.569 58.827
L615.781 58.3371
L618.698 56.6594
L619.838 56.6368
L623.099 57.9096
L624.107 62.188
L625.645 72.5711
L628.376 79.31
L628.641 80.6119
L631.77 89.7344
L631.796 89.704
L632.592 88.29
L636.542 61.8919
L637.815 57.985
L640.493 56.6851
L640.944 56.7461
L652.292 82.3085
L652.318 81.9799
L653.697 73.3636
L655.076 85.2739
L663.322 121.127
L663.349 117.798
L663.932 72.3023
L667.405 56.5069
L670.826 56.5993
L671.409 56.8303
L671.595 56.9908
L672.443 59.5663
L679.125 126.121
L679.31 119.336
L683.022 65.6798
L687.053 70.4391
L690.818 90.158
L697.393 58.6341
L699.488 57.4785
L702.431 57.1782
L704.605 57.1431
L708.874 57.1799
L715.185 76.1089
L716.935 110.225
L721.097 146.067
L722.105 161.277
L724.73 236.901
L728.389 318.628
L733.055 321.605
L736.529 321.715
L739.499 321.834
L742.15 321.464
L743.873 320.978
L746.154 321.085
L752.411 322.05
L755.938 322.032
L759.384 321.939
L765.085 321.873
L768.956 321.872
L772.456 321.901
L773.039 321.835
L774.074 321.451
L774.71 320.673
L775.426 317.713
L777.6 297.472
L777.6 297.472" style="fill:none;opacity:0.5;stroke:#ff0000;stroke-linecap:square;"/>
   </g>
   <g id="line2d_5">
    <path clip-path="url(#p9fd4257182)" d="
M110.678 95.8069
L111.076 74.5069
L111.526 64.3372
L112.136 60.0458
L112.375 59.5528
L114.496 63.4648
L117.784 83.5562
L123.617 108.416
L132.287 134.476
L135.443 135.116
L138.28 132.514
L138.306 132.622
L140.533 178.212
L141.647 215.563
L142.549 233.451
L143.927 245.807
L145.041 226.855
L147.189 81.0493
L150.689 62.792
L151.298 62.9751
L152.279 64.2139
L156.946 71.331
L158.935 72.5845
L163.203 70.1678
L164.105 71.2591
L164.344 71.7733
L166.147 82.2465
L169.249 153.584
L171.158 249.865
L175.718 296.821
L177.548 308.12
L179.51 318.58
L181.101 321.737
L182.161 322.221
L186.801 322.45
L189.055 322.402
L193.271 305.019
L193.298 304.381
L195.525 175.972
L197.911 182.227
L198.892 192.78
L200.96 284.115
L204.407 309.656
L205.892 191.252
L206.422 104.298
L206.979 69.7863
L207.854 61.0681
L210.505 65.9061
L210.85 69.3261
L211.593 87.1331
L212.255 121.622
L212.918 164.1
L213.661 186.348
L213.767 185.577
L215.649 77.5112
L215.967 68.3407
L216.63 60.0603
L217.824 57.2815
L218.168 56.9934
L220.846 56.5189
L221.483 56.633
L221.668 56.7976
L222.039 57.8092
L222.225 59.0546
L222.358 60.4831
L223.471 99.3055
L224.664 84.6488
L225.009 68.5946
L225.301 60.8085
L229.49 57.1901
L230.047 57.6453
L231.452 63.1446
L232.857 74.4179
L234.263 72.8257
L235.668 60.5112
L244.02 66.176
L244.232 67.1562
L248.103 114.209
L249.402 128.211
L249.774 129.525
L251.842 122.427
L252.054 121.044
L254.599 111.615
L254.626 111.661
L259.319 196.605
L259.955 196.328
L260.379 193.718
L264.913 110.359
L266.531 77.0973
L267.963 65.9445
L269.05 64.7996
L270.959 68.921
L271.463 71.0071
L272.868 78.4561
L281.246 59.0777
L282.837 57.4662
L283.951 57.0791
L289.095 56.8633
L292.939 56.9851
L294.504 57.8786
L301.875 111.711
L303.068 85.4413
L303.969 73.8937
L304.261 71.2379
L310.333 57.2206
L312.03 56.9521
L312.428 56.9174
L320.621 56.8963
L321.284 57.0323
L325.579 72.8161
L327.011 76.4221
L327.037 76.3513
L328.23 68.862
L329.583 59.5511
L330.749 56.8955
L332.738 56.5269
L342.893 69.5588
L342.919 70.0114
L343.503 83.9549
L343.847 96.3679
L349.363 233.848
L349.389 233.541
L351.59 178.339
L352.73 142.082
L356.84 67.5188
L358.059 60.0469
L359.73 59.0413
L362.434 59.153
L363.548 59.0951
L366.252 56.9284
L370.468 57.6733
L371.582 70.5247
L373.623 301.085
L379.324 61.0566
L380.279 57.2042
L380.517 56.9964
L381.1 56.7709
L382.188 56.7762
L383.328 58.5471
L383.513 59.6739
L383.991 64.9002
L384.998 83.3123
L386.191 72.6925
L386.881 60.0213
L387.225 57.8317
L387.384 57.454
L388.153 56.9691
L389.665 57.9085
L390.54 59.2516
L394.623 67.7609
L399.369 87.1363
L400.111 91.6415
L401.464 98.8001
L402.842 102.374
L403.824 101.588
L405.096 95.3941
L408.517 70.4598
L410.373 61.5171
L410.585 61.056
L411.592 59.6632
L412.494 58.9953
L413.607 58.4514
L418.698 59.1587
L422.861 62.6658
L424.028 65.5443
L428.853 85.5386
L430.497 83.4176
L434.58 64.2969
L435.005 62.8761
L447.042 56.5854
L447.838 56.5821
L452.743 58.9531
L454.44 65.9583
L455.66 73.8213
L456.429 77.432
L457.542 76.9141
L459.822 63.3566
L461.254 59.7813
L463.985 58.7701
L466.875 58.7794
L471.012 57.6685
L472.046 57.7351
L472.311 57.8526
L473.133 58.893
L473.743 61.4795
L475.254 84.1941
L475.625 94.4094
L478.462 151.172
L481.352 128.532
L481.538 116.126
L483.129 61.2726
L484.083 57.482
L486.151 56.8173
L488.75 57.132
L491.879 57.1014
L493.443 57.5941
L493.947 58.0824
L499.197 79.0799
L501.026 82.1363
L502.299 80.4922
L503.837 77.0281
L504.473 75.0869
L507.284 61.7743
L508.927 58.5504
L509.458 58.4121
L509.988 58.5881
L510.306 58.899
L510.89 60.2311
L513.355 75.2681
L514.283 74.026
L520.249 89.7916
L521.628 72.6997
L522.476 64.9527
L523.961 58.9882
L524.332 58.3852
L528.204 57.5447
L529.556 58.8817
L532.87 75.2655
L534.063 82.808
L535.442 81.3269
L543.025 62.8392
L543.052 62.8739
L545.677 69.6109
L546.631 74.1402
L550.317 97.0547
L552.57 102.306
L552.597 102.283
L552.889 101.888
L553.976 98.1538
L554.745 93.5823
L555.858 85.0547
L558.43 67.4177
L566.04 58.8623
L570.76 79.3946
L570.998 86.8657
L572.483 144.467
L574.047 130.121
L574.816 115.691
L578.767 66.5637
L579.324 65.2197
L580.782 62.1218
L581.392 61.2319
L582.665 60.2077
L584.998 60.7211
L585.687 61.731
L588.074 79.0353
L588.418 85.2217
L589.611 112.578
L597.857 104.873
L603.293 74.0828
L603.319 74.107
L608.861 87.3809
L609.153 88.3435
L611.937 114.379
L612.944 110.965
L615.755 65.4028
L615.781 65.1945
L618.671 57.8571
L619.838 57.3091
L623.126 56.7453
L625.645 56.8255
L628.349 67.2207
L628.641 75.1989
L631.796 265.059
L632.565 271.222
L632.592 271.191
L636.542 162.762
L637.815 113.31
L640.493 69.2135
L640.944 67.966
L652.318 257.243
L653.697 270.183
L655.076 269.883
L663.349 66.8647
L663.932 59.6983
L667.405 56.5077
L671.409 56.6641
L671.595 56.7109
L672.443 57.1587
L679.284 86.8394
L679.31 86.8735
L683.022 89.4488
L687.053 99.0112
L690.818 109.437
L697.393 93.862
L699.461 89.2899
L701.609 94.9264
L702.405 98.7486
L703.359 102.648
L704.367 103.739
L704.393 103.704
L704.605 103.282
L708.874 68.0031
L715.158 67.4054
L715.185 67.5289
L716.829 79.6172
L716.935 80.7654
L721.097 154.294
L722.105 165.536
L724.73 169.405
L728.389 304.015
L733.055 321.896
L735.919 322.109
L739.499 322.15
L742.15 321.959
L743.873 321.6
L746.154 321.745
L747.771 322.001
L749.097 321.943
L750.847 321.598
L751.722 321.477
L752.411 321.529
L755.116 322.056
L757.422 322.084
L764.104 321.824
L766.835 321.237
L767.551 321.312
L768.956 321.622
L770.415 321.825
L773.039 321.769
L774.71 321.556
L775.426 321.287
L777.6 316.229
L777.6 316.229" style="fill:none;opacity:0.5;stroke:#0000ff;stroke-linecap:square;"/>
   </g>
   <g id="line2d_6">
    <path clip-path="url(#p9fd4257182)" d="
M110.678 75.9802
L111.526 77.782
L112.136 79.7604
L112.375 80.9558
L114.523 137.086
L117.784 233.575
L123.617 138.39
L132.287 172.835
L135.443 211.137
L138.306 236.503
L141.647 277.548
L142.522 279.249
L142.549 279.15
L143.927 259.587
L145.041 221.755
L147.189 133.381
L150.689 79.4606
L151.298 78.7586
L152.279 79.418
L156.946 105.603
L158.908 106.499
L158.935 106.385
L163.203 86.2101
L164.105 86.3471
L164.344 86.8727
L166.147 102.941
L171.158 232.921
L175.718 270.397
L177.548 302.104
L179.51 319.815
L181.101 322.127
L182.161 322.326
L186.801 322.367
L189.055 322.265
L193.298 318.407
L195.525 266.101
L197.354 153.962
L197.752 145.867
L197.911 144.206
L198.892 152.13
L200.96 281.827
L204.381 279.604
L204.407 278.256
L206.422 108.933
L206.979 90.9618
L207.828 88.3852
L207.854 88.5663
L210.479 108.507
L210.505 108.051
L212.918 64.5961
L213.767 58.8872
L218.142 56.5406
L220.846 57.4567
L221.483 61.3856
L221.668 64.6273
L222.145 80.2902
L222.358 90.791
L223.445 141.914
L223.471 142.402
L224.664 110.426
L225.301 76.2881
L229.463 59.9007
L229.49 59.944
L230.047 61.3296
L231.452 71.484
L232.857 88.0731
L234.263 98.0662
L235.668 90.9253
L244.046 60.6212
L244.259 60.4852
L248.103 61.7276
L249.402 66.5921
L249.774 69.2712
L251.842 106.349
L252.054 112.77
L254.599 185.081
L259.955 88.0314
L260.379 83.1462
L264.887 97.5154
L264.913 98.0105
L266.531 138.887
L267.963 177.727
L269.05 191.616
L270.959 162.103
L271.463 152.535
L272.523 138.996
L272.868 136.117
L281.246 90.5902
L282.837 74.1915
L283.951 66.8822
L288.14 62.0259
L288.167 62.0844
L288.511 62.9525
L289.095 64.908
L292.807 72.6833
L292.833 72.5102
L292.939 71.7839
L294.504 65.9388
L301.901 68.8748
L303.996 70.5451
L304.288 70.7967
L310.36 61.4825
L310.678 60.4113
L312.03 57.71
L312.428 57.3363
L320.621 56.6651
L321.284 56.7255
L325.579 57.3098
L327.037 58.1841
L328.23 59.8073
L329.583 63.6644
L330.749 69.7188
L332.738 83.6144
L342.919 158.749
L343.847 169.823
L349.363 208.841
L349.389 208.661
L351.59 181.973
L352.73 159.398
L355.62 102.331
L356.84 68.002
L356.866 67.4808
L358.059 58.3283
L359.73 57.1247
L360.658 57.3544
L361.029 57.7361
L361.559 59.1456
L361.877 60.968
L362.408 67.087
L362.434 67.5214
L363.548 88.5557
L363.972 86.7565
L365.589 60.2951
L366.279 58.3079
L370.468 56.862
L371.582 56.8504
L373.623 57.1275
L375.904 57.8924
L379.298 56.6853
L382.188 56.5492
L383.328 57.4565
L383.513 58.3773
L383.991 64.0374
L384.998 85.4508
L386.881 58.3521
L387.225 57.1398
L387.384 56.9536
L388.286 56.7886
L392.555 176.139
L393.668 224.581
L394.623 121.661
L399.369 56.5758
L401.331 56.5021
L401.464 56.503
L402.869 57.8117
L403.85 87.3132
L405.096 223.707
L408.517 150.815
L410.399 90.5905
L410.823 84.8466
L411.619 77.0902
L412.494 72.3266
L413.448 70.6724
L413.607 70.7193
L414.535 72.6053
L415.41 77.0279
L416.1 82.6341
L418.698 118.326
L424.054 94.9458
L427.342 79.6149
L428.853 81.111
L430.471 87.2829
L434.58 111.505
L435.031 112.932
L443.967 62.1636
L447.042 58.0756
L447.838 57.7161
L452.743 58.3874
L454.44 60.3687
L455.66 63.1709
L456.429 65.7994
L457.542 70.922
L459.822 79.6196
L464.012 166.497
L466.875 229.488
L467.353 185.785
L468.121 114.94
L469.341 72.5773
L471.012 68.8637
L471.595 69.1655
L473.716 71.212
L473.743 71.3166
L475.254 97.5708
L475.625 111.365
L478.436 120.358
L478.462 119.599
L481.352 81.9204
L481.379 81.9448
L481.538 82.101
L483.102 83.0779
L484.057 81.1419
L486.151 66.092
L488.75 57.959
L491.879 57.2292
L493.841 57.383
L493.973 57.423
L499.197 64.781
L502.299 80.1372
L503.81 82.9566
L503.837 82.9276
L504.5 81.144
L506.594 72.1568
L507.284 70.7379
L508.901 69.3302
L509.431 69.4822
L509.962 70.2643
L510.306 71.2566
L510.89 74.2706
L513.143 125.517
L514.31 172.575
L520.249 140.236
L520.276 137.814
L521.628 66.7194
L522.476 58.4852
L523.961 56.9163
L524.332 56.8631
L528.177 56.6669
L529.556 56.7417
L532.844 57.2503
L535.416 57.2584
L545.677 57.0603
L550.29 56.9175
L552.915 57.0382
L553.976 57.2879
L554.745 57.6984
L555.858 59.3345
L558.43 77.0107
L566.04 57.7604
L570.786 56.8886
L570.998 56.9922
L572.483 59.56
L574.047 68.2385
L574.816 75.0691
L578.767 60.8926
L579.297 60.6768
L580.782 60.4337
L581.392 60.7321
L582.665 63.325
L584.998 68.562
L585.687 69.6345
L589.611 80.7868
L597.857 90.6002
L603.319 76.0914
L607.668 68.0257
L608.861 68.1205
L609.153 68.9061
L611.91 119.22
L611.937 119.048
L612.944 86.402
L615.569 57.7824
L615.781 57.5681
L618.671 57.4813
L619.149 57.8442
L619.838 58.7812
L623.126 77.5551
L624.133 84.0549
L628.349 67.0832
L628.641 66.6635
L631.77 64.306
L631.796 64.3486
L632.592 66.9168
L636.542 61.4843
L637.815 57.7274
L640.493 56.6422
L640.944 56.6864
L652.292 79.3918
L652.318 78.8977
L653.697 62.8744
L655.076 58.3334
L663.349 56.736
L667.405 56.8176
L670.826 57.4135
L671.595 58.1676
L672.443 60.0305
L679.125 106.638
L679.151 106.392
L679.31 104.877
L683.022 75.8062
L687.053 74.4185
L690.818 78.111
L697.393 77.7399
L699.488 76.7399
L703.386 71.9362
L704.605 71.0401
L708.874 77.4179
L715.185 119.947
L716.935 126.236
L721.097 146.731
L722.105 160.807
L724.73 221.738
L728.389 315.579
L733.055 321.331
L736.582 321.902
L739.499 321.9
L743.873 321.707
L750.051 322.106
L774.683 321.995
L777.6 322.107
L777.6 322.107" style="fill:none;opacity:0.5;stroke:#ff0000;stroke-linecap:square;"/>
   </g>
   <g id="line2d_7">
    <path clip-path="url(#p9fd4257182)" d="
M110.678 66.8861
L111.076 67.3188
L111.526 67.958
L112.375 69.7461
L114.523 88.6765
L117.757 93.5569
L117.784 93.1804
L123.591 68.9967
L123.617 69.2903
L132.261 232.522
L132.287 232.511
L135.443 204.349
L138.306 210.226
L140.533 211.264
L142.549 221.631
L143.901 224.13
L143.927 224.053
L145.041 211.573
L147.189 122.981
L150.689 73.2396
L151.298 72.0701
L152.279 71.0605
L156.946 67.6955
L158.935 66.9079
L163.203 72.2177
L164.344 78.8623
L166.147 105.37
L169.249 216.967
L171.158 272.936
L175.718 310.355
L177.521 317.737
L179.51 321.696
L181.101 322.343
L182.161 322.393
L186.801 321.813
L189.055 319.957
L193.298 241.748
L195.525 189.15
L197.142 206.101
L197.911 220.981
L200.96 266.809
L204.407 306.945
L205.865 264.066
L206.051 225.684
L206.422 111.196
L206.979 61.5118
L207.854 57.7998
L210.505 74.9638
L210.85 80.184
L211.593 102.463
L212.255 132.435
L212.918 153.312
L213.661 138.436
L213.767 132.237
L214.801 85.8866
L217.797 82.7099
L218.142 83.1129
L220.82 96.0522
L221.907 103.223
L222.331 107.46
L223.471 123.895
L225.301 154.821
L229.463 147.582
L230.047 94.9445
L231.452 57.244
L232.831 56.501
L235.668 56.499
L244.046 115.42
L244.259 117.771
L248.103 149.212
L249.402 152.632
L249.774 153.232
L252.054 155.893
L254.626 164.397
L259.292 264.637
L259.319 263.017
L259.955 207.402
L260.379 158.608
L264.887 61.86
L264.913 61.9941
L266.531 78.705
L267.963 95.4703
L269.05 104.5
L270.959 99.2108
L272.868 82.6034
L281.246 57.4534
L282.811 57.0347
L283.951 56.9246
L288.167 57.8878
L288.511 58.1868
L289.095 58.8897
L292.833 81.9656
L294.504 106.776
L301.875 97.8533
L303.996 88.7307
L310.651 63.7764
L312.03 59.6357
L312.428 58.9241
L320.621 57.6046
L321.284 58.0865
L325.579 67.0006
L328.23 75.0826
L329.583 79.5535
L330.749 84.0379
L332.738 84.2524
L342.893 66.2645
L342.919 66.3121
L343.503 67.9497
L343.847 69.64
L349.389 266.758
L351.563 269.577
L351.59 269.399
L352.279 263.003
L352.73 256.862
L355.62 175.421
L356.866 106.913
L358.059 67.4801
L359.703 57.8384
L360.287 57.3484
L361.002 57.2161
L361.029 57.2195
L361.745 57.552
L362.196 58.1196
L362.434 58.6149
L363.468 63.8668
L365.589 82.4278
L366.279 81.6663
L370.468 93.3556
L371.582 116.221
L373.623 232.443
L379.324 57.8155
L380.491 57.6445
L380.517 57.6521
L381.1 57.9509
L382.188 59.5941
L383.328 64.915
L383.513 66.4542
L383.991 71.9068
L384.998 93.2071
L386.589 146.63
L389.665 173.733
L389.85 173.806
L390.54 175.563
L399.343 71.161
L400.111 70.7996
L401.464 70.8224
L402.842 71.516
L403.85 72.3495
L405.096 73.6443
L413.448 108.059
L414.535 101.798
L416.1 92.6497
L418.698 81.4554
L424.054 77.9842
L427.368 82.8391
L428.853 86.9098
L430.471 94.8068
L434.58 121.37
L435.031 122.735
L447.042 59.1242
L447.838 58.9607
L454.413 74.406
L454.44 74.3564
L455.66 68.1825
L456.429 62.7632
L457.542 57.8821
L459.822 56.5715
L468.148 57.6714
L469.341 58.5349
L471.595 62.5446
L473.133 64.4985
L473.743 65.6134
L475.254 69.2658
L475.625 69.767
L478.462 63.2066
L481.511 63.6359
L483.102 63.6046
L484.057 63.1452
L486.125 60.1535
L488.75 58.1082
L491.454 57.3397
L491.879 57.3434
L493.443 58.4194
L493.973 59.8792
L499.17 81.2439
L499.197 80.7892
L501.026 61.2282
L502.299 58.5474
L503.837 58.317
L504.5 59.315
L506.196 72.2724
L506.594 78.3429
L507.284 86.9176
L508.927 80.8936
L509.908 73.272
L510.306 71.2959
L510.89 69.903
L513.143 71.9743
L513.329 71.5715
L514.283 66.4371
L520.276 57.5629
L522.476 57.1794
L524.332 57.0918
L528.204 57.5802
L529.556 58.2934
L532.844 63.794
L535.416 72.6943
L543.025 80.4386
L543.052 80.3997
L545.677 75.8697
L546.631 74.4769
L550.317 75.7182
L552.597 82.9812
L552.915 83.4897
L553.976 82.5524
L554.745 78.856
L555.858 70.2325
L558.404 61.4587
L558.43 61.453
L566.04 76.9674
L570.998 98.6642
L572.483 108.452
L574.047 121.221
L574.816 123.892
L578.767 74.8575
L579.324 72.6894
L580.782 67.5169
L581.392 65.9479
L582.665 64.014
L584.998 63.6473
L585.687 64.2747
L588.074 70.2861
L589.611 76.199
L597.857 57.6345
L603.319 56.8231
L607.668 57.657
L608.781 64.9238
L608.861 66.5696
L609.153 74.9891
L611.91 163.812
L611.937 163.104
L612.944 117.088
L615.569 60.8359
L615.781 60.168
L618.671 62.4666
L619.149 65.0655
L619.838 69.6584
L623.099 76.2353
L623.126 76.1941
L624.133 73.9097
L625.645 67.2317
L628.349 76.3105
L628.641 83.3261
L631.796 292.17
L632.592 300.072
L636.542 162.11
L637.815 80.7112
L640.493 56.9801
L640.944 56.8903
L652.318 203.949
L653.697 280.382
L655.076 308.325
L663.349 75.3051
L663.932 69.1212
L667.405 61.2683
L670.826 69.901
L672.443 77.4143
L679.151 68.1135
L679.31 67.5255
L683.022 59.4166
L687.053 57.6892
L690.818 59.6735
L697.393 137.608
L699.488 184.23
L701.636 218.768
L702.431 225.089
L703.359 227.135
L703.386 227.103
L704.393 221.645
L704.605 219.351
L708.874 113.858
L715.158 93.1914
L715.185 93.348
L716.935 105.854
L721.097 152.045
L722.105 164.494
L724.73 193.521
L728.389 315.227
L733.055 321.956
L736.582 322.212
L738.517 320.427
L738.862 319.32
L739.499 316.436
L742.15 319.943
L743.873 321.746
L747.638 321.993
L748.407 321.89
L749.07 321.546
L749.309 321.323
L750.025 320.103
L750.051 320.037
L750.847 317.161
L751.722 313
L752.411 312.602
L753.816 318.572
L754.771 320.813
L755.116 321.181
L755.938 321.564
L757.422 321.751
L765.085 321.981
L767.551 321.956
L770.415 321.738
L773.039 322.117
L774.074 321.915
L774.71 321.216
L775.426 318.878
L777.6 288.304
L777.6 288.304" style="fill:none;opacity:0.5;stroke:#0000ff;stroke-linecap:square;"/>
   </g>
   <g id="line2d_8">
    <path clip-path="url(#p9fd4257182)" d="
M110.678 61.1299
L111.049 58.823
L111.076 58.7187
L111.526 57.6221
L112.136 57.1736
L112.375 57.1548
L114.523 61.8891
L117.784 140.86
L123.591 120.233
L123.617 120.269
L132.261 132.838
L132.287 132.768
L135.443 121.149
L138.306 167.981
L140.533 194.93
L141.647 214.127
L142.549 226.583
L143.901 230.248
L143.927 230.013
L145.041 202.477
L147.189 70.3812
L150.689 56.4988
L152.279 56.5005
L156.946 57.4052
L158.935 59.4864
L163.203 93.8597
L164.344 115.999
L166.147 146.21
L169.249 176.115
L171.158 183.233
L175.718 234.393
L177.548 296.641
L179.51 320.12
L181.101 322.243
L182.161 322.399
L189.055 322.432
L193.298 317.151
L197.169 72.6875
L197.487 69.3102
L197.911 67.274
L198.892 71.2584
L200.96 224.07
L204.381 288.736
L204.407 287.94
L206.051 175.431
L206.422 142.674
L206.979 110.084
L207.854 91.1095
L212.255 196.15
L212.918 214.151
L213.661 200.398
L213.767 194.486
L215.013 114.375
L215.649 92.5618
L215.967 85.4079
L217.824 67.8866
L218.168 66.6202
L220.846 61.0676
L221.668 60.6831
L222.145 60.9103
L222.358 61.1389
L223.445 63.6976
L223.471 63.7933
L225.009 72.1699
L225.301 74.0532
L229.463 71.004
L229.49 71.0695
L230.047 72.7472
L231.452 79.2479
L235.668 101.614
L244.046 87.5406
L244.259 86.4803
L248.077 78.5221
L248.103 78.5768
L249.402 85.6516
L249.774 89.5038
L252.027 137.513
L254.626 216.972
L259.292 213.836
L259.319 213.032
L259.955 184.58
L260.379 158.693
L264.887 66.7407
L264.913 66.7836
L266.531 67.3082
L267.963 64.4637
L269.05 64.3309
L270.959 71.3888
L271.463 75.6908
L272.868 94.5981
L281.246 63.2325
L282.837 59.5455
L283.951 58.8232
L288.485 62.728
L289.095 63.4843
L292.939 68.5673
L294.504 69.1483
L301.875 66.1472
L301.901 66.2654
L303.095 75.4764
L303.996 89.9833
L304.288 96.5058
L310.333 74.5959
L310.678 66.921
L312.03 57.3199
L312.428 56.8684
L321.284 56.5675
L325.579 58.5792
L327.037 64.3014
L328.23 76.2711
L329.583 95.5576
L330.749 102.752
L332.738 95.5879
L342.919 69.0047
L343.847 69.442
L349.389 105.579
L351.59 156.861
L352.279 169.332
L352.73 173.913
L355.62 121.144
L356.071 110.495
L356.866 97.0899
L358.059 83.976
L359.73 73.2044
L360.313 71.4945
L360.764 70.8361
L361.029 70.7552
L361.559 71.2147
L361.877 71.8432
L362.434 73.5132
L363.548 78.6174
L363.972 80.8981
L365.589 76.1314
L366.252 65.7535
L370.468 56.66
L371.582 58.8691
L380.252 59.0301
L380.279 59.3686
L380.517 64.3473
L381.1 93.7347
L382.161 110.847
L382.188 109.758
L383.328 62.5088
L383.513 60.3277
L383.991 58.0433
L384.998 57.1606
L386.191 57.5128
L386.616 58.0201
L387.225 59.4753
L387.384 59.8994
L393.668 61.3068
L394.649 62.6149
L399.369 73.7447
L400.111 73.3519
L401.437 72.1182
L402.869 73.6722
L403.85 77.9899
L405.096 86.6069
L408.49 201.878
L410.399 89.7457
L410.823 80.527
L411.619 73.7858
L413.316 73.3564
L413.607 73.6279
L414.535 74.8839
L416.1 77.2786
L418.698 75.0515
L422.888 59.6221
L424.054 58.5957
L427.368 57.6711
L428.853 57.6164
L430.471 57.708
L435.031 58.8617
L443.94 93.7896
L447.042 129.247
L447.838 134.795
L452.743 73.9035
L454.44 59.0777
L455.66 57.0737
L456.429 56.7365
L457.516 56.5826
L466.875 57.5199
L466.902 57.6355
L467.353 61.576
L468.148 76.7697
L469.315 84.3276
L469.341 84.2145
L471.595 65.4907
L472.258 62.4956
L472.311 62.3407
L473.133 61.2482
L473.743 62.3591
L475.254 106.266
L475.625 139.209
L478.436 159.335
L478.462 157.511
L481.379 70.6784
L481.538 70.0207
L483.102 64.3058
L484.057 62.245
L486.125 60.5988
L488.723 60.1373
L491.454 66.2114
L491.879 65.6821
L493.443 60.5153
L493.973 59.7563
L499.197 68.3687
L501 84.1133
L501.026 84.0073
L502.299 69.8654
L503.837 58.2358
L504.5 57.5028
L507.257 57.8318
L510.89 57.3571
L514.283 57.5425
L520.276 59.8121
L521.628 62.943
L522.476 64.0853
L523.961 64.3005
L524.332 64.2129
L528.204 69.8382
L529.556 73.6954
L532.87 67.7138
L533.984 68.6779
L534.063 68.9844
L535.442 83.9523
L543.052 159.621
L545.677 60.4375
L546.631 57.5799
L550.317 56.624
L552.915 56.8154
L555.858 57.3043
L558.43 56.7515
L566.04 56.5291
L570.786 64.0959
L570.998 66.0849
L572.483 90.0079
L574.047 117.541
L574.816 124.549
L578.767 78.5136
L579.324 79.07
L580.782 86.8197
L582.665 103.326
L584.971 110.561
L584.998 110.339
L585.687 101.068
L588.074 61.675
L588.418 59.684
L589.611 56.929
L597.857 56.5129
L603.319 56.5421
L607.668 56.9654
L608.781 59.5265
L609.126 62.4442
L609.153 62.7387
L611.937 128.393
L612.918 127.267
L612.944 126.813
L615.569 67.6598
L615.781 66.0259
L618.698 59.5386
L619.865 58.489
L623.126 57.2575
L624.133 57.212
L625.645 56.8072
L628.376 58.5437
L628.641 60.4552
L631.796 309.012
L632.565 311.468
L632.592 311.435
L636.542 164.694
L637.815 79.0995
L640.493 56.8741
L640.944 56.7967
L652.318 278.205
L653.697 314.945
L655.076 320.056
L663.349 57.7922
L663.932 57.7648
L667.405 60.7813
L671.568 89.7911
L672.443 92.2123
L679.151 58.167
L679.31 58.0305
L683.022 57.0772
L687.053 60.2906
L690.818 98.0853
L697.367 114.189
L697.393 114.106
L699.488 114.72
L702.431 134.188
L703.386 138.524
L704.393 138.143
L704.605 137.203
L708.874 82.9012
L715.158 73.9427
L715.185 74.0025
L716.935 79.3025
L721.097 108.341
L722.105 120.06
L724.73 160.727
L728.389 304.998
L733.055 320.112
L733.48 320.564
L735.919 321.953
L736.582 322.068
L739.499 322.179
L742.15 321.966
L743.873 321.606
L747.029 321.409
L747.638 320.989
L748.01 320.408
L748.832 318.782
L749.309 318.286
L749.892 318.326
L750.051 318.442
L751.138 319.756
L751.722 320.436
L752.411 320.982
L753.816 321.519
L755.938 321.833
L759.358 322.083
L762.222 321.983
L765.085 322.011
L770.415 321.968
L771.952 320.413
L772.456 318.731
L773.039 315.01
L774.074 301.442
L774.71 290.685
L775.426 281.377
L777.6 284.8
L777.6 284.8" style="fill:none;opacity:0.5;stroke:#0000ff;stroke-linecap:square;"/>
   </g>
   <g id="patch_6">
    <path d="
M108 43.2
L777.6 43.2" style="fill:none;stroke:#000000;stroke-linecap:square;stroke-linejoin:miter;"/>
   </g>
   <g id="patch_7">
    <path d="
M777.6 322.473
L777.6 43.2" style="fill:none;stroke:#000000;stroke-linecap:square;stroke-linejoin:miter;"/>
   </g>
   <g id="patch_8">
    <path d="
M108 322.473
L777.6 322.473" style="fill:none;stroke:#000000;stroke-linecap:square;stroke-linejoin:miter;"/>
   </g>
   <g id="patch_9">
    <path d="
M108 322.473
L108 43.2" style="fill:none;stroke:#000000;stroke-linecap:square;stroke-linejoin:miter;"/>
   </g>
   <g id="matplotlib.axis_1">
    <g id="ytick_1">
     <g id="line2d_9">
      <defs>
       <path d="
M0 0
L4 0" id="m728421d6d4" style="stroke:#000000;stroke-width:0.5;"/>
      </defs>
      <g>
       <use style="stroke:#000000;stroke-width:0.5;" x="108.0" xlink:href="#m728421d6d4" y="322.472727273"/>
      </g>
     </g>
     <g id="line2d_10">
      <defs>
       <path d="
M0 0
L-4 0" id="mcb0005524f" style="stroke:#000000;stroke-width:0.5;"/>
      </defs>
      <g>
       <use style="stroke:#000000;stroke-width:0.5;" x="777.6" xlink:href="#mcb0005524f" y="322.472727273"/>
      </g>
     </g>
     <g id="text_1">
      <!-- 0 -->
      <defs>
       <path d="
M31.7812 66.4062
Q24.1719 66.4062 20.3281 58.9062
Q16.5 51.4219 16.5 36.375
Q16.5 21.3906 20.3281 13.8906
Q24.1719 6.39062 31.7812 6.39062
Q39.4531 6.39062 43.2812 13.8906
Q47.125 21.3906 47.125 36.375
Q47.125 51.4219 43.2812 58.9062
Q39.4531 66.4062 31.7812 66.4062
M31.7812 74.2188
Q44.0469 74.2188 50.5156 64.5156
Q56.9844 54.8281 56.9844 36.375
Q56.9844 17.9688 50.5156 8.26562
Q44.0469 -1.42188 31.7812 -1.42188
Q19.5312 -1.42188 13.0625 8.26562
Q6.59375 17.9688 6.59375 36.375
Q6.59375 54.8281 13.0625 64.5156
Q19.5312 74.2188 31.7812 74.2188" id="DejaVuSans-30"/>
      </defs>
      <g transform="translate(97.953125 325.783977273)scale(0.12 -0.12)">
       <use xlink:href="#DejaVuSans-30"/>
      </g>
     </g>
    </g>
    <g id="ytick_2">
     <g id="line2d_11">
      <g>
       <use style="stroke:#000000;stroke-width:0.5;" x="108.0" xlink:href="#m728421d6d4" y="269.277922078"/>
      </g>
     </g>
     <g id="line2d_12">
      <g>
       <use style="stroke:#000000;stroke-width:0.5;" x="777.6" xlink:href="#mcb0005524f" y="269.277922078"/>
      </g>
     </g>
     <g id="text_2">
      <!-- 20 -->
      <defs>
       <path d="
M19.1875 8.29688
L53.6094 8.29688
L53.6094 0
L7.32812 0
L7.32812 8.29688
Q12.9375 14.1094 22.625 23.8906
Q32.3281 33.6875 34.8125 36.5312
Q39.5469 41.8438 41.4219 45.5312
Q43.3125 49.2188 43.3125 52.7812
Q43.3125 58.5938 39.2344 62.25
Q35.1562 65.9219 28.6094 65.9219
Q23.9688 65.9219 18.8125 64.3125
Q13.6719 62.7031 7.8125 59.4219
L7.8125 69.3906
Q13.7656 71.7812 18.9375 73
Q24.125 74.2188 28.4219 74.2188
Q39.75 74.2188 46.4844 68.5469
Q53.2188 62.8906 53.2188 53.4219
Q53.2188 48.9219 51.5312 44.8906
Q49.8594 40.875 45.4062 35.4062
Q44.1875 33.9844 37.6406 27.2188
Q31.1094 20.4531 19.1875 8.29688" id="DejaVuSans-32"/>
      </defs>
      <g transform="translate(90.40625 272.589172078)scale(0.12 -0.12)">
       <use xlink:href="#DejaVuSans-32"/>
       <use x="63.623046875" xlink:href="#DejaVuSans-30"/>
      </g>
     </g>
    </g>
    <g id="ytick_3">
     <g id="line2d_13">
      <g>
       <use style="stroke:#000000;stroke-width:0.5;" x="108.0" xlink:href="#m728421d6d4" y="216.083116883"/>
      </g>
     </g>
     <g id="line2d_14">
      <g>
       <use style="stroke:#000000;stroke-width:0.5;" x="777.6" xlink:href="#mcb0005524f" y="216.083116883"/>
      </g>
     </g>
     <g id="text_3">
      <!-- 40 -->
      <defs>
       <path d="
M37.7969 64.3125
L12.8906 25.3906
L37.7969 25.3906
z

M35.2031 72.9062
L47.6094 72.9062
L47.6094 25.3906
L58.0156 25.3906
L58.0156 17.1875
L47.6094 17.1875
L47.6094 0
L37.7969 0
L37.7969 17.1875
L4.89062 17.1875
L4.89062 26.7031
z
" id="DejaVuSans-34"/>
      </defs>
      <g transform="translate(90.11375 219.394366883)scale(0.12 -0.12)">
       <use xlink:href="#DejaVuSans-34"/>
       <use x="63.623046875" xlink:href="#DejaVuSans-30"/>
      </g>
     </g>
    </g>
    <g id="ytick_4">
     <g id="line2d_15">
      <g>
       <use style="stroke:#000000;stroke-width:0.5;" x="108.0" xlink:href="#m728421d6d4" y="162.888311688"/>
      </g>
     </g>
     <g id="line2d_16">
      <g>
       <use style="stroke:#000000;stroke-width:0.5;" x="777.6" xlink:href="#mcb0005524f" y="162.888311688"/>
      </g>
     </g>
     <g id="text_4">
      <!-- 60 -->
      <defs>
       <path d="
M33.0156 40.375
Q26.375 40.375 22.4844 35.8281
Q18.6094 31.2969 18.6094 23.3906
Q18.6094 15.5312 22.4844 10.9531
Q26.375 6.39062 33.0156 6.39062
Q39.6562 6.39062 43.5312 10.9531
Q47.4062 15.5312 47.4062 23.3906
Q47.4062 31.2969 43.5312 35.8281
Q39.6562 40.375 33.0156 40.375
M52.5938 71.2969
L52.5938 62.3125
Q48.875 64.0625 45.0938 64.9844
Q41.3125 65.9219 37.5938 65.9219
Q27.8281 65.9219 22.6719 59.3281
Q17.5312 52.7344 16.7969 39.4062
Q19.6719 43.6562 24.0156 45.9219
Q28.375 48.1875 33.5938 48.1875
Q44.5781 48.1875 50.9531 41.5156
Q57.3281 34.8594 57.3281 23.3906
Q57.3281 12.1562 50.6875 5.35938
Q44.0469 -1.42188 33.0156 -1.42188
Q20.3594 -1.42188 13.6719 8.26562
Q6.98438 17.9688 6.98438 36.375
Q6.98438 53.6562 15.1875 63.9375
Q23.3906 74.2188 37.2031 74.2188
Q40.9219 74.2188 44.7031 73.4844
Q48.4844 72.75 52.5938 71.2969" id="DejaVuSans-36"/>
      </defs>
      <g transform="translate(90.365 166.199561688)scale(0.12 -0.12)">
       <use xlink:href="#DejaVuSans-36"/>
       <use x="63.623046875" xlink:href="#DejaVuSans-30"/>
      </g>
     </g>
    </g>
    <g id="ytick_5">
     <g id="line2d_17">
      <g>
       <use style="stroke:#000000;stroke-width:0.5;" x="108.0" xlink:href="#m728421d6d4" y="109.693506494"/>
      </g>
     </g>
     <g id="line2d_18">
      <g>
       <use style="stroke:#000000;stroke-width:0.5;" x="777.6" xlink:href="#mcb0005524f" y="109.693506494"/>
      </g>
     </g>
     <g id="text_5">
      <!-- 80 -->
      <defs>
       <path d="
M31.7812 34.625
Q24.75 34.625 20.7188 30.8594
Q16.7031 27.0938 16.7031 20.5156
Q16.7031 13.9219 20.7188 10.1562
Q24.75 6.39062 31.7812 6.39062
Q38.8125 6.39062 42.8594 10.1719
Q46.9219 13.9688 46.9219 20.5156
Q46.9219 27.0938 42.8906 30.8594
Q38.875 34.625 31.7812 34.625
M21.9219 38.8125
Q15.5781 40.375 12.0312 44.7188
Q8.5 49.0781 8.5 55.3281
Q8.5 64.0625 14.7188 69.1406
Q20.9531 74.2188 31.7812 74.2188
Q42.6719 74.2188 48.875 69.1406
Q55.0781 64.0625 55.0781 55.3281
Q55.0781 49.0781 51.5312 44.7188
Q48 40.375 41.7031 38.8125
Q48.8281 37.1562 52.7969 32.3125
Q56.7812 27.4844 56.7812 20.5156
Q56.7812 9.90625 50.3125 4.23438
Q43.8438 -1.42188 31.7812 -1.42188
Q19.7344 -1.42188 13.25 4.23438
Q6.78125 9.90625 6.78125 20.5156
Q6.78125 27.4844 10.7812 32.3125
Q14.7969 37.1562 21.9219 38.8125
M18.3125 54.3906
Q18.3125 48.7344 21.8438 45.5625
Q25.3906 42.3906 31.7812 42.3906
Q38.1406 42.3906 41.7188 45.5625
Q45.3125 48.7344 45.3125 54.3906
Q45.3125 60.0625 41.7188 63.2344
Q38.1406 66.4062 31.7812 66.4062
Q25.3906 66.4062 21.8438 63.2344
Q18.3125 60.0625 18.3125 54.3906" id="DejaVuSans-38"/>
      </defs>
      <g transform="translate(90.340625 113.004756494)scale(0.12 -0.12)">
       <use xlink:href="#DejaVuSans-38"/>
       <use x="63.623046875" xlink:href="#DejaVuSans-30"/>
      </g>
     </g>
    </g>
    <g id="ytick_6">
     <g id="line2d_19">
      <g>
       <use style="stroke:#000000;stroke-width:0.5;" x="108.0" xlink:href="#m728421d6d4" y="56.4987012987"/>
      </g>
     </g>
     <g id="line2d_20">
      <g>
       <use style="stroke:#000000;stroke-width:0.5;" x="777.6" xlink:href="#mcb0005524f" y="56.4987012987"/>
      </g>
     </g>
     <g id="text_6">
      <!-- 100 -->
      <defs>
       <path d="
M12.4062 8.29688
L28.5156 8.29688
L28.5156 63.9219
L10.9844 60.4062
L10.9844 69.3906
L28.4219 72.9062
L38.2812 72.9062
L38.2812 8.29688
L54.3906 8.29688
L54.3906 0
L12.4062 0
z
" id="DejaVuSans-31"/>
      </defs>
      <g transform="translate(83.21 59.8099512987)scale(0.12 -0.12)">
       <use xlink:href="#DejaVuSans-31"/>
       <use x="63.623046875" xlink:href="#DejaVuSans-30"/>
       <use x="127.24609375" xlink:href="#DejaVuSans-30"/>
      </g>
     </g>
    </g>
    <g id="text_7">
     <!-- Methylation -->
     <defs>
      <path d="
M9.8125 72.9062
L24.5156 72.9062
L43.1094 23.2969
L61.8125 72.9062
L76.5156 72.9062
L76.5156 0
L66.8906 0
L66.8906 64.0156
L48.0938 14.0156
L38.1875 14.0156
L19.3906 64.0156
L19.3906 0
L9.8125 0
z
" id="DejaVuSans-4d"/>
      <path d="
M30.6094 48.3906
Q23.3906 48.3906 19.1875 42.75
Q14.9844 37.1094 14.9844 27.2969
Q14.9844 17.4844 19.1562 11.8438
Q23.3438 6.20312 30.6094 6.20312
Q37.7969 6.20312 41.9844 11.8594
Q46.1875 17.5312 46.1875 27.2969
Q46.1875 37.0156 41.9844 42.7031
Q37.7969 48.3906 30.6094 48.3906
M30.6094 56
Q42.3281 56 49.0156 48.375
Q55.7188 40.7656 55.7188 27.2969
Q55.7188 13.875 49.0156 6.21875
Q42.3281 -1.42188 30.6094 -1.42188
Q18.8438 -1.42188 12.1719 6.21875
Q5.51562 13.875 5.51562 27.2969
Q5.51562 40.7656 12.1719 48.375
Q18.8438 56 30.6094 56" id="DejaVuSans-6f"/>
      <path d="
M54.8906 33.0156
L54.8906 0
L45.9062 0
L45.9062 32.7188
Q45.9062 40.4844 42.875 44.3281
Q39.8438 48.1875 33.7969 48.1875
Q26.5156 48.1875 22.3125 43.5469
Q18.1094 38.9219 18.1094 30.9062
L18.1094 0
L9.07812 0
L9.07812 54.6875
L18.1094 54.6875
L18.1094 46.1875
Q21.3438 51.125 25.7031 53.5625
Q30.0781 56 35.7969 56
Q45.2188 56 50.0469 50.1719
Q54.8906 44.3438 54.8906 33.0156" id="DejaVuSans-6e"/>
      <path d="
M9.42188 75.9844
L18.4062 75.9844
L18.4062 0
L9.42188 0
z
" id="DejaVuSans-6c"/>
      <path d="
M32.1719 -5.07812
Q28.375 -14.8438 24.75 -17.8125
Q21.1406 -20.7969 15.0938 -20.7969
L7.90625 -20.7969
L7.90625 -13.2812
L13.1875 -13.2812
Q16.8906 -13.2812 18.9375 -11.5156
Q21 -9.76562 23.4844 -3.21875
L25.0938 0.875
L2.98438 54.6875
L12.5 54.6875
L29.5938 11.9219
L46.6875 54.6875
L56.2031 54.6875
z
" id="DejaVuSans-79"/>
      <path d="
M54.8906 33.0156
L54.8906 0
L45.9062 0
L45.9062 32.7188
Q45.9062 40.4844 42.875 44.3281
Q39.8438 48.1875 33.7969 48.1875
Q26.5156 48.1875 22.3125 43.5469
Q18.1094 38.9219 18.1094 30.9062
L18.1094 0
L9.07812 0
L9.07812 75.9844
L18.1094 75.9844
L18.1094 46.1875
Q21.3438 51.125 25.7031 53.5625
Q30.0781 56 35.7969 56
Q45.2188 56 50.0469 50.1719
Q54.8906 44.3438 54.8906 33.0156" id="DejaVuSans-68"/>
      <path d="
M9.42188 54.6875
L18.4062 54.6875
L18.4062 0
L9.42188 0
z

M9.42188 75.9844
L18.4062 75.9844
L18.4062 64.5938
L9.42188 64.5938
z
" id="DejaVuSans-69"/>
      <path d="
M18.3125 70.2188
L18.3125 54.6875
L36.8125 54.6875
L36.8125 47.7031
L18.3125 47.7031
L18.3125 18.0156
Q18.3125 11.3281 20.1406 9.42188
Q21.9688 7.51562 27.5938 7.51562
L36.8125 7.51562
L36.8125 0
L27.5938 0
Q17.1875 0 13.2344 3.875
Q9.28125 7.76562 9.28125 18.0156
L9.28125 47.7031
L2.6875 47.7031
L2.6875 54.6875
L9.28125 54.6875
L9.28125 70.2188
z
" id="DejaVuSans-74"/>
      <path d="
M56.2031 29.5938
L56.2031 25.2031
L14.8906 25.2031
Q15.4844 15.9219 20.4844 11.0625
Q25.4844 6.20312 34.4219 6.20312
Q39.5938 6.20312 44.4531 7.46875
Q49.3125 8.73438 54.1094 11.2812
L54.1094 2.78125
Q49.2656 0.734375 44.1875 -0.34375
Q39.1094 -1.42188 33.8906 -1.42188
Q20.7969 -1.42188 13.1562 6.1875
Q5.51562 13.8125 5.51562 26.8125
Q5.51562 40.2344 12.7656 48.1094
Q20.0156 56 32.3281 56
Q43.3594 56 49.7812 48.8906
Q56.2031 41.7969 56.2031 29.5938
M47.2188 32.2344
Q47.125 39.5938 43.0938 43.9844
Q39.0625 48.3906 32.4219 48.3906
Q24.9062 48.3906 20.3906 44.1406
Q15.875 39.8906 15.1875 32.1719
z
" id="DejaVuSans-65"/>
      <path d="
M34.2812 27.4844
Q23.3906 27.4844 19.1875 25
Q14.9844 22.5156 14.9844 16.5
Q14.9844 11.7188 18.1406 8.90625
Q21.2969 6.10938 26.7031 6.10938
Q34.1875 6.10938 38.7031 11.4062
Q43.2188 16.7031 43.2188 25.4844
L43.2188 27.4844
z

M52.2031 31.2031
L52.2031 0
L43.2188 0
L43.2188 8.29688
Q40.1406 3.32812 35.5469 0.953125
Q30.9531 -1.42188 24.3125 -1.42188
Q15.9219 -1.42188 10.9531 3.29688
Q6 8.01562 6 15.9219
Q6 25.1406 12.1719 29.8281
Q18.3594 34.5156 30.6094 34.5156
L43.2188 34.5156
L43.2188 35.4062
Q43.2188 41.6094 39.1406 45
Q35.0625 48.3906 27.6875 48.3906
Q23 48.3906 18.5469 47.2656
Q14.1094 46.1406 10.0156 43.8906
L10.0156 52.2031
Q14.9375 54.1094 19.5781 55.0469
Q24.2188 56 28.6094 56
Q40.4844 56 46.3438 49.8438
Q52.2031 43.7031 52.2031 31.2031" id="DejaVuSans-61"/>
     </defs>
     <g transform="translate(75.714375 217.149801136)rotate(-90.0)scale(0.12 -0.12)">
      <use xlink:href="#DejaVuSans-4d"/>
      <use x="86.279296875" xlink:href="#DejaVuSans-65"/>
      <use x="147.802734375" xlink:href="#DejaVuSans-74"/>
      <use x="187.01171875" xlink:href="#DejaVuSans-68"/>
      <use x="250.390625" xlink:href="#DejaVuSans-79"/>
      <use x="309.5703125" xlink:href="#DejaVuSans-6c"/>
      <use x="337.353515625" xlink:href="#DejaVuSans-61"/>
      <use x="398.6328125" xlink:href="#DejaVuSans-74"/>
      <use x="437.841796875" xlink:href="#DejaVuSans-69"/>
      <use x="465.625" xlink:href="#DejaVuSans-6f"/>
      <use x="526.806640625" xlink:href="#DejaVuSans-6e"/>
     </g>
    </g>
   </g>
  </g>
  <g id="axes_2">
   <g id="patch_10">
    <path d="
M108 388.8
L777.6 388.8
L777.6 353.891
L108 353.891
z
" style="fill:#ffffff;"/>
   </g>
   <g id="line2d_21">
    <path clip-path="url(#pc82b1f09f0)" d="
M108 371.345
L777.6 371.345" style="fill:none;stroke:#000000;stroke-linecap:square;"/>
   </g>
   <g id="line2d_22">
    <path clip-path="url(#pc82b1f09f0)" d="
M134.515 371.345
L751.085 371.345" style="fill:none;stroke:#008000;stroke-linecap:square;stroke-width:3;"/>
   </g>
   <g id="patch_11">
    <path clip-path="url(#pc82b1f09f0)" d="
M746.445 388.8
L751.085 388.8
L751.085 353.891
L746.445 353.891
z
" style="fill:#008000;"/>
   </g>
   <g id="patch_12">
    <path clip-path="url(#pc82b1f09f0)" d="
M506.462 388.8
L512.746 388.8
L512.746 353.891
L506.462 353.891
z
" style="fill:#008000;"/>
   </g>
   <g id="patch_13">
    <path clip-path="url(#pc82b1f09f0)" d="
M134.515 388.8
L227.13 388.8
L227.13 353.891
L134.515 353.891
z
" style="fill:#008000;"/>
   </g>
   <g id="patch_14">
    <path d="
M108 353.891
L777.6 353.891" style="fill:none;"/>
   </g>
   <g id="patch_15">
    <path d="
M777.6 388.8
L777.6 353.891" style="fill:none;"/>
   </g>
   <g id="patch_16">
    <path d="
M108 388.8
L777.6 388.8" style="fill:none;"/>
   </g>
   <g id="patch_17">
    <path d="
M108 388.8
L108 353.891" style="fill:none;"/>
   </g>
   <g id="matplotlib.axis_2">
    <g id="xtick_1">
     <g id="line2d_23">
      <defs>
       <path d="
M0 0
L0 -4" id="m93b0483c22" style="stroke:#000000;stroke-width:0.5;"/>
      </defs>
      <g>
       <use style="stroke:#000000;stroke-width:0.5;" x="201.888239487" xlink:href="#m93b0483c22" y="388.8"/>
      </g>
     </g>
     <g id="line2d_24">
      <defs>
       <path d="
M0 0
L0 4" id="m741efc42ff" style="stroke:#000000;stroke-width:0.5;"/>
      </defs>
      <g>
       <use style="stroke:#000000;stroke-width:0.5;" x="201.888239487" xlink:href="#m741efc42ff" y="353.890909091"/>
      </g>
     </g>
     <g id="text_8">
      <!-- 1000 -->
      <g transform="translate(187.675739487 401.918125)scale(0.12 -0.12)">
       <use xlink:href="#DejaVuSans-31"/>
       <use x="63.623046875" xlink:href="#DejaVuSans-30"/>
       <use x="127.24609375" xlink:href="#DejaVuSans-30"/>
       <use x="190.869140625" xlink:href="#DejaVuSans-30"/>
      </g>
     </g>
    </g>
    <g id="xtick_2">
     <g id="line2d_25">
      <g>
       <use style="stroke:#000000;stroke-width:0.5;" x="334.46129722" xlink:href="#m93b0483c22" y="388.8"/>
      </g>
     </g>
     <g id="line2d_26">
      <g>
       <use style="stroke:#000000;stroke-width:0.5;" x="334.46129722" xlink:href="#m741efc42ff" y="353.890909091"/>
      </g>
     </g>
     <g id="text_9">
      <!-- 2000 -->
      <g transform="translate(320.02942222 401.918125)scale(0.12 -0.12)">
       <use xlink:href="#DejaVuSans-32"/>
       <use x="63.623046875" xlink:href="#DejaVuSans-30"/>
       <use x="127.24609375" xlink:href="#DejaVuSans-30"/>
       <use x="190.869140625" xlink:href="#DejaVuSans-30"/>
      </g>
     </g>
    </g>
    <g id="xtick_3">
     <g id="line2d_27">
      <g>
       <use style="stroke:#000000;stroke-width:0.5;" x="467.034354954" xlink:href="#m93b0483c22" y="388.8"/>
      </g>
     </g>
     <g id="line2d_28">
      <g>
       <use style="stroke:#000000;stroke-width:0.5;" x="467.034354954" xlink:href="#m741efc42ff" y="353.890909091"/>
      </g>
     </g>
     <g id="text_10">
      <!-- 3000 -->
      <defs>
       <path d="
M40.5781 39.3125
Q47.6562 37.7969 51.625 33
Q55.6094 28.2188 55.6094 21.1875
Q55.6094 10.4062 48.1875 4.48438
Q40.7656 -1.42188 27.0938 -1.42188
Q22.5156 -1.42188 17.6562 -0.515625
Q12.7969 0.390625 7.625 2.20312
L7.625 11.7188
Q11.7188 9.32812 16.5938 8.10938
Q21.4844 6.89062 26.8125 6.89062
Q36.0781 6.89062 40.9375 10.5469
Q45.7969 14.2031 45.7969 21.1875
Q45.7969 27.6406 41.2812 31.2656
Q36.7656 34.9062 28.7188 34.9062
L20.2188 34.9062
L20.2188 43.0156
L29.1094 43.0156
Q36.375 43.0156 40.2344 45.9219
Q44.0938 48.8281 44.0938 54.2969
Q44.0938 59.9062 40.1094 62.9062
Q36.1406 65.9219 28.7188 65.9219
Q24.6562 65.9219 20.0156 65.0312
Q15.375 64.1562 9.8125 62.3125
L9.8125 71.0938
Q15.4375 72.6562 20.3438 73.4375
Q25.25 74.2188 29.5938 74.2188
Q40.8281 74.2188 47.3594 69.1094
Q53.9062 64.0156 53.9062 55.3281
Q53.9062 49.2656 50.4375 45.0938
Q46.9688 40.9219 40.5781 39.3125" id="DejaVuSans-33"/>
      </defs>
      <g transform="translate(452.620292454 401.918125)scale(0.12 -0.12)">
       <use xlink:href="#DejaVuSans-33"/>
       <use x="63.623046875" xlink:href="#DejaVuSans-30"/>
       <use x="127.24609375" xlink:href="#DejaVuSans-30"/>
       <use x="190.869140625" xlink:href="#DejaVuSans-30"/>
      </g>
     </g>
    </g>
    <g id="xtick_4">
     <g id="line2d_29">
      <g>
       <use style="stroke:#000000;stroke-width:0.5;" x="599.607412687" xlink:href="#m93b0483c22" y="388.8"/>
      </g>
     </g>
     <g id="line2d_30">
      <g>
       <use style="stroke:#000000;stroke-width:0.5;" x="599.607412687" xlink:href="#m741efc42ff" y="353.890909091"/>
      </g>
     </g>
     <g id="text_11">
      <!-- 4000 -->
      <g transform="translate(585.029287687 401.918125)scale(0.12 -0.12)">
       <use xlink:href="#DejaVuSans-34"/>
       <use x="63.623046875" xlink:href="#DejaVuSans-30"/>
       <use x="127.24609375" xlink:href="#DejaVuSans-30"/>
       <use x="190.869140625" xlink:href="#DejaVuSans-30"/>
      </g>
     </g>
    </g>
    <g id="xtick_5">
     <g id="line2d_31">
      <g>
       <use style="stroke:#000000;stroke-width:0.5;" x="732.180470421" xlink:href="#m93b0483c22" y="388.8"/>
      </g>
     </g>
     <g id="line2d_32">
      <g>
       <use style="stroke:#000000;stroke-width:0.5;" x="732.180470421" xlink:href="#m741efc42ff" y="353.890909091"/>
      </g>
     </g>
     <g id="text_12">
      <!-- 5000 -->
      <defs>
       <path d="
M10.7969 72.9062
L49.5156 72.9062
L49.5156 64.5938
L19.8281 64.5938
L19.8281 46.7344
Q21.9688 47.4688 24.1094 47.8281
Q26.2656 48.1875 28.4219 48.1875
Q40.625 48.1875 47.75 41.5
Q54.8906 34.8125 54.8906 23.3906
Q54.8906 11.625 47.5625 5.09375
Q40.2344 -1.42188 26.9062 -1.42188
Q22.3125 -1.42188 17.5469 -0.640625
Q12.7969 0.140625 7.71875 1.70312
L7.71875 11.625
Q12.1094 9.23438 16.7969 8.0625
Q21.4844 6.89062 26.7031 6.89062
Q35.1562 6.89062 40.0781 11.3281
Q45.0156 15.7656 45.0156 23.3906
Q45.0156 31 40.0781 35.4375
Q35.1562 39.8906 26.7031 39.8906
Q22.75 39.8906 18.8125 39.0156
Q14.8906 38.1406 10.7969 36.2812
z
" id="DejaVuSans-35"/>
      </defs>
      <g transform="translate(717.772032921 401.918125)scale(0.12 -0.12)">
       <use xlink:href="#DejaVuSans-35"/>
       <use x="63.623046875" xlink:href="#DejaVuSans-30"/>
       <use x="127.24609375" xlink:href="#DejaVuSans-30"/>
       <use x="190.869140625" xlink:href="#DejaVuSans-30"/>
      </g>
     </g>
    </g>
    <g id="text_13">
     <!-- Length (bp) -->
     <defs>
      <path d="
M9.8125 72.9062
L19.6719 72.9062
L19.6719 8.29688
L55.1719 8.29688
L55.1719 0
L9.8125 0
z
" id="DejaVuSans-4c"/>
      <path id="DejaVuSans-20"/>
      <path d="
M45.4062 27.9844
Q45.4062 37.75 41.375 43.1094
Q37.3594 48.4844 30.0781 48.4844
Q22.8594 48.4844 18.8281 43.1094
Q14.7969 37.75 14.7969 27.9844
Q14.7969 18.2656 18.8281 12.8906
Q22.8594 7.51562 30.0781 7.51562
Q37.3594 7.51562 41.375 12.8906
Q45.4062 18.2656 45.4062 27.9844
M54.3906 6.78125
Q54.3906 -7.17188 48.1875 -13.9844
Q42 -20.7969 29.2031 -20.7969
Q24.4688 -20.7969 20.2656 -20.0938
Q16.0625 -19.3906 12.1094 -17.9219
L12.1094 -9.1875
Q16.0625 -11.3281 19.9219 -12.3438
Q23.7812 -13.375 27.7812 -13.375
Q36.625 -13.375 41.0156 -8.76562
Q45.4062 -4.15625 45.4062 5.17188
L45.4062 9.625
Q42.625 4.78125 38.2812 2.39062
Q33.9375 0 27.875 0
Q17.8281 0 11.6719 7.65625
Q5.51562 15.3281 5.51562 27.9844
Q5.51562 40.6719 11.6719 48.3281
Q17.8281 56 27.875 56
Q33.9375 56 38.2812 53.6094
Q42.625 51.2188 45.4062 46.3906
L45.4062 54.6875
L54.3906 54.6875
z
" id="DejaVuSans-67"/>
      <path d="
M31 75.875
Q24.4688 64.6562 21.2812 53.6562
Q18.1094 42.6719 18.1094 31.3906
Q18.1094 20.125 21.3125 9.0625
Q24.5156 -2 31 -13.1875
L23.1875 -13.1875
Q15.875 -1.70312 12.2344 9.375
Q8.59375 20.4531 8.59375 31.3906
Q8.59375 42.2812 12.2031 53.3125
Q15.8281 64.3594 23.1875 75.875
z
" id="DejaVuSans-28"/>
      <path d="
M8.01562 75.875
L15.8281 75.875
Q23.1406 64.3594 26.7812 53.3125
Q30.4219 42.2812 30.4219 31.3906
Q30.4219 20.4531 26.7812 9.375
Q23.1406 -1.70312 15.8281 -13.1875
L8.01562 -13.1875
Q14.5 -2 17.7031 9.0625
Q20.9062 20.125 20.9062 31.3906
Q20.9062 42.6719 17.7031 53.6562
Q14.5 64.6562 8.01562 75.875" id="DejaVuSans-29"/>
      <path d="
M48.6875 27.2969
Q48.6875 37.2031 44.6094 42.8438
Q40.5312 48.4844 33.4062 48.4844
Q26.2656 48.4844 22.1875 42.8438
Q18.1094 37.2031 18.1094 27.2969
Q18.1094 17.3906 22.1875 11.75
Q26.2656 6.10938 33.4062 6.10938
Q40.5312 6.10938 44.6094 11.75
Q48.6875 17.3906 48.6875 27.2969
M18.1094 46.3906
Q20.9531 51.2656 25.2656 53.625
Q29.5938 56 35.5938 56
Q45.5625 56 51.7812 48.0938
Q58.0156 40.1875 58.0156 27.2969
Q58.0156 14.4062 51.7812 6.48438
Q45.5625 -1.42188 35.5938 -1.42188
Q29.5938 -1.42188 25.2656 0.953125
Q20.9531 3.32812 18.1094 8.20312
L18.1094 0
L9.07812 0
L9.07812 75.9844
L18.1094 75.9844
z
" id="DejaVuSans-62"/>
      <path d="
M18.1094 8.20312
L18.1094 -20.7969
L9.07812 -20.7969
L9.07812 54.6875
L18.1094 54.6875
L18.1094 46.3906
Q20.9531 51.2656 25.2656 53.625
Q29.5938 56 35.5938 56
Q45.5625 56 51.7812 48.0938
Q58.0156 40.1875 58.0156 27.2969
Q58.0156 14.4062 51.7812 6.48438
Q45.5625 -1.42188 35.5938 -1.42188
Q29.5938 -1.42188 25.2656 0.953125
Q20.9531 3.32812 18.1094 8.20312
M48.6875 27.2969
Q48.6875 37.2031 44.6094 42.8438
Q40.5312 48.4844 33.4062 48.4844
Q26.2656 48.4844 22.1875 42.8438
Q18.1094 37.2031 18.1094 27.2969
Q18.1094 17.3906 22.1875 11.75
Q26.2656 6.10938 33.4062 6.10938
Q40.5312 6.10938 44.6094 11.75
Q48.6875 17.3906 48.6875 27.2969" id="DejaVuSans-70"/>
     </defs>
     <g transform="translate(408.4125 418.531875)scale(0.12 -0.12)">
      <use xlink:href="#DejaVuSans-4c"/>
      <use x="53.962890625" xlink:href="#DejaVuSans-65"/>
      <use x="115.486328125" xlink:href="#DejaVuSans-6e"/>
      <use x="178.865234375" xlink:href="#DejaVuSans-67"/>
      <use x="242.341796875" xlink:href="#DejaVuSans-74"/>
      <use x="281.55078125" xlink:href="#DejaVuSans-68"/>
      <use x="344.9296875" xlink:href="#DejaVuSans-20"/>
      <use x="376.716796875" xlink:href="#DejaVuSans-28"/>
      <use x="415.73046875" xlink:href="#DejaVuSans-62"/>
      <use x="479.20703125" xlink:href="#DejaVuSans-70"/>
      <use x="542.68359375" xlink:href="#DejaVuSans-29"/>
     </g>
     <!-- chr5:136147459-136170713 -->
     <defs>
      <path d="
M11.7188 12.4062
L22.0156 12.4062
L22.0156 0
L11.7188 0
z

M11.7188 51.7031
L22.0156 51.7031
L22.0156 39.3125
L11.7188 39.3125
z
" id="DejaVuSans-3a"/>
      <path d="
M4.89062 31.3906
L31.2031 31.3906
L31.2031 23.3906
L4.89062 23.3906
z
" id="DejaVuSans-2d"/>
      <path d="
M8.20312 72.9062
L55.0781 72.9062
L55.0781 68.7031
L28.6094 0
L18.3125 0
L43.2188 64.5938
L8.20312 64.5938
z
" id="DejaVuSans-37"/>
      <path d="
M10.9844 1.51562
L10.9844 10.5
Q14.7031 8.73438 18.5 7.8125
Q22.3125 6.89062 25.9844 6.89062
Q35.75 6.89062 40.8906 13.4531
Q46.0469 20.0156 46.7812 33.4062
Q43.9531 29.2031 39.5938 26.9531
Q35.25 24.7031 29.9844 24.7031
Q19.0469 24.7031 12.6719 31.3125
Q6.29688 37.9375 6.29688 49.4219
Q6.29688 60.6406 12.9375 67.4219
Q19.5781 74.2188 30.6094 74.2188
Q43.2656 74.2188 49.9219 64.5156
Q56.5938 54.8281 56.5938 36.375
Q56.5938 19.1406 48.4062 8.85938
Q40.2344 -1.42188 26.4219 -1.42188
Q22.7031 -1.42188 18.8906 -0.6875
Q15.0938 0.046875 10.9844 1.51562
M30.6094 32.4219
Q37.25 32.4219 41.125 36.9531
Q45.0156 41.5 45.0156 49.4219
Q45.0156 57.2812 41.125 61.8438
Q37.25 66.4062 30.6094 66.4062
Q23.9688 66.4062 20.0938 61.8438
Q16.2188 57.2812 16.2188 49.4219
Q16.2188 41.5 20.0938 36.9531
Q23.9688 32.4219 30.6094 32.4219" id="DejaVuSans-39"/>
      <path d="
M48.7812 52.5938
L48.7812 44.1875
Q44.9688 46.2969 41.1406 47.3438
Q37.3125 48.3906 33.4062 48.3906
Q24.6562 48.3906 19.8125 42.8438
Q14.9844 37.3125 14.9844 27.2969
Q14.9844 17.2812 19.8125 11.7344
Q24.6562 6.20312 33.4062 6.20312
Q37.3125 6.20312 41.1406 7.25
Q44.9688 8.29688 48.7812 10.4062
L48.7812 2.09375
Q45.0156 0.34375 40.9844 -0.53125
Q36.9688 -1.42188 32.4219 -1.42188
Q20.0625 -1.42188 12.7812 6.34375
Q5.51562 14.1094 5.51562 27.2969
Q5.51562 40.6719 12.8594 48.3281
Q20.2188 56 33.0156 56
Q37.1562 56 41.1094 55.1406
Q45.0625 54.2969 48.7812 52.5938" id="DejaVuSans-63"/>
      <path d="
M41.1094 46.2969
Q39.5938 47.1719 37.8125 47.5781
Q36.0312 48 33.8906 48
Q26.2656 48 22.1875 43.0469
Q18.1094 38.0938 18.1094 28.8125
L18.1094 0
L9.07812 0
L9.07812 54.6875
L18.1094 54.6875
L18.1094 46.1875
Q20.9531 51.1719 25.4844 53.5781
Q30.0312 56 36.5312 56
Q37.4531 56 38.5781 55.875
Q39.7031 55.7656 41.0625 55.5156
z
" id="DejaVuSans-72"/>
     </defs>
     <g transform="translate(357.3253125 431.96925)scale(0.12 -0.12)">
      <use xlink:href="#DejaVuSans-63"/>
      <use x="54.98046875" xlink:href="#DejaVuSans-68"/>
      <use x="118.359375" xlink:href="#DejaVuSans-72"/>
      <use x="159.47265625" xlink:href="#DejaVuSans-35"/>
      <use x="223.095703125" xlink:href="#DejaVuSans-3a"/>
      <use x="256.787109375" xlink:href="#DejaVuSans-31"/>
      <use x="320.41015625" xlink:href="#DejaVuSans-33"/>
      <use x="384.033203125" xlink:href="#DejaVuSans-36"/>
      <use x="447.65625" xlink:href="#DejaVuSans-31"/>
      <use x="511.279296875" xlink:href="#DejaVuSans-34"/>
      <use x="574.90234375" xlink:href="#DejaVuSans-37"/>
      <use x="638.525390625" xlink:href="#DejaVuSans-34"/>
      <use x="702.1484375" xlink:href="#DejaVuSans-35"/>
      <use x="765.771484375" xlink:href="#DejaVuSans-39"/>
      <use x="829.39453125" xlink:href="#DejaVuSans-2d"/>
      <use x="865.478515625" xlink:href="#DejaVuSans-31"/>
      <use x="929.1015625" xlink:href="#DejaVuSans-33"/>
      <use x="992.724609375" xlink:href="#DejaVuSans-36"/>
      <use x="1056.34765625" xlink:href="#DejaVuSans-31"/>
      <use x="1119.97070312" xlink:href="#DejaVuSans-37"/>
      <use x="1183.59375" xlink:href="#DejaVuSans-30"/>
      <use x="1247.21679688" xlink:href="#DejaVuSans-37"/>
      <use x="1310.83984375" xlink:href="#DejaVuSans-31"/>
      <use x="1374.46289062" xlink:href="#DejaVuSans-33"/>
     </g>
    </g>
   </g>
  </g>
  <g id="text_14">
   <!-- ENSMUST00000041048 (Orai2) -->
   <defs>
    <path d="
M9.8125 72.9062
L23.0938 72.9062
L55.4219 11.9219
L55.4219 72.9062
L64.9844 72.9062
L64.9844 0
L51.7031 0
L19.3906 60.9844
L19.3906 0
L9.8125 0
z
" id="DejaVuSans-4e"/>
    <path d="
M39.4062 66.2188
Q28.6562 66.2188 22.3281 58.2031
Q16.0156 50.2031 16.0156 36.375
Q16.0156 22.6094 22.3281 14.5938
Q28.6562 6.59375 39.4062 6.59375
Q50.1406 6.59375 56.4219 14.5938
Q62.7031 22.6094 62.7031 36.375
Q62.7031 50.2031 56.4219 58.2031
Q50.1406 66.2188 39.4062 66.2188
M39.4062 74.2188
Q54.7344 74.2188 63.9062 63.9375
Q73.0938 53.6562 73.0938 36.375
Q73.0938 19.1406 63.9062 8.85938
Q54.7344 -1.42188 39.4062 -1.42188
Q24.0312 -1.42188 14.8125 8.82812
Q5.60938 19.0938 5.60938 36.375
Q5.60938 53.6562 14.8125 63.9375
Q24.0312 74.2188 39.4062 74.2188" id="DejaVuSans-4f"/>
    <path d="
M9.8125 72.9062
L55.9062 72.9062
L55.9062 64.5938
L19.6719 64.5938
L19.6719 43.0156
L54.3906 43.0156
L54.3906 34.7188
L19.6719 34.7188
L19.6719 8.29688
L56.7812 8.29688
L56.7812 0
L9.8125 0
z
" id="DejaVuSans-45"/>
    <path d="
M53.5156 70.5156
L53.5156 60.8906
Q47.9062 63.5781 42.9219 64.8906
Q37.9375 66.2188 33.2969 66.2188
Q25.25 66.2188 20.875 63.0938
Q16.5 59.9688 16.5 54.2031
Q16.5 49.3594 19.4062 46.8906
Q22.3125 44.4375 30.4219 42.9219
L36.375 41.7031
Q47.4062 39.5938 52.6562 34.2969
Q57.9062 29 57.9062 20.125
Q57.9062 9.51562 50.7969 4.04688
Q43.7031 -1.42188 29.9844 -1.42188
Q24.8125 -1.42188 18.9688 -0.25
Q13.1406 0.921875 6.89062 3.21875
L6.89062 13.375
Q12.8906 10.0156 18.6562 8.29688
Q24.4219 6.59375 29.9844 6.59375
Q38.4219 6.59375 43.0156 9.90625
Q47.6094 13.2344 47.6094 19.3906
Q47.6094 24.75 44.3125 27.7812
Q41.0156 30.8125 33.5 32.3281
L27.4844 33.5
Q16.4531 35.6875 11.5156 40.375
Q6.59375 45.0625 6.59375 53.4219
Q6.59375 63.0938 13.4062 68.6562
Q20.2188 74.2188 32.1719 74.2188
Q37.3125 74.2188 42.625 73.2812
Q47.9531 72.3594 53.5156 70.5156" id="DejaVuSans-53"/>
    <path d="
M8.6875 72.9062
L18.6094 72.9062
L18.6094 28.6094
Q18.6094 16.8906 22.8438 11.7344
Q27.0938 6.59375 36.625 6.59375
Q46.0938 6.59375 50.3438 11.7344
Q54.5938 16.8906 54.5938 28.6094
L54.5938 72.9062
L64.5 72.9062
L64.5 27.3906
Q64.5 13.1406 57.4375 5.85938
Q50.3906 -1.42188 36.625 -1.42188
Q22.7969 -1.42188 15.7344 5.85938
Q8.6875 13.1406 8.6875 27.3906
z
" id="DejaVuSans-55"/>
    <path d="
M-0.296875 72.9062
L61.375 72.9062
L61.375 64.5938
L35.5 64.5938
L35.5 0
L25.5938 0
L25.5938 64.5938
L-0.296875 64.5938
z
" id="DejaVuSans-54"/>
   </defs>
   <g transform="translate(338.4525 17.758125)scale(0.12 -0.12)">
    <use xlink:href="#DejaVuSans-45"/>
    <use x="63.18359375" xlink:href="#DejaVuSans-4e"/>
    <use x="137.98828125" xlink:href="#DejaVuSans-53"/>
    <use x="201.46484375" xlink:href="#DejaVuSans-4d"/>
    <use x="287.744140625" xlink:href="#DejaVuSans-55"/>
    <use x="360.9375" xlink:href="#DejaVuSans-53"/>
    <use x="424.4140625" xlink:href="#DejaVuSans-54"/>
    <use x="485.498046875" xlink:href="#DejaVuSans-30"/>
    <use x="549.12109375" xlink:href="#DejaVuSans-30"/>
    <use x="612.744140625" xlink:href="#DejaVuSans-30"/>
    <use x="676.3671875" xlink:href="#DejaVuSans-30"/>
    <use x="739.990234375" xlink:href="#DejaVuSans-30"/>
    <use x="803.61328125" xlink:href="#DejaVuSans-30"/>
    <use x="867.236328125" xlink:href="#DejaVuSans-34"/>
    <use x="930.859375" xlink:href="#DejaVuSans-31"/>
    <use x="994.482421875" xlink:href="#DejaVuSans-30"/>
    <use x="1058.10546875" xlink:href="#DejaVuSans-34"/>
    <use x="1121.72851562" xlink:href="#DejaVuSans-38"/>
    <use x="1185.3515625" xlink:href="#DejaVuSans-20"/>
    <use x="1217.13867188" xlink:href="#DejaVuSans-28"/>
    <use x="1256.15234375" xlink:href="#DejaVuSans-4f"/>
    <use x="1334.86328125" xlink:href="#DejaVuSans-72"/>
    <use x="1375.9765625" xlink:href="#DejaVuSans-61"/>
    <use x="1437.25585938" xlink:href="#DejaVuSans-69"/>
    <use x="1465.0390625" xlink:href="#DejaVuSans-32"/>
    <use x="1528.66210938" xlink:href="#DejaVuSans-29"/>
   </g>
  </g>
 </g>
 <defs>
  <clipPath id="p9fd4257182">
   <rect height="279.272727273" width="669.6" x="108.0" y="43.2"/>
  </clipPath>
  <clipPath id="pc82b1f09f0">
   <rect height="34.9090909091" width="669.6" x="108.0" y="353.890909091"/>
  </clipPath>
 </defs>
</svg>
