<?xml version="1.0" encoding="utf-8" standalone="no"?>
<!DOCTYPE svg PUBLIC "-//W3C//DTD SVG 1.1//EN"
  "http://www.w3.org/Graphics/SVG/1.1/DTD/svg11.dtd">
<!-- Created with matplotlib (http://matplotlib.org/) -->
<svg height="432pt" version="1.1" viewBox="0 0 864 432" width="864pt" xmlns="http://www.w3.org/2000/svg" xmlns:xlink="http://www.w3.org/1999/xlink">
 <defs>
  <style type="text/css">
*{stroke-linecap:butt;stroke-linejoin:round;}
  </style>
 </defs>
 <g id="figure_1">
  <g id="patch_1">
   <path d="
M0 432
L864 432
L864 0
L0 0
z
" style="fill:#ffffff;"/>
  </g>
  <g id="axes_1">
   <g id="patch_2">
    <path d="
M108 322.473
L777.6 322.473
L777.6 43.2
L108 43.2
z
" style="fill:#ffffff;"/>
   </g>
   <g id="patch_3">
    <path clip-path="url(#p9fd4257182)" d="
M121.153 322.473
L123.31 322.473
L123.31 43.2
L121.153 43.2
z
" style="fill:#008000;opacity:0.2;"/>
   </g>
   <g id="patch_4">
    <path clip-path="url(#p9fd4257182)" d="
M284.959 322.473
L286.156 322.473
L286.156 43.2
L284.959 43.2
z
" style="fill:#008000;opacity:0.2;"/>
   </g>
   <g id="patch_5">
    <path clip-path="url(#p9fd4257182)" d="
M332.73 322.473
L334.19 322.473
L334.19 43.2
L332.73 43.2
z
" style="fill:#008000;opacity:0.2;"/>
   </g>
   <g id="patch_6">
    <path clip-path="url(#p9fd4257182)" d="
M611.374 322.473
L612.308 322.473
L612.308 43.2
L611.374 43.2
z
" style="fill:#008000;opacity:0.2;"/>
   </g>
   <g id="patch_7">
    <path clip-path="url(#p9fd4257182)" d="
M630.748 322.473
L632.155 322.473
L632.155 43.2
L630.748 43.2
z
" style="fill:#008000;opacity:0.2;"/>
   </g>
   <g id="patch_8">
    <path clip-path="url(#p9fd4257182)" d="
M752.228 322.473
L764.447 322.473
L764.447 43.2
L752.228 43.2
z
" style="fill:#008000;opacity:0.2;"/>
   </g>
   <g id="line2d_1">
    <path clip-path="url(#p9fd4257182)" d="
M108.276 294.518
L108.381 299.25
L108.487 303.369
L109.052 317.122
L109.578 321.367
L110.828 322.275
L111.183 322.17
L111.788 321.021
L112.012 319.884
L112.788 315.317
L112.867 315.429
L113.892 320.259
L114.511 321.793
L114.866 321.98
L119.917 321.791
L120.824 321.648
L121.666 321.679
L122.271 321.851
L122.929 321.43
L122.955 321.384
L124.625 316.56
L125.243 314.541
L125.585 313.858
L126.427 313.08
L126.44 313.093
L126.769 314.153
L127.953 320.607
L128.269 321.393
L128.755 321.887
L129.11 321.967
L129.65 321.687
L129.926 321.447
L131.36 321.945
L131.978 321.257
L132.912 310.496
L134.174 258.262
L136.002 219.399
L137.423 191.778
L139.238 157.818
L143.355 82.8974
L143.368 83.0081
L143.5 84.3438
L144.381 113.221
L147.143 92.7481
L147.893 77.0482
L148.156 73.5718
L148.656 69.895
L148.984 69.4067
L149.497 71.0297
L152.996 108.461
L154.877 107.453
L155.114 105.756
L157.034 89.9634
L158.31 82.1281
L160.546 69.9169
L161.808 65.7305
L162.308 64.5841
L163.018 63.1937
L164.886 62.3048
L165.005 62.4496
L165.412 63.2658
L168.056 94.6456
L171.91 165.591
L174.409 262.787
L176.25 222.895
L176.987 172.108
L178.552 97.0801
L180.065 70.3731
L180.709 66.3465
L183.169 59.0995
L183.629 58.4266
L186.733 58.7249
L188.509 61.9395
L190.113 66.0974
L190.916 69.6674
L192.244 76.5737
L196.085 63.9776
L198.216 66.3237
L198.36 67.4442
L200.32 99.5563
L200.807 103.23
L202.148 79.0109
L202.688 72.5359
L205.686 86.2705
L206.989 116.605
L207.002 116.052
L207.659 88.9672
L209.264 78.0344
L209.777 77.7422
L210.264 76.5684
L210.435 75.8446
L211.198 73.2504
L213.578 58.0692
L219.931 58.6623
L222.851 95.0945
L222.864 94.1962
L223.324 68.5702
L223.732 59.2309
L237.701 57.2934
L242.317 57.3034
L248.604 57.6337
L253.694 57.664
L254.576 57.8464
L265.019 79.5748
L265.032 79.3049
L267.229 58.9857
L269.596 57.0929
L274.16 57.6022
L274.857 58.1399
L275.62 59.7219
L276.909 73.612
L278.264 85.435
L278.277 84.9308
L278.724 68.1661
L279.264 61.5297
L279.658 59.8701
L280.566 58.1194
L282.263 56.7992
L283.525 57.0642
L285.09 66.2551
L285.814 76.1405
L287.8 75.2396
L292.495 58.4988
L294.389 57.6967
L295.047 57.6222
L296.612 57.5806
L303.268 56.5005
L306.779 56.5146
L309.108 64.5898
L312.711 117.888
L312.725 117.834
L315.566 99.7983
L316.776 102.29
L328.337 92.7186
L338.189 68.6371
L338.912 66.5609
L340.635 63.0772
L341.424 62.0321
L342.49 60.9648
L345.725 56.8669
L350.776 56.508
L352.867 56.5155
L359.707 112.846
L360.89 248.589
L362.719 284.912
L367.48 57.6107
L369.492 56.861
L371.071 57.301
L371.518 57.6181
L372.794 59.5913
L375.319 65.3624
L375.53 65.3133
L376.345 63.9679
L377.831 59.7715
L383.487 58.4475
L386.091 57.502
L393.128 56.9159
L396.824 57.7674
L397.653 58.323
L403.085 72.9887
L404.334 78.6978
L405.4 82.263
L410.293 81.5839
L411.2 80.5631
L414.87 88.123
L416.751 76.4215
L416.987 73.0416
L422.064 60.3029
L426.786 67.3063
L427.326 69.7048
L428.904 83.179
L429.246 87.501
L435.586 65.0593
L435.625 65.1002
L436.256 65.9771
L436.875 67.2518
L438.308 71.8695
L440.492 82.9741
L444.148 94.8474
L444.161 94.8358
L447.173 79.0965
L447.186 78.974
L451.514 61.8797
L452.869 61.5018
L453.132 61.5586
L455.907 64.6869
L459.313 74.118
L460.234 77.105
L464.18 92.821
L465.456 90.0477
L465.601 89.2222
L467.179 78.7099
L469.467 66.3195
L471.309 61.3995
L471.611 60.9133
L486.356 73.7128
L487.487 87.9202
L488.789 99.893
L490.025 91.5579
L491.512 70.837
L491.867 67.2371
L492.998 59.229
L493.642 58.4227
L496.405 219.722
L497.273 247.134
L502.455 120.964
L503.113 98.6635
L506.414 63.9206
L509.61 58.5205
L515.305 56.9837
L517.489 57.1342
L518.475 60.4945
L518.738 62.9118
L519.369 72.5619
L520.014 86.5573
L521.356 102.261
L521.369 102.208
L522.645 81.5259
L524.894 58.783
L525.42 57.5546
L529.326 56.5737
L535.705 57.1129
L541.887 57.1513
L542.913 57.5842
L543.597 58.2883
L543.847 58.7252
L544.452 60.6114
L549.332 114.634
L549.345 114.585
L550.687 97.5991
L550.91 93.1335
L553.541 58.4349
L564.734 57.3472
L587.409 58.8066
L589.159 75.4301
L590.014 100.575
L593.762 224.187
L596.222 208.482
L600.036 98.8086
L600.707 87.7537
L603.337 66.1428
L610.677 57.664
L621.094 56.918
L628.841 57.8183
L629.748 57.5028
L632.511 62.7043
L632.76 66.205
L633.76 84.5888
L635.062 86.2716
L636.049 71.5018
L637.232 60.7548
L638.456 59.6976
L639.061 60.4608
L639.679 62.1891
L644.059 130.291
L649.031 61.1215
L649.951 58.3448
L652.911 56.8962
L654.884 56.9001
L660.105 57.5245
L667.011 69.9818
L668.76 87.78
L669.549 88.3444
L669.562 88.3024
L672.719 64.3492
L674.284 59.3092
L674.666 58.7417
L680.427 57.1546
L683.386 60.2026
L683.873 62.2671
L686.871 130.491
L687.542 141.513
L692.803 62.2962
L694.224 57.5015
L695.5 56.9347
L698.867 57.0938
L699.432 57.2399
L701.274 58.8337
L708.087 199.857
L708.1 199.591
L708.929 175.886
L711.954 90.2314
L712.086 88.6682
L720.648 184.991
L721.108 97.2888
L721.792 64.0676
L722.371 59.1567
L729.224 71.586
L729.237 71.5043
L729.868 67.8806
L730.25 65.9995
L734.314 57.551
L740.075 57.0161
L744.021 57.2498
L746.112 57.0635
L748.282 57.4175
L749.032 57.7713
L752.11 73.5163
L752.544 82.7797
L754.438 152.868
L756.608 149.369
L757.923 98.9437
L762.211 58.1773
L762.935 57.595
L765.157 57.1058
L766.657 57.1289
L773.509 57.3181
L773.509 57.3181" style="fill:none;opacity:0.5;stroke:#0000ff;stroke-linecap:square;"/>
   </g>
   <g id="line2d_2">
    <path clip-path="url(#p9fd4257182)" d="
M108.263 317.984
L108.487 320.145
L109.052 321.742
L109.578 322.074
L111.183 322.246
L111.893 322.059
L112.012 321.953
L113.222 319.477
L113.761 319.595
L114.616 321.483
L114.866 321.621
L117.207 322.068
L119.627 321.892
L120.942 321.404
L122.284 320.843
L122.955 321.059
L124.678 321.9
L125.585 321.966
L128.269 321.942
L129.939 321.78
L131.36 322.057
L131.978 322.469
L132.912 317.651
L133.924 290.669
L133.964 290.918
L134.187 292.801
L135.174 288.915
L135.713 279.115
L136.016 263.941
L136.647 220.743
L137.226 232.674
L137.436 241.804
L138.16 233.572
L138.199 231.676
L139.251 120.634
L143.355 59.9154
L143.486 59.9841
L144.381 61.6189
L147.143 160.526
L147.893 207.836
L148.156 218.696
L148.669 232.917
L148.984 238.248
L149.497 243.378
L152.983 272.703
L154.877 273.222
L155.127 270.739
L157.047 189.499
L158.31 131.016
L160.533 96.1462
L160.546 96.369
L162.295 136.965
L163.005 151.793
L165.412 206.609
L168.056 262.769
L171.923 309.832
L172.462 309.68
L172.66 309.175
L173.094 307.053
L174.409 305.423
L176.263 293.518
L176.987 280.019
L180.065 136.064
L180.709 128.685
L183.432 72.945
L183.642 70.2584
L186.733 57.2356
L188.509 57.5003
L190.916 57.5263
L192.244 57.9026
L198.216 185.015
L198.36 196.491
L200.307 270.758
L200.32 270.446
L200.82 248.205
L202.148 104.923
L202.688 77.5641
L205.673 66.6736
L205.686 66.7187
L207.002 72.6199
L207.659 80.5201
L209.264 117.369
L210.25 144.058
L210.435 147.283
L211.184 149.316
L211.198 149.164
L213.565 65.6687
L219.931 56.6674
L222.904 60.4868
L223.324 62.726
L223.732 65.8304
L224.587 75.626
L232.492 69.7087
L235.399 72.2928
L237.701 73.3498
L241.304 70.8272
L242.317 69.4097
L243.896 66.9165
L248.604 60.285
L252.918 57.6219
L254.563 57.2693
L265.032 56.7808
L267.242 57.5841
L269.596 60.6674
L274.147 71.5223
L274.16 71.5071
L274.857 70.6636
L275.62 70.1769
L276.909 74.125
L278.264 79.2147
L278.277 79.089
L279.264 67.356
L279.658 64.2241
L280.566 60.0128
L282.276 57.189
L283.525 66.9238
L285.077 90.3374
L285.09 89.5521
L285.814 68.596
L287.787 65.1861
L287.8 65.2317
L292.495 98.1027
L294.389 67.8129
L295.047 61.0879
L296.612 56.7761
L303.268 64.289
L305.477 71.2273
L306.779 79.1861
L309.108 103.045
L312.711 118.657
L312.725 118.587
L313.33 114.585
L316.776 79.6202
L328.337 60.0597
L338.189 80.5617
L338.899 81.0567
L340.635 79.2371
L341.424 77.2921
L342.49 74.0454
L345.725 64.7595
L350.776 61.0589
L352.88 61.8098
L359.72 107.334
L360.89 118.658
L362.719 116.184
L367.48 73.4562
L369.492 67.0933
L371.071 64.085
L372.794 59.9298
L375.319 59.5456
L375.53 59.9175
L376.345 61.7101
L377.831 66.11
L383.487 66.3587
L386.091 62.3371
L393.141 57.3744
L396.824 57.5667
L397.653 58.0811
L404.334 78.4128
L405.4 77.665
L410.28 58.0943
L410.293 58.1008
L410.503 58.2363
L411.2 59.1798
L414.87 115.573
L416.764 141.324
L417.001 142.206
L422.064 129.996
L426.905 69.3871
L427.326 67.6593
L429.246 58.0498
L435.586 138.297
L436.256 267.481
L436.875 309.764
L438.295 314.231
L438.308 314.123
L440.492 185.218
L444.161 77.8868
L447.055 67.5782
L447.186 67.5464
L451.527 70.7548
L453.145 73.9845
L455.907 78.0805
L459.313 76.7779
L460.234 74.1851
L464.167 72.0828
L464.18 72.1222
L467.179 84.0008
L469.467 84.268
L471.611 80.9211
L486.343 56.6786
L486.356 56.6874
L487.5 61.7091
L488.789 93.9024
L489.933 111.157
L489.947 111.016
L490.039 109.853
L491.512 81.1926
L491.867 77.491
L492.998 68.9125
L493.577 68.8578
L493.642 69.1235
L496.391 225.572
L497.273 185.41
L502.455 61.5085
L503.113 61.0819
L506.414 76.3521
L509.61 90.1179
L515.305 69.3763
L515.318 69.3647
L517.489 68.3171
L518.738 69.3168
L519.369 69.79
L520.014 71.7437
L522.631 113.815
L522.645 113.813
L524.894 89.0231
L525.42 79.688
L535.692 61.1942
L535.705 61.2824
L541.887 150.982
L543.847 93.7627
L544.452 80.8357
L549.345 57.2745
L550.91 56.961
L553.541 56.8339
L564.444 67.0686
L564.458 67.0513
L564.734 66.6787
L568.851 61.5118
L578.176 57.8259
L587.409 73.8937
L589.159 100.595
L593.762 240.203
L596.222 227.507
L600.036 97.6871
L600.707 81.5515
L603.351 58.6803
L610.677 56.4999
L621.081 56.534
L628.841 61.0707
L629.748 66.9848
L632.497 71.3701
L632.511 71.1961
L632.76 68.0924
L633.773 60.3049
L635.062 57.6492
L636.049 57.321
L637.232 57.4283
L638.456 57.9913
L639.061 58.4981
L639.679 59.7359
L644.059 144.925
L649.031 63.2925
L649.951 59.5383
L652.911 57.2122
L654.884 57.0996
L660.105 57.2912
L667.024 57.3213
L669.562 57.5682
L674.666 57.6601
L680.427 56.8696
L683.386 56.9057
L683.873 57.3181
L686.871 126.402
L687.542 150.312
L692.803 121.411
L694.224 89.4071
L695.5 71.7434
L698.88 59.3489
L699.446 59.0342
L701.274 59.7959
L708.087 214.671
L708.1 214.668
L708.613 213.301
L708.929 211.347
L711.941 68.4168
L712.086 66.0695
L720.635 72.1247
L720.648 71.6156
L721.108 61.0314
L721.792 57.2208
L722.371 56.6617
L729.382 56.8244
L730.236 57.2191
L734.314 58.2114
L740.062 58.1329
L744.021 57.0772
L746.112 56.9615
L748.282 57.4389
L749.045 58.2554
L752.11 73.1838
L752.544 79.1917
L754.438 126.768
L756.608 148.443
L757.923 125.546
L762.211 62.605
L762.935 62.3895
L765.315 63.7178
L766.657 63.7327
L771.431 57.9388
L772.681 57.137
L773.523 56.8423
L773.523 56.8423" style="fill:none;opacity:0.5;stroke:#ff0000;stroke-linecap:square;"/>
   </g>
   <g id="line2d_3">
    <path clip-path="url(#p9fd4257182)" d="
M108.263 319.99
L108.487 321.958
L109.052 322.458
L109.578 322.456
L110.828 321.881
L113.892 322.01
L115.563 321.939
L117.207 321.916
L119.233 321.747
L120.811 321.356
L121.508 321.515
L122.929 322.015
L124.06 322.143
L125.796 322.115
L128.269 322.011
L129.544 321.953
L129.939 321.912
L131.346 322.043
L131.978 322.373
L132.898 316.492
L133.924 304.163
L133.964 304.301
L134.187 305.062
L135.174 301.398
L135.713 295.318
L136.016 283.966
L136.634 241.623
L137.213 229.404
L137.423 233.239
L138.199 251.529
L139.238 255.115
L139.251 254.983
L143.368 73.5723
L143.5 72.7666
L144.381 77.7748
L147.143 181.45
L147.498 183.546
L147.893 183.235
L148.156 182.437
L148.656 182.016
L148.669 182.053
L148.984 184.219
L149.497 193.067
L152.996 268.56
L154.877 255.852
L155.114 244.137
L157.034 97.047
L158.31 76.1967
L160.546 86.1384
L162.216 126.471
L162.308 129.731
L163.018 165.561
L164.873 190.904
L164.886 190.669
L165.412 182.948
L168.056 252.591
L171.923 319.883
L172.66 321.14
L173.094 321.455
L174.409 321.695
L176.263 321.12
L176.974 317.879
L177 317.553
L178.552 157.794
L180.065 81.9337
L180.709 75.3304
L182.958 58.7555
L183.484 57.9679
L183.642 57.849
L186.72 76.1733
L188.496 91.1521
L190.113 103.291
L190.916 112.969
L192.244 111.651
L196.059 96.3632
L196.085 96.568
L196.098 96.6724
L198.202 137.991
L198.347 143.305
L200.307 201.927
L200.32 201.597
L200.82 181.491
L202.148 102.191
L202.688 82.8388
L205.673 76.5426
L205.686 76.6141
L207.002 77.8703
L207.659 79.2217
L209.264 115.37
L209.777 140.117
L210.264 155.356
L210.435 156.839
L211.184 159.174
L211.198 159.12
L213.578 88.0878
L219.931 91.0894
L222.917 59.0786
L223.324 58.0757
L223.732 57.4833
L224.587 56.9107
L232.492 58.737
L235.399 75.0449
L237.701 79.4842
L241.304 98.487
L242.317 107.922
L243.896 124.545
L248.591 144.643
L252.932 104.013
L253.694 98.3058
L254.576 93.3094
L265.019 117.094
L265.032 117.015
L267.242 98.7777
L269.596 82.7278
L274.16 68.4487
L274.857 68.4581
L275.62 69.4495
L276.909 72.1948
L278.277 73.8367
L278.724 74.7911
L279.264 78.4254
L279.645 79.1103
L279.658 79.0585
L280.566 63.468
L282.263 59.1459
L283.525 60.8422
L285.09 68.1976
L285.814 76.6274
L292.495 61.1919
L294.389 58.0343
L295.047 57.6162
L296.612 57.1121
L303.268 57.706
L305.491 63.4897
L306.779 78.0234
L312.711 221.152
L312.725 220.97
L313.33 210.673
L315.566 154.42
L316.776 129.117
L328.337 72.0142
L338.189 63.3819
L338.912 64.0251
L340.635 66.6265
L341.424 68.4826
L342.49 71.9026
L345.725 89.4885
L350.776 97.2146
L352.722 98.9699
L352.88 99.332
L359.707 140.962
L359.72 140.883
L360.89 133.159
L362.719 119.536
L367.467 88.5637
L367.48 88.7312
L369.492 124.673
L371.071 97.3542
L371.518 84.3613
L372.794 63.4373
L375.319 56.6785
L376.345 56.5837
L383.487 56.8583
L386.091 57.1053
L393.141 56.5613
L397.653 56.5177
L403.085 57.26
L404.334 68.0041
L405.4 133.59
L410.293 59.7555
L410.503 59.7959
L411.003 60.3801
L411.2 60.8163
L414.857 83.243
L414.87 83.0939
L416.764 60.548
L417.001 59.2466
L422.064 56.5429
L426.905 57.6735
L427.326 58.0631
L428.891 61.2915
L429.246 62.6846
L435.625 207.894
L436.875 264.78
L438.295 271.667
L438.308 271.325
L440.492 65.3091
L444.161 56.664
L447.055 58.1574
L447.186 58.4599
L451.395 78.4916
L451.409 78.362
L451.527 77.2013
L452.882 67.03
L453.145 65.9247
L455.894 66.0521
L459.313 71.2334
L460.234 71.1887
L464.18 70.3182
L465.601 70.943
L467.179 70.814
L471.611 66.328
L486.356 71.8826
L487.487 75.5506
L490.039 96.3735
L490.433 97.0781
L490.446 97.043
L490.88 93.1712
L491.867 69.6839
L492.998 58.2921
L493.642 57.5163
L496.405 150.086
L497.273 181.634
L502.455 62.3566
L503.113 61.8441
L509.597 80.8366
L509.61 80.7464
L515.147 66.1575
L515.161 66.181
L515.318 66.4535
L517.489 71.5671
L518.738 81.9611
L520.014 95.8173
L521.369 112.302
L522.631 114.856
L525.42 77.3669
L529.339 57.8216
L535.705 63.0237
L541.887 118.878
L542.913 92.0208
L543.847 76.4071
L544.452 70.5132
L549.345 72.5978
L550.91 85.2507
L553.541 128.116
L564.734 69.583
L568.837 61.1167
L578.176 56.8057
L587.409 76.746
L589.159 105.333
L590.014 126.585
L593.762 207.14
L596.222 202.898
L600.707 106.511
L603.351 69.663
L610.677 56.64
L621.081 56.4987
L628.828 72.1259
L628.841 72.5889
L629.748 126.763
L632.76 62.5793
L633.773 57.3457
L635.049 56.8721
L636.049 56.9186
L639.061 57.4416
L660.092 57.2804
L668.773 57.0281
L674.666 57.1669
L680.427 56.6321
L683.386 60.2824
L683.873 65.4325
L687.529 210.973
L687.542 211.338
L692.803 161.494
L694.224 110.067
L695.487 79.2927
L698.88 58.9095
L699.446 58.4349
L701.274 58.2495
L708.1 102.708
L708.929 106.683
L712.086 76.1833
L720.648 74.7737
L721.108 75.4637
L721.792 76.0904
L722.371 76.0677
L729.224 80.0694
L729.645 89.3243
L730.25 105.774
L734.314 64.5211
L740.075 56.9151
L744.021 58.1715
L746.112 63.37
L748.282 72.0748
L749.045 74.5915
L752.11 69.2891
L752.544 67.7265
L754.438 61.8174
L756.621 58.6263
L757.923 58.5646
L762.211 75.3839
L762.935 78.9832
L764.763 87.3501
L765.315 88.6771
L766.657 87.3821
L771.418 64.4168
L772.681 64.199
L773.509 65.361
L773.509 65.361" style="fill:none;opacity:0.5;stroke:#ff0000;stroke-linecap:square;"/>
   </g>
   <g id="line2d_4">
    <path clip-path="url(#p9fd4257182)" d="
M108.263 321.097
L108.487 322.056
L109.052 322.42
L109.578 322.413
L110.828 321.794
L111.788 321.991
L112.867 322.018
L114.34 321.888
L116.51 321.765
L117.207 321.75
L118.812 321.835
L119.93 321.615
L120.416 321.58
L123.56 321.994
L126.44 321.961
L128.466 322.046
L129.11 321.95
L129.663 321.092
L129.939 320.021
L131.36 302.041
L131.978 307.581
L132.912 303.032
L133.924 295.885
L133.964 296.015
L134.187 296.62
L135.174 292.018
L135.713 282.963
L136.016 263.579
L136.647 200.894
L137.213 209.862
L137.436 224.73
L138.199 253.402
L139.251 272.153
L143.368 87.7561
L143.5 87.6326
L144.381 90.4326
L147.143 137.86
L148.143 172.976
L149.484 224.141
L152.983 273.807
L154.89 245.167
L155.127 235.102
L157.034 80.3603
L160.533 72.2445
L160.546 72.4034
L161.401 92.3839
L161.808 114.899
L163.018 220.145
L164.873 222.408
L164.991 220.639
L165.399 218.623
L165.412 218.677
L168.056 302.741
L171.844 301.056
L171.923 300.827
L172.462 300.179
L172.66 300.449
L173.094 302.082
L174.396 303.934
L174.409 303.915
L176.25 287.855
L177 263.893
L178.552 165.935
L180.065 103.932
L180.709 90.5659
L183.169 67.5595
L183.629 65.4094
L188.509 57.3201
L190.113 58.1068
L190.916 67.5678
L192.244 107.894
L196.059 121.067
L196.085 121.723
L198.36 218.377
L200.307 264.66
L200.32 264.4
L200.82 245.72
L202.148 110.815
L202.688 80.7771
L205.673 62.6014
L205.686 62.6248
L207.002 71.3949
L207.659 87.4033
L209.264 142.399
L209.777 147.895
L210.435 150.159
L211.198 144.32
L213.578 92.5478
L219.931 58.7556
L223.324 57.3375
L223.732 57.2453
L232.492 56.7379
L235.399 56.7698
L237.701 57.3697
L241.304 84.5889
L242.317 102.826
L243.896 121.276
L248.604 67.3194
L252.932 61.2207
L253.694 61.5554
L254.576 62.1134
L265.019 106.13
L265.032 106.051
L267.229 78.577
L269.596 63.424
L274.16 94.168
L274.857 60.8291
L275.62 56.8456
L276.909 56.5819
L278.277 57.2381
L279.658 57.2504
L280.566 57.2859
L282.276 57.1013
L283.525 57.3789
L285.09 61.4125
L285.695 75.8631
L285.814 82.5095
L287.787 295.661
L292.495 66.8854
L294.389 57.7212
L295.047 57.4662
L296.599 57.6351
L303.268 67.6259
L305.491 79.0242
L306.779 89.4084
L309.108 109.79
L312.725 105.834
L313.33 101.685
L315.566 87.6261
L316.776 82.9072
L328.337 74.7781
L338.189 72.8975
L338.912 74.9432
L340.635 82.4867
L341.424 87.4112
L342.49 95.6561
L345.712 119.63
L345.725 119.6
L350.763 77.4372
L352.709 74.0851
L352.722 74.1012
L352.88 74.3433
L359.72 186.509
L360.89 199.588
L362.719 176.717
L367.48 64.497
L369.492 60.4641
L371.071 63.0553
L372.794 69.5258
L375.319 67.6707
L375.53 66.9696
L376.345 64.8487
L377.831 62.3136
L383.487 57.5359
L386.105 56.8901
L393.141 58.1655
L396.824 71.5765
L397.653 79.1829
L403.072 103.564
L403.085 103.492
L405.4 88.2943
L410.49 66.6997
L411.2 65.2179
L414.87 59.3134
L416.764 58.9947
L417.001 59.093
L422.051 72.6283
L427.326 61.463
L428.904 59.6492
L429.259 58.9854
L435.599 202.748
L435.625 206.253
L436.256 271.957
L436.875 299.924
L438.295 302.527
L440.492 198.956
L444.148 80.2045
L447.055 87.0652
L447.186 90.2915
L451.395 110.052
L451.409 109.646
L451.527 106.077
L452.882 78.5699
L453.145 75.8821
L455.907 75.4845
L459.313 94.6538
L460.234 98.9929
L464.18 67.6314
L465.601 60.7328
L467.179 57.9615
L469.467 56.9996
L471.611 56.9376
L486.343 57.8467
L487.5 62.5791
L488.802 72.2933
L490.039 82.8739
L491.512 98.655
L491.854 100.079
L491.867 100.061
L492.998 88.0593
L493.642 83.0791
L496.391 108.349
L497.26 119.352
L503.099 76.8587
L506.427 65.4192
L509.61 66.347
L515.161 62.4653
L515.318 62.0312
L517.489 61.4341
L518.475 61.4191
L518.738 61.956
L519.369 65.0485
L520.014 73.6216
L521.369 120.293
L522.631 131.419
L524.894 63.3284
L525.42 59.377
L529.339 56.4994
L535.705 57.1654
L541.874 84.4361
L542.913 86.3535
L543.597 86.6641
L543.847 86.5818
L544.452 85.9568
L549.345 68.1105
L550.91 63.1402
L553.541 58.6638
L564.734 56.8061
L568.851 56.8767
L578.176 56.7331
L587.409 72.0931
L589.159 96.1281
L593.762 205.333
L596.209 207.702
L596.222 207.621
L600.036 159.236
L600.72 149.233
L603.351 117.303
L621.081 56.6574
L628.841 90.704
L629.748 112.731
L632.511 59.9853
L632.76 58.7318
L633.773 57.0111
L635.062 56.9234
L636.049 57.8806
L637.232 60.3095
L638.456 66.3636
L639.061 67.4438
L639.679 67.1216
L644.059 59.3617
L649.031 57.4012
L652.911 57.9703
L659.737 58.0655
L660.105 58.1095
L667.024 68.0054
L668.773 69.2264
L669.562 68.0813
L672.311 60.4131
L672.719 59.8132
L674.284 58.9082
L674.666 58.872
L680.427 65.3274
L683.386 99.8929
L683.859 110.274
L686.871 165.917
L687.542 173.311
L692.803 149.744
L695.5 110.439
L698.88 75.4934
L699.446 72.8346
L701.261 70.9259
L701.274 70.9584
L708.087 105.373
L708.1 105.341
L708.613 103.442
L708.929 101.633
L712.086 72.8137
L720.635 63.9971
L720.648 64.0667
L721.108 67.1796
L721.792 75.669
L722.371 89.7859
L729.342 69.9626
L729.868 70.1146
L730.25 70.3113
L734.314 84.0184
L740.075 58.2229
L744.021 56.9013
L746.099 57.015
L748.282 57.8473
L749.045 58.5656
L752.11 65.0146
L752.544 67.5279
L754.438 86.372
L756.608 73.3069
L757.923 62.2255
L762.211 56.8938
L765.157 56.964
L766.657 56.9811
L771.431 57.3216
L772.681 57.6236
L773.523 57.9446
L773.523 57.9446" style="fill:none;opacity:0.5;stroke:#ff0000;stroke-linecap:square;"/>
   </g>
   <g id="line2d_5">
    <path clip-path="url(#p9fd4257182)" d="
M108.276 317.229
L108.381 319.499
L108.487 320.82
L109.052 322.371
L109.578 322.401
L111.183 321.834
L111.788 320.473
L112.012 319.177
L112.788 313.887
L112.867 314.02
L113.222 316.094
L113.892 320.44
L114.498 322.032
L114.787 322.156
L115.181 322.138
L116.812 321.835
L119.154 321.546
L119.233 321.475
L119.627 320.589
L120.693 316.307
L120.837 316.359
L120.995 316.718
L121.39 318.705
L121.863 320.729
L122.284 321.49
L122.968 321.701
L124.244 321.727
L125.243 321.691
L125.914 321.4
L126.269 320.94
L126.835 320.185
L127.19 320.231
L127.598 320.629
L128.755 322.101
L129.11 322.128
L129.544 321.679
L129.663 321.37
L129.939 320.074
L131.346 297.647
L131.36 298.098
L131.965 307.966
L132.912 296.793
L135.174 252.069
L135.713 228.235
L136.016 204.964
L136.647 147.152
L137.436 98.4294
L138.199 65.9927
L139.251 56.5317
L143.368 62.5635
L143.5 63.5003
L144.381 75.1427
L147.143 63.2544
L147.893 61.7326
L148.156 61.3767
L148.669 61.0005
L148.984 61.0493
L149.497 61.9714
L152.983 79.85
L154.877 82.4414
L154.89 82.3615
L155.127 80.6716
L157.034 58.4555
L158.31 57.1373
L160.546 60.0067
L161.401 67.9611
L162.308 84.9853
L163.005 90.2054
L165.412 66.6996
L168.056 58.0283
L171.831 63.9056
L171.91 64.74
L172.462 76.0823
L172.66 84.4213
L173.094 119.33
L174.409 239.353
L176.263 227.243
L176.987 182.787
L178.552 110.227
L180.065 79.2203
L180.709 73.1722
L182.958 64.4261
L183.59 63.7857
L186.72 65.2702
L188.509 74.6365
L190.113 89.3005
L190.903 92.5708
L190.916 92.5626
L192.244 84.0958
L196.059 76.1458
L196.072 76.2873
L196.098 76.5736
L198.202 76.6535
L198.36 73.9979
L200.307 62.8931
L200.32 62.9304
L202.004 69.3219
L202.148 70.5288
L202.688 78.037
L205.673 128.762
L205.686 128.597
L207.002 86.9343
L207.659 70.0734
L209.264 58.4351
L209.777 57.6829
L210.435 57.1409
L211.198 56.914
L213.578 57.0613
L219.931 58.7907
L222.851 69.7073
L222.864 69.531
L223.548 61.0732
L223.732 59.5661
L224.587 56.7509
L232.492 56.5528
L235.399 56.7392
L237.701 63.3532
L241.304 102.408
L242.304 104.659
L242.317 104.65
L243.896 98.5633
L248.591 79.7814
L252.932 71.4332
L254.576 65.9566
L265.032 57.194
L269.596 57.528
L274.16 57.5598
L275.62 57.0892
L276.909 56.9981
L278.277 59.2618
L279.251 87.0086
L279.264 86.9791
L280.566 57.7646
L282.276 56.7135
L283.525 72.7705
L285.077 111.841
L285.09 110.771
L285.814 65.1181
L287.8 56.4988
L292.495 56.862
L296.612 57.7502
L303.268 56.8481
L305.491 56.7767
L306.779 56.9692
L309.108 66.807
L312.711 169.652
L312.725 169.209
L313.33 142.538
L315.566 60.9203
L316.776 56.7888
L328.337 56.5474
L338.189 60.0697
L338.912 61.0824
L340.635 64.5539
L341.424 66.7041
L345.725 80.3211
L350.776 72.8129
L352.722 71.1896
L352.88 71.2163
L359.72 85.6137
L360.89 87.6372
L362.719 88.0481
L367.48 74.813
L369.492 63.7269
L371.071 58.88
L371.518 58.2157
L372.794 57.297
L375.53 57.0143
L377.831 57.1964
L383.487 57.7573
L386.105 58.4605
L393.141 74.4446
L396.824 92.1774
L397.64 93.2391
L397.653 93.2284
L403.072 85.4388
L403.085 85.4858
L404.334 89.919
L405.4 91.3966
L410.503 71.8052
L411.2 70.5081
L414.857 65.3965
L417.001 64.0752
L422.064 63.3065
L428.891 62.7201
L429.259 62.5028
L435.625 82.5108
L436.256 89.2629
L436.875 93.457
L438.308 82.9981
L440.479 64.3682
L444.161 61.1518
L447.173 62.7681
L451.409 65.156
L453.145 63.3013
L455.907 57.888
L459.313 64.8483
L460.234 81.1142
L464.18 70.706
L465.614 67.4883
L467.179 64.3067
L469.467 60.1718
L471.611 57.817
L486.356 56.5926
L487.5 61.785
L488.802 88.702
L489.933 88.3288
L490.88 72.173
L491.512 68.0297
L491.867 68.2138
L492.998 74.107
L493.642 80.4392
L496.405 132.003
L497.273 151.948
L502.455 59.0608
L503.113 57.4569
L506.414 56.7281
L509.61 57.3694
L515.318 57.0259
L517.489 58.0134
L518.475 59.9397
L518.738 60.736
L519.369 63.2001
L521.369 74.2106
L524.894 63.9806
L525.42 64.7369
L529.339 71.7053
L535.705 62.937
L541.887 65.5844
L543.584 68.2289
L543.847 68.4899
L544.452 68.7899
L549.345 59.2331
L550.91 57.7281
L553.541 56.8817
L564.458 59.0466
L564.734 59.9751
L568.851 110.979
L578.176 81.3059
L587.396 64.9451
L587.409 64.9896
L589.159 82.5532
L590.014 116.592
L593.762 304.859
L596.222 301.316
L600.036 90.6317
L600.72 71.837
L603.351 58.0952
L610.677 56.9586
L621.094 73.7939
L628.841 58.2326
L629.748 60.1044
L632.497 77.1972
L632.511 76.9713
L632.76 72.6362
L633.773 60.643
L635.062 57.1536
L636.049 56.7003
L637.232 56.7198
L638.456 57.5743
L639.061 57.8207
L639.679 57.7942
L644.059 57.4557
L652.911 57.5389
L654.884 57.2912
L657.935 57.3694
L658.922 57.8367
L659.737 58.8884
L660.105 59.8495
L667.011 117.842
L668.773 65.294
L669.562 59.6229
L672.311 56.6967
L674.284 56.5754
L674.666 56.5722
L680.413 56.8708
L683.386 63.1099
L683.873 69.3649
L686.871 174.632
L687.542 189.208
L692.803 62.9808
L694.224 58.1602
L695.5 57.1976
L698.88 57.3411
L699.446 57.5479
L708.1 107.03
L708.613 107.76
L708.929 107.813
L712.086 84.282
L720.635 78.5866
L720.648 78.6926
L721.792 89.642
L722.371 95.9439
L729.395 59.3155
L729.868 58.3849
L730.25 57.9774
L734.314 57.7585
L740.075 61.5237
L744.008 103.79
L744.021 103.715
L746.112 68.8022
L748.019 58.1371
L748.282 57.8472
L749.045 57.4718
L752.11 58.8674
L752.544 59.6862
L754.438 69.9932
L756.621 94.5741
L757.923 85.1778
L762.198 58.8027
L762.935 58.1336
L765.157 57.4055
L765.315 57.401
L766.657 57.6295
L771.418 80.2421
L773.509 122.085
L773.509 122.085" style="fill:none;opacity:0.5;stroke:#0000ff;stroke-linecap:square;"/>
   </g>
   <g id="line2d_6">
    <path clip-path="url(#p9fd4257182)" d="
M108.263 317.579
L108.487 321.393
L109.052 322.457
L109.578 322.46
L111.183 322.201
L113.892 322.071
L114.787 322.158
L115.168 321.934
L115.484 321.452
L115.773 320.732
L116.707 318.162
L116.812 318.072
L118.47 321.749
L118.825 321.785
L119.233 321.669
L120.416 321.06
L121.127 321.29
L122.968 321.717
L124.467 321.778
L125.243 321.633
L126.072 321.501
L126.835 321.526
L128.558 321.895
L129.11 321.833
L129.939 321.524
L131.36 321.43
L131.978 322.061
L132.912 314.374
L134.187 257.85
L135.174 268.269
L135.7 274.963
L135.713 274.895
L136.016 271.27
L136.647 259.671
L137.213 257.018
L137.226 257.021
L137.436 257.519
L138.199 265.321
L139.251 273.033
L143.5 74.5458
L144.381 63.2645
L147.13 73.4362
L147.143 74.197
L148.656 182.709
L148.984 192.381
L149.497 202.67
L152.983 231.106
L154.89 213.065
L155.127 207.221
L157.047 99.9341
L158.297 86.1804
L158.31 86.2821
L160.546 106.129
L161.401 104.751
L162.058 100.105
L162.203 100.267
L162.308 101.22
L163.005 121.868
L164.873 144.683
L164.886 144.616
L165.005 144.243
L165.412 146.389
L168.056 287.412
L171.923 321.605
L172.66 321.991
L173.094 322.121
L174.409 322.309
L176.263 317.512
L177 281.217
L178.552 167.304
L180.065 119.393
L180.709 104.116
L182.945 64.3433
L183.471 60.9624
L183.629 60.2753
L186.72 57.0901
L188.509 56.9648
L190.113 58.4196
L190.916 66.1176
L192.244 83.6931
L196.059 91.5094
L196.085 92.2381
L198.36 242.563
L200.307 299.899
L200.32 299.754
L200.82 287.355
L202.148 123.388
L202.688 81.7944
L205.673 65.6252
L205.686 65.6645
L207.002 70.4272
L207.659 78.5434
L209.777 142.178
L210.25 147.527
L210.264 147.508
L210.435 146.431
L211.198 128.4
L213.578 60.3649
L219.918 56.7055
L223.022 57.9888
L223.548 58.6622
L223.732 58.9669
L224.587 60.9931
L232.479 92.7946
L232.492 92.7058
L235.399 72.0257
L237.701 67.8131
L241.304 66.5513
L242.317 67.0555
L243.896 68.402
L248.604 73.2225
L252.932 75.9606
L254.576 76.5197
L265.032 65.2606
L267.229 67.1874
L269.596 72.7492
L274.147 72.7457
L274.857 80.9142
L275.62 87.8288
L276.909 97.6074
L278.277 79.002
L278.724 63.0576
L279.264 60.2212
L279.658 60.7082
L280.566 65.9629
L282.276 114.759
L283.525 68.25
L285.09 57.5014
L285.814 56.9628
L287.8 57.1355
L292.495 87.0004
L294.376 90.267
L294.389 90.1134
L295.047 79.3992
L296.612 58.9906
L303.268 57.2994
L305.491 56.9472
L306.779 57.1999
L309.108 74.6651
L312.711 216.56
L312.725 216.023
L315.566 61.7424
L316.776 56.7582
L328.337 56.5234
L338.189 56.7064
L338.912 57.0126
L340.635 59.8685
L341.424 63.4795
L342.49 72.7423
L345.725 125.687
L350.776 89.2625
L352.722 82.3417
L352.88 82.4726
L359.72 163.78
L360.89 169.996
L362.719 145.168
L367.48 64.0877
L369.492 62.9955
L371.071 64.4798
L371.518 65.451
L372.794 70.1373
L376.345 93.0822
L377.818 99.9208
L383.487 94.4317
L386.105 83.9892
L393.141 65.5549
L396.824 62.8358
L397.653 63.0868
L403.085 67.8629
L404.334 82.8576
L405.4 136.865
L410.293 68.4987
L410.503 68.2461
L411.2 67.8443
L414.87 66.8558
L417.001 61.6862
L422.064 60.0295
L427.312 62.9893
L427.326 63.0004
L428.891 62.3406
L429.246 61.3543
L435.599 190.649
L436.256 255.847
L436.875 289.266
L438.295 290.385
L438.308 290.007
L440.492 63.6968
L444.161 56.5129
L447.173 56.5328
L451.527 57.655
L452.882 60.4431
L453.145 61.7103
L455.894 96.0157
L455.907 95.9341
L459.3 72.7379
L459.313 72.764
L460.234 75.5133
L464.18 90.9268
L465.614 92.2652
L467.166 92.3928
L469.467 90.9969
L471.611 88.1055
L486.343 56.5001
L487.487 58.865
L488.802 119.74
L489.947 101.316
L490.446 76.2938
L490.88 65.4888
L491.512 60.6736
L491.867 60.5805
L492.998 71.2306
L493.642 93.2846
L496.391 286.026
L496.405 285.603
L497.273 247.031
L502.455 80.8756
L503.113 75.5229
L506.427 61.5166
L509.597 57.2869
L515.318 56.5762
L517.489 62.2865
L518.738 68.5775
L519.369 69.5923
L520.014 69.5024
L521.369 68.7604
L522.645 67.911
L525.42 66.4043
L529.326 67.2088
L535.692 61.9417
L541.874 56.985
L543.847 56.7256
L544.452 56.6997
L549.345 58.2238
L550.687 62.6307
L550.91 64.1179
L553.541 127.858
L564.444 58.8349
L564.721 58.2006
L568.851 56.8352
L578.163 57.6375
L587.409 105.988
L590.014 143.628
L593.762 181.552
L596.209 187.716
L596.222 187.707
L599.852 168.153
L600.72 158.556
L603.351 121.673
L610.677 60.0138
L621.094 58.2765
L628.828 75.2487
L628.841 75.2046
L629.748 70.4006
L632.497 62.7089
L632.511 62.7205
L632.76 63.0191
L633.773 66.3729
L635.062 80.8187
L636.036 90.1252
L637.232 87.8688
L639.061 69.4205
L639.679 65.7835
L644.059 59.351
L649.031 57.5808
L649.951 57.7539
L652.911 58.0366
L654.884 57.8168
L657.935 58.2008
L658.908 59.0052
L659.737 60.6281
L660.105 61.9519
L667.011 118.882
L668.773 66.9169
L669.562 60.7127
L672.311 56.8548
L672.719 56.7757
L674.666 56.631
L680.427 56.6575
L683.386 59.921
L683.873 65.0844
L686.871 217.683
L687.542 239.379
L692.803 122.627
L694.224 86.7101
L695.5 73.6853
L698.88 67.094
L699.446 66.7955
L701.261 67.0777
L708.1 87.9714
L708.613 88.6705
L708.929 88.7556
L712.086 79.7491
L720.635 83.4922
L721.108 89.2993
L721.792 94.2591
L722.371 92.174
L729.342 57.9081
L729.868 57.7004
L730.25 57.6229
L734.314 58.3302
L740.075 58.0977
L744.021 58.3287
L746.099 57.726
L749.045 57.1102
L752.544 57.1893
L754.438 57.558
L756.608 60.8941
L757.923 69.7239
L762.935 66.9066
L766.657 62.8396
L773.523 58.5388
L773.523 58.5388" style="fill:none;opacity:0.5;stroke:#ff0000;stroke-linecap:square;"/>
   </g>
   <g id="line2d_7">
    <path clip-path="url(#p9fd4257182)" d="
M108.276 320.605
L108.381 321.72
L108.487 322.201
L109.052 322.46
L109.578 322.455
L110.828 321.471
L111.183 321.55
L112.012 321.853
L113.222 321.999
L114.576 322.012
L115.773 322.08
L119.496 321.95
L120.009 321.718
L120.942 320.966
L121.311 320.288
L121.692 319.068
L121.863 318.211
L122.205 314.592
L122.836 305.448
L122.968 305.73
L124.244 321.197
L124.586 321.942
L124.849 322.137
L125.243 322.182
L125.585 322.017
L126.44 321.162
L127.19 320.135
L127.466 320.204
L127.756 320.522
L128.558 321.417
L129.11 321.746
L129.663 321.674
L129.939 321.271
L131.346 311.383
L131.978 304.627
L132.912 287.329
L134.187 254.563
L135.174 236.1
L135.713 222.595
L136.016 209.072
L138.16 72.5542
L138.199 71.4021
L139.238 60.034
L143.5 57.3688
L144.381 57.7441
L147.143 65.1267
L148.984 75.1453
L149.497 76.4695
L152.983 58.1929
L154.89 56.7356
L155.127 56.7622
L157.047 63.1185
L158.31 98.8388
L160.533 102.387
L161.401 75.8385
L162.058 66.2423
L162.308 64.6953
L163.018 66.0755
L164.873 79.5911
L164.886 79.107
L165.412 61.6465
L168.056 56.5185
L171.91 190.4
L172.462 228.623
L172.646 238.529
L173.08 255.576
L174.396 263.033
L174.409 262.818
L176.25 139.822
L176.987 77.8275
L178.552 56.9302
L180.065 57.2349
L180.709 61.9456
L182.945 139.143
L182.958 136.194
L183.182 93.2056
L183.59 61.073
L183.642 59.8303
L186.72 56.4996
L188.509 56.5075
L190.113 56.8024
L190.916 57.1892
L192.244 58.9496
L196.059 77.9011
L196.098 77.7226
L198.36 67.1353
L200.702 96.6184
L200.82 96.3349
L202.148 70.6526
L202.688 65.2369
L205.673 63.7586
L205.686 63.7997
L207.002 65.8672
L207.659 66.0532
L209.264 66.2497
L209.777 66.1069
L210.435 65.6162
L211.198 64.5647
L213.578 59.2005
L219.918 67.2
L219.931 67.5239
L222.851 134.07
L222.864 132.772
L223.548 74.7448
L223.732 66.7431
L224.587 56.7786
L232.492 56.8885
L235.399 56.6277
L237.701 56.5847
L241.304 60.559
L242.317 65.0689
L243.896 72.6518
L248.604 77.0232
L252.932 87.4855
L254.576 94.8928
L265.019 160.406
L267.242 60.4145
L269.596 56.6001
L274.857 57.1744
L275.62 57.0215
L276.909 56.9027
L278.277 56.9577
L278.724 57.5124
L279.264 61.1458
L279.658 68.1329
L280.566 98.9363
L282.276 90.2765
L283.525 64.2323
L285.09 57.715
L285.814 56.9725
L287.8 57.2186
L292.482 111.227
L292.495 111.193
L294.389 88.4974
L295.047 76.3936
L296.612 59.2139
L303.255 61.2906
L305.491 66.8885
L306.779 75.2667
L309.108 113.958
L312.711 170.587
L312.725 170.55
L313.33 167.46
L316.776 130.434
L328.337 111.096
L338.189 74.0572
L338.912 74.1188
L340.635 75.1399
L342.49 76.9861
L345.725 78.7943
L350.776 74.5859
L352.722 74.9974
L352.88 75.1589
L359.72 252.142
L360.89 236.845
L362.719 103.768
L367.48 57.1573
L369.492 56.8882
L372.794 56.8034
L376.345 56.9203
L377.818 57.0867
L383.474 61.8039
L386.105 70.3936
L396.824 87.8894
L397.653 89.9356
L403.085 67.9744
L404.334 63.7623
L405.4 62.616
L410.28 78.6243
L410.293 78.5839
L410.503 77.6546
L411.2 72.7248
L414.857 60.7424
L416.751 58.5792
L416.987 58.5123
L422.064 61.6561
L426.773 62.6724
L427.312 62.0987
L429.259 60.7544
L435.625 58.6576
L436.256 60.3342
L436.875 67.7575
L438.308 152.836
L440.479 78.7505
L444.148 57.0326
L444.161 57.039
L447.186 59.1203
L451.395 71.8455
L451.409 71.8313
L451.527 71.6942
L453.145 69.2028
L455.907 80.2568
L459.3 103.666
L459.313 102.967
L460.234 71.1684
L464.18 56.8361
L465.614 56.7191
L467.179 56.74
L469.467 57.6649
L471.309 67.0903
L471.611 72.1181
L486.356 56.4987
L487.487 56.4998
L488.802 68.56
L489.933 138.413
L489.947 138.135
L490.039 135.131
L490.88 77.1823
L491.512 60.8014
L491.867 58.6713
L492.998 57.9434
L493.642 58.5922
L496.405 106.899
L497.273 145.299
L502.455 72.6245
L503.113 66.8202
L506.427 60.0672
L509.61 59.3239
L515.318 65.4071
L517.489 70.7652
L518.475 75.7601
L518.738 77.8704
L519.369 87.2353
L520.014 102.8
L521.356 123.593
L521.369 123.483
L522.631 96.994
L524.907 77.8222
L525.42 77.1025
L529.339 71.0386
L535.692 74.7021
L541.887 70.638
L542.913 70.717
L543.847 70.9865
L544.452 71.2483
L549.345 73.0218
L550.91 71.6104
L553.541 68.3979
L564.734 70.3412
L568.851 74.4427
L578.176 60.3762
L587.409 63.1385
L589.159 75.6585
L590.014 91.6672
L593.762 240.387
L596.209 241.085
L596.222 240.804
L600.036 122.473
L600.72 112.509
L603.351 85.8534
L610.664 73.0807
L610.677 73.1077
L621.081 85.2537
L621.094 85.1941
L628.841 59.8585
L629.748 60.3337
L632.497 74.9937
L632.511 74.9057
L632.76 72.8804
L633.773 62.6378
L635.062 58.125
L636.049 57.3444
L637.232 57.058
L639.679 57.3619
L644.059 62.7376
L649.017 88.6579
L649.031 88.4644
L649.951 77.8298
L652.911 64.6317
L657.935 58.3936
L659.737 57.7799
L660.105 57.7075
L667.024 57.0287
L669.549 56.9923
L672.719 57.5605
L674.284 58.6605
L674.666 59.105
L680.427 79.7514
L683.873 101.472
L686.871 111.62
L687.542 110.933
L692.79 74.8686
L694.224 67.2439
L695.5 62.9191
L698.867 60.2313
L699.432 60.8711
L701.274 66.534
L708.087 135.58
L708.1 135.289
L708.929 112.816
L711.77 60.5791
L712.086 59.4518
L720.648 122.419
L721.108 144.645
L721.792 123.994
L722.371 73.5023
L729.329 56.796
L730.25 56.9244
L734.314 57.1617
L740.075 71.4839
L744.021 87.3585
L746.112 89.6712
L748.282 89.6604
L749.045 89.5225
L752.544 93.1825
L754.438 90.8622
L756.621 85.4807
L757.923 82.744
L762.211 74.0159
L762.935 71.317
L765.315 63.9195
L766.657 61.1131
L771.418 57.4796
L773.509 57.0505
L773.509 57.0505" style="fill:none;opacity:0.5;stroke:#0000ff;stroke-linecap:square;"/>
   </g>
   <g id="line2d_8">
    <path clip-path="url(#p9fd4257182)" d="
M108.263 297.688
L108.487 305.518
L109.052 315.062
L109.578 318.085
L110.828 320.98
L111.183 321.348
L112.012 321.57
L113.222 321.476
L113.892 321.5
L115.773 322.021
L116.812 322.024
L118.614 321.928
L119.614 321.905
L120.009 321.664
L120.942 320.938
L121.324 321.019
L121.863 321.335
L122.284 321.75
L122.968 322.022
L125.243 321.605
L125.585 321.092
L126.269 319.607
L126.69 319.399
L127.124 319.231
L127.466 318.707
L128.058 317.43
L128.479 315.92
L128.755 313.568
L129.11 309.461
L129.531 308.546
L129.544 308.618
L131.36 319.851
L131.978 318.687
L134.187 279.676
L135.174 255.174
L135.7 237.108
L136.002 222.813
L137.213 139.624
L137.423 124.18
L138.186 80.7928
L139.251 59.6548
L143.5 56.7184
L144.381 57.2289
L147.13 70.6805
L148.984 63.9984
L149.497 62.7119
L152.996 65.6343
L155.127 83.3277
L157.047 63.2268
L158.31 58.3703
L160.546 57.5847
L162.308 57.2859
L165.399 57.2256
L168.056 58.8586
L172.66 217.995
L173.094 226.549
L174.396 234.363
L174.409 234.26
L176.263 137.155
L176.987 78.1207
L178.552 56.6668
L180.696 56.5657
L183.629 56.6731
L186.72 58.2099
L190.113 57.888
L190.916 57.9045
L192.244 58.1379
L196.098 58.6418
L198.36 57.8494
L200.32 61.0989
L200.82 63.8154
L202.148 77.913
L202.688 82.0094
L205.686 71.1863
L207.002 78.485
L207.659 101.609
L209.264 83.3509
L209.777 70.1377
L210.435 61.5174
L211.198 58.0002
L213.578 56.6299
L219.931 57.5455
L222.864 75.8006
L223.075 81.0454
L223.548 97.757
L223.732 106.298
L224.587 158.01
L232.492 59.0184
L235.399 56.9141
L237.701 57.4976
L241.304 63.397
L242.317 66.3807
L243.896 71.4934
L248.604 84.1539
L252.932 86.0165
L253.694 84.7193
L254.576 82.6712
L265.032 57.1161
L267.229 57.2849
L269.596 58.6424
L274.16 59.2619
L275.607 96.9534
L275.62 96.7338
L276.909 60.2398
L278.277 62.5003
L278.724 65.5639
L279.658 68.1149
L282.276 56.6129
L283.525 56.5728
L285.09 61.9708
L287.787 88.9811
L287.8 88.9576
L292.495 59.8278
L294.389 57.4217
L295.047 57.2074
L296.612 57.0043
L303.268 57.4577
L305.491 59.0041
L306.779 62.0737
L309.108 91.7247
L312.711 150.328
L312.725 149.896
L313.33 126.466
L315.566 61.3418
L316.776 56.9208
L328.337 56.4997
L342.49 57.1061
L345.725 57.5386
L350.776 61.3512
L352.722 70.2369
L352.88 71.6548
L359.72 241.652
L360.877 242.387
L360.89 241.968
L362.719 70.6844
L367.48 57.0191
L369.492 56.7847
L371.071 58.2903
L371.518 61.5627
L372.794 86.0928
L375.53 58.5832
L376.345 56.8784
L377.831 56.7971
L386.105 57.2657
L393.128 57.2924
L396.824 57.1894
L397.653 57.3034
L403.085 65.6483
L404.334 73.0096
L405.4 80.8691
L410.503 73.6238
L411.003 73.9335
L411.2 74.5348
L414.857 90.2123
L414.87 90.0074
L416.764 67.4564
L417.001 66.232
L426.786 67.1832
L427.326 70.0114
L428.891 79.8933
L429.259 80.2535
L435.586 70.4204
L435.625 70.5228
L436.875 74.1367
L438.295 84.0777
L440.479 110.884
L440.492 110.867
L444.161 61.5001
L447.186 57.9713
L451.409 61.6887
L451.527 62.2195
L453.145 73.2478
L455.907 67.7138
L459.313 57.4355
L460.234 57.4351
L464.18 62.6349
L465.614 68.7167
L467.179 76.703
L469.467 86.3046
L471.309 88.5394
L471.611 88.4005
L486.356 57.2639
L487.487 56.9759
L488.789 56.9843
L490.039 57.3133
L490.446 57.8292
L490.88 59.2673
L491.512 65.2372
L491.867 71.4653
L492.998 88.3853
L493.642 93.3416
L496.405 182.223
L497.141 175.916
L497.273 173.51
L502.455 61.2852
L503.113 59.0987
L506.427 57.0532
L509.61 56.8845
L515.318 57.2009
L517.489 63.6439
L518.738 73.5515
L519.369 76.6772
L520.014 74.703
L521.369 62.9053
L522.645 60.5052
L524.907 72.364
L525.433 76.5308
L529.339 177.553
L535.705 108.829
L541.887 79.7822
L542.913 77.7435
L543.847 75.4691
L549.345 59.644
L550.897 57.9692
L553.541 56.9706
L564.734 57.2385
L568.851 56.8413
L578.176 56.4998
L587.409 59.319
L589.159 73.5861
L590.014 90.9781
L593.762 209.305
L596.209 224.209
L596.222 224.129
L600.036 129.825
L600.72 108.787
L603.351 66.8209
L610.664 56.5138
L621.094 60.0403
L628.828 87.9284
L628.841 87.7902
L629.748 77.1948
L632.511 63.1654
L632.76 63.0974
L633.773 71.6921
L635.062 101.736
L636.049 86.8296
L637.232 74.6047
L638.456 72.4819
L639.061 71.1449
L639.679 70.2036
L644.059 68.3261
L649.031 57.9675
L649.951 57.7237
L652.911 57.3943
L654.884 57.4594
L660.105 57.8672
L668.76 57.0383
L669.549 57.0336
L674.666 56.6751
L680.413 56.757
L683.386 61.5718
L683.873 65.173
L686.871 155.092
L687.542 179.459
L692.803 86.2248
L694.224 70.2295
L695.5 66.3272
L698.88 100.55
L699.446 116.951
L701.274 161.175
L708.613 72.0659
L708.929 69.2787
L711.77 57.9629
L712.086 57.652
L720.635 88.6973
L721.108 107.858
L721.792 100.107
L722.371 67.9677
L729.342 56.8689
L730.25 57.0636
L734.301 57.4101
L740.075 61.0165
L744.008 101.116
L744.021 101.089
L748.269 63.105
L748.282 63.0415
L749.045 60.1891
L752.11 57.5684
L754.438 57.4076
L766.657 57.1442
L773.523 57.8813
L773.523 57.8813" style="fill:none;opacity:0.5;stroke:#0000ff;stroke-linecap:square;"/>
   </g>
   <g id="patch_9">
    <path d="
M108 43.2
L777.6 43.2" style="fill:none;stroke:#000000;stroke-linecap:square;stroke-linejoin:miter;"/>
   </g>
   <g id="patch_10">
    <path d="
M777.6 322.473
L777.6 43.2" style="fill:none;stroke:#000000;stroke-linecap:square;stroke-linejoin:miter;"/>
   </g>
   <g id="patch_11">
    <path d="
M108 322.473
L777.6 322.473" style="fill:none;stroke:#000000;stroke-linecap:square;stroke-linejoin:miter;"/>
   </g>
   <g id="patch_12">
    <path d="
M108 322.473
L108 43.2" style="fill:none;stroke:#000000;stroke-linecap:square;stroke-linejoin:miter;"/>
   </g>
   <g id="matplotlib.axis_1">
    <g id="ytick_1">
     <g id="line2d_9">
      <defs>
       <path d="
M0 0
L4 0" id="m728421d6d4" style="stroke:#000000;stroke-width:0.5;"/>
      </defs>
      <g>
       <use style="stroke:#000000;stroke-width:0.5;" x="108.0" xlink:href="#m728421d6d4" y="322.472727273"/>
      </g>
     </g>
     <g id="line2d_10">
      <defs>
       <path d="
M0 0
L-4 0" id="mcb0005524f" style="stroke:#000000;stroke-width:0.5;"/>
      </defs>
      <g>
       <use style="stroke:#000000;stroke-width:0.5;" x="777.6" xlink:href="#mcb0005524f" y="322.472727273"/>
      </g>
     </g>
     <g id="text_1">
      <!-- 0 -->
      <defs>
       <path d="
M31.7812 66.4062
Q24.1719 66.4062 20.3281 58.9062
Q16.5 51.4219 16.5 36.375
Q16.5 21.3906 20.3281 13.8906
Q24.1719 6.39062 31.7812 6.39062
Q39.4531 6.39062 43.2812 13.8906
Q47.125 21.3906 47.125 36.375
Q47.125 51.4219 43.2812 58.9062
Q39.4531 66.4062 31.7812 66.4062
M31.7812 74.2188
Q44.0469 74.2188 50.5156 64.5156
Q56.9844 54.8281 56.9844 36.375
Q56.9844 17.9688 50.5156 8.26562
Q44.0469 -1.42188 31.7812 -1.42188
Q19.5312 -1.42188 13.0625 8.26562
Q6.59375 17.9688 6.59375 36.375
Q6.59375 54.8281 13.0625 64.5156
Q19.5312 74.2188 31.7812 74.2188" id="DejaVuSans-30"/>
      </defs>
      <g transform="translate(97.953125 325.783977273)scale(0.12 -0.12)">
       <use xlink:href="#DejaVuSans-30"/>
      </g>
     </g>
    </g>
    <g id="ytick_2">
     <g id="line2d_11">
      <g>
       <use style="stroke:#000000;stroke-width:0.5;" x="108.0" xlink:href="#m728421d6d4" y="269.277922078"/>
      </g>
     </g>
     <g id="line2d_12">
      <g>
       <use style="stroke:#000000;stroke-width:0.5;" x="777.6" xlink:href="#mcb0005524f" y="269.277922078"/>
      </g>
     </g>
     <g id="text_2">
      <!-- 20 -->
      <defs>
       <path d="
M19.1875 8.29688
L53.6094 8.29688
L53.6094 0
L7.32812 0
L7.32812 8.29688
Q12.9375 14.1094 22.625 23.8906
Q32.3281 33.6875 34.8125 36.5312
Q39.5469 41.8438 41.4219 45.5312
Q43.3125 49.2188 43.3125 52.7812
Q43.3125 58.5938 39.2344 62.25
Q35.1562 65.9219 28.6094 65.9219
Q23.9688 65.9219 18.8125 64.3125
Q13.6719 62.7031 7.8125 59.4219
L7.8125 69.3906
Q13.7656 71.7812 18.9375 73
Q24.125 74.2188 28.4219 74.2188
Q39.75 74.2188 46.4844 68.5469
Q53.2188 62.8906 53.2188 53.4219
Q53.2188 48.9219 51.5312 44.8906
Q49.8594 40.875 45.4062 35.4062
Q44.1875 33.9844 37.6406 27.2188
Q31.1094 20.4531 19.1875 8.29688" id="DejaVuSans-32"/>
      </defs>
      <g transform="translate(90.40625 272.589172078)scale(0.12 -0.12)">
       <use xlink:href="#DejaVuSans-32"/>
       <use x="63.623046875" xlink:href="#DejaVuSans-30"/>
      </g>
     </g>
    </g>
    <g id="ytick_3">
     <g id="line2d_13">
      <g>
       <use style="stroke:#000000;stroke-width:0.5;" x="108.0" xlink:href="#m728421d6d4" y="216.083116883"/>
      </g>
     </g>
     <g id="line2d_14">
      <g>
       <use style="stroke:#000000;stroke-width:0.5;" x="777.6" xlink:href="#mcb0005524f" y="216.083116883"/>
      </g>
     </g>
     <g id="text_3">
      <!-- 40 -->
      <defs>
       <path d="
M37.7969 64.3125
L12.8906 25.3906
L37.7969 25.3906
z

M35.2031 72.9062
L47.6094 72.9062
L47.6094 25.3906
L58.0156 25.3906
L58.0156 17.1875
L47.6094 17.1875
L47.6094 0
L37.7969 0
L37.7969 17.1875
L4.89062 17.1875
L4.89062 26.7031
z
" id="DejaVuSans-34"/>
      </defs>
      <g transform="translate(90.11375 219.394366883)scale(0.12 -0.12)">
       <use xlink:href="#DejaVuSans-34"/>
       <use x="63.623046875" xlink:href="#DejaVuSans-30"/>
      </g>
     </g>
    </g>
    <g id="ytick_4">
     <g id="line2d_15">
      <g>
       <use style="stroke:#000000;stroke-width:0.5;" x="108.0" xlink:href="#m728421d6d4" y="162.888311688"/>
      </g>
     </g>
     <g id="line2d_16">
      <g>
       <use style="stroke:#000000;stroke-width:0.5;" x="777.6" xlink:href="#mcb0005524f" y="162.888311688"/>
      </g>
     </g>
     <g id="text_4">
      <!-- 60 -->
      <defs>
       <path d="
M33.0156 40.375
Q26.375 40.375 22.4844 35.8281
Q18.6094 31.2969 18.6094 23.3906
Q18.6094 15.5312 22.4844 10.9531
Q26.375 6.39062 33.0156 6.39062
Q39.6562 6.39062 43.5312 10.9531
Q47.4062 15.5312 47.4062 23.3906
Q47.4062 31.2969 43.5312 35.8281
Q39.6562 40.375 33.0156 40.375
M52.5938 71.2969
L52.5938 62.3125
Q48.875 64.0625 45.0938 64.9844
Q41.3125 65.9219 37.5938 65.9219
Q27.8281 65.9219 22.6719 59.3281
Q17.5312 52.7344 16.7969 39.4062
Q19.6719 43.6562 24.0156 45.9219
Q28.375 48.1875 33.5938 48.1875
Q44.5781 48.1875 50.9531 41.5156
Q57.3281 34.8594 57.3281 23.3906
Q57.3281 12.1562 50.6875 5.35938
Q44.0469 -1.42188 33.0156 -1.42188
Q20.3594 -1.42188 13.6719 8.26562
Q6.98438 17.9688 6.98438 36.375
Q6.98438 53.6562 15.1875 63.9375
Q23.3906 74.2188 37.2031 74.2188
Q40.9219 74.2188 44.7031 73.4844
Q48.4844 72.75 52.5938 71.2969" id="DejaVuSans-36"/>
      </defs>
      <g transform="translate(90.365 166.199561688)scale(0.12 -0.12)">
       <use xlink:href="#DejaVuSans-36"/>
       <use x="63.623046875" xlink:href="#DejaVuSans-30"/>
      </g>
     </g>
    </g>
    <g id="ytick_5">
     <g id="line2d_17">
      <g>
       <use style="stroke:#000000;stroke-width:0.5;" x="108.0" xlink:href="#m728421d6d4" y="109.693506494"/>
      </g>
     </g>
     <g id="line2d_18">
      <g>
       <use style="stroke:#000000;stroke-width:0.5;" x="777.6" xlink:href="#mcb0005524f" y="109.693506494"/>
      </g>
     </g>
     <g id="text_5">
      <!-- 80 -->
      <defs>
       <path d="
M31.7812 34.625
Q24.75 34.625 20.7188 30.8594
Q16.7031 27.0938 16.7031 20.5156
Q16.7031 13.9219 20.7188 10.1562
Q24.75 6.39062 31.7812 6.39062
Q38.8125 6.39062 42.8594 10.1719
Q46.9219 13.9688 46.9219 20.5156
Q46.9219 27.0938 42.8906 30.8594
Q38.875 34.625 31.7812 34.625
M21.9219 38.8125
Q15.5781 40.375 12.0312 44.7188
Q8.5 49.0781 8.5 55.3281
Q8.5 64.0625 14.7188 69.1406
Q20.9531 74.2188 31.7812 74.2188
Q42.6719 74.2188 48.875 69.1406
Q55.0781 64.0625 55.0781 55.3281
Q55.0781 49.0781 51.5312 44.7188
Q48 40.375 41.7031 38.8125
Q48.8281 37.1562 52.7969 32.3125
Q56.7812 27.4844 56.7812 20.5156
Q56.7812 9.90625 50.3125 4.23438
Q43.8438 -1.42188 31.7812 -1.42188
Q19.7344 -1.42188 13.25 4.23438
Q6.78125 9.90625 6.78125 20.5156
Q6.78125 27.4844 10.7812 32.3125
Q14.7969 37.1562 21.9219 38.8125
M18.3125 54.3906
Q18.3125 48.7344 21.8438 45.5625
Q25.3906 42.3906 31.7812 42.3906
Q38.1406 42.3906 41.7188 45.5625
Q45.3125 48.7344 45.3125 54.3906
Q45.3125 60.0625 41.7188 63.2344
Q38.1406 66.4062 31.7812 66.4062
Q25.3906 66.4062 21.8438 63.2344
Q18.3125 60.0625 18.3125 54.3906" id="DejaVuSans-38"/>
      </defs>
      <g transform="translate(90.340625 113.004756494)scale(0.12 -0.12)">
       <use xlink:href="#DejaVuSans-38"/>
       <use x="63.623046875" xlink:href="#DejaVuSans-30"/>
      </g>
     </g>
    </g>
    <g id="ytick_6">
     <g id="line2d_19">
      <g>
       <use style="stroke:#000000;stroke-width:0.5;" x="108.0" xlink:href="#m728421d6d4" y="56.4987012987"/>
      </g>
     </g>
     <g id="line2d_20">
      <g>
       <use style="stroke:#000000;stroke-width:0.5;" x="777.6" xlink:href="#mcb0005524f" y="56.4987012987"/>
      </g>
     </g>
     <g id="text_6">
      <!-- 100 -->
      <defs>
       <path d="
M12.4062 8.29688
L28.5156 8.29688
L28.5156 63.9219
L10.9844 60.4062
L10.9844 69.3906
L28.4219 72.9062
L38.2812 72.9062
L38.2812 8.29688
L54.3906 8.29688
L54.3906 0
L12.4062 0
z
" id="DejaVuSans-31"/>
      </defs>
      <g transform="translate(83.21 59.8099512987)scale(0.12 -0.12)">
       <use xlink:href="#DejaVuSans-31"/>
       <use x="63.623046875" xlink:href="#DejaVuSans-30"/>
       <use x="127.24609375" xlink:href="#DejaVuSans-30"/>
      </g>
     </g>
    </g>
    <g id="text_7">
     <!-- Methylation -->
     <defs>
      <path d="
M9.8125 72.9062
L24.5156 72.9062
L43.1094 23.2969
L61.8125 72.9062
L76.5156 72.9062
L76.5156 0
L66.8906 0
L66.8906 64.0156
L48.0938 14.0156
L38.1875 14.0156
L19.3906 64.0156
L19.3906 0
L9.8125 0
z
" id="DejaVuSans-4d"/>
      <path d="
M30.6094 48.3906
Q23.3906 48.3906 19.1875 42.75
Q14.9844 37.1094 14.9844 27.2969
Q14.9844 17.4844 19.1562 11.8438
Q23.3438 6.20312 30.6094 6.20312
Q37.7969 6.20312 41.9844 11.8594
Q46.1875 17.5312 46.1875 27.2969
Q46.1875 37.0156 41.9844 42.7031
Q37.7969 48.3906 30.6094 48.3906
M30.6094 56
Q42.3281 56 49.0156 48.375
Q55.7188 40.7656 55.7188 27.2969
Q55.7188 13.875 49.0156 6.21875
Q42.3281 -1.42188 30.6094 -1.42188
Q18.8438 -1.42188 12.1719 6.21875
Q5.51562 13.875 5.51562 27.2969
Q5.51562 40.7656 12.1719 48.375
Q18.8438 56 30.6094 56" id="DejaVuSans-6f"/>
      <path d="
M54.8906 33.0156
L54.8906 0
L45.9062 0
L45.9062 32.7188
Q45.9062 40.4844 42.875 44.3281
Q39.8438 48.1875 33.7969 48.1875
Q26.5156 48.1875 22.3125 43.5469
Q18.1094 38.9219 18.1094 30.9062
L18.1094 0
L9.07812 0
L9.07812 54.6875
L18.1094 54.6875
L18.1094 46.1875
Q21.3438 51.125 25.7031 53.5625
Q30.0781 56 35.7969 56
Q45.2188 56 50.0469 50.1719
Q54.8906 44.3438 54.8906 33.0156" id="DejaVuSans-6e"/>
      <path d="
M9.42188 75.9844
L18.4062 75.9844
L18.4062 0
L9.42188 0
z
" id="DejaVuSans-6c"/>
      <path d="
M32.1719 -5.07812
Q28.375 -14.8438 24.75 -17.8125
Q21.1406 -20.7969 15.0938 -20.7969
L7.90625 -20.7969
L7.90625 -13.2812
L13.1875 -13.2812
Q16.8906 -13.2812 18.9375 -11.5156
Q21 -9.76562 23.4844 -3.21875
L25.0938 0.875
L2.98438 54.6875
L12.5 54.6875
L29.5938 11.9219
L46.6875 54.6875
L56.2031 54.6875
z
" id="DejaVuSans-79"/>
      <path d="
M54.8906 33.0156
L54.8906 0
L45.9062 0
L45.9062 32.7188
Q45.9062 40.4844 42.875 44.3281
Q39.8438 48.1875 33.7969 48.1875
Q26.5156 48.1875 22.3125 43.5469
Q18.1094 38.9219 18.1094 30.9062
L18.1094 0
L9.07812 0
L9.07812 75.9844
L18.1094 75.9844
L18.1094 46.1875
Q21.3438 51.125 25.7031 53.5625
Q30.0781 56 35.7969 56
Q45.2188 56 50.0469 50.1719
Q54.8906 44.3438 54.8906 33.0156" id="DejaVuSans-68"/>
      <path d="
M9.42188 54.6875
L18.4062 54.6875
L18.4062 0
L9.42188 0
z

M9.42188 75.9844
L18.4062 75.9844
L18.4062 64.5938
L9.42188 64.5938
z
" id="DejaVuSans-69"/>
      <path d="
M18.3125 70.2188
L18.3125 54.6875
L36.8125 54.6875
L36.8125 47.7031
L18.3125 47.7031
L18.3125 18.0156
Q18.3125 11.3281 20.1406 9.42188
Q21.9688 7.51562 27.5938 7.51562
L36.8125 7.51562
L36.8125 0
L27.5938 0
Q17.1875 0 13.2344 3.875
Q9.28125 7.76562 9.28125 18.0156
L9.28125 47.7031
L2.6875 47.7031
L2.6875 54.6875
L9.28125 54.6875
L9.28125 70.2188
z
" id="DejaVuSans-74"/>
      <path d="
M56.2031 29.5938
L56.2031 25.2031
L14.8906 25.2031
Q15.4844 15.9219 20.4844 11.0625
Q25.4844 6.20312 34.4219 6.20312
Q39.5938 6.20312 44.4531 7.46875
Q49.3125 8.73438 54.1094 11.2812
L54.1094 2.78125
Q49.2656 0.734375 44.1875 -0.34375
Q39.1094 -1.42188 33.8906 -1.42188
Q20.7969 -1.42188 13.1562 6.1875
Q5.51562 13.8125 5.51562 26.8125
Q5.51562 40.2344 12.7656 48.1094
Q20.0156 56 32.3281 56
Q43.3594 56 49.7812 48.8906
Q56.2031 41.7969 56.2031 29.5938
M47.2188 32.2344
Q47.125 39.5938 43.0938 43.9844
Q39.0625 48.3906 32.4219 48.3906
Q24.9062 48.3906 20.3906 44.1406
Q15.875 39.8906 15.1875 32.1719
z
" id="DejaVuSans-65"/>
      <path d="
M34.2812 27.4844
Q23.3906 27.4844 19.1875 25
Q14.9844 22.5156 14.9844 16.5
Q14.9844 11.7188 18.1406 8.90625
Q21.2969 6.10938 26.7031 6.10938
Q34.1875 6.10938 38.7031 11.4062
Q43.2188 16.7031 43.2188 25.4844
L43.2188 27.4844
z

M52.2031 31.2031
L52.2031 0
L43.2188 0
L43.2188 8.29688
Q40.1406 3.32812 35.5469 0.953125
Q30.9531 -1.42188 24.3125 -1.42188
Q15.9219 -1.42188 10.9531 3.29688
Q6 8.01562 6 15.9219
Q6 25.1406 12.1719 29.8281
Q18.3594 34.5156 30.6094 34.5156
L43.2188 34.5156
L43.2188 35.4062
Q43.2188 41.6094 39.1406 45
Q35.0625 48.3906 27.6875 48.3906
Q23 48.3906 18.5469 47.2656
Q14.1094 46.1406 10.0156 43.8906
L10.0156 52.2031
Q14.9375 54.1094 19.5781 55.0469
Q24.2188 56 28.6094 56
Q40.4844 56 46.3438 49.8438
Q52.2031 43.7031 52.2031 31.2031" id="DejaVuSans-61"/>
     </defs>
     <g transform="translate(75.714375 217.149801136)rotate(-90.0)scale(0.12 -0.12)">
      <use xlink:href="#DejaVuSans-4d"/>
      <use x="86.279296875" xlink:href="#DejaVuSans-65"/>
      <use x="147.802734375" xlink:href="#DejaVuSans-74"/>
      <use x="187.01171875" xlink:href="#DejaVuSans-68"/>
      <use x="250.390625" xlink:href="#DejaVuSans-79"/>
      <use x="309.5703125" xlink:href="#DejaVuSans-6c"/>
      <use x="337.353515625" xlink:href="#DejaVuSans-61"/>
      <use x="398.6328125" xlink:href="#DejaVuSans-74"/>
      <use x="437.841796875" xlink:href="#DejaVuSans-69"/>
      <use x="465.625" xlink:href="#DejaVuSans-6f"/>
      <use x="526.806640625" xlink:href="#DejaVuSans-6e"/>
     </g>
    </g>
   </g>
  </g>
  <g id="axes_2">
   <g id="patch_13">
    <path d="
M108 388.8
L777.6 388.8
L777.6 353.891
L108 353.891
z
" style="fill:#ffffff;"/>
   </g>
   <g id="line2d_21">
    <path clip-path="url(#pc82b1f09f0)" d="
M108 371.345
L777.6 371.345" style="fill:none;stroke:#000000;stroke-linecap:square;"/>
   </g>
   <g id="line2d_22">
    <path clip-path="url(#pc82b1f09f0)" d="
M121.153 371.345
L764.447 371.345" style="fill:none;stroke:#008000;stroke-linecap:square;stroke-width:3;"/>
   </g>
   <g id="patch_14">
    <path clip-path="url(#pc82b1f09f0)" d="
M121.153 388.8
L123.31 388.8
L123.31 353.891
L121.153 353.891
z
" style="fill:#008000;"/>
   </g>
   <g id="patch_15">
    <path clip-path="url(#pc82b1f09f0)" d="
M284.959 388.8
L286.156 388.8
L286.156 353.891
L284.959 353.891
z
" style="fill:#008000;"/>
   </g>
   <g id="patch_16">
    <path clip-path="url(#pc82b1f09f0)" d="
M332.73 388.8
L334.19 388.8
L334.19 353.891
L332.73 353.891
z
" style="fill:#008000;"/>
   </g>
   <g id="patch_17">
    <path clip-path="url(#pc82b1f09f0)" d="
M611.374 388.8
L612.308 388.8
L612.308 353.891
L611.374 353.891
z
" style="fill:#008000;"/>
   </g>
   <g id="patch_18">
    <path clip-path="url(#pc82b1f09f0)" d="
M630.748 388.8
L632.155 388.8
L632.155 353.891
L630.748 353.891
z
" style="fill:#008000;"/>
   </g>
   <g id="patch_19">
    <path clip-path="url(#pc82b1f09f0)" d="
M752.228 388.8
L764.447 388.8
L764.447 353.891
L752.228 353.891
z
" style="fill:#008000;"/>
   </g>
   <g id="patch_20">
    <path d="
M108 353.891
L777.6 353.891" style="fill:none;"/>
   </g>
   <g id="patch_21">
    <path d="
M777.6 388.8
L777.6 353.891" style="fill:none;"/>
   </g>
   <g id="patch_22">
    <path d="
M108 388.8
L777.6 388.8" style="fill:none;"/>
   </g>
   <g id="patch_23">
    <path d="
M108 388.8
L108 353.891" style="fill:none;"/>
   </g>
   <g id="matplotlib.axis_2">
    <g id="xtick_1">
     <g id="line2d_23">
      <defs>
       <path d="
M0 0
L0 -4" id="m93b0483c22" style="stroke:#000000;stroke-width:0.5;"/>
      </defs>
      <g>
       <use style="stroke:#000000;stroke-width:0.5;" x="227.467614764" xlink:href="#m93b0483c22" y="388.8"/>
      </g>
     </g>
     <g id="line2d_24">
      <defs>
       <path d="
M0 0
L0 4" id="m741efc42ff" style="stroke:#000000;stroke-width:0.5;"/>
      </defs>
      <g>
       <use style="stroke:#000000;stroke-width:0.5;" x="227.467614764" xlink:href="#m741efc42ff" y="353.890909091"/>
      </g>
     </g>
     <g id="text_8">
      <!-- 1000 -->
      <g transform="translate(213.255114764 401.918125)scale(0.12 -0.12)">
       <use xlink:href="#DejaVuSans-31"/>
       <use x="63.623046875" xlink:href="#DejaVuSans-30"/>
       <use x="127.24609375" xlink:href="#DejaVuSans-30"/>
       <use x="190.869140625" xlink:href="#DejaVuSans-30"/>
      </g>
     </g>
    </g>
    <g id="xtick_2">
     <g id="line2d_25">
      <g>
       <use style="stroke:#000000;stroke-width:0.5;" x="358.996421065" xlink:href="#m93b0483c22" y="388.8"/>
      </g>
     </g>
     <g id="line2d_26">
      <g>
       <use style="stroke:#000000;stroke-width:0.5;" x="358.996421065" xlink:href="#m741efc42ff" y="353.890909091"/>
      </g>
     </g>
     <g id="text_9">
      <!-- 2000 -->
      <g transform="translate(344.564546065 401.918125)scale(0.12 -0.12)">
       <use xlink:href="#DejaVuSans-32"/>
       <use x="63.623046875" xlink:href="#DejaVuSans-30"/>
       <use x="127.24609375" xlink:href="#DejaVuSans-30"/>
       <use x="190.869140625" xlink:href="#DejaVuSans-30"/>
      </g>
     </g>
    </g>
    <g id="xtick_3">
     <g id="line2d_27">
      <g>
       <use style="stroke:#000000;stroke-width:0.5;" x="490.525227366" xlink:href="#m93b0483c22" y="388.8"/>
      </g>
     </g>
     <g id="line2d_28">
      <g>
       <use style="stroke:#000000;stroke-width:0.5;" x="490.525227366" xlink:href="#m741efc42ff" y="353.890909091"/>
      </g>
     </g>
     <g id="text_10">
      <!-- 3000 -->
      <defs>
       <path d="
M40.5781 39.3125
Q47.6562 37.7969 51.625 33
Q55.6094 28.2188 55.6094 21.1875
Q55.6094 10.4062 48.1875 4.48438
Q40.7656 -1.42188 27.0938 -1.42188
Q22.5156 -1.42188 17.6562 -0.515625
Q12.7969 0.390625 7.625 2.20312
L7.625 11.7188
Q11.7188 9.32812 16.5938 8.10938
Q21.4844 6.89062 26.8125 6.89062
Q36.0781 6.89062 40.9375 10.5469
Q45.7969 14.2031 45.7969 21.1875
Q45.7969 27.6406 41.2812 31.2656
Q36.7656 34.9062 28.7188 34.9062
L20.2188 34.9062
L20.2188 43.0156
L29.1094 43.0156
Q36.375 43.0156 40.2344 45.9219
Q44.0938 48.8281 44.0938 54.2969
Q44.0938 59.9062 40.1094 62.9062
Q36.1406 65.9219 28.7188 65.9219
Q24.6562 65.9219 20.0156 65.0312
Q15.375 64.1562 9.8125 62.3125
L9.8125 71.0938
Q15.4375 72.6562 20.3438 73.4375
Q25.25 74.2188 29.5938 74.2188
Q40.8281 74.2188 47.3594 69.1094
Q53.9062 64.0156 53.9062 55.3281
Q53.9062 49.2656 50.4375 45.0938
Q46.9688 40.9219 40.5781 39.3125" id="DejaVuSans-33"/>
      </defs>
      <g transform="translate(476.111164866 401.918125)scale(0.12 -0.12)">
       <use xlink:href="#DejaVuSans-33"/>
       <use x="63.623046875" xlink:href="#DejaVuSans-30"/>
       <use x="127.24609375" xlink:href="#DejaVuSans-30"/>
       <use x="190.869140625" xlink:href="#DejaVuSans-30"/>
      </g>
     </g>
    </g>
    <g id="xtick_4">
     <g id="line2d_29">
      <g>
       <use style="stroke:#000000;stroke-width:0.5;" x="622.054033668" xlink:href="#m93b0483c22" y="388.8"/>
      </g>
     </g>
     <g id="line2d_30">
      <g>
       <use style="stroke:#000000;stroke-width:0.5;" x="622.054033668" xlink:href="#m741efc42ff" y="353.890909091"/>
      </g>
     </g>
     <g id="text_11">
      <!-- 4000 -->
      <g transform="translate(607.475908668 401.918125)scale(0.12 -0.12)">
       <use xlink:href="#DejaVuSans-34"/>
       <use x="63.623046875" xlink:href="#DejaVuSans-30"/>
       <use x="127.24609375" xlink:href="#DejaVuSans-30"/>
       <use x="190.869140625" xlink:href="#DejaVuSans-30"/>
      </g>
     </g>
    </g>
    <g id="xtick_5">
     <g id="line2d_31">
      <g>
       <use style="stroke:#000000;stroke-width:0.5;" x="753.582839969" xlink:href="#m93b0483c22" y="388.8"/>
      </g>
     </g>
     <g id="line2d_32">
      <g>
       <use style="stroke:#000000;stroke-width:0.5;" x="753.582839969" xlink:href="#m741efc42ff" y="353.890909091"/>
      </g>
     </g>
     <g id="text_12">
      <!-- 5000 -->
      <defs>
       <path d="
M10.7969 72.9062
L49.5156 72.9062
L49.5156 64.5938
L19.8281 64.5938
L19.8281 46.7344
Q21.9688 47.4688 24.1094 47.8281
Q26.2656 48.1875 28.4219 48.1875
Q40.625 48.1875 47.75 41.5
Q54.8906 34.8125 54.8906 23.3906
Q54.8906 11.625 47.5625 5.09375
Q40.2344 -1.42188 26.9062 -1.42188
Q22.3125 -1.42188 17.5469 -0.640625
Q12.7969 0.140625 7.71875 1.70312
L7.71875 11.625
Q12.1094 9.23438 16.7969 8.0625
Q21.4844 6.89062 26.7031 6.89062
Q35.1562 6.89062 40.0781 11.3281
Q45.0156 15.7656 45.0156 23.3906
Q45.0156 31 40.0781 35.4375
Q35.1562 39.8906 26.7031 39.8906
Q22.75 39.8906 18.8125 39.0156
Q14.8906 38.1406 10.7969 36.2812
z
" id="DejaVuSans-35"/>
      </defs>
      <g transform="translate(739.174402469 401.918125)scale(0.12 -0.12)">
       <use xlink:href="#DejaVuSans-35"/>
       <use x="63.623046875" xlink:href="#DejaVuSans-30"/>
       <use x="127.24609375" xlink:href="#DejaVuSans-30"/>
       <use x="190.869140625" xlink:href="#DejaVuSans-30"/>
      </g>
     </g>
    </g>
    <g id="text_13">
     <!-- Length (bp) -->
     <defs>
      <path d="
M9.8125 72.9062
L19.6719 72.9062
L19.6719 8.29688
L55.1719 8.29688
L55.1719 0
L9.8125 0
z
" id="DejaVuSans-4c"/>
      <path id="DejaVuSans-20"/>
      <path d="
M45.4062 27.9844
Q45.4062 37.75 41.375 43.1094
Q37.3594 48.4844 30.0781 48.4844
Q22.8594 48.4844 18.8281 43.1094
Q14.7969 37.75 14.7969 27.9844
Q14.7969 18.2656 18.8281 12.8906
Q22.8594 7.51562 30.0781 7.51562
Q37.3594 7.51562 41.375 12.8906
Q45.4062 18.2656 45.4062 27.9844
M54.3906 6.78125
Q54.3906 -7.17188 48.1875 -13.9844
Q42 -20.7969 29.2031 -20.7969
Q24.4688 -20.7969 20.2656 -20.0938
Q16.0625 -19.3906 12.1094 -17.9219
L12.1094 -9.1875
Q16.0625 -11.3281 19.9219 -12.3438
Q23.7812 -13.375 27.7812 -13.375
Q36.625 -13.375 41.0156 -8.76562
Q45.4062 -4.15625 45.4062 5.17188
L45.4062 9.625
Q42.625 4.78125 38.2812 2.39062
Q33.9375 0 27.875 0
Q17.8281 0 11.6719 7.65625
Q5.51562 15.3281 5.51562 27.9844
Q5.51562 40.6719 11.6719 48.3281
Q17.8281 56 27.875 56
Q33.9375 56 38.2812 53.6094
Q42.625 51.2188 45.4062 46.3906
L45.4062 54.6875
L54.3906 54.6875
z
" id="DejaVuSans-67"/>
      <path d="
M31 75.875
Q24.4688 64.6562 21.2812 53.6562
Q18.1094 42.6719 18.1094 31.3906
Q18.1094 20.125 21.3125 9.0625
Q24.5156 -2 31 -13.1875
L23.1875 -13.1875
Q15.875 -1.70312 12.2344 9.375
Q8.59375 20.4531 8.59375 31.3906
Q8.59375 42.2812 12.2031 53.3125
Q15.8281 64.3594 23.1875 75.875
z
" id="DejaVuSans-28"/>
      <path d="
M8.01562 75.875
L15.8281 75.875
Q23.1406 64.3594 26.7812 53.3125
Q30.4219 42.2812 30.4219 31.3906
Q30.4219 20.4531 26.7812 9.375
Q23.1406 -1.70312 15.8281 -13.1875
L8.01562 -13.1875
Q14.5 -2 17.7031 9.0625
Q20.9062 20.125 20.9062 31.3906
Q20.9062 42.6719 17.7031 53.6562
Q14.5 64.6562 8.01562 75.875" id="DejaVuSans-29"/>
      <path d="
M48.6875 27.2969
Q48.6875 37.2031 44.6094 42.8438
Q40.5312 48.4844 33.4062 48.4844
Q26.2656 48.4844 22.1875 42.8438
Q18.1094 37.2031 18.1094 27.2969
Q18.1094 17.3906 22.1875 11.75
Q26.2656 6.10938 33.4062 6.10938
Q40.5312 6.10938 44.6094 11.75
Q48.6875 17.3906 48.6875 27.2969
M18.1094 46.3906
Q20.9531 51.2656 25.2656 53.625
Q29.5938 56 35.5938 56
Q45.5625 56 51.7812 48.0938
Q58.0156 40.1875 58.0156 27.2969
Q58.0156 14.4062 51.7812 6.48438
Q45.5625 -1.42188 35.5938 -1.42188
Q29.5938 -1.42188 25.2656 0.953125
Q20.9531 3.32812 18.1094 8.20312
L18.1094 0
L9.07812 0
L9.07812 75.9844
L18.1094 75.9844
z
" id="DejaVuSans-62"/>
      <path d="
M18.1094 8.20312
L18.1094 -20.7969
L9.07812 -20.7969
L9.07812 54.6875
L18.1094 54.6875
L18.1094 46.3906
Q20.9531 51.2656 25.2656 53.625
Q29.5938 56 35.5938 56
Q45.5625 56 51.7812 48.0938
Q58.0156 40.1875 58.0156 27.2969
Q58.0156 14.4062 51.7812 6.48438
Q45.5625 -1.42188 35.5938 -1.42188
Q29.5938 -1.42188 25.2656 0.953125
Q20.9531 3.32812 18.1094 8.20312
M48.6875 27.2969
Q48.6875 37.2031 44.6094 42.8438
Q40.5312 48.4844 33.4062 48.4844
Q26.2656 48.4844 22.1875 42.8438
Q18.1094 37.2031 18.1094 27.2969
Q18.1094 17.3906 22.1875 11.75
Q26.2656 6.10938 33.4062 6.10938
Q40.5312 6.10938 44.6094 11.75
Q48.6875 17.3906 48.6875 27.2969" id="DejaVuSans-70"/>
     </defs>
     <g transform="translate(408.4125 418.531875)scale(0.12 -0.12)">
      <use xlink:href="#DejaVuSans-4c"/>
      <use x="53.962890625" xlink:href="#DejaVuSans-65"/>
      <use x="115.486328125" xlink:href="#DejaVuSans-6e"/>
      <use x="178.865234375" xlink:href="#DejaVuSans-67"/>
      <use x="242.341796875" xlink:href="#DejaVuSans-74"/>
      <use x="281.55078125" xlink:href="#DejaVuSans-68"/>
      <use x="344.9296875" xlink:href="#DejaVuSans-20"/>
      <use x="376.716796875" xlink:href="#DejaVuSans-28"/>
      <use x="415.73046875" xlink:href="#DejaVuSans-62"/>
      <use x="479.20703125" xlink:href="#DejaVuSans-70"/>
      <use x="542.68359375" xlink:href="#DejaVuSans-29"/>
     </g>
     <!-- chr18:46741917-46790826 -->
     <defs>
      <path d="
M11.7188 12.4062
L22.0156 12.4062
L22.0156 0
L11.7188 0
z

M11.7188 51.7031
L22.0156 51.7031
L22.0156 39.3125
L11.7188 39.3125
z
" id="DejaVuSans-3a"/>
      <path d="
M4.89062 31.3906
L31.2031 31.3906
L31.2031 23.3906
L4.89062 23.3906
z
" id="DejaVuSans-2d"/>
      <path d="
M8.20312 72.9062
L55.0781 72.9062
L55.0781 68.7031
L28.6094 0
L18.3125 0
L43.2188 64.5938
L8.20312 64.5938
z
" id="DejaVuSans-37"/>
      <path d="
M10.9844 1.51562
L10.9844 10.5
Q14.7031 8.73438 18.5 7.8125
Q22.3125 6.89062 25.9844 6.89062
Q35.75 6.89062 40.8906 13.4531
Q46.0469 20.0156 46.7812 33.4062
Q43.9531 29.2031 39.5938 26.9531
Q35.25 24.7031 29.9844 24.7031
Q19.0469 24.7031 12.6719 31.3125
Q6.29688 37.9375 6.29688 49.4219
Q6.29688 60.6406 12.9375 67.4219
Q19.5781 74.2188 30.6094 74.2188
Q43.2656 74.2188 49.9219 64.5156
Q56.5938 54.8281 56.5938 36.375
Q56.5938 19.1406 48.4062 8.85938
Q40.2344 -1.42188 26.4219 -1.42188
Q22.7031 -1.42188 18.8906 -0.6875
Q15.0938 0.046875 10.9844 1.51562
M30.6094 32.4219
Q37.25 32.4219 41.125 36.9531
Q45.0156 41.5 45.0156 49.4219
Q45.0156 57.2812 41.125 61.8438
Q37.25 66.4062 30.6094 66.4062
Q23.9688 66.4062 20.0938 61.8438
Q16.2188 57.2812 16.2188 49.4219
Q16.2188 41.5 20.0938 36.9531
Q23.9688 32.4219 30.6094 32.4219" id="DejaVuSans-39"/>
      <path d="
M48.7812 52.5938
L48.7812 44.1875
Q44.9688 46.2969 41.1406 47.3438
Q37.3125 48.3906 33.4062 48.3906
Q24.6562 48.3906 19.8125 42.8438
Q14.9844 37.3125 14.9844 27.2969
Q14.9844 17.2812 19.8125 11.7344
Q24.6562 6.20312 33.4062 6.20312
Q37.3125 6.20312 41.1406 7.25
Q44.9688 8.29688 48.7812 10.4062
L48.7812 2.09375
Q45.0156 0.34375 40.9844 -0.53125
Q36.9688 -1.42188 32.4219 -1.42188
Q20.0625 -1.42188 12.7812 6.34375
Q5.51562 14.1094 5.51562 27.2969
Q5.51562 40.6719 12.8594 48.3281
Q20.2188 56 33.0156 56
Q37.1562 56 41.1094 55.1406
Q45.0625 54.2969 48.7812 52.5938" id="DejaVuSans-63"/>
      <path d="
M41.1094 46.2969
Q39.5938 47.1719 37.8125 47.5781
Q36.0312 48 33.8906 48
Q26.2656 48 22.1875 43.0469
Q18.1094 38.0938 18.1094 28.8125
L18.1094 0
L9.07812 0
L9.07812 54.6875
L18.1094 54.6875
L18.1094 46.1875
Q20.9531 51.1719 25.4844 53.5781
Q30.0312 56 36.5312 56
Q37.4531 56 38.5781 55.875
Q39.7031 55.7656 41.0625 55.5156
z
" id="DejaVuSans-72"/>
     </defs>
     <g transform="translate(361.0396875 431.96925)scale(0.12 -0.12)">
      <use xlink:href="#DejaVuSans-63"/>
      <use x="54.98046875" xlink:href="#DejaVuSans-68"/>
      <use x="118.359375" xlink:href="#DejaVuSans-72"/>
      <use x="159.47265625" xlink:href="#DejaVuSans-31"/>
      <use x="223.095703125" xlink:href="#DejaVuSans-38"/>
      <use x="286.71875" xlink:href="#DejaVuSans-3a"/>
      <use x="320.41015625" xlink:href="#DejaVuSans-34"/>
      <use x="384.033203125" xlink:href="#DejaVuSans-36"/>
      <use x="447.65625" xlink:href="#DejaVuSans-37"/>
      <use x="511.279296875" xlink:href="#DejaVuSans-34"/>
      <use x="574.90234375" xlink:href="#DejaVuSans-31"/>
      <use x="638.525390625" xlink:href="#DejaVuSans-39"/>
      <use x="702.1484375" xlink:href="#DejaVuSans-31"/>
      <use x="765.771484375" xlink:href="#DejaVuSans-37"/>
      <use x="829.39453125" xlink:href="#DejaVuSans-2d"/>
      <use x="865.478515625" xlink:href="#DejaVuSans-34"/>
      <use x="929.1015625" xlink:href="#DejaVuSans-36"/>
      <use x="992.724609375" xlink:href="#DejaVuSans-37"/>
      <use x="1056.34765625" xlink:href="#DejaVuSans-39"/>
      <use x="1119.97070312" xlink:href="#DejaVuSans-30"/>
      <use x="1183.59375" xlink:href="#DejaVuSans-38"/>
      <use x="1247.21679688" xlink:href="#DejaVuSans-32"/>
      <use x="1310.83984375" xlink:href="#DejaVuSans-36"/>
     </g>
    </g>
   </g>
  </g>
  <g id="text_14">
   <!-- ENSMUST00000025357 (Ap3s1) -->
   <defs>
    <path d="
M9.8125 72.9062
L23.0938 72.9062
L55.4219 11.9219
L55.4219 72.9062
L64.9844 72.9062
L64.9844 0
L51.7031 0
L19.3906 60.9844
L19.3906 0
L9.8125 0
z
" id="DejaVuSans-4e"/>
    <path d="
M9.8125 72.9062
L55.9062 72.9062
L55.9062 64.5938
L19.6719 64.5938
L19.6719 43.0156
L54.3906 43.0156
L54.3906 34.7188
L19.6719 34.7188
L19.6719 8.29688
L56.7812 8.29688
L56.7812 0
L9.8125 0
z
" id="DejaVuSans-45"/>
    <path d="
M34.1875 63.1875
L20.7969 26.9062
L47.6094 26.9062
z

M28.6094 72.9062
L39.7969 72.9062
L67.5781 0
L57.3281 0
L50.6875 18.7031
L17.8281 18.7031
L11.1875 0
L0.78125 0
z
" id="DejaVuSans-41"/>
    <path d="
M53.5156 70.5156
L53.5156 60.8906
Q47.9062 63.5781 42.9219 64.8906
Q37.9375 66.2188 33.2969 66.2188
Q25.25 66.2188 20.875 63.0938
Q16.5 59.9688 16.5 54.2031
Q16.5 49.3594 19.4062 46.8906
Q22.3125 44.4375 30.4219 42.9219
L36.375 41.7031
Q47.4062 39.5938 52.6562 34.2969
Q57.9062 29 57.9062 20.125
Q57.9062 9.51562 50.7969 4.04688
Q43.7031 -1.42188 29.9844 -1.42188
Q24.8125 -1.42188 18.9688 -0.25
Q13.1406 0.921875 6.89062 3.21875
L6.89062 13.375
Q12.8906 10.0156 18.6562 8.29688
Q24.4219 6.59375 29.9844 6.59375
Q38.4219 6.59375 43.0156 9.90625
Q47.6094 13.2344 47.6094 19.3906
Q47.6094 24.75 44.3125 27.7812
Q41.0156 30.8125 33.5 32.3281
L27.4844 33.5
Q16.4531 35.6875 11.5156 40.375
Q6.59375 45.0625 6.59375 53.4219
Q6.59375 63.0938 13.4062 68.6562
Q20.2188 74.2188 32.1719 74.2188
Q37.3125 74.2188 42.625 73.2812
Q47.9531 72.3594 53.5156 70.5156" id="DejaVuSans-53"/>
    <path d="
M44.2812 53.0781
L44.2812 44.5781
Q40.4844 46.5312 36.375 47.5
Q32.2812 48.4844 27.875 48.4844
Q21.1875 48.4844 17.8438 46.4375
Q14.5 44.3906 14.5 40.2812
Q14.5 37.1562 16.8906 35.375
Q19.2812 33.5938 26.5156 31.9844
L29.5938 31.2969
Q39.1562 29.25 43.1875 25.5156
Q47.2188 21.7812 47.2188 15.0938
Q47.2188 7.46875 41.1875 3.01562
Q35.1562 -1.42188 24.6094 -1.42188
Q20.2188 -1.42188 15.4531 -0.5625
Q10.6875 0.296875 5.42188 2
L5.42188 11.2812
Q10.4062 8.6875 15.2344 7.39062
Q20.0625 6.10938 24.8125 6.10938
Q31.1562 6.10938 34.5625 8.28125
Q37.9844 10.4531 37.9844 14.4062
Q37.9844 18.0625 35.5156 20.0156
Q33.0625 21.9688 24.7031 23.7812
L21.5781 24.5156
Q13.2344 26.2656 9.51562 29.9062
Q5.8125 33.5469 5.8125 39.8906
Q5.8125 47.6094 11.2812 51.7969
Q16.75 56 26.8125 56
Q31.7812 56 36.1719 55.2656
Q40.5781 54.5469 44.2812 53.0781" id="DejaVuSans-73"/>
    <path d="
M8.6875 72.9062
L18.6094 72.9062
L18.6094 28.6094
Q18.6094 16.8906 22.8438 11.7344
Q27.0938 6.59375 36.625 6.59375
Q46.0938 6.59375 50.3438 11.7344
Q54.5938 16.8906 54.5938 28.6094
L54.5938 72.9062
L64.5 72.9062
L64.5 27.3906
Q64.5 13.1406 57.4375 5.85938
Q50.3906 -1.42188 36.625 -1.42188
Q22.7969 -1.42188 15.7344 5.85938
Q8.6875 13.1406 8.6875 27.3906
z
" id="DejaVuSans-55"/>
    <path d="
M-0.296875 72.9062
L61.375 72.9062
L61.375 64.5938
L35.5 64.5938
L35.5 0
L25.5938 0
L25.5938 64.5938
L-0.296875 64.5938
z
" id="DejaVuSans-54"/>
   </defs>
   <g transform="translate(336.129375 17.758125)scale(0.12 -0.12)">
    <use xlink:href="#DejaVuSans-45"/>
    <use x="63.18359375" xlink:href="#DejaVuSans-4e"/>
    <use x="137.98828125" xlink:href="#DejaVuSans-53"/>
    <use x="201.46484375" xlink:href="#DejaVuSans-4d"/>
    <use x="287.744140625" xlink:href="#DejaVuSans-55"/>
    <use x="360.9375" xlink:href="#DejaVuSans-53"/>
    <use x="424.4140625" xlink:href="#DejaVuSans-54"/>
    <use x="485.498046875" xlink:href="#DejaVuSans-30"/>
    <use x="549.12109375" xlink:href="#DejaVuSans-30"/>
    <use x="612.744140625" xlink:href="#DejaVuSans-30"/>
    <use x="676.3671875" xlink:href="#DejaVuSans-30"/>
    <use x="739.990234375" xlink:href="#DejaVuSans-30"/>
    <use x="803.61328125" xlink:href="#DejaVuSans-30"/>
    <use x="867.236328125" xlink:href="#DejaVuSans-32"/>
    <use x="930.859375" xlink:href="#DejaVuSans-35"/>
    <use x="994.482421875" xlink:href="#DejaVuSans-33"/>
    <use x="1058.10546875" xlink:href="#DejaVuSans-35"/>
    <use x="1121.72851562" xlink:href="#DejaVuSans-37"/>
    <use x="1185.3515625" xlink:href="#DejaVuSans-20"/>
    <use x="1217.13867188" xlink:href="#DejaVuSans-28"/>
    <use x="1256.15234375" xlink:href="#DejaVuSans-41"/>
    <use x="1324.56054688" xlink:href="#DejaVuSans-70"/>
    <use x="1388.03710938" xlink:href="#DejaVuSans-33"/>
    <use x="1451.66015625" xlink:href="#DejaVuSans-73"/>
    <use x="1503.75976562" xlink:href="#DejaVuSans-31"/>
    <use x="1567.3828125" xlink:href="#DejaVuSans-29"/>
   </g>
  </g>
 </g>
 <defs>
  <clipPath id="p9fd4257182">
   <rect height="279.272727273" width="669.6" x="108.0" y="43.2"/>
  </clipPath>
  <clipPath id="pc82b1f09f0">
   <rect height="34.9090909091" width="669.6" x="108.0" y="353.890909091"/>
  </clipPath>
 </defs>
</svg>
