<?xml version="1.0" encoding="utf-8" standalone="no"?>
<!DOCTYPE svg PUBLIC "-//W3C//DTD SVG 1.1//EN"
  "http://www.w3.org/Graphics/SVG/1.1/DTD/svg11.dtd">
<!-- Created with matplotlib (http://matplotlib.org/) -->
<svg height="432pt" version="1.1" viewBox="0 0 864 432" width="864pt" xmlns="http://www.w3.org/2000/svg" xmlns:xlink="http://www.w3.org/1999/xlink">
 <defs>
  <style type="text/css">
*{stroke-linecap:butt;stroke-linejoin:round;}
  </style>
 </defs>
 <g id="figure_1">
  <g id="patch_1">
   <path d="
M0 432
L864 432
L864 0
L0 0
z
" style="fill:#ffffff;"/>
  </g>
  <g id="axes_1">
   <g id="patch_2">
    <path d="
M108 322.473
L777.6 322.473
L777.6 43.2
L108 43.2
z
" style="fill:#ffffff;"/>
   </g>
   <g id="patch_3">
    <path clip-path="url(#p9fd4257182)" d="
M749.934 322.473
L757.782 322.473
L757.782 43.2
L749.934 43.2
z
" style="fill:#008000;opacity:0.2;"/>
   </g>
   <g id="patch_4">
    <path clip-path="url(#p9fd4257182)" d="
M387.636 322.473
L390.173 322.473
L390.173 43.2
L387.636 43.2
z
" style="fill:#008000;opacity:0.2;"/>
   </g>
   <g id="patch_5">
    <path clip-path="url(#p9fd4257182)" d="
M338.15 322.473
L340.27 322.473
L340.27 43.2
L338.15 43.2
z
" style="fill:#008000;opacity:0.2;"/>
   </g>
   <g id="patch_6">
    <path clip-path="url(#p9fd4257182)" d="
M277.387 322.473
L281.033 322.473
L281.033 43.2
L277.387 43.2
z
" style="fill:#008000;opacity:0.2;"/>
   </g>
   <g id="patch_7">
    <path clip-path="url(#p9fd4257182)" d="
M246.807 322.473
L247.798 322.473
L247.798 43.2
L246.807 43.2
z
" style="fill:#008000;opacity:0.2;"/>
   </g>
   <g id="patch_8">
    <path clip-path="url(#p9fd4257182)" d="
M181.803 322.473
L183.448 322.473
L183.448 43.2
L181.803 43.2
z
" style="fill:#008000;opacity:0.2;"/>
   </g>
   <g id="patch_9">
    <path clip-path="url(#p9fd4257182)" d="
M127.818 322.473
L148.409 322.473
L148.409 43.2
L127.818 43.2
z
" style="fill:#008000;opacity:0.2;"/>
   </g>
   <g id="line2d_1">
    <path clip-path="url(#p9fd4257182)" d="
M108.575 62.2252
L108.595 62.1206
L112.083 57.0012
L112.34 56.9139
L113.054 56.8094
L114.699 57.0062
L120.922 64.3062
L122.091 66.6784
L124.746 74.3904
L126.59 78.969
L130.989 81.8858
L131.009 81.5157
L132.059 65.7985
L134.774 57.0168
L135.23 56.8686
L137.093 57.0666
L139.313 57.4032
L145.179 56.9236
L151.977 57.5232
L153.899 57.7974
L155.167 59.0667
L158.299 72.4224
L158.735 73.0596
L163.313 57.0102
L164.66 56.9722
L167.514 57.2767
L172.568 56.9354
L178.85 57.8268
L179.068 58.9256
L180.02 66.7846
L180.238 67.5517
L181.129 62.2216
L181.466 59.493
L181.883 57.6157
L183.27 56.6756
L186.56 56.7445
L190.028 57.6149
L202.791 57.6527
L205.189 57.7619
L210.143 57.6771
L213.671 56.4987
L214.166 56.4998
L214.781 56.955
L214.999 58.7701
L215.415 76.8601
L215.732 104.819
L216.783 75.9444
L217.1 62.1451
L217.476 57.2964
L217.813 56.5965
L219.339 56.4996
L222.986 57.5
L226.929 57.0073
L242.487 58.1088
L247.025 66.9024
L247.045 66.8725
L247.679 65.5103
L248.115 64.3484
L252.792 56.5205
L254.021 60.6187
L255.369 110.788
L257.39 61.738
L257.549 61.8326
L257.846 64.0066
L258.084 68.2562
L258.183 70.9297
L259.213 91.6835
L259.233 90.6542
L259.828 59.6328
L263.613 68.1289
L264.128 67.2752
L265.139 61.5068
L265.833 59.47
L273.324 57.5463
L277.288 57.1953
L280.062 57.2922
L284.303 59.3478
L285.631 61.3544
L291.002 80.5201
L296.591 82.5898
L296.928 81.9843
L301.07 73.7147
L303.408 70.3873
L305.826 68.8011
L308.977 69.5228
L312.941 67.5348
L319.124 56.9791
L319.382 56.964
L324.772 56.8218
L325.882 56.6135
L326.893 58.4368
L327.131 60.0141
L327.804 68.8914
L329.231 92.0543
L330.282 89.7581
L332.818 73.6976
L334.206 68.4014
L338.11 65.8783
L338.13 65.9404
L339.814 75.7577
L341.162 88.3474
L341.697 92.0519
L346.414 72.9166
L348.059 70.5878
L353.33 65.4718
L355.709 58.581
L362.506 56.8304
L365.558 57.8368
L368.135 57.6899
L371.444 57.8137
L378.42 58.1537
L383.315 57.286
L388.191 57.0835
L392.095 61.1338
L395.96 80.9657
L397.525 79.1451
L398.457 77.3727
L398.556 77.0956
L406.404 57.5464
L408.703 57.3004
L413.261 68.442
L419.959 132.476
L422.298 128.625
L423.17 126.253
L429.769 106.73
L429.987 105.491
L437.241 65.2306
L438.945 60.4633
L439.362 59.7727
L448.101 58.3384
L452.184 63.0101
L456.009 71.8376
L457.079 75.0202
L460.904 91.9037
L473.925 253.605
L473.944 253.544
L474.816 249.878
L477.135 231.978
L481.475 183.212
L485.994 132.687
L491.503 91.7227
L492.356 87.6948
L495.13 78.7346
L498.44 75.2652
L500.541 71.3433
L510.489 70.8899
L510.509 71.0306
L511.341 78.5825
L512.194 90.4794
L512.887 103.964
L514.73 153.761
L525.551 95.0385
L527.533 92.6012
L527.553 92.6523
L530.545 103.517
L533.043 115.678
L534.212 119.471
L535.559 107.279
L536.491 80.0853
L537.799 64.2121
L537.997 63.4853
L542.714 82.0559
L542.734 81.8756
L543.546 75.6046
L544.914 70.4141
L545.528 70.0406
L546.697 71.6437
L547.668 77.8902
L549.016 96.2835
L550.562 92.6662
L550.839 90.037
L551.632 85.6487
L553.396 93.9089
L553.693 94.6493
L554.823 96.388
L557.696 87.5668
L560.213 68.2478
L560.907 65.3623
L561.521 63.5099
L562.81 61.1639
L566.813 58.8741
L576.504 59.6515
L577.733 60.9266
L578.446 62.0373
L586.453 99.0327
L586.948 100.313
L597.67 74.0441
L599.969 70.2504
L599.989 70.3197
L609.283 56.9396
L615.506 57.0582
L618.875 57.3425
L625.356 57.2205
L630.449 58.3515
L636.87 67.2681
L639.031 66.529
L640.378 61.9285
L642.697 57.6744
L643.41 57.4808
L645.412 57.4983
L651.457 65.9454
L651.477 65.9214
L651.774 65.5569
L653.181 64.1504
L655.262 65.2701
L655.46 65.5947
L663.05 99.9105
L670.522 97.34
L674.069 95.6794
L674.307 95.7438
L678.152 95.5907
L685.782 100.306
L686.178 100.983
L694.026 119.785
L697.316 143.644
L707.899 89.4773
L711.268 148.184
L711.982 157.559
L712.497 161.226
L712.656 161.902
L713.627 162.52
L713.646 162.484
L715.589 161.867
L715.608 161.977
L721.475 271.8
L722.267 278.018
L725.359 263.432
L727.341 257.05
L727.361 257.283
L733.227 320.796
L737.27 322.167
L737.448 320.787
L737.726 311.706
L738.102 289.418
L738.816 300.571
L739.153 311.708
L739.668 317.784
L740.619 320.294
L741.511 321.038
L742.205 321.108
L744.186 321.46
L746.247 321.717
L747.536 321.619
L748.943 321.486
L750.271 321.69
L751.975 321.886
L753.58 321.871
L754.512 321.683
L756.414 321.213
L757.623 321.208
L764.877 321.922
L765.511 321.723
L766.224 321.297
L767.552 320.812
L770.188 320.833
L771.833 218.539
L772.665 153.876
L775.043 113.034
L775.063 113.199
L777.085 154.397
L777.085 154.397" style="fill:none;opacity:0.5;stroke:#0000ff;stroke-linecap:square;"/>
   </g>
   <g id="line2d_2">
    <path clip-path="url(#p9fd4257182)" d="
M108.575 91.407
L108.595 92.5966
L112.083 57.8916
L112.34 57.0223
L113.054 56.5299
L114.699 56.5199
L120.922 67.0406
L122.091 84.3299
L124.746 64.6057
L126.59 58.3781
L131.009 58.5888
L132.059 59.8363
L134.774 64.5299
L137.093 70.2627
L140.383 75.8147
L140.958 75.4317
L144.287 78.6746
L146.011 65.5601
L147.874 61.6548
L148.667 61.5967
L151.957 62.9287
L151.977 62.8636
L153.899 59.1649
L155.167 58.3162
L158.299 58.2494
L158.735 58.4302
L163.293 60.731
L163.313 60.8897
L164.68 88.2684
L166.94 84.6284
L167.514 67.8738
L168.287 59.4436
L170.388 64.0401
L170.943 68.9274
L172.588 99.0958
L178.85 57.5661
L179.068 57.8078
L180.02 59.8646
L180.238 60.6442
L181.883 67.9342
L183.27 71.5115
L186.56 72.0681
L200.234 66.5392
L202.791 63.0951
L205.189 61.4714
L207.428 64.1606
L208.835 66.5192
L210.143 66.1803
L214.166 81.1794
L214.781 82.5814
L214.999 82.7696
L215.415 82.7346
L215.732 82.413
L217.813 78.4237
L219.339 79.496
L222.966 86.2108
L222.986 86.158
L225.086 78.5696
L226.949 70.785
L238.939 58.4369
L242.487 57.414
L247.382 57.4649
L248.115 57.6833
L252.792 57.2546
L254.021 71.7487
L255.369 64.231
L257.39 56.955
L258.183 57.0468
L259.233 59.2599
L259.768 95.3464
L259.828 108.262
L263.613 78.0697
L264.128 68.7014
L265.139 72.8211
L265.833 76.4944
L273.324 84.7943
L276.356 77.1308
L276.792 76.6657
L277.288 76.7478
L280.062 98.4014
L284.303 235.503
L285.651 268.153
L290.982 271.49
L296.591 185.085
L296.928 183.194
L301.07 174.125
L303.408 162.446
L308.977 90.4144
L312.941 67.3792
L319.124 57.1747
L319.382 57.1831
L323.583 57.6721
L324.772 61.1343
L325.882 66.8469
L326.893 70.9531
L327.131 70.9452
L327.804 69.6685
L329.231 68.0245
L330.282 68.8729
L332.501 76.21
L332.818 77.7023
L334.206 83.0804
L338.13 75.9307
L339.834 64.0953
L341.162 60.5819
L341.697 60.0203
L346.275 56.9792
L346.414 57.1131
L347.444 67.2917
L348.059 89.029
L353.132 92.0975
L353.152 91.993
L353.33 91.0537
L354.975 84.3024
L355.709 83.5482
L362.486 108.661
L362.506 108.425
L365.558 80.1613
L366.133 82.3056
L366.252 83.3753
L367.263 99.9275
L368.135 116.997
L371.048 63.3819
L371.444 61.5223
L378.401 96.6537
L378.42 96.9606
L382.067 99.4712
L382.543 92.5548
L383.315 78.7446
L388.032 56.5243
L388.191 56.5218
L397.525 57.401
L398.318 58.2195
L398.556 58.8455
L406.384 168.659
L406.404 167.004
L408.703 70.7903
L413.261 60.9711
L419.959 112.894
L423.17 246.112
L429.769 304.261
L429.987 304.643
L437.221 316.374
L438.628 315.001
L439.362 313.56
L439.679 312.731
L448.082 262.097
L448.101 262.188
L452.164 267.498
L452.184 267.36
L457.079 198.901
L460.884 200.893
L460.904 201.244
L473.944 295.519
L474.816 297.138
L477.135 301.946
L481.475 312.817
L485.201 316.083
L486.014 316.181
L491.503 308.637
L492.356 304.064
L495.13 272.487
L498.44 207.24
L500.541 187.095
L510.509 209.192
L511.936 193.388
L512.887 180.686
L514.73 153.917
L525.531 62.5304
L525.551 62.649
L530.565 150.701
L533.023 158.962
L533.043 158.907
L534.232 163.836
L535.559 209.228
L536.491 271.815
L537.799 319.48
L537.997 320.391
L542.734 312.394
L542.872 310.398
L543.447 294.456
L543.546 289.897
L545.528 103.686
L546.677 74.6689
L546.697 74.7077
L547.668 104.5
L549.016 233.582
L550.542 249.998
L550.562 249.892
L550.839 248.728
L551.632 253.474
L553.693 269.672
L554.823 275.979
L557.696 304.942
L560.53 144.016
L561.521 111.398
L562.81 87.1764
L566.813 69.1398
L577.495 65.9179
L577.733 66.7496
L578.446 69.8751
L586.453 155.718
L586.948 158.327
L597.67 110.46
L599.989 100.753
L609.283 72.0346
L612.197 95.9592
L612.672 106.808
L615.011 176.89
L615.506 182.829
L616.993 190.481
L617.686 194.736
L618.875 204.49
L625.376 174.445
L630.449 177.41
L636.355 191.975
L636.434 191.94
L636.752 191.612
L636.87 191.416
L639.031 182.905
L640.378 175.485
L643.43 161.086
L645.412 149.074
L651.615 105.653
L651.774 105.094
L653.181 102.178
L655.242 105.096
L655.44 106.011
L663.031 206.409
L674.05 218.585
L674.069 218.47
L674.307 217.028
L678.152 186.363
L685.782 202.261
L686.178 206.709
L694.026 289.078
L697.316 307.814
L707.899 239.324
L711.268 298.955
L712.398 307.317
L712.656 308.655
L713.646 312.5
L715.589 314.473
L715.608 314.439
L721.475 259.2
L721.494 259.375
L722.267 271.17
L725.359 319.343
L727.361 321.933
L733.227 322.024
L738.102 321.763
L739.668 321.28
L740.639 321.437
L742.205 321.83
L745.197 322.122
L746.783 322.172
L747.674 321.969
L748.487 321.551
L749.795 320.831
L750.726 320.673
L751.242 320.78
L753.065 321.541
L754.888 321.728
L756.355 321.782
L758.654 321.76
L761.666 322.026
L762.994 322.03
L765.511 321.776
L766.224 321.508
L767.572 317.971
L768.444 301.896
L769.316 263.84
L770.208 253.167
L771.833 268.488
L772.665 250.107
L775.043 214.983
L777.085 236.868
L777.085 236.868" style="fill:none;opacity:0.5;stroke:#ff0000;stroke-linecap:square;"/>
   </g>
   <g id="line2d_3">
    <path clip-path="url(#p9fd4257182)" d="
M108.575 67.8067
L108.595 67.8794
L112.261 58.1417
L112.34 58.0486
L113.054 57.8347
L120.902 93.7012
L120.922 93.4969
L122.091 85.22
L124.746 76.6271
L126.59 73.2516
L130.989 78.2262
L131.009 78.2
L132.059 74.9932
L134.774 65.3536
L135.23 64.7381
L137.093 67.1816
L139.313 73.5977
L140.383 80.6479
L140.859 81.796
L140.879 81.7458
L140.958 81.481
L144.287 58.2402
L145.179 62.4747
L146.011 74.3481
L147.855 72.6482
L148.211 69.5668
L148.667 66.5547
L151.977 78.6529
L153.879 80.8291
L153.899 80.7165
L155.167 71.1244
L158.299 58.0202
L158.735 57.5139
L163.313 57.0241
L167.514 57.2549
L168.287 57.2374
L170.388 57.3323
L170.943 57.4832
L178.831 60.3559
L179.068 63.8387
L180.238 61.1213
L181.03 61.0777
L181.129 61.2129
L181.466 61.9695
L181.883 63.8812
L183.27 89.2467
L186.54 90.8367
L186.56 90.4726
L190.028 57.2435
L200.234 57.0962
L210.143 57.4599
L213.671 56.8395
L214.166 56.9467
L214.781 57.5016
L214.999 57.9279
L215.415 59.373
L215.732 61.2388
L217.813 77.7016
L219.339 94.435
L222.986 77.1617
L225.086 71.5305
L226.949 63.9555
L238.92 57.39
L242.487 57.0505
L247.679 57.1315
L248.115 57.2317
L252.792 57.2216
L254.021 85.0059
L255.369 98.061
L257.39 65.0604
L257.549 64.5534
L257.747 64.5973
L258.104 65.5732
L258.183 65.7936
L259.233 59.0342
L259.828 56.5828
L263.593 86.072
L263.613 86.0677
L264.128 83.5091
L265.496 69.4178
L265.833 66.92
L273.324 122.358
L276.336 125.073
L276.356 125.02
L276.792 124.039
L277.288 123.581
L280.062 142.236
L285.651 243.025
L291.002 292.188
L296.591 292.111
L296.928 290.205
L301.07 230.157
L303.408 173.537
L305.826 131.486
L308.977 109.973
L312.941 95.9519
L319.104 58.0161
L319.124 58.0326
L319.382 58.3575
L323.583 72.3768
L324.772 70.4439
L326.893 62.386
L327.131 61.6825
L327.804 60.2147
L329.231 59.3432
L330.282 60.0028
L332.501 77.5504
L332.818 86.7183
L334.206 132.382
L338.11 79.8755
L338.13 79.8882
L339.834 83.1131
L341.697 89.3557
L346.275 80.8584
L347.444 73.2319
L348.059 68.8096
L353.132 61.1479
L353.152 61.1888
L353.33 61.5903
L354.975 70.6685
L355.709 81.8856
L365.558 88.8587
L366.252 99.4492
L367.263 110.836
L368.115 110.528
L368.135 110.379
L369.958 76.869
L371.048 63.5708
L371.444 61.4182
L378.42 57.0553
L382.067 57.6816
L382.543 57.9177
L383.315 58.4557
L388.032 68.8518
L388.191 69.5163
L392.095 72.0435
L395.94 57.7474
L397.248 58.6791
L397.525 60.1114
L398.318 70.0329
L398.556 74.9171
L406.384 154.79
L406.404 154.744
L408.703 148.882
L413.261 130.848
L419.959 193.42
L423.17 253.743
L429.769 319.855
L429.987 320.218
L437.241 322.228
L439.679 322.251
L452.184 322.473
L456.029 322.101
L456.544 319.789
L456.802 316.239
L457.079 308.622
L460.904 95.6932
L473.944 287.862
L474.816 289.95
L477.135 295.158
L479.315 300.439
L481.475 306.807
L485.201 315.923
L486.014 316.797
L491.503 309.029
L492.356 301.4
L495.13 233.798
L498.44 133.345
L500.521 126.947
L500.541 127.076
L510.489 216.923
L510.509 216.668
L512.114 192.52
L514.73 149.328
L525.531 102.219
L525.551 102.776
L527.553 174.878
L530.565 202.72
L533.043 168.57
L534.212 161.363
L534.232 161.588
L535.559 221.654
L536.491 303.339
L537.799 322.395
L537.997 322.428
L542.872 322.439
L543.308 321.958
L543.546 320.625
L544.914 192.591
L545.528 117.195
L546.677 85.604
L546.697 85.6974
L547.668 133.831
L549.016 280.662
L550.562 303.518
L550.839 303.613
L551.533 301.231
L551.632 300.201
L553.693 231.434
L554.823 219.454
L557.677 240.023
L557.696 239.952
L560.213 111.576
L560.53 107.707
L561.224 105.524
L561.521 104.179
L562.81 95.4258
L566.813 75.5728
L576.405 84.5018
L576.504 85.1858
L577.753 96.1147
L578.446 104.303
L586.453 221.053
L586.948 223.009
L597.67 114.666
L599.989 99.5638
L609.283 62.6721
L609.303 62.712
L612.197 90.6401
L612.672 105.374
L615.011 204.988
L615.506 212.197
L616.993 193.028
L617.686 162.078
L618.875 117.948
L625.376 187.979
L630.43 195.355
L630.449 195.278
L636.335 231.256
L636.355 231.194
L636.593 230.1
L636.87 228.054
L639.031 191.713
L640.378 164.28
L642.717 134.552
L643.43 128.01
L645.412 114.235
L651.457 101.395
L651.477 101.541
L651.774 103.918
L653.181 120.466
L655.46 169.207
L663.05 246.771
L670.522 254.11
L674.069 240.885
L674.307 239.017
L678.152 192.63
L685.762 162.685
L685.782 162.778
L686.178 164.733
L694.026 247.534
L697.316 299.205
L707.899 187.543
L711.268 220.355
L713.646 296.35
L715.608 320.103
L721.494 322.258
L722.267 322.162
L727.361 321.876
L733.227 322.031
L737.448 321.724
L739.133 321.317
L739.648 321.258
L740.619 321.299
L745.197 321.886
L747.397 321.994
L749.656 321.853
L751.242 321.734
L758.277 321.915
L758.654 321.731
L759.209 321.209
L759.942 320.211
L760.596 319.977
L761.408 320.184
L761.983 320.279
L762.538 320.143
L762.994 319.164
L764.322 310.352
L764.342 310.48
L765.293 321.292
L765.511 321.808
L766.046 322.239
L766.224 322.286
L767.552 322.25
L768.424 322.383
L771.833 237.433
L772.665 159.512
L775.043 98.5031
L777.085 201.355
L777.085 201.355" style="fill:none;opacity:0.5;stroke:#ff0000;stroke-linecap:square;"/>
   </g>
   <g id="line2d_4">
    <path clip-path="url(#p9fd4257182)" d="
M108.575 56.9252
L108.595 56.9229
L113.054 57.0287
L120.922 57.2051
L122.091 57.0902
L124.746 57.0503
L126.59 57.2729
L131.009 61.4147
L132.059 63.3789
L135.23 66.9172
L137.093 68.3226
L140.383 67.5382
L140.958 66.7027
L144.287 73.2436
L145.159 73.665
L145.179 73.6237
L145.655 73.0745
L146.011 73.0126
L147.874 70.3173
L148.667 66.8501
L151.977 58.2683
L153.899 57.0937
L155.167 56.9618
L158.735 57.0526
L163.293 63.2921
L163.313 63.5141
L164.68 98.7257
L166.959 83.6895
L167.514 67.1797
L168.287 59.4466
L170.388 62.5847
L170.943 64.1058
L172.588 69.733
L178.85 56.9681
L180.238 56.8984
L181.883 56.9618
L183.27 57.125
L186.56 57.3889
L190.028 57.3256
L200.234 59.2495
L202.791 73.1478
L205.189 66.3655
L207.428 58.1319
L208.835 57.3837
L210.143 57.5137
L213.651 65.1565
L213.671 65.492
L214.781 91.4049
L214.979 92.3581
L214.999 92.3377
L215.415 87.398
L215.732 79.5677
L216.783 59.9244
L217.1 58.1025
L217.476 57.0778
L217.813 56.7054
L219.339 56.5128
L222.986 57.0806
L226.949 57.0361
L238.939 57.8902
L242.487 64.09
L247.025 81.7056
L247.045 81.6932
L247.382 81.2867
L247.679 80.6711
L248.115 79.4722
L252.792 82.4834
L254.021 90.1858
L255.369 84.2154
L257.39 59.3212
L257.846 58.1277
L258.183 57.7211
L259.233 57.3272
L259.828 57.3436
L263.613 84.6944
L264.128 93.4485
L264.961 86.4447
L265.833 70.3679
L273.304 65.7928
L273.324 65.8657
L276.356 77.4349
L277.288 83.4461
L280.062 131.027
L284.303 278.916
L285.651 297.968
L290.982 303.346
L296.928 250.944
L303.408 198.007
L305.826 176.416
L308.957 168.022
L312.941 64.9571
L319.104 56.7581
L324.772 56.8772
L325.882 56.7579
L326.893 57.8889
L327.131 58.453
L329.231 65.374
L330.282 64.6328
L332.501 83.9366
L332.818 89.8041
L334.206 105.756
L338.13 97.4523
L339.834 83.4995
L341.162 74.9107
L341.697 72.5913
L346.414 66.0099
L347.444 65.6753
L348.059 65.6075
L353.152 75.659
L353.33 76.6732
L355.709 91.4313
L362.506 59.9262
L365.578 57.113
L366.252 57.684
L367.263 62.353
L368.135 80.7721
L369.938 126.624
L369.958 126.094
L371.444 87.0517
L378.361 63.5262
L378.401 63.661
L378.42 63.7295
L382.543 98.9512
L383.296 99.4151
L383.315 99.3153
L388.032 58.1401
L388.191 58.0773
L392.095 59.0938
L395.96 145.071
L397.248 130.616
L397.525 123.816
L398.476 108.081
L398.556 107.298
L406.384 160.826
L406.404 160.414
L408.703 94.2656
L413.241 79.0857
L413.261 79.2923
L419.959 223.366
L422.298 269.728
L423.15 279.721
L429.75 289.508
L429.769 289.469
L429.987 289.041
L437.241 300.369
L438.945 303.881
L439.679 304.986
L448.101 308.774
L452.184 308.77
L456.029 296.339
L457.079 287.944
L460.904 238.546
L473.944 244.83
L474.816 246.701
L477.135 260.224
L479.315 286.3
L481.475 309.303
L485.201 319.535
L486.014 320.088
L491.503 318.632
L492.356 316.616
L495.13 293.021
L498.44 204.351
L500.541 170.55
L510.489 200.289
L510.509 200.164
L511.936 189.673
L512.887 181.434
L514.73 164.231
L525.531 117.58
L525.551 117.625
L527.553 117.71
L530.565 112.479
L533.043 122.159
L534.232 138.388
L535.559 186.405
L536.491 235.746
L537.799 312.856
L537.997 315.861
L542.734 322.218
L542.872 322.105
L543.308 321.138
L543.546 319.662
L546.677 181.28
L547.668 210.661
L549.016 266.094
L550.562 287.101
L550.839 289.159
L551.513 290.636
L551.533 290.583
L551.632 290.229
L553.396 271.884
L553.693 270.571
L554.823 273.498
L557.677 274.39
L557.696 274.114
L560.511 151.411
L561.244 116.908
L561.521 107.102
L562.79 81.9543
L566.813 65.4144
L576.385 64.2156
L576.484 64.5513
L577.733 71.064
L578.426 77.3806
L586.453 258.18
L586.948 261.748
L597.67 173.856
L599.989 146.257
L609.283 74.6186
L609.303 74.675
L612.197 101.267
L612.672 109.345
L616.993 189.347
L617.686 200.423
L618.875 216.156
L625.376 240.741
L630.449 210.673
L636.335 199.378
L636.355 199.466
L636.593 200.966
L636.87 203.626
L639.031 234.159
L640.378 235.559
L642.717 155.319
L643.43 124.508
L645.412 81.4931
L651.457 85.1041
L651.774 88.461
L653.181 111.978
L655.46 181.926
L663.031 265.776
L670.502 283.343
L670.522 283.331
L674.069 273.548
L674.307 271.96
L678.152 226.941
L685.762 213.129
L686.158 218.835
L694.026 289.565
L697.316 306.244
L707.899 214.898
L707.919 215.168
L711.268 284.659
L712.319 299.155
L712.656 302.05
L713.646 306.631
L715.608 298.43
L721.494 319.261
L722.267 320.943
L725.359 321.839
L727.361 321.708
L733.227 321.909
L739.668 321.69
L743.572 321.873
L748.764 321.811
L753.263 322.009
L754.195 321.838
L755.344 321.371
L756.414 320.975
L756.712 320.905
L759.744 320.708
L760.616 320.79
L761.666 321.239
L762.994 321.769
L764.678 322.177
L764.877 322.146
L765.313 321.879
L765.511 321.564
L765.907 319.96
L766.224 316.505
L767.552 280.377
L767.572 280.422
L768.444 298.417
L769.316 311.383
L770.208 313.35
L771.853 310.907
L772.527 301.791
L772.685 297.715
L775.043 205.862
L775.063 205.927
L777.085 257.926
L777.085 257.926" style="fill:none;opacity:0.5;stroke:#ff0000;stroke-linecap:square;"/>
   </g>
   <g id="line2d_5">
    <path clip-path="url(#p9fd4257182)" d="
M108.575 56.8452
L108.595 56.8507
L112.083 63.3374
L113.054 66.3825
L120.922 56.8645
L122.091 57.0875
L124.746 61.4246
L126.59 72.3993
L131.009 68.6006
L132.059 64.8353
L134.774 59.945
L135.23 59.7208
L137.093 61.5465
L139.313 76.8793
L140.383 71.2232
L140.958 65.5319
L144.287 56.4993
L145.179 56.5801
L145.516 57.0527
L146.011 58.6495
L148.667 58.6889
L151.957 78.6847
L151.977 78.6034
L153.899 64.1304
L155.167 58.6431
L158.299 56.8141
L158.735 56.7836
L172.588 57.7509
L179.068 56.544
L180.02 57.3558
L180.238 58.0079
L181.129 64.0788
L181.466 66.8167
L181.883 68.789
L183.27 69.3873
L186.56 106.377
L190.028 101.858
L200.234 57.0886
L202.771 57.2549
L205.189 59.2081
L207.428 66.5566
L208.835 75.1541
L210.124 71.6348
L213.671 56.5111
L214.166 56.6696
L214.781 58.4729
L214.999 60.275
L215.415 66.2803
L215.732 72.6102
L216.783 88.3552
L217.001 88.6706
L217.02 88.6299
L217.1 88.3508
L217.476 84.6446
L217.813 78.7846
L219.339 58.916
L222.986 56.5225
L225.086 56.5219
L226.771 71.5641
L226.87 87.3316
L226.949 110.531
L238.92 59.5814
L242.487 58.6068
L247.362 62.8123
L248.115 63.6988
L252.792 56.8929
L255.369 57.1315
L258.183 57.5095
L259.233 57.871
L259.828 58.3422
L263.593 91.7327
L263.613 91.3115
L264.128 83.9291
L265.833 79.1101
L273.324 67.2142
L276.792 71.3638
L277.288 71.2262
L280.062 62.7277
L284.303 57.3843
L285.651 57.0935
L291.002 58.0619
L296.591 67.3911
L296.928 67.7308
L301.07 73.0692
L303.408 76.6243
L305.806 79.8639
L308.977 86.2044
L312.941 95.536
L319.382 99.1601
L323.583 75.6776
L324.772 77.0513
L325.882 87.7599
L326.873 91.5965
L326.893 91.4159
L327.111 89.0041
L327.785 80.1169
L329.231 73.3373
L330.282 72.7836
L332.501 85.0854
L332.818 87.4225
L334.206 86.1624
L338.13 59.9002
L339.834 56.9092
L341.697 56.5754
L346.275 57.7852
L346.414 58.108
L347.444 67.4951
L348.059 85.5558
L353.152 64.4545
L353.33 62.6323
L354.975 57.2686
L355.709 56.9502
L362.506 56.6392
L365.578 56.9652
L366.252 57.5329
L367.263 63.3328
L368.135 88.8714
L369.938 110.012
L369.958 108.807
L371.048 71.7195
L371.444 66.5699
L378.42 56.5023
L382.067 59.9638
L382.543 67.0755
L383.315 100.809
L388.032 60.1206
L388.191 59.9557
L392.075 82.1842
L395.94 172.15
L395.96 171.925
L397.248 119.531
L397.525 102.416
L398.318 78.3603
L398.536 75.8413
L406.384 98.6924
L406.404 98.68
L408.703 92.7688
L413.261 65.9481
L419.959 56.6927
L423.17 57.0698
L429.987 57.4345
L437.241 60.5178
L439.362 61.8301
L439.679 61.9684
L448.101 74.3162
L452.184 117.552
L456.029 99.1733
L457.079 88.3325
L460.904 69.5705
L473.944 204.345
L474.816 203.99
L477.135 196.019
L479.315 181.182
L481.475 161.723
L486.014 113.662
L491.503 75.0875
L492.356 71.89
L495.13 66.3215
L498.44 68.1574
L500.541 74.4052
L510.509 79.181
L511.341 81.0301
L512.194 83.9781
L512.887 87.2296
L514.73 100.018
L525.551 77.7587
L527.553 72.4268
L530.565 68.2824
L533.043 73.1274
L534.212 74.2185
L534.232 74.1697
L536.491 59.5602
L537.779 58.5648
L537.799 58.7314
L537.997 62.9952
L542.714 185.665
L542.872 98.4459
L543.308 57.0517
L543.546 56.5502
L545.528 56.4992
L546.677 57.0255
L547.668 58.9417
L549.016 80.9701
L550.562 120.616
L550.839 122.95
L551.533 114.114
L553.673 60.124
L553.693 59.9755
L554.823 57.1759
L557.696 57.5222
L560.213 69.6615
L560.53 75.2032
L561.244 92.9029
L561.521 100.763
L566.813 75.2413
L576.504 60.3814
L577.753 60.6843
L578.446 60.9752
L586.453 76.9152
L586.948 78.6171
L597.65 94.8793
L597.67 94.8354
L599.989 87.9325
L609.303 57.6845
L612.197 59.1242
L612.653 59.7371
L615.506 67.1849
L616.993 71.8886
L617.686 74.5453
L618.875 80.2656
L625.376 107.042
L630.449 72.8444
L636.335 67.6309
L636.355 67.6761
L636.87 68.9593
L639.031 74.431
L640.378 73.7206
L642.717 64.4901
L643.43 62.5076
L645.412 60.0059
L651.477 63.4549
L651.774 64.3478
L653.181 71.5827
L655.44 106.095
L655.46 106.555
L663.05 245.361
L670.522 176.251
L674.307 96.2315
L678.152 73.6558
L694.026 85.9809
L697.316 106.758
L707.899 119.952
L707.919 119.888
L711.248 122.515
L712.319 128.444
L712.656 131.021
L713.627 140.977
L715.608 178.068
L721.494 274.768
L722.267 278.516
L725.359 281.172
L727.361 281.308
L733.207 313.129
L733.227 312.807
L737.25 260.581
L737.448 302.387
L737.726 317.478
L738.102 321.093
L738.816 321.986
L739.648 322.174
L740.619 322.11
L741.788 321.521
L743.79 321.39
L744.563 321.501
L746.247 321.895
L747.1 321.8
L747.694 321.52
L748.467 320.881
L749.557 319.995
L749.795 319.868
L750.588 319.752
L750.726 319.786
L751.242 320.057
L752.609 321.326
L753.263 321.573
L754.333 321.596
L758.654 321.639
L761.408 321.917
L762.994 321.9
L765.907 321.353
L766.224 321.164
L767.572 318.28
L768.444 311.636
L769.316 298.026
L770.208 278.486
L771.833 217.317
L772.665 172.934
L775.043 134.884
L775.063 135.126
L777.085 179.276
L777.085 179.276" style="fill:none;opacity:0.5;stroke:#0000ff;stroke-linecap:square;"/>
   </g>
   <g id="line2d_6">
    <path clip-path="url(#p9fd4257182)" d="
M108.575 61.967
L108.595 62.0017
L112.32 82.1795
L113.034 84.0441
L120.922 57.1706
L122.091 57.0911
L124.746 57.1801
L126.49 59.6631
L126.59 60.1541
L131.009 87.1779
L132.059 79.3076
L134.774 60.4417
L135.23 59.7553
L137.093 61.2324
L139.313 75.133
L140.383 83.4917
L140.958 86.4721
L144.267 90.6745
L144.287 90.5875
L145.179 79.7397
L146.011 67.4323
L147.874 57.3371
L148.211 57.0284
L148.667 56.8149
L151.977 65.797
L155.167 76.7067
L158.299 72.983
L158.735 71.8202
L163.313 57.4806
L164.68 57.9737
L166.959 64.824
L167.514 69.883
L168.287 79.491
L170.388 64.6294
L170.943 59.3631
L172.37 56.5329
L172.568 56.514
L178.85 57.5472
L179.068 58.348
L180.02 69.6548
L180.218 70.0456
L180.238 69.9882
L181.129 59.4979
L181.466 57.3902
L181.883 56.678
L183.27 56.6016
L186.56 56.6564
L190.028 57.0941
L200.234 60.6961
L202.791 73.8319
L205.189 67.9342
L207.428 58.3807
L208.816 57.4357
L208.835 57.4332
L210.124 58.3706
L213.651 63.0156
L213.671 62.9679
L214.166 62.1654
L214.781 62.1532
L215.395 62.716
L215.732 63.1013
L217.02 64.4688
L217.476 65.4714
L217.813 66.6238
L219.339 77.0704
L222.986 59.8463
L225.086 57.6077
L226.949 57.3015
L238.939 57.0854
L242.467 59.2184
L247.025 62.673
L247.045 62.6418
L248.115 60.6605
L252.792 56.5048
L254.021 59.1486
L255.369 110.811
L257.37 68.3171
L257.39 68.3312
L257.549 68.7121
L257.866 70.8288
L258.183 74.8917
L259.233 101.177
L259.828 109.435
L263.613 83.9718
L264.128 71.1163
L264.961 59.759
L265.139 58.881
L265.496 57.796
L265.833 57.2503
L273.324 57.0497
L277.288 116.98
L280.062 136.718
L284.303 235.845
L285.651 274.766
L290.982 303.111
L291.002 303.099
L296.591 282.505
L296.928 280.244
L301.07 224.304
L303.408 177.113
L305.826 138.209
L308.977 110.349
L319.104 59.0217
L319.362 59.5238
L323.563 77.167
L323.583 77.1465
L324.772 71.1464
L325.882 63.4721
L327.131 59.5236
L327.804 58.4879
L329.231 57.8837
L330.282 58.3343
L332.501 65.569
L332.818 68.7022
L334.206 88.9944
L338.11 83.9874
L338.13 83.6328
L339.834 64.364
L341.162 60.0398
L341.697 59.443
L346.275 57.0199
L346.414 57.1819
L347.444 72.5284
L348.059 126.211
L353.132 119.203
L353.33 105.598
L354.975 61.0051
L355.709 58.0853
L362.506 57.5556
L365.578 62.8518
L367.263 69.0632
L368.135 70.6182
L369.958 67.7589
L371.444 63.6929
L378.381 86.2378
L378.42 86.8339
L382.067 117.146
L382.543 119.556
L383.315 122.699
L388.171 85.8261
L388.191 85.793
L392.095 112.007
L395.96 101.704
L397.248 95.979
L397.525 95.3777
L398.298 98.5307
L398.556 101.2
L406.384 165.104
L406.404 163.477
L408.703 64.078
L413.241 58.6525
L413.261 58.6939
L419.959 151.376
L422.298 247.037
L423.17 273.428
L429.769 319.992
L429.987 320.17
L437.241 321.993
L439.679 322.137
L448.101 322.473
L452.184 322.473
L456.009 307.101
L456.029 306.469
L456.782 267.836
L457.079 246.509
L460.904 126.209
L473.925 259.548
L473.944 259.439
L474.816 254.445
L477.135 244.808
L479.315 254.365
L481.475 280.879
L485.201 301.551
L486.014 303.109
L492.356 286.471
L495.13 249.765
L498.44 175.927
L500.541 153.803
L510.489 201.222
L510.509 200.984
L512.194 178.058
L514.73 141.804
L525.531 119.156
L525.551 119.176
L527.553 111.291
L530.545 96.1106
L530.565 96.1793
L533.043 110.206
L534.232 134.084
L535.559 201.321
L536.491 271.476
L537.799 320.122
L537.997 320.872
L542.734 315.868
L542.872 314.42
L543.447 301.925
L543.546 298.15
L544.914 193.673
L545.528 165.151
L546.677 161.93
L546.697 162.224
L547.668 202.696
L549.016 266.535
L550.562 289.771
L550.839 291.663
L551.513 293.401
L551.533 293.366
L551.632 293.108
L553.396 278.723
L554.823 277.793
L557.696 252.758
L561.521 143.259
L562.81 119.502
L566.813 63.8552
L577.515 64.1366
L577.753 65.3939
L578.446 70.4041
L586.453 238.496
L586.948 244.136
L597.67 165.381
L599.989 130.522
L609.303 57.002
L612.197 57.9931
L612.672 59.7333
L615.229 219.136
L615.506 229.59
L616.973 232.45
L616.993 232.059
L617.686 213.459
L618.875 185.925
L625.376 303.143
L630.449 226.194
L636.732 181.36
L639.031 168.112
L640.378 168.674
L642.717 157.55
L643.43 155.122
L645.412 145.799
L651.457 95.8129
L651.477 95.9656
L651.774 98.4103
L653.181 112.524
L655.46 127.607
L663.05 171.169
L670.522 221.921
L674.05 223.513
L674.069 223.44
L674.307 222.513
L678.152 201.114
L685.762 198.651
L685.782 198.717
L686.178 200.09
L694.026 245.244
L697.296 250.708
L697.316 250.679
L707.899 170.261
L711.268 225.685
L712.656 276.973
L713.646 303.131
L715.608 320.112
L721.494 321.823
L722.267 321.664
L727.361 321.856
L733.227 321.46
L737.726 321.617
L739.133 321.668
L742.205 321.88
L744.563 321.566
L747.536 321.877
L749.795 322.01
L752.213 322.118
L754.888 322.021
L760.616 321.622
L762.538 321.813
L762.994 321.772
L764.877 321.39
L766.046 321.323
L766.224 321.265
L767.572 318.037
L768.444 302.218
L769.316 258.481
L770.208 230.777
L771.833 226.132
L772.665 201.185
L775.043 166.051
L777.085 197.052
L777.085 197.052" style="fill:none;opacity:0.5;stroke:#ff0000;stroke-linecap:square;"/>
   </g>
   <g id="line2d_7">
    <path clip-path="url(#p9fd4257182)" d="
M108.575 63.7476
L108.595 63.619
L112.083 56.997
L112.34 56.8994
L113.054 56.7966
L114.699 57.1254
L120.922 68.6933
L122.091 85.0565
L124.746 67.6822
L126.59 60.2481
L131.009 67.1012
L132.059 74.3838
L134.774 92.0933
L135.23 93.7076
L137.093 94.7318
L139.313 87.1229
L140.958 66.8948
L144.287 63.7488
L145.179 66.2472
L145.655 69.5623
L146.011 73.4524
L147.855 75.4087
L148.667 64.5393
L151.957 59.2966
L151.977 59.3222
L153.899 69.2329
L155.167 69.8168
L158.299 62.6051
L158.735 60.594
L163.313 57.1704
L164.68 56.8594
L167.514 56.8015
L168.287 57.1148
L170.388 78.0767
L170.943 77.5865
L172.39 58.913
L172.588 57.8562
L178.85 57.789
L179.068 58.2491
L180.02 62.9588
L180.238 64.9548
L181.466 80.3647
L181.883 83.1225
L183.27 75.9711
L186.56 57.8345
L190.028 56.9881
L200.234 68.7395
L202.791 66.7411
L205.189 66.5968
L207.428 87.7702
L208.578 96.4859
L208.598 96.4393
L208.835 95.1776
L210.143 65.0609
L213.651 56.714
L213.671 56.7371
L214.166 59.6303
L214.999 72.8836
L215.395 74.4013
L215.415 74.3815
L215.732 73.5924
L216.783 74.6623
L217.1 75.5693
L217.476 77.0468
L217.813 78.9024
L219.339 95.7833
L225.086 74.148
L226.949 70.3798
L238.939 57.2556
L242.487 56.9046
L247.382 57.2374
L248.115 57.4667
L252.792 59.5415
L254.021 69.8232
L255.369 70.631
L257.37 67.4582
L257.965 58.7645
L258.183 57.5826
L259.233 56.6657
L259.768 57.5361
L259.828 57.8713
L263.613 75.0419
L264.128 75.9718
L264.961 75.161
L265.496 73.7399
L265.833 72.6114
L273.324 57.1391
L277.288 56.6146
L280.062 56.9007
L284.244 73.9233
L284.303 74.9086
L285.651 116.377
L291.002 65.2201
L296.591 57.6025
L296.928 57.5632
L301.07 57.4546
L305.826 57.5345
L308.977 57.1499
L312.941 56.832
L319.124 57.3947
L319.382 57.7831
L323.583 94.2
L324.772 87.7294
L325.882 73.8712
L326.893 69.2323
L327.131 68.7259
L327.804 67.8295
L329.231 67.9521
L330.282 70.7822
L332.501 67.5008
L332.818 63.6384
L334.206 57.0891
L338.13 63.5088
L339.834 63.162
L341.162 63.1335
L341.697 63.2466
L346.414 72.2798
L347.444 75.2333
L348.059 77.9995
L353.152 70.184
L353.33 69.2899
L354.975 64.6629
L355.709 64.391
L362.486 125.532
L362.506 125.19
L365.578 79.7849
L366.232 78.3767
L366.252 78.3871
L367.263 81.8517
L368.135 87.7348
L369.938 90.1963
L369.958 90.0371
L371.444 78.3099
L378.42 57.2256
L382.067 58.7797
L382.543 59.7532
L383.315 62.5103
L388.012 90.0353
L388.032 89.9186
L388.191 88.8813
L392.095 56.9935
L395.96 61.3945
L397.248 68.7807
L398.318 78.821
L398.556 81.2026
L406.404 58.3399
L408.703 57.0472
L413.261 64.2279
L419.94 168.327
L419.959 168.206
L422.298 133.23
L423.17 114.425
L429.769 58.805
L429.987 58.6192
L437.241 57.0399
L439.679 56.9823
L448.101 61.55
L452.184 82.4514
L456.524 62.978
L457.079 61.4064
L460.904 57.7645
L473.944 245.351
L474.816 246.68
L477.135 242.78
L479.315 231.416
L481.475 215.324
L485.201 166.429
L486.014 149.698
L491.503 62.331
L492.356 60.002
L495.13 57.4008
L498.44 56.9427
L500.541 58.0109
L510.489 156.074
L510.509 154.795
L511.341 108.345
L512.194 79.8821
L512.887 68.2356
L514.73 58.6369
L525.551 61.8451
L527.553 78.9877
L533.043 58.4637
L534.232 57.3143
L535.559 57.1171
L536.491 57.3587
L537.779 58.5645
L537.977 58.9182
L543.546 94.0877
L544.894 97.6617
L544.914 97.6329
L545.528 95.5957
L546.677 89.3126
L547.668 80.518
L549.016 72.5979
L550.562 77.5292
L550.839 78.8597
L551.632 81.2805
L553.396 83.7168
L553.693 84.7874
L554.823 93.6144
L557.677 120.221
L557.696 120.144
L560.907 74.9769
L561.521 69.1045
L562.79 61.9975
L566.813 61.2838
L576.504 128.981
L577.753 130.545
L578.446 131.072
L586.453 113.63
L586.948 111.683
L599.989 86.9295
L609.303 58.701
L612.197 59.1266
L612.672 60.1405
L615.209 82.3249
L615.487 82.9417
L615.506 82.9544
L616.993 75.4533
L617.686 70.059
L618.875 65.605
L625.376 89.5446
L630.449 66.2114
L636.335 66.6423
L636.87 71.9021
L639.011 77.8756
L639.031 77.7666
L640.378 67.8899
L642.717 58.5382
L643.43 57.7966
L645.412 57.1533
L651.457 67.9353
L651.774 69.1454
L653.181 75.914
L655.46 84.6442
L663.05 96.5868
L670.522 124.844
L674.069 129.471
L674.307 129.372
L678.152 124.273
L685.782 100.039
L686.178 98.3451
L697.316 64.796
L707.919 90.0298
L711.268 151.944
L712.656 184.873
L713.646 212.461
L715.608 263.29
L721.475 277.807
L721.494 277.652
L722.267 271.276
L725.3 254.829
L725.359 254.862
L727.361 281.352
L733.227 321.92
L738.816 321.871
L739.648 321.995
L741.769 322.017
L743.374 321.839
L744.266 321.523
L745.95 320.615
L746.247 320.632
L746.862 321.025
L747.873 321.863
L748.487 322.082
L749.359 322.123
L753.085 321.848
L754.314 321.431
L755.721 320.832
L756.414 320.266
L758.079 318.521
L758.555 318.478
L758.654 318.508
L759.209 318.924
L759.942 319.941
L760.854 321.146
L761.408 321.517
L762.241 321.802
L764.342 322.085
L765.511 321.992
L766.224 321.796
L767.572 321.211
L769.316 321.209
L770.188 320.339
L771.833 308.893
L772.527 290.976
L775.063 197.728
L777.085 229.749
L777.085 229.749" style="fill:none;opacity:0.5;stroke:#0000ff;stroke-linecap:square;"/>
   </g>
   <g id="line2d_8">
    <path clip-path="url(#p9fd4257182)" d="
M108.575 74.473
L113.054 66.9318
L120.922 56.5298
L122.091 56.6123
L124.746 65.9353
L126.59 96.6201
L130.989 97.1378
L131.009 96.9773
L132.059 87.2462
L134.774 67.9131
L135.23 66.5403
L137.093 64.8835
L139.313 64.7769
L140.383 65.1488
L140.958 66.829
L144.267 105.418
L144.287 105.343
L145.516 67.4193
L145.655 64.9838
L146.011 60.9415
L147.874 56.9986
L148.667 56.8399
L151.977 57.3209
L153.899 57.4887
L155.167 59.0665
L158.735 103.492
L163.313 58.2622
L164.68 57.398
L166.959 57.5577
L167.514 58.0758
L168.287 60.1817
L170.388 75.0665
L170.943 81.5254
L172.39 95.0465
L172.568 95.1879
L172.588 95.0745
L178.85 56.5878
L179.068 56.6214
L180.02 57.1293
L180.238 57.4499
L181.11 61.542
L181.447 65.8565
L181.466 66.1927
L181.863 75.0233
L183.27 103.071
L186.56 57.6246
L190.028 56.9616
L200.234 56.8265
L202.791 57.2904
L205.189 59.7388
L207.428 74.7697
L208.835 88.905
L210.143 73.1976
L213.671 58.0865
L214.999 57.7038
L215.415 57.8062
L215.732 58.1098
L216.783 64.8136
L217.1 71.1863
L217.793 97.0836
L217.813 97.9729
L219.319 115.564
L219.339 115.216
L222.986 81.0927
L225.086 60.5232
L226.929 56.8039
L226.949 56.794
L238.939 69.1395
L242.487 82.7673
L247.025 86.4214
L247.382 91.2083
L248.095 105.272
L248.115 105.742
L252.792 80.2048
L254.021 58.5567
L255.369 56.7757
L258.183 57.1779
L259.233 57.207
L259.828 57.0286
L264.128 56.9057
L273.324 57.6276
L280.062 57.194
L285.651 57.1586
L291.002 57.3102
L296.928 57.6118
L305.826 57.5517
L308.977 57.9383
L312.941 59.6884
L319.124 68.3885
L319.382 69.1936
L323.563 78.4508
L323.583 78.366
L324.772 75.0829
L325.882 64.1213
L326.893 56.9975
L327.131 56.8283
L327.804 56.6624
L329.231 56.6363
L330.282 56.9803
L332.818 57.0347
L334.206 56.8589
L338.13 56.6142
L339.834 57.4184
L341.162 61.3342
L341.697 64.2973
L346.414 77.376
L347.444 79.5471
L348.059 81.3709
L353.152 81.2093
L353.33 80.2518
L354.975 72.5439
L355.709 70.2738
L362.506 56.8319
L365.578 59.1983
L366.252 62.5747
L368.135 78.3267
L369.958 70.765
L371.048 63.0327
L371.444 61.5004
L378.42 57.0258
L382.067 59.4539
L382.543 60.7088
L383.315 64.0482
L388.012 95.1652
L388.032 95.0256
L388.191 93.7799
L392.095 57.607
L395.96 57.3509
L397.248 60.0906
L397.525 61.0826
L398.556 65.668
L406.384 99.9998
L406.404 99.9563
L408.703 87.8045
L413.241 88.0072
L413.261 88.2006
L419.959 121.458
L422.298 122.145
L423.17 121.464
L429.987 110.362
L438.945 91.1712
L439.679 88.975
L448.101 59.4478
L452.184 59.0466
L456.029 65.4685
L457.079 69.0338
L460.904 92.9071
L473.944 223.242
L474.816 224.363
L477.135 219.611
L479.315 200.546
L481.475 162.053
L485.201 85.5917
L486.014 76.2455
L491.503 58.2105
L492.356 57.9525
L495.13 58.0551
L498.44 62.4951
L500.541 72.5906
L510.509 66.0984
L511.936 62.9949
L512.887 61.5095
L514.73 59.7247
L525.551 71.6967
L527.553 71.7649
L530.565 66.673
L533.043 68.2201
L534.232 70.8295
L535.54 71.2258
L535.559 71.0959
L536.491 61.1453
L537.799 56.579
L537.997 56.5454
L542.714 58.9912
L542.872 61.3952
L543.447 85.227
L543.546 91.496
L544.894 105.017
L544.914 104.21
L545.528 80.3582
L546.697 60.6538
L547.668 60.488
L549.016 73.775
L550.839 86.0025
L551.632 88.9443
L553.693 81.4983
L554.823 86.9006
L557.696 60.4314
L560.53 68.054
L560.907 68.3459
L561.502 68.3981
L561.521 68.3918
L562.81 67.1233
L566.813 57.8698
L576.484 58.7773
L577.733 60.3157
L578.426 61.642
L586.453 105.446
L586.948 106.989
L597.67 57.0539
L599.989 56.7825
L609.303 56.4987
L612.177 58.3337
L612.197 58.4798
L612.672 66.6462
L614.991 99.0859
L615.229 81.2978
L615.506 67.097
L616.993 56.5015
L618.875 56.4987
L625.376 57.2005
L630.449 122.023
L636.434 56.9124
L636.87 56.9252
L639.031 58.6133
L640.378 64.4027
L642.717 75.6069
L643.43 74.8559
L645.412 71.0847
L651.477 69.2604
L651.774 69.4229
L653.181 68.931
L655.46 62.3167
L663.05 77.8
L670.522 161.433
L674.069 143.602
L674.307 140.199
L678.152 99.3099
L686.178 70.6378
L694.026 80.7977
L697.316 139.248
L707.899 121.441
L711.268 174.3
L711.982 177.966
L712.319 177.808
L712.497 177.311
L712.656 176.654
L713.646 169.069
L715.589 161.271
L715.608 161.45
L721.494 257.238
L722.267 258.526
L725.359 225.565
L727.361 200.709
L733.227 321.785
L737.726 321.493
L738.102 321.483
L738.816 321.219
L739.153 320.884
L739.668 319.726
L740.619 315.962
L741.372 315.014
L741.392 315.047
L741.511 315.307
L741.788 316.297
L742.779 320.64
L743.275 321.619
L743.592 321.923
L744.206 322.16
L744.563 322.189
L749.795 321.956
L750.726 321.653
L751.242 321.154
L751.975 318.793
L752.411 314.91
L752.748 309.217
L753.085 299.959
L753.818 277.144
L754.016 278.368
L754.432 289.217
L754.888 302.893
L755.443 312.306
L755.721 314.189
L756.157 315.523
L756.771 316.505
L757.346 317.553
L757.623 318.275
L758.654 321.12
L759.209 321.794
L759.764 322.048
L760.398 322.044
L760.616 321.952
L760.953 321.651
L761.19 321.25
L761.408 320.663
L761.666 319.595
L762.538 313.804
L762.994 313.917
L764.342 320.919
L764.877 321.673
L765.511 321.851
L766.224 321.67
L767.572 321.453
L770.188 322.433
L771.833 321.07
L772.507 308.978
L772.665 302.675
L776.827 179.841
L776.847 180.183
L777.085 184.228
L777.085 184.228" style="fill:none;opacity:0.5;stroke:#0000ff;stroke-linecap:square;"/>
   </g>
   <g id="patch_10">
    <path d="
M108 43.2
L777.6 43.2" style="fill:none;stroke:#000000;stroke-linecap:square;stroke-linejoin:miter;"/>
   </g>
   <g id="patch_11">
    <path d="
M777.6 322.473
L777.6 43.2" style="fill:none;stroke:#000000;stroke-linecap:square;stroke-linejoin:miter;"/>
   </g>
   <g id="patch_12">
    <path d="
M108 322.473
L777.6 322.473" style="fill:none;stroke:#000000;stroke-linecap:square;stroke-linejoin:miter;"/>
   </g>
   <g id="patch_13">
    <path d="
M108 322.473
L108 43.2" style="fill:none;stroke:#000000;stroke-linecap:square;stroke-linejoin:miter;"/>
   </g>
   <g id="matplotlib.axis_1">
    <g id="ytick_1">
     <g id="line2d_9">
      <defs>
       <path d="
M0 0
L4 0" id="m728421d6d4" style="stroke:#000000;stroke-width:0.5;"/>
      </defs>
      <g>
       <use style="stroke:#000000;stroke-width:0.5;" x="108.0" xlink:href="#m728421d6d4" y="322.472727273"/>
      </g>
     </g>
     <g id="line2d_10">
      <defs>
       <path d="
M0 0
L-4 0" id="mcb0005524f" style="stroke:#000000;stroke-width:0.5;"/>
      </defs>
      <g>
       <use style="stroke:#000000;stroke-width:0.5;" x="777.6" xlink:href="#mcb0005524f" y="322.472727273"/>
      </g>
     </g>
     <g id="text_1">
      <!-- 0 -->
      <defs>
       <path d="
M31.7812 66.4062
Q24.1719 66.4062 20.3281 58.9062
Q16.5 51.4219 16.5 36.375
Q16.5 21.3906 20.3281 13.8906
Q24.1719 6.39062 31.7812 6.39062
Q39.4531 6.39062 43.2812 13.8906
Q47.125 21.3906 47.125 36.375
Q47.125 51.4219 43.2812 58.9062
Q39.4531 66.4062 31.7812 66.4062
M31.7812 74.2188
Q44.0469 74.2188 50.5156 64.5156
Q56.9844 54.8281 56.9844 36.375
Q56.9844 17.9688 50.5156 8.26562
Q44.0469 -1.42188 31.7812 -1.42188
Q19.5312 -1.42188 13.0625 8.26562
Q6.59375 17.9688 6.59375 36.375
Q6.59375 54.8281 13.0625 64.5156
Q19.5312 74.2188 31.7812 74.2188" id="DejaVuSans-30"/>
      </defs>
      <g transform="translate(97.953125 325.783977273)scale(0.12 -0.12)">
       <use xlink:href="#DejaVuSans-30"/>
      </g>
     </g>
    </g>
    <g id="ytick_2">
     <g id="line2d_11">
      <g>
       <use style="stroke:#000000;stroke-width:0.5;" x="108.0" xlink:href="#m728421d6d4" y="269.277922078"/>
      </g>
     </g>
     <g id="line2d_12">
      <g>
       <use style="stroke:#000000;stroke-width:0.5;" x="777.6" xlink:href="#mcb0005524f" y="269.277922078"/>
      </g>
     </g>
     <g id="text_2">
      <!-- 20 -->
      <defs>
       <path d="
M19.1875 8.29688
L53.6094 8.29688
L53.6094 0
L7.32812 0
L7.32812 8.29688
Q12.9375 14.1094 22.625 23.8906
Q32.3281 33.6875 34.8125 36.5312
Q39.5469 41.8438 41.4219 45.5312
Q43.3125 49.2188 43.3125 52.7812
Q43.3125 58.5938 39.2344 62.25
Q35.1562 65.9219 28.6094 65.9219
Q23.9688 65.9219 18.8125 64.3125
Q13.6719 62.7031 7.8125 59.4219
L7.8125 69.3906
Q13.7656 71.7812 18.9375 73
Q24.125 74.2188 28.4219 74.2188
Q39.75 74.2188 46.4844 68.5469
Q53.2188 62.8906 53.2188 53.4219
Q53.2188 48.9219 51.5312 44.8906
Q49.8594 40.875 45.4062 35.4062
Q44.1875 33.9844 37.6406 27.2188
Q31.1094 20.4531 19.1875 8.29688" id="DejaVuSans-32"/>
      </defs>
      <g transform="translate(90.40625 272.589172078)scale(0.12 -0.12)">
       <use xlink:href="#DejaVuSans-32"/>
       <use x="63.623046875" xlink:href="#DejaVuSans-30"/>
      </g>
     </g>
    </g>
    <g id="ytick_3">
     <g id="line2d_13">
      <g>
       <use style="stroke:#000000;stroke-width:0.5;" x="108.0" xlink:href="#m728421d6d4" y="216.083116883"/>
      </g>
     </g>
     <g id="line2d_14">
      <g>
       <use style="stroke:#000000;stroke-width:0.5;" x="777.6" xlink:href="#mcb0005524f" y="216.083116883"/>
      </g>
     </g>
     <g id="text_3">
      <!-- 40 -->
      <defs>
       <path d="
M37.7969 64.3125
L12.8906 25.3906
L37.7969 25.3906
z

M35.2031 72.9062
L47.6094 72.9062
L47.6094 25.3906
L58.0156 25.3906
L58.0156 17.1875
L47.6094 17.1875
L47.6094 0
L37.7969 0
L37.7969 17.1875
L4.89062 17.1875
L4.89062 26.7031
z
" id="DejaVuSans-34"/>
      </defs>
      <g transform="translate(90.11375 219.394366883)scale(0.12 -0.12)">
       <use xlink:href="#DejaVuSans-34"/>
       <use x="63.623046875" xlink:href="#DejaVuSans-30"/>
      </g>
     </g>
    </g>
    <g id="ytick_4">
     <g id="line2d_15">
      <g>
       <use style="stroke:#000000;stroke-width:0.5;" x="108.0" xlink:href="#m728421d6d4" y="162.888311688"/>
      </g>
     </g>
     <g id="line2d_16">
      <g>
       <use style="stroke:#000000;stroke-width:0.5;" x="777.6" xlink:href="#mcb0005524f" y="162.888311688"/>
      </g>
     </g>
     <g id="text_4">
      <!-- 60 -->
      <defs>
       <path d="
M33.0156 40.375
Q26.375 40.375 22.4844 35.8281
Q18.6094 31.2969 18.6094 23.3906
Q18.6094 15.5312 22.4844 10.9531
Q26.375 6.39062 33.0156 6.39062
Q39.6562 6.39062 43.5312 10.9531
Q47.4062 15.5312 47.4062 23.3906
Q47.4062 31.2969 43.5312 35.8281
Q39.6562 40.375 33.0156 40.375
M52.5938 71.2969
L52.5938 62.3125
Q48.875 64.0625 45.0938 64.9844
Q41.3125 65.9219 37.5938 65.9219
Q27.8281 65.9219 22.6719 59.3281
Q17.5312 52.7344 16.7969 39.4062
Q19.6719 43.6562 24.0156 45.9219
Q28.375 48.1875 33.5938 48.1875
Q44.5781 48.1875 50.9531 41.5156
Q57.3281 34.8594 57.3281 23.3906
Q57.3281 12.1562 50.6875 5.35938
Q44.0469 -1.42188 33.0156 -1.42188
Q20.3594 -1.42188 13.6719 8.26562
Q6.98438 17.9688 6.98438 36.375
Q6.98438 53.6562 15.1875 63.9375
Q23.3906 74.2188 37.2031 74.2188
Q40.9219 74.2188 44.7031 73.4844
Q48.4844 72.75 52.5938 71.2969" id="DejaVuSans-36"/>
      </defs>
      <g transform="translate(90.365 166.199561688)scale(0.12 -0.12)">
       <use xlink:href="#DejaVuSans-36"/>
       <use x="63.623046875" xlink:href="#DejaVuSans-30"/>
      </g>
     </g>
    </g>
    <g id="ytick_5">
     <g id="line2d_17">
      <g>
       <use style="stroke:#000000;stroke-width:0.5;" x="108.0" xlink:href="#m728421d6d4" y="109.693506494"/>
      </g>
     </g>
     <g id="line2d_18">
      <g>
       <use style="stroke:#000000;stroke-width:0.5;" x="777.6" xlink:href="#mcb0005524f" y="109.693506494"/>
      </g>
     </g>
     <g id="text_5">
      <!-- 80 -->
      <defs>
       <path d="
M31.7812 34.625
Q24.75 34.625 20.7188 30.8594
Q16.7031 27.0938 16.7031 20.5156
Q16.7031 13.9219 20.7188 10.1562
Q24.75 6.39062 31.7812 6.39062
Q38.8125 6.39062 42.8594 10.1719
Q46.9219 13.9688 46.9219 20.5156
Q46.9219 27.0938 42.8906 30.8594
Q38.875 34.625 31.7812 34.625
M21.9219 38.8125
Q15.5781 40.375 12.0312 44.7188
Q8.5 49.0781 8.5 55.3281
Q8.5 64.0625 14.7188 69.1406
Q20.9531 74.2188 31.7812 74.2188
Q42.6719 74.2188 48.875 69.1406
Q55.0781 64.0625 55.0781 55.3281
Q55.0781 49.0781 51.5312 44.7188
Q48 40.375 41.7031 38.8125
Q48.8281 37.1562 52.7969 32.3125
Q56.7812 27.4844 56.7812 20.5156
Q56.7812 9.90625 50.3125 4.23438
Q43.8438 -1.42188 31.7812 -1.42188
Q19.7344 -1.42188 13.25 4.23438
Q6.78125 9.90625 6.78125 20.5156
Q6.78125 27.4844 10.7812 32.3125
Q14.7969 37.1562 21.9219 38.8125
M18.3125 54.3906
Q18.3125 48.7344 21.8438 45.5625
Q25.3906 42.3906 31.7812 42.3906
Q38.1406 42.3906 41.7188 45.5625
Q45.3125 48.7344 45.3125 54.3906
Q45.3125 60.0625 41.7188 63.2344
Q38.1406 66.4062 31.7812 66.4062
Q25.3906 66.4062 21.8438 63.2344
Q18.3125 60.0625 18.3125 54.3906" id="DejaVuSans-38"/>
      </defs>
      <g transform="translate(90.340625 113.004756494)scale(0.12 -0.12)">
       <use xlink:href="#DejaVuSans-38"/>
       <use x="63.623046875" xlink:href="#DejaVuSans-30"/>
      </g>
     </g>
    </g>
    <g id="ytick_6">
     <g id="line2d_19">
      <g>
       <use style="stroke:#000000;stroke-width:0.5;" x="108.0" xlink:href="#m728421d6d4" y="56.4987012987"/>
      </g>
     </g>
     <g id="line2d_20">
      <g>
       <use style="stroke:#000000;stroke-width:0.5;" x="777.6" xlink:href="#mcb0005524f" y="56.4987012987"/>
      </g>
     </g>
     <g id="text_6">
      <!-- 100 -->
      <defs>
       <path d="
M12.4062 8.29688
L28.5156 8.29688
L28.5156 63.9219
L10.9844 60.4062
L10.9844 69.3906
L28.4219 72.9062
L38.2812 72.9062
L38.2812 8.29688
L54.3906 8.29688
L54.3906 0
L12.4062 0
z
" id="DejaVuSans-31"/>
      </defs>
      <g transform="translate(83.21 59.8099512987)scale(0.12 -0.12)">
       <use xlink:href="#DejaVuSans-31"/>
       <use x="63.623046875" xlink:href="#DejaVuSans-30"/>
       <use x="127.24609375" xlink:href="#DejaVuSans-30"/>
      </g>
     </g>
    </g>
    <g id="text_7">
     <!-- Methylation -->
     <defs>
      <path d="
M9.8125 72.9062
L24.5156 72.9062
L43.1094 23.2969
L61.8125 72.9062
L76.5156 72.9062
L76.5156 0
L66.8906 0
L66.8906 64.0156
L48.0938 14.0156
L38.1875 14.0156
L19.3906 64.0156
L19.3906 0
L9.8125 0
z
" id="DejaVuSans-4d"/>
      <path d="
M30.6094 48.3906
Q23.3906 48.3906 19.1875 42.75
Q14.9844 37.1094 14.9844 27.2969
Q14.9844 17.4844 19.1562 11.8438
Q23.3438 6.20312 30.6094 6.20312
Q37.7969 6.20312 41.9844 11.8594
Q46.1875 17.5312 46.1875 27.2969
Q46.1875 37.0156 41.9844 42.7031
Q37.7969 48.3906 30.6094 48.3906
M30.6094 56
Q42.3281 56 49.0156 48.375
Q55.7188 40.7656 55.7188 27.2969
Q55.7188 13.875 49.0156 6.21875
Q42.3281 -1.42188 30.6094 -1.42188
Q18.8438 -1.42188 12.1719 6.21875
Q5.51562 13.875 5.51562 27.2969
Q5.51562 40.7656 12.1719 48.375
Q18.8438 56 30.6094 56" id="DejaVuSans-6f"/>
      <path d="
M54.8906 33.0156
L54.8906 0
L45.9062 0
L45.9062 32.7188
Q45.9062 40.4844 42.875 44.3281
Q39.8438 48.1875 33.7969 48.1875
Q26.5156 48.1875 22.3125 43.5469
Q18.1094 38.9219 18.1094 30.9062
L18.1094 0
L9.07812 0
L9.07812 54.6875
L18.1094 54.6875
L18.1094 46.1875
Q21.3438 51.125 25.7031 53.5625
Q30.0781 56 35.7969 56
Q45.2188 56 50.0469 50.1719
Q54.8906 44.3438 54.8906 33.0156" id="DejaVuSans-6e"/>
      <path d="
M9.42188 75.9844
L18.4062 75.9844
L18.4062 0
L9.42188 0
z
" id="DejaVuSans-6c"/>
      <path d="
M32.1719 -5.07812
Q28.375 -14.8438 24.75 -17.8125
Q21.1406 -20.7969 15.0938 -20.7969
L7.90625 -20.7969
L7.90625 -13.2812
L13.1875 -13.2812
Q16.8906 -13.2812 18.9375 -11.5156
Q21 -9.76562 23.4844 -3.21875
L25.0938 0.875
L2.98438 54.6875
L12.5 54.6875
L29.5938 11.9219
L46.6875 54.6875
L56.2031 54.6875
z
" id="DejaVuSans-79"/>
      <path d="
M54.8906 33.0156
L54.8906 0
L45.9062 0
L45.9062 32.7188
Q45.9062 40.4844 42.875 44.3281
Q39.8438 48.1875 33.7969 48.1875
Q26.5156 48.1875 22.3125 43.5469
Q18.1094 38.9219 18.1094 30.9062
L18.1094 0
L9.07812 0
L9.07812 75.9844
L18.1094 75.9844
L18.1094 46.1875
Q21.3438 51.125 25.7031 53.5625
Q30.0781 56 35.7969 56
Q45.2188 56 50.0469 50.1719
Q54.8906 44.3438 54.8906 33.0156" id="DejaVuSans-68"/>
      <path d="
M9.42188 54.6875
L18.4062 54.6875
L18.4062 0
L9.42188 0
z

M9.42188 75.9844
L18.4062 75.9844
L18.4062 64.5938
L9.42188 64.5938
z
" id="DejaVuSans-69"/>
      <path d="
M18.3125 70.2188
L18.3125 54.6875
L36.8125 54.6875
L36.8125 47.7031
L18.3125 47.7031
L18.3125 18.0156
Q18.3125 11.3281 20.1406 9.42188
Q21.9688 7.51562 27.5938 7.51562
L36.8125 7.51562
L36.8125 0
L27.5938 0
Q17.1875 0 13.2344 3.875
Q9.28125 7.76562 9.28125 18.0156
L9.28125 47.7031
L2.6875 47.7031
L2.6875 54.6875
L9.28125 54.6875
L9.28125 70.2188
z
" id="DejaVuSans-74"/>
      <path d="
M56.2031 29.5938
L56.2031 25.2031
L14.8906 25.2031
Q15.4844 15.9219 20.4844 11.0625
Q25.4844 6.20312 34.4219 6.20312
Q39.5938 6.20312 44.4531 7.46875
Q49.3125 8.73438 54.1094 11.2812
L54.1094 2.78125
Q49.2656 0.734375 44.1875 -0.34375
Q39.1094 -1.42188 33.8906 -1.42188
Q20.7969 -1.42188 13.1562 6.1875
Q5.51562 13.8125 5.51562 26.8125
Q5.51562 40.2344 12.7656 48.1094
Q20.0156 56 32.3281 56
Q43.3594 56 49.7812 48.8906
Q56.2031 41.7969 56.2031 29.5938
M47.2188 32.2344
Q47.125 39.5938 43.0938 43.9844
Q39.0625 48.3906 32.4219 48.3906
Q24.9062 48.3906 20.3906 44.1406
Q15.875 39.8906 15.1875 32.1719
z
" id="DejaVuSans-65"/>
      <path d="
M34.2812 27.4844
Q23.3906 27.4844 19.1875 25
Q14.9844 22.5156 14.9844 16.5
Q14.9844 11.7188 18.1406 8.90625
Q21.2969 6.10938 26.7031 6.10938
Q34.1875 6.10938 38.7031 11.4062
Q43.2188 16.7031 43.2188 25.4844
L43.2188 27.4844
z

M52.2031 31.2031
L52.2031 0
L43.2188 0
L43.2188 8.29688
Q40.1406 3.32812 35.5469 0.953125
Q30.9531 -1.42188 24.3125 -1.42188
Q15.9219 -1.42188 10.9531 3.29688
Q6 8.01562 6 15.9219
Q6 25.1406 12.1719 29.8281
Q18.3594 34.5156 30.6094 34.5156
L43.2188 34.5156
L43.2188 35.4062
Q43.2188 41.6094 39.1406 45
Q35.0625 48.3906 27.6875 48.3906
Q23 48.3906 18.5469 47.2656
Q14.1094 46.1406 10.0156 43.8906
L10.0156 52.2031
Q14.9375 54.1094 19.5781 55.0469
Q24.2188 56 28.6094 56
Q40.4844 56 46.3438 49.8438
Q52.2031 43.7031 52.2031 31.2031" id="DejaVuSans-61"/>
     </defs>
     <g transform="translate(75.714375 217.149801136)rotate(-90.0)scale(0.12 -0.12)">
      <use xlink:href="#DejaVuSans-4d"/>
      <use x="86.279296875" xlink:href="#DejaVuSans-65"/>
      <use x="147.802734375" xlink:href="#DejaVuSans-74"/>
      <use x="187.01171875" xlink:href="#DejaVuSans-68"/>
      <use x="250.390625" xlink:href="#DejaVuSans-79"/>
      <use x="309.5703125" xlink:href="#DejaVuSans-6c"/>
      <use x="337.353515625" xlink:href="#DejaVuSans-61"/>
      <use x="398.6328125" xlink:href="#DejaVuSans-74"/>
      <use x="437.841796875" xlink:href="#DejaVuSans-69"/>
      <use x="465.625" xlink:href="#DejaVuSans-6f"/>
      <use x="526.806640625" xlink:href="#DejaVuSans-6e"/>
     </g>
    </g>
   </g>
  </g>
  <g id="axes_2">
   <g id="patch_14">
    <path d="
M108 388.8
L777.6 388.8
L777.6 353.891
L108 353.891
z
" style="fill:#ffffff;"/>
   </g>
   <g id="line2d_21">
    <path clip-path="url(#pc82b1f09f0)" d="
M108 371.345
L777.6 371.345" style="fill:none;stroke:#000000;stroke-linecap:square;"/>
   </g>
   <g id="line2d_22">
    <path clip-path="url(#pc82b1f09f0)" d="
M127.818 371.345
L757.782 371.345" style="fill:none;stroke:#008000;stroke-linecap:square;stroke-width:3;"/>
   </g>
   <g id="patch_15">
    <path clip-path="url(#pc82b1f09f0)" d="
M749.934 388.8
L757.782 388.8
L757.782 353.891
L749.934 353.891
z
" style="fill:#008000;"/>
   </g>
   <g id="patch_16">
    <path clip-path="url(#pc82b1f09f0)" d="
M387.636 388.8
L390.173 388.8
L390.173 353.891
L387.636 353.891
z
" style="fill:#008000;"/>
   </g>
   <g id="patch_17">
    <path clip-path="url(#pc82b1f09f0)" d="
M338.15 388.8
L340.27 388.8
L340.27 353.891
L338.15 353.891
z
" style="fill:#008000;"/>
   </g>
   <g id="patch_18">
    <path clip-path="url(#pc82b1f09f0)" d="
M277.387 388.8
L281.033 388.8
L281.033 353.891
L277.387 353.891
z
" style="fill:#008000;"/>
   </g>
   <g id="patch_19">
    <path clip-path="url(#pc82b1f09f0)" d="
M246.807 388.8
L247.798 388.8
L247.798 353.891
L246.807 353.891
z
" style="fill:#008000;"/>
   </g>
   <g id="patch_20">
    <path clip-path="url(#pc82b1f09f0)" d="
M181.803 388.8
L183.448 388.8
L183.448 353.891
L181.803 353.891
z
" style="fill:#008000;"/>
   </g>
   <g id="patch_21">
    <path clip-path="url(#pc82b1f09f0)" d="
M127.818 388.8
L148.409 388.8
L148.409 353.891
L127.818 353.891
z
" style="fill:#008000;"/>
   </g>
   <g id="patch_22">
    <path d="
M108 353.891
L777.6 353.891" style="fill:none;"/>
   </g>
   <g id="patch_23">
    <path d="
M777.6 388.8
L777.6 353.891" style="fill:none;"/>
   </g>
   <g id="patch_24">
    <path d="
M108 388.8
L777.6 388.8" style="fill:none;"/>
   </g>
   <g id="patch_25">
    <path d="
M108 388.8
L108 353.891" style="fill:none;"/>
   </g>
   <g id="matplotlib.axis_2">
    <g id="xtick_1">
     <g id="line2d_23">
      <defs>
       <path d="
M0 0
L0 -4" id="m93b0483c22" style="stroke:#000000;stroke-width:0.5;"/>
      </defs>
      <g>
       <use style="stroke:#000000;stroke-width:0.5;" x="174.29212419" xlink:href="#m93b0483c22" y="388.8"/>
      </g>
     </g>
     <g id="line2d_24">
      <defs>
       <path d="
M0 0
L0 4" id="m741efc42ff" style="stroke:#000000;stroke-width:0.5;"/>
      </defs>
      <g>
       <use style="stroke:#000000;stroke-width:0.5;" x="174.29212419" xlink:href="#m741efc42ff" y="353.890909091"/>
      </g>
     </g>
     <g id="text_8">
      <!-- 1000 -->
      <g transform="translate(160.07962419 401.918125)scale(0.12 -0.12)">
       <use xlink:href="#DejaVuSans-31"/>
       <use x="63.623046875" xlink:href="#DejaVuSans-30"/>
       <use x="127.24609375" xlink:href="#DejaVuSans-30"/>
       <use x="190.869140625" xlink:href="#DejaVuSans-30"/>
      </g>
     </g>
    </g>
    <g id="xtick_2">
     <g id="line2d_25">
      <g>
       <use style="stroke:#000000;stroke-width:0.5;" x="273.383490692" xlink:href="#m93b0483c22" y="388.8"/>
      </g>
     </g>
     <g id="line2d_26">
      <g>
       <use style="stroke:#000000;stroke-width:0.5;" x="273.383490692" xlink:href="#m741efc42ff" y="353.890909091"/>
      </g>
     </g>
     <g id="text_9">
      <!-- 2000 -->
      <g transform="translate(258.951615692 401.918125)scale(0.12 -0.12)">
       <use xlink:href="#DejaVuSans-32"/>
       <use x="63.623046875" xlink:href="#DejaVuSans-30"/>
       <use x="127.24609375" xlink:href="#DejaVuSans-30"/>
       <use x="190.869140625" xlink:href="#DejaVuSans-30"/>
      </g>
     </g>
    </g>
    <g id="xtick_3">
     <g id="line2d_27">
      <g>
       <use style="stroke:#000000;stroke-width:0.5;" x="372.474857194" xlink:href="#m93b0483c22" y="388.8"/>
      </g>
     </g>
     <g id="line2d_28">
      <g>
       <use style="stroke:#000000;stroke-width:0.5;" x="372.474857194" xlink:href="#m741efc42ff" y="353.890909091"/>
      </g>
     </g>
     <g id="text_10">
      <!-- 3000 -->
      <defs>
       <path d="
M40.5781 39.3125
Q47.6562 37.7969 51.625 33
Q55.6094 28.2188 55.6094 21.1875
Q55.6094 10.4062 48.1875 4.48438
Q40.7656 -1.42188 27.0938 -1.42188
Q22.5156 -1.42188 17.6562 -0.515625
Q12.7969 0.390625 7.625 2.20312
L7.625 11.7188
Q11.7188 9.32812 16.5938 8.10938
Q21.4844 6.89062 26.8125 6.89062
Q36.0781 6.89062 40.9375 10.5469
Q45.7969 14.2031 45.7969 21.1875
Q45.7969 27.6406 41.2812 31.2656
Q36.7656 34.9062 28.7188 34.9062
L20.2188 34.9062
L20.2188 43.0156
L29.1094 43.0156
Q36.375 43.0156 40.2344 45.9219
Q44.0938 48.8281 44.0938 54.2969
Q44.0938 59.9062 40.1094 62.9062
Q36.1406 65.9219 28.7188 65.9219
Q24.6562 65.9219 20.0156 65.0312
Q15.375 64.1562 9.8125 62.3125
L9.8125 71.0938
Q15.4375 72.6562 20.3438 73.4375
Q25.25 74.2188 29.5938 74.2188
Q40.8281 74.2188 47.3594 69.1094
Q53.9062 64.0156 53.9062 55.3281
Q53.9062 49.2656 50.4375 45.0938
Q46.9688 40.9219 40.5781 39.3125" id="DejaVuSans-33"/>
      </defs>
      <g transform="translate(358.060794694 401.918125)scale(0.12 -0.12)">
       <use xlink:href="#DejaVuSans-33"/>
       <use x="63.623046875" xlink:href="#DejaVuSans-30"/>
       <use x="127.24609375" xlink:href="#DejaVuSans-30"/>
       <use x="190.869140625" xlink:href="#DejaVuSans-30"/>
      </g>
     </g>
    </g>
    <g id="xtick_4">
     <g id="line2d_29">
      <g>
       <use style="stroke:#000000;stroke-width:0.5;" x="471.566223695" xlink:href="#m93b0483c22" y="388.8"/>
      </g>
     </g>
     <g id="line2d_30">
      <g>
       <use style="stroke:#000000;stroke-width:0.5;" x="471.566223695" xlink:href="#m741efc42ff" y="353.890909091"/>
      </g>
     </g>
     <g id="text_11">
      <!-- 4000 -->
      <g transform="translate(456.988098695 401.918125)scale(0.12 -0.12)">
       <use xlink:href="#DejaVuSans-34"/>
       <use x="63.623046875" xlink:href="#DejaVuSans-30"/>
       <use x="127.24609375" xlink:href="#DejaVuSans-30"/>
       <use x="190.869140625" xlink:href="#DejaVuSans-30"/>
      </g>
     </g>
    </g>
    <g id="xtick_5">
     <g id="line2d_31">
      <g>
       <use style="stroke:#000000;stroke-width:0.5;" x="570.657590197" xlink:href="#m93b0483c22" y="388.8"/>
      </g>
     </g>
     <g id="line2d_32">
      <g>
       <use style="stroke:#000000;stroke-width:0.5;" x="570.657590197" xlink:href="#m741efc42ff" y="353.890909091"/>
      </g>
     </g>
     <g id="text_12">
      <!-- 5000 -->
      <defs>
       <path d="
M10.7969 72.9062
L49.5156 72.9062
L49.5156 64.5938
L19.8281 64.5938
L19.8281 46.7344
Q21.9688 47.4688 24.1094 47.8281
Q26.2656 48.1875 28.4219 48.1875
Q40.625 48.1875 47.75 41.5
Q54.8906 34.8125 54.8906 23.3906
Q54.8906 11.625 47.5625 5.09375
Q40.2344 -1.42188 26.9062 -1.42188
Q22.3125 -1.42188 17.5469 -0.640625
Q12.7969 0.140625 7.71875 1.70312
L7.71875 11.625
Q12.1094 9.23438 16.7969 8.0625
Q21.4844 6.89062 26.7031 6.89062
Q35.1562 6.89062 40.0781 11.3281
Q45.0156 15.7656 45.0156 23.3906
Q45.0156 31 40.0781 35.4375
Q35.1562 39.8906 26.7031 39.8906
Q22.75 39.8906 18.8125 39.0156
Q14.8906 38.1406 10.7969 36.2812
z
" id="DejaVuSans-35"/>
      </defs>
      <g transform="translate(556.249152697 401.918125)scale(0.12 -0.12)">
       <use xlink:href="#DejaVuSans-35"/>
       <use x="63.623046875" xlink:href="#DejaVuSans-30"/>
       <use x="127.24609375" xlink:href="#DejaVuSans-30"/>
       <use x="190.869140625" xlink:href="#DejaVuSans-30"/>
      </g>
     </g>
    </g>
    <g id="xtick_6">
     <g id="line2d_33">
      <g>
       <use style="stroke:#000000;stroke-width:0.5;" x="669.748956699" xlink:href="#m93b0483c22" y="388.8"/>
      </g>
     </g>
     <g id="line2d_34">
      <g>
       <use style="stroke:#000000;stroke-width:0.5;" x="669.748956699" xlink:href="#m741efc42ff" y="353.890909091"/>
      </g>
     </g>
     <g id="text_13">
      <!-- 6000 -->
      <g transform="translate(655.296456699 401.918125)scale(0.12 -0.12)">
       <use xlink:href="#DejaVuSans-36"/>
       <use x="63.623046875" xlink:href="#DejaVuSans-30"/>
       <use x="127.24609375" xlink:href="#DejaVuSans-30"/>
       <use x="190.869140625" xlink:href="#DejaVuSans-30"/>
      </g>
     </g>
    </g>
    <g id="xtick_7">
     <g id="line2d_35">
      <g>
       <use style="stroke:#000000;stroke-width:0.5;" x="768.840323201" xlink:href="#m93b0483c22" y="388.8"/>
      </g>
     </g>
     <g id="line2d_36">
      <g>
       <use style="stroke:#000000;stroke-width:0.5;" x="768.840323201" xlink:href="#m741efc42ff" y="353.890909091"/>
      </g>
     </g>
     <g id="text_14">
      <!-- 7000 -->
      <defs>
       <path d="
M8.20312 72.9062
L55.0781 72.9062
L55.0781 68.7031
L28.6094 0
L18.3125 0
L43.2188 64.5938
L8.20312 64.5938
z
" id="DejaVuSans-37"/>
      </defs>
      <g transform="translate(754.460948201 401.918125)scale(0.12 -0.12)">
       <use xlink:href="#DejaVuSans-37"/>
       <use x="63.623046875" xlink:href="#DejaVuSans-30"/>
       <use x="127.24609375" xlink:href="#DejaVuSans-30"/>
       <use x="190.869140625" xlink:href="#DejaVuSans-30"/>
      </g>
     </g>
    </g>
    <g id="text_15">
     <!-- Length (bp) -->
     <defs>
      <path d="
M9.8125 72.9062
L19.6719 72.9062
L19.6719 8.29688
L55.1719 8.29688
L55.1719 0
L9.8125 0
z
" id="DejaVuSans-4c"/>
      <path id="DejaVuSans-20"/>
      <path d="
M45.4062 27.9844
Q45.4062 37.75 41.375 43.1094
Q37.3594 48.4844 30.0781 48.4844
Q22.8594 48.4844 18.8281 43.1094
Q14.7969 37.75 14.7969 27.9844
Q14.7969 18.2656 18.8281 12.8906
Q22.8594 7.51562 30.0781 7.51562
Q37.3594 7.51562 41.375 12.8906
Q45.4062 18.2656 45.4062 27.9844
M54.3906 6.78125
Q54.3906 -7.17188 48.1875 -13.9844
Q42 -20.7969 29.2031 -20.7969
Q24.4688 -20.7969 20.2656 -20.0938
Q16.0625 -19.3906 12.1094 -17.9219
L12.1094 -9.1875
Q16.0625 -11.3281 19.9219 -12.3438
Q23.7812 -13.375 27.7812 -13.375
Q36.625 -13.375 41.0156 -8.76562
Q45.4062 -4.15625 45.4062 5.17188
L45.4062 9.625
Q42.625 4.78125 38.2812 2.39062
Q33.9375 0 27.875 0
Q17.8281 0 11.6719 7.65625
Q5.51562 15.3281 5.51562 27.9844
Q5.51562 40.6719 11.6719 48.3281
Q17.8281 56 27.875 56
Q33.9375 56 38.2812 53.6094
Q42.625 51.2188 45.4062 46.3906
L45.4062 54.6875
L54.3906 54.6875
z
" id="DejaVuSans-67"/>
      <path d="
M31 75.875
Q24.4688 64.6562 21.2812 53.6562
Q18.1094 42.6719 18.1094 31.3906
Q18.1094 20.125 21.3125 9.0625
Q24.5156 -2 31 -13.1875
L23.1875 -13.1875
Q15.875 -1.70312 12.2344 9.375
Q8.59375 20.4531 8.59375 31.3906
Q8.59375 42.2812 12.2031 53.3125
Q15.8281 64.3594 23.1875 75.875
z
" id="DejaVuSans-28"/>
      <path d="
M8.01562 75.875
L15.8281 75.875
Q23.1406 64.3594 26.7812 53.3125
Q30.4219 42.2812 30.4219 31.3906
Q30.4219 20.4531 26.7812 9.375
Q23.1406 -1.70312 15.8281 -13.1875
L8.01562 -13.1875
Q14.5 -2 17.7031 9.0625
Q20.9062 20.125 20.9062 31.3906
Q20.9062 42.6719 17.7031 53.6562
Q14.5 64.6562 8.01562 75.875" id="DejaVuSans-29"/>
      <path d="
M48.6875 27.2969
Q48.6875 37.2031 44.6094 42.8438
Q40.5312 48.4844 33.4062 48.4844
Q26.2656 48.4844 22.1875 42.8438
Q18.1094 37.2031 18.1094 27.2969
Q18.1094 17.3906 22.1875 11.75
Q26.2656 6.10938 33.4062 6.10938
Q40.5312 6.10938 44.6094 11.75
Q48.6875 17.3906 48.6875 27.2969
M18.1094 46.3906
Q20.9531 51.2656 25.2656 53.625
Q29.5938 56 35.5938 56
Q45.5625 56 51.7812 48.0938
Q58.0156 40.1875 58.0156 27.2969
Q58.0156 14.4062 51.7812 6.48438
Q45.5625 -1.42188 35.5938 -1.42188
Q29.5938 -1.42188 25.2656 0.953125
Q20.9531 3.32812 18.1094 8.20312
L18.1094 0
L9.07812 0
L9.07812 75.9844
L18.1094 75.9844
z
" id="DejaVuSans-62"/>
      <path d="
M18.1094 8.20312
L18.1094 -20.7969
L9.07812 -20.7969
L9.07812 54.6875
L18.1094 54.6875
L18.1094 46.3906
Q20.9531 51.2656 25.2656 53.625
Q29.5938 56 35.5938 56
Q45.5625 56 51.7812 48.0938
Q58.0156 40.1875 58.0156 27.2969
Q58.0156 14.4062 51.7812 6.48438
Q45.5625 -1.42188 35.5938 -1.42188
Q29.5938 -1.42188 25.2656 0.953125
Q20.9531 3.32812 18.1094 8.20312
M48.6875 27.2969
Q48.6875 37.2031 44.6094 42.8438
Q40.5312 48.4844 33.4062 48.4844
Q26.2656 48.4844 22.1875 42.8438
Q18.1094 37.2031 18.1094 27.2969
Q18.1094 17.3906 22.1875 11.75
Q26.2656 6.10938 33.4062 6.10938
Q40.5312 6.10938 44.6094 11.75
Q48.6875 17.3906 48.6875 27.2969" id="DejaVuSans-70"/>
     </defs>
     <g transform="translate(408.4125 418.531875)scale(0.12 -0.12)">
      <use xlink:href="#DejaVuSans-4c"/>
      <use x="53.962890625" xlink:href="#DejaVuSans-65"/>
      <use x="115.486328125" xlink:href="#DejaVuSans-6e"/>
      <use x="178.865234375" xlink:href="#DejaVuSans-67"/>
      <use x="242.341796875" xlink:href="#DejaVuSans-74"/>
      <use x="281.55078125" xlink:href="#DejaVuSans-68"/>
      <use x="344.9296875" xlink:href="#DejaVuSans-20"/>
      <use x="376.716796875" xlink:href="#DejaVuSans-28"/>
      <use x="415.73046875" xlink:href="#DejaVuSans-62"/>
      <use x="479.20703125" xlink:href="#DejaVuSans-70"/>
      <use x="542.68359375" xlink:href="#DejaVuSans-29"/>
     </g>
     <!-- chr9:96332655-96364442 -->
     <defs>
      <path d="
M10.9844 1.51562
L10.9844 10.5
Q14.7031 8.73438 18.5 7.8125
Q22.3125 6.89062 25.9844 6.89062
Q35.75 6.89062 40.8906 13.4531
Q46.0469 20.0156 46.7812 33.4062
Q43.9531 29.2031 39.5938 26.9531
Q35.25 24.7031 29.9844 24.7031
Q19.0469 24.7031 12.6719 31.3125
Q6.29688 37.9375 6.29688 49.4219
Q6.29688 60.6406 12.9375 67.4219
Q19.5781 74.2188 30.6094 74.2188
Q43.2656 74.2188 49.9219 64.5156
Q56.5938 54.8281 56.5938 36.375
Q56.5938 19.1406 48.4062 8.85938
Q40.2344 -1.42188 26.4219 -1.42188
Q22.7031 -1.42188 18.8906 -0.6875
Q15.0938 0.046875 10.9844 1.51562
M30.6094 32.4219
Q37.25 32.4219 41.125 36.9531
Q45.0156 41.5 45.0156 49.4219
Q45.0156 57.2812 41.125 61.8438
Q37.25 66.4062 30.6094 66.4062
Q23.9688 66.4062 20.0938 61.8438
Q16.2188 57.2812 16.2188 49.4219
Q16.2188 41.5 20.0938 36.9531
Q23.9688 32.4219 30.6094 32.4219" id="DejaVuSans-39"/>
      <path d="
M11.7188 12.4062
L22.0156 12.4062
L22.0156 0
L11.7188 0
z

M11.7188 51.7031
L22.0156 51.7031
L22.0156 39.3125
L11.7188 39.3125
z
" id="DejaVuSans-3a"/>
      <path d="
M48.7812 52.5938
L48.7812 44.1875
Q44.9688 46.2969 41.1406 47.3438
Q37.3125 48.3906 33.4062 48.3906
Q24.6562 48.3906 19.8125 42.8438
Q14.9844 37.3125 14.9844 27.2969
Q14.9844 17.2812 19.8125 11.7344
Q24.6562 6.20312 33.4062 6.20312
Q37.3125 6.20312 41.1406 7.25
Q44.9688 8.29688 48.7812 10.4062
L48.7812 2.09375
Q45.0156 0.34375 40.9844 -0.53125
Q36.9688 -1.42188 32.4219 -1.42188
Q20.0625 -1.42188 12.7812 6.34375
Q5.51562 14.1094 5.51562 27.2969
Q5.51562 40.6719 12.8594 48.3281
Q20.2188 56 33.0156 56
Q37.1562 56 41.1094 55.1406
Q45.0625 54.2969 48.7812 52.5938" id="DejaVuSans-63"/>
      <path d="
M4.89062 31.3906
L31.2031 31.3906
L31.2031 23.3906
L4.89062 23.3906
z
" id="DejaVuSans-2d"/>
      <path d="
M41.1094 46.2969
Q39.5938 47.1719 37.8125 47.5781
Q36.0312 48 33.8906 48
Q26.2656 48 22.1875 43.0469
Q18.1094 38.0938 18.1094 28.8125
L18.1094 0
L9.07812 0
L9.07812 54.6875
L18.1094 54.6875
L18.1094 46.1875
Q20.9531 51.1719 25.4844 53.5781
Q30.0312 56 36.5312 56
Q37.4531 56 38.5781 55.875
Q39.7031 55.7656 41.0625 55.5156
z
" id="DejaVuSans-72"/>
     </defs>
     <g transform="translate(365.0803125 431.96925)scale(0.12 -0.12)">
      <use xlink:href="#DejaVuSans-63"/>
      <use x="54.98046875" xlink:href="#DejaVuSans-68"/>
      <use x="118.359375" xlink:href="#DejaVuSans-72"/>
      <use x="159.47265625" xlink:href="#DejaVuSans-39"/>
      <use x="223.095703125" xlink:href="#DejaVuSans-3a"/>
      <use x="256.787109375" xlink:href="#DejaVuSans-39"/>
      <use x="320.41015625" xlink:href="#DejaVuSans-36"/>
      <use x="384.033203125" xlink:href="#DejaVuSans-33"/>
      <use x="447.65625" xlink:href="#DejaVuSans-33"/>
      <use x="511.279296875" xlink:href="#DejaVuSans-32"/>
      <use x="574.90234375" xlink:href="#DejaVuSans-36"/>
      <use x="638.525390625" xlink:href="#DejaVuSans-35"/>
      <use x="702.1484375" xlink:href="#DejaVuSans-35"/>
      <use x="765.771484375" xlink:href="#DejaVuSans-2d"/>
      <use x="801.85546875" xlink:href="#DejaVuSans-39"/>
      <use x="865.478515625" xlink:href="#DejaVuSans-36"/>
      <use x="929.1015625" xlink:href="#DejaVuSans-33"/>
      <use x="992.724609375" xlink:href="#DejaVuSans-36"/>
      <use x="1056.34765625" xlink:href="#DejaVuSans-34"/>
      <use x="1119.97070312" xlink:href="#DejaVuSans-34"/>
      <use x="1183.59375" xlink:href="#DejaVuSans-34"/>
      <use x="1247.21679688" xlink:href="#DejaVuSans-32"/>
     </g>
    </g>
   </g>
  </g>
  <g id="text_16">
   <!-- ENSMUST00000034983 (Atp1b3) -->
   <defs>
    <path d="
M9.8125 72.9062
L23.0938 72.9062
L55.4219 11.9219
L55.4219 72.9062
L64.9844 72.9062
L64.9844 0
L51.7031 0
L19.3906 60.9844
L19.3906 0
L9.8125 0
z
" id="DejaVuSans-4e"/>
    <path d="
M9.8125 72.9062
L55.9062 72.9062
L55.9062 64.5938
L19.6719 64.5938
L19.6719 43.0156
L54.3906 43.0156
L54.3906 34.7188
L19.6719 34.7188
L19.6719 8.29688
L56.7812 8.29688
L56.7812 0
L9.8125 0
z
" id="DejaVuSans-45"/>
    <path d="
M34.1875 63.1875
L20.7969 26.9062
L47.6094 26.9062
z

M28.6094 72.9062
L39.7969 72.9062
L67.5781 0
L57.3281 0
L50.6875 18.7031
L17.8281 18.7031
L11.1875 0
L0.78125 0
z
" id="DejaVuSans-41"/>
    <path d="
M53.5156 70.5156
L53.5156 60.8906
Q47.9062 63.5781 42.9219 64.8906
Q37.9375 66.2188 33.2969 66.2188
Q25.25 66.2188 20.875 63.0938
Q16.5 59.9688 16.5 54.2031
Q16.5 49.3594 19.4062 46.8906
Q22.3125 44.4375 30.4219 42.9219
L36.375 41.7031
Q47.4062 39.5938 52.6562 34.2969
Q57.9062 29 57.9062 20.125
Q57.9062 9.51562 50.7969 4.04688
Q43.7031 -1.42188 29.9844 -1.42188
Q24.8125 -1.42188 18.9688 -0.25
Q13.1406 0.921875 6.89062 3.21875
L6.89062 13.375
Q12.8906 10.0156 18.6562 8.29688
Q24.4219 6.59375 29.9844 6.59375
Q38.4219 6.59375 43.0156 9.90625
Q47.6094 13.2344 47.6094 19.3906
Q47.6094 24.75 44.3125 27.7812
Q41.0156 30.8125 33.5 32.3281
L27.4844 33.5
Q16.4531 35.6875 11.5156 40.375
Q6.59375 45.0625 6.59375 53.4219
Q6.59375 63.0938 13.4062 68.6562
Q20.2188 74.2188 32.1719 74.2188
Q37.3125 74.2188 42.625 73.2812
Q47.9531 72.3594 53.5156 70.5156" id="DejaVuSans-53"/>
    <path d="
M8.6875 72.9062
L18.6094 72.9062
L18.6094 28.6094
Q18.6094 16.8906 22.8438 11.7344
Q27.0938 6.59375 36.625 6.59375
Q46.0938 6.59375 50.3438 11.7344
Q54.5938 16.8906 54.5938 28.6094
L54.5938 72.9062
L64.5 72.9062
L64.5 27.3906
Q64.5 13.1406 57.4375 5.85938
Q50.3906 -1.42188 36.625 -1.42188
Q22.7969 -1.42188 15.7344 5.85938
Q8.6875 13.1406 8.6875 27.3906
z
" id="DejaVuSans-55"/>
    <path d="
M-0.296875 72.9062
L61.375 72.9062
L61.375 64.5938
L35.5 64.5938
L35.5 0
L25.5938 0
L25.5938 64.5938
L-0.296875 64.5938
z
" id="DejaVuSans-54"/>
   </defs>
   <g transform="translate(333.19875 17.758125)scale(0.12 -0.12)">
    <use xlink:href="#DejaVuSans-45"/>
    <use x="63.18359375" xlink:href="#DejaVuSans-4e"/>
    <use x="137.98828125" xlink:href="#DejaVuSans-53"/>
    <use x="201.46484375" xlink:href="#DejaVuSans-4d"/>
    <use x="287.744140625" xlink:href="#DejaVuSans-55"/>
    <use x="360.9375" xlink:href="#DejaVuSans-53"/>
    <use x="424.4140625" xlink:href="#DejaVuSans-54"/>
    <use x="485.498046875" xlink:href="#DejaVuSans-30"/>
    <use x="549.12109375" xlink:href="#DejaVuSans-30"/>
    <use x="612.744140625" xlink:href="#DejaVuSans-30"/>
    <use x="676.3671875" xlink:href="#DejaVuSans-30"/>
    <use x="739.990234375" xlink:href="#DejaVuSans-30"/>
    <use x="803.61328125" xlink:href="#DejaVuSans-30"/>
    <use x="867.236328125" xlink:href="#DejaVuSans-33"/>
    <use x="930.859375" xlink:href="#DejaVuSans-34"/>
    <use x="994.482421875" xlink:href="#DejaVuSans-39"/>
    <use x="1058.10546875" xlink:href="#DejaVuSans-38"/>
    <use x="1121.72851562" xlink:href="#DejaVuSans-33"/>
    <use x="1185.3515625" xlink:href="#DejaVuSans-20"/>
    <use x="1217.13867188" xlink:href="#DejaVuSans-28"/>
    <use x="1256.15234375" xlink:href="#DejaVuSans-41"/>
    <use x="1322.81054688" xlink:href="#DejaVuSans-74"/>
    <use x="1362.01953125" xlink:href="#DejaVuSans-70"/>
    <use x="1425.49609375" xlink:href="#DejaVuSans-31"/>
    <use x="1489.11914062" xlink:href="#DejaVuSans-62"/>
    <use x="1552.59570312" xlink:href="#DejaVuSans-33"/>
    <use x="1616.21875" xlink:href="#DejaVuSans-29"/>
   </g>
  </g>
 </g>
 <defs>
  <clipPath id="p9fd4257182">
   <rect height="279.272727273" width="669.6" x="108.0" y="43.2"/>
  </clipPath>
  <clipPath id="pc82b1f09f0">
   <rect height="34.9090909091" width="669.6" x="108.0" y="353.890909091"/>
  </clipPath>
 </defs>
</svg>
