<?xml version="1.0" encoding="utf-8" standalone="no"?>
<!DOCTYPE svg PUBLIC "-//W3C//DTD SVG 1.1//EN"
  "http://www.w3.org/Graphics/SVG/1.1/DTD/svg11.dtd">
<!-- Created with matplotlib (http://matplotlib.org/) -->
<svg height="432pt" version="1.1" viewBox="0 0 864 432" width="864pt" xmlns="http://www.w3.org/2000/svg" xmlns:xlink="http://www.w3.org/1999/xlink">
 <defs>
  <style type="text/css">
*{stroke-linecap:butt;stroke-linejoin:round;}
  </style>
 </defs>
 <g id="figure_1">
  <g id="patch_1">
   <path d="
M0 432
L864 432
L864 0
L0 0
z
" style="fill:#ffffff;"/>
  </g>
  <g id="axes_1">
   <g id="patch_2">
    <path d="
M108 322.473
L777.6 322.473
L777.6 43.2
L108 43.2
z
" style="fill:#ffffff;"/>
   </g>
   <g id="patch_3">
    <path clip-path="url(#p9fd4257182)" d="
M755.734 322.473
L758.301 322.473
L758.301 43.2
L755.734 43.2
z
" style="fill:#008000;opacity:0.2;"/>
   </g>
   <g id="patch_4">
    <path clip-path="url(#p9fd4257182)" d="
M672.845 322.473
L675.045 322.473
L675.045 43.2
L672.845 43.2
z
" style="fill:#008000;opacity:0.2;"/>
   </g>
   <g id="patch_5">
    <path clip-path="url(#p9fd4257182)" d="
M613.577 322.473
L615.835 322.473
L615.835 43.2
L613.577 43.2
z
" style="fill:#008000;opacity:0.2;"/>
   </g>
   <g id="patch_6">
    <path clip-path="url(#p9fd4257182)" d="
M556.433 322.473
L557.243 322.473
L557.243 43.2
L556.433 43.2
z
" style="fill:#008000;opacity:0.2;"/>
   </g>
   <g id="patch_7">
    <path clip-path="url(#p9fd4257182)" d="
M529.472 322.473
L531.479 322.473
L531.479 43.2
L529.472 43.2
z
" style="fill:#008000;opacity:0.2;"/>
   </g>
   <g id="patch_8">
    <path clip-path="url(#p9fd4257182)" d="
M437.898 322.473
L440.31 322.473
L440.31 43.2
L437.898 43.2
z
" style="fill:#008000;opacity:0.2;"/>
   </g>
   <g id="patch_9">
    <path clip-path="url(#p9fd4257182)" d="
M425.682 322.473
L428.075 322.473
L428.075 43.2
L425.682 43.2
z
" style="fill:#008000;opacity:0.2;"/>
   </g>
   <g id="patch_10">
    <path clip-path="url(#p9fd4257182)" d="
M381.448 322.473
L383.88 322.473
L383.88 43.2
L381.448 43.2
z
" style="fill:#008000;opacity:0.2;"/>
   </g>
   <g id="patch_11">
    <path clip-path="url(#p9fd4257182)" d="
M369.676 322.473
L371.625 322.473
L371.625 43.2
L369.676 43.2
z
" style="fill:#008000;opacity:0.2;"/>
   </g>
   <g id="patch_12">
    <path clip-path="url(#p9fd4257182)" d="
M339.975 322.473
L342.078 322.473
L342.078 43.2
L339.975 43.2
z
" style="fill:#008000;opacity:0.2;"/>
   </g>
   <g id="patch_13">
    <path clip-path="url(#p9fd4257182)" d="
M169.082 322.473
L171.05 322.473
L171.05 43.2
L169.082 43.2
z
" style="fill:#008000;opacity:0.2;"/>
   </g>
   <g id="patch_14">
    <path clip-path="url(#p9fd4257182)" d="
M155.09 322.473
L157.676 322.473
L157.676 43.2
L155.09 43.2
z
" style="fill:#008000;opacity:0.2;"/>
   </g>
   <g id="patch_15">
    <path clip-path="url(#p9fd4257182)" d="
M127.299 322.473
L131.101 322.473
L131.101 43.2
L127.299 43.2
z
" style="fill:#008000;opacity:0.2;"/>
   </g>
   <g id="line2d_1">
    <path clip-path="url(#p9fd4257182)" d="
M109.332 58.132
L109.64 58.165
L113.867 59.834
L123.42 81.0559
L124.366 82.3095
L135.617 73.5799
L142.487 66.0632
L155.707 59.6086
L157.058 59.186
L159.258 58.9854
L165.492 68.689
L166.65 71.7483
L169.66 77.4348
L180.159 58.3741
L181.105 57.8531
L186.586 58.602
L187.859 60.3619
L198.802 76.0116
L201.851 66.4112
L203.974 61.5535
L214.164 56.7924
L226.303 56.4987
L231.012 56.7424
L233.135 62.7328
L235.509 71.3195
L235.528 71.2484
L236.03 68.6717
L237.516 60.1366
L237.709 59.4432
L240.43 56.8105
L242.997 57.7616
L247.609 57.4854
L266.407 57.2376
L275.207 62.1154
L278.198 64.2927
L279.704 65.5869
L292.209 71.0264
L296.687 69.2295
L299.022 68.6941
L303.77 69.9112
L310.447 75.3175
L312.107 76.4621
L320.135 71.7155
L320.386 71.3217
L322.509 68.7197
L329.63 63.4609
L334.455 119.688
L340.592 68.1445
L340.959 66.1564
L341.519 63.9566
L341.962 62.718
L344.934 59.5438
L354.545 68.8471
L355.51 70.5204
L358.56 81.1542
L362.149 100.285
L373.574 158.592
L373.594 157.946
L375.331 119.063
L382.143 92.9787
L382.336 84.2571
L382.761 69.5612
L383.089 62.7681
L385.733 56.5231
L388.55 56.5693
L392.121 76.227
L393.452 74.4336
L394.938 65.9969
L395.537 63.5344
L398.586 57.5834
L401.635 56.6788
L422.787 56.8814
L424.022 60.8948
L424.196 63.0157
L424.389 66.6991
L424.62 74.1467
L426.357 119.255
L426.377 117.558
L427.419 61.1216
L430.178 57.0857
L430.198 57.1065
L432.514 68.3181
L433.729 71.569
L438.361 86.4652
L439.674 87.6469
L443.495 73.5992
L444.537 66.4941
L446.119 59.2898
L446.37 58.7085
L447.837 57.0417
L449.613 56.6235
L461.385 57.3749
L462.331 57.8931
L463.083 58.6105
L468.391 82.4961
L469.587 83.596
L473.601 77.258
L479.931 70.7646
L485.123 66.6214
L492.379 60.0819
L495.93 59.8368
L497.185 60.6029
L498.671 61.8633
L500.794 64.4043
L503.225 68.1096
L507.934 74.3275
L511.891 81.4425
L515.5 93.6604
L519.687 71.0821
L522.891 59.261
L523.142 58.8385
L530.784 56.5917
L534.741 56.7579
L537.462 57.0875
L547.825 57.3274
L552.592 57.115
L561.856 60.4602
L562.3 61.5255
L563.979 65.9232
L565.04 67.6631
L566.97 68.5605
L567.607 68.6202
L568.302 68.8308
L571.969 80.0516
L572.721 83.1487
L573.049 83.9429
L579.862 67.9923
L583.085 61.4181
L584.436 59.6628
L586.25 58.0941
L592.04 56.849
L600.377 59.8078
L601.593 64.7469
L604.256 69.797
L604.275 69.7748
L604.931 68.7039
L607.691 63.4875
L607.942 63.2726
L609.351 62.7553
L610.026 62.8215
L614.523 66.3711
L615.237 68.1657
L616.569 75.963
L619.714 136.744
L629.364 71.0908
L633.552 58.6545
L635.791 57.4866
L640.326 57.1169
L645.228 57.3937
L653.198 73.6335
L653.218 73.5775
L653.565 72.5435
L658.042 63.0443
L664.392 61.7967
L665.087 62.05
L666.36 63.0619
L668.946 74.4335
L669.988 86.9788
L676.28 127.851
L676.299 127.464
L680.082 62.9515
L681.838 57.4953
L694.691 57.7883
L700.134 63.6754
L700.153 63.6438
L700.462 62.9936
L701.542 60.1227
L705.615 58.7958
L707.197 63.7546
L708.201 76.3192
L709.03 100.466
L717.619 60.7204
L717.85 60.2759
L727.5 57.2862
L728.793 57.5285
L736.84 134.633
L737.149 153.555
L742.553 321.303
L743.807 321.99
L746.046 321.93
L751.816 321.392
L753.322 321.455
L754.094 321.467
L754.846 321.235
L755.232 320.986
L756.255 318.87
L756.969 316.216
L757.22 315.945
L757.355 316.078
L757.568 316.553
L758.899 320.972
L759.44 321.702
L759.98 321.897
L760.482 321.909
L761.582 321.652
L763.049 320.553
L763.512 320.055
L772.602 110.922
L772.602 110.922" style="fill:none;opacity:0.5;stroke:#0000ff;stroke-linecap:square;"/>
   </g>
   <g id="line2d_2">
    <path clip-path="url(#p9fd4257182)" d="
M109.332 70.2262
L109.66 72.1773
L113.867 107.776
L123.42 68.6063
L124.366 63.214
L135.617 57.5166
L139.863 58.116
L142.487 59.1086
L155.707 80.4091
L157.058 79.1938
L159.258 75.7418
L165.723 66.4253
L166.65 65.7837
L169.66 67.3375
L180.14 66.2142
L180.159 66.0612
L181.105 61.0427
L186.586 57.3688
L187.859 57.2569
L198.821 57.2872
L200.771 57.5822
L201.851 57.8718
L203.974 58.8811
L214.164 80.1256
L226.303 56.5341
L231.012 83.414
L233.116 126.667
L233.135 126.579
L235.528 65.5635
L236.03 60.44
L237.284 57.2539
L237.709 56.9996
L240.43 56.8023
L242.997 58.693
L245.795 73.4484
L246.818 82.3401
L247.59 83.1205
L247.609 83.0655
L249.809 68.4264
L253.418 58.6927
L255.522 57.5803
L256.178 57.4342
L272.158 56.542
L275.207 56.716
L278.198 57.4445
L279.704 58.2983
L292.209 66.6197
L295.162 68.0247
L296.687 69.1714
L299.022 71.6942
L303.789 80.2394
L309.945 75.5643
L312.107 71.5627
L320.386 59.6128
L322.509 57.8863
L329.63 64.0577
L334.455 129.014
L340.419 64.7898
L340.438 64.8294
L340.959 66.1406
L341.519 68.1549
L341.962 70.3066
L344.742 101.18
L344.934 104.599
L354.545 58.5078
L355.51 58.1134
L358.56 57.4033
L362.149 57.0844
L370.293 57.6268
L375.331 57.0862
L382.761 57.2349
L383.089 57.2153
L385.733 57.5815
L386.64 58.4887
L387.296 61.1139
L388.55 87.4229
L392.121 82.4567
L393.452 71.1443
L394.938 62.7626
L395.537 60.9909
L398.586 57.5918
L401.635 56.7789
L420.722 57.1746
L421.552 58.1142
L422.787 60.7068
L424.196 66.0492
L424.62 68.2191
L426.357 73.7239
L426.377 73.6546
L427.419 68.1389
L430.198 68.6026
L432.514 72.9557
L433.729 79.1491
L438.361 98.3535
L438.381 98.2416
L439.693 82.3838
L443.495 57.1799
L444.537 57.0953
L446.37 57.1815
L449.613 57.0042
L461.366 77.6281
L461.385 77.4414
L462.331 70.0036
L463.083 66.1675
L468.391 63.3082
L469.587 66.1531
L473.601 79.1836
L479.912 96.1005
L479.931 95.8537
L481.417 76.3956
L481.803 73.1664
L485.104 61.7691
L492.379 60.7557
L494.772 67.2293
L495.93 76.3309
L497.185 82.7091
L498.671 78.7105
L500.794 65.6107
L503.225 58.6802
L507.915 56.8663
L511.891 56.7792
L516.6 56.9426
L519.668 57.2768
L522.891 59.309
L523.142 59.6338
L530.784 81.4239
L534.741 87.3338
L537.462 86.5139
L547.053 70.0257
L547.825 68.8944
L550.991 61.3084
L552.612 59.0344
L561.856 56.6243
L562.3 56.6748
L563.979 57.2861
L565.04 58.412
L566.97 63.0889
L568.302 67.801
L571.969 66.0049
L572.721 64.3899
L573.049 64.007
L578.743 69.2032
L578.762 69.1458
L579.862 65.6083
L583.085 58.5195
L584.436 57.3704
L586.25 56.8591
L592.04 56.977
L600.377 57.5513
L604.275 57.1359
L604.931 57.1508
L607.942 58.4084
L609.351 59.9599
L610.026 61.0215
L614.523 87.7945
L615.237 100.967
L616.569 136.761
L619.734 229.905
L629.364 84.2666
L633.552 79.0513
L635.791 80.3369
L639.226 77.0105
L640.326 74.2912
L645.228 61.8473
L653.218 56.51
L658.042 56.4987
L664.372 113.592
L665.087 169.171
L666.36 237.333
L668.946 116.99
L669.969 63.5737
L676.299 56.4987
L680.082 56.6619
L681.838 57.1241
L694.672 84.8463
L694.691 84.8028
L700.23 68.9036
L700.828 68.774
L701.542 68.8854
L705.615 85.1539
L707.197 104.809
L708.201 118.959
L709.03 134.674
L717.619 315.835
L717.85 315.977
L727.5 93.1293
L728.252 84.0942
L728.793 79.2564
L736.821 74.0214
L737.149 77.3866
L742.553 317.439
L743.807 321.624
L750.273 321.777
L753.322 321.708
L755.232 321.896
L758.417 322.139
L761.582 322.203
L763.029 318.945
L763.049 318.544
L763.531 252.413
L772.602 56.5098
L772.602 56.5098" style="fill:none;opacity:0.5;stroke:#ff0000;stroke-linecap:square;"/>
   </g>
   <g id="line2d_3">
    <path clip-path="url(#p9fd4257182)" d="
M109.332 58.0684
L113.867 58.0767
L123.42 58.8239
L124.366 59.0386
L135.617 73.2772
L139.863 74.9245
L142.487 71.5739
L155.707 63.3372
L157.058 64.1736
L159.258 66.3734
L165.723 81.0942
L169.66 93.9492
L180.159 84.0274
L181.105 82.7612
L186.586 84.1496
L187.859 86.706
L198.802 70.8239
L200.771 62.9347
L201.851 60.3863
L203.974 57.8458
L214.164 56.5329
L226.303 59.7852
L231.012 131.971
L233.135 122.804
L235.528 75.6823
L236.03 69.5899
L237.497 61.1449
L237.709 60.5577
L240.43 57.8174
L242.997 57.6502
L247.609 57.079
L249.809 56.7348
L253.438 59.7246
L255.522 82.5198
L256.178 96.8541
L260.463 76.0263
L261.022 69.8083
L266.426 57.8493
L272.158 58.6195
L275.207 59.2767
L278.198 59.0588
L279.704 58.7615
L292.209 57.9825
L295.162 59.0438
L296.687 60.3777
L299.022 65.5903
L303.789 134.145
L309.926 109.134
L310.428 99.3859
L312.107 73.8277
L320.135 56.5859
L322.509 56.6618
L329.63 56.9212
L334.455 57.9612
L340.438 63.3961
L340.959 62.8616
L341.962 61.564
L344.934 58.7117
L354.526 87.4782
L354.545 87.4617
L355.51 85.4863
L358.56 72.69
L360.412 66.5505
L361.319 64.5677
L362.149 63.1806
L370.293 57.4111
L373.594 59.2193
L375.331 65.7788
L382.143 93.8455
L382.336 88.1974
L382.761 79.0002
L383.089 74.3708
L385.733 91.459
L386.62 91.7511
L386.64 91.2793
L387.296 69.2045
L388.55 56.997
L392.121 64.793
L393.452 66.6042
L394.938 71.5641
L395.537 74.7216
L398.567 82.0544
L398.586 81.9429
L401.635 58.0236
L424.62 57.2696
L430.198 57.5151
L432.514 57.2679
L433.729 57.2502
L443.495 56.8159
L444.537 56.9529
L446.119 57.7391
L446.37 58.0059
L447.837 61.6703
L449.227 72.9557
L449.613 78.4837
L461.366 160.004
L461.848 104.654
L462.331 75.6313
L463.083 60.6843
L468.391 56.5286
L469.587 56.5555
L473.601 59.8451
L479.912 115.791
L479.931 115.642
L481.803 91.9823
L485.123 65.5426
L492.379 61.0133
L494.772 65.6478
L495.93 70.5775
L497.185 73.0146
L498.671 69.9371
L500.794 62.5489
L503.225 58.3621
L507.934 57.1725
L511.891 57.1831
L515.5 58.2066
L516.6 59.1257
L519.687 66.72
L523.142 87.2722
L530.784 62.5422
L534.741 59.1264
L537.462 58.7027
L546.301 69.2773
L547.053 71.9193
L547.825 75.2354
L550.991 90.5431
L552.612 97.3253
L561.856 85.0932
L562.3 85.1619
L563.979 77.5476
L565.04 71.3357
L566.97 65.6055
L567.607 64.089
L568.302 62.8035
L571.969 64.3872
L573.049 66.7309
L578.762 57.9713
L579.862 58.5445
L583.085 64.5794
L584.436 72.0049
L586.231 74.4227
L586.25 74.3849
L592.04 60.4944
L600.377 71.0654
L601.612 75.528
L604.275 64.2092
L604.931 60.4425
L607.691 57.5167
L607.942 57.5679
L609.351 58.6348
L610.026 60.4467
L614.523 103.454
L616.569 132.691
L619.714 159.406
L629.364 90.1261
L633.552 70.9765
L635.482 67.315
L635.791 67.0348
L639.245 70.8311
L640.326 75.1112
L645.228 99.6915
L653.218 70.4987
L653.565 70.3458
L658.042 79.1137
L664.392 103.158
L665.087 102.897
L668.946 87.3835
L669.988 85.0988
L676.299 85.7557
L680.082 94.1231
L681.838 97.1275
L694.691 107.922
L700.134 113.58
L700.462 109.212
L701.542 92.8534
L705.595 83.9867
L705.615 84.146
L707.197 103.357
L708.201 123.549
L709.03 147.298
L717.619 317.537
L717.85 317.601
L727.5 91.745
L728.252 85.7433
L728.793 82.4671
L736.84 80.8414
L737.149 81.5993
L742.553 305.495
L743.807 321.011
L745.486 322.259
L746.046 322.303
L749.153 321.691
L753.322 322.112
L755.232 321.997
L757.568 321.754
L760.482 321.965
L761.582 321.83
L763.531 321.394
L772.602 59.1077
L772.602 59.1077" style="fill:none;opacity:0.5;stroke:#ff0000;stroke-linecap:square;"/>
   </g>
   <g id="line2d_4">
    <path clip-path="url(#p9fd4257182)" d="
M109.332 57.0688
L109.66 57.1028
L113.867 60.4021
L123.42 68.0046
L124.366 69.1786
L135.617 105.183
L139.863 112.972
L142.487 110.74
L157.058 71.8609
L159.258 67.7123
L165.492 62.2971
L166.65 62.1386
L169.66 62.9539
L180.159 85.9514
L181.105 94.8995
L186.586 118.797
L187.859 106.962
L198.821 59.1428
L200.771 58.0085
L201.851 57.7534
L203.974 57.5993
L214.164 66.2405
L226.303 136.371
L231.012 78.8126
L233.135 65.5225
L235.528 61.6584
L236.03 61.7829
L237.284 63.9042
L237.709 65.3145
L240.43 78.3738
L242.997 70.7866
L245.795 66.4795
L246.509 66.8097
L246.818 67.2453
L247.609 69.5919
L249.809 84.1738
L253.418 91.4567
L253.438 91.419
L256.178 84.2425
L261.022 77.8626
L266.426 69.6572
L275.207 64.4727
L278.198 70.5715
L279.704 76.6236
L292.19 81.1658
L292.209 81.0334
L295.162 65.9717
L296.687 61.9718
L299.022 58.8931
L303.789 57.2022
L310.428 57.0725
L312.107 57.1239
L322.509 57.0828
L329.611 57.5657
L334.455 65.8623
L340.419 76.5493
L340.959 70.7512
L341.943 63.1462
L341.962 63.0383
L344.742 57.0458
L344.934 56.9667
L362.149 57.2135
L373.594 58.0203
L375.331 60.5374
L382.143 65.8573
L382.336 62.3869
L382.761 58.6007
L383.089 57.4712
L385.733 56.7147
L386.64 57.214
L387.296 57.8787
L388.55 58.0413
L392.121 58.6895
L393.452 59.5173
L394.938 68.2079
L395.537 86.6714
L398.567 91.1013
L398.586 90.4885
L401.5 56.9568
L401.635 56.8483
L420.722 57.3257
L421.552 56.7827
L422.787 57.584
L424.138 66.1658
L424.62 70.8177
L426.377 73.3713
L427.419 83.6379
L430.198 62.0047
L432.514 57.5473
L433.729 57.161
L438.381 57.9463
L439.693 59.3223
L443.495 66.8703
L444.537 66.9166
L447.837 66.0181
L449.227 66.1017
L449.613 66.2579
L461.366 92.9438
L461.848 82.1534
L462.331 74.2896
L463.083 66.4699
L468.391 57.2737
L469.587 57.1309
L473.601 56.8977
L481.803 57.262
L485.123 57.8018
L492.379 63.2744
L494.772 67.6056
L497.185 73.6961
L498.671 76.4718
L500.794 77.0171
L503.225 71.9274
L507.934 59.6337
L511.891 59.0712
L515.5 64.8461
L516.6 67.4127
L519.687 67.4349
L523.142 64.1151
L530.784 80.7171
L534.721 116.197
L537.462 148.299
L546.301 92.5116
L547.053 88.6079
L547.825 86.827
L550.991 80.8508
L561.837 84.7841
L562.3 76.8784
L563.979 61.1868
L565.04 58.5892
L566.97 58.2733
L567.607 59.6731
L568.302 63.61
L571.949 85.3469
L571.969 84.9217
L573.049 64.1401
L578.762 56.8503
L579.862 57.6491
L583.085 66.7415
L584.436 82.5141
L586.25 96.251
L592.04 69.4175
L600.377 73.6967
L601.612 72.3298
L604.931 66.6299
L607.942 62.8436
L609.351 60.6611
L610.026 59.8788
L614.523 61.4368
L615.237 64.9525
L616.569 84.2445
L619.734 251.717
L629.364 135.303
L633.552 88.7867
L635.791 80.9822
L639.245 76.627
L640.326 76.2065
L645.228 75.7041
L653.565 70.5051
L658.042 70.0354
L665.087 76.0737
L666.36 76.5139
L668.927 74.5885
L669.969 72.611
L676.299 58.9265
L680.082 57.1508
L681.838 56.8902
L694.691 56.9696
L700.23 59.0099
L701.272 59.9312
L701.542 60.2122
L705.615 68.178
L707.197 77.2219
L708.201 87.7644
L709.03 101.366
L717.619 317.93
L717.85 318.065
L727.5 83.0058
L728.252 78.2457
L728.793 75.6752
L736.84 56.5257
L737.149 56.5125
L743.807 321.876
L746.046 321.645
L750.195 322.045
L751.373 321.889
L752.781 321.568
L754.094 321.253
L755.232 321.198
L757.568 321.371
L759.44 321.126
L760.482 321.587
L761.582 321.711
L763.049 319.198
L763.531 300.006
L772.582 56.6058
L772.602 56.6065" style="fill:none;opacity:0.5;stroke:#ff0000;stroke-linecap:square;"/>
   </g>
   <g id="line2d_5">
    <path clip-path="url(#p9fd4257182)" d="
M109.332 57.3372
L113.867 57.442
L124.366 58.617
L135.617 69.4951
L139.863 74.8211
L142.487 71.9548
L155.707 59.3381
L157.058 59.5208
L159.258 60.075
L165.723 64.4055
L166.65 65.4933
L169.66 70.4741
L180.159 175.908
L181.105 201.528
L186.586 129.77
L187.859 96.7604
L198.821 64.0913
L200.771 65.2861
L201.851 66.4565
L203.974 70.0516
L214.164 107.385
L226.303 97.5233
L231.012 78.1844
L233.116 76.7854
L233.135 76.8611
L236.03 59.2401
L237.284 57.225
L237.709 57.0442
L240.43 56.9318
L242.997 57.6463
L246.818 57.2813
L253.418 57.0908
L256.178 56.9903
L261.022 57.1596
L266.426 57.6248
L272.158 57.684
L278.198 57.0948
L279.704 57.0702
L292.19 66.4721
L292.209 66.4454
L295.162 64.828
L296.687 66.3139
L299.022 71.7187
L309.926 123.115
L310.447 116.382
L312.107 99.5943
L320.135 69.348
L320.386 68.9534
L322.509 66.125
L329.63 57.0818
L334.455 56.576
L340.438 59.9599
L340.959 63.077
L341.962 69.6469
L344.742 66.1716
L344.934 65.4779
L354.526 63.9995
L354.545 64.1785
L355.51 76.1394
L358.54 86.2868
L358.56 86.0592
L360.412 64.3169
L361.319 59.2012
L362.149 57.3954
L370.274 56.6615
L373.594 57.1943
L375.331 58.4051
L382.143 65.7625
L382.162 65.6952
L383.089 62.6392
L385.733 58.0579
L386.64 57.6226
L387.296 57.5551
L388.55 58.3055
L392.101 79.8137
L393.433 82.3774
L393.452 82.3642
L394.938 77.2927
L395.537 73.8121
L398.586 60.4951
L401.635 57.4136
L420.722 58.2973
L421.552 57.845
L422.787 57.418
L424.62 57.1668
L426.377 57.4773
L427.419 58.2171
L430.198 67.5322
L432.494 81.887
L432.514 81.6851
L433.729 70.3448
L438.361 72.2157
L438.381 72.3984
L439.693 91.7106
L443.475 124.267
L443.495 123.739
L444.537 91.9637
L446.119 63.1134
L446.37 61.3206
L447.837 57.2178
L449.593 56.602
L449.613 56.6003
L461.385 60.3346
L462.331 62.7849
L463.083 64.8685
L468.391 63.9235
L469.587 62.0114
L473.601 60.4654
L479.912 94.9249
L479.931 94.5775
L481.417 68.196
L481.803 64.8441
L485.123 57.2089
L492.379 57.9212
L494.772 61.5429
L497.185 64.3167
L500.794 69.9455
L503.225 69.694
L507.934 65.119
L511.891 65.3491
L515.5 69.7973
L516.6 71.5811
L519.687 75.6865
L523.142 79.0175
L530.784 81.217
L534.741 76.0069
L537.462 69.8113
L546.301 57.0055
L547.825 56.886
L552.612 56.6282
L561.856 57.6417
L562.3 59.6431
L563.979 99.6768
L565.04 120.928
L567.607 68.3021
L568.302 60.8912
L571.969 56.6677
L579.862 57.4802
L583.085 59.9634
L584.436 64.915
L586.25 82.1969
L592.04 59.6951
L600.377 56.6103
L601.612 56.5198
L604.275 58.0563
L604.931 62.6522
L607.672 109.836
L607.691 109.632
L607.942 105.956
L609.351 71.6123
L610.026 61.912
L614.523 56.8218
L615.237 56.6849
L616.569 56.6295
L619.734 56.8547
L633.552 57.014
L645.228 57.5594
L653.565 57.0331
L658.042 56.6771
L664.392 57.2848
L665.087 57.6816
L666.36 59.6032
L668.946 74.219
L669.988 83.7868
L676.28 70.3147
L680.082 57.8539
L681.838 56.9356
L694.672 76.2915
L694.691 76.6801
L700.134 86.8385
L700.462 75.244
L700.828 66.6117
L701.272 61.0102
L701.542 59.2432
L705.615 57.8988
L707.197 111.278
L708.201 188.042
L709.03 164.019
L717.599 129.819
L717.619 129.912
L717.85 130.962
L727.48 132.238
L728.793 98.5671
L736.821 80.8271
L737.149 89.23
L742.553 321.514
L743.807 322.013
L746.046 321.939
L749.037 313.187
L749.057 313.246
L749.443 314.822
L750.273 318.78
L750.601 319.881
L751.122 320.949
L751.373 321.236
L751.971 321.529
L752.646 321.459
L753.592 321.274
L755.213 321.452
L758.552 321.886
L759.44 321.738
L759.961 321.267
L759.98 321.239
L760.482 320.124
L761.582 309.725
L763.029 260.873
L763.049 261.476
L763.531 289.816
L772.602 59.6215
L772.602 59.6215" style="fill:none;opacity:0.5;stroke:#0000ff;stroke-linecap:square;"/>
   </g>
   <g id="line2d_6">
    <path clip-path="url(#p9fd4257182)" d="
M109.332 65.1148
L109.66 65.5326
L113.867 79.9358
L123.42 78.2206
L124.366 78.8828
L135.617 95.3437
L139.863 97.4302
L142.487 95.8213
L155.707 79.2998
L157.058 78.8949
L159.258 78.5445
L165.492 73.0269
L166.65 70.7434
L169.66 64.3865
L180.159 57.5128
L181.105 57.4556
L186.586 57.6633
L203.974 57.2292
L226.303 57.0773
L231.012 58.3205
L233.135 59.6708
L235.528 63.6165
L236.03 65.4218
L237.497 75.221
L237.709 77.3554
L240.43 131.656
L242.978 148.284
L242.997 147.337
L245.795 60.827
L246.509 57.8966
L246.818 57.3612
L247.609 56.8413
L249.809 56.6254
L253.438 56.6908
L256.178 57.0598
L261.022 57.194
L266.426 57.6989
L272.158 81.3694
L275.207 92.1918
L275.226 92.1103
L278.198 76.2327
L279.704 72.6345
L292.19 84.8211
L292.209 84.7951
L295.162 80.0132
L296.687 77.311
L299.022 73.4687
L303.789 68.4677
L309.945 70.4683
L310.447 70.4828
L312.107 69.7271
L320.135 57.6855
L320.386 57.5727
L322.509 57.0277
L329.63 56.7346
L334.455 57.1771
L340.592 70.4169
L340.959 70.7334
L341.519 70.6761
L341.962 70.2415
L344.934 64.673
L354.526 91.575
L354.545 91.1642
L355.51 73.5003
L358.56 57.2228
L360.412 56.6197
L362.149 56.5424
L370.293 56.8883
L373.594 58.862
L375.331 61.2546
L382.22 67.0443
L382.761 69.0637
L383.089 70.7554
L385.733 100.109
L386.64 107.551
L387.296 109.304
L388.55 100.083
L392.101 73.0153
L392.121 73.0692
L393.452 79.8611
L394.938 89.1065
L395.537 89.7695
L398.586 65.442
L401.5 58.1058
L401.635 58.0829
L420.703 67.1562
L421.552 101.217
L422.787 73.0642
L424.041 57.8117
L424.389 57.2337
L424.62 57.0573
L426.377 57.0661
L427.419 57.9477
L430.198 73.5213
L432.514 75.81
L433.729 72.8087
L438.381 58.3495
L439.693 57.4858
L443.495 57.6596
L444.537 56.9775
L446.37 56.5728
L447.837 56.9392
L449.227 65.3096
L449.613 76.1145
L461.366 63.0339
L461.385 62.8355
L461.848 59.5717
L462.331 58.0219
L463.083 57.1013
L468.391 59.8823
L469.587 63.9935
L473.601 110.088
L479.931 67.2907
L481.417 66.2084
L481.803 66.2648
L485.123 69.5197
L492.379 71.4342
L495.93 65.6709
L497.185 63.9672
L498.671 62.3706
L500.794 60.6693
L503.225 59.3421
L507.838 63.8946
L507.934 64.1874
L511.891 84.8196
L515.5 64.6582
L516.6 59.6889
L519.687 56.7236
L523.142 56.7348
L530.784 57.7951
L534.741 57.9772
L537.462 57.7515
L547.825 57.5468
L552.612 57.0573
L561.856 57.3344
L562.3 59.0547
L563.979 78.2761
L565.04 69.0769
L566.97 57.2593
L567.607 56.9863
L568.302 56.8916
L571.969 57.2032
L573.049 57.4656
L578.762 57.2622
L579.862 58.7927
L583.085 86.5825
L584.416 94.6265
L584.436 94.5902
L586.25 82.7504
L592.04 58.4201
L600.377 56.5647
L604.275 56.6359
L604.931 56.7161
L607.691 65.3076
L609.351 82.2359
L610.026 84.9126
L614.504 84.8511
L614.523 85.0555
L615.237 94.0313
L616.569 118.836
L619.734 194.36
L629.364 60.6892
L633.552 58.2245
L635.771 60.8185
L639.245 62.7813
L640.326 64.7317
L645.228 86.4724
L653.198 67.2512
L653.218 67.2748
L653.565 67.7381
L658.042 80.3113
L664.392 123.834
L665.087 126.686
L666.36 125.749
L669.988 110.797
L676.299 100.884
L680.082 98.0128
L681.838 97.9099
L694.691 63.3815
L700.23 85.2316
L700.462 85.1814
L700.828 84.6608
L701.542 82.753
L705.615 86.2121
L707.197 104.12
L708.201 131.573
L709.03 169.035
L717.619 322.002
L717.85 321.99
L727.5 58.1158
L728.252 58.1569
L728.793 58.3202
L736.84 114.139
L737.149 119.031
L742.553 317.506
L743.807 321.329
L749.134 322.001
L750.273 321.961
L752.415 321.777
L754.653 321.858
L755.232 321.819
L757.355 321.425
L759.98 321.979
L760.482 321.949
L761.582 320.825
L763.049 285.258
L763.531 214.549
L772.582 62.8356
L772.602 62.8915" style="fill:none;opacity:0.5;stroke:#ff0000;stroke-linecap:square;"/>
   </g>
   <g id="line2d_7">
    <path clip-path="url(#p9fd4257182)" d="
M109.332 73.1987
L109.64 74.2363
L113.848 79.0609
L113.867 79.0419
L123.42 65.2722
L124.366 65.1664
L135.617 60.4253
L139.863 69.7332
L142.487 80.1299
L155.707 72.6855
L157.058 73.8936
L159.258 76.3874
L165.492 68.1743
L166.65 64.1429
L169.66 58.0129
L181.105 57.3262
L187.859 57.0092
L198.821 68.5004
L200.771 73.9942
L201.851 78.1465
L203.974 87.4138
L214.164 59.0457
L226.303 56.5002
L233.135 56.5046
L235.528 57.0623
L236.03 59.8296
L237.284 177.353
L237.709 243.699
L240.43 117.415
L242.997 57.3526
L247.609 57.8195
L249.809 57.8369
L256.178 57.4889
L261.022 57.836
L266.426 58.5728
L272.158 62.2067
L275.226 67.5996
L278.198 74.9188
L279.704 80.6422
L292.19 111.017
L292.209 110.576
L295.162 63.2448
L296.687 59.3186
L299.022 58.9027
L303.789 59.7204
L309.945 67.4912
L310.428 69.0467
L312.107 76.0172
L320.116 95.4423
L320.135 95.4069
L320.386 94.9227
L322.509 89.2834
L329.63 60.0035
L334.455 57.4135
L341.962 57.2592
L344.934 57.1124
L354.545 77.4936
L355.51 78.51
L358.56 76.8085
L361.319 73.2229
L362.149 72.2982
L370.274 64.6246
L370.293 64.6573
L373.594 81.9683
L375.331 110.161
L382.22 58.5804
L382.761 57.8691
L383.089 57.6266
L386.62 62.0155
L388.531 72.7036
L392.101 86.4722
L392.121 86.4099
L393.452 78.4392
L394.938 68.1756
L395.537 65.1867
L398.586 57.9541
L401.635 56.8407
L421.552 57.2768
L427.419 57.8054
L430.198 63.2846
L432.514 95.0397
L433.71 99.5668
L433.729 99.4613
L438.381 68.1308
L439.693 65.3412
L443.475 103.977
L443.495 103.431
L444.537 77.5547
L446.119 59.732
L446.37 58.7457
L447.837 56.7639
L449.613 56.6146
L461.366 82.8443
L461.385 82.7864
L463.083 78.0545
L468.391 72.0194
L469.587 70.8509
L473.601 69.5897
L479.912 73.6427
L479.931 73.6012
L481.417 68.3086
L481.803 66.3818
L485.123 57.4625
L492.379 56.5191
L494.753 56.5544
L495.93 56.847
L497.185 58.5243
L498.671 65.3677
L500.794 80.5021
L503.225 74.4491
L507.915 59.7788
L511.891 60.157
L515.5 72.7939
L516.6 80.2842
L519.668 85.4427
L519.687 85.3527
L523.142 65.3426
L530.784 56.869
L534.741 56.6878
L537.462 56.6792
L546.301 57.5859
L547.053 58.2246
L547.825 59.5195
L550.971 75.0061
L552.612 89.9707
L561.856 69.8171
L562.3 69.1412
L563.979 67.5484
L565.04 67.1593
L566.97 68.8963
L567.607 70.1701
L568.302 71.0583
L571.969 60.2442
L572.721 59.4514
L573.049 59.3228
L578.762 98.1532
L579.862 100.489
L583.085 93.8668
L584.436 90.2711
L586.231 95.2165
L592.04 59.2996
L600.377 56.9677
L601.612 57.172
L604.275 57.2957
L604.931 57.1816
L607.942 57.1146
L610.026 57.6528
L614.523 68.8148
L615.237 74.7353
L616.569 93.3778
L619.734 169.479
L629.364 86.9152
L633.552 95.6882
L635.482 99.1234
L635.791 98.8626
L640.326 75.6306
L645.208 66.7643
L645.228 66.779
L653.198 75.4113
L653.218 75.381
L653.565 74.8098
L658.042 65.0782
L664.392 57.1103
L665.087 57.027
L666.36 57.0336
L668.946 58.0489
L669.988 59.4363
L676.299 89.1127
L680.082 97.1184
L681.838 106.751
L694.672 101.41
L694.691 100.776
L700.23 58.3343
L700.828 58.1891
L701.542 58.1748
L705.615 58.2211
L717.85 56.9542
L727.5 58.2195
L728.233 58.8026
L728.793 59.4096
L737.149 56.5025
L742.553 168.131
L743.807 321.349
L745.486 321.83
L746.046 321.834
L749.443 321.742
L751.122 322.053
L752.781 322.099
L757.973 322.026
L758.899 322.116
L759.44 321.891
L759.71 321.564
L759.98 320.942
L760.482 318.275
L761.582 306.587
L763.049 287.213
L763.531 266.762
L772.582 58.1486
L772.602 58.1519" style="fill:none;opacity:0.5;stroke:#0000ff;stroke-linecap:square;"/>
   </g>
   <g id="line2d_8">
    <path clip-path="url(#p9fd4257182)" d="
M109.332 57.9535
L109.64 57.9671
L113.867 58.81
L124.366 68.9328
L135.617 84.2028
L139.863 85.0585
L142.487 79.8187
L155.707 60.7612
L157.058 59.3063
L159.258 58.1914
L165.492 63.5242
L165.723 64.0739
L166.65 67.2738
L169.66 109.103
L180.159 78.6013
L181.105 77.9589
L186.586 81.2176
L187.859 82.4982
L198.802 58.4383
L200.771 57.4849
L201.851 57.2524
L203.974 57.032
L214.164 57.2005
L226.303 62.9088
L230.993 73.7746
L231.012 73.7029
L233.135 64.4804
L235.528 58.9159
L236.03 58.484
L240.411 56.9152
L242.978 56.5242
L245.795 57.1912
L246.509 59.5304
L246.818 62.4531
L247.609 79.9365
L249.809 148.912
L253.438 78.3975
L255.522 61.1432
L256.178 59.4217
L260.463 57.1355
L261.022 57.1093
L266.407 57.2646
L272.158 60.1156
L275.226 62.1167
L278.198 64.4196
L279.704 65.1935
L292.209 57.225
L295.162 57.0586
L296.687 57.176
L299.022 57.7279
L303.789 66.0909
L310.447 116.363
L312.107 124.237
L320.135 107.337
L320.386 106.461
L322.509 98.0604
L329.63 61.3802
L334.455 57.1385
L340.573 57.5004
L340.959 57.8203
L341.962 59.1019
L344.915 68.9823
L344.934 69.0808
L354.545 63.196
L355.51 63.7894
L358.56 67.2076
L360.412 65.7597
L362.149 60.9122
L370.293 56.7376
L375.331 56.8783
L382.143 61.4307
L382.336 64.7859
L382.761 77.8353
L383.089 93.1009
L385.733 72.3877
L386.64 59.6911
L387.296 57.8093
L388.55 57.3668
L392.121 59.4362
L393.452 62.4739
L394.938 73.4223
L395.537 83.4538
L398.567 101.861
L398.586 101.496
L401.616 57.7834
L401.635 57.7364
L420.722 57.4777
L421.552 57.1263
L422.787 58.3779
L424.041 65.6867
L424.389 72.5755
L424.62 80.2175
L426.357 116.618
L426.377 115.226
L427.419 67.3486
L430.198 66.5894
L432.494 71.1867
L432.514 71.1609
L433.729 69.3021
L438.381 57.5148
L439.693 57.101
L443.495 57.5858
L444.537 57.8511
L446.37 58.4575
L447.837 58.1044
L449.613 57.151
L461.385 59.736
L462.331 64.1507
L463.083 67.8365
L468.391 69.9603
L469.587 69.5224
L473.601 68.5298
L479.931 100.073
L481.417 81.7138
L481.803 78.3411
L485.123 65.5673
L492.36 56.5818
L494.772 56.6015
L495.93 57.5351
L497.185 64.3569
L498.671 84.7787
L500.774 95.1637
L500.794 95.0448
L503.225 70.197
L507.934 57.8787
L511.891 57.276
L515.5 58.5786
L516.6 59.5578
L519.687 64.1561
L523.142 74.0127
L530.765 74.063
L534.741 67.444
L537.462 64.9278
L546.301 70.1394
L547.053 69.162
L547.825 67.2755
L550.991 58.9277
L552.612 57.5506
L561.856 60.6506
L562.3 63.6087
L565.04 99.1308
L566.951 101.443
L566.97 101.361
L568.302 94.3027
L571.969 97.9947
L573.049 105.852
L578.762 62.5727
L579.862 61.0882
L583.085 65.5149
L584.436 74.1001
L586.25 96.0111
L592.04 60.2071
L600.377 56.9134
L604.931 56.9565
L607.942 57.2743
L609.351 58.0003
L610.026 58.6851
L614.523 68.5924
L615.237 68.2793
L616.569 66.1295
L619.734 59.8536
L629.364 57.5113
L635.791 57.4342
L645.228 57.0757
L658.042 57.3108
L666.36 57.3043
L681.838 57.8844
L700.23 57.7893
L701.542 57.0986
L705.615 56.8145
L707.197 62.713
L708.201 87.7701
L709.011 94.8695
L709.03 94.8031
L717.599 98.0659
L717.619 97.9949
L717.85 97.1222
L727.5 62.7672
L728.793 61.5829
L736.84 124.311
L737.149 136.688
L742.553 319.105
L743.807 321.13
L746.046 321.148
L749.443 321.865
L751.952 321.624
L752.26 321.369
L752.781 320.621
L753.573 319.396
L753.785 319.348
L754.094 319.494
L756.255 321.642
L756.969 321.952
L757.973 322.046
L760.482 322.112
L761.582 321.993
L763.049 321.46
L763.531 321.146
L772.602 58.1519
L772.602 58.1519" style="fill:none;opacity:0.5;stroke:#0000ff;stroke-linecap:square;"/>
   </g>
   <g id="patch_16">
    <path d="
M108 43.2
L777.6 43.2" style="fill:none;stroke:#000000;stroke-linecap:square;stroke-linejoin:miter;"/>
   </g>
   <g id="patch_17">
    <path d="
M777.6 322.473
L777.6 43.2" style="fill:none;stroke:#000000;stroke-linecap:square;stroke-linejoin:miter;"/>
   </g>
   <g id="patch_18">
    <path d="
M108 322.473
L777.6 322.473" style="fill:none;stroke:#000000;stroke-linecap:square;stroke-linejoin:miter;"/>
   </g>
   <g id="patch_19">
    <path d="
M108 322.473
L108 43.2" style="fill:none;stroke:#000000;stroke-linecap:square;stroke-linejoin:miter;"/>
   </g>
   <g id="matplotlib.axis_1">
    <g id="ytick_1">
     <g id="line2d_9">
      <defs>
       <path d="
M0 0
L4 0" id="m728421d6d4" style="stroke:#000000;stroke-width:0.5;"/>
      </defs>
      <g>
       <use style="stroke:#000000;stroke-width:0.5;" x="108.0" xlink:href="#m728421d6d4" y="322.472727273"/>
      </g>
     </g>
     <g id="line2d_10">
      <defs>
       <path d="
M0 0
L-4 0" id="mcb0005524f" style="stroke:#000000;stroke-width:0.5;"/>
      </defs>
      <g>
       <use style="stroke:#000000;stroke-width:0.5;" x="777.6" xlink:href="#mcb0005524f" y="322.472727273"/>
      </g>
     </g>
     <g id="text_1">
      <!-- 0 -->
      <defs>
       <path d="
M31.7812 66.4062
Q24.1719 66.4062 20.3281 58.9062
Q16.5 51.4219 16.5 36.375
Q16.5 21.3906 20.3281 13.8906
Q24.1719 6.39062 31.7812 6.39062
Q39.4531 6.39062 43.2812 13.8906
Q47.125 21.3906 47.125 36.375
Q47.125 51.4219 43.2812 58.9062
Q39.4531 66.4062 31.7812 66.4062
M31.7812 74.2188
Q44.0469 74.2188 50.5156 64.5156
Q56.9844 54.8281 56.9844 36.375
Q56.9844 17.9688 50.5156 8.26562
Q44.0469 -1.42188 31.7812 -1.42188
Q19.5312 -1.42188 13.0625 8.26562
Q6.59375 17.9688 6.59375 36.375
Q6.59375 54.8281 13.0625 64.5156
Q19.5312 74.2188 31.7812 74.2188" id="DejaVuSans-30"/>
      </defs>
      <g transform="translate(97.953125 325.783977273)scale(0.12 -0.12)">
       <use xlink:href="#DejaVuSans-30"/>
      </g>
     </g>
    </g>
    <g id="ytick_2">
     <g id="line2d_11">
      <g>
       <use style="stroke:#000000;stroke-width:0.5;" x="108.0" xlink:href="#m728421d6d4" y="269.277922078"/>
      </g>
     </g>
     <g id="line2d_12">
      <g>
       <use style="stroke:#000000;stroke-width:0.5;" x="777.6" xlink:href="#mcb0005524f" y="269.277922078"/>
      </g>
     </g>
     <g id="text_2">
      <!-- 20 -->
      <defs>
       <path d="
M19.1875 8.29688
L53.6094 8.29688
L53.6094 0
L7.32812 0
L7.32812 8.29688
Q12.9375 14.1094 22.625 23.8906
Q32.3281 33.6875 34.8125 36.5312
Q39.5469 41.8438 41.4219 45.5312
Q43.3125 49.2188 43.3125 52.7812
Q43.3125 58.5938 39.2344 62.25
Q35.1562 65.9219 28.6094 65.9219
Q23.9688 65.9219 18.8125 64.3125
Q13.6719 62.7031 7.8125 59.4219
L7.8125 69.3906
Q13.7656 71.7812 18.9375 73
Q24.125 74.2188 28.4219 74.2188
Q39.75 74.2188 46.4844 68.5469
Q53.2188 62.8906 53.2188 53.4219
Q53.2188 48.9219 51.5312 44.8906
Q49.8594 40.875 45.4062 35.4062
Q44.1875 33.9844 37.6406 27.2188
Q31.1094 20.4531 19.1875 8.29688" id="DejaVuSans-32"/>
      </defs>
      <g transform="translate(90.40625 272.589172078)scale(0.12 -0.12)">
       <use xlink:href="#DejaVuSans-32"/>
       <use x="63.623046875" xlink:href="#DejaVuSans-30"/>
      </g>
     </g>
    </g>
    <g id="ytick_3">
     <g id="line2d_13">
      <g>
       <use style="stroke:#000000;stroke-width:0.5;" x="108.0" xlink:href="#m728421d6d4" y="216.083116883"/>
      </g>
     </g>
     <g id="line2d_14">
      <g>
       <use style="stroke:#000000;stroke-width:0.5;" x="777.6" xlink:href="#mcb0005524f" y="216.083116883"/>
      </g>
     </g>
     <g id="text_3">
      <!-- 40 -->
      <defs>
       <path d="
M37.7969 64.3125
L12.8906 25.3906
L37.7969 25.3906
z

M35.2031 72.9062
L47.6094 72.9062
L47.6094 25.3906
L58.0156 25.3906
L58.0156 17.1875
L47.6094 17.1875
L47.6094 0
L37.7969 0
L37.7969 17.1875
L4.89062 17.1875
L4.89062 26.7031
z
" id="DejaVuSans-34"/>
      </defs>
      <g transform="translate(90.11375 219.394366883)scale(0.12 -0.12)">
       <use xlink:href="#DejaVuSans-34"/>
       <use x="63.623046875" xlink:href="#DejaVuSans-30"/>
      </g>
     </g>
    </g>
    <g id="ytick_4">
     <g id="line2d_15">
      <g>
       <use style="stroke:#000000;stroke-width:0.5;" x="108.0" xlink:href="#m728421d6d4" y="162.888311688"/>
      </g>
     </g>
     <g id="line2d_16">
      <g>
       <use style="stroke:#000000;stroke-width:0.5;" x="777.6" xlink:href="#mcb0005524f" y="162.888311688"/>
      </g>
     </g>
     <g id="text_4">
      <!-- 60 -->
      <defs>
       <path d="
M33.0156 40.375
Q26.375 40.375 22.4844 35.8281
Q18.6094 31.2969 18.6094 23.3906
Q18.6094 15.5312 22.4844 10.9531
Q26.375 6.39062 33.0156 6.39062
Q39.6562 6.39062 43.5312 10.9531
Q47.4062 15.5312 47.4062 23.3906
Q47.4062 31.2969 43.5312 35.8281
Q39.6562 40.375 33.0156 40.375
M52.5938 71.2969
L52.5938 62.3125
Q48.875 64.0625 45.0938 64.9844
Q41.3125 65.9219 37.5938 65.9219
Q27.8281 65.9219 22.6719 59.3281
Q17.5312 52.7344 16.7969 39.4062
Q19.6719 43.6562 24.0156 45.9219
Q28.375 48.1875 33.5938 48.1875
Q44.5781 48.1875 50.9531 41.5156
Q57.3281 34.8594 57.3281 23.3906
Q57.3281 12.1562 50.6875 5.35938
Q44.0469 -1.42188 33.0156 -1.42188
Q20.3594 -1.42188 13.6719 8.26562
Q6.98438 17.9688 6.98438 36.375
Q6.98438 53.6562 15.1875 63.9375
Q23.3906 74.2188 37.2031 74.2188
Q40.9219 74.2188 44.7031 73.4844
Q48.4844 72.75 52.5938 71.2969" id="DejaVuSans-36"/>
      </defs>
      <g transform="translate(90.365 166.199561688)scale(0.12 -0.12)">
       <use xlink:href="#DejaVuSans-36"/>
       <use x="63.623046875" xlink:href="#DejaVuSans-30"/>
      </g>
     </g>
    </g>
    <g id="ytick_5">
     <g id="line2d_17">
      <g>
       <use style="stroke:#000000;stroke-width:0.5;" x="108.0" xlink:href="#m728421d6d4" y="109.693506494"/>
      </g>
     </g>
     <g id="line2d_18">
      <g>
       <use style="stroke:#000000;stroke-width:0.5;" x="777.6" xlink:href="#mcb0005524f" y="109.693506494"/>
      </g>
     </g>
     <g id="text_5">
      <!-- 80 -->
      <defs>
       <path d="
M31.7812 34.625
Q24.75 34.625 20.7188 30.8594
Q16.7031 27.0938 16.7031 20.5156
Q16.7031 13.9219 20.7188 10.1562
Q24.75 6.39062 31.7812 6.39062
Q38.8125 6.39062 42.8594 10.1719
Q46.9219 13.9688 46.9219 20.5156
Q46.9219 27.0938 42.8906 30.8594
Q38.875 34.625 31.7812 34.625
M21.9219 38.8125
Q15.5781 40.375 12.0312 44.7188
Q8.5 49.0781 8.5 55.3281
Q8.5 64.0625 14.7188 69.1406
Q20.9531 74.2188 31.7812 74.2188
Q42.6719 74.2188 48.875 69.1406
Q55.0781 64.0625 55.0781 55.3281
Q55.0781 49.0781 51.5312 44.7188
Q48 40.375 41.7031 38.8125
Q48.8281 37.1562 52.7969 32.3125
Q56.7812 27.4844 56.7812 20.5156
Q56.7812 9.90625 50.3125 4.23438
Q43.8438 -1.42188 31.7812 -1.42188
Q19.7344 -1.42188 13.25 4.23438
Q6.78125 9.90625 6.78125 20.5156
Q6.78125 27.4844 10.7812 32.3125
Q14.7969 37.1562 21.9219 38.8125
M18.3125 54.3906
Q18.3125 48.7344 21.8438 45.5625
Q25.3906 42.3906 31.7812 42.3906
Q38.1406 42.3906 41.7188 45.5625
Q45.3125 48.7344 45.3125 54.3906
Q45.3125 60.0625 41.7188 63.2344
Q38.1406 66.4062 31.7812 66.4062
Q25.3906 66.4062 21.8438 63.2344
Q18.3125 60.0625 18.3125 54.3906" id="DejaVuSans-38"/>
      </defs>
      <g transform="translate(90.340625 113.004756494)scale(0.12 -0.12)">
       <use xlink:href="#DejaVuSans-38"/>
       <use x="63.623046875" xlink:href="#DejaVuSans-30"/>
      </g>
     </g>
    </g>
    <g id="ytick_6">
     <g id="line2d_19">
      <g>
       <use style="stroke:#000000;stroke-width:0.5;" x="108.0" xlink:href="#m728421d6d4" y="56.4987012987"/>
      </g>
     </g>
     <g id="line2d_20">
      <g>
       <use style="stroke:#000000;stroke-width:0.5;" x="777.6" xlink:href="#mcb0005524f" y="56.4987012987"/>
      </g>
     </g>
     <g id="text_6">
      <!-- 100 -->
      <defs>
       <path d="
M12.4062 8.29688
L28.5156 8.29688
L28.5156 63.9219
L10.9844 60.4062
L10.9844 69.3906
L28.4219 72.9062
L38.2812 72.9062
L38.2812 8.29688
L54.3906 8.29688
L54.3906 0
L12.4062 0
z
" id="DejaVuSans-31"/>
      </defs>
      <g transform="translate(83.21 59.8099512987)scale(0.12 -0.12)">
       <use xlink:href="#DejaVuSans-31"/>
       <use x="63.623046875" xlink:href="#DejaVuSans-30"/>
       <use x="127.24609375" xlink:href="#DejaVuSans-30"/>
      </g>
     </g>
    </g>
    <g id="text_7">
     <!-- Methylation -->
     <defs>
      <path d="
M9.8125 72.9062
L24.5156 72.9062
L43.1094 23.2969
L61.8125 72.9062
L76.5156 72.9062
L76.5156 0
L66.8906 0
L66.8906 64.0156
L48.0938 14.0156
L38.1875 14.0156
L19.3906 64.0156
L19.3906 0
L9.8125 0
z
" id="DejaVuSans-4d"/>
      <path d="
M30.6094 48.3906
Q23.3906 48.3906 19.1875 42.75
Q14.9844 37.1094 14.9844 27.2969
Q14.9844 17.4844 19.1562 11.8438
Q23.3438 6.20312 30.6094 6.20312
Q37.7969 6.20312 41.9844 11.8594
Q46.1875 17.5312 46.1875 27.2969
Q46.1875 37.0156 41.9844 42.7031
Q37.7969 48.3906 30.6094 48.3906
M30.6094 56
Q42.3281 56 49.0156 48.375
Q55.7188 40.7656 55.7188 27.2969
Q55.7188 13.875 49.0156 6.21875
Q42.3281 -1.42188 30.6094 -1.42188
Q18.8438 -1.42188 12.1719 6.21875
Q5.51562 13.875 5.51562 27.2969
Q5.51562 40.7656 12.1719 48.375
Q18.8438 56 30.6094 56" id="DejaVuSans-6f"/>
      <path d="
M54.8906 33.0156
L54.8906 0
L45.9062 0
L45.9062 32.7188
Q45.9062 40.4844 42.875 44.3281
Q39.8438 48.1875 33.7969 48.1875
Q26.5156 48.1875 22.3125 43.5469
Q18.1094 38.9219 18.1094 30.9062
L18.1094 0
L9.07812 0
L9.07812 54.6875
L18.1094 54.6875
L18.1094 46.1875
Q21.3438 51.125 25.7031 53.5625
Q30.0781 56 35.7969 56
Q45.2188 56 50.0469 50.1719
Q54.8906 44.3438 54.8906 33.0156" id="DejaVuSans-6e"/>
      <path d="
M9.42188 75.9844
L18.4062 75.9844
L18.4062 0
L9.42188 0
z
" id="DejaVuSans-6c"/>
      <path d="
M32.1719 -5.07812
Q28.375 -14.8438 24.75 -17.8125
Q21.1406 -20.7969 15.0938 -20.7969
L7.90625 -20.7969
L7.90625 -13.2812
L13.1875 -13.2812
Q16.8906 -13.2812 18.9375 -11.5156
Q21 -9.76562 23.4844 -3.21875
L25.0938 0.875
L2.98438 54.6875
L12.5 54.6875
L29.5938 11.9219
L46.6875 54.6875
L56.2031 54.6875
z
" id="DejaVuSans-79"/>
      <path d="
M54.8906 33.0156
L54.8906 0
L45.9062 0
L45.9062 32.7188
Q45.9062 40.4844 42.875 44.3281
Q39.8438 48.1875 33.7969 48.1875
Q26.5156 48.1875 22.3125 43.5469
Q18.1094 38.9219 18.1094 30.9062
L18.1094 0
L9.07812 0
L9.07812 75.9844
L18.1094 75.9844
L18.1094 46.1875
Q21.3438 51.125 25.7031 53.5625
Q30.0781 56 35.7969 56
Q45.2188 56 50.0469 50.1719
Q54.8906 44.3438 54.8906 33.0156" id="DejaVuSans-68"/>
      <path d="
M9.42188 54.6875
L18.4062 54.6875
L18.4062 0
L9.42188 0
z

M9.42188 75.9844
L18.4062 75.9844
L18.4062 64.5938
L9.42188 64.5938
z
" id="DejaVuSans-69"/>
      <path d="
M18.3125 70.2188
L18.3125 54.6875
L36.8125 54.6875
L36.8125 47.7031
L18.3125 47.7031
L18.3125 18.0156
Q18.3125 11.3281 20.1406 9.42188
Q21.9688 7.51562 27.5938 7.51562
L36.8125 7.51562
L36.8125 0
L27.5938 0
Q17.1875 0 13.2344 3.875
Q9.28125 7.76562 9.28125 18.0156
L9.28125 47.7031
L2.6875 47.7031
L2.6875 54.6875
L9.28125 54.6875
L9.28125 70.2188
z
" id="DejaVuSans-74"/>
      <path d="
M56.2031 29.5938
L56.2031 25.2031
L14.8906 25.2031
Q15.4844 15.9219 20.4844 11.0625
Q25.4844 6.20312 34.4219 6.20312
Q39.5938 6.20312 44.4531 7.46875
Q49.3125 8.73438 54.1094 11.2812
L54.1094 2.78125
Q49.2656 0.734375 44.1875 -0.34375
Q39.1094 -1.42188 33.8906 -1.42188
Q20.7969 -1.42188 13.1562 6.1875
Q5.51562 13.8125 5.51562 26.8125
Q5.51562 40.2344 12.7656 48.1094
Q20.0156 56 32.3281 56
Q43.3594 56 49.7812 48.8906
Q56.2031 41.7969 56.2031 29.5938
M47.2188 32.2344
Q47.125 39.5938 43.0938 43.9844
Q39.0625 48.3906 32.4219 48.3906
Q24.9062 48.3906 20.3906 44.1406
Q15.875 39.8906 15.1875 32.1719
z
" id="DejaVuSans-65"/>
      <path d="
M34.2812 27.4844
Q23.3906 27.4844 19.1875 25
Q14.9844 22.5156 14.9844 16.5
Q14.9844 11.7188 18.1406 8.90625
Q21.2969 6.10938 26.7031 6.10938
Q34.1875 6.10938 38.7031 11.4062
Q43.2188 16.7031 43.2188 25.4844
L43.2188 27.4844
z

M52.2031 31.2031
L52.2031 0
L43.2188 0
L43.2188 8.29688
Q40.1406 3.32812 35.5469 0.953125
Q30.9531 -1.42188 24.3125 -1.42188
Q15.9219 -1.42188 10.9531 3.29688
Q6 8.01562 6 15.9219
Q6 25.1406 12.1719 29.8281
Q18.3594 34.5156 30.6094 34.5156
L43.2188 34.5156
L43.2188 35.4062
Q43.2188 41.6094 39.1406 45
Q35.0625 48.3906 27.6875 48.3906
Q23 48.3906 18.5469 47.2656
Q14.1094 46.1406 10.0156 43.8906
L10.0156 52.2031
Q14.9375 54.1094 19.5781 55.0469
Q24.2188 56 28.6094 56
Q40.4844 56 46.3438 49.8438
Q52.2031 43.7031 52.2031 31.2031" id="DejaVuSans-61"/>
     </defs>
     <g transform="translate(75.714375 217.149801136)rotate(-90.0)scale(0.12 -0.12)">
      <use xlink:href="#DejaVuSans-4d"/>
      <use x="86.279296875" xlink:href="#DejaVuSans-65"/>
      <use x="147.802734375" xlink:href="#DejaVuSans-74"/>
      <use x="187.01171875" xlink:href="#DejaVuSans-68"/>
      <use x="250.390625" xlink:href="#DejaVuSans-79"/>
      <use x="309.5703125" xlink:href="#DejaVuSans-6c"/>
      <use x="337.353515625" xlink:href="#DejaVuSans-61"/>
      <use x="398.6328125" xlink:href="#DejaVuSans-74"/>
      <use x="437.841796875" xlink:href="#DejaVuSans-69"/>
      <use x="465.625" xlink:href="#DejaVuSans-6f"/>
      <use x="526.806640625" xlink:href="#DejaVuSans-6e"/>
     </g>
    </g>
   </g>
  </g>
  <g id="axes_2">
   <g id="patch_20">
    <path d="
M108 388.8
L777.6 388.8
L777.6 353.891
L108 353.891
z
" style="fill:#ffffff;"/>
   </g>
   <g id="line2d_21">
    <path clip-path="url(#pc82b1f09f0)" d="
M108 371.345
L777.6 371.345" style="fill:none;stroke:#000000;stroke-linecap:square;"/>
   </g>
   <g id="line2d_22">
    <path clip-path="url(#pc82b1f09f0)" d="
M127.299 371.345
L758.301 371.345" style="fill:none;stroke:#008000;stroke-linecap:square;stroke-width:3;"/>
   </g>
   <g id="patch_21">
    <path clip-path="url(#pc82b1f09f0)" d="
M755.734 388.8
L758.301 388.8
L758.301 353.891
L755.734 353.891
z
" style="fill:#008000;"/>
   </g>
   <g id="patch_22">
    <path clip-path="url(#pc82b1f09f0)" d="
M672.845 388.8
L675.045 388.8
L675.045 353.891
L672.845 353.891
z
" style="fill:#008000;"/>
   </g>
   <g id="patch_23">
    <path clip-path="url(#pc82b1f09f0)" d="
M613.577 388.8
L615.835 388.8
L615.835 353.891
L613.577 353.891
z
" style="fill:#008000;"/>
   </g>
   <g id="patch_24">
    <path clip-path="url(#pc82b1f09f0)" d="
M556.433 388.8
L557.243 388.8
L557.243 353.891
L556.433 353.891
z
" style="fill:#008000;"/>
   </g>
   <g id="patch_25">
    <path clip-path="url(#pc82b1f09f0)" d="
M529.472 388.8
L531.479 388.8
L531.479 353.891
L529.472 353.891
z
" style="fill:#008000;"/>
   </g>
   <g id="patch_26">
    <path clip-path="url(#pc82b1f09f0)" d="
M437.898 388.8
L440.31 388.8
L440.31 353.891
L437.898 353.891
z
" style="fill:#008000;"/>
   </g>
   <g id="patch_27">
    <path clip-path="url(#pc82b1f09f0)" d="
M425.682 388.8
L428.075 388.8
L428.075 353.891
L425.682 353.891
z
" style="fill:#008000;"/>
   </g>
   <g id="patch_28">
    <path clip-path="url(#pc82b1f09f0)" d="
M381.448 388.8
L383.88 388.8
L383.88 353.891
L381.448 353.891
z
" style="fill:#008000;"/>
   </g>
   <g id="patch_29">
    <path clip-path="url(#pc82b1f09f0)" d="
M369.676 388.8
L371.625 388.8
L371.625 353.891
L369.676 353.891
z
" style="fill:#008000;"/>
   </g>
   <g id="patch_30">
    <path clip-path="url(#pc82b1f09f0)" d="
M339.975 388.8
L342.078 388.8
L342.078 353.891
L339.975 353.891
z
" style="fill:#008000;"/>
   </g>
   <g id="patch_31">
    <path clip-path="url(#pc82b1f09f0)" d="
M169.082 388.8
L171.05 388.8
L171.05 353.891
L169.082 353.891
z
" style="fill:#008000;"/>
   </g>
   <g id="patch_32">
    <path clip-path="url(#pc82b1f09f0)" d="
M155.09 388.8
L157.676 388.8
L157.676 353.891
L155.09 353.891
z
" style="fill:#008000;"/>
   </g>
   <g id="patch_33">
    <path clip-path="url(#pc82b1f09f0)" d="
M127.299 388.8
L131.101 388.8
L131.101 353.891
L127.299 353.891
z
" style="fill:#008000;"/>
   </g>
   <g id="patch_34">
    <path d="
M108 353.891
L777.6 353.891" style="fill:none;"/>
   </g>
   <g id="patch_35">
    <path d="
M777.6 388.8
L777.6 353.891" style="fill:none;"/>
   </g>
   <g id="patch_36">
    <path d="
M108 388.8
L777.6 388.8" style="fill:none;"/>
   </g>
   <g id="patch_37">
    <path d="
M108 388.8
L108 353.891" style="fill:none;"/>
   </g>
   <g id="matplotlib.axis_2">
    <g id="xtick_1">
     <g id="line2d_23">
      <defs>
       <path d="
M0 0
L0 -4" id="m93b0483c22" style="stroke:#000000;stroke-width:0.5;"/>
      </defs>
      <g>
       <use style="stroke:#000000;stroke-width:0.5;" x="126.52709246" xlink:href="#m93b0483c22" y="388.8"/>
      </g>
     </g>
     <g id="line2d_24">
      <defs>
       <path d="
M0 0
L0 4" id="m741efc42ff" style="stroke:#000000;stroke-width:0.5;"/>
      </defs>
      <g>
       <use style="stroke:#000000;stroke-width:0.5;" x="126.52709246" xlink:href="#m741efc42ff" y="353.890909091"/>
      </g>
     </g>
     <g id="text_8">
      <!-- 1000 -->
      <g transform="translate(112.31459246 401.918125)scale(0.12 -0.12)">
       <use xlink:href="#DejaVuSans-31"/>
       <use x="63.623046875" xlink:href="#DejaVuSans-30"/>
       <use x="127.24609375" xlink:href="#DejaVuSans-30"/>
       <use x="190.869140625" xlink:href="#DejaVuSans-30"/>
      </g>
     </g>
    </g>
    <g id="xtick_2">
     <g id="line2d_25">
      <g>
       <use style="stroke:#000000;stroke-width:0.5;" x="223.02236569" xlink:href="#m93b0483c22" y="388.8"/>
      </g>
     </g>
     <g id="line2d_26">
      <g>
       <use style="stroke:#000000;stroke-width:0.5;" x="223.02236569" xlink:href="#m741efc42ff" y="353.890909091"/>
      </g>
     </g>
     <g id="text_9">
      <!-- 2000 -->
      <g transform="translate(208.59049069 401.918125)scale(0.12 -0.12)">
       <use xlink:href="#DejaVuSans-32"/>
       <use x="63.623046875" xlink:href="#DejaVuSans-30"/>
       <use x="127.24609375" xlink:href="#DejaVuSans-30"/>
       <use x="190.869140625" xlink:href="#DejaVuSans-30"/>
      </g>
     </g>
    </g>
    <g id="xtick_3">
     <g id="line2d_27">
      <g>
       <use style="stroke:#000000;stroke-width:0.5;" x="319.517638921" xlink:href="#m93b0483c22" y="388.8"/>
      </g>
     </g>
     <g id="line2d_28">
      <g>
       <use style="stroke:#000000;stroke-width:0.5;" x="319.517638921" xlink:href="#m741efc42ff" y="353.890909091"/>
      </g>
     </g>
     <g id="text_10">
      <!-- 3000 -->
      <defs>
       <path d="
M40.5781 39.3125
Q47.6562 37.7969 51.625 33
Q55.6094 28.2188 55.6094 21.1875
Q55.6094 10.4062 48.1875 4.48438
Q40.7656 -1.42188 27.0938 -1.42188
Q22.5156 -1.42188 17.6562 -0.515625
Q12.7969 0.390625 7.625 2.20312
L7.625 11.7188
Q11.7188 9.32812 16.5938 8.10938
Q21.4844 6.89062 26.8125 6.89062
Q36.0781 6.89062 40.9375 10.5469
Q45.7969 14.2031 45.7969 21.1875
Q45.7969 27.6406 41.2812 31.2656
Q36.7656 34.9062 28.7188 34.9062
L20.2188 34.9062
L20.2188 43.0156
L29.1094 43.0156
Q36.375 43.0156 40.2344 45.9219
Q44.0938 48.8281 44.0938 54.2969
Q44.0938 59.9062 40.1094 62.9062
Q36.1406 65.9219 28.7188 65.9219
Q24.6562 65.9219 20.0156 65.0312
Q15.375 64.1562 9.8125 62.3125
L9.8125 71.0938
Q15.4375 72.6562 20.3438 73.4375
Q25.25 74.2188 29.5938 74.2188
Q40.8281 74.2188 47.3594 69.1094
Q53.9062 64.0156 53.9062 55.3281
Q53.9062 49.2656 50.4375 45.0938
Q46.9688 40.9219 40.5781 39.3125" id="DejaVuSans-33"/>
      </defs>
      <g transform="translate(305.103576421 401.918125)scale(0.12 -0.12)">
       <use xlink:href="#DejaVuSans-33"/>
       <use x="63.623046875" xlink:href="#DejaVuSans-30"/>
       <use x="127.24609375" xlink:href="#DejaVuSans-30"/>
       <use x="190.869140625" xlink:href="#DejaVuSans-30"/>
      </g>
     </g>
    </g>
    <g id="xtick_4">
     <g id="line2d_29">
      <g>
       <use style="stroke:#000000;stroke-width:0.5;" x="416.012912151" xlink:href="#m93b0483c22" y="388.8"/>
      </g>
     </g>
     <g id="line2d_30">
      <g>
       <use style="stroke:#000000;stroke-width:0.5;" x="416.012912151" xlink:href="#m741efc42ff" y="353.890909091"/>
      </g>
     </g>
     <g id="text_11">
      <!-- 4000 -->
      <g transform="translate(401.434787151 401.918125)scale(0.12 -0.12)">
       <use xlink:href="#DejaVuSans-34"/>
       <use x="63.623046875" xlink:href="#DejaVuSans-30"/>
       <use x="127.24609375" xlink:href="#DejaVuSans-30"/>
       <use x="190.869140625" xlink:href="#DejaVuSans-30"/>
      </g>
     </g>
    </g>
    <g id="xtick_5">
     <g id="line2d_31">
      <g>
       <use style="stroke:#000000;stroke-width:0.5;" x="512.508185382" xlink:href="#m93b0483c22" y="388.8"/>
      </g>
     </g>
     <g id="line2d_32">
      <g>
       <use style="stroke:#000000;stroke-width:0.5;" x="512.508185382" xlink:href="#m741efc42ff" y="353.890909091"/>
      </g>
     </g>
     <g id="text_12">
      <!-- 5000 -->
      <defs>
       <path d="
M10.7969 72.9062
L49.5156 72.9062
L49.5156 64.5938
L19.8281 64.5938
L19.8281 46.7344
Q21.9688 47.4688 24.1094 47.8281
Q26.2656 48.1875 28.4219 48.1875
Q40.625 48.1875 47.75 41.5
Q54.8906 34.8125 54.8906 23.3906
Q54.8906 11.625 47.5625 5.09375
Q40.2344 -1.42188 26.9062 -1.42188
Q22.3125 -1.42188 17.5469 -0.640625
Q12.7969 0.140625 7.71875 1.70312
L7.71875 11.625
Q12.1094 9.23438 16.7969 8.0625
Q21.4844 6.89062 26.7031 6.89062
Q35.1562 6.89062 40.0781 11.3281
Q45.0156 15.7656 45.0156 23.3906
Q45.0156 31 40.0781 35.4375
Q35.1562 39.8906 26.7031 39.8906
Q22.75 39.8906 18.8125 39.0156
Q14.8906 38.1406 10.7969 36.2812
z
" id="DejaVuSans-35"/>
      </defs>
      <g transform="translate(498.099747882 401.918125)scale(0.12 -0.12)">
       <use xlink:href="#DejaVuSans-35"/>
       <use x="63.623046875" xlink:href="#DejaVuSans-30"/>
       <use x="127.24609375" xlink:href="#DejaVuSans-30"/>
       <use x="190.869140625" xlink:href="#DejaVuSans-30"/>
      </g>
     </g>
    </g>
    <g id="xtick_6">
     <g id="line2d_33">
      <g>
       <use style="stroke:#000000;stroke-width:0.5;" x="609.003458612" xlink:href="#m93b0483c22" y="388.8"/>
      </g>
     </g>
     <g id="line2d_34">
      <g>
       <use style="stroke:#000000;stroke-width:0.5;" x="609.003458612" xlink:href="#m741efc42ff" y="353.890909091"/>
      </g>
     </g>
     <g id="text_13">
      <!-- 6000 -->
      <g transform="translate(594.550958612 401.918125)scale(0.12 -0.12)">
       <use xlink:href="#DejaVuSans-36"/>
       <use x="63.623046875" xlink:href="#DejaVuSans-30"/>
       <use x="127.24609375" xlink:href="#DejaVuSans-30"/>
       <use x="190.869140625" xlink:href="#DejaVuSans-30"/>
      </g>
     </g>
    </g>
    <g id="xtick_7">
     <g id="line2d_35">
      <g>
       <use style="stroke:#000000;stroke-width:0.5;" x="705.498731842" xlink:href="#m93b0483c22" y="388.8"/>
      </g>
     </g>
     <g id="line2d_36">
      <g>
       <use style="stroke:#000000;stroke-width:0.5;" x="705.498731842" xlink:href="#m741efc42ff" y="353.890909091"/>
      </g>
     </g>
     <g id="text_14">
      <!-- 7000 -->
      <defs>
       <path d="
M8.20312 72.9062
L55.0781 72.9062
L55.0781 68.7031
L28.6094 0
L18.3125 0
L43.2188 64.5938
L8.20312 64.5938
z
" id="DejaVuSans-37"/>
      </defs>
      <g transform="translate(691.119356842 401.918125)scale(0.12 -0.12)">
       <use xlink:href="#DejaVuSans-37"/>
       <use x="63.623046875" xlink:href="#DejaVuSans-30"/>
       <use x="127.24609375" xlink:href="#DejaVuSans-30"/>
       <use x="190.869140625" xlink:href="#DejaVuSans-30"/>
      </g>
     </g>
    </g>
    <g id="text_15">
     <!-- Length (bp) -->
     <defs>
      <path d="
M9.8125 72.9062
L19.6719 72.9062
L19.6719 8.29688
L55.1719 8.29688
L55.1719 0
L9.8125 0
z
" id="DejaVuSans-4c"/>
      <path id="DejaVuSans-20"/>
      <path d="
M45.4062 27.9844
Q45.4062 37.75 41.375 43.1094
Q37.3594 48.4844 30.0781 48.4844
Q22.8594 48.4844 18.8281 43.1094
Q14.7969 37.75 14.7969 27.9844
Q14.7969 18.2656 18.8281 12.8906
Q22.8594 7.51562 30.0781 7.51562
Q37.3594 7.51562 41.375 12.8906
Q45.4062 18.2656 45.4062 27.9844
M54.3906 6.78125
Q54.3906 -7.17188 48.1875 -13.9844
Q42 -20.7969 29.2031 -20.7969
Q24.4688 -20.7969 20.2656 -20.0938
Q16.0625 -19.3906 12.1094 -17.9219
L12.1094 -9.1875
Q16.0625 -11.3281 19.9219 -12.3438
Q23.7812 -13.375 27.7812 -13.375
Q36.625 -13.375 41.0156 -8.76562
Q45.4062 -4.15625 45.4062 5.17188
L45.4062 9.625
Q42.625 4.78125 38.2812 2.39062
Q33.9375 0 27.875 0
Q17.8281 0 11.6719 7.65625
Q5.51562 15.3281 5.51562 27.9844
Q5.51562 40.6719 11.6719 48.3281
Q17.8281 56 27.875 56
Q33.9375 56 38.2812 53.6094
Q42.625 51.2188 45.4062 46.3906
L45.4062 54.6875
L54.3906 54.6875
z
" id="DejaVuSans-67"/>
      <path d="
M31 75.875
Q24.4688 64.6562 21.2812 53.6562
Q18.1094 42.6719 18.1094 31.3906
Q18.1094 20.125 21.3125 9.0625
Q24.5156 -2 31 -13.1875
L23.1875 -13.1875
Q15.875 -1.70312 12.2344 9.375
Q8.59375 20.4531 8.59375 31.3906
Q8.59375 42.2812 12.2031 53.3125
Q15.8281 64.3594 23.1875 75.875
z
" id="DejaVuSans-28"/>
      <path d="
M8.01562 75.875
L15.8281 75.875
Q23.1406 64.3594 26.7812 53.3125
Q30.4219 42.2812 30.4219 31.3906
Q30.4219 20.4531 26.7812 9.375
Q23.1406 -1.70312 15.8281 -13.1875
L8.01562 -13.1875
Q14.5 -2 17.7031 9.0625
Q20.9062 20.125 20.9062 31.3906
Q20.9062 42.6719 17.7031 53.6562
Q14.5 64.6562 8.01562 75.875" id="DejaVuSans-29"/>
      <path d="
M48.6875 27.2969
Q48.6875 37.2031 44.6094 42.8438
Q40.5312 48.4844 33.4062 48.4844
Q26.2656 48.4844 22.1875 42.8438
Q18.1094 37.2031 18.1094 27.2969
Q18.1094 17.3906 22.1875 11.75
Q26.2656 6.10938 33.4062 6.10938
Q40.5312 6.10938 44.6094 11.75
Q48.6875 17.3906 48.6875 27.2969
M18.1094 46.3906
Q20.9531 51.2656 25.2656 53.625
Q29.5938 56 35.5938 56
Q45.5625 56 51.7812 48.0938
Q58.0156 40.1875 58.0156 27.2969
Q58.0156 14.4062 51.7812 6.48438
Q45.5625 -1.42188 35.5938 -1.42188
Q29.5938 -1.42188 25.2656 0.953125
Q20.9531 3.32812 18.1094 8.20312
L18.1094 0
L9.07812 0
L9.07812 75.9844
L18.1094 75.9844
z
" id="DejaVuSans-62"/>
      <path d="
M18.1094 8.20312
L18.1094 -20.7969
L9.07812 -20.7969
L9.07812 54.6875
L18.1094 54.6875
L18.1094 46.3906
Q20.9531 51.2656 25.2656 53.625
Q29.5938 56 35.5938 56
Q45.5625 56 51.7812 48.0938
Q58.0156 40.1875 58.0156 27.2969
Q58.0156 14.4062 51.7812 6.48438
Q45.5625 -1.42188 35.5938 -1.42188
Q29.5938 -1.42188 25.2656 0.953125
Q20.9531 3.32812 18.1094 8.20312
M48.6875 27.2969
Q48.6875 37.2031 44.6094 42.8438
Q40.5312 48.4844 33.4062 48.4844
Q26.2656 48.4844 22.1875 42.8438
Q18.1094 37.2031 18.1094 27.2969
Q18.1094 17.3906 22.1875 11.75
Q26.2656 6.10938 33.4062 6.10938
Q40.5312 6.10938 44.6094 11.75
Q48.6875 17.3906 48.6875 27.2969" id="DejaVuSans-70"/>
     </defs>
     <g transform="translate(408.4125 418.531875)scale(0.12 -0.12)">
      <use xlink:href="#DejaVuSans-4c"/>
      <use x="53.962890625" xlink:href="#DejaVuSans-65"/>
      <use x="115.486328125" xlink:href="#DejaVuSans-6e"/>
      <use x="178.865234375" xlink:href="#DejaVuSans-67"/>
      <use x="242.341796875" xlink:href="#DejaVuSans-74"/>
      <use x="281.55078125" xlink:href="#DejaVuSans-68"/>
      <use x="344.9296875" xlink:href="#DejaVuSans-20"/>
      <use x="376.716796875" xlink:href="#DejaVuSans-28"/>
      <use x="415.73046875" xlink:href="#DejaVuSans-62"/>
      <use x="479.20703125" xlink:href="#DejaVuSans-70"/>
      <use x="542.68359375" xlink:href="#DejaVuSans-29"/>
     </g>
     <!-- chr15:43250040-43282736 -->
     <defs>
      <path d="
M11.7188 12.4062
L22.0156 12.4062
L22.0156 0
L11.7188 0
z

M11.7188 51.7031
L22.0156 51.7031
L22.0156 39.3125
L11.7188 39.3125
z
" id="DejaVuSans-3a"/>
      <path d="
M48.7812 52.5938
L48.7812 44.1875
Q44.9688 46.2969 41.1406 47.3438
Q37.3125 48.3906 33.4062 48.3906
Q24.6562 48.3906 19.8125 42.8438
Q14.9844 37.3125 14.9844 27.2969
Q14.9844 17.2812 19.8125 11.7344
Q24.6562 6.20312 33.4062 6.20312
Q37.3125 6.20312 41.1406 7.25
Q44.9688 8.29688 48.7812 10.4062
L48.7812 2.09375
Q45.0156 0.34375 40.9844 -0.53125
Q36.9688 -1.42188 32.4219 -1.42188
Q20.0625 -1.42188 12.7812 6.34375
Q5.51562 14.1094 5.51562 27.2969
Q5.51562 40.6719 12.8594 48.3281
Q20.2188 56 33.0156 56
Q37.1562 56 41.1094 55.1406
Q45.0625 54.2969 48.7812 52.5938" id="DejaVuSans-63"/>
      <path d="
M4.89062 31.3906
L31.2031 31.3906
L31.2031 23.3906
L4.89062 23.3906
z
" id="DejaVuSans-2d"/>
      <path d="
M41.1094 46.2969
Q39.5938 47.1719 37.8125 47.5781
Q36.0312 48 33.8906 48
Q26.2656 48 22.1875 43.0469
Q18.1094 38.0938 18.1094 28.8125
L18.1094 0
L9.07812 0
L9.07812 54.6875
L18.1094 54.6875
L18.1094 46.1875
Q20.9531 51.1719 25.4844 53.5781
Q30.0312 56 36.5312 56
Q37.4531 56 38.5781 55.875
Q39.7031 55.7656 41.0625 55.5156
z
" id="DejaVuSans-72"/>
     </defs>
     <g transform="translate(361.0396875 431.96925)scale(0.12 -0.12)">
      <use xlink:href="#DejaVuSans-63"/>
      <use x="54.98046875" xlink:href="#DejaVuSans-68"/>
      <use x="118.359375" xlink:href="#DejaVuSans-72"/>
      <use x="159.47265625" xlink:href="#DejaVuSans-31"/>
      <use x="223.095703125" xlink:href="#DejaVuSans-35"/>
      <use x="286.71875" xlink:href="#DejaVuSans-3a"/>
      <use x="320.41015625" xlink:href="#DejaVuSans-34"/>
      <use x="384.033203125" xlink:href="#DejaVuSans-33"/>
      <use x="447.65625" xlink:href="#DejaVuSans-32"/>
      <use x="511.279296875" xlink:href="#DejaVuSans-35"/>
      <use x="574.90234375" xlink:href="#DejaVuSans-30"/>
      <use x="638.525390625" xlink:href="#DejaVuSans-30"/>
      <use x="702.1484375" xlink:href="#DejaVuSans-34"/>
      <use x="765.771484375" xlink:href="#DejaVuSans-30"/>
      <use x="829.39453125" xlink:href="#DejaVuSans-2d"/>
      <use x="865.478515625" xlink:href="#DejaVuSans-34"/>
      <use x="929.1015625" xlink:href="#DejaVuSans-33"/>
      <use x="992.724609375" xlink:href="#DejaVuSans-32"/>
      <use x="1056.34765625" xlink:href="#DejaVuSans-38"/>
      <use x="1119.97070312" xlink:href="#DejaVuSans-32"/>
      <use x="1183.59375" xlink:href="#DejaVuSans-37"/>
      <use x="1247.21679688" xlink:href="#DejaVuSans-33"/>
      <use x="1310.83984375" xlink:href="#DejaVuSans-36"/>
     </g>
    </g>
   </g>
  </g>
  <g id="text_16">
   <!-- ENSMUST00000022960 (Eif3e) -->
   <defs>
    <path d="
M9.8125 72.9062
L23.0938 72.9062
L55.4219 11.9219
L55.4219 72.9062
L64.9844 72.9062
L64.9844 0
L51.7031 0
L19.3906 60.9844
L19.3906 0
L9.8125 0
z
" id="DejaVuSans-4e"/>
    <path d="
M9.8125 72.9062
L55.9062 72.9062
L55.9062 64.5938
L19.6719 64.5938
L19.6719 43.0156
L54.3906 43.0156
L54.3906 34.7188
L19.6719 34.7188
L19.6719 8.29688
L56.7812 8.29688
L56.7812 0
L9.8125 0
z
" id="DejaVuSans-45"/>
    <path d="
M53.5156 70.5156
L53.5156 60.8906
Q47.9062 63.5781 42.9219 64.8906
Q37.9375 66.2188 33.2969 66.2188
Q25.25 66.2188 20.875 63.0938
Q16.5 59.9688 16.5 54.2031
Q16.5 49.3594 19.4062 46.8906
Q22.3125 44.4375 30.4219 42.9219
L36.375 41.7031
Q47.4062 39.5938 52.6562 34.2969
Q57.9062 29 57.9062 20.125
Q57.9062 9.51562 50.7969 4.04688
Q43.7031 -1.42188 29.9844 -1.42188
Q24.8125 -1.42188 18.9688 -0.25
Q13.1406 0.921875 6.89062 3.21875
L6.89062 13.375
Q12.8906 10.0156 18.6562 8.29688
Q24.4219 6.59375 29.9844 6.59375
Q38.4219 6.59375 43.0156 9.90625
Q47.6094 13.2344 47.6094 19.3906
Q47.6094 24.75 44.3125 27.7812
Q41.0156 30.8125 33.5 32.3281
L27.4844 33.5
Q16.4531 35.6875 11.5156 40.375
Q6.59375 45.0625 6.59375 53.4219
Q6.59375 63.0938 13.4062 68.6562
Q20.2188 74.2188 32.1719 74.2188
Q37.3125 74.2188 42.625 73.2812
Q47.9531 72.3594 53.5156 70.5156" id="DejaVuSans-53"/>
    <path d="
M10.9844 1.51562
L10.9844 10.5
Q14.7031 8.73438 18.5 7.8125
Q22.3125 6.89062 25.9844 6.89062
Q35.75 6.89062 40.8906 13.4531
Q46.0469 20.0156 46.7812 33.4062
Q43.9531 29.2031 39.5938 26.9531
Q35.25 24.7031 29.9844 24.7031
Q19.0469 24.7031 12.6719 31.3125
Q6.29688 37.9375 6.29688 49.4219
Q6.29688 60.6406 12.9375 67.4219
Q19.5781 74.2188 30.6094 74.2188
Q43.2656 74.2188 49.9219 64.5156
Q56.5938 54.8281 56.5938 36.375
Q56.5938 19.1406 48.4062 8.85938
Q40.2344 -1.42188 26.4219 -1.42188
Q22.7031 -1.42188 18.8906 -0.6875
Q15.0938 0.046875 10.9844 1.51562
M30.6094 32.4219
Q37.25 32.4219 41.125 36.9531
Q45.0156 41.5 45.0156 49.4219
Q45.0156 57.2812 41.125 61.8438
Q37.25 66.4062 30.6094 66.4062
Q23.9688 66.4062 20.0938 61.8438
Q16.2188 57.2812 16.2188 49.4219
Q16.2188 41.5 20.0938 36.9531
Q23.9688 32.4219 30.6094 32.4219" id="DejaVuSans-39"/>
    <path d="
M37.1094 75.9844
L37.1094 68.5
L28.5156 68.5
Q23.6875 68.5 21.7969 66.5469
Q19.9219 64.5938 19.9219 59.5156
L19.9219 54.6875
L34.7188 54.6875
L34.7188 47.7031
L19.9219 47.7031
L19.9219 0
L10.8906 0
L10.8906 47.7031
L2.29688 47.7031
L2.29688 54.6875
L10.8906 54.6875
L10.8906 58.5
Q10.8906 67.625 15.1406 71.7969
Q19.3906 75.9844 28.6094 75.9844
z
" id="DejaVuSans-66"/>
    <path d="
M8.6875 72.9062
L18.6094 72.9062
L18.6094 28.6094
Q18.6094 16.8906 22.8438 11.7344
Q27.0938 6.59375 36.625 6.59375
Q46.0938 6.59375 50.3438 11.7344
Q54.5938 16.8906 54.5938 28.6094
L54.5938 72.9062
L64.5 72.9062
L64.5 27.3906
Q64.5 13.1406 57.4375 5.85938
Q50.3906 -1.42188 36.625 -1.42188
Q22.7969 -1.42188 15.7344 5.85938
Q8.6875 13.1406 8.6875 27.3906
z
" id="DejaVuSans-55"/>
    <path d="
M-0.296875 72.9062
L61.375 72.9062
L61.375 64.5938
L35.5 64.5938
L35.5 0
L25.5938 0
L25.5938 64.5938
L-0.296875 64.5938
z
" id="DejaVuSans-54"/>
   </defs>
   <g transform="translate(339.72375 17.758125)scale(0.12 -0.12)">
    <use xlink:href="#DejaVuSans-45"/>
    <use x="63.18359375" xlink:href="#DejaVuSans-4e"/>
    <use x="137.98828125" xlink:href="#DejaVuSans-53"/>
    <use x="201.46484375" xlink:href="#DejaVuSans-4d"/>
    <use x="287.744140625" xlink:href="#DejaVuSans-55"/>
    <use x="360.9375" xlink:href="#DejaVuSans-53"/>
    <use x="424.4140625" xlink:href="#DejaVuSans-54"/>
    <use x="485.498046875" xlink:href="#DejaVuSans-30"/>
    <use x="549.12109375" xlink:href="#DejaVuSans-30"/>
    <use x="612.744140625" xlink:href="#DejaVuSans-30"/>
    <use x="676.3671875" xlink:href="#DejaVuSans-30"/>
    <use x="739.990234375" xlink:href="#DejaVuSans-30"/>
    <use x="803.61328125" xlink:href="#DejaVuSans-30"/>
    <use x="867.236328125" xlink:href="#DejaVuSans-32"/>
    <use x="930.859375" xlink:href="#DejaVuSans-32"/>
    <use x="994.482421875" xlink:href="#DejaVuSans-39"/>
    <use x="1058.10546875" xlink:href="#DejaVuSans-36"/>
    <use x="1121.72851562" xlink:href="#DejaVuSans-30"/>
    <use x="1185.3515625" xlink:href="#DejaVuSans-20"/>
    <use x="1217.13867188" xlink:href="#DejaVuSans-28"/>
    <use x="1256.15234375" xlink:href="#DejaVuSans-45"/>
    <use x="1319.3359375" xlink:href="#DejaVuSans-69"/>
    <use x="1347.11914062" xlink:href="#DejaVuSans-66"/>
    <use x="1382.32421875" xlink:href="#DejaVuSans-33"/>
    <use x="1445.94726562" xlink:href="#DejaVuSans-65"/>
    <use x="1507.47070312" xlink:href="#DejaVuSans-29"/>
   </g>
  </g>
 </g>
 <defs>
  <clipPath id="p9fd4257182">
   <rect height="279.272727273" width="669.6" x="108.0" y="43.2"/>
  </clipPath>
  <clipPath id="pc82b1f09f0">
   <rect height="34.9090909091" width="669.6" x="108.0" y="353.890909091"/>
  </clipPath>
 </defs>
</svg>
