<?xml version="1.0" encoding="utf-8" standalone="no"?>
<!DOCTYPE svg PUBLIC "-//W3C//DTD SVG 1.1//EN"
  "http://www.w3.org/Graphics/SVG/1.1/DTD/svg11.dtd">
<!-- Created with matplotlib (http://matplotlib.org/) -->
<svg height="432pt" version="1.1" viewBox="0 0 864 432" width="864pt" xmlns="http://www.w3.org/2000/svg" xmlns:xlink="http://www.w3.org/1999/xlink">
 <defs>
  <style type="text/css">
*{stroke-linecap:butt;stroke-linejoin:round;}
  </style>
 </defs>
 <g id="figure_1">
  <g id="patch_1">
   <path d="
M0 432
L864 432
L864 0
L0 0
z
" style="fill:#ffffff;"/>
  </g>
  <g id="axes_1">
   <g id="patch_2">
    <path d="
M108 322.473
L777.6 322.473
L777.6 43.2
L108 43.2
z
" style="fill:#ffffff;"/>
   </g>
   <g id="patch_3">
    <path clip-path="url(#p9fd4257182)" d="
M170.714 322.473
L184.825 322.473
L184.825 43.2
L170.714 43.2
z
" style="fill:#008000;opacity:0.2;"/>
   </g>
   <g id="patch_4">
    <path clip-path="url(#p9fd4257182)" d="
M212.67 322.473
L243.337 322.473
L243.337 43.2
L212.67 43.2
z
" style="fill:#008000;opacity:0.2;"/>
   </g>
   <g id="patch_5">
    <path clip-path="url(#p9fd4257182)" d="
M286.798 322.473
L299.278 322.473
L299.278 43.2
L286.798 43.2
z
" style="fill:#008000;opacity:0.2;"/>
   </g>
   <g id="patch_6">
    <path clip-path="url(#p9fd4257182)" d="
M381.497 322.473
L397.301 322.473
L397.301 43.2
L381.497 43.2
z
" style="fill:#008000;opacity:0.2;"/>
   </g>
   <g id="patch_7">
    <path clip-path="url(#p9fd4257182)" d="
M546.373 322.473
L553.397 322.473
L553.397 43.2
L546.373 43.2
z
" style="fill:#008000;opacity:0.2;"/>
   </g>
   <g id="patch_8">
    <path clip-path="url(#p9fd4257182)" d="
M592.405 322.473
L602.251 322.473
L602.251 43.2
L592.405 43.2
z
" style="fill:#008000;opacity:0.2;"/>
   </g>
   <g id="patch_9">
    <path clip-path="url(#p9fd4257182)" d="
M694.566 322.473
L714.886 322.473
L714.886 43.2
L694.566 43.2
z
" style="fill:#008000;opacity:0.2;"/>
   </g>
   <g id="line2d_1">
    <path clip-path="url(#p9fd4257182)" d="
M127.504 69.3678
L127.692 70.382
L135.343 151.054
L143.371 181.212
L144.625 187.348
L146.757 215.427
L147.949 237.265
L154.534 310.034
L157.419 316.107
L158.861 317.701
L162.436 320.097
L164.004 320.755
L166.512 321.328
L168.457 321.533
L171.78 321.602
L176.17 321.672
L185.201 321.845
L189.466 321.789
L190.846 321.664
L195.361 319.957
L197.305 317.374
L201.131 309.171
L208.594 266.816
L217.625 147.144
L219.255 136.511
L221.387 124.69
L225.903 102.975
L227.784 96.4626
L234.934 98.3897
L238.132 122.771
L240.578 155.472
L249.483 277.154
L254.312 272.975
L254.375 272.626
L265.225 127.729
L273.064 82.7234
L276.764 74.3535
L280.464 68.4791
L288.115 59.0618
L290.122 57.9887
L291.063 57.6751
L295.077 57.0902
L296.833 57.0649
L310.504 219.629
L310.567 222.146
L316.337 312.978
L323.486 306.438
L323.549 306.139
L337.471 142.736
L348.948 76.4096
L362.055 74.8982
L362.808 75.0842
L367.261 74.6262
L380.243 66.9572
L389.838 60.6297
L392.221 59.4259
L416.993 56.6471
L442.392 56.6061
L446.531 57.8472
L449.416 62.4888
L457.005 79.3338
L457.067 79.2295
L461.896 67.2975
L463.213 65.0616
L466.976 59.8201
L468.168 58.4937
L471.68 56.9584
L472.997 56.9984
L479.08 57.6518
L483.721 57.0477
L484.787 56.9945
L493.755 60.8241
L499.023 84.3268
L507.552 67.0334
L509.81 65.6359
L511.817 65.9693
L529.063 279.327
L530.443 290.579
L537.467 268.316
L537.53 266.999
L542.61 120.794
L544.742 85.2272
L548.881 62.6988
L552.644 58.7048
L579.298 147.148
L579.36 147.946
L585.444 213.064
L594.161 244.578
L594.412 244.489
L595.98 242.63
L596.481 241.538
L598.864 232.693
L604.132 186.625
L612.285 85.4136
L627.525 60.6341
L639.691 72.4741
L643.642 71.0444
L644.27 70.6713
L654.241 66.7217
L656.185 67.2561
L658.255 68.9439
L662.08 77.9872
L665.906 98.8886
L667.16 108.592
L672.993 151.216
L683.905 145.294
L684.846 145.518
L686.915 149.253
L687.354 150.76
L696.636 219.884
L700.211 230.343
L700.524 230.76
L702.656 231.72
L712.753 204.045
L713.631 200.595
L723.854 156.415
L737.149 105.827
L745.051 98.004
L752.263 104.03
L759.664 104.475
L762.486 100.965
L768.883 89.0514
L773.273 78.4237
L773.273 78.4237" style="fill:none;opacity:0.5;stroke:#0000ff;stroke-linecap:square;"/>
   </g>
   <g id="line2d_2">
    <path clip-path="url(#p9fd4257182)" d="
M127.504 65.4473
L127.692 65.4978
L135.343 70.7196
L143.371 165.101
L144.625 204.296
L146.757 262.244
L147.949 279.315
L154.534 307.14
L157.419 313.63
L158.861 315.821
L162.436 319.135
L166.512 321.459
L168.457 321.994
L171.216 322.255
L172.658 322.276
L176.17 322.102
L178.867 321.841
L181.25 321.864
L189.466 322.069
L208.594 322.246
L217.562 322.087
L219.192 321.477
L221.325 317.951
L225.965 245.645
L227.847 210.735
L234.996 165.769
L238.132 172.144
L240.578 182.969
L249.483 214.106
L254.312 207.972
L265.225 162.522
L273.001 129.617
L276.701 118.193
L280.401 109.814
L290.185 91.8014
L291.063 90.4133
L295.077 86.202
L296.833 85.7064
L310.504 177.874
L316.274 205.529
L316.337 205.293
L323.549 168.953
L337.471 95.2324
L348.948 64.9716
L362.055 83.4117
L362.808 85.8878
L367.261 98.3462
L380.18 108.957
L380.243 108.859
L392.221 66.2585
L417.056 57.1795
L442.392 57.3721
L449.416 57.0473
L457.067 56.5872
L460.517 56.6764
L461.896 57.3347
L463.213 59.8267
L466.976 89.0653
L468.105 90.5623
L468.168 90.3108
L471.68 63.3079
L472.997 60.1144
L479.08 57.1981
L481.651 57.2093
L484.787 57.3752
L493.755 57.3007
L499.023 58.4568
L507.552 69.4
L509.81 74.6571
L511.817 80.2394
L528.687 135.984
L529.063 136.563
L530.443 138.049
L537.53 127.391
L540.164 118.457
L542.61 111.963
L544.679 107.732
L548.881 102.417
L552.581 101.199
L579.36 219.65
L585.444 244.164
L594.349 268.267
L594.412 268.358
L595.98 269.901
L596.481 270.069
L598.864 268.157
L604.132 236.749
L612.285 81.4136
L627.525 56.8959
L639.691 60.7055
L643.642 64.5843
L644.332 65.4269
L654.241 81.5223
L658.255 89.008
L665.906 103.839
L667.223 106.669
L672.993 121.806
L684.783 168.895
L687.354 180.325
L696.636 214.729
L700.524 222.161
L702.594 224.493
L712.691 225.161
L713.569 224.89
L723.854 191.159
L737.149 101.712
L744.989 96.3915
L745.051 96.5417
L752.326 134.789
L759.664 167.856
L759.726 167.837
L762.549 163.403
L768.82 137.261
L773.273 116.396
L773.273 116.396" style="fill:none;opacity:0.5;stroke:#ff0000;stroke-linecap:square;"/>
   </g>
   <g id="line2d_3">
    <path clip-path="url(#p9fd4257182)" d="
M127.504 72.3637
L127.692 73.0621
L135.343 112.348
L143.308 161.479
L143.371 162.569
L144.625 193.748
L146.757 274.735
L147.949 297.954
L154.534 320.656
L157.419 321.958
L158.861 322.192
L164.004 322.31
L166.512 321.878
L167.704 321.097
L168.457 320.084
L169.711 316.647
L170.463 313.028
L171.78 303.918
L172.658 300.186
L175.292 311.599
L176.17 315.936
L177.425 319.54
L177.926 320.328
L178.867 321.204
L180.121 321.681
L182.693 321.954
L185.891 322.04
L190.846 322.179
L197.305 322.262
L199.876 321.814
L201.131 320.942
L208.594 262.442
L217.625 230.063
L221.387 200.783
L227.471 144.662
L227.847 142.231
L233.428 167.4
L234.996 186.943
L238.132 223.543
L240.578 242.261
L249.483 274.406
L254.375 274.056
L265.225 234.805
L273.064 170.379
L276.764 145.718
L280.464 125.253
L287.927 80.0852
L288.178 79.3765
L289.934 76.8063
L290.185 76.7964
L291.063 77.5416
L295.077 89.8257
L296.833 97.9139
L310.504 112.632
L310.567 113.005
L316.337 144.899
L323.549 149.091
L337.471 130.376
L348.948 95.977
L362.055 97.8492
L362.808 98.3265
L367.261 100.557
L380.243 105.657
L389.838 104.059
L392.221 101.948
L417.056 59.3186
L442.392 75.1793
L446.531 72.4523
L449.416 67.7261
L457.067 65.8842
L460.454 68.938
L460.517 69.0037
L461.896 70.8154
L463.213 74.1514
L466.976 90.2141
L468.105 93.6684
L471.617 86.7724
L472.934 81.8933
L479.017 65.3843
L479.77 64.2758
L481.714 61.9767
L483.721 60.222
L484.787 59.4809
L493.755 58.1962
L499.023 61.3977
L507.49 77.5224
L509.81 83.9598
L511.817 90.113
L530.443 161.955
L537.467 162.078
L540.164 148.183
L544.742 119.775
L548.944 99.4522
L552.644 89.7884
L579.298 165.165
L579.36 165.696
L585.444 215.047
L594.098 244.083
L594.161 244.062
L594.412 243.948
L595.98 242.169
L596.481 241.215
L598.864 234.119
L604.132 203.068
L612.223 124.945
L627.525 70.9376
L639.691 72.2218
L643.642 76.1406
L644.332 77.3218
L654.241 111.01
L656.185 118.573
L658.255 123.49
L662.08 119.786
L665.906 115.74
L667.223 116.321
L672.993 123.682
L683.905 131.898
L684.846 133.078
L687.354 135.499
L696.636 233.517
L700.148 240.893
L700.524 238.814
L702.656 230.896
L712.753 224.951
L713.631 224.141
L737.149 79.7205
L745.051 76.7687
L752.263 92.9069
L759.726 112.976
L762.549 113.979
L768.883 104.061
L772.207 93.1898
L773.273 89.2985
L773.273 89.2985" style="fill:none;opacity:0.5;stroke:#ff0000;stroke-linecap:square;"/>
   </g>
   <g id="line2d_4">
    <path clip-path="url(#p9fd4257182)" d="
M127.504 66.4805
L127.692 66.4941
L135.343 70.1878
L143.308 147.175
L143.371 148.939
L146.757 259.437
L147.949 283.938
L154.534 320.169
L157.419 321.709
L158.861 321.919
L164.004 322.078
L172.658 322.047
L176.17 321.809
L178.867 321.35
L182.316 320.534
L183.696 320.486
L185.201 320.681
L186.957 321.123
L189.466 321.771
L190.846 321.953
L195.361 322.091
L197.305 322.01
L199.876 321.407
L201.131 320.536
L208.594 301.573
L217.562 268.515
L219.192 247.221
L225.903 195.914
L227.471 195.431
L227.847 195.578
L233.428 200.361
L234.996 203.592
L238.132 212.251
L240.578 219.517
L249.483 229.195
L249.546 229.075
L254.375 209.866
L265.225 136.618
L273.064 107.268
L276.764 108.298
L280.464 115.108
L288.178 83.5887
L289.934 79.6142
L290.185 79.4042
L291.063 79.3992
L295.077 82.4215
L296.833 84.4814
L310.567 137.329
L316.274 150.729
L316.337 150.607
L323.549 124.953
L337.471 89.4543
L348.948 78.7459
L362.055 101.885
L362.808 104.07
L367.261 112.962
L380.243 109.938
L389.838 94.8432
L392.221 90.2062
L417.056 59.0919
L442.33 76.0102
L446.531 60.9298
L449.416 59.3374
L457.067 63.1316
L460.078 71.4169
L460.517 72.7369
L461.896 76.1318
L463.213 78.6935
L466.976 80.7697
L468.168 79.6386
L471.68 72.6299
L472.997 69.2614
L479.08 58.5357
L479.833 58.021
L481.714 57.2606
L484.787 56.851
L493.755 59.169
L499.023 77.4913
L507.552 65.3227
L509.81 64.9366
L511.817 66.2131
L528.687 231.2
L529.063 233.359
L530.443 238.558
L537.53 189.346
L540.164 140.014
L542.61 102.451
L544.742 81.58
L548.944 63.9345
L552.644 59.6007
L579.36 65.4051
L585.444 76.46
L594.412 183.334
L596.481 208.504
L598.864 227.347
L604.07 230.282
L604.132 229.983
L612.285 141.808
L627.462 77.3709
L639.691 92.5118
L644.332 88.8258
L656.185 78.5508
L658.255 77.1047
L662.08 75.9428
L667.223 77.3011
L672.993 83.832
L683.905 127.309
L684.846 135.965
L687.354 162.368
L696.636 249.409
L700.148 254.836
L700.524 254.125
L702.656 248.256
L712.691 203.779
L713.569 199.061
L723.854 136.273
L737.149 87.0144
L745.051 82.0222
L752.263 93.7481
L759.726 104.617
L762.549 102.977
L768.883 88.1905
L773.273 72.8847
L773.273 72.8847" style="fill:none;opacity:0.5;stroke:#ff0000;stroke-linecap:square;"/>
   </g>
   <g id="line2d_5">
    <path clip-path="url(#p9fd4257182)" d="
M127.504 74.6765
L127.692 75.418
L135.343 129.152
L143.371 152.85
L144.625 158.068
L146.757 181.605
L147.949 201.033
L154.534 319.669
L157.419 322.041
L158.861 322.07
L164.004 321.513
L168.457 321.392
L169.711 321.165
L170.463 320.889
L171.53 320.119
L172.658 318.889
L175.292 316.699
L176.17 316.389
L177.926 316.211
L178.867 316.182
L180.121 315.982
L181.25 315.305
L182.63 313.59
L183.32 312.34
L184.261 310.197
L185.201 307.596
L186.957 302.184
L189.403 298.406
L189.466 298.471
L190.846 301.927
L195.361 317.596
L197.305 320.252
L199.876 320.074
L201.131 318.547
L208.531 280.217
L219.192 153.072
L221.325 131.126
L233.366 92.7762
L234.934 98.9139
L238.132 124.061
L249.546 271.946
L254.312 270.58
L254.375 270.326
L265.225 169.034
L273.001 136.136
L276.764 116.466
L280.464 87.1727
L287.927 58.805
L288.178 58.6298
L290.185 57.707
L291.063 57.4825
L295.077 57.0958
L296.833 57.1341
L310.504 201.206
L310.567 203.416
L316.337 299.339
L323.486 290.04
L323.549 289.688
L337.471 174.679
L348.948 129.279
L362.055 99.8919
L367.261 90.9752
L380.243 75.089
L389.838 68.3233
L392.221 66.9504
L417.056 59.4823
L442.33 84.8352
L442.392 84.5897
L446.531 67.8223
L449.416 66.7978
L457.067 66.3291
L460.078 63.3039
L460.517 62.7399
L461.896 61.3876
L463.213 61.3958
L466.976 66.1412
L468.168 68.367
L471.68 68.2642
L472.997 66.4332
L479.017 63.7526
L479.77 64.2609
L481.651 65.7222
L483.721 67.0889
L484.787 67.3642
L493.755 61.7379
L499.023 57.6336
L507.552 57.3282
L509.81 57.7119
L511.817 58.4166
L528.687 221.953
L529.063 228.307
L530.443 247.287
L537.467 240.817
L537.53 239.728
L540.164 176.953
L542.61 112.74
L544.742 79.0945
L548.944 59.7805
L552.644 57.4009
L579.36 180.234
L585.444 222.341
L594.161 255.792
L594.412 256.169
L595.98 257.611
L596.419 257.719
L598.864 255.605
L604.132 228.855
L612.285 115.262
L627.525 57.4202
L639.691 60.011
L643.642 59.4171
L644.332 59.1956
L654.241 62.5087
L656.185 76.3963
L658.255 133.219
L662.08 222.31
L665.969 216.908
L667.223 203.226
L672.93 137.816
L683.842 153.571
L683.905 154.33
L684.846 167.627
L687.291 219.674
L687.354 221.283
L696.573 320.029
L696.636 320.02
L700.148 310.304
L700.524 307.027
L702.656 276.952
L712.691 185.133
L712.753 185.254
L713.631 186.766
L723.854 154.459
L737.149 78.0852
L744.989 76.1071
L745.051 76.2179
L759.664 138.993
L759.726 138.968
L762.549 134.691
L768.883 100.62
L772.207 77.7972
L773.273 71.9509
L773.273 71.9509" style="fill:none;opacity:0.5;stroke:#0000ff;stroke-linecap:square;"/>
   </g>
   <g id="line2d_6">
    <path clip-path="url(#p9fd4257182)" d="
M127.504 66.2583
L127.692 66.6412
L135.343 95.5795
L143.371 172.53
L144.625 197.477
L146.757 251.458
L147.949 275.328
L154.534 320.225
L157.419 321.771
L158.861 321.909
L172.596 321.966
L180.121 322.037
L190.846 322.014
L197.305 322.003
L199.876 321.298
L201.131 320.179
L208.531 297.764
L208.594 298.002
L217.562 311.583
L217.625 311.534
L219.255 310.047
L221.387 307.366
L233.366 257.14
L240.515 204.87
L240.578 204.445
L249.546 155.197
L254.375 146.312
L265.225 148.395
L273.064 155.421
L276.764 133.951
L280.464 98.0648
L288.178 75.2519
L290.185 70.3575
L291.063 67.8864
L295.077 60.586
L296.833 59.4428
L310.504 160.736
L310.567 162.834
L316.337 276.233
L323.486 248.477
L323.549 247.751
L337.471 95.8596
L348.948 62.3986
L362.055 71.1969
L362.808 72.4309
L367.261 78.0393
L380.243 82.1598
L389.838 75.9997
L392.221 72.9464
L417.056 60.4094
L442.392 79.857
L446.531 79.6093
L449.416 77.7245
L457.067 58.2226
L459.701 57.1844
L460.517 57.1777
L463.213 57.7439
L466.976 59.1731
L468.168 59.7855
L471.68 63.1733
L472.997 66.5463
L479.017 87.7248
L479.08 87.6781
L479.833 86.6047
L481.714 80.4354
L484.787 66.7866
L493.755 58.0381
L499.023 59.4391
L507.552 68.8941
L509.81 74.6724
L511.817 82.4024
L528.687 167.777
L529.063 167.668
L530.443 166.293
L537.53 138.368
L540.164 123.721
L542.61 112.135
L544.679 104.086
L548.944 92.5092
L552.644 87.3608
L579.36 173.671
L585.444 212.463
L594.161 252.677
L594.412 253.233
L595.98 255.786
L596.481 256.254
L598.864 255.949
L604.07 235.996
L612.285 120.832
L627.462 63.4249
L627.525 63.4723
L639.629 84.2548
L639.691 84.1942
L643.642 77.2952
L644.332 75.8495
L654.241 62.1222
L656.185 61.2088
L658.255 60.6014
L662.08 59.8845
L672.93 64.8725
L683.905 174.384
L684.846 190.809
L687.354 229.555
L696.573 282.185
L696.636 282.063
L700.211 251.668
L702.656 214.063
L712.691 170.976
L713.631 177.176
L723.791 179.144
L723.854 178.848
L737.149 89.786
L745.051 78.7565
L752.263 86.5706
L759.726 94.7792
L762.549 94.7884
L768.883 93.9566
L773.273 93.0646
L773.273 93.0646" style="fill:none;opacity:0.5;stroke:#ff0000;stroke-linecap:square;"/>
   </g>
   <g id="line2d_7">
    <path clip-path="url(#p9fd4257182)" d="
M127.504 86.5543
L127.692 88.2776
L135.343 162.739
L143.371 187.264
L144.625 194.226
L146.757 220.843
L147.949 237.531
L154.534 319.047
L157.419 321.935
L158.861 322.021
L162.436 321.429
L164.004 320.577
L166.512 318.226
L167.704 316.98
L168.457 316.372
L169.711 316.014
L170.463 316.308
L171.53 317.35
L172.658 318.759
L175.292 321.001
L176.17 321.395
L177.926 321.844
L180.059 322.036
L184.762 322.054
L190.846 322.112
L197.305 322.183
L199.876 321.74
L201.131 321.003
L208.594 275.074
L217.625 237.918
L227.784 180.513
L238.069 160.775
L240.578 169.007
L249.546 214.797
L254.375 231.963
L265.162 223.726
L265.225 223.439
L273.064 157.885
L276.764 138.338
L280.464 119.782
L288.115 83.0439
L288.178 82.883
L289.934 79.859
L290.185 79.6679
L291.063 79.4836
L295.077 81.0272
L296.833 82.2916
L310.504 166.251
L310.567 167.47
L316.274 240.782
L316.337 240.695
L323.549 198.009
L337.471 91.8311
L348.948 69.3124
L362.055 76.5342
L362.808 77.2252
L367.261 78.5523
L380.243 63.1463
L389.838 58.1154
L392.221 57.678
L417.056 58.1797
L442.392 73.1709
L446.531 68.0369
L449.416 63.1866
L457.067 57.592
L460.517 57.1638
L481.651 56.9734
L499.023 57.4255
L507.552 58.0871
L509.747 58.8311
L511.817 60.1025
L529.063 162.32
L530.443 167.721
L537.467 160.906
L537.53 160.631
L540.101 148.247
L542.61 135.547
L544.742 125.401
L548.944 109.644
L552.644 101.877
L579.36 206.314
L585.444 217.119
L594.412 233.418
L595.98 235.562
L596.481 235.992
L598.864 235.701
L604.132 212.935
L612.285 93.7425
L627.525 56.9725
L639.691 57.5834
L643.642 84.1653
L644.332 91.7412
L654.241 71.7185
L656.185 68.6203
L658.255 69.0444
L665.906 82.0282
L667.16 86.2273
L672.993 112.865
L683.905 129.753
L684.846 130.485
L686.915 134.572
L687.354 136.032
L696.636 222.935
L700.524 252.67
L702.656 261.604
L712.753 227.772
L713.631 219.035
L723.854 102.601
L737.149 72.8403
L745.051 81.7557
L752.326 140.296
L759.664 170.626
L759.726 170.171
L762.486 138.522
L768.82 63.8448
L772.207 57.1843
L773.273 56.7803
L773.273 56.7803" style="fill:none;opacity:0.5;stroke:#0000ff;stroke-linecap:square;"/>
   </g>
   <g id="line2d_8">
    <path clip-path="url(#p9fd4257182)" d="
M127.504 78.3968
L127.692 78.8527
L135.343 111.055
L143.371 174.416
L144.625 191.292
L147.949 248.938
L154.534 311.762
L157.419 319.957
L158.234 320.99
L158.861 321.491
L162.436 322.321
L166.073 322.289
L168.457 322.03
L171.53 321.553
L178.867 321.433
L180.121 321.224
L181.25 320.89
L183.32 319.896
L185.201 318.957
L185.891 318.808
L186.957 318.975
L189.466 320.826
L190.846 321.484
L195.361 322.095
L197.305 322.036
L199.876 321.256
L201.131 319.921
L208.594 275.438
L217.625 267.914
L219.255 265.314
L221.325 258.269
L227.408 148.047
L227.784 139.151
L233.366 90.8205
L233.428 90.8321
L234.996 93.0759
L238.132 109.377
L240.578 135
L249.483 245.977
L254.312 243.777
L254.375 243.491
L265.225 152.43
L273.001 124.696
L276.701 120.953
L280.464 115.072
L288.178 87.4125
L290.185 81.628
L291.063 79.6712
L295.077 75.3637
L296.833 75.6817
L310.567 216.318
L316.274 222.034
L316.337 221.944
L323.549 197.737
L337.471 144.564
L348.948 118.078
L362.055 90.0619
L362.808 88.7755
L367.261 82.3241
L380.243 71.1441
L389.838 65.455
L392.221 64.1876
L416.993 57.1177
L442.392 57.3031
L446.531 57.5556
L449.416 57.9889
L457.067 65.3954
L459.701 75.5572
L461.896 87.2527
L463.151 88.5334
L463.213 88.4642
L466.976 75.8309
L468.168 72.9741
L471.617 77.5167
L471.68 77.823
L472.997 85.7071
L479.08 68.2807
L479.833 65.2625
L481.714 62.3475
L483.721 62.0175
L484.787 62.3067
L493.755 71.6162
L499.023 75.6292
L507.552 73.554
L509.81 74.4087
L511.817 76.1422
L528.687 144.273
L530.443 153.356
L537.467 166.151
L537.53 166.032
L540.164 158.674
L542.61 149.403
L544.742 140.9
L548.944 127.162
L552.644 122.182
L579.36 192.167
L585.444 210.782
L594.098 219.781
L594.161 219.713
L594.412 219.418
L595.98 216.699
L596.481 215.492
L598.864 207.308
L604.07 173.39
L612.285 91.8817
L627.525 56.7452
L639.691 57.6112
L644.332 58.268
L654.241 65.8103
L656.185 70.1719
L658.255 77.475
L662.08 99.1179
L665.969 124.03
L667.223 129.831
L672.93 136.4
L672.993 136.303
L683.842 78.6629
L683.905 78.6761
L684.846 79.0545
L686.915 81.2987
L687.354 82.0846
L696.636 155.349
L700.524 210.988
L702.656 233.876
L712.691 224.12
L713.631 215.273
L723.854 120.332
L737.149 91.4618
L744.989 100.307
L745.051 100.622
L752.326 167.683
L759.664 179.774
L759.726 178.943
L762.549 118.182
L768.883 56.7549
L773.273 56.499
L773.273 56.499" style="fill:none;opacity:0.5;stroke:#0000ff;stroke-linecap:square;"/>
   </g>
   <g id="patch_10">
    <path d="
M108 43.2
L777.6 43.2" style="fill:none;stroke:#000000;stroke-linecap:square;stroke-linejoin:miter;"/>
   </g>
   <g id="patch_11">
    <path d="
M777.6 322.473
L777.6 43.2" style="fill:none;stroke:#000000;stroke-linecap:square;stroke-linejoin:miter;"/>
   </g>
   <g id="patch_12">
    <path d="
M108 322.473
L777.6 322.473" style="fill:none;stroke:#000000;stroke-linecap:square;stroke-linejoin:miter;"/>
   </g>
   <g id="patch_13">
    <path d="
M108 322.473
L108 43.2" style="fill:none;stroke:#000000;stroke-linecap:square;stroke-linejoin:miter;"/>
   </g>
   <g id="matplotlib.axis_1">
    <g id="ytick_1">
     <g id="line2d_9">
      <defs>
       <path d="
M0 0
L4 0" id="m728421d6d4" style="stroke:#000000;stroke-width:0.5;"/>
      </defs>
      <g>
       <use style="stroke:#000000;stroke-width:0.5;" x="108.0" xlink:href="#m728421d6d4" y="322.472727273"/>
      </g>
     </g>
     <g id="line2d_10">
      <defs>
       <path d="
M0 0
L-4 0" id="mcb0005524f" style="stroke:#000000;stroke-width:0.5;"/>
      </defs>
      <g>
       <use style="stroke:#000000;stroke-width:0.5;" x="777.6" xlink:href="#mcb0005524f" y="322.472727273"/>
      </g>
     </g>
     <g id="text_1">
      <!-- 0 -->
      <defs>
       <path d="
M31.7812 66.4062
Q24.1719 66.4062 20.3281 58.9062
Q16.5 51.4219 16.5 36.375
Q16.5 21.3906 20.3281 13.8906
Q24.1719 6.39062 31.7812 6.39062
Q39.4531 6.39062 43.2812 13.8906
Q47.125 21.3906 47.125 36.375
Q47.125 51.4219 43.2812 58.9062
Q39.4531 66.4062 31.7812 66.4062
M31.7812 74.2188
Q44.0469 74.2188 50.5156 64.5156
Q56.9844 54.8281 56.9844 36.375
Q56.9844 17.9688 50.5156 8.26562
Q44.0469 -1.42188 31.7812 -1.42188
Q19.5312 -1.42188 13.0625 8.26562
Q6.59375 17.9688 6.59375 36.375
Q6.59375 54.8281 13.0625 64.5156
Q19.5312 74.2188 31.7812 74.2188" id="DejaVuSans-30"/>
      </defs>
      <g transform="translate(97.953125 325.783977273)scale(0.12 -0.12)">
       <use xlink:href="#DejaVuSans-30"/>
      </g>
     </g>
    </g>
    <g id="ytick_2">
     <g id="line2d_11">
      <g>
       <use style="stroke:#000000;stroke-width:0.5;" x="108.0" xlink:href="#m728421d6d4" y="269.277922078"/>
      </g>
     </g>
     <g id="line2d_12">
      <g>
       <use style="stroke:#000000;stroke-width:0.5;" x="777.6" xlink:href="#mcb0005524f" y="269.277922078"/>
      </g>
     </g>
     <g id="text_2">
      <!-- 20 -->
      <defs>
       <path d="
M19.1875 8.29688
L53.6094 8.29688
L53.6094 0
L7.32812 0
L7.32812 8.29688
Q12.9375 14.1094 22.625 23.8906
Q32.3281 33.6875 34.8125 36.5312
Q39.5469 41.8438 41.4219 45.5312
Q43.3125 49.2188 43.3125 52.7812
Q43.3125 58.5938 39.2344 62.25
Q35.1562 65.9219 28.6094 65.9219
Q23.9688 65.9219 18.8125 64.3125
Q13.6719 62.7031 7.8125 59.4219
L7.8125 69.3906
Q13.7656 71.7812 18.9375 73
Q24.125 74.2188 28.4219 74.2188
Q39.75 74.2188 46.4844 68.5469
Q53.2188 62.8906 53.2188 53.4219
Q53.2188 48.9219 51.5312 44.8906
Q49.8594 40.875 45.4062 35.4062
Q44.1875 33.9844 37.6406 27.2188
Q31.1094 20.4531 19.1875 8.29688" id="DejaVuSans-32"/>
      </defs>
      <g transform="translate(90.40625 272.589172078)scale(0.12 -0.12)">
       <use xlink:href="#DejaVuSans-32"/>
       <use x="63.623046875" xlink:href="#DejaVuSans-30"/>
      </g>
     </g>
    </g>
    <g id="ytick_3">
     <g id="line2d_13">
      <g>
       <use style="stroke:#000000;stroke-width:0.5;" x="108.0" xlink:href="#m728421d6d4" y="216.083116883"/>
      </g>
     </g>
     <g id="line2d_14">
      <g>
       <use style="stroke:#000000;stroke-width:0.5;" x="777.6" xlink:href="#mcb0005524f" y="216.083116883"/>
      </g>
     </g>
     <g id="text_3">
      <!-- 40 -->
      <defs>
       <path d="
M37.7969 64.3125
L12.8906 25.3906
L37.7969 25.3906
z

M35.2031 72.9062
L47.6094 72.9062
L47.6094 25.3906
L58.0156 25.3906
L58.0156 17.1875
L47.6094 17.1875
L47.6094 0
L37.7969 0
L37.7969 17.1875
L4.89062 17.1875
L4.89062 26.7031
z
" id="DejaVuSans-34"/>
      </defs>
      <g transform="translate(90.11375 219.394366883)scale(0.12 -0.12)">
       <use xlink:href="#DejaVuSans-34"/>
       <use x="63.623046875" xlink:href="#DejaVuSans-30"/>
      </g>
     </g>
    </g>
    <g id="ytick_4">
     <g id="line2d_15">
      <g>
       <use style="stroke:#000000;stroke-width:0.5;" x="108.0" xlink:href="#m728421d6d4" y="162.888311688"/>
      </g>
     </g>
     <g id="line2d_16">
      <g>
       <use style="stroke:#000000;stroke-width:0.5;" x="777.6" xlink:href="#mcb0005524f" y="162.888311688"/>
      </g>
     </g>
     <g id="text_4">
      <!-- 60 -->
      <defs>
       <path d="
M33.0156 40.375
Q26.375 40.375 22.4844 35.8281
Q18.6094 31.2969 18.6094 23.3906
Q18.6094 15.5312 22.4844 10.9531
Q26.375 6.39062 33.0156 6.39062
Q39.6562 6.39062 43.5312 10.9531
Q47.4062 15.5312 47.4062 23.3906
Q47.4062 31.2969 43.5312 35.8281
Q39.6562 40.375 33.0156 40.375
M52.5938 71.2969
L52.5938 62.3125
Q48.875 64.0625 45.0938 64.9844
Q41.3125 65.9219 37.5938 65.9219
Q27.8281 65.9219 22.6719 59.3281
Q17.5312 52.7344 16.7969 39.4062
Q19.6719 43.6562 24.0156 45.9219
Q28.375 48.1875 33.5938 48.1875
Q44.5781 48.1875 50.9531 41.5156
Q57.3281 34.8594 57.3281 23.3906
Q57.3281 12.1562 50.6875 5.35938
Q44.0469 -1.42188 33.0156 -1.42188
Q20.3594 -1.42188 13.6719 8.26562
Q6.98438 17.9688 6.98438 36.375
Q6.98438 53.6562 15.1875 63.9375
Q23.3906 74.2188 37.2031 74.2188
Q40.9219 74.2188 44.7031 73.4844
Q48.4844 72.75 52.5938 71.2969" id="DejaVuSans-36"/>
      </defs>
      <g transform="translate(90.365 166.199561688)scale(0.12 -0.12)">
       <use xlink:href="#DejaVuSans-36"/>
       <use x="63.623046875" xlink:href="#DejaVuSans-30"/>
      </g>
     </g>
    </g>
    <g id="ytick_5">
     <g id="line2d_17">
      <g>
       <use style="stroke:#000000;stroke-width:0.5;" x="108.0" xlink:href="#m728421d6d4" y="109.693506494"/>
      </g>
     </g>
     <g id="line2d_18">
      <g>
       <use style="stroke:#000000;stroke-width:0.5;" x="777.6" xlink:href="#mcb0005524f" y="109.693506494"/>
      </g>
     </g>
     <g id="text_5">
      <!-- 80 -->
      <defs>
       <path d="
M31.7812 34.625
Q24.75 34.625 20.7188 30.8594
Q16.7031 27.0938 16.7031 20.5156
Q16.7031 13.9219 20.7188 10.1562
Q24.75 6.39062 31.7812 6.39062
Q38.8125 6.39062 42.8594 10.1719
Q46.9219 13.9688 46.9219 20.5156
Q46.9219 27.0938 42.8906 30.8594
Q38.875 34.625 31.7812 34.625
M21.9219 38.8125
Q15.5781 40.375 12.0312 44.7188
Q8.5 49.0781 8.5 55.3281
Q8.5 64.0625 14.7188 69.1406
Q20.9531 74.2188 31.7812 74.2188
Q42.6719 74.2188 48.875 69.1406
Q55.0781 64.0625 55.0781 55.3281
Q55.0781 49.0781 51.5312 44.7188
Q48 40.375 41.7031 38.8125
Q48.8281 37.1562 52.7969 32.3125
Q56.7812 27.4844 56.7812 20.5156
Q56.7812 9.90625 50.3125 4.23438
Q43.8438 -1.42188 31.7812 -1.42188
Q19.7344 -1.42188 13.25 4.23438
Q6.78125 9.90625 6.78125 20.5156
Q6.78125 27.4844 10.7812 32.3125
Q14.7969 37.1562 21.9219 38.8125
M18.3125 54.3906
Q18.3125 48.7344 21.8438 45.5625
Q25.3906 42.3906 31.7812 42.3906
Q38.1406 42.3906 41.7188 45.5625
Q45.3125 48.7344 45.3125 54.3906
Q45.3125 60.0625 41.7188 63.2344
Q38.1406 66.4062 31.7812 66.4062
Q25.3906 66.4062 21.8438 63.2344
Q18.3125 60.0625 18.3125 54.3906" id="DejaVuSans-38"/>
      </defs>
      <g transform="translate(90.340625 113.004756494)scale(0.12 -0.12)">
       <use xlink:href="#DejaVuSans-38"/>
       <use x="63.623046875" xlink:href="#DejaVuSans-30"/>
      </g>
     </g>
    </g>
    <g id="ytick_6">
     <g id="line2d_19">
      <g>
       <use style="stroke:#000000;stroke-width:0.5;" x="108.0" xlink:href="#m728421d6d4" y="56.4987012987"/>
      </g>
     </g>
     <g id="line2d_20">
      <g>
       <use style="stroke:#000000;stroke-width:0.5;" x="777.6" xlink:href="#mcb0005524f" y="56.4987012987"/>
      </g>
     </g>
     <g id="text_6">
      <!-- 100 -->
      <defs>
       <path d="
M12.4062 8.29688
L28.5156 8.29688
L28.5156 63.9219
L10.9844 60.4062
L10.9844 69.3906
L28.4219 72.9062
L38.2812 72.9062
L38.2812 8.29688
L54.3906 8.29688
L54.3906 0
L12.4062 0
z
" id="DejaVuSans-31"/>
      </defs>
      <g transform="translate(83.21 59.8099512987)scale(0.12 -0.12)">
       <use xlink:href="#DejaVuSans-31"/>
       <use x="63.623046875" xlink:href="#DejaVuSans-30"/>
       <use x="127.24609375" xlink:href="#DejaVuSans-30"/>
      </g>
     </g>
    </g>
    <g id="text_7">
     <!-- Methylation -->
     <defs>
      <path d="
M9.8125 72.9062
L24.5156 72.9062
L43.1094 23.2969
L61.8125 72.9062
L76.5156 72.9062
L76.5156 0
L66.8906 0
L66.8906 64.0156
L48.0938 14.0156
L38.1875 14.0156
L19.3906 64.0156
L19.3906 0
L9.8125 0
z
" id="DejaVuSans-4d"/>
      <path d="
M30.6094 48.3906
Q23.3906 48.3906 19.1875 42.75
Q14.9844 37.1094 14.9844 27.2969
Q14.9844 17.4844 19.1562 11.8438
Q23.3438 6.20312 30.6094 6.20312
Q37.7969 6.20312 41.9844 11.8594
Q46.1875 17.5312 46.1875 27.2969
Q46.1875 37.0156 41.9844 42.7031
Q37.7969 48.3906 30.6094 48.3906
M30.6094 56
Q42.3281 56 49.0156 48.375
Q55.7188 40.7656 55.7188 27.2969
Q55.7188 13.875 49.0156 6.21875
Q42.3281 -1.42188 30.6094 -1.42188
Q18.8438 -1.42188 12.1719 6.21875
Q5.51562 13.875 5.51562 27.2969
Q5.51562 40.7656 12.1719 48.375
Q18.8438 56 30.6094 56" id="DejaVuSans-6f"/>
      <path d="
M54.8906 33.0156
L54.8906 0
L45.9062 0
L45.9062 32.7188
Q45.9062 40.4844 42.875 44.3281
Q39.8438 48.1875 33.7969 48.1875
Q26.5156 48.1875 22.3125 43.5469
Q18.1094 38.9219 18.1094 30.9062
L18.1094 0
L9.07812 0
L9.07812 54.6875
L18.1094 54.6875
L18.1094 46.1875
Q21.3438 51.125 25.7031 53.5625
Q30.0781 56 35.7969 56
Q45.2188 56 50.0469 50.1719
Q54.8906 44.3438 54.8906 33.0156" id="DejaVuSans-6e"/>
      <path d="
M9.42188 75.9844
L18.4062 75.9844
L18.4062 0
L9.42188 0
z
" id="DejaVuSans-6c"/>
      <path d="
M32.1719 -5.07812
Q28.375 -14.8438 24.75 -17.8125
Q21.1406 -20.7969 15.0938 -20.7969
L7.90625 -20.7969
L7.90625 -13.2812
L13.1875 -13.2812
Q16.8906 -13.2812 18.9375 -11.5156
Q21 -9.76562 23.4844 -3.21875
L25.0938 0.875
L2.98438 54.6875
L12.5 54.6875
L29.5938 11.9219
L46.6875 54.6875
L56.2031 54.6875
z
" id="DejaVuSans-79"/>
      <path d="
M54.8906 33.0156
L54.8906 0
L45.9062 0
L45.9062 32.7188
Q45.9062 40.4844 42.875 44.3281
Q39.8438 48.1875 33.7969 48.1875
Q26.5156 48.1875 22.3125 43.5469
Q18.1094 38.9219 18.1094 30.9062
L18.1094 0
L9.07812 0
L9.07812 75.9844
L18.1094 75.9844
L18.1094 46.1875
Q21.3438 51.125 25.7031 53.5625
Q30.0781 56 35.7969 56
Q45.2188 56 50.0469 50.1719
Q54.8906 44.3438 54.8906 33.0156" id="DejaVuSans-68"/>
      <path d="
M9.42188 54.6875
L18.4062 54.6875
L18.4062 0
L9.42188 0
z

M9.42188 75.9844
L18.4062 75.9844
L18.4062 64.5938
L9.42188 64.5938
z
" id="DejaVuSans-69"/>
      <path d="
M18.3125 70.2188
L18.3125 54.6875
L36.8125 54.6875
L36.8125 47.7031
L18.3125 47.7031
L18.3125 18.0156
Q18.3125 11.3281 20.1406 9.42188
Q21.9688 7.51562 27.5938 7.51562
L36.8125 7.51562
L36.8125 0
L27.5938 0
Q17.1875 0 13.2344 3.875
Q9.28125 7.76562 9.28125 18.0156
L9.28125 47.7031
L2.6875 47.7031
L2.6875 54.6875
L9.28125 54.6875
L9.28125 70.2188
z
" id="DejaVuSans-74"/>
      <path d="
M56.2031 29.5938
L56.2031 25.2031
L14.8906 25.2031
Q15.4844 15.9219 20.4844 11.0625
Q25.4844 6.20312 34.4219 6.20312
Q39.5938 6.20312 44.4531 7.46875
Q49.3125 8.73438 54.1094 11.2812
L54.1094 2.78125
Q49.2656 0.734375 44.1875 -0.34375
Q39.1094 -1.42188 33.8906 -1.42188
Q20.7969 -1.42188 13.1562 6.1875
Q5.51562 13.8125 5.51562 26.8125
Q5.51562 40.2344 12.7656 48.1094
Q20.0156 56 32.3281 56
Q43.3594 56 49.7812 48.8906
Q56.2031 41.7969 56.2031 29.5938
M47.2188 32.2344
Q47.125 39.5938 43.0938 43.9844
Q39.0625 48.3906 32.4219 48.3906
Q24.9062 48.3906 20.3906 44.1406
Q15.875 39.8906 15.1875 32.1719
z
" id="DejaVuSans-65"/>
      <path d="
M34.2812 27.4844
Q23.3906 27.4844 19.1875 25
Q14.9844 22.5156 14.9844 16.5
Q14.9844 11.7188 18.1406 8.90625
Q21.2969 6.10938 26.7031 6.10938
Q34.1875 6.10938 38.7031 11.4062
Q43.2188 16.7031 43.2188 25.4844
L43.2188 27.4844
z

M52.2031 31.2031
L52.2031 0
L43.2188 0
L43.2188 8.29688
Q40.1406 3.32812 35.5469 0.953125
Q30.9531 -1.42188 24.3125 -1.42188
Q15.9219 -1.42188 10.9531 3.29688
Q6 8.01562 6 15.9219
Q6 25.1406 12.1719 29.8281
Q18.3594 34.5156 30.6094 34.5156
L43.2188 34.5156
L43.2188 35.4062
Q43.2188 41.6094 39.1406 45
Q35.0625 48.3906 27.6875 48.3906
Q23 48.3906 18.5469 47.2656
Q14.1094 46.1406 10.0156 43.8906
L10.0156 52.2031
Q14.9375 54.1094 19.5781 55.0469
Q24.2188 56 28.6094 56
Q40.4844 56 46.3438 49.8438
Q52.2031 43.7031 52.2031 31.2031" id="DejaVuSans-61"/>
     </defs>
     <g transform="translate(75.714375 217.149801136)rotate(-90.0)scale(0.12 -0.12)">
      <use xlink:href="#DejaVuSans-4d"/>
      <use x="86.279296875" xlink:href="#DejaVuSans-65"/>
      <use x="147.802734375" xlink:href="#DejaVuSans-74"/>
      <use x="187.01171875" xlink:href="#DejaVuSans-68"/>
      <use x="250.390625" xlink:href="#DejaVuSans-79"/>
      <use x="309.5703125" xlink:href="#DejaVuSans-6c"/>
      <use x="337.353515625" xlink:href="#DejaVuSans-61"/>
      <use x="398.6328125" xlink:href="#DejaVuSans-74"/>
      <use x="437.841796875" xlink:href="#DejaVuSans-69"/>
      <use x="465.625" xlink:href="#DejaVuSans-6f"/>
      <use x="526.806640625" xlink:href="#DejaVuSans-6e"/>
     </g>
    </g>
   </g>
  </g>
  <g id="axes_2">
   <g id="patch_14">
    <path d="
M108 388.8
L777.6 388.8
L777.6 353.891
L108 353.891
z
" style="fill:#ffffff;"/>
   </g>
   <g id="line2d_21">
    <path clip-path="url(#pc82b1f09f0)" d="
M108 371.345
L777.6 371.345" style="fill:none;stroke:#000000;stroke-linecap:square;"/>
   </g>
   <g id="line2d_22">
    <path clip-path="url(#pc82b1f09f0)" d="
M170.714 371.345
L714.886 371.345" style="fill:none;stroke:#008000;stroke-linecap:square;stroke-width:3;"/>
   </g>
   <g id="patch_15">
    <path clip-path="url(#pc82b1f09f0)" d="
M170.714 388.8
L184.825 388.8
L184.825 353.891
L170.714 353.891
z
" style="fill:#008000;"/>
   </g>
   <g id="patch_16">
    <path clip-path="url(#pc82b1f09f0)" d="
M212.67 388.8
L243.337 388.8
L243.337 353.891
L212.67 353.891
z
" style="fill:#008000;"/>
   </g>
   <g id="patch_17">
    <path clip-path="url(#pc82b1f09f0)" d="
M286.798 388.8
L299.278 388.8
L299.278 353.891
L286.798 353.891
z
" style="fill:#008000;"/>
   </g>
   <g id="patch_18">
    <path clip-path="url(#pc82b1f09f0)" d="
M381.497 388.8
L397.301 388.8
L397.301 353.891
L381.497 353.891
z
" style="fill:#008000;"/>
   </g>
   <g id="patch_19">
    <path clip-path="url(#pc82b1f09f0)" d="
M546.373 388.8
L553.397 388.8
L553.397 353.891
L546.373 353.891
z
" style="fill:#008000;"/>
   </g>
   <g id="patch_20">
    <path clip-path="url(#pc82b1f09f0)" d="
M592.405 388.8
L602.251 388.8
L602.251 353.891
L592.405 353.891
z
" style="fill:#008000;"/>
   </g>
   <g id="patch_21">
    <path clip-path="url(#pc82b1f09f0)" d="
M694.566 388.8
L714.886 388.8
L714.886 353.891
L694.566 353.891
z
" style="fill:#008000;"/>
   </g>
   <g id="patch_22">
    <path d="
M108 353.891
L777.6 353.891" style="fill:none;"/>
   </g>
   <g id="patch_23">
    <path d="
M777.6 388.8
L777.6 353.891" style="fill:none;"/>
   </g>
   <g id="patch_24">
    <path d="
M108 388.8
L777.6 388.8" style="fill:none;"/>
   </g>
   <g id="patch_25">
    <path d="
M108 388.8
L108 353.891" style="fill:none;"/>
   </g>
   <g id="matplotlib.axis_2">
    <g id="xtick_1">
     <g id="line2d_23">
      <defs>
       <path d="
M0 0
L0 -4" id="m93b0483c22" style="stroke:#000000;stroke-width:0.5;"/>
      </defs>
      <g>
       <use style="stroke:#000000;stroke-width:0.5;" x="192.225231806" xlink:href="#m93b0483c22" y="388.8"/>
      </g>
     </g>
     <g id="line2d_24">
      <defs>
       <path d="
M0 0
L0 4" id="m741efc42ff" style="stroke:#000000;stroke-width:0.5;"/>
      </defs>
      <g>
       <use style="stroke:#000000;stroke-width:0.5;" x="192.225231806" xlink:href="#m741efc42ff" y="353.890909091"/>
      </g>
     </g>
     <g id="text_8">
      <!-- 1000 -->
      <g transform="translate(178.012731806 401.918125)scale(0.12 -0.12)">
       <use xlink:href="#DejaVuSans-31"/>
       <use x="63.623046875" xlink:href="#DejaVuSans-30"/>
       <use x="127.24609375" xlink:href="#DejaVuSans-30"/>
       <use x="190.869140625" xlink:href="#DejaVuSans-30"/>
      </g>
     </g>
    </g>
    <g id="xtick_2">
     <g id="line2d_25">
      <g>
       <use style="stroke:#000000;stroke-width:0.5;" x="317.653722955" xlink:href="#m93b0483c22" y="388.8"/>
      </g>
     </g>
     <g id="line2d_26">
      <g>
       <use style="stroke:#000000;stroke-width:0.5;" x="317.653722955" xlink:href="#m741efc42ff" y="353.890909091"/>
      </g>
     </g>
     <g id="text_9">
      <!-- 2000 -->
      <g transform="translate(303.221847955 401.918125)scale(0.12 -0.12)">
       <use xlink:href="#DejaVuSans-32"/>
       <use x="63.623046875" xlink:href="#DejaVuSans-30"/>
       <use x="127.24609375" xlink:href="#DejaVuSans-30"/>
       <use x="190.869140625" xlink:href="#DejaVuSans-30"/>
      </g>
     </g>
    </g>
    <g id="xtick_3">
     <g id="line2d_27">
      <g>
       <use style="stroke:#000000;stroke-width:0.5;" x="443.082214104" xlink:href="#m93b0483c22" y="388.8"/>
      </g>
     </g>
     <g id="line2d_28">
      <g>
       <use style="stroke:#000000;stroke-width:0.5;" x="443.082214104" xlink:href="#m741efc42ff" y="353.890909091"/>
      </g>
     </g>
     <g id="text_10">
      <!-- 3000 -->
      <defs>
       <path d="
M40.5781 39.3125
Q47.6562 37.7969 51.625 33
Q55.6094 28.2188 55.6094 21.1875
Q55.6094 10.4062 48.1875 4.48438
Q40.7656 -1.42188 27.0938 -1.42188
Q22.5156 -1.42188 17.6562 -0.515625
Q12.7969 0.390625 7.625 2.20312
L7.625 11.7188
Q11.7188 9.32812 16.5938 8.10938
Q21.4844 6.89062 26.8125 6.89062
Q36.0781 6.89062 40.9375 10.5469
Q45.7969 14.2031 45.7969 21.1875
Q45.7969 27.6406 41.2812 31.2656
Q36.7656 34.9062 28.7188 34.9062
L20.2188 34.9062
L20.2188 43.0156
L29.1094 43.0156
Q36.375 43.0156 40.2344 45.9219
Q44.0938 48.8281 44.0938 54.2969
Q44.0938 59.9062 40.1094 62.9062
Q36.1406 65.9219 28.7188 65.9219
Q24.6562 65.9219 20.0156 65.0312
Q15.375 64.1562 9.8125 62.3125
L9.8125 71.0938
Q15.4375 72.6562 20.3438 73.4375
Q25.25 74.2188 29.5938 74.2188
Q40.8281 74.2188 47.3594 69.1094
Q53.9062 64.0156 53.9062 55.3281
Q53.9062 49.2656 50.4375 45.0938
Q46.9688 40.9219 40.5781 39.3125" id="DejaVuSans-33"/>
      </defs>
      <g transform="translate(428.668151604 401.918125)scale(0.12 -0.12)">
       <use xlink:href="#DejaVuSans-33"/>
       <use x="63.623046875" xlink:href="#DejaVuSans-30"/>
       <use x="127.24609375" xlink:href="#DejaVuSans-30"/>
       <use x="190.869140625" xlink:href="#DejaVuSans-30"/>
      </g>
     </g>
    </g>
    <g id="xtick_4">
     <g id="line2d_29">
      <g>
       <use style="stroke:#000000;stroke-width:0.5;" x="568.510705253" xlink:href="#m93b0483c22" y="388.8"/>
      </g>
     </g>
     <g id="line2d_30">
      <g>
       <use style="stroke:#000000;stroke-width:0.5;" x="568.510705253" xlink:href="#m741efc42ff" y="353.890909091"/>
      </g>
     </g>
     <g id="text_11">
      <!-- 4000 -->
      <g transform="translate(553.932580253 401.918125)scale(0.12 -0.12)">
       <use xlink:href="#DejaVuSans-34"/>
       <use x="63.623046875" xlink:href="#DejaVuSans-30"/>
       <use x="127.24609375" xlink:href="#DejaVuSans-30"/>
       <use x="190.869140625" xlink:href="#DejaVuSans-30"/>
      </g>
     </g>
    </g>
    <g id="xtick_5">
     <g id="line2d_31">
      <g>
       <use style="stroke:#000000;stroke-width:0.5;" x="693.939196402" xlink:href="#m93b0483c22" y="388.8"/>
      </g>
     </g>
     <g id="line2d_32">
      <g>
       <use style="stroke:#000000;stroke-width:0.5;" x="693.939196402" xlink:href="#m741efc42ff" y="353.890909091"/>
      </g>
     </g>
     <g id="text_12">
      <!-- 5000 -->
      <defs>
       <path d="
M10.7969 72.9062
L49.5156 72.9062
L49.5156 64.5938
L19.8281 64.5938
L19.8281 46.7344
Q21.9688 47.4688 24.1094 47.8281
Q26.2656 48.1875 28.4219 48.1875
Q40.625 48.1875 47.75 41.5
Q54.8906 34.8125 54.8906 23.3906
Q54.8906 11.625 47.5625 5.09375
Q40.2344 -1.42188 26.9062 -1.42188
Q22.3125 -1.42188 17.5469 -0.640625
Q12.7969 0.140625 7.71875 1.70312
L7.71875 11.625
Q12.1094 9.23438 16.7969 8.0625
Q21.4844 6.89062 26.7031 6.89062
Q35.1562 6.89062 40.0781 11.3281
Q45.0156 15.7656 45.0156 23.3906
Q45.0156 31 40.0781 35.4375
Q35.1562 39.8906 26.7031 39.8906
Q22.75 39.8906 18.8125 39.0156
Q14.8906 38.1406 10.7969 36.2812
z
" id="DejaVuSans-35"/>
      </defs>
      <g transform="translate(679.530758902 401.918125)scale(0.12 -0.12)">
       <use xlink:href="#DejaVuSans-35"/>
       <use x="63.623046875" xlink:href="#DejaVuSans-30"/>
       <use x="127.24609375" xlink:href="#DejaVuSans-30"/>
       <use x="190.869140625" xlink:href="#DejaVuSans-30"/>
      </g>
     </g>
    </g>
    <g id="text_13">
     <!-- Length (bp) -->
     <defs>
      <path d="
M9.8125 72.9062
L19.6719 72.9062
L19.6719 8.29688
L55.1719 8.29688
L55.1719 0
L9.8125 0
z
" id="DejaVuSans-4c"/>
      <path id="DejaVuSans-20"/>
      <path d="
M45.4062 27.9844
Q45.4062 37.75 41.375 43.1094
Q37.3594 48.4844 30.0781 48.4844
Q22.8594 48.4844 18.8281 43.1094
Q14.7969 37.75 14.7969 27.9844
Q14.7969 18.2656 18.8281 12.8906
Q22.8594 7.51562 30.0781 7.51562
Q37.3594 7.51562 41.375 12.8906
Q45.4062 18.2656 45.4062 27.9844
M54.3906 6.78125
Q54.3906 -7.17188 48.1875 -13.9844
Q42 -20.7969 29.2031 -20.7969
Q24.4688 -20.7969 20.2656 -20.0938
Q16.0625 -19.3906 12.1094 -17.9219
L12.1094 -9.1875
Q16.0625 -11.3281 19.9219 -12.3438
Q23.7812 -13.375 27.7812 -13.375
Q36.625 -13.375 41.0156 -8.76562
Q45.4062 -4.15625 45.4062 5.17188
L45.4062 9.625
Q42.625 4.78125 38.2812 2.39062
Q33.9375 0 27.875 0
Q17.8281 0 11.6719 7.65625
Q5.51562 15.3281 5.51562 27.9844
Q5.51562 40.6719 11.6719 48.3281
Q17.8281 56 27.875 56
Q33.9375 56 38.2812 53.6094
Q42.625 51.2188 45.4062 46.3906
L45.4062 54.6875
L54.3906 54.6875
z
" id="DejaVuSans-67"/>
      <path d="
M31 75.875
Q24.4688 64.6562 21.2812 53.6562
Q18.1094 42.6719 18.1094 31.3906
Q18.1094 20.125 21.3125 9.0625
Q24.5156 -2 31 -13.1875
L23.1875 -13.1875
Q15.875 -1.70312 12.2344 9.375
Q8.59375 20.4531 8.59375 31.3906
Q8.59375 42.2812 12.2031 53.3125
Q15.8281 64.3594 23.1875 75.875
z
" id="DejaVuSans-28"/>
      <path d="
M8.01562 75.875
L15.8281 75.875
Q23.1406 64.3594 26.7812 53.3125
Q30.4219 42.2812 30.4219 31.3906
Q30.4219 20.4531 26.7812 9.375
Q23.1406 -1.70312 15.8281 -13.1875
L8.01562 -13.1875
Q14.5 -2 17.7031 9.0625
Q20.9062 20.125 20.9062 31.3906
Q20.9062 42.6719 17.7031 53.6562
Q14.5 64.6562 8.01562 75.875" id="DejaVuSans-29"/>
      <path d="
M48.6875 27.2969
Q48.6875 37.2031 44.6094 42.8438
Q40.5312 48.4844 33.4062 48.4844
Q26.2656 48.4844 22.1875 42.8438
Q18.1094 37.2031 18.1094 27.2969
Q18.1094 17.3906 22.1875 11.75
Q26.2656 6.10938 33.4062 6.10938
Q40.5312 6.10938 44.6094 11.75
Q48.6875 17.3906 48.6875 27.2969
M18.1094 46.3906
Q20.9531 51.2656 25.2656 53.625
Q29.5938 56 35.5938 56
Q45.5625 56 51.7812 48.0938
Q58.0156 40.1875 58.0156 27.2969
Q58.0156 14.4062 51.7812 6.48438
Q45.5625 -1.42188 35.5938 -1.42188
Q29.5938 -1.42188 25.2656 0.953125
Q20.9531 3.32812 18.1094 8.20312
L18.1094 0
L9.07812 0
L9.07812 75.9844
L18.1094 75.9844
z
" id="DejaVuSans-62"/>
      <path d="
M18.1094 8.20312
L18.1094 -20.7969
L9.07812 -20.7969
L9.07812 54.6875
L18.1094 54.6875
L18.1094 46.3906
Q20.9531 51.2656 25.2656 53.625
Q29.5938 56 35.5938 56
Q45.5625 56 51.7812 48.0938
Q58.0156 40.1875 58.0156 27.2969
Q58.0156 14.4062 51.7812 6.48438
Q45.5625 -1.42188 35.5938 -1.42188
Q29.5938 -1.42188 25.2656 0.953125
Q20.9531 3.32812 18.1094 8.20312
M48.6875 27.2969
Q48.6875 37.2031 44.6094 42.8438
Q40.5312 48.4844 33.4062 48.4844
Q26.2656 48.4844 22.1875 42.8438
Q18.1094 37.2031 18.1094 27.2969
Q18.1094 17.3906 22.1875 11.75
Q26.2656 6.10938 33.4062 6.10938
Q40.5312 6.10938 44.6094 11.75
Q48.6875 17.3906 48.6875 27.2969" id="DejaVuSans-70"/>
     </defs>
     <g transform="translate(408.4125 418.531875)scale(0.12 -0.12)">
      <use xlink:href="#DejaVuSans-4c"/>
      <use x="53.962890625" xlink:href="#DejaVuSans-65"/>
      <use x="115.486328125" xlink:href="#DejaVuSans-6e"/>
      <use x="178.865234375" xlink:href="#DejaVuSans-67"/>
      <use x="242.341796875" xlink:href="#DejaVuSans-74"/>
      <use x="281.55078125" xlink:href="#DejaVuSans-68"/>
      <use x="344.9296875" xlink:href="#DejaVuSans-20"/>
      <use x="376.716796875" xlink:href="#DejaVuSans-28"/>
      <use x="415.73046875" xlink:href="#DejaVuSans-62"/>
      <use x="479.20703125" xlink:href="#DejaVuSans-70"/>
      <use x="542.68359375" xlink:href="#DejaVuSans-29"/>
     </g>
     <!-- chr7:140125657-140134334 -->
     <defs>
      <path d="
M11.7188 12.4062
L22.0156 12.4062
L22.0156 0
L11.7188 0
z

M11.7188 51.7031
L22.0156 51.7031
L22.0156 39.3125
L11.7188 39.3125
z
" id="DejaVuSans-3a"/>
      <path d="
M4.89062 31.3906
L31.2031 31.3906
L31.2031 23.3906
L4.89062 23.3906
z
" id="DejaVuSans-2d"/>
      <path d="
M48.7812 52.5938
L48.7812 44.1875
Q44.9688 46.2969 41.1406 47.3438
Q37.3125 48.3906 33.4062 48.3906
Q24.6562 48.3906 19.8125 42.8438
Q14.9844 37.3125 14.9844 27.2969
Q14.9844 17.2812 19.8125 11.7344
Q24.6562 6.20312 33.4062 6.20312
Q37.3125 6.20312 41.1406 7.25
Q44.9688 8.29688 48.7812 10.4062
L48.7812 2.09375
Q45.0156 0.34375 40.9844 -0.53125
Q36.9688 -1.42188 32.4219 -1.42188
Q20.0625 -1.42188 12.7812 6.34375
Q5.51562 14.1094 5.51562 27.2969
Q5.51562 40.6719 12.8594 48.3281
Q20.2188 56 33.0156 56
Q37.1562 56 41.1094 55.1406
Q45.0625 54.2969 48.7812 52.5938" id="DejaVuSans-63"/>
      <path d="
M8.20312 72.9062
L55.0781 72.9062
L55.0781 68.7031
L28.6094 0
L18.3125 0
L43.2188 64.5938
L8.20312 64.5938
z
" id="DejaVuSans-37"/>
      <path d="
M41.1094 46.2969
Q39.5938 47.1719 37.8125 47.5781
Q36.0312 48 33.8906 48
Q26.2656 48 22.1875 43.0469
Q18.1094 38.0938 18.1094 28.8125
L18.1094 0
L9.07812 0
L9.07812 54.6875
L18.1094 54.6875
L18.1094 46.1875
Q20.9531 51.1719 25.4844 53.5781
Q30.0312 56 36.5312 56
Q37.4531 56 38.5781 55.875
Q39.7031 55.7656 41.0625 55.5156
z
" id="DejaVuSans-72"/>
     </defs>
     <g transform="translate(357.1809375 431.96925)scale(0.12 -0.12)">
      <use xlink:href="#DejaVuSans-63"/>
      <use x="54.98046875" xlink:href="#DejaVuSans-68"/>
      <use x="118.359375" xlink:href="#DejaVuSans-72"/>
      <use x="159.47265625" xlink:href="#DejaVuSans-37"/>
      <use x="223.095703125" xlink:href="#DejaVuSans-3a"/>
      <use x="256.787109375" xlink:href="#DejaVuSans-31"/>
      <use x="320.41015625" xlink:href="#DejaVuSans-34"/>
      <use x="384.033203125" xlink:href="#DejaVuSans-30"/>
      <use x="447.65625" xlink:href="#DejaVuSans-31"/>
      <use x="511.279296875" xlink:href="#DejaVuSans-32"/>
      <use x="574.90234375" xlink:href="#DejaVuSans-35"/>
      <use x="638.525390625" xlink:href="#DejaVuSans-36"/>
      <use x="702.1484375" xlink:href="#DejaVuSans-35"/>
      <use x="765.771484375" xlink:href="#DejaVuSans-37"/>
      <use x="829.39453125" xlink:href="#DejaVuSans-2d"/>
      <use x="865.478515625" xlink:href="#DejaVuSans-31"/>
      <use x="929.1015625" xlink:href="#DejaVuSans-34"/>
      <use x="992.724609375" xlink:href="#DejaVuSans-30"/>
      <use x="1056.34765625" xlink:href="#DejaVuSans-31"/>
      <use x="1119.97070312" xlink:href="#DejaVuSans-33"/>
      <use x="1183.59375" xlink:href="#DejaVuSans-34"/>
      <use x="1247.21679688" xlink:href="#DejaVuSans-33"/>
      <use x="1310.83984375" xlink:href="#DejaVuSans-33"/>
      <use x="1374.46289062" xlink:href="#DejaVuSans-34"/>
     </g>
    </g>
   </g>
  </g>
  <g id="text_14">
   <!-- ENSMUST00000026537 (Paox) -->
   <defs>
    <path d="
M9.8125 72.9062
L23.0938 72.9062
L55.4219 11.9219
L55.4219 72.9062
L64.9844 72.9062
L64.9844 0
L51.7031 0
L19.3906 60.9844
L19.3906 0
L9.8125 0
z
" id="DejaVuSans-4e"/>
    <path d="
M9.8125 72.9062
L55.9062 72.9062
L55.9062 64.5938
L19.6719 64.5938
L19.6719 43.0156
L54.3906 43.0156
L54.3906 34.7188
L19.6719 34.7188
L19.6719 8.29688
L56.7812 8.29688
L56.7812 0
L9.8125 0
z
" id="DejaVuSans-45"/>
    <path d="
M54.8906 54.6875
L35.1094 28.0781
L55.9062 0
L45.3125 0
L29.3906 21.4844
L13.4844 0
L2.875 0
L24.125 28.6094
L4.6875 54.6875
L15.2812 54.6875
L29.7812 35.2031
L44.2812 54.6875
z
" id="DejaVuSans-78"/>
    <path d="
M53.5156 70.5156
L53.5156 60.8906
Q47.9062 63.5781 42.9219 64.8906
Q37.9375 66.2188 33.2969 66.2188
Q25.25 66.2188 20.875 63.0938
Q16.5 59.9688 16.5 54.2031
Q16.5 49.3594 19.4062 46.8906
Q22.3125 44.4375 30.4219 42.9219
L36.375 41.7031
Q47.4062 39.5938 52.6562 34.2969
Q57.9062 29 57.9062 20.125
Q57.9062 9.51562 50.7969 4.04688
Q43.7031 -1.42188 29.9844 -1.42188
Q24.8125 -1.42188 18.9688 -0.25
Q13.1406 0.921875 6.89062 3.21875
L6.89062 13.375
Q12.8906 10.0156 18.6562 8.29688
Q24.4219 6.59375 29.9844 6.59375
Q38.4219 6.59375 43.0156 9.90625
Q47.6094 13.2344 47.6094 19.3906
Q47.6094 24.75 44.3125 27.7812
Q41.0156 30.8125 33.5 32.3281
L27.4844 33.5
Q16.4531 35.6875 11.5156 40.375
Q6.59375 45.0625 6.59375 53.4219
Q6.59375 63.0938 13.4062 68.6562
Q20.2188 74.2188 32.1719 74.2188
Q37.3125 74.2188 42.625 73.2812
Q47.9531 72.3594 53.5156 70.5156" id="DejaVuSans-53"/>
    <path d="
M19.6719 64.7969
L19.6719 37.4062
L32.0781 37.4062
Q38.9688 37.4062 42.7188 40.9688
Q46.4844 44.5312 46.4844 51.125
Q46.4844 57.6719 42.7188 61.2344
Q38.9688 64.7969 32.0781 64.7969
z

M9.8125 72.9062
L32.0781 72.9062
Q44.3438 72.9062 50.6094 67.3594
Q56.8906 61.8125 56.8906 51.125
Q56.8906 40.3281 50.6094 34.8125
Q44.3438 29.2969 32.0781 29.2969
L19.6719 29.2969
L19.6719 0
L9.8125 0
z
" id="DejaVuSans-50"/>
    <path d="
M8.6875 72.9062
L18.6094 72.9062
L18.6094 28.6094
Q18.6094 16.8906 22.8438 11.7344
Q27.0938 6.59375 36.625 6.59375
Q46.0938 6.59375 50.3438 11.7344
Q54.5938 16.8906 54.5938 28.6094
L54.5938 72.9062
L64.5 72.9062
L64.5 27.3906
Q64.5 13.1406 57.4375 5.85938
Q50.3906 -1.42188 36.625 -1.42188
Q22.7969 -1.42188 15.7344 5.85938
Q8.6875 13.1406 8.6875 27.3906
z
" id="DejaVuSans-55"/>
    <path d="
M-0.296875 72.9062
L61.375 72.9062
L61.375 64.5938
L35.5 64.5938
L35.5 0
L25.5938 0
L25.5938 64.5938
L-0.296875 64.5938
z
" id="DejaVuSans-54"/>
   </defs>
   <g transform="translate(340.74375 17.758125)scale(0.12 -0.12)">
    <use xlink:href="#DejaVuSans-45"/>
    <use x="63.18359375" xlink:href="#DejaVuSans-4e"/>
    <use x="137.98828125" xlink:href="#DejaVuSans-53"/>
    <use x="201.46484375" xlink:href="#DejaVuSans-4d"/>
    <use x="287.744140625" xlink:href="#DejaVuSans-55"/>
    <use x="360.9375" xlink:href="#DejaVuSans-53"/>
    <use x="424.4140625" xlink:href="#DejaVuSans-54"/>
    <use x="485.498046875" xlink:href="#DejaVuSans-30"/>
    <use x="549.12109375" xlink:href="#DejaVuSans-30"/>
    <use x="612.744140625" xlink:href="#DejaVuSans-30"/>
    <use x="676.3671875" xlink:href="#DejaVuSans-30"/>
    <use x="739.990234375" xlink:href="#DejaVuSans-30"/>
    <use x="803.61328125" xlink:href="#DejaVuSans-30"/>
    <use x="867.236328125" xlink:href="#DejaVuSans-32"/>
    <use x="930.859375" xlink:href="#DejaVuSans-36"/>
    <use x="994.482421875" xlink:href="#DejaVuSans-35"/>
    <use x="1058.10546875" xlink:href="#DejaVuSans-33"/>
    <use x="1121.72851562" xlink:href="#DejaVuSans-37"/>
    <use x="1185.3515625" xlink:href="#DejaVuSans-20"/>
    <use x="1217.13867188" xlink:href="#DejaVuSans-28"/>
    <use x="1256.15234375" xlink:href="#DejaVuSans-50"/>
    <use x="1311.95507812" xlink:href="#DejaVuSans-61"/>
    <use x="1373.234375" xlink:href="#DejaVuSans-6f"/>
    <use x="1431.29101562" xlink:href="#DejaVuSans-78"/>
    <use x="1490.47070312" xlink:href="#DejaVuSans-29"/>
   </g>
  </g>
 </g>
 <defs>
  <clipPath id="p9fd4257182">
   <rect height="279.272727273" width="669.6" x="108.0" y="43.2"/>
  </clipPath>
  <clipPath id="pc82b1f09f0">
   <rect height="34.9090909091" width="669.6" x="108.0" y="353.890909091"/>
  </clipPath>
 </defs>
</svg>
