<?xml version="1.0" encoding="utf-8" standalone="no"?>
<!DOCTYPE svg PUBLIC "-//W3C//DTD SVG 1.1//EN"
  "http://www.w3.org/Graphics/SVG/1.1/DTD/svg11.dtd">
<!-- Created with matplotlib (http://matplotlib.org/) -->
<svg height="660pt" version="1.1" viewBox="0 0 1311 660" width="1311pt" xmlns="http://www.w3.org/2000/svg" xmlns:xlink="http://www.w3.org/1999/xlink">
 <defs>
  <style type="text/css">
*{stroke-linecap:butt;stroke-linejoin:round;}
  </style>
 </defs>
 <g id="figure_1">
  <g id="patch_1">
   <path d="M 0 660.73 
L 1311.8575 660.73 
L 1311.8575 -0 
L 0 -0 
z
" style="fill:#ffffff;"/>
  </g>
  <g id="axes_1">
   <g id="patch_2">
    <path d="M 179.8475 611.56 
L 957.4475 611.56 
L 957.4475 28.36 
L 179.8475 28.36 
z
" style="fill:#ffffff;"/>
   </g>
   <g id="patch_3">
    <path clip-path="url(#p02dc10157d)" d="M 215.192955 605.421053 
L 417.429376 605.421053 
L 417.429376 556.309474 
L 215.192955 556.309474 
z
" style="fill:#157f3b;opacity:0.7;"/>
   </g>
   <g id="patch_4">
    <path clip-path="url(#p02dc10157d)" d="M 417.429376 605.421053 
L 469.270107 605.421053 
L 469.270107 556.309474 
L 417.429376 556.309474 
z
" style="fill:#4bb062;opacity:0.7;"/>
   </g>
   <g id="patch_5">
    <path clip-path="url(#p02dc10157d)" d="M 469.270107 605.421053 
L 625.559905 605.421053 
L 625.559905 556.309474 
L 469.270107 556.309474 
z
" style="fill:#98d594;opacity:0.7;"/>
   </g>
   <g id="patch_6">
    <path clip-path="url(#p02dc10157d)" d="M 625.559905 605.421053 
L 632.029716 605.421053 
L 632.029716 556.309474 
L 625.559905 556.309474 
z
" style="fill:#d3eecd;opacity:0.7;"/>
   </g>
   <g id="patch_7">
    <path clip-path="url(#p02dc10157d)" d="M 632.029716 605.421053 
L 670.16322 605.421053 
L 670.16322 556.309474 
L 632.029716 556.309474 
z
" style="fill:#0000ff;opacity:0.7;"/>
   </g>
   <g id="patch_8">
    <path clip-path="url(#p02dc10157d)" d="M 670.16322 605.421053 
L 811.237997 605.421053 
L 811.237997 556.309474 
L 670.16322 556.309474 
z
" style="fill:#800080;opacity:0.7;"/>
   </g>
   <g id="patch_9">
    <path clip-path="url(#p02dc10157d)" d="M 811.237997 605.421053 
L 912.178013 605.421053 
L 912.178013 556.309474 
L 811.237997 556.309474 
z
" style="fill:#ff0000;opacity:0.7;"/>
   </g>
   <g id="patch_10">
    <path clip-path="url(#p02dc10157d)" d="M 912.178013 605.421053 
L 918.949383 605.421053 
L 918.949383 556.309474 
L 912.178013 556.309474 
z
" style="fill:#ffa500;opacity:0.7;"/>
   </g>
   <g id="patch_11">
    <path clip-path="url(#p02dc10157d)" d="M 918.949383 605.421053 
L 920.512007 605.421053 
L 920.512007 556.309474 
L 918.949383 556.309474 
z
" style="fill:#808080;opacity:0.7;"/>
   </g>
   <g id="patch_12">
    <path clip-path="url(#p02dc10157d)" d="M 920.512007 605.421053 
L 922.102045 605.421053 
L 922.102045 556.309474 
L 920.512007 556.309474 
z
" style="fill:#f5f5dc;opacity:0.7;"/>
   </g>
   <g id="patch_13">
    <path clip-path="url(#p02dc10157d)" d="M 215.192955 544.031579 
L 452.394276 544.031579 
L 452.394276 494.92 
L 215.192955 494.92 
z
" style="fill:#157f3b;opacity:0.7;"/>
   </g>
   <g id="patch_14">
    <path clip-path="url(#p02dc10157d)" d="M 452.394276 544.031579 
L 499.153941 544.031579 
L 499.153941 494.92 
L 452.394276 494.92 
z
" style="fill:#4bb062;opacity:0.7;"/>
   </g>
   <g id="patch_15">
    <path clip-path="url(#p02dc10157d)" d="M 499.153941 544.031579 
L 669.744795 544.031579 
L 669.744795 494.92 
L 499.153941 494.92 
z
" style="fill:#98d594;opacity:0.7;"/>
   </g>
   <g id="patch_16">
    <path clip-path="url(#p02dc10157d)" d="M 669.744795 544.031579 
L 674.912305 544.031579 
L 674.912305 494.92 
L 669.744795 494.92 
z
" style="fill:#d3eecd;opacity:0.7;"/>
   </g>
   <g id="patch_17">
    <path clip-path="url(#p02dc10157d)" d="M 674.912305 544.031579 
L 696.905733 544.031579 
L 696.905733 494.92 
L 674.912305 494.92 
z
" style="fill:#0000ff;opacity:0.7;"/>
   </g>
   <g id="patch_18">
    <path clip-path="url(#p02dc10157d)" d="M 696.905733 544.031579 
L 832.615894 544.031579 
L 832.615894 494.92 
L 696.905733 494.92 
z
" style="fill:#800080;opacity:0.7;"/>
   </g>
   <g id="patch_19">
    <path clip-path="url(#p02dc10157d)" d="M 832.615894 544.031579 
L 910.947786 544.031579 
L 910.947786 494.92 
L 832.615894 494.92 
z
" style="fill:#ff0000;opacity:0.7;"/>
   </g>
   <g id="patch_20">
    <path clip-path="url(#p02dc10157d)" d="M 910.947786 544.031579 
L 919.203198 544.031579 
L 919.203198 494.92 
L 910.947786 494.92 
z
" style="fill:#ffa500;opacity:0.7;"/>
   </g>
   <g id="patch_21">
    <path clip-path="url(#p02dc10157d)" d="M 919.203198 544.031579 
L 920.274511 544.031579 
L 920.274511 494.92 
L 919.203198 494.92 
z
" style="fill:#808080;opacity:0.7;"/>
   </g>
   <g id="patch_22">
    <path clip-path="url(#p02dc10157d)" d="M 920.274511 544.031579 
L 922.102045 544.031579 
L 922.102045 494.92 
L 920.274511 494.92 
z
" style="fill:#f5f5dc;opacity:0.7;"/>
   </g>
   <g id="patch_23">
    <path clip-path="url(#p02dc10157d)" d="M 215.192955 482.642105 
L 445.011529 482.642105 
L 445.011529 433.530526 
L 215.192955 433.530526 
z
" style="fill:#157f3b;opacity:0.7;"/>
   </g>
   <g id="patch_24">
    <path clip-path="url(#p02dc10157d)" d="M 445.011529 482.642105 
L 487.007702 482.642105 
L 487.007702 433.530526 
L 445.011529 433.530526 
z
" style="fill:#4bb062;opacity:0.7;"/>
   </g>
   <g id="patch_25">
    <path clip-path="url(#p02dc10157d)" d="M 487.007702 482.642105 
L 665.038414 482.642105 
L 665.038414 433.530526 
L 487.007702 433.530526 
z
" style="fill:#98d594;opacity:0.7;"/>
   </g>
   <g id="patch_26">
    <path clip-path="url(#p02dc10157d)" d="M 665.038414 482.642105 
L 670.156797 482.642105 
L 670.156797 433.530526 
L 665.038414 433.530526 
z
" style="fill:#d3eecd;opacity:0.7;"/>
   </g>
   <g id="patch_27">
    <path clip-path="url(#p02dc10157d)" d="M 670.156797 482.642105 
L 692.696757 482.642105 
L 692.696757 433.530526 
L 670.156797 433.530526 
z
" style="fill:#0000ff;opacity:0.7;"/>
   </g>
   <g id="patch_28">
    <path clip-path="url(#p02dc10157d)" d="M 692.696757 482.642105 
L 827.618603 482.642105 
L 827.618603 433.530526 
L 692.696757 433.530526 
z
" style="fill:#800080;opacity:0.7;"/>
   </g>
   <g id="patch_29">
    <path clip-path="url(#p02dc10157d)" d="M 827.618603 482.642105 
L 908.304665 482.642105 
L 908.304665 433.530526 
L 827.618603 433.530526 
z
" style="fill:#ff0000;opacity:0.7;"/>
   </g>
   <g id="patch_30">
    <path clip-path="url(#p02dc10157d)" d="M 908.304665 482.642105 
L 918.159937 482.642105 
L 918.159937 433.530526 
L 908.304665 433.530526 
z
" style="fill:#ffa500;opacity:0.7;"/>
   </g>
   <g id="patch_31">
    <path clip-path="url(#p02dc10157d)" d="M 918.159937 482.642105 
L 919.272629 482.642105 
L 919.272629 433.530526 
L 918.159937 433.530526 
z
" style="fill:#808080;opacity:0.7;"/>
   </g>
   <g id="patch_32">
    <path clip-path="url(#p02dc10157d)" d="M 919.272629 482.642105 
L 922.102045 482.642105 
L 922.102045 433.530526 
L 919.272629 433.530526 
z
" style="fill:#f5f5dc;opacity:0.7;"/>
   </g>
   <g id="patch_33">
    <path clip-path="url(#p02dc10157d)" d="M 215.192955 421.252632 
L 444.094813 421.252632 
L 444.094813 372.141053 
L 215.192955 372.141053 
z
" style="fill:#157f3b;opacity:0.7;"/>
   </g>
   <g id="patch_34">
    <path clip-path="url(#p02dc10157d)" d="M 444.094813 421.252632 
L 490.370339 421.252632 
L 490.370339 372.141053 
L 444.094813 372.141053 
z
" style="fill:#4bb062;opacity:0.7;"/>
   </g>
   <g id="patch_35">
    <path clip-path="url(#p02dc10157d)" d="M 490.370339 421.252632 
L 653.343327 421.252632 
L 653.343327 372.141053 
L 490.370339 372.141053 
z
" style="fill:#98d594;opacity:0.7;"/>
   </g>
   <g id="patch_36">
    <path clip-path="url(#p02dc10157d)" d="M 653.343327 421.252632 
L 658.631085 421.252632 
L 658.631085 372.141053 
L 653.343327 372.141053 
z
" style="fill:#d3eecd;opacity:0.7;"/>
   </g>
   <g id="patch_37">
    <path clip-path="url(#p02dc10157d)" d="M 658.631085 421.252632 
L 688.065254 421.252632 
L 688.065254 372.141053 
L 658.631085 372.141053 
z
" style="fill:#0000ff;opacity:0.7;"/>
   </g>
   <g id="patch_38">
    <path clip-path="url(#p02dc10157d)" d="M 688.065254 421.252632 
L 822.368201 421.252632 
L 822.368201 372.141053 
L 688.065254 372.141053 
z
" style="fill:#800080;opacity:0.7;"/>
   </g>
   <g id="patch_39">
    <path clip-path="url(#p02dc10157d)" d="M 822.368201 421.252632 
L 910.701272 421.252632 
L 910.701272 372.141053 
L 822.368201 372.141053 
z
" style="fill:#ff0000;opacity:0.7;"/>
   </g>
   <g id="patch_40">
    <path clip-path="url(#p02dc10157d)" d="M 910.701272 421.252632 
L 919.198363 421.252632 
L 919.198363 372.141053 
L 910.701272 372.141053 
z
" style="fill:#ffa500;opacity:0.7;"/>
   </g>
   <g id="patch_41">
    <path clip-path="url(#p02dc10157d)" d="M 919.198363 421.252632 
L 920.390401 421.252632 
L 920.390401 372.141053 
L 919.198363 372.141053 
z
" style="fill:#808080;opacity:0.7;"/>
   </g>
   <g id="patch_42">
    <path clip-path="url(#p02dc10157d)" d="M 920.390401 421.252632 
L 922.102045 421.252632 
L 922.102045 372.141053 
L 920.390401 372.141053 
z
" style="fill:#f5f5dc;opacity:0.7;"/>
   </g>
   <g id="patch_43">
    <path clip-path="url(#p02dc10157d)" d="M 215.192955 359.863158 
L 406.508648 359.863158 
L 406.508648 310.751579 
L 215.192955 310.751579 
z
" style="fill:#157f3b;opacity:0.7;"/>
   </g>
   <g id="patch_44">
    <path clip-path="url(#p02dc10157d)" d="M 406.508648 359.863158 
L 446.186276 359.863158 
L 446.186276 310.751579 
L 406.508648 310.751579 
z
" style="fill:#4bb062;opacity:0.7;"/>
   </g>
   <g id="patch_45">
    <path clip-path="url(#p02dc10157d)" d="M 446.186276 359.863158 
L 654.403921 359.863158 
L 654.403921 310.751579 
L 446.186276 310.751579 
z
" style="fill:#98d594;opacity:0.7;"/>
   </g>
   <g id="patch_46">
    <path clip-path="url(#p02dc10157d)" d="M 654.403921 359.863158 
L 659.870083 359.863158 
L 659.870083 310.751579 
L 654.403921 310.751579 
z
" style="fill:#d3eecd;opacity:0.7;"/>
   </g>
   <g id="patch_47">
    <path clip-path="url(#p02dc10157d)" d="M 659.870083 359.863158 
L 688.231796 359.863158 
L 688.231796 310.751579 
L 659.870083 310.751579 
z
" style="fill:#0000ff;opacity:0.7;"/>
   </g>
   <g id="patch_48">
    <path clip-path="url(#p02dc10157d)" d="M 688.231796 359.863158 
L 807.720194 359.863158 
L 807.720194 310.751579 
L 688.231796 310.751579 
z
" style="fill:#800080;opacity:0.7;"/>
   </g>
   <g id="patch_49">
    <path clip-path="url(#p02dc10157d)" d="M 807.720194 359.863158 
L 910.018949 359.863158 
L 910.018949 310.751579 
L 807.720194 310.751579 
z
" style="fill:#ff0000;opacity:0.7;"/>
   </g>
   <g id="patch_50">
    <path clip-path="url(#p02dc10157d)" d="M 910.018949 359.863158 
L 918.409988 359.863158 
L 918.409988 310.751579 
L 910.018949 310.751579 
z
" style="fill:#ffa500;opacity:0.7;"/>
   </g>
   <g id="patch_51">
    <path clip-path="url(#p02dc10157d)" d="M 918.409988 359.863158 
L 919.776529 359.863158 
L 919.776529 310.751579 
L 918.409988 310.751579 
z
" style="fill:#808080;opacity:0.7;"/>
   </g>
   <g id="patch_52">
    <path clip-path="url(#p02dc10157d)" d="M 919.776529 359.863158 
L 922.102045 359.863158 
L 922.102045 310.751579 
L 919.776529 310.751579 
z
" style="fill:#f5f5dc;opacity:0.7;"/>
   </g>
   <g id="patch_53">
    <path clip-path="url(#p02dc10157d)" d="M 215.192955 298.473684 
L 413.974924 298.473684 
L 413.974924 249.362105 
L 215.192955 249.362105 
z
" style="fill:#157f3b;opacity:0.7;"/>
   </g>
   <g id="patch_54">
    <path clip-path="url(#p02dc10157d)" d="M 413.974924 298.473684 
L 449.292669 298.473684 
L 449.292669 249.362105 
L 413.974924 249.362105 
z
" style="fill:#4bb062;opacity:0.7;"/>
   </g>
   <g id="patch_55">
    <path clip-path="url(#p02dc10157d)" d="M 449.292669 298.473684 
L 663.64266 298.473684 
L 663.64266 249.362105 
L 449.292669 249.362105 
z
" style="fill:#98d594;opacity:0.7;"/>
   </g>
   <g id="patch_56">
    <path clip-path="url(#p02dc10157d)" d="M 663.64266 298.473684 
L 668.529709 298.473684 
L 668.529709 249.362105 
L 663.64266 249.362105 
z
" style="fill:#d3eecd;opacity:0.7;"/>
   </g>
   <g id="patch_57">
    <path clip-path="url(#p02dc10157d)" d="M 668.529709 298.473684 
L 693.796255 298.473684 
L 693.796255 249.362105 
L 668.529709 249.362105 
z
" style="fill:#0000ff;opacity:0.7;"/>
   </g>
   <g id="patch_58">
    <path clip-path="url(#p02dc10157d)" d="M 693.796255 298.473684 
L 811.790774 298.473684 
L 811.790774 249.362105 
L 693.796255 249.362105 
z
" style="fill:#800080;opacity:0.7;"/>
   </g>
   <g id="patch_59">
    <path clip-path="url(#p02dc10157d)" d="M 811.790774 298.473684 
L 906.836316 298.473684 
L 906.836316 249.362105 
L 811.790774 249.362105 
z
" style="fill:#ff0000;opacity:0.7;"/>
   </g>
   <g id="patch_60">
    <path clip-path="url(#p02dc10157d)" d="M 906.836316 298.473684 
L 917.81958 298.473684 
L 917.81958 249.362105 
L 906.836316 249.362105 
z
" style="fill:#ffa500;opacity:0.7;"/>
   </g>
   <g id="patch_61">
    <path clip-path="url(#p02dc10157d)" d="M 917.81958 298.473684 
L 918.827219 298.473684 
L 918.827219 249.362105 
L 917.81958 249.362105 
z
" style="fill:#808080;opacity:0.7;"/>
   </g>
   <g id="patch_62">
    <path clip-path="url(#p02dc10157d)" d="M 918.827219 298.473684 
L 922.102045 298.473684 
L 922.102045 249.362105 
L 918.827219 249.362105 
z
" style="fill:#f5f5dc;opacity:0.7;"/>
   </g>
   <g id="patch_63">
    <path clip-path="url(#p02dc10157d)" d="M 215.192955 237.084211 
L 405.267283 237.084211 
L 405.267283 187.972632 
L 215.192955 187.972632 
z
" style="fill:#157f3b;opacity:0.7;"/>
   </g>
   <g id="patch_64">
    <path clip-path="url(#p02dc10157d)" d="M 405.267283 237.084211 
L 445.614694 237.084211 
L 445.614694 187.972632 
L 405.267283 187.972632 
z
" style="fill:#4bb062;opacity:0.7;"/>
   </g>
   <g id="patch_65">
    <path clip-path="url(#p02dc10157d)" d="M 445.614694 237.084211 
L 657.074937 237.084211 
L 657.074937 187.972632 
L 445.614694 187.972632 
z
" style="fill:#98d594;opacity:0.7;"/>
   </g>
   <g id="patch_66">
    <path clip-path="url(#p02dc10157d)" d="M 657.074937 237.084211 
L 662.944579 237.084211 
L 662.944579 187.972632 
L 657.074937 187.972632 
z
" style="fill:#d3eecd;opacity:0.7;"/>
   </g>
   <g id="patch_67">
    <path clip-path="url(#p02dc10157d)" d="M 662.944579 237.084211 
L 693.185997 237.084211 
L 693.185997 187.972632 
L 662.944579 187.972632 
z
" style="fill:#0000ff;opacity:0.7;"/>
   </g>
   <g id="patch_68">
    <path clip-path="url(#p02dc10157d)" d="M 693.185997 237.084211 
L 814.40687 237.084211 
L 814.40687 187.972632 
L 693.185997 187.972632 
z
" style="fill:#800080;opacity:0.7;"/>
   </g>
   <g id="patch_69">
    <path clip-path="url(#p02dc10157d)" d="M 814.40687 237.084211 
L 908.372187 237.084211 
L 908.372187 187.972632 
L 814.40687 187.972632 
z
" style="fill:#ff0000;opacity:0.7;"/>
   </g>
   <g id="patch_70">
    <path clip-path="url(#p02dc10157d)" d="M 908.372187 237.084211 
L 917.738094 237.084211 
L 917.738094 187.972632 
L 908.372187 187.972632 
z
" style="fill:#ffa500;opacity:0.7;"/>
   </g>
   <g id="patch_71">
    <path clip-path="url(#p02dc10157d)" d="M 917.738094 237.084211 
L 918.988583 237.084211 
L 918.988583 187.972632 
L 917.738094 187.972632 
z
" style="fill:#808080;opacity:0.7;"/>
   </g>
   <g id="patch_72">
    <path clip-path="url(#p02dc10157d)" d="M 918.988583 237.084211 
L 922.102045 237.084211 
L 922.102045 187.972632 
L 918.988583 187.972632 
z
" style="fill:#f5f5dc;opacity:0.7;"/>
   </g>
   <g id="patch_73">
    <path clip-path="url(#p02dc10157d)" d="M 215.192955 175.694737 
L 423.310531 175.694737 
L 423.310531 126.583158 
L 215.192955 126.583158 
z
" style="fill:#157f3b;opacity:0.7;"/>
   </g>
   <g id="patch_74">
    <path clip-path="url(#p02dc10157d)" d="M 423.310531 175.694737 
L 461.59402 175.694737 
L 461.59402 126.583158 
L 423.310531 126.583158 
z
" style="fill:#4bb062;opacity:0.7;"/>
   </g>
   <g id="patch_75">
    <path clip-path="url(#p02dc10157d)" d="M 461.59402 175.694737 
L 673.407747 175.694737 
L 673.407747 126.583158 
L 461.59402 126.583158 
z
" style="fill:#98d594;opacity:0.7;"/>
   </g>
   <g id="patch_76">
    <path clip-path="url(#p02dc10157d)" d="M 673.407747 175.694737 
L 678.102129 175.694737 
L 678.102129 126.583158 
L 673.407747 126.583158 
z
" style="fill:#d3eecd;opacity:0.7;"/>
   </g>
   <g id="patch_77">
    <path clip-path="url(#p02dc10157d)" d="M 678.102129 175.694737 
L 702.842058 175.694737 
L 702.842058 126.583158 
L 678.102129 126.583158 
z
" style="fill:#0000ff;opacity:0.7;"/>
   </g>
   <g id="patch_78">
    <path clip-path="url(#p02dc10157d)" d="M 702.842058 175.694737 
L 823.304202 175.694737 
L 823.304202 126.583158 
L 702.842058 126.583158 
z
" style="fill:#800080;opacity:0.7;"/>
   </g>
   <g id="patch_79">
    <path clip-path="url(#p02dc10157d)" d="M 823.304202 175.694737 
L 908.07286 175.694737 
L 908.07286 126.583158 
L 823.304202 126.583158 
z
" style="fill:#ff0000;opacity:0.7;"/>
   </g>
   <g id="patch_80">
    <path clip-path="url(#p02dc10157d)" d="M 908.07286 175.694737 
L 918.270999 175.694737 
L 918.270999 126.583158 
L 908.07286 126.583158 
z
" style="fill:#ffa500;opacity:0.7;"/>
   </g>
   <g id="patch_81">
    <path clip-path="url(#p02dc10157d)" d="M 918.270999 175.694737 
L 919.377146 175.694737 
L 919.377146 126.583158 
L 918.270999 126.583158 
z
" style="fill:#808080;opacity:0.7;"/>
   </g>
   <g id="patch_82">
    <path clip-path="url(#p02dc10157d)" d="M 919.377146 175.694737 
L 922.102045 175.694737 
L 922.102045 126.583158 
L 919.377146 126.583158 
z
" style="fill:#f5f5dc;opacity:0.7;"/>
   </g>
   <g id="patch_83">
    <path clip-path="url(#p02dc10157d)" d="M 215.192955 114.305263 
L 381.662356 114.305263 
L 381.662356 65.193684 
L 215.192955 65.193684 
z
" style="fill:#157f3b;opacity:0.7;"/>
   </g>
   <g id="patch_84">
    <path clip-path="url(#p02dc10157d)" d="M 381.662356 114.305263 
L 412.608591 114.305263 
L 412.608591 65.193684 
L 381.662356 65.193684 
z
" style="fill:#4bb062;opacity:0.7;"/>
   </g>
   <g id="patch_85">
    <path clip-path="url(#p02dc10157d)" d="M 412.608591 114.305263 
L 664.760772 114.305263 
L 664.760772 65.193684 
L 412.608591 65.193684 
z
" style="fill:#98d594;opacity:0.7;"/>
   </g>
   <g id="patch_86">
    <path clip-path="url(#p02dc10157d)" d="M 664.760772 114.305263 
L 669.719703 114.305263 
L 669.719703 65.193684 
L 664.760772 65.193684 
z
" style="fill:#d3eecd;opacity:0.7;"/>
   </g>
   <g id="patch_87">
    <path clip-path="url(#p02dc10157d)" d="M 669.719703 114.305263 
L 696.397491 114.305263 
L 696.397491 65.193684 
L 669.719703 65.193684 
z
" style="fill:#0000ff;opacity:0.7;"/>
   </g>
   <g id="patch_88">
    <path clip-path="url(#p02dc10157d)" d="M 696.397491 114.305263 
L 806.142591 114.305263 
L 806.142591 65.193684 
L 696.397491 65.193684 
z
" style="fill:#800080;opacity:0.7;"/>
   </g>
   <g id="patch_89">
    <path clip-path="url(#p02dc10157d)" d="M 806.142591 114.305263 
L 905.321193 114.305263 
L 905.321193 65.193684 
L 806.142591 65.193684 
z
" style="fill:#ff0000;opacity:0.7;"/>
   </g>
   <g id="patch_90">
    <path clip-path="url(#p02dc10157d)" d="M 905.321193 114.305263 
L 917.164039 114.305263 
L 917.164039 65.193684 
L 905.321193 65.193684 
z
" style="fill:#ffa500;opacity:0.7;"/>
   </g>
   <g id="patch_91">
    <path clip-path="url(#p02dc10157d)" d="M 917.164039 114.305263 
L 918.252074 114.305263 
L 918.252074 65.193684 
L 917.164039 65.193684 
z
" style="fill:#808080;opacity:0.7;"/>
   </g>
   <g id="patch_92">
    <path clip-path="url(#p02dc10157d)" d="M 918.252074 114.305263 
L 922.102045 114.305263 
L 922.102045 65.193684 
L 918.252074 65.193684 
z
" style="fill:#f5f5dc;opacity:0.7;"/>
   </g>
   <g id="matplotlib.axis_1">
    <g id="xtick_1">
     <g id="line2d_1">
      <defs>
       <path d="M 0 0 
L 0 3.5 
" id="m420f03ee8b" style="stroke:#000000;stroke-width:0.8;"/>
      </defs>
      <g>
       <use style="stroke:#000000;stroke-width:0.8;" x="215.192955" xlink:href="#m420f03ee8b" y="611.56"/>
      </g>
     </g>
     <g id="text_1">
      <!-- 0 -->
      <defs>
       <path d="M 31.78125 66.40625 
Q 24.171875 66.40625 20.328125 58.90625 
Q 16.5 51.421875 16.5 36.375 
Q 16.5 21.390625 20.328125 13.890625 
Q 24.171875 6.390625 31.78125 6.390625 
Q 39.453125 6.390625 43.28125 13.890625 
Q 47.125 21.390625 47.125 36.375 
Q 47.125 51.421875 43.28125 58.90625 
Q 39.453125 66.40625 31.78125 66.40625 
z
M 31.78125 74.21875 
Q 44.046875 74.21875 50.515625 64.515625 
Q 56.984375 54.828125 56.984375 36.375 
Q 56.984375 17.96875 50.515625 8.265625 
Q 44.046875 -1.421875 31.78125 -1.421875 
Q 19.53125 -1.421875 13.0625 8.265625 
Q 6.59375 17.96875 6.59375 36.375 
Q 6.59375 54.828125 13.0625 64.515625 
Q 19.53125 74.21875 31.78125 74.21875 
z
" id="DejaVuSans-30"/>
      </defs>
      <g transform="translate(210.102955 630.7175)scale(0.16 -0.16)">
       <use xlink:href="#DejaVuSans-30"/>
      </g>
     </g>
    </g>
    <g id="xtick_2">
     <g id="line2d_2">
      <g>
       <use style="stroke:#000000;stroke-width:0.8;" x="356.574773" xlink:href="#m420f03ee8b" y="611.56"/>
      </g>
     </g>
     <g id="text_2">
      <!-- 20 -->
      <defs>
       <path d="M 19.1875 8.296875 
L 53.609375 8.296875 
L 53.609375 0 
L 7.328125 0 
L 7.328125 8.296875 
Q 12.9375 14.109375 22.625 23.890625 
Q 32.328125 33.6875 34.8125 36.53125 
Q 39.546875 41.84375 41.421875 45.53125 
Q 43.3125 49.21875 43.3125 52.78125 
Q 43.3125 58.59375 39.234375 62.25 
Q 35.15625 65.921875 28.609375 65.921875 
Q 23.96875 65.921875 18.8125 64.3125 
Q 13.671875 62.703125 7.8125 59.421875 
L 7.8125 69.390625 
Q 13.765625 71.78125 18.9375 73 
Q 24.125 74.21875 28.421875 74.21875 
Q 39.75 74.21875 46.484375 68.546875 
Q 53.21875 62.890625 53.21875 53.421875 
Q 53.21875 48.921875 51.53125 44.890625 
Q 49.859375 40.875 45.40625 35.40625 
Q 44.1875 33.984375 37.640625 27.21875 
Q 31.109375 20.453125 19.1875 8.296875 
z
" id="DejaVuSans-32"/>
      </defs>
      <g transform="translate(346.394773 630.7175)scale(0.16 -0.16)">
       <use xlink:href="#DejaVuSans-32"/>
       <use x="63.623047" xlink:href="#DejaVuSans-30"/>
      </g>
     </g>
    </g>
    <g id="xtick_3">
     <g id="line2d_3">
      <g>
       <use style="stroke:#000000;stroke-width:0.8;" x="497.956591" xlink:href="#m420f03ee8b" y="611.56"/>
      </g>
     </g>
     <g id="text_3">
      <!-- 40 -->
      <defs>
       <path d="M 37.796875 64.3125 
L 12.890625 25.390625 
L 37.796875 25.390625 
z
M 35.203125 72.90625 
L 47.609375 72.90625 
L 47.609375 25.390625 
L 58.015625 25.390625 
L 58.015625 17.1875 
L 47.609375 17.1875 
L 47.609375 0 
L 37.796875 0 
L 37.796875 17.1875 
L 4.890625 17.1875 
L 4.890625 26.703125 
z
" id="DejaVuSans-34"/>
      </defs>
      <g transform="translate(487.776591 630.7175)scale(0.16 -0.16)">
       <use xlink:href="#DejaVuSans-34"/>
       <use x="63.623047" xlink:href="#DejaVuSans-30"/>
      </g>
     </g>
    </g>
    <g id="xtick_4">
     <g id="line2d_4">
      <g>
       <use style="stroke:#000000;stroke-width:0.8;" x="639.338409" xlink:href="#m420f03ee8b" y="611.56"/>
      </g>
     </g>
     <g id="text_4">
      <!-- 60 -->
      <defs>
       <path d="M 33.015625 40.375 
Q 26.375 40.375 22.484375 35.828125 
Q 18.609375 31.296875 18.609375 23.390625 
Q 18.609375 15.53125 22.484375 10.953125 
Q 26.375 6.390625 33.015625 6.390625 
Q 39.65625 6.390625 43.53125 10.953125 
Q 47.40625 15.53125 47.40625 23.390625 
Q 47.40625 31.296875 43.53125 35.828125 
Q 39.65625 40.375 33.015625 40.375 
z
M 52.59375 71.296875 
L 52.59375 62.3125 
Q 48.875 64.0625 45.09375 64.984375 
Q 41.3125 65.921875 37.59375 65.921875 
Q 27.828125 65.921875 22.671875 59.328125 
Q 17.53125 52.734375 16.796875 39.40625 
Q 19.671875 43.65625 24.015625 45.921875 
Q 28.375 48.1875 33.59375 48.1875 
Q 44.578125 48.1875 50.953125 41.515625 
Q 57.328125 34.859375 57.328125 23.390625 
Q 57.328125 12.15625 50.6875 5.359375 
Q 44.046875 -1.421875 33.015625 -1.421875 
Q 20.359375 -1.421875 13.671875 8.265625 
Q 6.984375 17.96875 6.984375 36.375 
Q 6.984375 53.65625 15.1875 63.9375 
Q 23.390625 74.21875 37.203125 74.21875 
Q 40.921875 74.21875 44.703125 73.484375 
Q 48.484375 72.75 52.59375 71.296875 
z
" id="DejaVuSans-36"/>
      </defs>
      <g transform="translate(629.158409 630.7175)scale(0.16 -0.16)">
       <use xlink:href="#DejaVuSans-36"/>
       <use x="63.623047" xlink:href="#DejaVuSans-30"/>
      </g>
     </g>
    </g>
    <g id="xtick_5">
     <g id="line2d_5">
      <g>
       <use style="stroke:#000000;stroke-width:0.8;" x="780.720227" xlink:href="#m420f03ee8b" y="611.56"/>
      </g>
     </g>
     <g id="text_5">
      <!-- 80 -->
      <defs>
       <path d="M 31.78125 34.625 
Q 24.75 34.625 20.71875 30.859375 
Q 16.703125 27.09375 16.703125 20.515625 
Q 16.703125 13.921875 20.71875 10.15625 
Q 24.75 6.390625 31.78125 6.390625 
Q 38.8125 6.390625 42.859375 10.171875 
Q 46.921875 13.96875 46.921875 20.515625 
Q 46.921875 27.09375 42.890625 30.859375 
Q 38.875 34.625 31.78125 34.625 
z
M 21.921875 38.8125 
Q 15.578125 40.375 12.03125 44.71875 
Q 8.5 49.078125 8.5 55.328125 
Q 8.5 64.0625 14.71875 69.140625 
Q 20.953125 74.21875 31.78125 74.21875 
Q 42.671875 74.21875 48.875 69.140625 
Q 55.078125 64.0625 55.078125 55.328125 
Q 55.078125 49.078125 51.53125 44.71875 
Q 48 40.375 41.703125 38.8125 
Q 48.828125 37.15625 52.796875 32.3125 
Q 56.78125 27.484375 56.78125 20.515625 
Q 56.78125 9.90625 50.3125 4.234375 
Q 43.84375 -1.421875 31.78125 -1.421875 
Q 19.734375 -1.421875 13.25 4.234375 
Q 6.78125 9.90625 6.78125 20.515625 
Q 6.78125 27.484375 10.78125 32.3125 
Q 14.796875 37.15625 21.921875 38.8125 
z
M 18.3125 54.390625 
Q 18.3125 48.734375 21.84375 45.5625 
Q 25.390625 42.390625 31.78125 42.390625 
Q 38.140625 42.390625 41.71875 45.5625 
Q 45.3125 48.734375 45.3125 54.390625 
Q 45.3125 60.0625 41.71875 63.234375 
Q 38.140625 66.40625 31.78125 66.40625 
Q 25.390625 66.40625 21.84375 63.234375 
Q 18.3125 60.0625 18.3125 54.390625 
z
" id="DejaVuSans-38"/>
      </defs>
      <g transform="translate(770.540227 630.7175)scale(0.16 -0.16)">
       <use xlink:href="#DejaVuSans-38"/>
       <use x="63.623047" xlink:href="#DejaVuSans-30"/>
      </g>
     </g>
    </g>
    <g id="xtick_6">
     <g id="line2d_6">
      <g>
       <use style="stroke:#000000;stroke-width:0.8;" x="922.102045" xlink:href="#m420f03ee8b" y="611.56"/>
      </g>
     </g>
     <g id="text_6">
      <!-- 100 -->
      <defs>
       <path d="M 12.40625 8.296875 
L 28.515625 8.296875 
L 28.515625 63.921875 
L 10.984375 60.40625 
L 10.984375 69.390625 
L 28.421875 72.90625 
L 38.28125 72.90625 
L 38.28125 8.296875 
L 54.390625 8.296875 
L 54.390625 0 
L 12.40625 0 
z
" id="DejaVuSans-31"/>
      </defs>
      <g transform="translate(906.832045 630.7175)scale(0.16 -0.16)">
       <use xlink:href="#DejaVuSans-31"/>
       <use x="63.623047" xlink:href="#DejaVuSans-30"/>
       <use x="127.246094" xlink:href="#DejaVuSans-30"/>
      </g>
     </g>
    </g>
    <g id="text_7">
     <!-- Percentage of transcripts -->
     <defs>
      <path d="M 19.671875 64.796875 
L 19.671875 37.40625 
L 32.078125 37.40625 
Q 38.96875 37.40625 42.71875 40.96875 
Q 46.484375 44.53125 46.484375 51.125 
Q 46.484375 57.671875 42.71875 61.234375 
Q 38.96875 64.796875 32.078125 64.796875 
z
M 9.8125 72.90625 
L 32.078125 72.90625 
Q 44.34375 72.90625 50.609375 67.359375 
Q 56.890625 61.8125 56.890625 51.125 
Q 56.890625 40.328125 50.609375 34.8125 
Q 44.34375 29.296875 32.078125 29.296875 
L 19.671875 29.296875 
L 19.671875 0 
L 9.8125 0 
z
" id="DejaVuSans-50"/>
      <path d="M 56.203125 29.59375 
L 56.203125 25.203125 
L 14.890625 25.203125 
Q 15.484375 15.921875 20.484375 11.0625 
Q 25.484375 6.203125 34.421875 6.203125 
Q 39.59375 6.203125 44.453125 7.46875 
Q 49.3125 8.734375 54.109375 11.28125 
L 54.109375 2.78125 
Q 49.265625 0.734375 44.1875 -0.34375 
Q 39.109375 -1.421875 33.890625 -1.421875 
Q 20.796875 -1.421875 13.15625 6.1875 
Q 5.515625 13.8125 5.515625 26.8125 
Q 5.515625 40.234375 12.765625 48.109375 
Q 20.015625 56 32.328125 56 
Q 43.359375 56 49.78125 48.890625 
Q 56.203125 41.796875 56.203125 29.59375 
z
M 47.21875 32.234375 
Q 47.125 39.59375 43.09375 43.984375 
Q 39.0625 48.390625 32.421875 48.390625 
Q 24.90625 48.390625 20.390625 44.140625 
Q 15.875 39.890625 15.1875 32.171875 
z
" id="DejaVuSans-65"/>
      <path d="M 41.109375 46.296875 
Q 39.59375 47.171875 37.8125 47.578125 
Q 36.03125 48 33.890625 48 
Q 26.265625 48 22.1875 43.046875 
Q 18.109375 38.09375 18.109375 28.8125 
L 18.109375 0 
L 9.078125 0 
L 9.078125 54.6875 
L 18.109375 54.6875 
L 18.109375 46.1875 
Q 20.953125 51.171875 25.484375 53.578125 
Q 30.03125 56 36.53125 56 
Q 37.453125 56 38.578125 55.875 
Q 39.703125 55.765625 41.0625 55.515625 
z
" id="DejaVuSans-72"/>
      <path d="M 48.78125 52.59375 
L 48.78125 44.1875 
Q 44.96875 46.296875 41.140625 47.34375 
Q 37.3125 48.390625 33.40625 48.390625 
Q 24.65625 48.390625 19.8125 42.84375 
Q 14.984375 37.3125 14.984375 27.296875 
Q 14.984375 17.28125 19.8125 11.734375 
Q 24.65625 6.203125 33.40625 6.203125 
Q 37.3125 6.203125 41.140625 7.25 
Q 44.96875 8.296875 48.78125 10.40625 
L 48.78125 2.09375 
Q 45.015625 0.34375 40.984375 -0.53125 
Q 36.96875 -1.421875 32.421875 -1.421875 
Q 20.0625 -1.421875 12.78125 6.34375 
Q 5.515625 14.109375 5.515625 27.296875 
Q 5.515625 40.671875 12.859375 48.328125 
Q 20.21875 56 33.015625 56 
Q 37.15625 56 41.109375 55.140625 
Q 45.0625 54.296875 48.78125 52.59375 
z
" id="DejaVuSans-63"/>
      <path d="M 54.890625 33.015625 
L 54.890625 0 
L 45.90625 0 
L 45.90625 32.71875 
Q 45.90625 40.484375 42.875 44.328125 
Q 39.84375 48.1875 33.796875 48.1875 
Q 26.515625 48.1875 22.3125 43.546875 
Q 18.109375 38.921875 18.109375 30.90625 
L 18.109375 0 
L 9.078125 0 
L 9.078125 54.6875 
L 18.109375 54.6875 
L 18.109375 46.1875 
Q 21.34375 51.125 25.703125 53.5625 
Q 30.078125 56 35.796875 56 
Q 45.21875 56 50.046875 50.171875 
Q 54.890625 44.34375 54.890625 33.015625 
z
" id="DejaVuSans-6e"/>
      <path d="M 18.3125 70.21875 
L 18.3125 54.6875 
L 36.8125 54.6875 
L 36.8125 47.703125 
L 18.3125 47.703125 
L 18.3125 18.015625 
Q 18.3125 11.328125 20.140625 9.421875 
Q 21.96875 7.515625 27.59375 7.515625 
L 36.8125 7.515625 
L 36.8125 0 
L 27.59375 0 
Q 17.1875 0 13.234375 3.875 
Q 9.28125 7.765625 9.28125 18.015625 
L 9.28125 47.703125 
L 2.6875 47.703125 
L 2.6875 54.6875 
L 9.28125 54.6875 
L 9.28125 70.21875 
z
" id="DejaVuSans-74"/>
      <path d="M 34.28125 27.484375 
Q 23.390625 27.484375 19.1875 25 
Q 14.984375 22.515625 14.984375 16.5 
Q 14.984375 11.71875 18.140625 8.90625 
Q 21.296875 6.109375 26.703125 6.109375 
Q 34.1875 6.109375 38.703125 11.40625 
Q 43.21875 16.703125 43.21875 25.484375 
L 43.21875 27.484375 
z
M 52.203125 31.203125 
L 52.203125 0 
L 43.21875 0 
L 43.21875 8.296875 
Q 40.140625 3.328125 35.546875 0.953125 
Q 30.953125 -1.421875 24.3125 -1.421875 
Q 15.921875 -1.421875 10.953125 3.296875 
Q 6 8.015625 6 15.921875 
Q 6 25.140625 12.171875 29.828125 
Q 18.359375 34.515625 30.609375 34.515625 
L 43.21875 34.515625 
L 43.21875 35.40625 
Q 43.21875 41.609375 39.140625 45 
Q 35.0625 48.390625 27.6875 48.390625 
Q 23 48.390625 18.546875 47.265625 
Q 14.109375 46.140625 10.015625 43.890625 
L 10.015625 52.203125 
Q 14.9375 54.109375 19.578125 55.046875 
Q 24.21875 56 28.609375 56 
Q 40.484375 56 46.34375 49.84375 
Q 52.203125 43.703125 52.203125 31.203125 
z
" id="DejaVuSans-61"/>
      <path d="M 45.40625 27.984375 
Q 45.40625 37.75 41.375 43.109375 
Q 37.359375 48.484375 30.078125 48.484375 
Q 22.859375 48.484375 18.828125 43.109375 
Q 14.796875 37.75 14.796875 27.984375 
Q 14.796875 18.265625 18.828125 12.890625 
Q 22.859375 7.515625 30.078125 7.515625 
Q 37.359375 7.515625 41.375 12.890625 
Q 45.40625 18.265625 45.40625 27.984375 
z
M 54.390625 6.78125 
Q 54.390625 -7.171875 48.1875 -13.984375 
Q 42 -20.796875 29.203125 -20.796875 
Q 24.46875 -20.796875 20.265625 -20.09375 
Q 16.0625 -19.390625 12.109375 -17.921875 
L 12.109375 -9.1875 
Q 16.0625 -11.328125 19.921875 -12.34375 
Q 23.78125 -13.375 27.78125 -13.375 
Q 36.625 -13.375 41.015625 -8.765625 
Q 45.40625 -4.15625 45.40625 5.171875 
L 45.40625 9.625 
Q 42.625 4.78125 38.28125 2.390625 
Q 33.9375 0 27.875 0 
Q 17.828125 0 11.671875 7.65625 
Q 5.515625 15.328125 5.515625 27.984375 
Q 5.515625 40.671875 11.671875 48.328125 
Q 17.828125 56 27.875 56 
Q 33.9375 56 38.28125 53.609375 
Q 42.625 51.21875 45.40625 46.390625 
L 45.40625 54.6875 
L 54.390625 54.6875 
z
" id="DejaVuSans-67"/>
      <path id="DejaVuSans-20"/>
      <path d="M 30.609375 48.390625 
Q 23.390625 48.390625 19.1875 42.75 
Q 14.984375 37.109375 14.984375 27.296875 
Q 14.984375 17.484375 19.15625 11.84375 
Q 23.34375 6.203125 30.609375 6.203125 
Q 37.796875 6.203125 41.984375 11.859375 
Q 46.1875 17.53125 46.1875 27.296875 
Q 46.1875 37.015625 41.984375 42.703125 
Q 37.796875 48.390625 30.609375 48.390625 
z
M 30.609375 56 
Q 42.328125 56 49.015625 48.375 
Q 55.71875 40.765625 55.71875 27.296875 
Q 55.71875 13.875 49.015625 6.21875 
Q 42.328125 -1.421875 30.609375 -1.421875 
Q 18.84375 -1.421875 12.171875 6.21875 
Q 5.515625 13.875 5.515625 27.296875 
Q 5.515625 40.765625 12.171875 48.375 
Q 18.84375 56 30.609375 56 
z
" id="DejaVuSans-6f"/>
      <path d="M 37.109375 75.984375 
L 37.109375 68.5 
L 28.515625 68.5 
Q 23.6875 68.5 21.796875 66.546875 
Q 19.921875 64.59375 19.921875 59.515625 
L 19.921875 54.6875 
L 34.71875 54.6875 
L 34.71875 47.703125 
L 19.921875 47.703125 
L 19.921875 0 
L 10.890625 0 
L 10.890625 47.703125 
L 2.296875 47.703125 
L 2.296875 54.6875 
L 10.890625 54.6875 
L 10.890625 58.5 
Q 10.890625 67.625 15.140625 71.796875 
Q 19.390625 75.984375 28.609375 75.984375 
z
" id="DejaVuSans-66"/>
      <path d="M 44.28125 53.078125 
L 44.28125 44.578125 
Q 40.484375 46.53125 36.375 47.5 
Q 32.28125 48.484375 27.875 48.484375 
Q 21.1875 48.484375 17.84375 46.4375 
Q 14.5 44.390625 14.5 40.28125 
Q 14.5 37.15625 16.890625 35.375 
Q 19.28125 33.59375 26.515625 31.984375 
L 29.59375 31.296875 
Q 39.15625 29.25 43.1875 25.515625 
Q 47.21875 21.78125 47.21875 15.09375 
Q 47.21875 7.46875 41.1875 3.015625 
Q 35.15625 -1.421875 24.609375 -1.421875 
Q 20.21875 -1.421875 15.453125 -0.5625 
Q 10.6875 0.296875 5.421875 2 
L 5.421875 11.28125 
Q 10.40625 8.6875 15.234375 7.390625 
Q 20.0625 6.109375 24.8125 6.109375 
Q 31.15625 6.109375 34.5625 8.28125 
Q 37.984375 10.453125 37.984375 14.40625 
Q 37.984375 18.0625 35.515625 20.015625 
Q 33.0625 21.96875 24.703125 23.78125 
L 21.578125 24.515625 
Q 13.234375 26.265625 9.515625 29.90625 
Q 5.8125 33.546875 5.8125 39.890625 
Q 5.8125 47.609375 11.28125 51.796875 
Q 16.75 56 26.8125 56 
Q 31.78125 56 36.171875 55.265625 
Q 40.578125 54.546875 44.28125 53.078125 
z
" id="DejaVuSans-73"/>
      <path d="M 9.421875 54.6875 
L 18.40625 54.6875 
L 18.40625 0 
L 9.421875 0 
z
M 9.421875 75.984375 
L 18.40625 75.984375 
L 18.40625 64.59375 
L 9.421875 64.59375 
z
" id="DejaVuSans-69"/>
      <path d="M 18.109375 8.203125 
L 18.109375 -20.796875 
L 9.078125 -20.796875 
L 9.078125 54.6875 
L 18.109375 54.6875 
L 18.109375 46.390625 
Q 20.953125 51.265625 25.265625 53.625 
Q 29.59375 56 35.59375 56 
Q 45.5625 56 51.78125 48.09375 
Q 58.015625 40.1875 58.015625 27.296875 
Q 58.015625 14.40625 51.78125 6.484375 
Q 45.5625 -1.421875 35.59375 -1.421875 
Q 29.59375 -1.421875 25.265625 0.953125 
Q 20.953125 3.328125 18.109375 8.203125 
z
M 48.6875 27.296875 
Q 48.6875 37.203125 44.609375 42.84375 
Q 40.53125 48.484375 33.40625 48.484375 
Q 26.265625 48.484375 22.1875 42.84375 
Q 18.109375 37.203125 18.109375 27.296875 
Q 18.109375 17.390625 22.1875 11.75 
Q 26.265625 6.109375 33.40625 6.109375 
Q 40.53125 6.109375 44.609375 11.75 
Q 48.6875 17.390625 48.6875 27.296875 
z
" id="DejaVuSans-70"/>
     </defs>
     <g transform="translate(467.53375 650.2025)scale(0.16 -0.16)">
      <use xlink:href="#DejaVuSans-50"/>
      <use x="60.255859" xlink:href="#DejaVuSans-65"/>
      <use x="121.779297" xlink:href="#DejaVuSans-72"/>
      <use x="162.861328" xlink:href="#DejaVuSans-63"/>
      <use x="217.841797" xlink:href="#DejaVuSans-65"/>
      <use x="279.365234" xlink:href="#DejaVuSans-6e"/>
      <use x="342.744141" xlink:href="#DejaVuSans-74"/>
      <use x="381.953125" xlink:href="#DejaVuSans-61"/>
      <use x="443.232422" xlink:href="#DejaVuSans-67"/>
      <use x="506.708984" xlink:href="#DejaVuSans-65"/>
      <use x="568.232422" xlink:href="#DejaVuSans-20"/>
      <use x="600.019531" xlink:href="#DejaVuSans-6f"/>
      <use x="661.201172" xlink:href="#DejaVuSans-66"/>
      <use x="696.40625" xlink:href="#DejaVuSans-20"/>
      <use x="728.193359" xlink:href="#DejaVuSans-74"/>
      <use x="767.402344" xlink:href="#DejaVuSans-72"/>
      <use x="808.515625" xlink:href="#DejaVuSans-61"/>
      <use x="869.794922" xlink:href="#DejaVuSans-6e"/>
      <use x="933.173828" xlink:href="#DejaVuSans-73"/>
      <use x="985.273438" xlink:href="#DejaVuSans-63"/>
      <use x="1040.253906" xlink:href="#DejaVuSans-72"/>
      <use x="1081.367188" xlink:href="#DejaVuSans-69"/>
      <use x="1109.150391" xlink:href="#DejaVuSans-70"/>
      <use x="1172.626953" xlink:href="#DejaVuSans-74"/>
      <use x="1211.835938" xlink:href="#DejaVuSans-73"/>
     </g>
    </g>
   </g>
   <g id="matplotlib.axis_2">
    <g id="ytick_1">
     <g id="line2d_7">
      <defs>
       <path d="M 0 0 
L -3.5 0 
" id="mb187b888f5" style="stroke:#000000;stroke-width:0.8;"/>
      </defs>
      <g>
       <use style="stroke:#000000;stroke-width:0.8;" x="179.8475" xlink:href="#mb187b888f5" y="580.865263"/>
      </g>
     </g>
     <g id="text_8">
      <!-- Male_T (25786) -->
      <defs>
       <path d="M 9.8125 72.90625 
L 24.515625 72.90625 
L 43.109375 23.296875 
L 61.8125 72.90625 
L 76.515625 72.90625 
L 76.515625 0 
L 66.890625 0 
L 66.890625 64.015625 
L 48.09375 14.015625 
L 38.1875 14.015625 
L 19.390625 64.015625 
L 19.390625 0 
L 9.8125 0 
z
" id="DejaVuSans-4d"/>
       <path d="M 9.421875 75.984375 
L 18.40625 75.984375 
L 18.40625 0 
L 9.421875 0 
z
" id="DejaVuSans-6c"/>
       <path d="M 50.984375 -16.609375 
L 50.984375 -23.578125 
L -0.984375 -23.578125 
L -0.984375 -16.609375 
z
" id="DejaVuSans-5f"/>
       <path d="M -0.296875 72.90625 
L 61.375 72.90625 
L 61.375 64.59375 
L 35.5 64.59375 
L 35.5 0 
L 25.59375 0 
L 25.59375 64.59375 
L -0.296875 64.59375 
z
" id="DejaVuSans-54"/>
       <path d="M 31 75.875 
Q 24.46875 64.65625 21.28125 53.65625 
Q 18.109375 42.671875 18.109375 31.390625 
Q 18.109375 20.125 21.3125 9.0625 
Q 24.515625 -2 31 -13.1875 
L 23.1875 -13.1875 
Q 15.875 -1.703125 12.234375 9.375 
Q 8.59375 20.453125 8.59375 31.390625 
Q 8.59375 42.28125 12.203125 53.3125 
Q 15.828125 64.359375 23.1875 75.875 
z
" id="DejaVuSans-28"/>
       <path d="M 10.796875 72.90625 
L 49.515625 72.90625 
L 49.515625 64.59375 
L 19.828125 64.59375 
L 19.828125 46.734375 
Q 21.96875 47.46875 24.109375 47.828125 
Q 26.265625 48.1875 28.421875 48.1875 
Q 40.625 48.1875 47.75 41.5 
Q 54.890625 34.8125 54.890625 23.390625 
Q 54.890625 11.625 47.5625 5.09375 
Q 40.234375 -1.421875 26.90625 -1.421875 
Q 22.3125 -1.421875 17.546875 -0.640625 
Q 12.796875 0.140625 7.71875 1.703125 
L 7.71875 11.625 
Q 12.109375 9.234375 16.796875 8.0625 
Q 21.484375 6.890625 26.703125 6.890625 
Q 35.15625 6.890625 40.078125 11.328125 
Q 45.015625 15.765625 45.015625 23.390625 
Q 45.015625 31 40.078125 35.4375 
Q 35.15625 39.890625 26.703125 39.890625 
Q 22.75 39.890625 18.8125 39.015625 
Q 14.890625 38.140625 10.796875 36.28125 
z
" id="DejaVuSans-35"/>
       <path d="M 8.203125 72.90625 
L 55.078125 72.90625 
L 55.078125 68.703125 
L 28.609375 0 
L 18.3125 0 
L 43.21875 64.59375 
L 8.203125 64.59375 
z
" id="DejaVuSans-37"/>
       <path d="M 8.015625 75.875 
L 15.828125 75.875 
Q 23.140625 64.359375 26.78125 53.3125 
Q 30.421875 42.28125 30.421875 31.390625 
Q 30.421875 20.453125 26.78125 9.375 
Q 23.140625 -1.703125 15.828125 -13.1875 
L 8.015625 -13.1875 
Q 14.5 -2 17.703125 9.0625 
Q 20.90625 20.125 20.90625 31.390625 
Q 20.90625 42.671875 17.703125 53.65625 
Q 14.5 64.65625 8.015625 75.875 
z
" id="DejaVuSans-29"/>
      </defs>
      <g transform="translate(48.705 586.944013)scale(0.16 -0.16)">
       <use xlink:href="#DejaVuSans-4d"/>
       <use x="86.279297" xlink:href="#DejaVuSans-61"/>
       <use x="147.558594" xlink:href="#DejaVuSans-6c"/>
       <use x="175.341797" xlink:href="#DejaVuSans-65"/>
       <use x="236.865234" xlink:href="#DejaVuSans-5f"/>
       <use x="286.865234" xlink:href="#DejaVuSans-54"/>
       <use x="347.949219" xlink:href="#DejaVuSans-20"/>
       <use x="379.736328" xlink:href="#DejaVuSans-28"/>
       <use x="418.75" xlink:href="#DejaVuSans-32"/>
       <use x="482.373047" xlink:href="#DejaVuSans-35"/>
       <use x="545.996094" xlink:href="#DejaVuSans-37"/>
       <use x="609.619141" xlink:href="#DejaVuSans-38"/>
       <use x="673.242188" xlink:href="#DejaVuSans-36"/>
       <use x="736.865234" xlink:href="#DejaVuSans-29"/>
      </g>
     </g>
    </g>
    <g id="ytick_2">
     <g id="line2d_8">
      <g>
       <use style="stroke:#000000;stroke-width:0.8;" x="179.8475" xlink:href="#mb187b888f5" y="519.475789"/>
      </g>
     </g>
     <g id="text_9">
      <!-- Male_B (22435) -->
      <defs>
       <path d="M 19.671875 34.8125 
L 19.671875 8.109375 
L 35.5 8.109375 
Q 43.453125 8.109375 47.28125 11.40625 
Q 51.125 14.703125 51.125 21.484375 
Q 51.125 28.328125 47.28125 31.5625 
Q 43.453125 34.8125 35.5 34.8125 
z
M 19.671875 64.796875 
L 19.671875 42.828125 
L 34.28125 42.828125 
Q 41.5 42.828125 45.03125 45.53125 
Q 48.578125 48.25 48.578125 53.8125 
Q 48.578125 59.328125 45.03125 62.0625 
Q 41.5 64.796875 34.28125 64.796875 
z
M 9.8125 72.90625 
L 35.015625 72.90625 
Q 46.296875 72.90625 52.390625 68.21875 
Q 58.5 63.53125 58.5 54.890625 
Q 58.5 48.1875 55.375 44.234375 
Q 52.25 40.28125 46.1875 39.3125 
Q 53.46875 37.75 57.5 32.78125 
Q 61.53125 27.828125 61.53125 20.40625 
Q 61.53125 10.640625 54.890625 5.3125 
Q 48.25 0 35.984375 0 
L 9.8125 0 
z
" id="DejaVuSans-42"/>
       <path d="M 40.578125 39.3125 
Q 47.65625 37.796875 51.625 33 
Q 55.609375 28.21875 55.609375 21.1875 
Q 55.609375 10.40625 48.1875 4.484375 
Q 40.765625 -1.421875 27.09375 -1.421875 
Q 22.515625 -1.421875 17.65625 -0.515625 
Q 12.796875 0.390625 7.625 2.203125 
L 7.625 11.71875 
Q 11.71875 9.328125 16.59375 8.109375 
Q 21.484375 6.890625 26.8125 6.890625 
Q 36.078125 6.890625 40.9375 10.546875 
Q 45.796875 14.203125 45.796875 21.1875 
Q 45.796875 27.640625 41.28125 31.265625 
Q 36.765625 34.90625 28.71875 34.90625 
L 20.21875 34.90625 
L 20.21875 43.015625 
L 29.109375 43.015625 
Q 36.375 43.015625 40.234375 45.921875 
Q 44.09375 48.828125 44.09375 54.296875 
Q 44.09375 59.90625 40.109375 62.90625 
Q 36.140625 65.921875 28.71875 65.921875 
Q 24.65625 65.921875 20.015625 65.03125 
Q 15.375 64.15625 9.8125 62.3125 
L 9.8125 71.09375 
Q 15.4375 72.65625 20.34375 73.4375 
Q 25.25 74.21875 29.59375 74.21875 
Q 40.828125 74.21875 47.359375 69.109375 
Q 53.90625 64.015625 53.90625 55.328125 
Q 53.90625 49.265625 50.4375 45.09375 
Q 46.96875 40.921875 40.578125 39.3125 
z
" id="DejaVuSans-33"/>
      </defs>
      <g transform="translate(47.5 525.554539)scale(0.16 -0.16)">
       <use xlink:href="#DejaVuSans-4d"/>
       <use x="86.279297" xlink:href="#DejaVuSans-61"/>
       <use x="147.558594" xlink:href="#DejaVuSans-6c"/>
       <use x="175.341797" xlink:href="#DejaVuSans-65"/>
       <use x="236.865234" xlink:href="#DejaVuSans-5f"/>
       <use x="286.865234" xlink:href="#DejaVuSans-42"/>
       <use x="355.46875" xlink:href="#DejaVuSans-20"/>
       <use x="387.255859" xlink:href="#DejaVuSans-28"/>
       <use x="426.269531" xlink:href="#DejaVuSans-32"/>
       <use x="489.892578" xlink:href="#DejaVuSans-32"/>
       <use x="553.515625" xlink:href="#DejaVuSans-34"/>
       <use x="617.138672" xlink:href="#DejaVuSans-33"/>
       <use x="680.761719" xlink:href="#DejaVuSans-35"/>
       <use x="744.384766" xlink:href="#DejaVuSans-29"/>
      </g>
     </g>
    </g>
    <g id="ytick_3">
     <g id="line2d_9">
      <g>
       <use style="stroke:#000000;stroke-width:0.8;" x="179.8475" xlink:href="#mb187b888f5" y="458.086316"/>
      </g>
     </g>
     <g id="text_10">
      <!-- Female_T (22236) -->
      <defs>
       <path d="M 9.8125 72.90625 
L 51.703125 72.90625 
L 51.703125 64.59375 
L 19.671875 64.59375 
L 19.671875 43.109375 
L 48.578125 43.109375 
L 48.578125 34.8125 
L 19.671875 34.8125 
L 19.671875 0 
L 9.8125 0 
z
" id="DejaVuSans-46"/>
       <path d="M 52 44.1875 
Q 55.375 50.25 60.0625 53.125 
Q 64.75 56 71.09375 56 
Q 79.640625 56 84.28125 50.015625 
Q 88.921875 44.046875 88.921875 33.015625 
L 88.921875 0 
L 79.890625 0 
L 79.890625 32.71875 
Q 79.890625 40.578125 77.09375 44.375 
Q 74.3125 48.1875 68.609375 48.1875 
Q 61.625 48.1875 57.5625 43.546875 
Q 53.515625 38.921875 53.515625 30.90625 
L 53.515625 0 
L 44.484375 0 
L 44.484375 32.71875 
Q 44.484375 40.625 41.703125 44.40625 
Q 38.921875 48.1875 33.109375 48.1875 
Q 26.21875 48.1875 22.15625 43.53125 
Q 18.109375 38.875 18.109375 30.90625 
L 18.109375 0 
L 9.078125 0 
L 9.078125 54.6875 
L 18.109375 54.6875 
L 18.109375 46.1875 
Q 21.1875 51.21875 25.484375 53.609375 
Q 29.78125 56 35.6875 56 
Q 41.65625 56 45.828125 52.96875 
Q 50 49.953125 52 44.1875 
z
" id="DejaVuSans-6d"/>
      </defs>
      <g transform="translate(27.89 464.165066)scale(0.16 -0.16)">
       <use xlink:href="#DejaVuSans-46"/>
       <use x="57.441406" xlink:href="#DejaVuSans-65"/>
       <use x="118.964844" xlink:href="#DejaVuSans-6d"/>
       <use x="216.376953" xlink:href="#DejaVuSans-61"/>
       <use x="277.65625" xlink:href="#DejaVuSans-6c"/>
       <use x="305.439453" xlink:href="#DejaVuSans-65"/>
       <use x="366.962891" xlink:href="#DejaVuSans-5f"/>
       <use x="416.962891" xlink:href="#DejaVuSans-54"/>
       <use x="478.046875" xlink:href="#DejaVuSans-20"/>
       <use x="509.833984" xlink:href="#DejaVuSans-28"/>
       <use x="548.847656" xlink:href="#DejaVuSans-32"/>
       <use x="612.470703" xlink:href="#DejaVuSans-32"/>
       <use x="676.09375" xlink:href="#DejaVuSans-32"/>
       <use x="739.716797" xlink:href="#DejaVuSans-33"/>
       <use x="803.339844" xlink:href="#DejaVuSans-36"/>
       <use x="866.962891" xlink:href="#DejaVuSans-29"/>
      </g>
     </g>
    </g>
    <g id="ytick_4">
     <g id="line2d_10">
      <g>
       <use style="stroke:#000000;stroke-width:0.8;" x="179.8475" xlink:href="#mb187b888f5" y="396.696842"/>
      </g>
     </g>
     <g id="text_11">
      <!-- Female_B (23128) -->
      <g transform="translate(26.685 402.775592)scale(0.16 -0.16)">
       <use xlink:href="#DejaVuSans-46"/>
       <use x="57.441406" xlink:href="#DejaVuSans-65"/>
       <use x="118.964844" xlink:href="#DejaVuSans-6d"/>
       <use x="216.376953" xlink:href="#DejaVuSans-61"/>
       <use x="277.65625" xlink:href="#DejaVuSans-6c"/>
       <use x="305.439453" xlink:href="#DejaVuSans-65"/>
       <use x="366.962891" xlink:href="#DejaVuSans-5f"/>
       <use x="416.962891" xlink:href="#DejaVuSans-42"/>
       <use x="485.566406" xlink:href="#DejaVuSans-20"/>
       <use x="517.353516" xlink:href="#DejaVuSans-28"/>
       <use x="556.367188" xlink:href="#DejaVuSans-32"/>
       <use x="619.990234" xlink:href="#DejaVuSans-33"/>
       <use x="683.613281" xlink:href="#DejaVuSans-31"/>
       <use x="747.236328" xlink:href="#DejaVuSans-32"/>
       <use x="810.859375" xlink:href="#DejaVuSans-38"/>
       <use x="874.482422" xlink:href="#DejaVuSans-29"/>
      </g>
     </g>
    </g>
    <g id="ytick_5">
     <g id="line2d_11">
      <g>
       <use style="stroke:#000000;stroke-width:0.8;" x="179.8475" xlink:href="#mb187b888f5" y="335.307368"/>
      </g>
     </g>
     <g id="text_12">
      <!-- Male (29486) -->
      <defs>
       <path d="M 10.984375 1.515625 
L 10.984375 10.5 
Q 14.703125 8.734375 18.5 7.8125 
Q 22.3125 6.890625 25.984375 6.890625 
Q 35.75 6.890625 40.890625 13.453125 
Q 46.046875 20.015625 46.78125 33.40625 
Q 43.953125 29.203125 39.59375 26.953125 
Q 35.25 24.703125 29.984375 24.703125 
Q 19.046875 24.703125 12.671875 31.3125 
Q 6.296875 37.9375 6.296875 49.421875 
Q 6.296875 60.640625 12.9375 67.421875 
Q 19.578125 74.21875 30.609375 74.21875 
Q 43.265625 74.21875 49.921875 64.515625 
Q 56.59375 54.828125 56.59375 36.375 
Q 56.59375 19.140625 48.40625 8.859375 
Q 40.234375 -1.421875 26.421875 -1.421875 
Q 22.703125 -1.421875 18.890625 -0.6875 
Q 15.09375 0.046875 10.984375 1.515625 
z
M 30.609375 32.421875 
Q 37.25 32.421875 41.125 36.953125 
Q 45.015625 41.5 45.015625 49.421875 
Q 45.015625 57.28125 41.125 61.84375 
Q 37.25 66.40625 30.609375 66.40625 
Q 23.96875 66.40625 20.09375 61.84375 
Q 16.21875 57.28125 16.21875 49.421875 
Q 16.21875 41.5 20.09375 36.953125 
Q 23.96875 32.421875 30.609375 32.421875 
z
" id="DejaVuSans-39"/>
      </defs>
      <g transform="translate(66.4775 341.386118)scale(0.16 -0.16)">
       <use xlink:href="#DejaVuSans-4d"/>
       <use x="86.279297" xlink:href="#DejaVuSans-61"/>
       <use x="147.558594" xlink:href="#DejaVuSans-6c"/>
       <use x="175.341797" xlink:href="#DejaVuSans-65"/>
       <use x="236.865234" xlink:href="#DejaVuSans-20"/>
       <use x="268.652344" xlink:href="#DejaVuSans-28"/>
       <use x="307.666016" xlink:href="#DejaVuSans-32"/>
       <use x="371.289062" xlink:href="#DejaVuSans-39"/>
       <use x="434.912109" xlink:href="#DejaVuSans-34"/>
       <use x="498.535156" xlink:href="#DejaVuSans-38"/>
       <use x="562.158203" xlink:href="#DejaVuSans-36"/>
       <use x="625.78125" xlink:href="#DejaVuSans-29"/>
      </g>
     </g>
    </g>
    <g id="ytick_6">
     <g id="line2d_12">
      <g>
       <use style="stroke:#000000;stroke-width:0.8;" x="179.8475" xlink:href="#mb187b888f5" y="273.917895"/>
      </g>
     </g>
     <g id="text_13">
      <!-- Female (28062) -->
      <g transform="translate(45.6625 279.996645)scale(0.16 -0.16)">
       <use xlink:href="#DejaVuSans-46"/>
       <use x="57.441406" xlink:href="#DejaVuSans-65"/>
       <use x="118.964844" xlink:href="#DejaVuSans-6d"/>
       <use x="216.376953" xlink:href="#DejaVuSans-61"/>
       <use x="277.65625" xlink:href="#DejaVuSans-6c"/>
       <use x="305.439453" xlink:href="#DejaVuSans-65"/>
       <use x="366.962891" xlink:href="#DejaVuSans-20"/>
       <use x="398.75" xlink:href="#DejaVuSans-28"/>
       <use x="437.763672" xlink:href="#DejaVuSans-32"/>
       <use x="501.386719" xlink:href="#DejaVuSans-38"/>
       <use x="565.009766" xlink:href="#DejaVuSans-30"/>
       <use x="628.632812" xlink:href="#DejaVuSans-36"/>
       <use x="692.255859" xlink:href="#DejaVuSans-32"/>
       <use x="755.878906" xlink:href="#DejaVuSans-29"/>
      </g>
     </g>
    </g>
    <g id="ytick_7">
     <g id="line2d_13">
      <g>
       <use style="stroke:#000000;stroke-width:0.8;" x="179.8475" xlink:href="#mb187b888f5" y="212.528421"/>
      </g>
     </g>
     <g id="text_14">
      <!-- T (27700) -->
      <g transform="translate(94.605 218.607171)scale(0.16 -0.16)">
       <use xlink:href="#DejaVuSans-54"/>
       <use x="61.083984" xlink:href="#DejaVuSans-20"/>
       <use x="92.871094" xlink:href="#DejaVuSans-28"/>
       <use x="131.884766" xlink:href="#DejaVuSans-32"/>
       <use x="195.507812" xlink:href="#DejaVuSans-37"/>
       <use x="259.130859" xlink:href="#DejaVuSans-37"/>
       <use x="322.753906" xlink:href="#DejaVuSans-30"/>
       <use x="386.376953" xlink:href="#DejaVuSans-30"/>
       <use x="450" xlink:href="#DejaVuSans-29"/>
      </g>
     </g>
    </g>
    <g id="ytick_8">
     <g id="line2d_14">
      <g>
       <use style="stroke:#000000;stroke-width:0.8;" x="179.8475" xlink:href="#mb187b888f5" y="151.138947"/>
      </g>
     </g>
     <g id="text_15">
      <!-- B (26202) -->
      <g transform="translate(93.4 157.217697)scale(0.16 -0.16)">
       <use xlink:href="#DejaVuSans-42"/>
       <use x="68.603516" xlink:href="#DejaVuSans-20"/>
       <use x="100.390625" xlink:href="#DejaVuSans-28"/>
       <use x="139.404297" xlink:href="#DejaVuSans-32"/>
       <use x="203.027344" xlink:href="#DejaVuSans-36"/>
       <use x="266.650391" xlink:href="#DejaVuSans-32"/>
       <use x="330.273438" xlink:href="#DejaVuSans-30"/>
       <use x="393.896484" xlink:href="#DejaVuSans-32"/>
       <use x="457.519531" xlink:href="#DejaVuSans-29"/>
      </g>
     </g>
    </g>
    <g id="ytick_9">
     <g id="line2d_15">
      <g>
       <use style="stroke:#000000;stroke-width:0.8;" x="179.8475" xlink:href="#mb187b888f5" y="89.749474"/>
      </g>
     </g>
     <g id="text_16">
      <!-- ALL (33785) -->
      <defs>
       <path d="M 34.1875 63.1875 
L 20.796875 26.90625 
L 47.609375 26.90625 
z
M 28.609375 72.90625 
L 39.796875 72.90625 
L 67.578125 0 
L 57.328125 0 
L 50.6875 18.703125 
L 17.828125 18.703125 
L 11.1875 0 
L 0.78125 0 
z
" id="DejaVuSans-41"/>
       <path d="M 9.8125 72.90625 
L 19.671875 72.90625 
L 19.671875 8.296875 
L 55.171875 8.296875 
L 55.171875 0 
L 9.8125 0 
z
" id="DejaVuSans-4c"/>
      </defs>
      <g transform="translate(75.6025 95.828224)scale(0.16 -0.16)">
       <use xlink:href="#DejaVuSans-41"/>
       <use x="68.408203" xlink:href="#DejaVuSans-4c"/>
       <use x="124.121094" xlink:href="#DejaVuSans-4c"/>
       <use x="179.833984" xlink:href="#DejaVuSans-20"/>
       <use x="211.621094" xlink:href="#DejaVuSans-28"/>
       <use x="250.634766" xlink:href="#DejaVuSans-33"/>
       <use x="314.257812" xlink:href="#DejaVuSans-33"/>
       <use x="377.880859" xlink:href="#DejaVuSans-37"/>
       <use x="441.503906" xlink:href="#DejaVuSans-38"/>
       <use x="505.126953" xlink:href="#DejaVuSans-35"/>
       <use x="568.75" xlink:href="#DejaVuSans-29"/>
      </g>
     </g>
    </g>
    <g id="text_17">
     <!-- Region set -->
     <defs>
      <path d="M 44.390625 34.1875 
Q 47.5625 33.109375 50.5625 29.59375 
Q 53.5625 26.078125 56.59375 19.921875 
L 66.609375 0 
L 56 0 
L 46.6875 18.703125 
Q 43.0625 26.03125 39.671875 28.421875 
Q 36.28125 30.8125 30.421875 30.8125 
L 19.671875 30.8125 
L 19.671875 0 
L 9.8125 0 
L 9.8125 72.90625 
L 32.078125 72.90625 
Q 44.578125 72.90625 50.734375 67.671875 
Q 56.890625 62.453125 56.890625 51.90625 
Q 56.890625 45.015625 53.6875 40.46875 
Q 50.484375 35.9375 44.390625 34.1875 
z
M 19.671875 64.796875 
L 19.671875 38.921875 
L 32.078125 38.921875 
Q 39.203125 38.921875 42.84375 42.21875 
Q 46.484375 45.515625 46.484375 51.90625 
Q 46.484375 58.296875 42.84375 61.546875 
Q 39.203125 64.796875 32.078125 64.796875 
z
" id="DejaVuSans-52"/>
     </defs>
     <g transform="translate(19.3575 362.47125)rotate(-90)scale(0.16 -0.16)">
      <use xlink:href="#DejaVuSans-52"/>
      <use x="69.419922" xlink:href="#DejaVuSans-65"/>
      <use x="130.943359" xlink:href="#DejaVuSans-67"/>
      <use x="194.419922" xlink:href="#DejaVuSans-69"/>
      <use x="222.203125" xlink:href="#DejaVuSans-6f"/>
      <use x="283.384766" xlink:href="#DejaVuSans-6e"/>
      <use x="346.763672" xlink:href="#DejaVuSans-20"/>
      <use x="378.550781" xlink:href="#DejaVuSans-73"/>
      <use x="430.650391" xlink:href="#DejaVuSans-65"/>
      <use x="492.173828" xlink:href="#DejaVuSans-74"/>
     </g>
    </g>
   </g>
   <g id="patch_93">
    <path d="M 179.8475 611.56 
L 179.8475 28.36 
" style="fill:none;stroke:#000000;stroke-linecap:square;stroke-linejoin:miter;stroke-width:0.8;"/>
   </g>
   <g id="patch_94">
    <path d="M 179.8475 611.56 
L 957.4475 611.56 
" style="fill:none;stroke:#000000;stroke-linecap:square;stroke-linejoin:miter;stroke-width:0.8;"/>
   </g>
   <g id="text_18">
    <!-- = -->
    <defs>
     <path d="M 10.59375 45.40625 
L 73.1875 45.40625 
L 73.1875 37.203125 
L 10.59375 37.203125 
z
M 10.59375 25.484375 
L 73.1875 25.484375 
L 73.1875 17.1875 
L 10.59375 17.1875 
z
" id="DejaVuSans-3d"/>
    </defs>
    <g transform="translate(311.283353 577.457826)scale(0.12 -0.12)">
     <use xlink:href="#DejaVuSans-3d"/>
    </g>
    <!-- 28.61 -->
    <defs>
     <path d="M 10.6875 12.40625 
L 21 12.40625 
L 21 0 
L 10.6875 0 
z
" id="DejaVuSans-2e"/>
    </defs>
    <g transform="translate(299.13429 590.895201)scale(0.12 -0.12)">
     <use xlink:href="#DejaVuSans-32"/>
     <use x="63.623047" xlink:href="#DejaVuSans-38"/>
     <use x="127.246094" xlink:href="#DejaVuSans-2e"/>
     <use x="159.033203" xlink:href="#DejaVuSans-36"/>
     <use x="222.65625" xlink:href="#DejaVuSans-31"/>
    </g>
   </g>
   <g id="text_19">
    <!-- c -->
    <g transform="translate(440.050679 577.457826)scale(0.12 -0.12)">
     <use xlink:href="#DejaVuSans-63"/>
    </g>
    <!-- 7.33 -->
    <g transform="translate(429.990367 590.895201)scale(0.12 -0.12)">
     <use xlink:href="#DejaVuSans-37"/>
     <use x="63.623047" xlink:href="#DejaVuSans-2e"/>
     <use x="95.410156" xlink:href="#DejaVuSans-33"/>
     <use x="159.033203" xlink:href="#DejaVuSans-33"/>
    </g>
   </g>
   <g id="text_20">
    <!-- j -->
    <defs>
     <path d="M 9.421875 54.6875 
L 18.40625 54.6875 
L 18.40625 -0.984375 
Q 18.40625 -11.421875 14.421875 -16.109375 
Q 10.453125 -20.796875 1.609375 -20.796875 
L -1.8125 -20.796875 
L -1.8125 -13.1875 
L 0.59375 -13.1875 
Q 5.71875 -13.1875 7.5625 -10.8125 
Q 9.421875 -8.453125 9.421875 -0.984375 
z
M 9.421875 75.984375 
L 18.40625 75.984375 
L 18.40625 64.59375 
L 9.421875 64.59375 
z
" id="DejaVuSans-6a"/>
    </defs>
    <g transform="translate(545.748131 577.457826)scale(0.12 -0.12)">
     <use xlink:href="#DejaVuSans-6a"/>
    </g>
    <!-- 22.11 -->
    <g transform="translate(530.238131 590.895201)scale(0.12 -0.12)">
     <use xlink:href="#DejaVuSans-32"/>
     <use x="63.623047" xlink:href="#DejaVuSans-32"/>
     <use x="127.246094" xlink:href="#DejaVuSans-2e"/>
     <use x="159.033203" xlink:href="#DejaVuSans-31"/>
     <use x="222.65625" xlink:href="#DejaVuSans-31"/>
    </g>
   </g>
   <g id="text_21">
    <!-- i -->
    <g transform="translate(649.429593 577.457826)scale(0.12 -0.12)">
     <use xlink:href="#DejaVuSans-69"/>
    </g>
    <!-- 5.39 -->
    <g transform="translate(637.737093 590.895201)scale(0.12 -0.12)">
     <use xlink:href="#DejaVuSans-35"/>
     <use x="63.623047" xlink:href="#DejaVuSans-2e"/>
     <use x="95.410156" xlink:href="#DejaVuSans-33"/>
     <use x="159.033203" xlink:href="#DejaVuSans-39"/>
    </g>
   </g>
   <g id="text_22">
    <!-- x -->
    <defs>
     <path d="M 54.890625 54.6875 
L 35.109375 28.078125 
L 55.90625 0 
L 45.3125 0 
L 29.390625 21.484375 
L 13.484375 0 
L 2.875 0 
L 24.125 28.609375 
L 4.6875 54.6875 
L 15.28125 54.6875 
L 29.78125 35.203125 
L 44.28125 54.6875 
z
" id="DejaVuSans-78"/>
    </defs>
    <g transform="translate(737.149358 577.457826)scale(0.12 -0.12)">
     <use xlink:href="#DejaVuSans-78"/>
    </g>
    <!-- 19.96 -->
    <g transform="translate(723.523733 590.895201)scale(0.12 -0.12)">
     <use xlink:href="#DejaVuSans-31"/>
     <use x="63.623047" xlink:href="#DejaVuSans-39"/>
     <use x="127.246094" xlink:href="#DejaVuSans-2e"/>
     <use x="159.033203" xlink:href="#DejaVuSans-39"/>
     <use x="222.65625" xlink:href="#DejaVuSans-36"/>
    </g>
   </g>
   <g id="text_23">
    <!-- u -->
    <defs>
     <path d="M 8.5 21.578125 
L 8.5 54.6875 
L 17.484375 54.6875 
L 17.484375 21.921875 
Q 17.484375 14.15625 20.5 10.265625 
Q 23.53125 6.390625 29.59375 6.390625 
Q 36.859375 6.390625 41.078125 11.03125 
Q 45.3125 15.671875 45.3125 23.6875 
L 45.3125 54.6875 
L 54.296875 54.6875 
L 54.296875 0 
L 45.3125 0 
L 45.3125 8.40625 
Q 42.046875 3.421875 37.71875 1 
Q 33.40625 -1.421875 27.6875 -1.421875 
Q 18.265625 -1.421875 13.375 4.4375 
Q 8.5 10.296875 8.5 21.578125 
z
M 31.109375 56 
z
" id="DejaVuSans-75"/>
    </defs>
    <g transform="translate(857.905505 577.457826)scale(0.12 -0.12)">
     <use xlink:href="#DejaVuSans-75"/>
    </g>
    <!-- 14.28 -->
    <g transform="translate(844.53113 590.895201)scale(0.12 -0.12)">
     <use xlink:href="#DejaVuSans-31"/>
     <use x="63.623047" xlink:href="#DejaVuSans-34"/>
     <use x="127.246094" xlink:href="#DejaVuSans-2e"/>
     <use x="159.033203" xlink:href="#DejaVuSans-32"/>
     <use x="222.65625" xlink:href="#DejaVuSans-38"/>
    </g>
   </g>
   <g id="text_24">
    <!-- = -->
    <g transform="translate(328.765803 516.068352)scale(0.12 -0.12)">
     <use xlink:href="#DejaVuSans-3d"/>
    </g>
    <!-- 33.55 -->
    <g transform="translate(316.61674 529.505727)scale(0.12 -0.12)">
     <use xlink:href="#DejaVuSans-33"/>
     <use x="63.623047" xlink:href="#DejaVuSans-33"/>
     <use x="127.246094" xlink:href="#DejaVuSans-2e"/>
     <use x="159.033203" xlink:href="#DejaVuSans-35"/>
     <use x="222.65625" xlink:href="#DejaVuSans-35"/>
    </g>
   </g>
   <g id="text_25">
    <!-- c -->
    <g transform="translate(472.475046 516.068352)scale(0.12 -0.12)">
     <use xlink:href="#DejaVuSans-63"/>
    </g>
    <!-- 6.61 -->
    <g transform="translate(462.414733 529.505727)scale(0.12 -0.12)">
     <use xlink:href="#DejaVuSans-36"/>
     <use x="63.623047" xlink:href="#DejaVuSans-2e"/>
     <use x="95.410156" xlink:href="#DejaVuSans-36"/>
     <use x="159.033203" xlink:href="#DejaVuSans-31"/>
    </g>
   </g>
   <g id="text_26">
    <!-- j -->
    <g transform="translate(582.782493 516.068352)scale(0.12 -0.12)">
     <use xlink:href="#DejaVuSans-6a"/>
    </g>
    <!-- 24.13 -->
    <g transform="translate(567.272493 529.505727)scale(0.12 -0.12)">
     <use xlink:href="#DejaVuSans-32"/>
     <use x="63.623047" xlink:href="#DejaVuSans-34"/>
     <use x="127.246094" xlink:href="#DejaVuSans-2e"/>
     <use x="159.033203" xlink:href="#DejaVuSans-31"/>
     <use x="222.65625" xlink:href="#DejaVuSans-33"/>
    </g>
   </g>
   <g id="text_27">
    <!-- x -->
    <g transform="translate(761.209563 516.068352)scale(0.12 -0.12)">
     <use xlink:href="#DejaVuSans-78"/>
    </g>
    <!-- 19.20 -->
    <g transform="translate(747.583938 529.505727)scale(0.12 -0.12)">
     <use xlink:href="#DejaVuSans-31"/>
     <use x="63.623047" xlink:href="#DejaVuSans-39"/>
     <use x="127.246094" xlink:href="#DejaVuSans-2e"/>
     <use x="159.033203" xlink:href="#DejaVuSans-32"/>
     <use x="222.65625" xlink:href="#DejaVuSans-30"/>
    </g>
   </g>
   <g id="text_28">
    <!-- u -->
    <g transform="translate(867.97934 516.068352)scale(0.12 -0.12)">
     <use xlink:href="#DejaVuSans-75"/>
    </g>
    <!-- 11.08 -->
    <g transform="translate(854.604965 529.505727)scale(0.12 -0.12)">
     <use xlink:href="#DejaVuSans-31"/>
     <use x="63.623047" xlink:href="#DejaVuSans-31"/>
     <use x="127.246094" xlink:href="#DejaVuSans-2e"/>
     <use x="159.033203" xlink:href="#DejaVuSans-30"/>
     <use x="222.65625" xlink:href="#DejaVuSans-38"/>
    </g>
   </g>
   <g id="text_29">
    <!-- = -->
    <g transform="translate(325.074429 454.678878)scale(0.12 -0.12)">
     <use xlink:href="#DejaVuSans-3d"/>
    </g>
    <!-- 32.51 -->
    <g transform="translate(312.925367 468.116253)scale(0.12 -0.12)">
     <use xlink:href="#DejaVuSans-33"/>
     <use x="63.623047" xlink:href="#DejaVuSans-32"/>
     <use x="127.246094" xlink:href="#DejaVuSans-2e"/>
     <use x="159.033203" xlink:href="#DejaVuSans-35"/>
     <use x="222.65625" xlink:href="#DejaVuSans-31"/>
    </g>
   </g>
   <g id="text_30">
    <!-- c -->
    <g transform="translate(462.710553 454.678878)scale(0.12 -0.12)">
     <use xlink:href="#DejaVuSans-63"/>
    </g>
    <!-- 5.94 -->
    <g transform="translate(452.65024 468.116253)scale(0.12 -0.12)">
     <use xlink:href="#DejaVuSans-35"/>
     <use x="63.623047" xlink:href="#DejaVuSans-2e"/>
     <use x="95.410156" xlink:href="#DejaVuSans-39"/>
     <use x="159.033203" xlink:href="#DejaVuSans-34"/>
    </g>
   </g>
   <g id="text_31">
    <!-- j -->
    <g transform="translate(574.356183 454.678878)scale(0.12 -0.12)">
     <use xlink:href="#DejaVuSans-6a"/>
    </g>
    <!-- 25.18 -->
    <g transform="translate(558.846183 468.116253)scale(0.12 -0.12)">
     <use xlink:href="#DejaVuSans-32"/>
     <use x="63.623047" xlink:href="#DejaVuSans-35"/>
     <use x="127.246094" xlink:href="#DejaVuSans-2e"/>
     <use x="159.033203" xlink:href="#DejaVuSans-31"/>
     <use x="222.65625" xlink:href="#DejaVuSans-38"/>
    </g>
   </g>
   <g id="text_32">
    <!-- x -->
    <g transform="translate(756.60643 454.678878)scale(0.12 -0.12)">
     <use xlink:href="#DejaVuSans-78"/>
    </g>
    <!-- 19.09 -->
    <g transform="translate(742.980805 468.116253)scale(0.12 -0.12)">
     <use xlink:href="#DejaVuSans-31"/>
     <use x="63.623047" xlink:href="#DejaVuSans-39"/>
     <use x="127.246094" xlink:href="#DejaVuSans-2e"/>
     <use x="159.033203" xlink:href="#DejaVuSans-30"/>
     <use x="222.65625" xlink:href="#DejaVuSans-39"/>
    </g>
   </g>
   <g id="text_33">
    <!-- u -->
    <g transform="translate(864.159134 454.678878)scale(0.12 -0.12)">
     <use xlink:href="#DejaVuSans-75"/>
    </g>
    <!-- 11.41 -->
    <g transform="translate(850.784759 468.116253)scale(0.12 -0.12)">
     <use xlink:href="#DejaVuSans-31"/>
     <use x="63.623047" xlink:href="#DejaVuSans-31"/>
     <use x="127.246094" xlink:href="#DejaVuSans-2e"/>
     <use x="159.033203" xlink:href="#DejaVuSans-34"/>
     <use x="222.65625" xlink:href="#DejaVuSans-31"/>
    </g>
   </g>
   <g id="text_34">
    <!-- = -->
    <g transform="translate(324.616071 393.289405)scale(0.12 -0.12)">
     <use xlink:href="#DejaVuSans-3d"/>
    </g>
    <!-- 32.38 -->
    <g transform="translate(312.467009 406.72678)scale(0.12 -0.12)">
     <use xlink:href="#DejaVuSans-33"/>
     <use x="63.623047" xlink:href="#DejaVuSans-32"/>
     <use x="127.246094" xlink:href="#DejaVuSans-2e"/>
     <use x="159.033203" xlink:href="#DejaVuSans-33"/>
     <use x="222.65625" xlink:href="#DejaVuSans-38"/>
    </g>
   </g>
   <g id="text_35">
    <!-- c -->
    <g transform="translate(463.933513 393.289405)scale(0.12 -0.12)">
     <use xlink:href="#DejaVuSans-63"/>
    </g>
    <!-- 6.55 -->
    <g transform="translate(453.873201 406.72678)scale(0.12 -0.12)">
     <use xlink:href="#DejaVuSans-36"/>
     <use x="63.623047" xlink:href="#DejaVuSans-2e"/>
     <use x="95.410156" xlink:href="#DejaVuSans-35"/>
     <use x="159.033203" xlink:href="#DejaVuSans-35"/>
    </g>
   </g>
   <g id="text_36">
    <!-- j -->
    <g transform="translate(570.189958 393.289405)scale(0.12 -0.12)">
     <use xlink:href="#DejaVuSans-6a"/>
    </g>
    <!-- 23.05 -->
    <g transform="translate(554.679958 406.72678)scale(0.12 -0.12)">
     <use xlink:href="#DejaVuSans-32"/>
     <use x="63.623047" xlink:href="#DejaVuSans-33"/>
     <use x="127.246094" xlink:href="#DejaVuSans-2e"/>
     <use x="159.033203" xlink:href="#DejaVuSans-30"/>
     <use x="222.65625" xlink:href="#DejaVuSans-35"/>
    </g>
   </g>
   <g id="text_37">
    <!-- x -->
    <g transform="translate(751.665477 393.289405)scale(0.12 -0.12)">
     <use xlink:href="#DejaVuSans-78"/>
    </g>
    <!-- 19.00 -->
    <g transform="translate(738.039852 406.72678)scale(0.12 -0.12)">
     <use xlink:href="#DejaVuSans-31"/>
     <use x="63.623047" xlink:href="#DejaVuSans-39"/>
     <use x="127.246094" xlink:href="#DejaVuSans-2e"/>
     <use x="159.033203" xlink:href="#DejaVuSans-30"/>
     <use x="222.65625" xlink:href="#DejaVuSans-30"/>
    </g>
   </g>
   <g id="text_38">
    <!-- u -->
    <g transform="translate(862.732236 393.289405)scale(0.12 -0.12)">
     <use xlink:href="#DejaVuSans-75"/>
    </g>
    <!-- 12.50 -->
    <g transform="translate(849.357861 406.72678)scale(0.12 -0.12)">
     <use xlink:href="#DejaVuSans-31"/>
     <use x="63.623047" xlink:href="#DejaVuSans-32"/>
     <use x="127.246094" xlink:href="#DejaVuSans-2e"/>
     <use x="159.033203" xlink:href="#DejaVuSans-35"/>
     <use x="222.65625" xlink:href="#DejaVuSans-30"/>
    </g>
   </g>
   <g id="text_39">
    <!-- = -->
    <g transform="translate(305.822989 331.899931)scale(0.12 -0.12)">
     <use xlink:href="#DejaVuSans-3d"/>
    </g>
    <!-- 27.06 -->
    <g transform="translate(293.673926 345.337306)scale(0.12 -0.12)">
     <use xlink:href="#DejaVuSans-32"/>
     <use x="63.623047" xlink:href="#DejaVuSans-37"/>
     <use x="127.246094" xlink:href="#DejaVuSans-2e"/>
     <use x="159.033203" xlink:href="#DejaVuSans-30"/>
     <use x="222.65625" xlink:href="#DejaVuSans-36"/>
    </g>
   </g>
   <g id="text_40">
    <!-- c -->
    <g transform="translate(423.0484 331.899931)scale(0.12 -0.12)">
     <use xlink:href="#DejaVuSans-63"/>
    </g>
    <!-- 5.61 -->
    <g transform="translate(412.988087 345.337306)scale(0.12 -0.12)">
     <use xlink:href="#DejaVuSans-35"/>
     <use x="63.623047" xlink:href="#DejaVuSans-2e"/>
     <use x="95.410156" xlink:href="#DejaVuSans-36"/>
     <use x="159.033203" xlink:href="#DejaVuSans-31"/>
    </g>
   </g>
   <g id="text_41">
    <!-- j -->
    <g transform="translate(548.628224 331.899931)scale(0.12 -0.12)">
     <use xlink:href="#DejaVuSans-6a"/>
    </g>
    <!-- 29.45 -->
    <g transform="translate(533.118224 345.337306)scale(0.12 -0.12)">
     <use xlink:href="#DejaVuSans-32"/>
     <use x="63.623047" xlink:href="#DejaVuSans-39"/>
     <use x="127.246094" xlink:href="#DejaVuSans-2e"/>
     <use x="159.033203" xlink:href="#DejaVuSans-34"/>
     <use x="222.65625" xlink:href="#DejaVuSans-35"/>
    </g>
   </g>
   <g id="text_42">
    <!-- x -->
    <g transform="translate(744.424745 331.899931)scale(0.12 -0.12)">
     <use xlink:href="#DejaVuSans-78"/>
    </g>
    <!-- 16.90 -->
    <g transform="translate(730.79912 345.337306)scale(0.12 -0.12)">
     <use xlink:href="#DejaVuSans-31"/>
     <use x="63.623047" xlink:href="#DejaVuSans-36"/>
     <use x="127.246094" xlink:href="#DejaVuSans-2e"/>
     <use x="159.033203" xlink:href="#DejaVuSans-39"/>
     <use x="222.65625" xlink:href="#DejaVuSans-30"/>
    </g>
   </g>
   <g id="text_43">
    <!-- u -->
    <g transform="translate(855.067071 331.899931)scale(0.12 -0.12)">
     <use xlink:href="#DejaVuSans-75"/>
    </g>
    <!-- 14.47 -->
    <g transform="translate(841.692696 345.337306)scale(0.12 -0.12)">
     <use xlink:href="#DejaVuSans-31"/>
     <use x="63.623047" xlink:href="#DejaVuSans-34"/>
     <use x="127.246094" xlink:href="#DejaVuSans-2e"/>
     <use x="159.033203" xlink:href="#DejaVuSans-34"/>
     <use x="222.65625" xlink:href="#DejaVuSans-37"/>
    </g>
   </g>
   <g id="text_44">
    <!-- = -->
    <g transform="translate(309.556127 270.510457)scale(0.12 -0.12)">
     <use xlink:href="#DejaVuSans-3d"/>
    </g>
    <!-- 28.12 -->
    <g transform="translate(297.407064 283.947832)scale(0.12 -0.12)">
     <use xlink:href="#DejaVuSans-32"/>
     <use x="63.623047" xlink:href="#DejaVuSans-38"/>
     <use x="127.246094" xlink:href="#DejaVuSans-2e"/>
     <use x="159.033203" xlink:href="#DejaVuSans-31"/>
     <use x="222.65625" xlink:href="#DejaVuSans-32"/>
    </g>
   </g>
   <g id="text_45">
    <!-- j -->
    <g transform="translate(554.800789 270.510457)scale(0.12 -0.12)">
     <use xlink:href="#DejaVuSans-6a"/>
    </g>
    <!-- 30.32 -->
    <g transform="translate(539.290789 283.947832)scale(0.12 -0.12)">
     <use xlink:href="#DejaVuSans-33"/>
     <use x="63.623047" xlink:href="#DejaVuSans-30"/>
     <use x="127.246094" xlink:href="#DejaVuSans-2e"/>
     <use x="159.033203" xlink:href="#DejaVuSans-33"/>
     <use x="222.65625" xlink:href="#DejaVuSans-32"/>
    </g>
   </g>
   <g id="text_46">
    <!-- x -->
    <g transform="translate(749.242264 270.510457)scale(0.12 -0.12)">
     <use xlink:href="#DejaVuSans-78"/>
    </g>
    <!-- 16.69 -->
    <g transform="translate(735.616639 283.947832)scale(0.12 -0.12)">
     <use xlink:href="#DejaVuSans-31"/>
     <use x="63.623047" xlink:href="#DejaVuSans-36"/>
     <use x="127.246094" xlink:href="#DejaVuSans-2e"/>
     <use x="159.033203" xlink:href="#DejaVuSans-36"/>
     <use x="222.65625" xlink:href="#DejaVuSans-39"/>
    </g>
   </g>
   <g id="text_47">
    <!-- u -->
    <g transform="translate(855.511045 270.510457)scale(0.12 -0.12)">
     <use xlink:href="#DejaVuSans-75"/>
    </g>
    <!-- 13.45 -->
    <g transform="translate(842.13667 283.947832)scale(0.12 -0.12)">
     <use xlink:href="#DejaVuSans-31"/>
     <use x="63.623047" xlink:href="#DejaVuSans-33"/>
     <use x="127.246094" xlink:href="#DejaVuSans-2e"/>
     <use x="159.033203" xlink:href="#DejaVuSans-34"/>
     <use x="222.65625" xlink:href="#DejaVuSans-35"/>
    </g>
   </g>
   <g id="text_48">
    <!-- = -->
    <g transform="translate(305.202306 209.120984)scale(0.12 -0.12)">
     <use xlink:href="#DejaVuSans-3d"/>
    </g>
    <!-- 26.89 -->
    <g transform="translate(293.053244 222.558359)scale(0.12 -0.12)">
     <use xlink:href="#DejaVuSans-32"/>
     <use x="63.623047" xlink:href="#DejaVuSans-36"/>
     <use x="127.246094" xlink:href="#DejaVuSans-2e"/>
     <use x="159.033203" xlink:href="#DejaVuSans-38"/>
     <use x="222.65625" xlink:href="#DejaVuSans-39"/>
    </g>
   </g>
   <g id="text_49">
    <!-- c -->
    <g transform="translate(422.141926 209.120984)scale(0.12 -0.12)">
     <use xlink:href="#DejaVuSans-63"/>
    </g>
    <!-- 5.71 -->
    <g transform="translate(412.081614 222.558359)scale(0.12 -0.12)">
     <use xlink:href="#DejaVuSans-35"/>
     <use x="63.623047" xlink:href="#DejaVuSans-2e"/>
     <use x="95.410156" xlink:href="#DejaVuSans-37"/>
     <use x="159.033203" xlink:href="#DejaVuSans-31"/>
    </g>
   </g>
   <g id="text_50">
    <!-- j -->
    <g transform="translate(549.67794 209.120984)scale(0.12 -0.12)">
     <use xlink:href="#DejaVuSans-6a"/>
    </g>
    <!-- 29.91 -->
    <g transform="translate(534.16794 222.558359)scale(0.12 -0.12)">
     <use xlink:href="#DejaVuSans-32"/>
     <use x="63.623047" xlink:href="#DejaVuSans-39"/>
     <use x="127.246094" xlink:href="#DejaVuSans-2e"/>
     <use x="159.033203" xlink:href="#DejaVuSans-39"/>
     <use x="222.65625" xlink:href="#DejaVuSans-31"/>
    </g>
   </g>
   <g id="text_51">
    <!-- x -->
    <g transform="translate(750.245183 209.120984)scale(0.12 -0.12)">
     <use xlink:href="#DejaVuSans-78"/>
    </g>
    <!-- 17.15 -->
    <g transform="translate(736.619558 222.558359)scale(0.12 -0.12)">
     <use xlink:href="#DejaVuSans-31"/>
     <use x="63.623047" xlink:href="#DejaVuSans-37"/>
     <use x="127.246094" xlink:href="#DejaVuSans-2e"/>
     <use x="159.033203" xlink:href="#DejaVuSans-31"/>
     <use x="222.65625" xlink:href="#DejaVuSans-35"/>
    </g>
   </g>
   <g id="text_52">
    <!-- u -->
    <g transform="translate(857.587028 209.120984)scale(0.12 -0.12)">
     <use xlink:href="#DejaVuSans-75"/>
    </g>
    <!-- 13.29 -->
    <g transform="translate(844.212653 222.558359)scale(0.12 -0.12)">
     <use xlink:href="#DejaVuSans-31"/>
     <use x="63.623047" xlink:href="#DejaVuSans-33"/>
     <use x="127.246094" xlink:href="#DejaVuSans-2e"/>
     <use x="159.033203" xlink:href="#DejaVuSans-32"/>
     <use x="222.65625" xlink:href="#DejaVuSans-39"/>
    </g>
   </g>
   <g id="text_53">
    <!-- = -->
    <g transform="translate(314.22393 147.73151)scale(0.12 -0.12)">
     <use xlink:href="#DejaVuSans-3d"/>
    </g>
    <!-- 29.44 -->
    <g transform="translate(302.074868 161.168885)scale(0.12 -0.12)">
     <use xlink:href="#DejaVuSans-32"/>
     <use x="63.623047" xlink:href="#DejaVuSans-39"/>
     <use x="127.246094" xlink:href="#DejaVuSans-2e"/>
     <use x="159.033203" xlink:href="#DejaVuSans-34"/>
     <use x="222.65625" xlink:href="#DejaVuSans-34"/>
    </g>
   </g>
   <g id="text_54">
    <!-- c -->
    <g transform="translate(439.153213 147.73151)scale(0.12 -0.12)">
     <use xlink:href="#DejaVuSans-63"/>
    </g>
    <!-- 5.42 -->
    <g transform="translate(429.0929 161.168885)scale(0.12 -0.12)">
     <use xlink:href="#DejaVuSans-35"/>
     <use x="63.623047" xlink:href="#DejaVuSans-2e"/>
     <use x="95.410156" xlink:href="#DejaVuSans-34"/>
     <use x="159.033203" xlink:href="#DejaVuSans-32"/>
    </g>
   </g>
   <g id="text_55">
    <!-- j -->
    <g transform="translate(565.834009 147.73151)scale(0.12 -0.12)">
     <use xlink:href="#DejaVuSans-6a"/>
    </g>
    <!-- 29.96 -->
    <g transform="translate(550.324009 161.168885)scale(0.12 -0.12)">
     <use xlink:href="#DejaVuSans-32"/>
     <use x="63.623047" xlink:href="#DejaVuSans-39"/>
     <use x="127.246094" xlink:href="#DejaVuSans-2e"/>
     <use x="159.033203" xlink:href="#DejaVuSans-39"/>
     <use x="222.65625" xlink:href="#DejaVuSans-36"/>
    </g>
   </g>
   <g id="text_56">
    <!-- x -->
    <g transform="translate(759.52188 147.73151)scale(0.12 -0.12)">
     <use xlink:href="#DejaVuSans-78"/>
    </g>
    <!-- 17.04 -->
    <g transform="translate(745.896255 161.168885)scale(0.12 -0.12)">
     <use xlink:href="#DejaVuSans-31"/>
     <use x="63.623047" xlink:href="#DejaVuSans-37"/>
     <use x="127.246094" xlink:href="#DejaVuSans-2e"/>
     <use x="159.033203" xlink:href="#DejaVuSans-30"/>
     <use x="222.65625" xlink:href="#DejaVuSans-34"/>
    </g>
   </g>
   <g id="text_57">
    <!-- u -->
    <g transform="translate(861.886031 147.73151)scale(0.12 -0.12)">
     <use xlink:href="#DejaVuSans-75"/>
    </g>
    <!-- 11.99 -->
    <g transform="translate(848.511656 161.168885)scale(0.12 -0.12)">
     <use xlink:href="#DejaVuSans-31"/>
     <use x="63.623047" xlink:href="#DejaVuSans-31"/>
     <use x="127.246094" xlink:href="#DejaVuSans-2e"/>
     <use x="159.033203" xlink:href="#DejaVuSans-39"/>
     <use x="222.65625" xlink:href="#DejaVuSans-39"/>
    </g>
   </g>
   <g id="text_58">
    <!-- = -->
    <g transform="translate(293.399843 86.342036)scale(0.12 -0.12)">
     <use xlink:href="#DejaVuSans-3d"/>
    </g>
    <!-- 23.55 -->
    <g transform="translate(281.25078 99.779411)scale(0.12 -0.12)">
     <use xlink:href="#DejaVuSans-32"/>
     <use x="63.623047" xlink:href="#DejaVuSans-33"/>
     <use x="127.246094" xlink:href="#DejaVuSans-2e"/>
     <use x="159.033203" xlink:href="#DejaVuSans-35"/>
     <use x="222.65625" xlink:href="#DejaVuSans-35"/>
    </g>
   </g>
   <g id="text_59">
    <!-- j -->
    <g transform="translate(537.017807 86.342036)scale(0.12 -0.12)">
     <use xlink:href="#DejaVuSans-6a"/>
    </g>
    <!-- 35.67 -->
    <g transform="translate(521.507807 99.779411)scale(0.12 -0.12)">
     <use xlink:href="#DejaVuSans-33"/>
     <use x="63.623047" xlink:href="#DejaVuSans-35"/>
     <use x="127.246094" xlink:href="#DejaVuSans-2e"/>
     <use x="159.033203" xlink:href="#DejaVuSans-36"/>
     <use x="222.65625" xlink:href="#DejaVuSans-37"/>
    </g>
   </g>
   <g id="text_60">
    <!-- x -->
    <g transform="translate(747.718791 86.342036)scale(0.12 -0.12)">
     <use xlink:href="#DejaVuSans-78"/>
    </g>
    <!-- 15.52 -->
    <g transform="translate(734.093166 99.779411)scale(0.12 -0.12)">
     <use xlink:href="#DejaVuSans-31"/>
     <use x="63.623047" xlink:href="#DejaVuSans-35"/>
     <use x="127.246094" xlink:href="#DejaVuSans-2e"/>
     <use x="159.033203" xlink:href="#DejaVuSans-35"/>
     <use x="222.65625" xlink:href="#DejaVuSans-32"/>
    </g>
   </g>
   <g id="text_61">
    <!-- u -->
    <g transform="translate(851.929392 86.342036)scale(0.12 -0.12)">
     <use xlink:href="#DejaVuSans-75"/>
    </g>
    <!-- 14.03 -->
    <g transform="translate(838.555017 99.779411)scale(0.12 -0.12)">
     <use xlink:href="#DejaVuSans-31"/>
     <use x="63.623047" xlink:href="#DejaVuSans-34"/>
     <use x="127.246094" xlink:href="#DejaVuSans-2e"/>
     <use x="159.033203" xlink:href="#DejaVuSans-30"/>
     <use x="222.65625" xlink:href="#DejaVuSans-33"/>
    </g>
   </g>
   <g id="legend_1">
    <g id="patch_95">
     <path d="M 1007.5275 246.85 
L 1301.4575 246.85 
Q 1304.6575 246.85 1304.6575 243.65 
L 1304.6575 10.4 
Q 1304.6575 7.2 1301.4575 7.2 
L 1007.5275 7.2 
Q 1004.3275 7.2 1004.3275 10.4 
L 1004.3275 243.65 
Q 1004.3275 246.85 1007.5275 246.85 
z
" style="fill:#ffffff;opacity:0.8;stroke:#cccccc;stroke-linejoin:miter;"/>
    </g>
    <g id="patch_96">
     <path d="M 1010.7275 25.7575 
L 1042.7275 25.7575 
L 1042.7275 14.5575 
L 1010.7275 14.5575 
z
" style="fill:#157f3b;stroke:#157f3b;stroke-linejoin:miter;"/>
    </g>
    <g id="text_62">
     <!-- =: complete match -->
     <defs>
      <path d="M 11.71875 12.40625 
L 22.015625 12.40625 
L 22.015625 0 
L 11.71875 0 
z
M 11.71875 51.703125 
L 22.015625 51.703125 
L 22.015625 39.3125 
L 11.71875 39.3125 
z
" id="DejaVuSans-3a"/>
      <path d="M 54.890625 33.015625 
L 54.890625 0 
L 45.90625 0 
L 45.90625 32.71875 
Q 45.90625 40.484375 42.875 44.328125 
Q 39.84375 48.1875 33.796875 48.1875 
Q 26.515625 48.1875 22.3125 43.546875 
Q 18.109375 38.921875 18.109375 30.90625 
L 18.109375 0 
L 9.078125 0 
L 9.078125 75.984375 
L 18.109375 75.984375 
L 18.109375 46.1875 
Q 21.34375 51.125 25.703125 53.5625 
Q 30.078125 56 35.796875 56 
Q 45.21875 56 50.046875 50.171875 
Q 54.890625 44.34375 54.890625 33.015625 
z
" id="DejaVuSans-68"/>
     </defs>
     <g transform="translate(1055.5275 25.7575)scale(0.16 -0.16)">
      <use xlink:href="#DejaVuSans-3d"/>
      <use x="83.789062" xlink:href="#DejaVuSans-3a"/>
      <use x="117.480469" xlink:href="#DejaVuSans-20"/>
      <use x="149.267578" xlink:href="#DejaVuSans-63"/>
      <use x="204.248047" xlink:href="#DejaVuSans-6f"/>
      <use x="265.429688" xlink:href="#DejaVuSans-6d"/>
      <use x="362.841797" xlink:href="#DejaVuSans-70"/>
      <use x="426.318359" xlink:href="#DejaVuSans-6c"/>
      <use x="454.101562" xlink:href="#DejaVuSans-65"/>
      <use x="515.625" xlink:href="#DejaVuSans-74"/>
      <use x="554.833984" xlink:href="#DejaVuSans-65"/>
      <use x="616.357422" xlink:href="#DejaVuSans-20"/>
      <use x="648.144531" xlink:href="#DejaVuSans-6d"/>
      <use x="745.556641" xlink:href="#DejaVuSans-61"/>
      <use x="806.835938" xlink:href="#DejaVuSans-74"/>
      <use x="846.044922" xlink:href="#DejaVuSans-63"/>
      <use x="901.025391" xlink:href="#DejaVuSans-68"/>
     </g>
    </g>
    <g id="patch_97">
     <path d="M 1010.7275 49.2425 
L 1042.7275 49.2425 
L 1042.7275 38.0425 
L 1010.7275 38.0425 
z
" style="fill:#4bb062;stroke:#4bb062;stroke-linejoin:miter;"/>
    </g>
    <g id="text_63">
     <!-- c: query contained in ref -->
     <defs>
      <path d="M 14.796875 27.296875 
Q 14.796875 17.390625 18.875 11.75 
Q 22.953125 6.109375 30.078125 6.109375 
Q 37.203125 6.109375 41.296875 11.75 
Q 45.40625 17.390625 45.40625 27.296875 
Q 45.40625 37.203125 41.296875 42.84375 
Q 37.203125 48.484375 30.078125 48.484375 
Q 22.953125 48.484375 18.875 42.84375 
Q 14.796875 37.203125 14.796875 27.296875 
z
M 45.40625 8.203125 
Q 42.578125 3.328125 38.25 0.953125 
Q 33.9375 -1.421875 27.875 -1.421875 
Q 17.96875 -1.421875 11.734375 6.484375 
Q 5.515625 14.40625 5.515625 27.296875 
Q 5.515625 40.1875 11.734375 48.09375 
Q 17.96875 56 27.875 56 
Q 33.9375 56 38.25 53.625 
Q 42.578125 51.265625 45.40625 46.390625 
L 45.40625 54.6875 
L 54.390625 54.6875 
L 54.390625 -20.796875 
L 45.40625 -20.796875 
z
" id="DejaVuSans-71"/>
      <path d="M 32.171875 -5.078125 
Q 28.375 -14.84375 24.75 -17.8125 
Q 21.140625 -20.796875 15.09375 -20.796875 
L 7.90625 -20.796875 
L 7.90625 -13.28125 
L 13.1875 -13.28125 
Q 16.890625 -13.28125 18.9375 -11.515625 
Q 21 -9.765625 23.484375 -3.21875 
L 25.09375 0.875 
L 2.984375 54.6875 
L 12.5 54.6875 
L 29.59375 11.921875 
L 46.6875 54.6875 
L 56.203125 54.6875 
z
" id="DejaVuSans-79"/>
      <path d="M 45.40625 46.390625 
L 45.40625 75.984375 
L 54.390625 75.984375 
L 54.390625 0 
L 45.40625 0 
L 45.40625 8.203125 
Q 42.578125 3.328125 38.25 0.953125 
Q 33.9375 -1.421875 27.875 -1.421875 
Q 17.96875 -1.421875 11.734375 6.484375 
Q 5.515625 14.40625 5.515625 27.296875 
Q 5.515625 40.1875 11.734375 48.09375 
Q 17.96875 56 27.875 56 
Q 33.9375 56 38.25 53.625 
Q 42.578125 51.265625 45.40625 46.390625 
z
M 14.796875 27.296875 
Q 14.796875 17.390625 18.875 11.75 
Q 22.953125 6.109375 30.078125 6.109375 
Q 37.203125 6.109375 41.296875 11.75 
Q 45.40625 17.390625 45.40625 27.296875 
Q 45.40625 37.203125 41.296875 42.84375 
Q 37.203125 48.484375 30.078125 48.484375 
Q 22.953125 48.484375 18.875 42.84375 
Q 14.796875 37.203125 14.796875 27.296875 
z
" id="DejaVuSans-64"/>
     </defs>
     <g transform="translate(1055.5275 49.2425)scale(0.16 -0.16)">
      <use xlink:href="#DejaVuSans-63"/>
      <use x="54.980469" xlink:href="#DejaVuSans-3a"/>
      <use x="88.671875" xlink:href="#DejaVuSans-20"/>
      <use x="120.458984" xlink:href="#DejaVuSans-71"/>
      <use x="183.935547" xlink:href="#DejaVuSans-75"/>
      <use x="247.314453" xlink:href="#DejaVuSans-65"/>
      <use x="308.837891" xlink:href="#DejaVuSans-72"/>
      <use x="349.951172" xlink:href="#DejaVuSans-79"/>
      <use x="409.130859" xlink:href="#DejaVuSans-20"/>
      <use x="440.917969" xlink:href="#DejaVuSans-63"/>
      <use x="495.898438" xlink:href="#DejaVuSans-6f"/>
      <use x="557.080078" xlink:href="#DejaVuSans-6e"/>
      <use x="620.458984" xlink:href="#DejaVuSans-74"/>
      <use x="659.667969" xlink:href="#DejaVuSans-61"/>
      <use x="720.947266" xlink:href="#DejaVuSans-69"/>
      <use x="748.730469" xlink:href="#DejaVuSans-6e"/>
      <use x="812.109375" xlink:href="#DejaVuSans-65"/>
      <use x="873.632812" xlink:href="#DejaVuSans-64"/>
      <use x="937.109375" xlink:href="#DejaVuSans-20"/>
      <use x="968.896484" xlink:href="#DejaVuSans-69"/>
      <use x="996.679688" xlink:href="#DejaVuSans-6e"/>
      <use x="1060.058594" xlink:href="#DejaVuSans-20"/>
      <use x="1091.845703" xlink:href="#DejaVuSans-72"/>
      <use x="1132.927734" xlink:href="#DejaVuSans-65"/>
      <use x="1194.451172" xlink:href="#DejaVuSans-66"/>
     </g>
    </g>
    <g id="patch_98">
     <path d="M 1010.7275 72.7275 
L 1042.7275 72.7275 
L 1042.7275 61.5275 
L 1010.7275 61.5275 
z
" style="fill:#98d594;stroke:#98d594;stroke-linejoin:miter;"/>
    </g>
    <g id="text_64">
     <!-- j: possible novel isoform -->
     <defs>
      <path d="M 48.6875 27.296875 
Q 48.6875 37.203125 44.609375 42.84375 
Q 40.53125 48.484375 33.40625 48.484375 
Q 26.265625 48.484375 22.1875 42.84375 
Q 18.109375 37.203125 18.109375 27.296875 
Q 18.109375 17.390625 22.1875 11.75 
Q 26.265625 6.109375 33.40625 6.109375 
Q 40.53125 6.109375 44.609375 11.75 
Q 48.6875 17.390625 48.6875 27.296875 
z
M 18.109375 46.390625 
Q 20.953125 51.265625 25.265625 53.625 
Q 29.59375 56 35.59375 56 
Q 45.5625 56 51.78125 48.09375 
Q 58.015625 40.1875 58.015625 27.296875 
Q 58.015625 14.40625 51.78125 6.484375 
Q 45.5625 -1.421875 35.59375 -1.421875 
Q 29.59375 -1.421875 25.265625 0.953125 
Q 20.953125 3.328125 18.109375 8.203125 
L 18.109375 0 
L 9.078125 0 
L 9.078125 75.984375 
L 18.109375 75.984375 
z
" id="DejaVuSans-62"/>
      <path d="M 2.984375 54.6875 
L 12.5 54.6875 
L 29.59375 8.796875 
L 46.6875 54.6875 
L 56.203125 54.6875 
L 35.6875 0 
L 23.484375 0 
z
" id="DejaVuSans-76"/>
     </defs>
     <g transform="translate(1055.5275 72.7275)scale(0.16 -0.16)">
      <use xlink:href="#DejaVuSans-6a"/>
      <use x="27.783203" xlink:href="#DejaVuSans-3a"/>
      <use x="61.474609" xlink:href="#DejaVuSans-20"/>
      <use x="93.261719" xlink:href="#DejaVuSans-70"/>
      <use x="156.738281" xlink:href="#DejaVuSans-6f"/>
      <use x="217.919922" xlink:href="#DejaVuSans-73"/>
      <use x="270.019531" xlink:href="#DejaVuSans-73"/>
      <use x="322.119141" xlink:href="#DejaVuSans-69"/>
      <use x="349.902344" xlink:href="#DejaVuSans-62"/>
      <use x="413.378906" xlink:href="#DejaVuSans-6c"/>
      <use x="441.162109" xlink:href="#DejaVuSans-65"/>
      <use x="502.685547" xlink:href="#DejaVuSans-20"/>
      <use x="534.472656" xlink:href="#DejaVuSans-6e"/>
      <use x="597.851562" xlink:href="#DejaVuSans-6f"/>
      <use x="659.033203" xlink:href="#DejaVuSans-76"/>
      <use x="718.212891" xlink:href="#DejaVuSans-65"/>
      <use x="779.736328" xlink:href="#DejaVuSans-6c"/>
      <use x="807.519531" xlink:href="#DejaVuSans-20"/>
      <use x="839.306641" xlink:href="#DejaVuSans-69"/>
      <use x="867.089844" xlink:href="#DejaVuSans-73"/>
      <use x="919.189453" xlink:href="#DejaVuSans-6f"/>
      <use x="980.371094" xlink:href="#DejaVuSans-66"/>
      <use x="1015.576172" xlink:href="#DejaVuSans-6f"/>
      <use x="1076.757812" xlink:href="#DejaVuSans-72"/>
      <use x="1117.855469" xlink:href="#DejaVuSans-6d"/>
     </g>
    </g>
    <g id="patch_99">
     <path d="M 1010.7275 96.2125 
L 1042.7275 96.2125 
L 1042.7275 85.0125 
L 1010.7275 85.0125 
z
" style="fill:#d3eecd;stroke:#d3eecd;stroke-linejoin:miter;"/>
    </g>
    <g id="text_65">
     <!-- e: possible pre-mRNA -->
     <defs>
      <path d="M 4.890625 31.390625 
L 31.203125 31.390625 
L 31.203125 23.390625 
L 4.890625 23.390625 
z
" id="DejaVuSans-2d"/>
      <path d="M 9.8125 72.90625 
L 23.09375 72.90625 
L 55.421875 11.921875 
L 55.421875 72.90625 
L 64.984375 72.90625 
L 64.984375 0 
L 51.703125 0 
L 19.390625 60.984375 
L 19.390625 0 
L 9.8125 0 
z
" id="DejaVuSans-4e"/>
     </defs>
     <g transform="translate(1055.5275 96.2125)scale(0.16 -0.16)">
      <use xlink:href="#DejaVuSans-65"/>
      <use x="61.523438" xlink:href="#DejaVuSans-3a"/>
      <use x="95.214844" xlink:href="#DejaVuSans-20"/>
      <use x="127.001953" xlink:href="#DejaVuSans-70"/>
      <use x="190.478516" xlink:href="#DejaVuSans-6f"/>
      <use x="251.660156" xlink:href="#DejaVuSans-73"/>
      <use x="303.759766" xlink:href="#DejaVuSans-73"/>
      <use x="355.859375" xlink:href="#DejaVuSans-69"/>
      <use x="383.642578" xlink:href="#DejaVuSans-62"/>
      <use x="447.119141" xlink:href="#DejaVuSans-6c"/>
      <use x="474.902344" xlink:href="#DejaVuSans-65"/>
      <use x="536.425781" xlink:href="#DejaVuSans-20"/>
      <use x="568.212891" xlink:href="#DejaVuSans-70"/>
      <use x="631.689453" xlink:href="#DejaVuSans-72"/>
      <use x="672.771484" xlink:href="#DejaVuSans-65"/>
      <use x="734.294922" xlink:href="#DejaVuSans-2d"/>
      <use x="770.378906" xlink:href="#DejaVuSans-6d"/>
      <use x="867.791016" xlink:href="#DejaVuSans-52"/>
      <use x="937.273438" xlink:href="#DejaVuSans-4e"/>
      <use x="1012.078125" xlink:href="#DejaVuSans-41"/>
     </g>
    </g>
    <g id="patch_100">
     <path d="M 1010.7275 119.6975 
L 1042.7275 119.6975 
L 1042.7275 108.4975 
L 1010.7275 108.4975 
z
" style="fill:#0000ff;stroke:#0000ff;stroke-linejoin:miter;"/>
    </g>
    <g id="text_66">
     <!-- i: intronic -->
     <g transform="translate(1055.5275 119.6975)scale(0.16 -0.16)">
      <use xlink:href="#DejaVuSans-69"/>
      <use x="27.783203" xlink:href="#DejaVuSans-3a"/>
      <use x="61.474609" xlink:href="#DejaVuSans-20"/>
      <use x="93.261719" xlink:href="#DejaVuSans-69"/>
      <use x="121.044922" xlink:href="#DejaVuSans-6e"/>
      <use x="184.423828" xlink:href="#DejaVuSans-74"/>
      <use x="223.632812" xlink:href="#DejaVuSans-72"/>
      <use x="264.714844" xlink:href="#DejaVuSans-6f"/>
      <use x="325.896484" xlink:href="#DejaVuSans-6e"/>
      <use x="389.275391" xlink:href="#DejaVuSans-69"/>
      <use x="417.058594" xlink:href="#DejaVuSans-63"/>
     </g>
    </g>
    <g id="patch_101">
     <path d="M 1010.7275 143.1825 
L 1042.7275 143.1825 
L 1042.7275 131.9825 
L 1010.7275 131.9825 
z
" style="fill:#800080;stroke:#800080;stroke-linejoin:miter;"/>
    </g>
    <g id="text_67">
     <!-- x: antisense exon overlap -->
     <g transform="translate(1055.5275 143.1825)scale(0.16 -0.16)">
      <use xlink:href="#DejaVuSans-78"/>
      <use x="59.179688" xlink:href="#DejaVuSans-3a"/>
      <use x="92.871094" xlink:href="#DejaVuSans-20"/>
      <use x="124.658203" xlink:href="#DejaVuSans-61"/>
      <use x="185.9375" xlink:href="#DejaVuSans-6e"/>
      <use x="249.316406" xlink:href="#DejaVuSans-74"/>
      <use x="288.525391" xlink:href="#DejaVuSans-69"/>
      <use x="316.308594" xlink:href="#DejaVuSans-73"/>
      <use x="368.408203" xlink:href="#DejaVuSans-65"/>
      <use x="429.931641" xlink:href="#DejaVuSans-6e"/>
      <use x="493.310547" xlink:href="#DejaVuSans-73"/>
      <use x="545.410156" xlink:href="#DejaVuSans-65"/>
      <use x="606.933594" xlink:href="#DejaVuSans-20"/>
      <use x="638.720703" xlink:href="#DejaVuSans-65"/>
      <use x="700.228516" xlink:href="#DejaVuSans-78"/>
      <use x="759.361328" xlink:href="#DejaVuSans-6f"/>
      <use x="820.542969" xlink:href="#DejaVuSans-6e"/>
      <use x="883.921875" xlink:href="#DejaVuSans-20"/>
      <use x="915.708984" xlink:href="#DejaVuSans-6f"/>
      <use x="976.890625" xlink:href="#DejaVuSans-76"/>
      <use x="1036.070312" xlink:href="#DejaVuSans-65"/>
      <use x="1097.59375" xlink:href="#DejaVuSans-72"/>
      <use x="1138.707031" xlink:href="#DejaVuSans-6c"/>
      <use x="1166.490234" xlink:href="#DejaVuSans-61"/>
      <use x="1227.769531" xlink:href="#DejaVuSans-70"/>
     </g>
    </g>
    <g id="patch_102">
     <path d="M 1010.7275 166.6675 
L 1042.7275 166.6675 
L 1042.7275 155.4675 
L 1010.7275 155.4675 
z
" style="fill:#ff0000;stroke:#ff0000;stroke-linejoin:miter;"/>
    </g>
    <g id="text_68">
     <!-- u: novel transcript -->
     <g transform="translate(1055.5275 166.6675)scale(0.16 -0.16)">
      <use xlink:href="#DejaVuSans-75"/>
      <use x="63.378906" xlink:href="#DejaVuSans-3a"/>
      <use x="97.070312" xlink:href="#DejaVuSans-20"/>
      <use x="128.857422" xlink:href="#DejaVuSans-6e"/>
      <use x="192.236328" xlink:href="#DejaVuSans-6f"/>
      <use x="253.417969" xlink:href="#DejaVuSans-76"/>
      <use x="312.597656" xlink:href="#DejaVuSans-65"/>
      <use x="374.121094" xlink:href="#DejaVuSans-6c"/>
      <use x="401.904297" xlink:href="#DejaVuSans-20"/>
      <use x="433.691406" xlink:href="#DejaVuSans-74"/>
      <use x="472.900391" xlink:href="#DejaVuSans-72"/>
      <use x="514.013672" xlink:href="#DejaVuSans-61"/>
      <use x="575.292969" xlink:href="#DejaVuSans-6e"/>
      <use x="638.671875" xlink:href="#DejaVuSans-73"/>
      <use x="690.771484" xlink:href="#DejaVuSans-63"/>
      <use x="745.751953" xlink:href="#DejaVuSans-72"/>
      <use x="786.865234" xlink:href="#DejaVuSans-69"/>
      <use x="814.648438" xlink:href="#DejaVuSans-70"/>
      <use x="878.125" xlink:href="#DejaVuSans-74"/>
     </g>
    </g>
    <g id="patch_103">
     <path d="M 1010.7275 190.1525 
L 1042.7275 190.1525 
L 1042.7275 178.9525 
L 1010.7275 178.9525 
z
" style="fill:#ffa500;stroke:#ffa500;stroke-linejoin:miter;"/>
    </g>
    <g id="text_69">
     <!-- o: exon overlap -->
     <g transform="translate(1055.5275 190.1525)scale(0.16 -0.16)">
      <use xlink:href="#DejaVuSans-6f"/>
      <use x="61.181641" xlink:href="#DejaVuSans-3a"/>
      <use x="94.873047" xlink:href="#DejaVuSans-20"/>
      <use x="126.660156" xlink:href="#DejaVuSans-65"/>
      <use x="188.167969" xlink:href="#DejaVuSans-78"/>
      <use x="247.300781" xlink:href="#DejaVuSans-6f"/>
      <use x="308.482422" xlink:href="#DejaVuSans-6e"/>
      <use x="371.861328" xlink:href="#DejaVuSans-20"/>
      <use x="403.648438" xlink:href="#DejaVuSans-6f"/>
      <use x="464.830078" xlink:href="#DejaVuSans-76"/>
      <use x="524.009766" xlink:href="#DejaVuSans-65"/>
      <use x="585.533203" xlink:href="#DejaVuSans-72"/>
      <use x="626.646484" xlink:href="#DejaVuSans-6c"/>
      <use x="654.429688" xlink:href="#DejaVuSans-61"/>
      <use x="715.708984" xlink:href="#DejaVuSans-70"/>
     </g>
    </g>
    <g id="patch_104">
     <path d="M 1010.7275 213.6375 
L 1042.7275 213.6375 
L 1042.7275 202.4375 
L 1010.7275 202.4375 
z
" style="fill:#808080;stroke:#808080;stroke-linejoin:miter;"/>
    </g>
    <g id="text_70">
     <!-- p: possible polymerase run-on -->
     <g transform="translate(1055.5275 213.6375)scale(0.16 -0.16)">
      <use xlink:href="#DejaVuSans-70"/>
      <use x="63.476562" xlink:href="#DejaVuSans-3a"/>
      <use x="97.167969" xlink:href="#DejaVuSans-20"/>
      <use x="128.955078" xlink:href="#DejaVuSans-70"/>
      <use x="192.431641" xlink:href="#DejaVuSans-6f"/>
      <use x="253.613281" xlink:href="#DejaVuSans-73"/>
      <use x="305.712891" xlink:href="#DejaVuSans-73"/>
      <use x="357.8125" xlink:href="#DejaVuSans-69"/>
      <use x="385.595703" xlink:href="#DejaVuSans-62"/>
      <use x="449.072266" xlink:href="#DejaVuSans-6c"/>
      <use x="476.855469" xlink:href="#DejaVuSans-65"/>
      <use x="538.378906" xlink:href="#DejaVuSans-20"/>
      <use x="570.166016" xlink:href="#DejaVuSans-70"/>
      <use x="633.642578" xlink:href="#DejaVuSans-6f"/>
      <use x="694.824219" xlink:href="#DejaVuSans-6c"/>
      <use x="722.607422" xlink:href="#DejaVuSans-79"/>
      <use x="781.787109" xlink:href="#DejaVuSans-6d"/>
      <use x="879.199219" xlink:href="#DejaVuSans-65"/>
      <use x="940.722656" xlink:href="#DejaVuSans-72"/>
      <use x="981.835938" xlink:href="#DejaVuSans-61"/>
      <use x="1043.115234" xlink:href="#DejaVuSans-73"/>
      <use x="1095.214844" xlink:href="#DejaVuSans-65"/>
      <use x="1156.738281" xlink:href="#DejaVuSans-20"/>
      <use x="1188.525391" xlink:href="#DejaVuSans-72"/>
      <use x="1229.638672" xlink:href="#DejaVuSans-75"/>
      <use x="1293.017578" xlink:href="#DejaVuSans-6e"/>
      <use x="1356.396484" xlink:href="#DejaVuSans-2d"/>
      <use x="1392.496094" xlink:href="#DejaVuSans-6f"/>
      <use x="1453.677734" xlink:href="#DejaVuSans-6e"/>
     </g>
    </g>
    <g id="patch_105">
     <path d="M 1010.7275 237.1225 
L 1042.7275 237.1225 
L 1042.7275 225.9225 
L 1010.7275 225.9225 
z
" style="fill:#f5f5dc;stroke:#f5f5dc;stroke-linejoin:miter;"/>
    </g>
    <g id="text_71">
     <!-- s: probable false positive -->
     <g transform="translate(1055.5275 237.1225)scale(0.16 -0.16)">
      <use xlink:href="#DejaVuSans-73"/>
      <use x="52.099609" xlink:href="#DejaVuSans-3a"/>
      <use x="85.791016" xlink:href="#DejaVuSans-20"/>
      <use x="117.578125" xlink:href="#DejaVuSans-70"/>
      <use x="181.054688" xlink:href="#DejaVuSans-72"/>
      <use x="222.136719" xlink:href="#DejaVuSans-6f"/>
      <use x="283.318359" xlink:href="#DejaVuSans-62"/>
      <use x="346.794922" xlink:href="#DejaVuSans-61"/>
      <use x="408.074219" xlink:href="#DejaVuSans-62"/>
      <use x="471.550781" xlink:href="#DejaVuSans-6c"/>
      <use x="499.333984" xlink:href="#DejaVuSans-65"/>
      <use x="560.857422" xlink:href="#DejaVuSans-20"/>
      <use x="592.644531" xlink:href="#DejaVuSans-66"/>
      <use x="627.849609" xlink:href="#DejaVuSans-61"/>
      <use x="689.128906" xlink:href="#DejaVuSans-6c"/>
      <use x="716.912109" xlink:href="#DejaVuSans-73"/>
      <use x="769.011719" xlink:href="#DejaVuSans-65"/>
      <use x="830.535156" xlink:href="#DejaVuSans-20"/>
      <use x="862.322266" xlink:href="#DejaVuSans-70"/>
      <use x="925.798828" xlink:href="#DejaVuSans-6f"/>
      <use x="986.980469" xlink:href="#DejaVuSans-73"/>
      <use x="1039.080078" xlink:href="#DejaVuSans-69"/>
      <use x="1066.863281" xlink:href="#DejaVuSans-74"/>
      <use x="1106.072266" xlink:href="#DejaVuSans-69"/>
      <use x="1133.855469" xlink:href="#DejaVuSans-76"/>
      <use x="1193.035156" xlink:href="#DejaVuSans-65"/>
     </g>
    </g>
   </g>
  </g>
 </g>
 <defs>
  <clipPath id="p02dc10157d">
   <rect height="583.2" width="777.6" x="179.8475" y="28.36"/>
  </clipPath>
 </defs>
</svg>
