<?xml version="1.0" encoding="utf-8" standalone="no"?>
<!DOCTYPE svg PUBLIC "-//W3C//DTD SVG 1.1//EN"
  "http://www.w3.org/Graphics/SVG/1.1/DTD/svg11.dtd">
<!-- Created with matplotlib (http://matplotlib.org/) -->
<svg height="432pt" version="1.1" viewBox="0 0 864 432" width="864pt" xmlns="http://www.w3.org/2000/svg" xmlns:xlink="http://www.w3.org/1999/xlink">
 <defs>
  <style type="text/css">
*{stroke-linecap:butt;stroke-linejoin:round;}
  </style>
 </defs>
 <g id="figure_1">
  <g id="patch_1">
   <path d="
M0 432
L864 432
L864 0
L0 0
z
" style="fill:#ffffff;"/>
  </g>
  <g id="axes_1">
   <g id="patch_2">
    <path d="
M108 322.473
L777.6 322.473
L777.6 43.2
L108 43.2
z
" style="fill:#ffffff;"/>
   </g>
   <g id="patch_3">
    <path clip-path="url(#p9fd4257182)" d="
M737.634 322.473
L740.249 322.473
L740.249 43.2
L737.634 43.2
z
" style="fill:#008000;opacity:0.2;"/>
   </g>
   <g id="patch_4">
    <path clip-path="url(#p9fd4257182)" d="
M602.683 322.473
L610.004 322.473
L610.004 43.2
L602.683 43.2
z
" style="fill:#008000;opacity:0.2;"/>
   </g>
   <g id="patch_5">
    <path clip-path="url(#p9fd4257182)" d="
M572.092 322.473
L575.491 322.473
L575.491 43.2
L572.092 43.2
z
" style="fill:#008000;opacity:0.2;"/>
   </g>
   <g id="patch_6">
    <path clip-path="url(#p9fd4257182)" d="
M555.732 322.473
L558.907 322.473
L558.907 43.2
L555.732 43.2
z
" style="fill:#008000;opacity:0.2;"/>
   </g>
   <g id="patch_7">
    <path clip-path="url(#p9fd4257182)" d="
M548.523 322.473
L552.819 322.473
L552.819 43.2
L548.523 43.2
z
" style="fill:#008000;opacity:0.2;"/>
   </g>
   <g id="patch_8">
    <path clip-path="url(#p9fd4257182)" d="
M484.764 322.473
L488.425 322.473
L488.425 43.2
L484.764 43.2
z
" style="fill:#008000;opacity:0.2;"/>
   </g>
   <g id="patch_9">
    <path clip-path="url(#p9fd4257182)" d="
M397.399 322.473
L398.781 322.473
L398.781 43.2
L397.399 43.2
z
" style="fill:#008000;opacity:0.2;"/>
   </g>
   <g id="patch_10">
    <path clip-path="url(#p9fd4257182)" d="
M375.063 322.473
L378.724 322.473
L378.724 43.2
L375.063 43.2
z
" style="fill:#008000;opacity:0.2;"/>
   </g>
   <g id="patch_11">
    <path clip-path="url(#p9fd4257182)" d="
M281.087 322.473
L285.42 322.473
L285.42 43.2
L281.087 43.2
z
" style="fill:#008000;opacity:0.2;"/>
   </g>
   <g id="patch_12">
    <path clip-path="url(#p9fd4257182)" d="
M212.323 322.473
L217.066 322.473
L217.066 43.2
L212.323 43.2
z
" style="fill:#008000;opacity:0.2;"/>
   </g>
   <g id="patch_13">
    <path clip-path="url(#p9fd4257182)" d="
M145.351 322.473
L184.346 322.473
L184.346 43.2
L145.351 43.2
z
" style="fill:#008000;opacity:0.2;"/>
   </g>
   <g id="line2d_1">
    <path clip-path="url(#p9fd4257182)" d="
M110.503 142.339
L110.54 142.158
L116.964 112.894
L120.998 90.8677
L131.009 64.7286
L134.482 64.3078
L137.545 68.0431
L153.27 110.903
L155.735 96.544
L158.574 81.7367
L161.151 72.5033
L164.961 65.4588
L165.932 64.5608
L172.357 66.9042
L180.686 86.5286
L182.217 87.2332
L185.168 83.502
L189.762 72.5545
L190.696 68.7249
L193.684 60.1705
L194.543 59.2166
L205.45 57.1908
L218.897 57.1859
L227.338 57.6013
L230.7 57.6425
L234.846 57.8858
L240.112 58.7442
L254.082 57.6788
L270.404 57.3597
L279.406 59.0003
L280.788 59.7232
L287.735 68.1715
L289.491 70.6116
L300.995 63.0882
L317.766 57.1144
L326.73 57.013
L350.411 57.0815
L351.457 57.3769
L355.528 65.0861
L356.649 72.6808
L357.695 83.9783
L358.965 103.877
L361.355 146.772
L374.167 60.282
L374.988 59.6845
L375.026 59.6707
L375.847 59.6493
L376.632 60.2538
L378.387 68.1583
L382.982 115.182
L383.019 115.135
L388.771 62.9323
L394.336 61.0993
L409.09 123.868
L409.501 127.078
L411.78 146.938
L413.348 162.357
L440.466 319.514
L440.839 319.157
L441.511 318.329
L442.819 315.712
L458.133 110.541
L458.469 109.283
L473.82 114.958
L496.418 90.8501
L498.958 81.0297
L506.354 69.9476
L514.758 73.2804
L523.087 81.7462
L543.033 97.7052
L547.926 107.902
L550.279 117.95
L551.848 122.305
L553.23 118.002
L553.79 113.245
L554.462 105.291
L559.99 59.0789
L563.053 57.5008
L566.452 58.9358
L569.814 77.7793
L572.578 129.837
L576.612 151.32
L576.649 151.037
L580.197 97.5642
L583.596 68.4012
L594.428 63.8159
L603.766 60.6857
L604.401 61.6993
L606.418 71.0103
L608.659 108.468
L610.826 162.744
L614.86 207.451
L614.897 207.333
L615.308 205.336
L621.06 80.346
L621.844 69.5382
L630.398 60.2254
L635.254 62.9315
L639.138 68.5857
L648.588 73.395
L653.406 77.1189
L663.79 225.247
L668.907 294.776
L669.58 288.307
L670.364 276.114
L671.484 248.596
L674.697 159.103
L674.958 156
L676.228 150.501
L676.265 150.54
L679.739 181.246
L679.776 181.676
L683.437 190.865
L683.474 190.613
L686.052 178.152
L686.462 177.331
L694.082 231.702
L705.997 227.442
L707.603 230.63
L712.198 288.204
L713.878 297.653
L714.737 301.308
L715.111 302.647
L716.418 306.145
L718.024 307.453
L718.659 307.498
L718.921 307.607
L719.556 308.325
L722.208 317.344
L722.88 318.72
L723.328 319.387
L724.187 320.269
L725.98 321.064
L726.578 321.105
L729.192 320.806
L732.666 320.571
L734.608 320.78
L738.045 321.458
L740.51 321.552
L744.245 321.451
L747.681 321.34
L750.221 321.48
L751.529 321.191
L751.902 320.972
L753.284 319.369
L754.89 316.373
L756.272 315.774
L756.646 316.071
L757.58 317.342
L758.103 318.193
L761.464 321.737
L762.51 322.013
L764.041 322.137
L768.748 321.824
L769.196 321.308
L769.457 320.793
L772.968 291.049
L773.006 291.172
L775.957 319.704
L775.957 319.704" style="fill:none;opacity:0.5;stroke:#0000ff;stroke-linecap:square;"/>
   </g>
   <g id="line2d_2">
    <path clip-path="url(#p9fd4257182)" d="
M110.503 195.476
L110.54 194.983
L116.964 89.1167
L120.998 64.0714
L131.009 56.9823
L134.482 56.926
L137.545 57.1799
L153.27 81.5042
L154.204 82.5242
L155.735 83.3172
L158.574 82.4725
L161.151 80.3221
L164.961 77.3878
L165.932 76.9952
L172.357 85.4744
L182.217 129.976
L185.168 137.231
L189.762 134.962
L190.696 133.047
L193.684 108.174
L194.543 97.111
L205.413 79.717
L205.45 79.883
L211.613 118.885
L214.041 135.18
L215.908 144.061
L218.859 139.872
L218.897 139.608
L219.793 132.264
L226.329 82.648
L227.338 79.1753
L229.691 73.2464
L230.7 71.4097
L234.846 66.6167
L240.15 61.3352
L252.326 57.0332
L263.457 57.0133
L280.788 56.7969
L289.491 56.83
L300.995 56.9702
L317.766 56.9259
L326.73 57.4142
L346.078 68.7659
L346.415 75.1701
L350.112 95.9423
L351.195 74.6483
L351.457 70.8082
L355.528 57.1203
L357.657 56.8795
L358.965 56.8993
L361.355 57.2255
L374.167 56.8523
L375.026 57.3185
L375.847 58.3969
L376.632 60.786
L378.387 77.2291
L383.019 62.9722
L388.771 57.0057
L394.336 58.3614
L409.501 75.5063
L411.78 78.9972
L413.348 81.896
L440.466 263.258
L440.503 263.141
L441.549 259.613
L442.856 254.506
L458.469 143.302
L473.82 79.5428
L496.418 67.7295
L498.958 68.6142
L506.354 72.7006
L514.758 78.3535
L523.087 86.8617
L542.995 109.599
L543.033 108.618
L547.926 59.2429
L550.279 57.4609
L551.848 57.0973
L554.462 56.8663
L559.99 57.0303
L563.053 57.3752
L566.452 57.4219
L569.814 57.95
L572.578 61.1502
L576.649 91.4372
L580.197 111.661
L583.596 83.8102
L594.466 60.0186
L603.766 61.924
L604.401 63.0623
L606.418 71.3486
L608.659 99.9229
L610.863 155.784
L614.897 225.674
L615.308 225.273
L621.06 130.788
L621.844 120.179
L627.746 87.476
L630.398 77.1655
L635.216 65.1773
L638.727 58.9503
L639.138 58.4869
L648.588 56.7066
L653.406 57.7491
L663.79 171.612
L668.87 249.493
L668.907 249.346
L669.58 245.354
L670.065 239.932
L670.364 234.006
L671.484 196.876
L674.659 122.955
L674.697 123.331
L674.958 126.816
L676.265 162.572
L679.44 209.14
L679.478 208.615
L679.776 203.676
L683.474 94.8982
L686.052 73.9874
L686.462 73.2923
L694.045 188.398
L705.96 243.363
L705.997 247.063
L707.566 317.306
L712.198 322.135
L713.916 322.156
L716.418 322.056
L722.208 322.1
L730.35 321.998
L735.99 321.934
L740.024 321.946
L745.366 321.941
L751.491 321.95
L756.646 322.12
L762.174 322.059
L764.041 321.832
L769.196 320.627
L769.457 320.628
L773.006 321.274
L775.957 321.649
L775.957 321.649" style="fill:none;opacity:0.5;stroke:#ff0000;stroke-linecap:square;"/>
   </g>
   <g id="line2d_3">
    <path clip-path="url(#p9fd4257182)" d="
M110.503 209.951
L110.54 209.649
L116.964 112.192
L120.998 75.4457
L131.009 59.0367
L134.482 58.8642
L137.545 60.1532
L153.27 94.3239
L154.204 92.1923
L155.735 87.8753
L158.574 79.3858
L161.151 73.1901
L164.961 68.0175
L165.932 67.4244
L172.357 72.3272
L180.686 116.606
L182.217 134.657
L185.168 165.924
L190.696 63.7806
L193.684 56.7715
L194.543 56.7326
L205.45 59.1577
L211.613 110.708
L214.041 142.51
L215.908 153.349
L218.897 141.931
L219.793 133.02
L226.329 69.7748
L227.338 65.9332
L229.691 60.8008
L230.7 59.5803
L234.846 57.4115
L239.403 60.1135
L240.15 62.3925
L252.326 81.1167
L254.082 86.3062
L257.331 95.3253
L262.262 91.4942
L263.457 87.984
L270.404 75.1702
L279.406 65.0564
L280.788 64.0667
L287.735 61.0057
L289.491 60.5236
L300.995 58.3939
L317.766 57.1149
L326.73 56.9608
L346.116 56.7625
L346.415 56.8926
L350.15 65.688
L351.457 71.9837
L355.491 74.2858
L355.528 74.1181
L357.695 63.4178
L358.965 59.377
L361.355 56.8079
L374.167 57.131
L375.026 57.7689
L375.847 58.8332
L376.632 60.3255
L378.387 64.39
L383.019 79.5214
L388.771 79.9197
L394.336 74.6952
L409.501 59.0605
L411.145 57.8273
L412.303 57.3174
L413.348 57.0259
L440.466 299.041
L440.503 299.034
L440.876 298.93
L441.549 298.614
L442.856 297.501
L458.133 178.6
L458.469 173.442
L473.783 62.6352
L496.418 57.0541
L498.958 57.0381
L506.354 60.3425
L514.758 107.048
L523.05 175.489
L523.087 175.183
L543.033 56.5176
L547.926 56.6271
L550.279 57.6011
L551.848 60.0582
L553.23 64.8909
L553.79 67.834
L554.462 72.185
L559.953 90.7931
L559.99 90.6841
L563.053 83.0958
L566.452 89.716
L569.814 107.739
L572.578 120.355
L576.649 131.968
L580.197 119.31
L583.596 90.3327
L594.466 61.2348
L603.766 68.4191
L604.401 71.2467
L606.418 88.3001
L610.863 157.782
L614.86 170.67
L615.308 166.493
L621.06 92.4988
L621.844 87.6099
L627.746 77.5341
L630.36 75.8248
L635.254 77.3048
L638.727 82.4222
L639.138 82.8087
L648.588 80.3083
L653.406 92.8944
L663.79 185.793
L668.907 191.999
L671.484 165.318
L674.659 152.826
L674.697 153.096
L674.958 155.397
L676.265 176.147
L679.739 249.368
L679.776 249.847
L683.437 234.389
L683.474 233.68
L686.462 172.28
L694.045 176.992
L694.082 177.267
L705.96 227.843
L707.603 319.932
L712.198 322.348
L713.916 322.206
L715.074 321.649
L715.111 321.619
L716.418 320.29
L718.248 319.234
L718.659 319.261
L718.921 319.337
L719.556 319.686
L721.535 321.153
L722.208 321.386
L723.366 321.566
L724.187 321.569
L725.98 321.086
L726.578 320.697
L728.072 319.629
L728.558 319.552
L729.192 319.876
L730.911 321.455
L731.695 321.867
L732.666 322.115
L734.646 322.21
L741.406 322.031
L744.768 321.784
L745.366 321.687
L746.972 320.851
L747.719 319.431
L748.466 316.847
L748.877 315.093
L750.184 313.513
L751.902 319.347
L753.284 321.357
L754.89 321.961
L757.58 322.126
L764.004 322.132
L764.041 322.129
L769.457 321.517
L773.006 321.565
L775.957 321.777
L775.957 321.777" style="fill:none;opacity:0.5;stroke:#ff0000;stroke-linecap:square;"/>
   </g>
   <g id="line2d_4">
    <path clip-path="url(#p9fd4257182)" d="
M110.503 231.282
L110.54 230.957
L116.964 131.741
L120.998 84.67
L131.009 59.805
L134.482 59.1919
L137.545 59.6521
L154.204 71.2501
L155.735 71.8527
L158.574 72.6734
L161.151 73.1027
L165.932 73.2606
L172.357 83.5371
L180.686 123.633
L182.217 128.958
L185.168 135.967
L189.762 106.514
L190.696 91.3705
L193.684 63.0344
L194.543 60.6505
L205.45 57.1381
L211.613 117.069
L214.041 179.003
L215.871 194.629
L215.908 194.615
L218.897 153.213
L219.793 131.881
L226.329 68.1019
L227.338 67.0715
L230.7 64.7793
L234.846 60.8218
L239.403 56.9609
L240.15 56.8297
L252.326 57.6735
L252.662 57.9629
L254.082 59.486
L257.331 62.714
L263.457 67.9003
L270.404 67.0001
L279.406 59.4104
L280.788 59.1119
L287.735 61.1201
L289.491 63.1161
L300.995 105.383
L317.766 76.3393
L326.73 87.6908
L346.078 73.2898
L346.415 66.1424
L350.15 56.9738
L351.457 57.0908
L355.528 63.8009
L356.649 72.485
L357.695 79.22
L358.965 75.472
L361.355 58.0333
L374.652 56.8584
L376.632 56.9673
L383.019 56.9455
L388.771 57.0933
L394.336 59.6559
L409.053 85.2861
L409.09 85.1328
L411.145 76.9557
L412.303 73.0174
L413.348 70.0601
L440.466 288.005
L440.503 287.904
L441.549 284.687
L442.856 279.507
L458.469 166.862
L473.783 99.0831
L496.418 72.4094
L498.958 71.3874
L514.758 81.3005
L523.087 101.417
L542.995 136.333
L543.033 135.269
L547.926 63.5536
L550.279 59.2406
L551.848 58.6698
L553.23 59.0742
L553.79 59.6095
L554.462 60.8158
L559.953 88.5095
L559.99 88.4574
L563.053 80.6941
L566.452 81.7851
L569.814 87.2652
L572.578 90.2208
L576.649 94.1768
L580.197 92.7903
L583.596 83.8598
L594.466 57.001
L603.766 56.7854
L604.401 56.916
L606.418 59.5676
L608.659 85.3317
L610.863 148.627
L614.86 204.908
L614.897 204.805
L615.308 202.894
L621.06 84.2124
L621.844 73.2317
L627.746 58.0486
L630.36 58.2919
L635.254 59.0819
L639.138 62.45
L648.588 72.3637
L653.444 76.2659
L663.79 171.013
L668.87 272.192
L668.907 272.022
L669.58 268.161
L670.252 262.041
L670.364 260.538
L671.484 238.576
L674.659 183.294
L674.697 183.546
L674.958 185.975
L676.265 208.304
L679.44 209.958
L683.474 148.16
L686.052 132.064
L686.462 131.67
L694.082 252.117
L705.96 76.1963
L705.997 78.9848
L707.603 317.003
L712.198 322.337
L714.737 322.266
L716.418 322.154
L722.88 322.05
L724.187 321.848
L726.204 321.035
L728.072 319.932
L728.558 319.859
L729.192 320.045
L731.322 321.503
L731.695 321.671
L732.666 321.94
L734.646 322.031
L740.249 321.777
L741.406 321.463
L742.116 321.141
L743.498 319.961
L744.768 318.648
L745.366 318.447
L748.653 321.584
L748.877 321.689
L750.221 322.007
L753.284 322.051
L758.103 322.113
L768.71 321.87
L775.957 321.974
L775.957 321.974" style="fill:none;opacity:0.5;stroke:#ff0000;stroke-linecap:square;"/>
   </g>
   <g id="line2d_5">
    <path clip-path="url(#p9fd4257182)" d="
M110.503 219.849
L110.54 219.279
L116.964 84.0727
L120.998 61.3813
L131.009 56.7312
L134.482 56.6819
L137.545 56.7678
L153.27 58.6311
L154.204 58.3682
L155.735 58.6929
L158.574 70.4257
L161.114 83.9654
L161.151 83.952
L164.961 62.3357
L165.932 58.9575
L172.357 56.9825
L185.168 57.7946
L190.696 57.6259
L194.543 57.9956
L205.413 60.3773
L211.613 71.1037
L214.041 69.5111
L215.908 66.963
L218.897 64.2319
L219.793 63.7403
L227.338 61.2663
L229.691 59.7728
L230.7 58.9772
L234.846 56.8895
L239.403 58.6799
L240.15 60.0431
L252.289 78.0236
L252.662 74.4185
L254.082 65.3401
L257.331 58.3747
L262.262 56.8268
L263.457 56.7477
L270.404 56.7003
L280.788 57.0548
L300.995 56.9561
L317.766 57.4851
L326.73 57.0003
L346.415 56.9234
L350.374 57.885
L350.411 57.911
L351.195 58.7418
L351.457 59.2101
L355.491 81.0901
L355.528 80.9432
L357.695 61.9289
L358.965 57.3138
L361.355 56.5035
L374.167 58.4155
L374.652 59.3941
L375.026 60.4721
L375.847 64.3591
L376.632 71.025
L378.387 99.6459
L382.982 109.571
L383.019 109.026
L388.771 59.9793
L394.336 58.5997
L409.053 122.424
L409.09 122.313
L409.501 121.033
L411.78 112.613
L413.348 106.354
L440.503 200.991
L442.856 205.373
L458.133 177.84
L458.469 175.89
L473.783 93.9189
L496.418 71.2234
L498.958 72.8522
L506.354 78.3728
L514.758 77.5333
L523.087 62.0094
L543.033 57.3611
L553.79 57.3079
L554.462 57.3079
L559.99 57.0808
L563.053 57.3149
L566.452 60.7707
L569.814 87.0118
L572.578 135.174
L576.612 157.657
L576.649 157.463
L580.197 111.315
L583.596 75.101
L594.466 59.2511
L603.766 69.9416
L604.401 72.9394
L606.418 88.7566
L608.659 123.982
L610.863 168.658
L614.86 185.891
L615.308 179.345
L621.06 87.454
L621.844 82.9217
L627.746 134.203
L630.398 188.898
L635.254 76.8486
L638.727 56.5817
L639.138 56.5341
L653.406 56.4988
L663.79 102.509
L668.87 268.677
L668.907 268.612
L669.58 266.893
L670.065 263.837
L670.364 258.651
L671.484 216.242
L674.659 123.945
L674.697 124.586
L674.958 130.199
L676.265 182.994
L679.44 240.802
L679.478 240.133
L683.474 160.656
L686.052 141.524
L686.462 139.403
L694.082 174.023
L705.96 173.972
L707.603 144.666
L712.198 254.885
L713.318 286.374
L713.916 298.879
L714.737 309.837
L715.111 312.914
L716.418 318.257
L718.286 320.42
L719.556 321.159
L721.535 321.923
L722.88 322.037
L726.578 322.051
L730.574 321.883
L733.637 321.728
L739.427 321.865
L740.958 321.508
L741.406 321.328
L742.116 320.924
L743.498 319.315
L745.328 316.177
L746.934 317.185
L748.428 319.798
L748.877 320.33
L750.221 321.173
L751.902 321.546
L754.89 321.882
L762.51 322.113
L769.457 321.989
L775.957 321.705
L775.957 321.705" style="fill:none;opacity:0.5;stroke:#0000ff;stroke-linecap:square;"/>
   </g>
   <g id="line2d_6">
    <path clip-path="url(#p9fd4257182)" d="
M110.503 169.656
L110.54 169.333
L120.998 95.7924
L131.009 63.9221
L134.482 61.7976
L137.545 60.416
L153.27 59.4958
L154.204 59.8519
L155.735 60.6263
L158.574 62.8805
L161.151 66.1401
L164.961 73.1934
L165.932 75.2367
L172.357 97.56
L180.686 138.968
L182.217 142.886
L185.168 144.81
L189.762 108.458
L190.696 94.533
L193.684 66.4329
L194.543 63.5048
L205.45 60.7241
L211.613 175.886
L214.041 227.589
L215.871 237.443
L215.908 237.42
L218.897 198.114
L219.793 171.64
L226.329 62.9924
L227.338 60.9501
L229.691 58.6744
L230.7 58.2202
L234.846 57.5917
L240.15 58.8649
L252.326 57.5405
L252.662 57.6187
L254.082 58.1066
L257.331 60.9292
L262.262 67.7156
L263.457 66.8447
L270.404 58.2667
L279.406 57.015
L280.788 56.9376
L289.491 56.882
L300.995 57.304
L317.766 57.109
L326.73 58.1276
L346.116 69.5607
L346.415 69.1201
L351.457 64.6199
L355.528 58.8903
L356.649 57.6661
L357.695 57.1663
L358.965 56.9326
L361.355 56.7457
L374.167 59.904
L375.026 61.3066
L375.847 62.9755
L378.387 68.7954
L383.019 87.0903
L388.734 107.521
L388.771 107.504
L394.336 100.072
L409.09 81.4928
L409.501 80.0302
L411.78 73.048
L412.303 71.7412
L413.348 69.4569
L440.466 256.681
L440.503 256.565
L441.549 252.981
L442.856 247.559
L458.469 119.749
L473.783 61.3292
L496.418 57.0795
L506.354 57.1751
L514.758 57.4148
L523.087 57.5125
L542.995 56.5007
L547.926 56.5098
L550.279 56.8066
L551.848 58.1964
L553.23 62.0792
L553.79 64.8404
L554.462 69.2354
L559.99 64.4463
L563.053 58.5377
L566.452 60.4076
L569.814 71.3359
L572.578 87.1356
L576.649 82.2386
L580.197 62.8749
L583.596 58.4505
L594.428 59.6934
L603.766 64.4071
L604.401 66.4121
L606.418 80.8314
L608.659 116.556
L610.863 158.62
L614.86 195.068
L614.897 195.03
L615.308 193.844
L621.06 113.01
L621.844 105.624
L627.746 90.625
L630.398 87.096
L635.216 84.239
L638.727 85.5243
L639.138 85.5449
L648.588 82.5323
L653.444 96.9469
L663.79 193.116
L668.87 209.527
L669.58 196.603
L670.252 179.785
L670.364 175.836
L671.484 128.583
L674.659 77.2494
L674.697 77.4644
L674.958 79.4661
L676.265 106.072
L679.44 199.944
L679.478 199.919
L679.776 198.922
L683.474 160.09
L686.052 145.789
L686.462 144.879
L694.082 248.341
L705.96 76.2679
L705.997 79.1546
L707.603 317.799
L712.198 322.229
L713.916 322.154
L716.418 321.754
L721.087 321.807
L723.328 321.627
L724.187 321.457
L725.98 320.597
L726.578 320.046
L728.072 318.619
L728.558 318.501
L729.192 318.866
L731.135 321.144
L731.695 321.531
L732.666 321.894
L734.459 322.007
L736.775 321.84
L740.249 321.45
L742.116 321.267
L744.768 321.404
L753.284 322.148
L758.103 322.221
L763.22 322.074
L769.457 321.477
L773.006 321.732
L775.957 321.815
L775.957 321.815" style="fill:none;opacity:0.5;stroke:#ff0000;stroke-linecap:square;"/>
   </g>
   <g id="line2d_7">
    <path clip-path="url(#p9fd4257182)" d="
M110.503 182.534
L110.54 182.312
L116.964 122.594
L120.998 88.1076
L131.009 61.1699
L134.482 59.5616
L137.545 58.6792
L153.27 61.8684
L154.204 63.1554
L155.735 66.05
L158.574 74.9409
L161.151 87.7476
L164.961 110.597
L165.932 115.4
L172.357 114.155
L180.686 82.7096
L182.217 79.5345
L185.168 75.8236
L189.762 73.4409
L190.659 73.373
L193.684 74.4734
L194.543 75.1653
L205.45 85.6375
L211.613 68.2768
L214.041 63.0266
L215.908 61.4837
L219.793 61.126
L226.329 63.4293
L227.338 64.0678
L230.7 65.3953
L234.846 68.0617
L239.403 76.3595
L240.15 77.415
L252.662 59.5567
L254.082 58.3407
L257.331 57.2075
L263.457 56.8916
L270.404 57.0383
L279.406 61.1846
L280.788 63.1291
L287.735 78.0916
L289.491 82.4704
L300.995 106.059
L317.766 111.652
L326.73 58.9811
L346.415 56.9249
L351.457 57.0576
L355.528 58.9433
L356.649 61.4901
L357.695 65.616
L358.965 69.8776
L361.355 60.3219
L374.167 65.5614
L375.026 67.5894
L375.661 68.1624
L375.847 68.113
L376.632 66.718
L378.387 60.6949
L383.019 57.6888
L388.771 56.8347
L394.336 57.5746
L409.09 127.709
L411.78 155.361
L413.348 171.799
L440.503 231.097
L441.549 230.893
L442.856 230.517
L458.133 183.466
L458.469 181.152
L473.783 85.5013
L496.418 65.8448
L498.958 67.9461
L506.354 80.3581
L514.758 68.2414
L523.087 60.6165
L542.995 63.1405
L543.033 63.2806
L547.888 67.6367
L547.926 67.5347
L550.279 61.6251
L551.848 59.2857
L553.23 58.1826
L554.462 57.6721
L559.99 58.1345
L563.053 61.3111
L566.452 73.5836
L569.814 109.336
L572.578 144.133
L576.649 128.003
L580.197 103.31
L583.596 100.175
L594.466 96.7787
L603.766 86.8035
L604.401 86.6119
L606.418 90.9617
L608.659 115.15
L610.863 163.018
L614.86 209.336
L614.897 209.031
L615.308 204.808
L621.06 93.8375
L621.844 87.3333
L627.746 70.5622
L630.36 65.9155
L635.254 66.8463
L639.101 72.5964
L639.138 72.63
L648.588 73.8955
L653.444 71.0733
L663.753 186.257
L663.79 188.321
L668.87 276.707
L668.907 275.928
L670.327 242.118
L670.364 240.914
L671.484 195.538
L674.659 123.231
L674.697 123.734
L674.958 128.212
L676.265 171.006
L679.44 214.84
L679.478 214.306
L679.776 209.514
L683.474 114.998
L686.052 85.6084
L686.462 83.7526
L694.082 172.705
L705.96 240.657
L705.997 240.484
L707.603 222.263
L712.16 242.577
L712.198 243.565
L713.916 293.036
L714.737 307.257
L715.111 311.249
L716.418 317.979
L718.248 320.91
L718.921 321.39
L719.556 321.687
L721.573 322.059
L722.88 321.995
L724.187 321.774
L729.192 320.584
L730.574 319.588
L732.666 317.47
L733.637 317.705
L734.011 318.101
L735.99 320.649
L737.148 321.521
L738.045 321.865
L739.427 322.066
L742.116 322.11
L750.221 321.888
L753.284 321.897
L756.646 321.616
L758.103 321.481
L764.041 321.915
L773.006 321.984
L775.957 321.861
L775.957 321.861" style="fill:none;opacity:0.5;stroke:#0000ff;stroke-linecap:square;"/>
   </g>
   <g id="line2d_8">
    <path clip-path="url(#p9fd4257182)" d="
M110.503 198.878
L110.54 198.683
L116.964 145.4
L120.998 107.248
L131.009 68.4255
L134.482 66.1593
L137.545 65.271
L153.27 97.3455
L154.204 95.6784
L155.735 90.6034
L158.574 78.6366
L161.151 70.0229
L164.961 63.6439
L165.932 62.9475
L172.357 63.1326
L180.686 77.2546
L182.217 83.1408
L185.168 92.3343
L189.762 89.9499
L190.696 89.6477
L194.506 91.9554
L205.45 74.078
L211.613 64.7439
L214.041 63.0288
L215.908 64.1704
L218.897 71.2397
L219.793 72.5179
L226.329 72.8032
L227.338 73.4642
L229.691 73.0649
L230.7 70.9613
L234.846 58.5027
L239.403 56.8524
L240.15 56.8023
L252.326 58.9223
L252.662 59.7458
L254.082 66.055
L257.331 97.9712
L262.224 95.1335
L263.457 84.1595
L270.404 58.8335
L279.406 57.2879
L280.788 57.1816
L287.735 57.5063
L289.491 57.9626
L300.995 75.0368
L317.766 91.8569
L326.73 88.8379
L346.415 70.1316
L350.15 68.2935
L351.457 68.6836
L355.528 65.5937
L356.649 65.3406
L357.695 65.6979
L358.965 66.6933
L361.355 71.1648
L375.026 57.8515
L375.847 57.4085
L376.632 57.1885
L378.387 57.058
L383.019 57.1192
L388.771 57.3268
L394.336 57.8936
L409.09 85.5957
L409.501 88.5235
L411.145 102.68
L412.303 115.008
L413.348 127.624
L440.466 242.44
L440.503 242.28
L441.549 237.189
L442.856 229.295
L458.133 126.485
L458.469 125.454
L473.82 101.759
L496.418 93.7707
L498.958 90.5847
L506.354 81.7075
L514.758 73.9558
L523.087 66.5573
L543.033 57.2493
L547.926 59.1919
L550.279 65.1993
L551.848 68.8008
L553.23 69.5326
L553.79 69.0673
L554.462 68.0281
L559.99 60.4775
L563.053 60.3973
L566.452 64.9061
L569.814 84.5187
L572.578 118.065
L576.649 147.624
L580.197 131.53
L583.596 103.617
L594.466 57.6251
L603.766 58.0223
L604.401 58.8081
L606.418 73.9284
L608.659 155.954
L610.863 223.832
L614.86 230.71
L615.308 225.508
L621.06 101.659
L621.844 92.6994
L627.709 74.0214
L630.398 71.7133
L635.254 72.3856
L639.138 78.0762
L648.588 88.1388
L653.444 84.233
L663.79 163.985
L668.87 209.796
L668.907 209.402
L670.028 196.136
L670.364 188.519
L671.484 151.086
L674.659 110.111
L674.697 110.943
L674.958 117.99
L676.265 184.905
L679.44 280.185
L679.478 280.051
L679.776 278.385
L683.474 185.112
L686.052 112.527
L686.462 105.515
L694.045 127.754
L694.082 128.342
L705.96 200.982
L707.566 157.582
L712.198 261.257
L713.318 289.826
L713.916 299.997
L714.737 308.935
L715.111 311.545
L716.418 316.351
L718.024 317.409
L719.556 317.317
L722.88 319.635
L726.578 321.725
L728.558 322.108
L730.911 322.105
L736.663 321.953
L743.498 321.913
L745.366 321.778
L748.877 321.962
L753.284 322.134
L758.103 322.02
L764.041 321.985
L768.748 321.029
L769.42 319.594
L769.457 319.478
L772.968 299.486
L773.006 299.578
L775.957 318.818
L775.957 318.818" style="fill:none;opacity:0.5;stroke:#0000ff;stroke-linecap:square;"/>
   </g>
   <g id="patch_14">
    <path d="
M108 43.2
L777.6 43.2" style="fill:none;stroke:#000000;stroke-linecap:square;stroke-linejoin:miter;"/>
   </g>
   <g id="patch_15">
    <path d="
M777.6 322.473
L777.6 43.2" style="fill:none;stroke:#000000;stroke-linecap:square;stroke-linejoin:miter;"/>
   </g>
   <g id="patch_16">
    <path d="
M108 322.473
L777.6 322.473" style="fill:none;stroke:#000000;stroke-linecap:square;stroke-linejoin:miter;"/>
   </g>
   <g id="patch_17">
    <path d="
M108 322.473
L108 43.2" style="fill:none;stroke:#000000;stroke-linecap:square;stroke-linejoin:miter;"/>
   </g>
   <g id="matplotlib.axis_1">
    <g id="ytick_1">
     <g id="line2d_9">
      <defs>
       <path d="
M0 0
L4 0" id="m728421d6d4" style="stroke:#000000;stroke-width:0.5;"/>
      </defs>
      <g>
       <use style="stroke:#000000;stroke-width:0.5;" x="108.0" xlink:href="#m728421d6d4" y="322.472727273"/>
      </g>
     </g>
     <g id="line2d_10">
      <defs>
       <path d="
M0 0
L-4 0" id="mcb0005524f" style="stroke:#000000;stroke-width:0.5;"/>
      </defs>
      <g>
       <use style="stroke:#000000;stroke-width:0.5;" x="777.6" xlink:href="#mcb0005524f" y="322.472727273"/>
      </g>
     </g>
     <g id="text_1">
      <!-- 0 -->
      <defs>
       <path d="
M31.7812 66.4062
Q24.1719 66.4062 20.3281 58.9062
Q16.5 51.4219 16.5 36.375
Q16.5 21.3906 20.3281 13.8906
Q24.1719 6.39062 31.7812 6.39062
Q39.4531 6.39062 43.2812 13.8906
Q47.125 21.3906 47.125 36.375
Q47.125 51.4219 43.2812 58.9062
Q39.4531 66.4062 31.7812 66.4062
M31.7812 74.2188
Q44.0469 74.2188 50.5156 64.5156
Q56.9844 54.8281 56.9844 36.375
Q56.9844 17.9688 50.5156 8.26562
Q44.0469 -1.42188 31.7812 -1.42188
Q19.5312 -1.42188 13.0625 8.26562
Q6.59375 17.9688 6.59375 36.375
Q6.59375 54.8281 13.0625 64.5156
Q19.5312 74.2188 31.7812 74.2188" id="DejaVuSans-30"/>
      </defs>
      <g transform="translate(97.953125 325.783977273)scale(0.12 -0.12)">
       <use xlink:href="#DejaVuSans-30"/>
      </g>
     </g>
    </g>
    <g id="ytick_2">
     <g id="line2d_11">
      <g>
       <use style="stroke:#000000;stroke-width:0.5;" x="108.0" xlink:href="#m728421d6d4" y="269.277922078"/>
      </g>
     </g>
     <g id="line2d_12">
      <g>
       <use style="stroke:#000000;stroke-width:0.5;" x="777.6" xlink:href="#mcb0005524f" y="269.277922078"/>
      </g>
     </g>
     <g id="text_2">
      <!-- 20 -->
      <defs>
       <path d="
M19.1875 8.29688
L53.6094 8.29688
L53.6094 0
L7.32812 0
L7.32812 8.29688
Q12.9375 14.1094 22.625 23.8906
Q32.3281 33.6875 34.8125 36.5312
Q39.5469 41.8438 41.4219 45.5312
Q43.3125 49.2188 43.3125 52.7812
Q43.3125 58.5938 39.2344 62.25
Q35.1562 65.9219 28.6094 65.9219
Q23.9688 65.9219 18.8125 64.3125
Q13.6719 62.7031 7.8125 59.4219
L7.8125 69.3906
Q13.7656 71.7812 18.9375 73
Q24.125 74.2188 28.4219 74.2188
Q39.75 74.2188 46.4844 68.5469
Q53.2188 62.8906 53.2188 53.4219
Q53.2188 48.9219 51.5312 44.8906
Q49.8594 40.875 45.4062 35.4062
Q44.1875 33.9844 37.6406 27.2188
Q31.1094 20.4531 19.1875 8.29688" id="DejaVuSans-32"/>
      </defs>
      <g transform="translate(90.40625 272.589172078)scale(0.12 -0.12)">
       <use xlink:href="#DejaVuSans-32"/>
       <use x="63.623046875" xlink:href="#DejaVuSans-30"/>
      </g>
     </g>
    </g>
    <g id="ytick_3">
     <g id="line2d_13">
      <g>
       <use style="stroke:#000000;stroke-width:0.5;" x="108.0" xlink:href="#m728421d6d4" y="216.083116883"/>
      </g>
     </g>
     <g id="line2d_14">
      <g>
       <use style="stroke:#000000;stroke-width:0.5;" x="777.6" xlink:href="#mcb0005524f" y="216.083116883"/>
      </g>
     </g>
     <g id="text_3">
      <!-- 40 -->
      <defs>
       <path d="
M37.7969 64.3125
L12.8906 25.3906
L37.7969 25.3906
z

M35.2031 72.9062
L47.6094 72.9062
L47.6094 25.3906
L58.0156 25.3906
L58.0156 17.1875
L47.6094 17.1875
L47.6094 0
L37.7969 0
L37.7969 17.1875
L4.89062 17.1875
L4.89062 26.7031
z
" id="DejaVuSans-34"/>
      </defs>
      <g transform="translate(90.11375 219.394366883)scale(0.12 -0.12)">
       <use xlink:href="#DejaVuSans-34"/>
       <use x="63.623046875" xlink:href="#DejaVuSans-30"/>
      </g>
     </g>
    </g>
    <g id="ytick_4">
     <g id="line2d_15">
      <g>
       <use style="stroke:#000000;stroke-width:0.5;" x="108.0" xlink:href="#m728421d6d4" y="162.888311688"/>
      </g>
     </g>
     <g id="line2d_16">
      <g>
       <use style="stroke:#000000;stroke-width:0.5;" x="777.6" xlink:href="#mcb0005524f" y="162.888311688"/>
      </g>
     </g>
     <g id="text_4">
      <!-- 60 -->
      <defs>
       <path d="
M33.0156 40.375
Q26.375 40.375 22.4844 35.8281
Q18.6094 31.2969 18.6094 23.3906
Q18.6094 15.5312 22.4844 10.9531
Q26.375 6.39062 33.0156 6.39062
Q39.6562 6.39062 43.5312 10.9531
Q47.4062 15.5312 47.4062 23.3906
Q47.4062 31.2969 43.5312 35.8281
Q39.6562 40.375 33.0156 40.375
M52.5938 71.2969
L52.5938 62.3125
Q48.875 64.0625 45.0938 64.9844
Q41.3125 65.9219 37.5938 65.9219
Q27.8281 65.9219 22.6719 59.3281
Q17.5312 52.7344 16.7969 39.4062
Q19.6719 43.6562 24.0156 45.9219
Q28.375 48.1875 33.5938 48.1875
Q44.5781 48.1875 50.9531 41.5156
Q57.3281 34.8594 57.3281 23.3906
Q57.3281 12.1562 50.6875 5.35938
Q44.0469 -1.42188 33.0156 -1.42188
Q20.3594 -1.42188 13.6719 8.26562
Q6.98438 17.9688 6.98438 36.375
Q6.98438 53.6562 15.1875 63.9375
Q23.3906 74.2188 37.2031 74.2188
Q40.9219 74.2188 44.7031 73.4844
Q48.4844 72.75 52.5938 71.2969" id="DejaVuSans-36"/>
      </defs>
      <g transform="translate(90.365 166.199561688)scale(0.12 -0.12)">
       <use xlink:href="#DejaVuSans-36"/>
       <use x="63.623046875" xlink:href="#DejaVuSans-30"/>
      </g>
     </g>
    </g>
    <g id="ytick_5">
     <g id="line2d_17">
      <g>
       <use style="stroke:#000000;stroke-width:0.5;" x="108.0" xlink:href="#m728421d6d4" y="109.693506494"/>
      </g>
     </g>
     <g id="line2d_18">
      <g>
       <use style="stroke:#000000;stroke-width:0.5;" x="777.6" xlink:href="#mcb0005524f" y="109.693506494"/>
      </g>
     </g>
     <g id="text_5">
      <!-- 80 -->
      <defs>
       <path d="
M31.7812 34.625
Q24.75 34.625 20.7188 30.8594
Q16.7031 27.0938 16.7031 20.5156
Q16.7031 13.9219 20.7188 10.1562
Q24.75 6.39062 31.7812 6.39062
Q38.8125 6.39062 42.8594 10.1719
Q46.9219 13.9688 46.9219 20.5156
Q46.9219 27.0938 42.8906 30.8594
Q38.875 34.625 31.7812 34.625
M21.9219 38.8125
Q15.5781 40.375 12.0312 44.7188
Q8.5 49.0781 8.5 55.3281
Q8.5 64.0625 14.7188 69.1406
Q20.9531 74.2188 31.7812 74.2188
Q42.6719 74.2188 48.875 69.1406
Q55.0781 64.0625 55.0781 55.3281
Q55.0781 49.0781 51.5312 44.7188
Q48 40.375 41.7031 38.8125
Q48.8281 37.1562 52.7969 32.3125
Q56.7812 27.4844 56.7812 20.5156
Q56.7812 9.90625 50.3125 4.23438
Q43.8438 -1.42188 31.7812 -1.42188
Q19.7344 -1.42188 13.25 4.23438
Q6.78125 9.90625 6.78125 20.5156
Q6.78125 27.4844 10.7812 32.3125
Q14.7969 37.1562 21.9219 38.8125
M18.3125 54.3906
Q18.3125 48.7344 21.8438 45.5625
Q25.3906 42.3906 31.7812 42.3906
Q38.1406 42.3906 41.7188 45.5625
Q45.3125 48.7344 45.3125 54.3906
Q45.3125 60.0625 41.7188 63.2344
Q38.1406 66.4062 31.7812 66.4062
Q25.3906 66.4062 21.8438 63.2344
Q18.3125 60.0625 18.3125 54.3906" id="DejaVuSans-38"/>
      </defs>
      <g transform="translate(90.340625 113.004756494)scale(0.12 -0.12)">
       <use xlink:href="#DejaVuSans-38"/>
       <use x="63.623046875" xlink:href="#DejaVuSans-30"/>
      </g>
     </g>
    </g>
    <g id="ytick_6">
     <g id="line2d_19">
      <g>
       <use style="stroke:#000000;stroke-width:0.5;" x="108.0" xlink:href="#m728421d6d4" y="56.4987012987"/>
      </g>
     </g>
     <g id="line2d_20">
      <g>
       <use style="stroke:#000000;stroke-width:0.5;" x="777.6" xlink:href="#mcb0005524f" y="56.4987012987"/>
      </g>
     </g>
     <g id="text_6">
      <!-- 100 -->
      <defs>
       <path d="
M12.4062 8.29688
L28.5156 8.29688
L28.5156 63.9219
L10.9844 60.4062
L10.9844 69.3906
L28.4219 72.9062
L38.2812 72.9062
L38.2812 8.29688
L54.3906 8.29688
L54.3906 0
L12.4062 0
z
" id="DejaVuSans-31"/>
      </defs>
      <g transform="translate(83.21 59.8099512987)scale(0.12 -0.12)">
       <use xlink:href="#DejaVuSans-31"/>
       <use x="63.623046875" xlink:href="#DejaVuSans-30"/>
       <use x="127.24609375" xlink:href="#DejaVuSans-30"/>
      </g>
     </g>
    </g>
    <g id="text_7">
     <!-- Methylation -->
     <defs>
      <path d="
M9.8125 72.9062
L24.5156 72.9062
L43.1094 23.2969
L61.8125 72.9062
L76.5156 72.9062
L76.5156 0
L66.8906 0
L66.8906 64.0156
L48.0938 14.0156
L38.1875 14.0156
L19.3906 64.0156
L19.3906 0
L9.8125 0
z
" id="DejaVuSans-4d"/>
      <path d="
M30.6094 48.3906
Q23.3906 48.3906 19.1875 42.75
Q14.9844 37.1094 14.9844 27.2969
Q14.9844 17.4844 19.1562 11.8438
Q23.3438 6.20312 30.6094 6.20312
Q37.7969 6.20312 41.9844 11.8594
Q46.1875 17.5312 46.1875 27.2969
Q46.1875 37.0156 41.9844 42.7031
Q37.7969 48.3906 30.6094 48.3906
M30.6094 56
Q42.3281 56 49.0156 48.375
Q55.7188 40.7656 55.7188 27.2969
Q55.7188 13.875 49.0156 6.21875
Q42.3281 -1.42188 30.6094 -1.42188
Q18.8438 -1.42188 12.1719 6.21875
Q5.51562 13.875 5.51562 27.2969
Q5.51562 40.7656 12.1719 48.375
Q18.8438 56 30.6094 56" id="DejaVuSans-6f"/>
      <path d="
M54.8906 33.0156
L54.8906 0
L45.9062 0
L45.9062 32.7188
Q45.9062 40.4844 42.875 44.3281
Q39.8438 48.1875 33.7969 48.1875
Q26.5156 48.1875 22.3125 43.5469
Q18.1094 38.9219 18.1094 30.9062
L18.1094 0
L9.07812 0
L9.07812 54.6875
L18.1094 54.6875
L18.1094 46.1875
Q21.3438 51.125 25.7031 53.5625
Q30.0781 56 35.7969 56
Q45.2188 56 50.0469 50.1719
Q54.8906 44.3438 54.8906 33.0156" id="DejaVuSans-6e"/>
      <path d="
M9.42188 75.9844
L18.4062 75.9844
L18.4062 0
L9.42188 0
z
" id="DejaVuSans-6c"/>
      <path d="
M32.1719 -5.07812
Q28.375 -14.8438 24.75 -17.8125
Q21.1406 -20.7969 15.0938 -20.7969
L7.90625 -20.7969
L7.90625 -13.2812
L13.1875 -13.2812
Q16.8906 -13.2812 18.9375 -11.5156
Q21 -9.76562 23.4844 -3.21875
L25.0938 0.875
L2.98438 54.6875
L12.5 54.6875
L29.5938 11.9219
L46.6875 54.6875
L56.2031 54.6875
z
" id="DejaVuSans-79"/>
      <path d="
M54.8906 33.0156
L54.8906 0
L45.9062 0
L45.9062 32.7188
Q45.9062 40.4844 42.875 44.3281
Q39.8438 48.1875 33.7969 48.1875
Q26.5156 48.1875 22.3125 43.5469
Q18.1094 38.9219 18.1094 30.9062
L18.1094 0
L9.07812 0
L9.07812 75.9844
L18.1094 75.9844
L18.1094 46.1875
Q21.3438 51.125 25.7031 53.5625
Q30.0781 56 35.7969 56
Q45.2188 56 50.0469 50.1719
Q54.8906 44.3438 54.8906 33.0156" id="DejaVuSans-68"/>
      <path d="
M9.42188 54.6875
L18.4062 54.6875
L18.4062 0
L9.42188 0
z

M9.42188 75.9844
L18.4062 75.9844
L18.4062 64.5938
L9.42188 64.5938
z
" id="DejaVuSans-69"/>
      <path d="
M18.3125 70.2188
L18.3125 54.6875
L36.8125 54.6875
L36.8125 47.7031
L18.3125 47.7031
L18.3125 18.0156
Q18.3125 11.3281 20.1406 9.42188
Q21.9688 7.51562 27.5938 7.51562
L36.8125 7.51562
L36.8125 0
L27.5938 0
Q17.1875 0 13.2344 3.875
Q9.28125 7.76562 9.28125 18.0156
L9.28125 47.7031
L2.6875 47.7031
L2.6875 54.6875
L9.28125 54.6875
L9.28125 70.2188
z
" id="DejaVuSans-74"/>
      <path d="
M56.2031 29.5938
L56.2031 25.2031
L14.8906 25.2031
Q15.4844 15.9219 20.4844 11.0625
Q25.4844 6.20312 34.4219 6.20312
Q39.5938 6.20312 44.4531 7.46875
Q49.3125 8.73438 54.1094 11.2812
L54.1094 2.78125
Q49.2656 0.734375 44.1875 -0.34375
Q39.1094 -1.42188 33.8906 -1.42188
Q20.7969 -1.42188 13.1562 6.1875
Q5.51562 13.8125 5.51562 26.8125
Q5.51562 40.2344 12.7656 48.1094
Q20.0156 56 32.3281 56
Q43.3594 56 49.7812 48.8906
Q56.2031 41.7969 56.2031 29.5938
M47.2188 32.2344
Q47.125 39.5938 43.0938 43.9844
Q39.0625 48.3906 32.4219 48.3906
Q24.9062 48.3906 20.3906 44.1406
Q15.875 39.8906 15.1875 32.1719
z
" id="DejaVuSans-65"/>
      <path d="
M34.2812 27.4844
Q23.3906 27.4844 19.1875 25
Q14.9844 22.5156 14.9844 16.5
Q14.9844 11.7188 18.1406 8.90625
Q21.2969 6.10938 26.7031 6.10938
Q34.1875 6.10938 38.7031 11.4062
Q43.2188 16.7031 43.2188 25.4844
L43.2188 27.4844
z

M52.2031 31.2031
L52.2031 0
L43.2188 0
L43.2188 8.29688
Q40.1406 3.32812 35.5469 0.953125
Q30.9531 -1.42188 24.3125 -1.42188
Q15.9219 -1.42188 10.9531 3.29688
Q6 8.01562 6 15.9219
Q6 25.1406 12.1719 29.8281
Q18.3594 34.5156 30.6094 34.5156
L43.2188 34.5156
L43.2188 35.4062
Q43.2188 41.6094 39.1406 45
Q35.0625 48.3906 27.6875 48.3906
Q23 48.3906 18.5469 47.2656
Q14.1094 46.1406 10.0156 43.8906
L10.0156 52.2031
Q14.9375 54.1094 19.5781 55.0469
Q24.2188 56 28.6094 56
Q40.4844 56 46.3438 49.8438
Q52.2031 43.7031 52.2031 31.2031" id="DejaVuSans-61"/>
     </defs>
     <g transform="translate(75.714375 217.149801136)rotate(-90.0)scale(0.12 -0.12)">
      <use xlink:href="#DejaVuSans-4d"/>
      <use x="86.279296875" xlink:href="#DejaVuSans-65"/>
      <use x="147.802734375" xlink:href="#DejaVuSans-74"/>
      <use x="187.01171875" xlink:href="#DejaVuSans-68"/>
      <use x="250.390625" xlink:href="#DejaVuSans-79"/>
      <use x="309.5703125" xlink:href="#DejaVuSans-6c"/>
      <use x="337.353515625" xlink:href="#DejaVuSans-61"/>
      <use x="398.6328125" xlink:href="#DejaVuSans-74"/>
      <use x="437.841796875" xlink:href="#DejaVuSans-69"/>
      <use x="465.625" xlink:href="#DejaVuSans-6f"/>
      <use x="526.806640625" xlink:href="#DejaVuSans-6e"/>
     </g>
    </g>
   </g>
  </g>
  <g id="axes_2">
   <g id="patch_18">
    <path d="
M108 388.8
L777.6 388.8
L777.6 353.891
L108 353.891
z
" style="fill:#ffffff;"/>
   </g>
   <g id="line2d_21">
    <path clip-path="url(#pc82b1f09f0)" d="
M108 371.345
L777.6 371.345" style="fill:none;stroke:#000000;stroke-linecap:square;"/>
   </g>
   <g id="line2d_22">
    <path clip-path="url(#pc82b1f09f0)" d="
M145.351 371.345
L740.249 371.345" style="fill:none;stroke:#008000;stroke-linecap:square;stroke-width:3;"/>
   </g>
   <g id="patch_19">
    <path clip-path="url(#pc82b1f09f0)" d="
M737.634 388.8
L740.249 388.8
L740.249 353.891
L737.634 353.891
z
" style="fill:#008000;"/>
   </g>
   <g id="patch_20">
    <path clip-path="url(#pc82b1f09f0)" d="
M602.683 388.8
L610.004 388.8
L610.004 353.891
L602.683 353.891
z
" style="fill:#008000;"/>
   </g>
   <g id="patch_21">
    <path clip-path="url(#pc82b1f09f0)" d="
M572.092 388.8
L575.491 388.8
L575.491 353.891
L572.092 353.891
z
" style="fill:#008000;"/>
   </g>
   <g id="patch_22">
    <path clip-path="url(#pc82b1f09f0)" d="
M555.732 388.8
L558.907 388.8
L558.907 353.891
L555.732 353.891
z
" style="fill:#008000;"/>
   </g>
   <g id="patch_23">
    <path clip-path="url(#pc82b1f09f0)" d="
M548.523 388.8
L552.819 388.8
L552.819 353.891
L548.523 353.891
z
" style="fill:#008000;"/>
   </g>
   <g id="patch_24">
    <path clip-path="url(#pc82b1f09f0)" d="
M484.764 388.8
L488.425 388.8
L488.425 353.891
L484.764 353.891
z
" style="fill:#008000;"/>
   </g>
   <g id="patch_25">
    <path clip-path="url(#pc82b1f09f0)" d="
M397.399 388.8
L398.781 388.8
L398.781 353.891
L397.399 353.891
z
" style="fill:#008000;"/>
   </g>
   <g id="patch_26">
    <path clip-path="url(#pc82b1f09f0)" d="
M375.063 388.8
L378.724 388.8
L378.724 353.891
L375.063 353.891
z
" style="fill:#008000;"/>
   </g>
   <g id="patch_27">
    <path clip-path="url(#pc82b1f09f0)" d="
M281.087 388.8
L285.42 388.8
L285.42 353.891
L281.087 353.891
z
" style="fill:#008000;"/>
   </g>
   <g id="patch_28">
    <path clip-path="url(#pc82b1f09f0)" d="
M212.323 388.8
L217.066 388.8
L217.066 353.891
L212.323 353.891
z
" style="fill:#008000;"/>
   </g>
   <g id="patch_29">
    <path clip-path="url(#pc82b1f09f0)" d="
M145.351 388.8
L184.346 388.8
L184.346 353.891
L145.351 353.891
z
" style="fill:#008000;"/>
   </g>
   <g id="patch_30">
    <path d="
M108 353.891
L777.6 353.891" style="fill:none;"/>
   </g>
   <g id="patch_31">
    <path d="
M777.6 388.8
L777.6 353.891" style="fill:none;"/>
   </g>
   <g id="patch_32">
    <path d="
M108 388.8
L777.6 388.8" style="fill:none;"/>
   </g>
   <g id="patch_33">
    <path d="
M108 388.8
L108 353.891" style="fill:none;"/>
   </g>
   <g id="matplotlib.axis_2">
    <g id="xtick_1">
     <g id="line2d_23">
      <defs>
       <path d="
M0 0
L0 -4" id="m93b0483c22" style="stroke:#000000;stroke-width:0.5;"/>
      </defs>
      <g>
       <use style="stroke:#000000;stroke-width:0.5;" x="161.375266358" xlink:href="#m93b0483c22" y="388.8"/>
      </g>
     </g>
     <g id="line2d_24">
      <defs>
       <path d="
M0 0
L0 4" id="m741efc42ff" style="stroke:#000000;stroke-width:0.5;"/>
      </defs>
      <g>
       <use style="stroke:#000000;stroke-width:0.5;" x="161.375266358" xlink:href="#m741efc42ff" y="353.890909091"/>
      </g>
     </g>
     <g id="text_8">
      <!-- 1000 -->
      <g transform="translate(147.162766358 401.918125)scale(0.12 -0.12)">
       <use xlink:href="#DejaVuSans-31"/>
       <use x="63.623046875" xlink:href="#DejaVuSans-30"/>
       <use x="127.24609375" xlink:href="#DejaVuSans-30"/>
       <use x="190.869140625" xlink:href="#DejaVuSans-30"/>
      </g>
     </g>
    </g>
    <g id="xtick_2">
     <g id="line2d_25">
      <g>
       <use style="stroke:#000000;stroke-width:0.5;" x="348.132671389" xlink:href="#m93b0483c22" y="388.8"/>
      </g>
     </g>
     <g id="line2d_26">
      <g>
       <use style="stroke:#000000;stroke-width:0.5;" x="348.132671389" xlink:href="#m741efc42ff" y="353.890909091"/>
      </g>
     </g>
     <g id="text_9">
      <!-- 2000 -->
      <g transform="translate(333.700796389 401.918125)scale(0.12 -0.12)">
       <use xlink:href="#DejaVuSans-32"/>
       <use x="63.623046875" xlink:href="#DejaVuSans-30"/>
       <use x="127.24609375" xlink:href="#DejaVuSans-30"/>
       <use x="190.869140625" xlink:href="#DejaVuSans-30"/>
      </g>
     </g>
    </g>
    <g id="xtick_3">
     <g id="line2d_27">
      <g>
       <use style="stroke:#000000;stroke-width:0.5;" x="534.890076421" xlink:href="#m93b0483c22" y="388.8"/>
      </g>
     </g>
     <g id="line2d_28">
      <g>
       <use style="stroke:#000000;stroke-width:0.5;" x="534.890076421" xlink:href="#m741efc42ff" y="353.890909091"/>
      </g>
     </g>
     <g id="text_10">
      <!-- 3000 -->
      <defs>
       <path d="
M40.5781 39.3125
Q47.6562 37.7969 51.625 33
Q55.6094 28.2188 55.6094 21.1875
Q55.6094 10.4062 48.1875 4.48438
Q40.7656 -1.42188 27.0938 -1.42188
Q22.5156 -1.42188 17.6562 -0.515625
Q12.7969 0.390625 7.625 2.20312
L7.625 11.7188
Q11.7188 9.32812 16.5938 8.10938
Q21.4844 6.89062 26.8125 6.89062
Q36.0781 6.89062 40.9375 10.5469
Q45.7969 14.2031 45.7969 21.1875
Q45.7969 27.6406 41.2812 31.2656
Q36.7656 34.9062 28.7188 34.9062
L20.2188 34.9062
L20.2188 43.0156
L29.1094 43.0156
Q36.375 43.0156 40.2344 45.9219
Q44.0938 48.8281 44.0938 54.2969
Q44.0938 59.9062 40.1094 62.9062
Q36.1406 65.9219 28.7188 65.9219
Q24.6562 65.9219 20.0156 65.0312
Q15.375 64.1562 9.8125 62.3125
L9.8125 71.0938
Q15.4375 72.6562 20.3438 73.4375
Q25.25 74.2188 29.5938 74.2188
Q40.8281 74.2188 47.3594 69.1094
Q53.9062 64.0156 53.9062 55.3281
Q53.9062 49.2656 50.4375 45.0938
Q46.9688 40.9219 40.5781 39.3125" id="DejaVuSans-33"/>
      </defs>
      <g transform="translate(520.476013921 401.918125)scale(0.12 -0.12)">
       <use xlink:href="#DejaVuSans-33"/>
       <use x="63.623046875" xlink:href="#DejaVuSans-30"/>
       <use x="127.24609375" xlink:href="#DejaVuSans-30"/>
       <use x="190.869140625" xlink:href="#DejaVuSans-30"/>
      </g>
     </g>
    </g>
    <g id="xtick_4">
     <g id="line2d_29">
      <g>
       <use style="stroke:#000000;stroke-width:0.5;" x="721.647481453" xlink:href="#m93b0483c22" y="388.8"/>
      </g>
     </g>
     <g id="line2d_30">
      <g>
       <use style="stroke:#000000;stroke-width:0.5;" x="721.647481453" xlink:href="#m741efc42ff" y="353.890909091"/>
      </g>
     </g>
     <g id="text_11">
      <!-- 4000 -->
      <g transform="translate(707.069356453 401.918125)scale(0.12 -0.12)">
       <use xlink:href="#DejaVuSans-34"/>
       <use x="63.623046875" xlink:href="#DejaVuSans-30"/>
       <use x="127.24609375" xlink:href="#DejaVuSans-30"/>
       <use x="190.869140625" xlink:href="#DejaVuSans-30"/>
      </g>
     </g>
    </g>
    <g id="text_12">
     <!-- Length (bp) -->
     <defs>
      <path d="
M9.8125 72.9062
L19.6719 72.9062
L19.6719 8.29688
L55.1719 8.29688
L55.1719 0
L9.8125 0
z
" id="DejaVuSans-4c"/>
      <path id="DejaVuSans-20"/>
      <path d="
M45.4062 27.9844
Q45.4062 37.75 41.375 43.1094
Q37.3594 48.4844 30.0781 48.4844
Q22.8594 48.4844 18.8281 43.1094
Q14.7969 37.75 14.7969 27.9844
Q14.7969 18.2656 18.8281 12.8906
Q22.8594 7.51562 30.0781 7.51562
Q37.3594 7.51562 41.375 12.8906
Q45.4062 18.2656 45.4062 27.9844
M54.3906 6.78125
Q54.3906 -7.17188 48.1875 -13.9844
Q42 -20.7969 29.2031 -20.7969
Q24.4688 -20.7969 20.2656 -20.0938
Q16.0625 -19.3906 12.1094 -17.9219
L12.1094 -9.1875
Q16.0625 -11.3281 19.9219 -12.3438
Q23.7812 -13.375 27.7812 -13.375
Q36.625 -13.375 41.0156 -8.76562
Q45.4062 -4.15625 45.4062 5.17188
L45.4062 9.625
Q42.625 4.78125 38.2812 2.39062
Q33.9375 0 27.875 0
Q17.8281 0 11.6719 7.65625
Q5.51562 15.3281 5.51562 27.9844
Q5.51562 40.6719 11.6719 48.3281
Q17.8281 56 27.875 56
Q33.9375 56 38.2812 53.6094
Q42.625 51.2188 45.4062 46.3906
L45.4062 54.6875
L54.3906 54.6875
z
" id="DejaVuSans-67"/>
      <path d="
M31 75.875
Q24.4688 64.6562 21.2812 53.6562
Q18.1094 42.6719 18.1094 31.3906
Q18.1094 20.125 21.3125 9.0625
Q24.5156 -2 31 -13.1875
L23.1875 -13.1875
Q15.875 -1.70312 12.2344 9.375
Q8.59375 20.4531 8.59375 31.3906
Q8.59375 42.2812 12.2031 53.3125
Q15.8281 64.3594 23.1875 75.875
z
" id="DejaVuSans-28"/>
      <path d="
M8.01562 75.875
L15.8281 75.875
Q23.1406 64.3594 26.7812 53.3125
Q30.4219 42.2812 30.4219 31.3906
Q30.4219 20.4531 26.7812 9.375
Q23.1406 -1.70312 15.8281 -13.1875
L8.01562 -13.1875
Q14.5 -2 17.7031 9.0625
Q20.9062 20.125 20.9062 31.3906
Q20.9062 42.6719 17.7031 53.6562
Q14.5 64.6562 8.01562 75.875" id="DejaVuSans-29"/>
      <path d="
M48.6875 27.2969
Q48.6875 37.2031 44.6094 42.8438
Q40.5312 48.4844 33.4062 48.4844
Q26.2656 48.4844 22.1875 42.8438
Q18.1094 37.2031 18.1094 27.2969
Q18.1094 17.3906 22.1875 11.75
Q26.2656 6.10938 33.4062 6.10938
Q40.5312 6.10938 44.6094 11.75
Q48.6875 17.3906 48.6875 27.2969
M18.1094 46.3906
Q20.9531 51.2656 25.2656 53.625
Q29.5938 56 35.5938 56
Q45.5625 56 51.7812 48.0938
Q58.0156 40.1875 58.0156 27.2969
Q58.0156 14.4062 51.7812 6.48438
Q45.5625 -1.42188 35.5938 -1.42188
Q29.5938 -1.42188 25.2656 0.953125
Q20.9531 3.32812 18.1094 8.20312
L18.1094 0
L9.07812 0
L9.07812 75.9844
L18.1094 75.9844
z
" id="DejaVuSans-62"/>
      <path d="
M18.1094 8.20312
L18.1094 -20.7969
L9.07812 -20.7969
L9.07812 54.6875
L18.1094 54.6875
L18.1094 46.3906
Q20.9531 51.2656 25.2656 53.625
Q29.5938 56 35.5938 56
Q45.5625 56 51.7812 48.0938
Q58.0156 40.1875 58.0156 27.2969
Q58.0156 14.4062 51.7812 6.48438
Q45.5625 -1.42188 35.5938 -1.42188
Q29.5938 -1.42188 25.2656 0.953125
Q20.9531 3.32812 18.1094 8.20312
M48.6875 27.2969
Q48.6875 37.2031 44.6094 42.8438
Q40.5312 48.4844 33.4062 48.4844
Q26.2656 48.4844 22.1875 42.8438
Q18.1094 37.2031 18.1094 27.2969
Q18.1094 17.3906 22.1875 11.75
Q26.2656 6.10938 33.4062 6.10938
Q40.5312 6.10938 44.6094 11.75
Q48.6875 17.3906 48.6875 27.2969" id="DejaVuSans-70"/>
     </defs>
     <g transform="translate(408.4125 418.531875)scale(0.12 -0.12)">
      <use xlink:href="#DejaVuSans-4c"/>
      <use x="53.962890625" xlink:href="#DejaVuSans-65"/>
      <use x="115.486328125" xlink:href="#DejaVuSans-6e"/>
      <use x="178.865234375" xlink:href="#DejaVuSans-67"/>
      <use x="242.341796875" xlink:href="#DejaVuSans-74"/>
      <use x="281.55078125" xlink:href="#DejaVuSans-68"/>
      <use x="344.9296875" xlink:href="#DejaVuSans-20"/>
      <use x="376.716796875" xlink:href="#DejaVuSans-28"/>
      <use x="415.73046875" xlink:href="#DejaVuSans-62"/>
      <use x="479.20703125" xlink:href="#DejaVuSans-70"/>
      <use x="542.68359375" xlink:href="#DejaVuSans-29"/>
     </g>
     <!-- chr11:44454571-44470498 -->
     <defs>
      <path d="
M11.7188 12.4062
L22.0156 12.4062
L22.0156 0
L11.7188 0
z

M11.7188 51.7031
L22.0156 51.7031
L22.0156 39.3125
L11.7188 39.3125
z
" id="DejaVuSans-3a"/>
      <path d="
M4.89062 31.3906
L31.2031 31.3906
L31.2031 23.3906
L4.89062 23.3906
z
" id="DejaVuSans-2d"/>
      <path d="
M10.7969 72.9062
L49.5156 72.9062
L49.5156 64.5938
L19.8281 64.5938
L19.8281 46.7344
Q21.9688 47.4688 24.1094 47.8281
Q26.2656 48.1875 28.4219 48.1875
Q40.625 48.1875 47.75 41.5
Q54.8906 34.8125 54.8906 23.3906
Q54.8906 11.625 47.5625 5.09375
Q40.2344 -1.42188 26.9062 -1.42188
Q22.3125 -1.42188 17.5469 -0.640625
Q12.7969 0.140625 7.71875 1.70312
L7.71875 11.625
Q12.1094 9.23438 16.7969 8.0625
Q21.4844 6.89062 26.7031 6.89062
Q35.1562 6.89062 40.0781 11.3281
Q45.0156 15.7656 45.0156 23.3906
Q45.0156 31 40.0781 35.4375
Q35.1562 39.8906 26.7031 39.8906
Q22.75 39.8906 18.8125 39.0156
Q14.8906 38.1406 10.7969 36.2812
z
" id="DejaVuSans-35"/>
      <path d="
M8.20312 72.9062
L55.0781 72.9062
L55.0781 68.7031
L28.6094 0
L18.3125 0
L43.2188 64.5938
L8.20312 64.5938
z
" id="DejaVuSans-37"/>
      <path d="
M10.9844 1.51562
L10.9844 10.5
Q14.7031 8.73438 18.5 7.8125
Q22.3125 6.89062 25.9844 6.89062
Q35.75 6.89062 40.8906 13.4531
Q46.0469 20.0156 46.7812 33.4062
Q43.9531 29.2031 39.5938 26.9531
Q35.25 24.7031 29.9844 24.7031
Q19.0469 24.7031 12.6719 31.3125
Q6.29688 37.9375 6.29688 49.4219
Q6.29688 60.6406 12.9375 67.4219
Q19.5781 74.2188 30.6094 74.2188
Q43.2656 74.2188 49.9219 64.5156
Q56.5938 54.8281 56.5938 36.375
Q56.5938 19.1406 48.4062 8.85938
Q40.2344 -1.42188 26.4219 -1.42188
Q22.7031 -1.42188 18.8906 -0.6875
Q15.0938 0.046875 10.9844 1.51562
M30.6094 32.4219
Q37.25 32.4219 41.125 36.9531
Q45.0156 41.5 45.0156 49.4219
Q45.0156 57.2812 41.125 61.8438
Q37.25 66.4062 30.6094 66.4062
Q23.9688 66.4062 20.0938 61.8438
Q16.2188 57.2812 16.2188 49.4219
Q16.2188 41.5 20.0938 36.9531
Q23.9688 32.4219 30.6094 32.4219" id="DejaVuSans-39"/>
      <path d="
M48.7812 52.5938
L48.7812 44.1875
Q44.9688 46.2969 41.1406 47.3438
Q37.3125 48.3906 33.4062 48.3906
Q24.6562 48.3906 19.8125 42.8438
Q14.9844 37.3125 14.9844 27.2969
Q14.9844 17.2812 19.8125 11.7344
Q24.6562 6.20312 33.4062 6.20312
Q37.3125 6.20312 41.1406 7.25
Q44.9688 8.29688 48.7812 10.4062
L48.7812 2.09375
Q45.0156 0.34375 40.9844 -0.53125
Q36.9688 -1.42188 32.4219 -1.42188
Q20.0625 -1.42188 12.7812 6.34375
Q5.51562 14.1094 5.51562 27.2969
Q5.51562 40.6719 12.8594 48.3281
Q20.2188 56 33.0156 56
Q37.1562 56 41.1094 55.1406
Q45.0625 54.2969 48.7812 52.5938" id="DejaVuSans-63"/>
      <path d="
M41.1094 46.2969
Q39.5938 47.1719 37.8125 47.5781
Q36.0312 48 33.8906 48
Q26.2656 48 22.1875 43.0469
Q18.1094 38.0938 18.1094 28.8125
L18.1094 0
L9.07812 0
L9.07812 54.6875
L18.1094 54.6875
L18.1094 46.1875
Q20.9531 51.1719 25.4844 53.5781
Q30.0312 56 36.5312 56
Q37.4531 56 38.5781 55.875
Q39.7031 55.7656 41.0625 55.5156
z
" id="DejaVuSans-72"/>
     </defs>
     <g transform="translate(361.0725 431.96925)scale(0.12 -0.12)">
      <use xlink:href="#DejaVuSans-63"/>
      <use x="54.98046875" xlink:href="#DejaVuSans-68"/>
      <use x="118.359375" xlink:href="#DejaVuSans-72"/>
      <use x="159.47265625" xlink:href="#DejaVuSans-31"/>
      <use x="223.095703125" xlink:href="#DejaVuSans-31"/>
      <use x="286.71875" xlink:href="#DejaVuSans-3a"/>
      <use x="320.41015625" xlink:href="#DejaVuSans-34"/>
      <use x="384.033203125" xlink:href="#DejaVuSans-34"/>
      <use x="447.65625" xlink:href="#DejaVuSans-34"/>
      <use x="511.279296875" xlink:href="#DejaVuSans-35"/>
      <use x="574.90234375" xlink:href="#DejaVuSans-34"/>
      <use x="638.525390625" xlink:href="#DejaVuSans-35"/>
      <use x="702.1484375" xlink:href="#DejaVuSans-37"/>
      <use x="765.771484375" xlink:href="#DejaVuSans-31"/>
      <use x="829.39453125" xlink:href="#DejaVuSans-2d"/>
      <use x="865.478515625" xlink:href="#DejaVuSans-34"/>
      <use x="929.1015625" xlink:href="#DejaVuSans-34"/>
      <use x="992.724609375" xlink:href="#DejaVuSans-34"/>
      <use x="1056.34765625" xlink:href="#DejaVuSans-37"/>
      <use x="1119.97070312" xlink:href="#DejaVuSans-30"/>
      <use x="1183.59375" xlink:href="#DejaVuSans-34"/>
      <use x="1247.21679688" xlink:href="#DejaVuSans-39"/>
      <use x="1310.83984375" xlink:href="#DejaVuSans-38"/>
     </g>
    </g>
   </g>
  </g>
  <g id="text_13">
   <!-- ENSMUST00000102795 (Ublcp1) -->
   <defs>
    <path d="
M53.5156 70.5156
L53.5156 60.8906
Q47.9062 63.5781 42.9219 64.8906
Q37.9375 66.2188 33.2969 66.2188
Q25.25 66.2188 20.875 63.0938
Q16.5 59.9688 16.5 54.2031
Q16.5 49.3594 19.4062 46.8906
Q22.3125 44.4375 30.4219 42.9219
L36.375 41.7031
Q47.4062 39.5938 52.6562 34.2969
Q57.9062 29 57.9062 20.125
Q57.9062 9.51562 50.7969 4.04688
Q43.7031 -1.42188 29.9844 -1.42188
Q24.8125 -1.42188 18.9688 -0.25
Q13.1406 0.921875 6.89062 3.21875
L6.89062 13.375
Q12.8906 10.0156 18.6562 8.29688
Q24.4219 6.59375 29.9844 6.59375
Q38.4219 6.59375 43.0156 9.90625
Q47.6094 13.2344 47.6094 19.3906
Q47.6094 24.75 44.3125 27.7812
Q41.0156 30.8125 33.5 32.3281
L27.4844 33.5
Q16.4531 35.6875 11.5156 40.375
Q6.59375 45.0625 6.59375 53.4219
Q6.59375 63.0938 13.4062 68.6562
Q20.2188 74.2188 32.1719 74.2188
Q37.3125 74.2188 42.625 73.2812
Q47.9531 72.3594 53.5156 70.5156" id="DejaVuSans-53"/>
    <path d="
M9.8125 72.9062
L55.9062 72.9062
L55.9062 64.5938
L19.6719 64.5938
L19.6719 43.0156
L54.3906 43.0156
L54.3906 34.7188
L19.6719 34.7188
L19.6719 8.29688
L56.7812 8.29688
L56.7812 0
L9.8125 0
z
" id="DejaVuSans-45"/>
    <path d="
M-0.296875 72.9062
L61.375 72.9062
L61.375 64.5938
L35.5 64.5938
L35.5 0
L25.5938 0
L25.5938 64.5938
L-0.296875 64.5938
z
" id="DejaVuSans-54"/>
    <path d="
M8.6875 72.9062
L18.6094 72.9062
L18.6094 28.6094
Q18.6094 16.8906 22.8438 11.7344
Q27.0938 6.59375 36.625 6.59375
Q46.0938 6.59375 50.3438 11.7344
Q54.5938 16.8906 54.5938 28.6094
L54.5938 72.9062
L64.5 72.9062
L64.5 27.3906
Q64.5 13.1406 57.4375 5.85938
Q50.3906 -1.42188 36.625 -1.42188
Q22.7969 -1.42188 15.7344 5.85938
Q8.6875 13.1406 8.6875 27.3906
z
" id="DejaVuSans-55"/>
    <path d="
M9.8125 72.9062
L23.0938 72.9062
L55.4219 11.9219
L55.4219 72.9062
L64.9844 72.9062
L64.9844 0
L51.7031 0
L19.3906 60.9844
L19.3906 0
L9.8125 0
z
" id="DejaVuSans-4e"/>
   </defs>
   <g transform="translate(334.010625 17.758125)scale(0.12 -0.12)">
    <use xlink:href="#DejaVuSans-45"/>
    <use x="63.18359375" xlink:href="#DejaVuSans-4e"/>
    <use x="137.98828125" xlink:href="#DejaVuSans-53"/>
    <use x="201.46484375" xlink:href="#DejaVuSans-4d"/>
    <use x="287.744140625" xlink:href="#DejaVuSans-55"/>
    <use x="360.9375" xlink:href="#DejaVuSans-53"/>
    <use x="424.4140625" xlink:href="#DejaVuSans-54"/>
    <use x="485.498046875" xlink:href="#DejaVuSans-30"/>
    <use x="549.12109375" xlink:href="#DejaVuSans-30"/>
    <use x="612.744140625" xlink:href="#DejaVuSans-30"/>
    <use x="676.3671875" xlink:href="#DejaVuSans-30"/>
    <use x="739.990234375" xlink:href="#DejaVuSans-30"/>
    <use x="803.61328125" xlink:href="#DejaVuSans-31"/>
    <use x="867.236328125" xlink:href="#DejaVuSans-30"/>
    <use x="930.859375" xlink:href="#DejaVuSans-32"/>
    <use x="994.482421875" xlink:href="#DejaVuSans-37"/>
    <use x="1058.10546875" xlink:href="#DejaVuSans-39"/>
    <use x="1121.72851562" xlink:href="#DejaVuSans-35"/>
    <use x="1185.3515625" xlink:href="#DejaVuSans-20"/>
    <use x="1217.13867188" xlink:href="#DejaVuSans-28"/>
    <use x="1256.15234375" xlink:href="#DejaVuSans-55"/>
    <use x="1329.34570312" xlink:href="#DejaVuSans-62"/>
    <use x="1392.82226562" xlink:href="#DejaVuSans-6c"/>
    <use x="1420.60546875" xlink:href="#DejaVuSans-63"/>
    <use x="1475.5859375" xlink:href="#DejaVuSans-70"/>
    <use x="1539.0625" xlink:href="#DejaVuSans-31"/>
    <use x="1602.68554688" xlink:href="#DejaVuSans-29"/>
   </g>
  </g>
 </g>
 <defs>
  <clipPath id="p9fd4257182">
   <rect height="279.272727273" width="669.6" x="108.0" y="43.2"/>
  </clipPath>
  <clipPath id="pc82b1f09f0">
   <rect height="34.9090909091" width="669.6" x="108.0" y="353.890909091"/>
  </clipPath>
 </defs>
</svg>
