<?xml version="1.0" encoding="utf-8" standalone="no"?>
<!DOCTYPE svg PUBLIC "-//W3C//DTD SVG 1.1//EN"
  "http://www.w3.org/Graphics/SVG/1.1/DTD/svg11.dtd">
<!-- Created with matplotlib (http://matplotlib.org/) -->
<svg height="432pt" version="1.1" viewBox="0 0 864 432" width="864pt" xmlns="http://www.w3.org/2000/svg" xmlns:xlink="http://www.w3.org/1999/xlink">
 <defs>
  <style type="text/css">
*{stroke-linecap:butt;stroke-linejoin:round;}
  </style>
 </defs>
 <g id="figure_1">
  <g id="patch_1">
   <path d="
M0 432
L864 432
L864 0
L0 0
z
" style="fill:#ffffff;"/>
  </g>
  <g id="axes_1">
   <g id="patch_2">
    <path d="
M108 322.473
L777.6 322.473
L777.6 43.2
L108 43.2
z
" style="fill:#ffffff;"/>
   </g>
   <g id="patch_3">
    <path clip-path="url(#p9fd4257182)" d="
M737.077 322.473
L742.667 322.473
L742.667 43.2
L737.077 43.2
z
" style="fill:#008000;opacity:0.2;"/>
   </g>
   <g id="patch_4">
    <path clip-path="url(#p9fd4257182)" d="
M305.303 322.473
L338.28 322.473
L338.28 43.2
L305.303 43.2
z
" style="fill:#008000;opacity:0.2;"/>
   </g>
   <g id="patch_5">
    <path clip-path="url(#p9fd4257182)" d="
M298.316 322.473
L301.775 322.473
L301.775 43.2
L298.316 43.2
z
" style="fill:#008000;opacity:0.2;"/>
   </g>
   <g id="patch_6">
    <path clip-path="url(#p9fd4257182)" d="
M243.751 322.473
L246.475 322.473
L246.475 43.2
L243.751 43.2
z
" style="fill:#008000;opacity:0.2;"/>
   </g>
   <g id="patch_7">
    <path clip-path="url(#p9fd4257182)" d="
M142.933 322.473
L199.63 322.473
L199.63 43.2
L142.933 43.2
z
" style="fill:#008000;opacity:0.2;"/>
   </g>
   <g id="line2d_1">
    <path clip-path="url(#p9fd4257182)" d="
M111.878 56.9586
L111.913 56.9591
L128.366 97.2588
L145.274 85.0731
L146.776 82.7922
L150.793 77.0503
L155.649 71.8349
L169.622 69.8855
L171.544 68.8631
L172.417 68.1583
L173.814 66.7117
L182.757 56.8724
L198.163 61.8694
L199.246 66.154
L202.983 96.0813
L209.83 84.2194
L224.013 68.1014
L233.864 71.8969
L237.463 74.0043
L241.41 75.9027
L248.956 76.2704
L252.169 74.633
L254.475 72.8214
L269.147 61.6082
L270.929 58.4219
L271.348 58.0007
L274.806 56.8024
L281.583 56.579
L302.403 56.5022
L305.862 59.0937
L308.097 109.083
L308.342 120.168
L309.6 152.267
L310.683 122.336
L312.394 66.1093
L313.407 59.8765
L319.521 56.5005
L320.534 56.5104
L322.804 60.7672
L322.944 62.6852
L323.608 88.0784
L329.651 149.344
L329.686 147.56
L331.433 93.4899
L331.782 88.8779
L334.297 84.8913
L334.332 85.1705
L337.511 135.347
L340.725 105.385
L342.018 92.305
L352.917 97.3585
L355.222 135.949
L356.305 163.216
L360.218 195.581
L360.253 194.955
L363.502 96.6303
L370.977 56.732
L374.366 57.495
L385.055 99.4647
L386.907 111.887
L395.361 160.308
L400.321 164.597
L400.356 164.541
L412.583 99.7511
L422.294 87.6906
L422.888 87.9224
L437.42 85.0556
L439.901 80.3546
L441.053 79.6943
L441.088 79.7568
L443.534 128.499
L443.918 154.772
L444.337 192.983
L461.559 64.5547
L461.594 64.5802
L462.782 65.3579
L466.834 63.8788
L468.022 62.462
L470.013 60.5631
L472.982 59.5154
L480.388 82.1482
L481.087 84.9407
L485.349 99.0082
L490.169 113.083
L514.099 69.8883
L529.12 67.6887
L529.539 67.9192
L540.683 74.9792
L542.954 76.6074
L551.896 80.9175
L553.643 80.7212
L565.311 88.1413
L567.861 93.8981
L570.306 101.957
L571.529 107.309
L583.825 237.275
L596.925 315.21
L608.349 321.483
L611.178 321.467
L614.916 319.872
L614.951 319.837
L641.116 97.6242
L642.688 104.636
L658.233 294.441
L661.063 297.713
L661.098 297.647
L661.657 296.243
L668.294 222.028
L671.333 165.375
L673.359 138.698
L678.39 137.537
L678.425 137.826
L680.87 170.173
L682.547 206.593
L700.747 306.839
L700.782 306.464
L706.162 186.915
L709.306 163.868
L709.34 164.149
L710.039 172.174
L711.332 197.583
L713.148 245.137
L716.327 300.061
L720.03 319.113
L722.301 320.871
L729.462 321.781
L735.68 321.671
L740.815 321.756
L743.75 321.738
L747.697 321.987
L751.784 321.641
L755.522 321.338
L759.12 313.3
L762.544 225.74
L766.561 230.958
L766.806 232.699
L770.788 267.809
L772.325 283.585
L773.757 293.378
L773.757 293.378" style="fill:none;opacity:0.5;stroke:#0000ff;stroke-linecap:square;"/>
   </g>
   <g id="line2d_2">
    <path clip-path="url(#p9fd4257182)" d="
M111.878 57.1229
L111.913 57.1267
L119.248 57.5796
L121.31 57.4278
L128.366 57.7815
L145.274 82.8786
L146.776 83.1958
L150.793 81.512
L155.649 78.1188
L169.063 80.532
L170.95 84.9346
L171.544 86.1147
L172.417 87.4447
L173.814 88.1586
L182.757 63.3312
L198.163 56.9527
L202.983 56.9081
L209.83 56.9413
L224.013 57.6653
L233.864 57.026
L237.463 57.0501
L241.41 57.3784
L248.956 60.2731
L252.169 66.9235
L254.475 82.2454
L269.147 60.4333
L270.929 58.2464
L271.348 57.9654
L274.806 57.0682
L281.583 56.9889
L298.107 57.0723
L302.403 57.9757
L305.862 78.0401
L308.063 76.4458
L309.635 63.6793
L310.683 58.8202
L312.394 56.8545
L313.407 56.7077
L319.521 58.3058
L320.534 59.8701
L322.944 70.7353
L323.608 75.7279
L329.651 81.1458
L329.686 81.0283
L331.782 72.7627
L334.332 64.0364
L337.511 59.5524
L340.725 59.4031
L342.018 59.7625
L352.917 101.168
L352.952 100.136
L355.222 62.6212
L356.305 58.5973
L360.253 56.6247
L363.502 56.6699
L370.977 57.3986
L373.947 60.6483
L374.366 62.4623
L385.055 88.3626
L386.907 98.6337
L395.361 168.922
L400.321 176.957
L400.356 176.807
L412.583 67.788
L422.294 57.1308
L422.888 57.0619
L437.42 69.4004
L439.621 68.2596
L439.901 67.7535
L441.088 64.7075
L443.534 57.3802
L443.918 57.0052
L444.337 56.7596
L462.782 57.1186
L468.022 57.4523
L470.013 57.7392
L472.982 58.7021
L480.353 68.7292
L480.388 68.6589
L481.087 66.7264
L485.384 59.0618
L490.204 56.8253
L514.099 73.6574
L529.12 61.9939
L529.539 61.8778
L540.683 79.6725
L542.988 86.705
L551.896 61.1591
L552.77 59.5633
L553.643 58.5094
L565.311 57.3916
L567.861 58.7177
L570.306 61.8723
L571.529 64.6697
L583.86 121.761
L596.925 235.432
L608.349 291.316
L611.213 290.92
L614.916 282.487
L614.951 282.363
L627.841 167.84
L638.496 95.7927
L641.116 93.2856
L642.688 94.3679
L658.233 222.56
L661.098 212.846
L661.657 209.525
L668.294 155.434
L670.39 139.862
L671.333 134.069
L673.359 124.689
L678.425 120.105
L680.87 124.815
L682.547 130.061
L700.782 232.485
L704.764 230.647
L706.162 228.613
L709.34 216.473
L710.074 209.805
L711.297 208.774
L711.332 209.062
L712.554 232.205
L713.148 248.004
L716.327 294.816
L719.995 292.084
L720.03 292.148
L722.301 291.268
L725.899 319.554
L727.296 321.566
L728.624 321.92
L730.615 321.905
L733.27 321.966
L736.763 322.056
L740.85 322.001
L744.658 322.081
L754.858 321.327
L755.522 321.087
L759.12 297.5
L761.112 184.841
L762.544 121.46
L766.596 69.196
L766.806 68.2778
L770.753 68.5562
L770.788 68.6875
L772.046 76.7621
L772.325 79.8979
L773.757 97.4327
L773.757 97.4327" style="fill:none;opacity:0.5;stroke:#ff0000;stroke-linecap:square;"/>
   </g>
   <g id="line2d_3">
    <path clip-path="url(#p9fd4257182)" d="
M111.878 61.2137
L111.913 61.1681
L119.248 57.8677
L121.31 57.4869
L128.366 57.4214
L146.776 67.8842
L150.793 68.7547
L155.649 69.9926
L169.063 57.9499
L169.657 57.6515
L171.544 57.1216
L173.814 56.943
L182.757 57.0538
L198.163 56.8565
L199.246 57.0229
L202.983 59.8494
L209.83 105.372
L223.978 127.294
L224.013 126.971
L233.899 64.7113
L237.463 59.4254
L241.41 57.6154
L248.956 57.156
L254.475 57.2222
L269.147 58.1391
L271.313 58.1002
L281.583 57.1143
L298.107 58.1917
L302.403 63.0277
L305.862 64.7786
L308.097 65.4242
L308.342 65.7003
L309.635 67.6743
L310.683 69.637
L312.394 71.5506
L313.407 71.128
L319.486 66.9171
L319.521 66.9871
L320.534 70.1774
L323.573 88.4649
L323.608 88.5836
L329.686 73.7323
L331.782 69.5653
L334.297 68.4489
L337.511 77.3516
L340.725 103.037
L342.018 115.718
L352.952 83.628
L356.305 79.4273
L360.253 77.3298
L363.502 84.0836
L370.977 66.9603
L374.086 63.3886
L374.366 63.2749
L385.055 80.1579
L386.907 94.4229
L395.361 227.858
L400.321 244.392
L400.356 244.201
L412.583 65.4374
L422.294 56.8802
L422.888 56.8276
L437.42 74.1841
L439.621 88.4707
L439.901 91.1562
L441.088 104.365
L443.534 74.3691
L444.302 63.1467
L444.337 62.7973
L461.594 58.7399
L462.013 59.064
L462.782 59.4193
L466.834 58.9615
L468.022 59.7986
L470.013 63.5711
L472.982 78.2123
L480.388 66.7578
L481.087 66.2845
L485.384 65.1675
L490.204 64.6557
L514.064 95.02
L529.12 57.4607
L529.539 57.3944
L540.683 56.9195
L542.988 56.9419
L551.896 60.168
L552.77 62.1588
L553.643 65.2344
L565.276 90.2925
L565.311 89.9759
L567.861 72.1519
L570.306 63.9184
L571.529 61.8627
L583.825 94.0625
L583.86 94.6141
L596.925 314.355
L608.349 315.415
L611.213 313.852
L614.741 307.682
L614.951 307.026
L627.841 166.508
L638.461 115.094
L638.706 115.063
L642.653 122.408
L658.233 214.913
L661.063 213.341
L661.657 209.636
L668.294 140.461
L670.39 123.273
L671.333 117.244
L673.359 108.931
L678.425 120.599
L682.547 149.568
L700.782 231.553
L704.764 241.816
L706.162 242.084
L709.34 241.401
L710.074 239.87
L711.332 247.044
L713.148 282.821
L716.327 310.793
L719.995 308.946
L720.03 309.027
L722.301 320.1
L725.899 322.111
L733.235 321.799
L736.763 321.988
L743.75 321.984
L750.527 322.025
L751.784 321.987
L753.741 321.274
L754.858 318.879
L755.522 315.37
L759.12 273.68
L761.112 239.781
L762.544 201.718
L766.806 100.884
L770.788 79.4059
L772.046 79.6527
L772.325 80.0989
L773.757 82.7099
L773.757 82.7099" style="fill:none;opacity:0.5;stroke:#ff0000;stroke-linecap:square;"/>
   </g>
   <g id="line2d_4">
    <path clip-path="url(#p9fd4257182)" d="
M111.878 66.4753
L111.913 66.2795
L119.214 60.0899
L121.31 62.3513
L128.366 75.2161
L145.274 95.39
L146.776 93.1789
L150.793 88.0666
L155.649 82.2191
L169.063 79.9969
L169.657 79.5879
L170.95 79.1184
L171.544 79.1495
L172.417 79.5555
L173.814 81.3721
L182.757 111.747
L198.163 93.4294
L199.211 93.4174
L202.983 92.9158
L209.83 87.7622
L224.013 77.8968
L233.899 72.0302
L237.463 70.841
L241.41 69.7253
L248.956 68.5367
L252.169 70.2638
L254.44 73.3807
L269.147 97.4869
L270.894 95.6194
L271.348 94.8244
L274.806 84.4378
L281.583 61.5344
L298.107 56.9609
L309.635 57.1524
L310.683 57.1326
L313.407 56.79
L319.486 67.71
L319.521 67.689
L322.839 62.1083
L322.944 62.0905
L323.608 62.7029
L329.651 122.702
L329.686 121.263
L331.433 70.1435
L331.782 65.7651
L334.332 57.091
L337.511 56.6721
L340.725 56.976
L342.018 57.2638
L352.952 59.2172
L355.222 63.9692
L356.305 68.4328
L360.218 79.9501
L360.253 79.8514
L363.502 65.6037
L370.977 57.5274
L374.366 57.554
L385.055 80.2807
L386.907 89.9952
L395.326 172.802
L400.356 201.34
L412.583 107.149
L422.294 57.1765
L422.888 56.9937
L437.42 68.4395
L439.901 71.6292
L441.088 72.7326
L443.534 70.7028
L444.337 69.37
L461.594 62.6821
L462.782 63.0698
L466.834 65.8964
L468.022 68.1683
L470.013 74.0731
L472.982 85.5178
L480.388 81.7741
L481.087 80.5605
L485.384 71.1767
L490.204 61.8016
L514.099 61.5812
L529.12 66.0847
L529.539 65.9804
L540.683 57.5242
L542.988 57.1252
L553.643 56.6296
L565.311 56.7518
L567.861 57.0135
L571.04 57.7473
L571.529 57.9222
L583.86 80.1747
L596.925 295.976
L608.349 314.916
L611.213 312.693
L614.741 301.253
L614.951 299.986
L627.841 98.2013
L658.198 213.48
L658.233 213.445
L661.098 201.581
L661.657 196.712
L668.294 134.484
L670.39 125.985
L671.333 123.488
L673.359 120.406
L678.425 125.126
L680.87 133.172
L682.547 139.083
L700.747 282.368
L700.782 282.147
L704.764 244.839
L706.162 230.148
L709.34 204.953
L710.074 201.783
L711.332 216.089
L713.148 275.864
L716.327 317.84
L720.03 322.009
L733.724 321.736
L736.658 321.898
L742.213 321.867
L746.23 322.065
L747.697 322.091
L751.784 321.975
L753.741 321.487
L754.858 320.231
L755.522 318.598
L759.12 260.294
L761.112 159.414
L762.544 114.068
L766.596 76.2331
L766.806 75.7272
L770.788 78.2725
L772.011 84.5849
L772.29 86.6312
L773.722 95.2329
L773.722 95.2329" style="fill:none;opacity:0.5;stroke:#ff0000;stroke-linecap:square;"/>
   </g>
   <g id="line2d_5">
    <path clip-path="url(#p9fd4257182)" d="
M111.878 59.5461
L111.913 59.5317
L119.248 61.7888
L121.275 67.7872
L128.366 111.29
L145.239 118.775
L146.776 112.368
L150.793 98.2599
L155.649 81.8116
L169.063 68.2338
L169.657 67.0037
L171.544 63.7734
L172.417 62.6108
L173.814 61.1283
L182.757 57.8616
L198.163 92.4418
L199.246 90.8206
L202.983 78.3303
L209.83 76.925
L224.013 99.786
L233.899 156.319
L237.463 141.496
L241.41 104.834
L248.956 82.4227
L252.169 79.8742
L269.112 121.674
L270.894 106.696
L271.313 102.371
L274.806 72.286
L281.583 57.4687
L298.107 57.5866
L302.403 57.3775
L305.862 56.9657
L309.635 56.8416
L310.683 56.8656
L313.407 56.5574
L319.486 64.1532
L320.534 82.5564
L322.944 63.8748
L323.608 62.5923
L329.686 67.394
L331.782 75.8927
L334.297 83.0432
L337.476 71.5051
L340.725 67.4172
L342.018 67.1011
L352.917 86.2567
L355.222 93.1348
L356.305 95.9453
L360.253 98.3505
L363.292 91.9055
L363.502 91.144
L370.977 61.2312
L374.086 59.816
L374.366 59.7844
L385.055 70.5744
L386.907 76.3488
L395.361 151.985
L400.321 182.809
L400.356 182.788
L412.583 81.5989
L422.294 66.9632
L422.888 67.0518
L437.42 59.6479
L439.621 62.5456
L439.901 63.1254
L441.088 66.4045
L443.534 78.0917
L444.337 83.5183
L461.559 70.9038
L461.594 70.9743
L462.013 71.8882
L462.782 73.929
L466.834 94.4183
L468.022 101.179
L470.013 109.891
L472.947 112.491
L480.388 81.6662
L481.087 81.3481
L485.384 83.5279
L490.204 86.4612
L514.099 59.3538
L529.12 58.9914
L529.539 59.4926
L540.683 92.6189
L542.988 89.5924
L551.896 64.3765
L552.77 63.3887
L553.643 62.6179
L565.311 70.9399
L567.861 75.3281
L571.04 79.219
L571.529 79.7197
L583.86 144.083
L596.925 308.673
L608.349 316.46
L611.213 314.879
L614.741 307.115
L614.951 306.261
L627.841 127.342
L658.198 200.649
L658.233 200.579
L661.098 191.987
L661.657 188.946
L668.294 139.531
L670.39 127.824
L671.333 124.186
L673.359 120.394
L678.425 143.685
L680.87 174.816
L682.547 201.389
L700.747 311.879
L700.782 311.801
L704.764 295.076
L706.162 276.955
L709.34 178.002
L710.074 169.433
L711.332 175.628
L712.554 204.322
L713.148 222.936
L716.327 290.463
L720.03 311.729
L722.301 319.692
L725.899 321.77
L728.624 321.335
L730.615 320.853
L731.977 320.17
L734.457 318.389
L735.68 317.819
L738.754 316.906
L739.278 316.921
L740.361 317.372
L740.85 317.703
L742.213 319.044
L743.75 321.038
L744.658 321.834
L746.754 322.14
L750.527 322.152
L751.784 322.15
L753.741 321.759
L754.858 320.838
L755.522 319.633
L759.12 262.335
L761.112 167.347
L762.544 145.271
L766.806 124.714
L770.788 104.296
L773.757 91.4405
L773.757 91.4405" style="fill:none;opacity:0.5;stroke:#0000ff;stroke-linecap:square;"/>
   </g>
   <g id="line2d_6">
    <path clip-path="url(#p9fd4257182)" d="
M111.878 59.0601
L111.913 59.0399
L119.214 59.9507
L121.31 64.4144
L128.366 111.645
L145.239 120.526
L146.776 107.634
L150.793 81.612
L155.649 65.4978
L169.028 132.61
L169.657 114.927
L170.95 90.9904
L171.544 84.652
L172.417 79.1546
L173.814 77.4136
L182.722 96.1884
L182.757 96.6149
L198.163 59.4223
L199.246 58.5704
L202.983 57.6227
L209.83 57.6007
L224.013 67.5023
L233.899 97.4665
L237.463 102.313
L241.375 93.072
L241.41 92.9275
L248.956 60.9129
L252.169 57.4254
L254.475 56.9626
L269.147 57.502
L274.806 57.1752
L281.583 56.944
L298.107 57.0202
L302.403 56.6045
L308.097 56.6162
L308.342 56.6372
L309.635 56.9138
L310.683 57.7574
L312.394 69.4207
L313.372 113.482
L313.407 116.182
L319.486 61.5235
L319.521 61.5476
L320.534 62.7261
L322.944 69.4449
L323.608 71.6254
L329.686 67.9275
L331.782 70.9355
L334.332 76.3353
L337.511 77.8525
L340.725 71.7356
L342.018 70.2438
L352.917 93.8207
L352.952 92.9549
L355.222 60.8241
L356.305 57.7403
L360.253 56.5302
L363.502 56.5322
L370.977 56.9466
L373.947 59.8391
L374.366 61.2659
L385.055 102.64
L386.907 121.907
L395.361 243.879
L400.321 255.89
L400.356 255.739
L412.583 70.6897
L422.294 57.2744
L422.888 57.2136
L437.42 69.1014
L439.866 65.2404
L443.534 57.2525
L444.337 56.7683
L461.559 61.7742
L462.013 65.2368
L462.782 73.2971
L466.834 99.2396
L468.022 103.813
L470.013 98.2988
L472.982 63.189
L480.388 60.8361
L481.087 61.0117
L485.384 60.5005
L490.204 60.4456
L514.099 73.8708
L529.12 74.1791
L529.539 74.0729
L540.683 71.7614
L542.988 70.7717
L553.643 62.3862
L565.311 59.9226
L567.861 60.307
L571.529 61.2843
L583.86 74.3199
L596.925 170.301
L608.349 246.364
L611.213 249.794
L614.741 244.366
L614.951 243.726
L627.841 160.533
L638.461 97.4262
L638.706 96.807
L658.233 194.353
L661.063 202.677
L661.098 202.635
L661.657 201.516
L668.294 148.763
L670.39 130.686
L671.333 124.26
L673.359 114.935
L678.425 117.106
L680.87 123.937
L682.547 130.097
L700.782 220.96
L704.764 233.794
L706.162 233.706
L709.34 216.958
L710.074 206.108
L711.297 203.414
L711.332 203.832
L712.554 236.373
L713.148 256.284
L716.327 316.965
L720.03 321.908
L725.899 321.514
L730.126 321.629
L732.885 321.737
L737.951 322.139
L740.85 322.176
L747.697 321.949
L750.527 321.457
L751.784 321.098
L753.741 321.19
L754.858 321.4
L755.522 321.399
L759.12 313.515
L761.112 228.583
L762.544 152.703
L766.596 99.2172
L766.806 98.4775
L770.753 91.7777
L770.788 91.8016
L772.046 93.6891
L772.325 94.3744
L773.757 96.6127
L773.757 96.6127" style="fill:none;opacity:0.5;stroke:#ff0000;stroke-linecap:square;"/>
   </g>
   <g id="line2d_7">
    <path clip-path="url(#p9fd4257182)" d="
M111.878 69.6856
L111.913 69.4027
L119.248 57.9161
L121.31 57.5614
L128.366 57.2215
L145.274 62.6279
L146.776 64.1906
L150.793 97.9731
L155.614 127.978
L155.649 127.9
L169.063 58.2743
L169.657 57.9065
L171.544 57.2605
L172.417 57.1259
L173.814 57.0368
L182.757 57.4078
L198.128 90.3074
L199.246 100.878
L202.948 116.211
L202.983 116.16
L209.83 77.0297
L224.013 57.8559
L233.899 57.2929
L241.41 57.3181
L248.956 57.4428
L254.475 57.7347
L269.147 58.7601
L270.929 61.5138
L271.348 62.5153
L274.806 80.9333
L281.583 185.987
L298.107 92.8361
L302.403 58.8847
L305.862 56.7573
L308.342 56.7378
L309.635 57.0673
L310.683 58.0912
L312.394 66.7651
L313.407 80.1391
L319.521 66.482
L320.534 62.7058
L322.944 59.0127
L323.608 58.9449
L331.433 96.3783
L331.782 97.5016
L334.297 99.173
L334.332 99.1112
L337.511 87.9632
L340.725 78.3283
L342.018 76.2852
L352.952 88.7825
L355.222 97.5706
L356.305 102.698
L360.253 120.26
L363.292 125.509
L363.502 125.502
L374.086 81.1438
L374.366 80.5751
L385.055 98.0829
L386.907 99.7761
L395.326 104.755
L400.356 102.776
L412.583 78.1936
L422.853 68.1877
L422.888 68.1652
L437.385 132.635
L437.42 132.314
L439.901 102.692
L441.088 85.9999
L443.534 58.1426
L443.918 57.2949
L444.337 56.8322
L461.594 56.7033
L462.013 56.8682
L462.782 57.5017
L466.834 79.5722
L468.022 84.2603
L470.013 81.7145
L472.982 74.4628
L480.388 74.8947
L481.087 72.7402
L485.384 62.315
L490.169 57.8423
L514.064 88.5873
L514.099 88.4777
L529.12 58.8529
L529.539 58.7633
L540.648 58.3409
L542.988 58.8798
L551.896 67.9469
L553.643 70.5816
L565.311 99.0443
L567.861 108.409
L571.529 122.679
L583.86 177.095
L596.925 284.402
L608.349 317.862
L611.213 317.738
L614.951 315.161
L627.841 268.924
L658.198 311.204
L658.233 311.095
L661.098 291.888
L661.657 285.671
L668.294 166.208
L670.39 142.752
L671.333 136.432
L673.359 127.981
L678.425 119.315
L680.87 122.997
L682.547 128.725
L700.747 320.673
L700.782 320.628
L704.764 306.282
L706.127 289.503
L709.34 180.777
L710.039 176.033
L710.074 176.076
L711.332 192.759
L713.148 249.277
L716.327 307.93
L720.03 318.462
L722.301 320.863
L727.296 321.206
L730.615 321.189
L733.27 321.461
L735.68 321.783
L738.754 321.891
L743.016 321.788
L746.23 321.794
L747.697 321.811
L751.784 321.731
L754.858 321.845
L755.522 321.784
L759.12 315.72
L762.544 219.886
L766.806 181.703
L770.788 144.773
L773.757 123.999
L773.757 123.999" style="fill:none;opacity:0.5;stroke:#0000ff;stroke-linecap:square;"/>
   </g>
   <g id="line2d_8">
    <path clip-path="url(#p9fd4257182)" d="
M111.878 56.7828
L119.248 57.2778
L121.31 57.3042
L128.366 58.1417
L145.274 95.397
L146.776 95.8666
L150.793 90.5271
L155.649 80.3056
L169.063 58.2303
L169.657 58.0066
L171.544 57.5266
L173.814 57.2673
L182.757 57.021
L198.163 80.4848
L202.983 114.587
L209.795 110.937
L209.83 110.714
L224.013 64.8674
L233.899 75.8639
L237.463 85.2481
L241.235 87.7024
L241.27 87.6078
L241.41 87.2121
L248.956 60.8906
L252.169 57.7855
L254.44 57.0562
L271.348 57.177
L274.806 57.2742
L281.583 57.6034
L305.862 56.5614
L308.097 57.6192
L308.342 58.1438
L310.683 68.5896
L312.394 62.0671
L313.407 59.1102
L319.521 56.8948
L320.534 56.8717
L322.944 57.4901
L323.608 58.7599
L329.686 72.0096
L331.747 90.6667
L334.332 120.527
L337.476 113.951
L340.725 81.8108
L342.018 74.9067
L352.952 70.4081
L355.222 72.6606
L356.305 73.9879
L360.253 76.6216
L363.502 73.8533
L370.942 70.5807
L374.086 72.5576
L374.366 72.8252
L385.055 92.3127
L386.907 96.7287
L395.361 124.332
L400.356 138.635
L412.548 145.991
L412.583 145.824
L422.294 74.5611
L422.888 72.3814
L437.42 58.0961
L439.901 57.5846
L441.088 57.6684
L444.337 58.3097
L461.559 77.8889
L462.013 72.0078
L462.782 65.3667
L466.834 57.3598
L468.022 57.192
L470.013 57.174
L472.982 57.3294
L485.384 56.9909
L490.204 56.9236
L514.099 58.6265
L529.12 70.3033
L529.539 70.9744
L540.683 84.9271
L542.988 85.15
L551.896 73.9992
L553.643 71.0778
L565.276 68.4375
L567.826 71.2348
L570.306 75.0399
L571.529 77.3638
L583.86 123.704
L596.925 258.035
L608.349 313.516
L611.213 312.939
L614.741 304.916
L614.951 304.018
L627.841 113.978
L638.461 60.374
L638.706 60.2892
L641.081 60.393
L658.233 293.695
L661.098 288.419
L661.657 285.628
L668.294 197.761
L670.39 161.009
L671.333 147.439
L673.359 126.95
L678.425 122.689
L680.87 135.845
L682.547 149.508
L700.747 287.466
L700.782 287.351
L704.764 260.961
L706.162 247.394
L709.34 225.824
L710.074 225.806
L711.332 230.651
L712.554 240.695
L713.148 247.128
L716.327 287.348
L720.03 313.549
L722.301 320.369
L725.899 321.197
L730.615 321.399
L733.724 321.771
L735.68 321.984
L737.951 321.941
L740.85 321.736
L743.75 321.787
L747.697 322.043
L755.487 321.941
L759.12 317.552
L761.112 243.129
L762.544 154.024
L766.596 100.636
L766.806 100.653
L770.788 116.742
L772.325 138.268
L773.757 160.323
L773.757 160.323" style="fill:none;opacity:0.5;stroke:#0000ff;stroke-linecap:square;"/>
   </g>
   <g id="patch_8">
    <path d="
M108 43.2
L777.6 43.2" style="fill:none;stroke:#000000;stroke-linecap:square;stroke-linejoin:miter;"/>
   </g>
   <g id="patch_9">
    <path d="
M777.6 322.473
L777.6 43.2" style="fill:none;stroke:#000000;stroke-linecap:square;stroke-linejoin:miter;"/>
   </g>
   <g id="patch_10">
    <path d="
M108 322.473
L777.6 322.473" style="fill:none;stroke:#000000;stroke-linecap:square;stroke-linejoin:miter;"/>
   </g>
   <g id="patch_11">
    <path d="
M108 322.473
L108 43.2" style="fill:none;stroke:#000000;stroke-linecap:square;stroke-linejoin:miter;"/>
   </g>
   <g id="matplotlib.axis_1">
    <g id="ytick_1">
     <g id="line2d_9">
      <defs>
       <path d="
M0 0
L4 0" id="m728421d6d4" style="stroke:#000000;stroke-width:0.5;"/>
      </defs>
      <g>
       <use style="stroke:#000000;stroke-width:0.5;" x="108.0" xlink:href="#m728421d6d4" y="322.472727273"/>
      </g>
     </g>
     <g id="line2d_10">
      <defs>
       <path d="
M0 0
L-4 0" id="mcb0005524f" style="stroke:#000000;stroke-width:0.5;"/>
      </defs>
      <g>
       <use style="stroke:#000000;stroke-width:0.5;" x="777.6" xlink:href="#mcb0005524f" y="322.472727273"/>
      </g>
     </g>
     <g id="text_1">
      <!-- 0 -->
      <defs>
       <path d="
M31.7812 66.4062
Q24.1719 66.4062 20.3281 58.9062
Q16.5 51.4219 16.5 36.375
Q16.5 21.3906 20.3281 13.8906
Q24.1719 6.39062 31.7812 6.39062
Q39.4531 6.39062 43.2812 13.8906
Q47.125 21.3906 47.125 36.375
Q47.125 51.4219 43.2812 58.9062
Q39.4531 66.4062 31.7812 66.4062
M31.7812 74.2188
Q44.0469 74.2188 50.5156 64.5156
Q56.9844 54.8281 56.9844 36.375
Q56.9844 17.9688 50.5156 8.26562
Q44.0469 -1.42188 31.7812 -1.42188
Q19.5312 -1.42188 13.0625 8.26562
Q6.59375 17.9688 6.59375 36.375
Q6.59375 54.8281 13.0625 64.5156
Q19.5312 74.2188 31.7812 74.2188" id="DejaVuSans-30"/>
      </defs>
      <g transform="translate(97.953125 325.783977273)scale(0.12 -0.12)">
       <use xlink:href="#DejaVuSans-30"/>
      </g>
     </g>
    </g>
    <g id="ytick_2">
     <g id="line2d_11">
      <g>
       <use style="stroke:#000000;stroke-width:0.5;" x="108.0" xlink:href="#m728421d6d4" y="269.277922078"/>
      </g>
     </g>
     <g id="line2d_12">
      <g>
       <use style="stroke:#000000;stroke-width:0.5;" x="777.6" xlink:href="#mcb0005524f" y="269.277922078"/>
      </g>
     </g>
     <g id="text_2">
      <!-- 20 -->
      <defs>
       <path d="
M19.1875 8.29688
L53.6094 8.29688
L53.6094 0
L7.32812 0
L7.32812 8.29688
Q12.9375 14.1094 22.625 23.8906
Q32.3281 33.6875 34.8125 36.5312
Q39.5469 41.8438 41.4219 45.5312
Q43.3125 49.2188 43.3125 52.7812
Q43.3125 58.5938 39.2344 62.25
Q35.1562 65.9219 28.6094 65.9219
Q23.9688 65.9219 18.8125 64.3125
Q13.6719 62.7031 7.8125 59.4219
L7.8125 69.3906
Q13.7656 71.7812 18.9375 73
Q24.125 74.2188 28.4219 74.2188
Q39.75 74.2188 46.4844 68.5469
Q53.2188 62.8906 53.2188 53.4219
Q53.2188 48.9219 51.5312 44.8906
Q49.8594 40.875 45.4062 35.4062
Q44.1875 33.9844 37.6406 27.2188
Q31.1094 20.4531 19.1875 8.29688" id="DejaVuSans-32"/>
      </defs>
      <g transform="translate(90.40625 272.589172078)scale(0.12 -0.12)">
       <use xlink:href="#DejaVuSans-32"/>
       <use x="63.623046875" xlink:href="#DejaVuSans-30"/>
      </g>
     </g>
    </g>
    <g id="ytick_3">
     <g id="line2d_13">
      <g>
       <use style="stroke:#000000;stroke-width:0.5;" x="108.0" xlink:href="#m728421d6d4" y="216.083116883"/>
      </g>
     </g>
     <g id="line2d_14">
      <g>
       <use style="stroke:#000000;stroke-width:0.5;" x="777.6" xlink:href="#mcb0005524f" y="216.083116883"/>
      </g>
     </g>
     <g id="text_3">
      <!-- 40 -->
      <defs>
       <path d="
M37.7969 64.3125
L12.8906 25.3906
L37.7969 25.3906
z

M35.2031 72.9062
L47.6094 72.9062
L47.6094 25.3906
L58.0156 25.3906
L58.0156 17.1875
L47.6094 17.1875
L47.6094 0
L37.7969 0
L37.7969 17.1875
L4.89062 17.1875
L4.89062 26.7031
z
" id="DejaVuSans-34"/>
      </defs>
      <g transform="translate(90.11375 219.394366883)scale(0.12 -0.12)">
       <use xlink:href="#DejaVuSans-34"/>
       <use x="63.623046875" xlink:href="#DejaVuSans-30"/>
      </g>
     </g>
    </g>
    <g id="ytick_4">
     <g id="line2d_15">
      <g>
       <use style="stroke:#000000;stroke-width:0.5;" x="108.0" xlink:href="#m728421d6d4" y="162.888311688"/>
      </g>
     </g>
     <g id="line2d_16">
      <g>
       <use style="stroke:#000000;stroke-width:0.5;" x="777.6" xlink:href="#mcb0005524f" y="162.888311688"/>
      </g>
     </g>
     <g id="text_4">
      <!-- 60 -->
      <defs>
       <path d="
M33.0156 40.375
Q26.375 40.375 22.4844 35.8281
Q18.6094 31.2969 18.6094 23.3906
Q18.6094 15.5312 22.4844 10.9531
Q26.375 6.39062 33.0156 6.39062
Q39.6562 6.39062 43.5312 10.9531
Q47.4062 15.5312 47.4062 23.3906
Q47.4062 31.2969 43.5312 35.8281
Q39.6562 40.375 33.0156 40.375
M52.5938 71.2969
L52.5938 62.3125
Q48.875 64.0625 45.0938 64.9844
Q41.3125 65.9219 37.5938 65.9219
Q27.8281 65.9219 22.6719 59.3281
Q17.5312 52.7344 16.7969 39.4062
Q19.6719 43.6562 24.0156 45.9219
Q28.375 48.1875 33.5938 48.1875
Q44.5781 48.1875 50.9531 41.5156
Q57.3281 34.8594 57.3281 23.3906
Q57.3281 12.1562 50.6875 5.35938
Q44.0469 -1.42188 33.0156 -1.42188
Q20.3594 -1.42188 13.6719 8.26562
Q6.98438 17.9688 6.98438 36.375
Q6.98438 53.6562 15.1875 63.9375
Q23.3906 74.2188 37.2031 74.2188
Q40.9219 74.2188 44.7031 73.4844
Q48.4844 72.75 52.5938 71.2969" id="DejaVuSans-36"/>
      </defs>
      <g transform="translate(90.365 166.199561688)scale(0.12 -0.12)">
       <use xlink:href="#DejaVuSans-36"/>
       <use x="63.623046875" xlink:href="#DejaVuSans-30"/>
      </g>
     </g>
    </g>
    <g id="ytick_5">
     <g id="line2d_17">
      <g>
       <use style="stroke:#000000;stroke-width:0.5;" x="108.0" xlink:href="#m728421d6d4" y="109.693506494"/>
      </g>
     </g>
     <g id="line2d_18">
      <g>
       <use style="stroke:#000000;stroke-width:0.5;" x="777.6" xlink:href="#mcb0005524f" y="109.693506494"/>
      </g>
     </g>
     <g id="text_5">
      <!-- 80 -->
      <defs>
       <path d="
M31.7812 34.625
Q24.75 34.625 20.7188 30.8594
Q16.7031 27.0938 16.7031 20.5156
Q16.7031 13.9219 20.7188 10.1562
Q24.75 6.39062 31.7812 6.39062
Q38.8125 6.39062 42.8594 10.1719
Q46.9219 13.9688 46.9219 20.5156
Q46.9219 27.0938 42.8906 30.8594
Q38.875 34.625 31.7812 34.625
M21.9219 38.8125
Q15.5781 40.375 12.0312 44.7188
Q8.5 49.0781 8.5 55.3281
Q8.5 64.0625 14.7188 69.1406
Q20.9531 74.2188 31.7812 74.2188
Q42.6719 74.2188 48.875 69.1406
Q55.0781 64.0625 55.0781 55.3281
Q55.0781 49.0781 51.5312 44.7188
Q48 40.375 41.7031 38.8125
Q48.8281 37.1562 52.7969 32.3125
Q56.7812 27.4844 56.7812 20.5156
Q56.7812 9.90625 50.3125 4.23438
Q43.8438 -1.42188 31.7812 -1.42188
Q19.7344 -1.42188 13.25 4.23438
Q6.78125 9.90625 6.78125 20.5156
Q6.78125 27.4844 10.7812 32.3125
Q14.7969 37.1562 21.9219 38.8125
M18.3125 54.3906
Q18.3125 48.7344 21.8438 45.5625
Q25.3906 42.3906 31.7812 42.3906
Q38.1406 42.3906 41.7188 45.5625
Q45.3125 48.7344 45.3125 54.3906
Q45.3125 60.0625 41.7188 63.2344
Q38.1406 66.4062 31.7812 66.4062
Q25.3906 66.4062 21.8438 63.2344
Q18.3125 60.0625 18.3125 54.3906" id="DejaVuSans-38"/>
      </defs>
      <g transform="translate(90.340625 113.004756494)scale(0.12 -0.12)">
       <use xlink:href="#DejaVuSans-38"/>
       <use x="63.623046875" xlink:href="#DejaVuSans-30"/>
      </g>
     </g>
    </g>
    <g id="ytick_6">
     <g id="line2d_19">
      <g>
       <use style="stroke:#000000;stroke-width:0.5;" x="108.0" xlink:href="#m728421d6d4" y="56.4987012987"/>
      </g>
     </g>
     <g id="line2d_20">
      <g>
       <use style="stroke:#000000;stroke-width:0.5;" x="777.6" xlink:href="#mcb0005524f" y="56.4987012987"/>
      </g>
     </g>
     <g id="text_6">
      <!-- 100 -->
      <defs>
       <path d="
M12.4062 8.29688
L28.5156 8.29688
L28.5156 63.9219
L10.9844 60.4062
L10.9844 69.3906
L28.4219 72.9062
L38.2812 72.9062
L38.2812 8.29688
L54.3906 8.29688
L54.3906 0
L12.4062 0
z
" id="DejaVuSans-31"/>
      </defs>
      <g transform="translate(83.21 59.8099512987)scale(0.12 -0.12)">
       <use xlink:href="#DejaVuSans-31"/>
       <use x="63.623046875" xlink:href="#DejaVuSans-30"/>
       <use x="127.24609375" xlink:href="#DejaVuSans-30"/>
      </g>
     </g>
    </g>
    <g id="text_7">
     <!-- Methylation -->
     <defs>
      <path d="
M9.8125 72.9062
L24.5156 72.9062
L43.1094 23.2969
L61.8125 72.9062
L76.5156 72.9062
L76.5156 0
L66.8906 0
L66.8906 64.0156
L48.0938 14.0156
L38.1875 14.0156
L19.3906 64.0156
L19.3906 0
L9.8125 0
z
" id="DejaVuSans-4d"/>
      <path d="
M30.6094 48.3906
Q23.3906 48.3906 19.1875 42.75
Q14.9844 37.1094 14.9844 27.2969
Q14.9844 17.4844 19.1562 11.8438
Q23.3438 6.20312 30.6094 6.20312
Q37.7969 6.20312 41.9844 11.8594
Q46.1875 17.5312 46.1875 27.2969
Q46.1875 37.0156 41.9844 42.7031
Q37.7969 48.3906 30.6094 48.3906
M30.6094 56
Q42.3281 56 49.0156 48.375
Q55.7188 40.7656 55.7188 27.2969
Q55.7188 13.875 49.0156 6.21875
Q42.3281 -1.42188 30.6094 -1.42188
Q18.8438 -1.42188 12.1719 6.21875
Q5.51562 13.875 5.51562 27.2969
Q5.51562 40.7656 12.1719 48.375
Q18.8438 56 30.6094 56" id="DejaVuSans-6f"/>
      <path d="
M54.8906 33.0156
L54.8906 0
L45.9062 0
L45.9062 32.7188
Q45.9062 40.4844 42.875 44.3281
Q39.8438 48.1875 33.7969 48.1875
Q26.5156 48.1875 22.3125 43.5469
Q18.1094 38.9219 18.1094 30.9062
L18.1094 0
L9.07812 0
L9.07812 54.6875
L18.1094 54.6875
L18.1094 46.1875
Q21.3438 51.125 25.7031 53.5625
Q30.0781 56 35.7969 56
Q45.2188 56 50.0469 50.1719
Q54.8906 44.3438 54.8906 33.0156" id="DejaVuSans-6e"/>
      <path d="
M9.42188 75.9844
L18.4062 75.9844
L18.4062 0
L9.42188 0
z
" id="DejaVuSans-6c"/>
      <path d="
M32.1719 -5.07812
Q28.375 -14.8438 24.75 -17.8125
Q21.1406 -20.7969 15.0938 -20.7969
L7.90625 -20.7969
L7.90625 -13.2812
L13.1875 -13.2812
Q16.8906 -13.2812 18.9375 -11.5156
Q21 -9.76562 23.4844 -3.21875
L25.0938 0.875
L2.98438 54.6875
L12.5 54.6875
L29.5938 11.9219
L46.6875 54.6875
L56.2031 54.6875
z
" id="DejaVuSans-79"/>
      <path d="
M54.8906 33.0156
L54.8906 0
L45.9062 0
L45.9062 32.7188
Q45.9062 40.4844 42.875 44.3281
Q39.8438 48.1875 33.7969 48.1875
Q26.5156 48.1875 22.3125 43.5469
Q18.1094 38.9219 18.1094 30.9062
L18.1094 0
L9.07812 0
L9.07812 75.9844
L18.1094 75.9844
L18.1094 46.1875
Q21.3438 51.125 25.7031 53.5625
Q30.0781 56 35.7969 56
Q45.2188 56 50.0469 50.1719
Q54.8906 44.3438 54.8906 33.0156" id="DejaVuSans-68"/>
      <path d="
M9.42188 54.6875
L18.4062 54.6875
L18.4062 0
L9.42188 0
z

M9.42188 75.9844
L18.4062 75.9844
L18.4062 64.5938
L9.42188 64.5938
z
" id="DejaVuSans-69"/>
      <path d="
M18.3125 70.2188
L18.3125 54.6875
L36.8125 54.6875
L36.8125 47.7031
L18.3125 47.7031
L18.3125 18.0156
Q18.3125 11.3281 20.1406 9.42188
Q21.9688 7.51562 27.5938 7.51562
L36.8125 7.51562
L36.8125 0
L27.5938 0
Q17.1875 0 13.2344 3.875
Q9.28125 7.76562 9.28125 18.0156
L9.28125 47.7031
L2.6875 47.7031
L2.6875 54.6875
L9.28125 54.6875
L9.28125 70.2188
z
" id="DejaVuSans-74"/>
      <path d="
M56.2031 29.5938
L56.2031 25.2031
L14.8906 25.2031
Q15.4844 15.9219 20.4844 11.0625
Q25.4844 6.20312 34.4219 6.20312
Q39.5938 6.20312 44.4531 7.46875
Q49.3125 8.73438 54.1094 11.2812
L54.1094 2.78125
Q49.2656 0.734375 44.1875 -0.34375
Q39.1094 -1.42188 33.8906 -1.42188
Q20.7969 -1.42188 13.1562 6.1875
Q5.51562 13.8125 5.51562 26.8125
Q5.51562 40.2344 12.7656 48.1094
Q20.0156 56 32.3281 56
Q43.3594 56 49.7812 48.8906
Q56.2031 41.7969 56.2031 29.5938
M47.2188 32.2344
Q47.125 39.5938 43.0938 43.9844
Q39.0625 48.3906 32.4219 48.3906
Q24.9062 48.3906 20.3906 44.1406
Q15.875 39.8906 15.1875 32.1719
z
" id="DejaVuSans-65"/>
      <path d="
M34.2812 27.4844
Q23.3906 27.4844 19.1875 25
Q14.9844 22.5156 14.9844 16.5
Q14.9844 11.7188 18.1406 8.90625
Q21.2969 6.10938 26.7031 6.10938
Q34.1875 6.10938 38.7031 11.4062
Q43.2188 16.7031 43.2188 25.4844
L43.2188 27.4844
z

M52.2031 31.2031
L52.2031 0
L43.2188 0
L43.2188 8.29688
Q40.1406 3.32812 35.5469 0.953125
Q30.9531 -1.42188 24.3125 -1.42188
Q15.9219 -1.42188 10.9531 3.29688
Q6 8.01562 6 15.9219
Q6 25.1406 12.1719 29.8281
Q18.3594 34.5156 30.6094 34.5156
L43.2188 34.5156
L43.2188 35.4062
Q43.2188 41.6094 39.1406 45
Q35.0625 48.3906 27.6875 48.3906
Q23 48.3906 18.5469 47.2656
Q14.1094 46.1406 10.0156 43.8906
L10.0156 52.2031
Q14.9375 54.1094 19.5781 55.0469
Q24.2188 56 28.6094 56
Q40.4844 56 46.3438 49.8438
Q52.2031 43.7031 52.2031 31.2031" id="DejaVuSans-61"/>
     </defs>
     <g transform="translate(75.714375 217.149801136)rotate(-90.0)scale(0.12 -0.12)">
      <use xlink:href="#DejaVuSans-4d"/>
      <use x="86.279296875" xlink:href="#DejaVuSans-65"/>
      <use x="147.802734375" xlink:href="#DejaVuSans-74"/>
      <use x="187.01171875" xlink:href="#DejaVuSans-68"/>
      <use x="250.390625" xlink:href="#DejaVuSans-79"/>
      <use x="309.5703125" xlink:href="#DejaVuSans-6c"/>
      <use x="337.353515625" xlink:href="#DejaVuSans-61"/>
      <use x="398.6328125" xlink:href="#DejaVuSans-74"/>
      <use x="437.841796875" xlink:href="#DejaVuSans-69"/>
      <use x="465.625" xlink:href="#DejaVuSans-6f"/>
      <use x="526.806640625" xlink:href="#DejaVuSans-6e"/>
     </g>
    </g>
   </g>
  </g>
  <g id="axes_2">
   <g id="patch_12">
    <path d="
M108 388.8
L777.6 388.8
L777.6 353.891
L108 353.891
z
" style="fill:#ffffff;"/>
   </g>
   <g id="line2d_21">
    <path clip-path="url(#pc82b1f09f0)" d="
M108 371.345
L777.6 371.345" style="fill:none;stroke:#000000;stroke-linecap:square;"/>
   </g>
   <g id="line2d_22">
    <path clip-path="url(#pc82b1f09f0)" d="
M142.933 371.345
L742.667 371.345" style="fill:none;stroke:#008000;stroke-linecap:square;stroke-width:3;"/>
   </g>
   <g id="patch_13">
    <path clip-path="url(#pc82b1f09f0)" d="
M737.077 388.8
L742.667 388.8
L742.667 353.891
L737.077 353.891
z
" style="fill:#008000;"/>
   </g>
   <g id="patch_14">
    <path clip-path="url(#pc82b1f09f0)" d="
M305.303 388.8
L338.28 388.8
L338.28 353.891
L305.303 353.891
z
" style="fill:#008000;"/>
   </g>
   <g id="patch_15">
    <path clip-path="url(#pc82b1f09f0)" d="
M298.316 388.8
L301.775 388.8
L301.775 353.891
L298.316 353.891
z
" style="fill:#008000;"/>
   </g>
   <g id="patch_16">
    <path clip-path="url(#pc82b1f09f0)" d="
M243.751 388.8
L246.475 388.8
L246.475 353.891
L243.751 353.891
z
" style="fill:#008000;"/>
   </g>
   <g id="patch_17">
    <path clip-path="url(#pc82b1f09f0)" d="
M142.933 388.8
L199.63 388.8
L199.63 353.891
L142.933 353.891
z
" style="fill:#008000;"/>
   </g>
   <g id="patch_18">
    <path d="
M108 353.891
L777.6 353.891" style="fill:none;"/>
   </g>
   <g id="patch_19">
    <path d="
M777.6 388.8
L777.6 353.891" style="fill:none;"/>
   </g>
   <g id="patch_20">
    <path d="
M108 388.8
L777.6 388.8" style="fill:none;"/>
   </g>
   <g id="patch_21">
    <path d="
M108 388.8
L108 353.891" style="fill:none;"/>
   </g>
   <g id="matplotlib.axis_2">
    <g id="xtick_1">
     <g id="line2d_23">
      <defs>
       <path d="
M0 0
L0 -4" id="m93b0483c22" style="stroke:#000000;stroke-width:0.5;"/>
      </defs>
      <g>
       <use style="stroke:#000000;stroke-width:0.5;" x="114.462646077" xlink:href="#m93b0483c22" y="388.8"/>
      </g>
     </g>
     <g id="line2d_24">
      <defs>
       <path d="
M0 0
L0 4" id="m741efc42ff" style="stroke:#000000;stroke-width:0.5;"/>
      </defs>
      <g>
       <use style="stroke:#000000;stroke-width:0.5;" x="114.462646077" xlink:href="#m741efc42ff" y="353.890909091"/>
      </g>
     </g>
     <g id="text_8">
      <!-- 1000 -->
      <g transform="translate(100.250146077 401.918125)scale(0.12 -0.12)">
       <use xlink:href="#DejaVuSans-31"/>
       <use x="63.623046875" xlink:href="#DejaVuSans-30"/>
       <use x="127.24609375" xlink:href="#DejaVuSans-30"/>
       <use x="190.869140625" xlink:href="#DejaVuSans-30"/>
      </g>
     </g>
    </g>
    <g id="xtick_2">
     <g id="line2d_25">
      <g>
       <use style="stroke:#000000;stroke-width:0.5;" x="289.12875626" xlink:href="#m93b0483c22" y="388.8"/>
      </g>
     </g>
     <g id="line2d_26">
      <g>
       <use style="stroke:#000000;stroke-width:0.5;" x="289.12875626" xlink:href="#m741efc42ff" y="353.890909091"/>
      </g>
     </g>
     <g id="text_9">
      <!-- 2000 -->
      <g transform="translate(274.69688126 401.918125)scale(0.12 -0.12)">
       <use xlink:href="#DejaVuSans-32"/>
       <use x="63.623046875" xlink:href="#DejaVuSans-30"/>
       <use x="127.24609375" xlink:href="#DejaVuSans-30"/>
       <use x="190.869140625" xlink:href="#DejaVuSans-30"/>
      </g>
     </g>
    </g>
    <g id="xtick_3">
     <g id="line2d_27">
      <g>
       <use style="stroke:#000000;stroke-width:0.5;" x="463.794866444" xlink:href="#m93b0483c22" y="388.8"/>
      </g>
     </g>
     <g id="line2d_28">
      <g>
       <use style="stroke:#000000;stroke-width:0.5;" x="463.794866444" xlink:href="#m741efc42ff" y="353.890909091"/>
      </g>
     </g>
     <g id="text_10">
      <!-- 3000 -->
      <defs>
       <path d="
M40.5781 39.3125
Q47.6562 37.7969 51.625 33
Q55.6094 28.2188 55.6094 21.1875
Q55.6094 10.4062 48.1875 4.48438
Q40.7656 -1.42188 27.0938 -1.42188
Q22.5156 -1.42188 17.6562 -0.515625
Q12.7969 0.390625 7.625 2.20312
L7.625 11.7188
Q11.7188 9.32812 16.5938 8.10938
Q21.4844 6.89062 26.8125 6.89062
Q36.0781 6.89062 40.9375 10.5469
Q45.7969 14.2031 45.7969 21.1875
Q45.7969 27.6406 41.2812 31.2656
Q36.7656 34.9062 28.7188 34.9062
L20.2188 34.9062
L20.2188 43.0156
L29.1094 43.0156
Q36.375 43.0156 40.2344 45.9219
Q44.0938 48.8281 44.0938 54.2969
Q44.0938 59.9062 40.1094 62.9062
Q36.1406 65.9219 28.7188 65.9219
Q24.6562 65.9219 20.0156 65.0312
Q15.375 64.1562 9.8125 62.3125
L9.8125 71.0938
Q15.4375 72.6562 20.3438 73.4375
Q25.25 74.2188 29.5938 74.2188
Q40.8281 74.2188 47.3594 69.1094
Q53.9062 64.0156 53.9062 55.3281
Q53.9062 49.2656 50.4375 45.0938
Q46.9688 40.9219 40.5781 39.3125" id="DejaVuSans-33"/>
      </defs>
      <g transform="translate(449.380803944 401.918125)scale(0.12 -0.12)">
       <use xlink:href="#DejaVuSans-33"/>
       <use x="63.623046875" xlink:href="#DejaVuSans-30"/>
       <use x="127.24609375" xlink:href="#DejaVuSans-30"/>
       <use x="190.869140625" xlink:href="#DejaVuSans-30"/>
      </g>
     </g>
    </g>
    <g id="xtick_4">
     <g id="line2d_29">
      <g>
       <use style="stroke:#000000;stroke-width:0.5;" x="638.460976628" xlink:href="#m93b0483c22" y="388.8"/>
      </g>
     </g>
     <g id="line2d_30">
      <g>
       <use style="stroke:#000000;stroke-width:0.5;" x="638.460976628" xlink:href="#m741efc42ff" y="353.890909091"/>
      </g>
     </g>
     <g id="text_11">
      <!-- 4000 -->
      <g transform="translate(623.882851628 401.918125)scale(0.12 -0.12)">
       <use xlink:href="#DejaVuSans-34"/>
       <use x="63.623046875" xlink:href="#DejaVuSans-30"/>
       <use x="127.24609375" xlink:href="#DejaVuSans-30"/>
       <use x="190.869140625" xlink:href="#DejaVuSans-30"/>
      </g>
     </g>
    </g>
    <g id="text_12">
     <!-- Length (bp) -->
     <defs>
      <path d="
M9.8125 72.9062
L19.6719 72.9062
L19.6719 8.29688
L55.1719 8.29688
L55.1719 0
L9.8125 0
z
" id="DejaVuSans-4c"/>
      <path id="DejaVuSans-20"/>
      <path d="
M45.4062 27.9844
Q45.4062 37.75 41.375 43.1094
Q37.3594 48.4844 30.0781 48.4844
Q22.8594 48.4844 18.8281 43.1094
Q14.7969 37.75 14.7969 27.9844
Q14.7969 18.2656 18.8281 12.8906
Q22.8594 7.51562 30.0781 7.51562
Q37.3594 7.51562 41.375 12.8906
Q45.4062 18.2656 45.4062 27.9844
M54.3906 6.78125
Q54.3906 -7.17188 48.1875 -13.9844
Q42 -20.7969 29.2031 -20.7969
Q24.4688 -20.7969 20.2656 -20.0938
Q16.0625 -19.3906 12.1094 -17.9219
L12.1094 -9.1875
Q16.0625 -11.3281 19.9219 -12.3438
Q23.7812 -13.375 27.7812 -13.375
Q36.625 -13.375 41.0156 -8.76562
Q45.4062 -4.15625 45.4062 5.17188
L45.4062 9.625
Q42.625 4.78125 38.2812 2.39062
Q33.9375 0 27.875 0
Q17.8281 0 11.6719 7.65625
Q5.51562 15.3281 5.51562 27.9844
Q5.51562 40.6719 11.6719 48.3281
Q17.8281 56 27.875 56
Q33.9375 56 38.2812 53.6094
Q42.625 51.2188 45.4062 46.3906
L45.4062 54.6875
L54.3906 54.6875
z
" id="DejaVuSans-67"/>
      <path d="
M31 75.875
Q24.4688 64.6562 21.2812 53.6562
Q18.1094 42.6719 18.1094 31.3906
Q18.1094 20.125 21.3125 9.0625
Q24.5156 -2 31 -13.1875
L23.1875 -13.1875
Q15.875 -1.70312 12.2344 9.375
Q8.59375 20.4531 8.59375 31.3906
Q8.59375 42.2812 12.2031 53.3125
Q15.8281 64.3594 23.1875 75.875
z
" id="DejaVuSans-28"/>
      <path d="
M8.01562 75.875
L15.8281 75.875
Q23.1406 64.3594 26.7812 53.3125
Q30.4219 42.2812 30.4219 31.3906
Q30.4219 20.4531 26.7812 9.375
Q23.1406 -1.70312 15.8281 -13.1875
L8.01562 -13.1875
Q14.5 -2 17.7031 9.0625
Q20.9062 20.125 20.9062 31.3906
Q20.9062 42.6719 17.7031 53.6562
Q14.5 64.6562 8.01562 75.875" id="DejaVuSans-29"/>
      <path d="
M48.6875 27.2969
Q48.6875 37.2031 44.6094 42.8438
Q40.5312 48.4844 33.4062 48.4844
Q26.2656 48.4844 22.1875 42.8438
Q18.1094 37.2031 18.1094 27.2969
Q18.1094 17.3906 22.1875 11.75
Q26.2656 6.10938 33.4062 6.10938
Q40.5312 6.10938 44.6094 11.75
Q48.6875 17.3906 48.6875 27.2969
M18.1094 46.3906
Q20.9531 51.2656 25.2656 53.625
Q29.5938 56 35.5938 56
Q45.5625 56 51.7812 48.0938
Q58.0156 40.1875 58.0156 27.2969
Q58.0156 14.4062 51.7812 6.48438
Q45.5625 -1.42188 35.5938 -1.42188
Q29.5938 -1.42188 25.2656 0.953125
Q20.9531 3.32812 18.1094 8.20312
L18.1094 0
L9.07812 0
L9.07812 75.9844
L18.1094 75.9844
z
" id="DejaVuSans-62"/>
      <path d="
M18.1094 8.20312
L18.1094 -20.7969
L9.07812 -20.7969
L9.07812 54.6875
L18.1094 54.6875
L18.1094 46.3906
Q20.9531 51.2656 25.2656 53.625
Q29.5938 56 35.5938 56
Q45.5625 56 51.7812 48.0938
Q58.0156 40.1875 58.0156 27.2969
Q58.0156 14.4062 51.7812 6.48438
Q45.5625 -1.42188 35.5938 -1.42188
Q29.5938 -1.42188 25.2656 0.953125
Q20.9531 3.32812 18.1094 8.20312
M48.6875 27.2969
Q48.6875 37.2031 44.6094 42.8438
Q40.5312 48.4844 33.4062 48.4844
Q26.2656 48.4844 22.1875 42.8438
Q18.1094 37.2031 18.1094 27.2969
Q18.1094 17.3906 22.1875 11.75
Q26.2656 6.10938 33.4062 6.10938
Q40.5312 6.10938 44.6094 11.75
Q48.6875 17.3906 48.6875 27.2969" id="DejaVuSans-70"/>
     </defs>
     <g transform="translate(408.4125 418.531875)scale(0.12 -0.12)">
      <use xlink:href="#DejaVuSans-4c"/>
      <use x="53.962890625" xlink:href="#DejaVuSans-65"/>
      <use x="115.486328125" xlink:href="#DejaVuSans-6e"/>
      <use x="178.865234375" xlink:href="#DejaVuSans-67"/>
      <use x="242.341796875" xlink:href="#DejaVuSans-74"/>
      <use x="281.55078125" xlink:href="#DejaVuSans-68"/>
      <use x="344.9296875" xlink:href="#DejaVuSans-20"/>
      <use x="376.716796875" xlink:href="#DejaVuSans-28"/>
      <use x="415.73046875" xlink:href="#DejaVuSans-62"/>
      <use x="479.20703125" xlink:href="#DejaVuSans-70"/>
      <use x="542.68359375" xlink:href="#DejaVuSans-29"/>
     </g>
     <!-- chr9:7855815-7872983 -->
     <defs>
      <path d="
M11.7188 12.4062
L22.0156 12.4062
L22.0156 0
L11.7188 0
z

M11.7188 51.7031
L22.0156 51.7031
L22.0156 39.3125
L11.7188 39.3125
z
" id="DejaVuSans-3a"/>
      <path d="
M4.89062 31.3906
L31.2031 31.3906
L31.2031 23.3906
L4.89062 23.3906
z
" id="DejaVuSans-2d"/>
      <path d="
M10.7969 72.9062
L49.5156 72.9062
L49.5156 64.5938
L19.8281 64.5938
L19.8281 46.7344
Q21.9688 47.4688 24.1094 47.8281
Q26.2656 48.1875 28.4219 48.1875
Q40.625 48.1875 47.75 41.5
Q54.8906 34.8125 54.8906 23.3906
Q54.8906 11.625 47.5625 5.09375
Q40.2344 -1.42188 26.9062 -1.42188
Q22.3125 -1.42188 17.5469 -0.640625
Q12.7969 0.140625 7.71875 1.70312
L7.71875 11.625
Q12.1094 9.23438 16.7969 8.0625
Q21.4844 6.89062 26.7031 6.89062
Q35.1562 6.89062 40.0781 11.3281
Q45.0156 15.7656 45.0156 23.3906
Q45.0156 31 40.0781 35.4375
Q35.1562 39.8906 26.7031 39.8906
Q22.75 39.8906 18.8125 39.0156
Q14.8906 38.1406 10.7969 36.2812
z
" id="DejaVuSans-35"/>
      <path d="
M8.20312 72.9062
L55.0781 72.9062
L55.0781 68.7031
L28.6094 0
L18.3125 0
L43.2188 64.5938
L8.20312 64.5938
z
" id="DejaVuSans-37"/>
      <path d="
M10.9844 1.51562
L10.9844 10.5
Q14.7031 8.73438 18.5 7.8125
Q22.3125 6.89062 25.9844 6.89062
Q35.75 6.89062 40.8906 13.4531
Q46.0469 20.0156 46.7812 33.4062
Q43.9531 29.2031 39.5938 26.9531
Q35.25 24.7031 29.9844 24.7031
Q19.0469 24.7031 12.6719 31.3125
Q6.29688 37.9375 6.29688 49.4219
Q6.29688 60.6406 12.9375 67.4219
Q19.5781 74.2188 30.6094 74.2188
Q43.2656 74.2188 49.9219 64.5156
Q56.5938 54.8281 56.5938 36.375
Q56.5938 19.1406 48.4062 8.85938
Q40.2344 -1.42188 26.4219 -1.42188
Q22.7031 -1.42188 18.8906 -0.6875
Q15.0938 0.046875 10.9844 1.51562
M30.6094 32.4219
Q37.25 32.4219 41.125 36.9531
Q45.0156 41.5 45.0156 49.4219
Q45.0156 57.2812 41.125 61.8438
Q37.25 66.4062 30.6094 66.4062
Q23.9688 66.4062 20.0938 61.8438
Q16.2188 57.2812 16.2188 49.4219
Q16.2188 41.5 20.0938 36.9531
Q23.9688 32.4219 30.6094 32.4219" id="DejaVuSans-39"/>
      <path d="
M48.7812 52.5938
L48.7812 44.1875
Q44.9688 46.2969 41.1406 47.3438
Q37.3125 48.3906 33.4062 48.3906
Q24.6562 48.3906 19.8125 42.8438
Q14.9844 37.3125 14.9844 27.2969
Q14.9844 17.2812 19.8125 11.7344
Q24.6562 6.20312 33.4062 6.20312
Q37.3125 6.20312 41.1406 7.25
Q44.9688 8.29688 48.7812 10.4062
L48.7812 2.09375
Q45.0156 0.34375 40.9844 -0.53125
Q36.9688 -1.42188 32.4219 -1.42188
Q20.0625 -1.42188 12.7812 6.34375
Q5.51562 14.1094 5.51562 27.2969
Q5.51562 40.6719 12.8594 48.3281
Q20.2188 56 33.0156 56
Q37.1562 56 41.1094 55.1406
Q45.0625 54.2969 48.7812 52.5938" id="DejaVuSans-63"/>
      <path d="
M41.1094 46.2969
Q39.5938 47.1719 37.8125 47.5781
Q36.0312 48 33.8906 48
Q26.2656 48 22.1875 43.0469
Q18.1094 38.0938 18.1094 28.8125
L18.1094 0
L9.07812 0
L9.07812 54.6875
L18.1094 54.6875
L18.1094 46.1875
Q20.9531 51.1719 25.4844 53.5781
Q30.0312 56 36.5312 56
Q37.4531 56 38.5781 55.875
Q39.7031 55.7656 41.0625 55.5156
z
" id="DejaVuSans-72"/>
     </defs>
     <g transform="translate(372.5953125 431.96925)scale(0.12 -0.12)">
      <use xlink:href="#DejaVuSans-63"/>
      <use x="54.98046875" xlink:href="#DejaVuSans-68"/>
      <use x="118.359375" xlink:href="#DejaVuSans-72"/>
      <use x="159.47265625" xlink:href="#DejaVuSans-39"/>
      <use x="223.095703125" xlink:href="#DejaVuSans-3a"/>
      <use x="256.787109375" xlink:href="#DejaVuSans-37"/>
      <use x="320.41015625" xlink:href="#DejaVuSans-38"/>
      <use x="384.033203125" xlink:href="#DejaVuSans-35"/>
      <use x="447.65625" xlink:href="#DejaVuSans-35"/>
      <use x="511.279296875" xlink:href="#DejaVuSans-38"/>
      <use x="574.90234375" xlink:href="#DejaVuSans-31"/>
      <use x="638.525390625" xlink:href="#DejaVuSans-35"/>
      <use x="702.1484375" xlink:href="#DejaVuSans-2d"/>
      <use x="738.232421875" xlink:href="#DejaVuSans-37"/>
      <use x="801.85546875" xlink:href="#DejaVuSans-38"/>
      <use x="865.478515625" xlink:href="#DejaVuSans-37"/>
      <use x="929.1015625" xlink:href="#DejaVuSans-32"/>
      <use x="992.724609375" xlink:href="#DejaVuSans-39"/>
      <use x="1056.34765625" xlink:href="#DejaVuSans-38"/>
      <use x="1119.97070312" xlink:href="#DejaVuSans-33"/>
     </g>
    </g>
   </g>
  </g>
  <g id="text_13">
   <!-- ENSMUST00000115672 (Birc3) -->
   <defs>
    <path d="
M9.8125 72.9062
L23.0938 72.9062
L55.4219 11.9219
L55.4219 72.9062
L64.9844 72.9062
L64.9844 0
L51.7031 0
L19.3906 60.9844
L19.3906 0
L9.8125 0
z
" id="DejaVuSans-4e"/>
    <path d="
M9.8125 72.9062
L55.9062 72.9062
L55.9062 64.5938
L19.6719 64.5938
L19.6719 43.0156
L54.3906 43.0156
L54.3906 34.7188
L19.6719 34.7188
L19.6719 8.29688
L56.7812 8.29688
L56.7812 0
L9.8125 0
z
" id="DejaVuSans-45"/>
    <path d="
M19.6719 34.8125
L19.6719 8.10938
L35.5 8.10938
Q43.4531 8.10938 47.2812 11.4062
Q51.125 14.7031 51.125 21.4844
Q51.125 28.3281 47.2812 31.5625
Q43.4531 34.8125 35.5 34.8125
z

M19.6719 64.7969
L19.6719 42.8281
L34.2812 42.8281
Q41.5 42.8281 45.0312 45.5312
Q48.5781 48.25 48.5781 53.8125
Q48.5781 59.3281 45.0312 62.0625
Q41.5 64.7969 34.2812 64.7969
z

M9.8125 72.9062
L35.0156 72.9062
Q46.2969 72.9062 52.3906 68.2188
Q58.5 63.5312 58.5 54.8906
Q58.5 48.1875 55.375 44.2344
Q52.25 40.2812 46.1875 39.3125
Q53.4688 37.75 57.5 32.7812
Q61.5312 27.8281 61.5312 20.4062
Q61.5312 10.6406 54.8906 5.3125
Q48.25 0 35.9844 0
L9.8125 0
z
" id="DejaVuSans-42"/>
    <path d="
M53.5156 70.5156
L53.5156 60.8906
Q47.9062 63.5781 42.9219 64.8906
Q37.9375 66.2188 33.2969 66.2188
Q25.25 66.2188 20.875 63.0938
Q16.5 59.9688 16.5 54.2031
Q16.5 49.3594 19.4062 46.8906
Q22.3125 44.4375 30.4219 42.9219
L36.375 41.7031
Q47.4062 39.5938 52.6562 34.2969
Q57.9062 29 57.9062 20.125
Q57.9062 9.51562 50.7969 4.04688
Q43.7031 -1.42188 29.9844 -1.42188
Q24.8125 -1.42188 18.9688 -0.25
Q13.1406 0.921875 6.89062 3.21875
L6.89062 13.375
Q12.8906 10.0156 18.6562 8.29688
Q24.4219 6.59375 29.9844 6.59375
Q38.4219 6.59375 43.0156 9.90625
Q47.6094 13.2344 47.6094 19.3906
Q47.6094 24.75 44.3125 27.7812
Q41.0156 30.8125 33.5 32.3281
L27.4844 33.5
Q16.4531 35.6875 11.5156 40.375
Q6.59375 45.0625 6.59375 53.4219
Q6.59375 63.0938 13.4062 68.6562
Q20.2188 74.2188 32.1719 74.2188
Q37.3125 74.2188 42.625 73.2812
Q47.9531 72.3594 53.5156 70.5156" id="DejaVuSans-53"/>
    <path d="
M8.6875 72.9062
L18.6094 72.9062
L18.6094 28.6094
Q18.6094 16.8906 22.8438 11.7344
Q27.0938 6.59375 36.625 6.59375
Q46.0938 6.59375 50.3438 11.7344
Q54.5938 16.8906 54.5938 28.6094
L54.5938 72.9062
L64.5 72.9062
L64.5 27.3906
Q64.5 13.1406 57.4375 5.85938
Q50.3906 -1.42188 36.625 -1.42188
Q22.7969 -1.42188 15.7344 5.85938
Q8.6875 13.1406 8.6875 27.3906
z
" id="DejaVuSans-55"/>
    <path d="
M-0.296875 72.9062
L61.375 72.9062
L61.375 64.5938
L35.5 64.5938
L35.5 0
L25.5938 0
L25.5938 64.5938
L-0.296875 64.5938
z
" id="DejaVuSans-54"/>
   </defs>
   <g transform="translate(339.571875 17.758125)scale(0.12 -0.12)">
    <use xlink:href="#DejaVuSans-45"/>
    <use x="63.18359375" xlink:href="#DejaVuSans-4e"/>
    <use x="137.98828125" xlink:href="#DejaVuSans-53"/>
    <use x="201.46484375" xlink:href="#DejaVuSans-4d"/>
    <use x="287.744140625" xlink:href="#DejaVuSans-55"/>
    <use x="360.9375" xlink:href="#DejaVuSans-53"/>
    <use x="424.4140625" xlink:href="#DejaVuSans-54"/>
    <use x="485.498046875" xlink:href="#DejaVuSans-30"/>
    <use x="549.12109375" xlink:href="#DejaVuSans-30"/>
    <use x="612.744140625" xlink:href="#DejaVuSans-30"/>
    <use x="676.3671875" xlink:href="#DejaVuSans-30"/>
    <use x="739.990234375" xlink:href="#DejaVuSans-30"/>
    <use x="803.61328125" xlink:href="#DejaVuSans-31"/>
    <use x="867.236328125" xlink:href="#DejaVuSans-31"/>
    <use x="930.859375" xlink:href="#DejaVuSans-35"/>
    <use x="994.482421875" xlink:href="#DejaVuSans-36"/>
    <use x="1058.10546875" xlink:href="#DejaVuSans-37"/>
    <use x="1121.72851562" xlink:href="#DejaVuSans-32"/>
    <use x="1185.3515625" xlink:href="#DejaVuSans-20"/>
    <use x="1217.13867188" xlink:href="#DejaVuSans-28"/>
    <use x="1256.15234375" xlink:href="#DejaVuSans-42"/>
    <use x="1324.75585938" xlink:href="#DejaVuSans-69"/>
    <use x="1352.5390625" xlink:href="#DejaVuSans-72"/>
    <use x="1391.40234375" xlink:href="#DejaVuSans-63"/>
    <use x="1446.3828125" xlink:href="#DejaVuSans-33"/>
    <use x="1510.00585938" xlink:href="#DejaVuSans-29"/>
   </g>
  </g>
 </g>
 <defs>
  <clipPath id="p9fd4257182">
   <rect height="279.272727273" width="669.6" x="108.0" y="43.2"/>
  </clipPath>
  <clipPath id="pc82b1f09f0">
   <rect height="34.9090909091" width="669.6" x="108.0" y="353.890909091"/>
  </clipPath>
 </defs>
</svg>
