<?xml version="1.0" encoding="utf-8" standalone="no"?>
<!DOCTYPE svg PUBLIC "-//W3C//DTD SVG 1.1//EN"
  "http://www.w3.org/Graphics/SVG/1.1/DTD/svg11.dtd">
<!-- Created with matplotlib (http://matplotlib.org/) -->
<svg height="432pt" version="1.1" viewBox="0 0 864 432" width="864pt" xmlns="http://www.w3.org/2000/svg" xmlns:xlink="http://www.w3.org/1999/xlink">
 <defs>
  <style type="text/css">
*{stroke-linecap:butt;stroke-linejoin:round;}
  </style>
 </defs>
 <g id="figure_1">
  <g id="patch_1">
   <path d="
M0 432
L864 432
L864 0
L0 0
z
" style="fill:#ffffff;"/>
  </g>
  <g id="axes_1">
   <g id="patch_2">
    <path d="
M108 322.473
L777.6 322.473
L777.6 43.2
L108 43.2
z
" style="fill:#ffffff;"/>
   </g>
   <g id="patch_3">
    <path clip-path="url(#p9fd4257182)" d="
M122.452 322.473
L129.504 322.473
L129.504 43.2
L122.452 43.2
z
" style="fill:#008000;opacity:0.2;"/>
   </g>
   <g id="patch_4">
    <path clip-path="url(#p9fd4257182)" d="
M252.386 322.473
L254.727 322.473
L254.727 43.2
L252.386 43.2
z
" style="fill:#008000;opacity:0.2;"/>
   </g>
   <g id="patch_5">
    <path clip-path="url(#p9fd4257182)" d="
M267.488 322.473
L269.959 322.473
L269.959 43.2
L267.488 43.2
z
" style="fill:#008000;opacity:0.2;"/>
   </g>
   <g id="patch_6">
    <path clip-path="url(#p9fd4257182)" d="
M326.233 322.473
L326.956 322.473
L326.956 43.2
L326.233 43.2
z
" style="fill:#008000;opacity:0.2;"/>
   </g>
   <g id="patch_7">
    <path clip-path="url(#p9fd4257182)" d="
M331.783 322.473
L332.982 322.473
L332.982 43.2
L331.783 43.2
z
" style="fill:#008000;opacity:0.2;"/>
   </g>
   <g id="patch_8">
    <path clip-path="url(#p9fd4257182)" d="
M402.133 322.473
L403.593 322.473
L403.593 43.2
L402.133 43.2
z
" style="fill:#008000;opacity:0.2;"/>
   </g>
   <g id="patch_9">
    <path clip-path="url(#p9fd4257182)" d="
M425.227 322.473
L425.993 322.473
L425.993 43.2
L425.227 43.2
z
" style="fill:#008000;opacity:0.2;"/>
   </g>
   <g id="patch_10">
    <path clip-path="url(#p9fd4257182)" d="
M489.479 322.473
L490.418 322.473
L490.418 43.2
L489.479 43.2
z
" style="fill:#008000;opacity:0.2;"/>
   </g>
   <g id="patch_11">
    <path clip-path="url(#p9fd4257182)" d="
M552.488 322.473
L553.991 322.473
L553.991 43.2
L552.488 43.2
z
" style="fill:#008000;opacity:0.2;"/>
   </g>
   <g id="patch_12">
    <path clip-path="url(#p9fd4257182)" d="
M581.651 322.473
L583.703 322.473
L583.703 43.2
L581.651 43.2
z
" style="fill:#008000;opacity:0.2;"/>
   </g>
   <g id="patch_13">
    <path clip-path="url(#p9fd4257182)" d="
M626.176 322.473
L626.855 322.473
L626.855 43.2
L626.176 43.2
z
" style="fill:#008000;opacity:0.2;"/>
   </g>
   <g id="patch_14">
    <path clip-path="url(#p9fd4257182)" d="
M658.909 322.473
L659.502 322.473
L659.502 43.2
L658.909 43.2
z
" style="fill:#008000;opacity:0.2;"/>
   </g>
   <g id="patch_15">
    <path clip-path="url(#p9fd4257182)" d="
M715.4 322.473
L717.062 322.473
L717.062 43.2
L715.4 43.2
z
" style="fill:#008000;opacity:0.2;"/>
   </g>
   <g id="patch_16">
    <path clip-path="url(#p9fd4257182)" d="
M727.092 322.473
L728.609 322.473
L728.609 43.2
L727.092 43.2
z
" style="fill:#008000;opacity:0.2;"/>
   </g>
   <g id="patch_17">
    <path clip-path="url(#p9fd4257182)" d="
M732.771 322.473
L733.884 322.473
L733.884 43.2
L732.771 43.2
z
" style="fill:#008000;opacity:0.2;"/>
   </g>
   <g id="patch_18">
    <path clip-path="url(#p9fd4257182)" d="
M736.644 322.473
L738.711 322.473
L738.711 43.2
L736.644 43.2
z
" style="fill:#008000;opacity:0.2;"/>
   </g>
   <g id="patch_19">
    <path clip-path="url(#p9fd4257182)" d="
M756.602 322.473
L763.148 322.473
L763.148 43.2
L756.602 43.2
z
" style="fill:#008000;opacity:0.2;"/>
   </g>
   <g id="line2d_1">
    <path clip-path="url(#p9fd4257182)" d="
M108.275 117.307
L108.289 117.151
L110.153 102.13
L110.486 100.646
L113 99.7838
L113.362 100.314
L116.801 135.941
L118.68 142.675
L119.157 151.499
L121.252 213.883
L121.426 216.606
L122.22 225.013
L124.171 231.812
L125.833 230.057
L128.463 205.36
L130.458 164.254
L131.628 142.803
L132.149 138.187
L132.669 136.784
L133.796 141.604
L136.325 167.441
L138.536 151.974
L139.374 127.247
L141.831 79.0763
L144.331 76.609
L144.346 76.65
L145.473 81.689
L146.037 85.8035
L146.513 90.3111
L148.421 120.514
L150.314 168.155
L151.759 192.792
L154.361 156.175
L158.407 85.8962
L159.202 85.6713
L159.65 86.8226
L160.156 89.1108
L161.312 98.0072
L161.659 101.566
L164.087 128.485
L168.119 108.842
L170.821 108.177
L171.182 108.714
L172.83 111.807
L174.261 115.18
L176.168 116.587
L181.27 143.25
L181.718 153.494
L183.466 198.145
L184.434 216.206
L188.221 204.921
L189.305 174.808
L191.761 89.3542
L195.62 60.76
L196.791 58.2735
L202.47 56.5544
L204.074 56.5926
L205.924 58.9263
L206.531 72.6359
L207.759 160.502
L211.444 136.961
L211.95 137.777
L216.199 124.094
L216.416 124.055
L216.56 124.143
L218.237 125.722
L219.667 124.608
L222.717 129.268
L222.775 129.726
L226.286 183.215
L227.674 196.408
L232.833 166.249
L232.847 166.347
L232.963 167.26
L233.324 171.568
L234.105 187.099
L236.735 251.234
L238.296 259.018
L238.31 258.95
L240.434 229.791
L241.374 203.425
L242.27 171.702
L244.726 98.1502
L246.432 81.5119
L250.074 71.5017
L254.308 74.8738
L254.496 75.208
L257.805 92.0355
L261.693 179.346
L269.424 284.703
L271.101 106.532
L272.242 72.064
L272.936 67.4791
L272.994 67.3303
L273.543 67.0606
L274.555 71.1124
L275.263 78.105
L278.196 268.479
L278.211 267.932
L279.28 224.783
L283.876 256.643
L292.373 202.208
L298.284 177.869
L299.108 175.636
L313.574 204.503
L315.987 212.271
L318.979 222.845
L319.615 224.165
L326.349 236.439
L326.364 236.24
L328.127 149.238
L331.046 67.117
L333.069 64.2106
L333.228 64.1965
L336.465 70.5126
L337.347 74.9937
L337.896 78.315
L341.509 122.253
L342.766 146.386
L343.489 155.054
L347.564 124.061
L350.209 116.428
L357.044 168.108
L361.004 204.804
L361.712 207.748
L363.62 212.37
L363.923 212.824
L365.701 215.147
L369.169 216.203
L370.195 212.332
L370.383 211.272
L371.872 189.272
L373.519 143.999
L375.138 111.63
L376.8 107.77
L376.814 107.902
L377.248 113.199
L377.667 120.794
L378.303 136.933
L384.343 278.431
L388.39 163.713
L389.734 136.597
L390.774 128.162
L392.147 127.832
L392.162 127.956
L392.667 135.229
L398.939 272.644
L398.954 272.554
L402.379 211.44
L403.969 163.477
L407.798 101.489
L408.203 100.228
L414.937 130.647
L425.082 188.669
L428.03 183.617
L428.392 181.213
L432.164 131.857
L438.522 74.8848
L438.739 74.4095
L442.699 75.808
L451.269 96.1414
L454.159 128.712
L456.717 120.15
L457.179 105.008
L458.885 83.8225
L459.362 81.7391
L460.055 79.7128
L460.908 78.8869
L461.443 79.1025
L474.897 123.192
L474.911 123.077
L476.458 111.24
L485.476 79.9384
L488.785 76.8301
L490.577 75.8686
L494.696 76.0293
L506.575 92.0788
L510.376 98.2168
L514.581 113.988
L515.448 116.345
L518.122 117.144
L519.162 116.489
L520.405 116.373
L520.81 116.666
L525.694 158.454
L528.715 250.756
L531.114 296.916
L531.764 302.72
L532.472 306.965
L542.733 63.0609
L542.747 63.1229
L544.294 73.847
L545.175 81.99
L552.632 69.8348
L552.647 69.8872
L553.311 72.7492
L556.635 98.1379
L558.442 100.756
L561 94.9149
L562.459 98.6725
L565.422 117.14
L569.194 109.817
L571.766 88.9705
L572.098 88.5382
L572.908 89.2563
L573.919 92.4289
L575.22 99.3457
L577.735 114.372
L579.772 121.603
L583.197 129.435
L585.929 134.414
L590.784 123.753
L596.522 82.4007
L600.597 62.1572
L604.672 58.3199
L611.161 57.4285
L612.346 57.4915
L625.656 61.5389
L627.535 71.7807
L627.91 73.1578
L630.02 75.2251
L630.989 76.0363
L632.304 80.0499
L633.85 88.8098
L638.084 116.596
L641.264 132.342
L646.958 154.905
L646.972 154.845
L648.056 150.125
L652.247 121.564
L659.213 58.1302
L660.051 57.9659
L665.644 88.2153
L667.493 111.568
L668.187 117.501
L669.748 121.279
L669.762 121.265
L671.034 118.142
L674.069 111.175
L676.121 105.436
L677.74 104.79
L678.65 107.71
L685.486 145.609
L687.061 146.177
L687.249 146.089
L688.477 144.744
L692.538 132.309
L708.29 81.2766
L711.441 82.2944
L714.577 83.6801
L715.834 83.4151
L717.655 76.6253
L725.921 78.6411
L727.8 78.2147
L730.387 75.6852
L731.731 74.5522
L734.014 73.3405
L734.274 72.5562
L736.095 63.0416
L738.378 57.7577
L738.595 57.665
L741.182 57.2421
L747.208 57.7161
L751.298 65.5793
L753.856 70.7932
L753.87 70.786
L754.16 70.582
L756.79 67.1791
L759.304 67.7309
L764.203 75.2586
L766.458 83.5771
L767.715 90.697
L769.926 118.098
L769.926 118.098" style="fill:none;opacity:0.5;stroke:#0000ff;stroke-linecap:square;"/>
   </g>
   <g id="line2d_2">
    <path clip-path="url(#p9fd4257182)" d="
M108.275 77.4432
L108.289 77.3539
L110.486 69.4842
L113 70.5377
L113.362 71.0436
L115.573 84.1387
L116.801 97.4994
L118.911 131.494
L119.157 137.542
L121.252 199.655
L121.426 202.786
L122.22 210.084
L124.085 223.221
L124.171 224.827
L125.833 249.199
L128.463 202.608
L130.458 160.964
L131.628 152.928
L132.149 145.87
L132.669 135.829
L133.796 110.803
L136.325 78.0934
L138.536 79.9015
L139.374 85.4507
L140.487 96.5288
L141.846 113.05
L144.331 131.287
L145.473 134.957
L146.037 135.828
L146.513 136.121
L148.421 133.627
L150.314 122.993
L151.759 112.114
L154.361 96.7771
L158.407 102.352
L159.202 106.648
L160.156 113.951
L161.644 127.154
L164.072 134.79
L164.087 134.701
L168.119 84.2194
L170.807 83.0295
L170.821 83.0726
L171.182 84.2644
L172.83 92.0351
L174.261 99.9093
L181.255 124.869
L181.718 129.91
L183.466 151.247
L184.434 160.295
L188.206 146.15
L189.305 120.36
L191.761 62.3674
L195.62 56.517
L204.06 56.5675
L205.924 68.3908
L206.531 96.0936
L207.759 162.447
L211.444 104.707
L211.95 102.137
L216.199 84.128
L216.56 84.759
L218.251 95.1789
L219.682 111.819
L222.688 137.545
L222.775 137.38
L226.286 107.425
L227.674 97.8028
L232.833 86.3522
L232.847 86.3762
L232.963 86.6162
L233.324 87.8958
L234.105 93.2763
L236.735 130.529
L238.31 142.097
L240.434 125.919
L242.27 72.1274
L244.726 56.7036
L246.432 56.6355
L250.088 56.843
L253.6 67.2563
L254.308 68.018
L254.496 68.0738
L258.123 69.4651
L261.693 68.9223
L268.124 77.1345
L269.424 106.118
L271.086 109.188
L271.101 109.1
L272.242 98.8206
L273.543 82.6319
L274.555 73.7526
L275.248 71.9885
L275.263 72.0083
L278.196 117.72
L278.211 117.708
L278.529 117.856
L279.28 122.754
L283.876 286.161
L292.388 165.893
L297.72 110.826
L298.284 107.181
L299.108 102.819
L309.643 149.529
L313.559 163.938
L313.574 163.926
L315.987 158.832
L318.979 146.001
L319.615 142.726
L326.364 95.357
L328.127 103.778
L331.031 107.62
L331.046 107.489
L333.214 92.9809
L333.228 92.9572
L336.465 95.6467
L337.896 97.5641
L341.509 107.532
L343.489 117.205
L347.564 127.781
L350.223 123.727
L357.03 100.899
L357.044 100.967
L361.004 127.42
L361.712 130.83
L363.62 134.251
L363.923 134.063
L365.686 129.336
L369.169 102.054
L370.21 98.4474
L370.398 98.2738
L371.713 97.9998
L371.857 97.8486
L373.519 94.5359
L375.152 86.2818
L376.814 93.1344
L377.667 102.287
L378.303 110.788
L379.719 144.147
L380.282 164.194
L384.343 125.683
L388.159 69.4199
L388.173 69.4296
L388.39 69.6643
L389.734 74.8108
L390.774 83.4522
L392.494 104.32
L392.667 107.138
L395.211 162.218
L396.439 182.519
L398.954 175.694
L402.379 102.747
L403.969 83.2158
L408.203 75.6912
L414.937 95.7703
L425.082 176.878
L432.164 169.561
L438.522 98.3708
L438.739 97.4559
L442.699 81.7267
L449.058 93.5363
L450.286 94.5114
L450.3 94.4573
L451.269 88.4795
L454.159 72.0507
L456.934 64.8879
L457.179 64.736
L460.055 77.8345
L460.908 78.9552
L461.443 78.8298
L474.911 108.698
L476.458 108.783
L485.476 77.7614
L488.799 69.97
L490.577 67.8777
L494.696 68.4629
L503.381 102.754
L510.376 109.945
L514.581 132.34
L518.122 157.529
L519.162 167.171
L520.405 176.788
L520.81 178.718
L525.694 156.489
L528.715 113.408
L531.114 102.812
L532.472 98.2123
L542.733 78.124
L542.747 78.2743
L544.294 102.902
L545.175 125.417
L552.632 66.2684
L553.311 65.9528
L556.433 68.6528
L556.635 69.1045
L561 77.4387
L562.459 82.604
L565.422 104.747
L569.194 113.89
L569.208 113.827
L572.098 90.1535
L572.908 81.6461
L573.919 72.583
L575.22 65.632
L577.72 63.2435
L577.735 63.2686
L579.772 76.8089
L583.197 170.067
L585.914 203.11
L590.784 132.536
L596.522 78.6362
L600.597 70.4876
L604.672 63.6356
L611.161 82.5378
L612.346 92.9291
L625.642 61.6043
L625.656 61.6126
L627.91 62.7297
L630.02 64.6935
L630.989 66.886
L632.304 73.1999
L633.85 86.236
L638.07 92.0418
L638.084 91.9576
L641.249 83.3774
L641.264 83.4103
L646.972 110.963
L648.056 111.696
L652.247 113.239
L665.644 103.371
L666.626 103.315
L667.493 102.755
L668.187 101.767
L669.762 97.7108
L674.069 83.8239
L676.121 76.6545
L677.74 73.6127
L678.65 73.5544
L685.471 84.9695
L685.486 84.9405
L688.477 78.6133
L692.552 72.1643
L708.29 78.4077
L711.441 76.299
L714.591 75.2206
L715.834 75.1082
L717.64 72.8555
L725.907 91.3141
L725.921 91.2791
L727.814 76.2761
L730.387 62.3172
L731.731 61.0911
L734.014 62.6566
L734.274 63.089
L735.777 66.885
L736.095 67.9951
L738.378 82.044
L740.517 101.685
L741.182 104.06
L747.208 71.7161
L751.313 66.181
L753.87 64.7898
L754.16 64.8791
L754.969 65.3148
L756.79 66.7535
L759.304 67.8406
L764.203 70.1568
L767.715 72.1537
L769.926 75.0659
L769.926 75.0659" style="fill:none;opacity:0.5;stroke:#ff0000;stroke-linecap:square;"/>
   </g>
   <g id="line2d_3">
    <path clip-path="url(#p9fd4257182)" d="
M108.289 94.9441
L110.139 106.231
L110.471 107.573
L113.362 116.245
L115.573 132.707
L116.801 131.797
L118.68 123.474
L118.694 123.59
L118.925 126.299
L119.157 130.726
L121.426 207.262
L122.206 207.349
L122.22 207.188
L124.07 190.356
L124.085 190.526
L124.171 191.534
L125.833 204.258
L128.463 178.491
L130.458 149.301
L131.628 134.15
L132.669 109.766
L133.796 89.3648
L136.311 85.5468
L136.325 85.6163
L138.536 93.5264
L139.374 97.9566
L140.487 98.1432
L141.846 93.6428
L144.331 89.4164
L145.473 92.9406
L146.037 102.378
L148.421 171.789
L150.314 138.635
L151.759 91.298
L154.361 71.7452
L158.407 86.4023
L159.65 92.9425
L161.312 104.217
L161.659 106.607
L164.072 116.309
L164.087 116.292
L168.119 91.0291
L170.821 93.9218
L171.182 95.3306
L172.83 102.62
L174.261 107.5
L176.168 96.604
L181.255 98.9996
L181.718 112.687
L183.466 193.783
L184.434 231.499
L188.221 192.554
L189.305 140.309
L191.761 70.0182
L195.606 59.291
L196.791 60.1741
L204.074 110.994
L205.924 122.931
L206.531 125.002
L207.759 124.739
L211.95 101.204
L216.214 81.013
L216.575 81.1409
L218.251 86.1222
L219.682 94.3457
L222.775 113.592
L226.272 122.252
L226.286 122.225
L227.674 115.785
L232.833 72.6956
L232.847 72.7201
L232.963 72.9673
L233.324 74.337
L234.105 80.7737
L236.735 150.521
L238.31 184.286
L240.434 173.154
L241.374 148.863
L242.27 117.241
L244.712 65.9994
L246.432 63.3569
L253.6 63.9318
L254.308 64.5964
L254.496 64.874
L257.805 79.5712
L258.123 81.7567
L261.693 99.944
L268.109 57.2427
L268.124 57.3097
L268.21 57.8395
L268.702 70.9042
L269.424 149.203
L271.086 165.944
L271.101 165.085
L272.242 106.84
L273.543 79.9729
L274.555 67.4121
L275.248 65.4273
L275.263 65.4518
L278.196 162.573
L278.211 162.429
L278.529 159.644
L279.179 157.748
L279.194 157.787
L279.28 158.115
L283.876 264.449
L292.388 160.981
L297.72 113.283
L298.27 109.952
L299.108 105.751
L313.574 168.171
L315.987 171.624
L318.979 170.181
L319.615 168.156
L326.364 105.498
L328.127 91.5864
L331.046 64.8662
L333.069 60.3104
L333.228 60.2998
L336.465 68.5981
L337.347 74.2983
L341.509 103.275
L342.766 115.281
L343.489 120.118
L347.564 107.536
L350.223 92.7518
L357.044 98.7178
L360.99 142.19
L361.004 142.157
L361.712 138.517
L363.62 127.143
L363.923 123.837
L365.701 108.255
L369.155 104.458
L369.169 104.681
L370.398 125.584
L371.857 137.367
L371.872 137.389
L373.519 123.488
L375.152 85.3071
L376.8 82.5237
L376.814 82.6016
L377.248 85.415
L378.303 94.9079
L379.719 115.678
L380.282 129.609
L384.329 146.109
L384.343 145.712
L388.173 67.6177
L388.39 67.3166
L389.734 68.7556
L390.774 73.2314
L392.162 82.9764
L392.667 88.8475
L395.211 154.826
L396.454 193.37
L398.939 212.094
L398.954 211.992
L402.379 152.374
L403.969 119.769
L407.798 84.2447
L408.203 84.2546
L414.937 125.588
L425.068 147.552
L425.082 147.496
L428.03 130.315
L428.392 127.473
L432.164 95.6441
L438.508 72.092
L438.725 71.9786
L442.699 77.7563
L449.043 157.7
L449.058 157.34
L450.3 130.997
L451.269 99.2941
L454.144 74.596
L454.159 74.7203
L456.731 84.8852
L457.179 84.8686
L458.885 86.1216
L459.362 85.791
L460.055 84.309
L460.908 80.9397
L461.443 78.3064
L474.897 141.55
L474.911 141.302
L476.458 118.061
L485.476 81.27
L490.577 80.1408
L494.696 77.3962
L506.575 69.0159
L510.376 71.3944
L514.581 109.586
L515.448 126.491
L518.122 171.43
L519.162 180.727
L520.391 181.678
L520.405 181.625
L520.81 179.676
L525.694 141.097
L528.715 124.5
L532.472 108.807
L542.747 62.3735
L544.294 60.2702
L545.175 59.4199
L552.647 58.1164
L553.311 59.4713
L556.635 88.0119
L558.427 91.788
L558.442 91.7545
L561 83.7458
L562.459 85.0538
L565.422 94.5803
L571.766 75.3005
L572.084 75.4656
L572.908 77.4902
L573.919 83.2733
L575.22 96.3934
L577.735 127.923
L579.787 137.028
L582.388 137.792
L583.197 139.314
L585.929 139.262
L590.784 103.076
L596.522 71.9247
L600.597 67.8703
L604.672 65.865
L611.161 93.8647
L612.346 112.503
L625.642 88.8951
L625.656 87.9418
L626.653 60.8899
L627.535 57.609
L627.91 57.2022
L630.02 56.7579
L630.989 56.9329
L632.304 58.9201
L633.85 87.4977
L638.07 244.728
L638.084 244.546
L641.264 197.946
L648.056 123.631
L652.247 90.9023
L659.198 86.1271
L660.065 87.8102
L665.644 104.758
L666.626 106.896
L667.493 107.78
L668.187 107.117
L669.762 100.663
L671.048 94.3697
L674.054 90.3416
L674.069 90.3596
L676.121 93.7193
L677.74 94.2666
L678.65 92.5056
L685.486 84.2199
L688.477 82.1086
L708.29 103.817
L711.441 105.577
L714.591 108.041
L715.834 108.621
L717.655 102.636
L725.907 112.584
L727.814 95.6787
L730.387 76.9326
L731.731 72.3395
L734.014 69.0112
L734.274 67.6744
L735.777 61.928
L736.095 61.3081
L738.378 60.1511
L738.61 60.3148
L740.517 65.8662
L741.182 69.4053
L747.208 106.726
L751.313 99.3258
L754.969 78.7204
L756.804 67.2027
L759.304 59.0949
L764.203 57.1604
L766.458 57.0686
L767.715 57.1828
L769.926 58.4329
L769.926 58.4329" style="fill:none;opacity:0.5;stroke:#ff0000;stroke-linecap:square;"/>
   </g>
   <g id="line2d_4">
    <path clip-path="url(#p9fd4257182)" d="
M108.275 140.011
L108.289 139.984
L110.486 123.547
L113 117.972
L113.362 116.647
L115.573 93.8843
L116.801 94.0741
L118.68 116.899
L119.157 127.059
L122.22 217.99
L124.171 259.141
L125.819 259.815
L125.833 259.723
L128.463 170.649
L130.443 127.916
L130.458 127.934
L131.614 128.376
L131.628 128.293
L132.149 122.44
L133.796 95.6971
L136.325 71.6776
L138.536 71.6005
L139.374 75.5261
L140.487 76.508
L141.585 76.8372
L141.846 77.0649
L144.346 83.5329
L150.314 114.745
L151.759 119.5
L154.361 110.515
L158.393 87.4238
L158.407 87.4615
L159.202 92.4456
L159.65 98.0604
L160.156 107.04
L161.659 148.445
L164.072 192.753
L164.087 192.678
L168.119 107.535
L170.807 106.273
L170.821 106.36
L171.182 108.702
L172.83 122.116
L174.261 131.852
L176.168 129.551
L181.255 125.866
L181.718 130.393
L183.466 149.007
L184.434 155.863
L188.206 143.919
L189.305 136.38
L191.761 115.58
L195.606 86.1786
L196.776 85.1519
L202.412 86.9503
L202.484 87.181
L204.074 95.6016
L205.924 113.597
L207.759 135.515
L211.444 158.346
L211.95 157.793
L216.575 122.775
L218.251 112.317
L219.682 102.071
L222.688 92.7191
L222.746 92.8057
L222.775 92.8531
L226.286 107.846
L227.674 106.877
L232.833 76.1615
L232.847 76.1874
L232.963 76.4471
L233.324 77.8673
L234.105 84.3444
L236.735 148.172
L238.296 181.235
L240.42 180.367
L240.434 180.16
L241.374 159.345
L242.27 127.101
L244.726 66.4267
L246.432 62.7522
L253.6 71.9413
L254.496 74.2776
L257.805 109.035
L258.123 113.775
L261.678 132.386
L268.109 61.187
L268.196 61.3804
L268.21 61.4152
L268.687 63.0997
L269.424 69.6609
L271.086 100.74
L271.101 100.734
L272.994 84.615
L273.543 79.1673
L274.555 72.4449
L275.248 71.9668
L275.263 72.016
L278.211 131.26
L278.529 132.028
L279.28 138.943
L283.876 299.205
L292.388 205.695
L297.735 95.1792
L298.284 90.1946
L299.108 84.5124
L313.574 150.912
L315.987 163.086
L318.979 174.422
L319.615 175.62
L326.364 187.124
L328.127 181.014
L331.046 68.7862
L333.069 58.3361
L333.228 58.2534
L336.465 62.8055
L337.347 67.1719
L341.509 92.7479
L342.766 104.759
L343.489 110.5
L347.55 113.62
L347.564 113.599
L350.223 110.986
L357.044 113.912
L361.004 130.834
L361.712 131.436
L363.62 128.21
L363.923 127.445
L365.701 109.807
L369.155 66.3778
L369.169 66.4953
L370.21 82.8748
L370.398 88.0819
L371.872 142.988
L373.505 162.178
L373.519 161.949
L375.152 118.833
L376.814 106.205
L377.248 104.825
L377.667 103.107
L378.303 99.3603
L379.719 93.0447
L380.282 93.0279
L384.343 85.1777
L388.173 88.5728
L388.39 89.3477
L389.734 95.8324
L390.774 103.561
L392.162 119.904
L392.667 129.647
L395.225 205.455
L396.439 233.446
L398.939 239.834
L398.954 239.722
L402.379 173.829
L403.969 135.906
L407.798 99.7735
L408.203 99.4127
L414.937 140.009
L425.082 244.243
L432.164 178.956
L438.522 73.7313
L438.739 73.0417
L442.699 73.1321
L449.058 77.3204
L450.3 77.3297
L451.269 72.0649
L454.159 62.9932
L456.717 87.7297
L456.731 87.6858
L456.934 86.5528
L457.179 84.1518
L458.87 69.2456
L458.885 69.2475
L459.362 70.4004
L460.055 76.344
L460.908 94.7005
L461.443 119.289
L474.897 140.499
L474.911 140.397
L476.458 128.941
L485.476 77.5606
L488.799 70.8175
L490.577 69.1411
L494.696 72.0821
L503.381 172.242
L506.589 167.829
L510.376 139.915
L514.581 137.284
L515.448 144.164
L518.122 181.536
L519.162 201.401
L520.405 217.321
L520.81 219.597
L525.694 178.698
L528.715 119.016
L531.114 85.4032
L531.764 81.5515
L532.472 78.6257
L542.733 71.5252
L542.747 71.5644
L545.175 78.3723
L552.647 80.7673
L553.311 79.4161
L556.433 78.8776
L556.635 79.3698
L558.442 87.3892
L561 106.204
L562.459 114.455
L565.422 123.126
L569.194 126.78
L569.208 126.747
L571.766 112.355
L572.098 109.301
L573.919 86.8956
L575.22 74.6276
L577.72 67.7794
L577.735 67.7962
L579.772 77.7237
L582.388 107.685
L583.197 110.712
L585.929 108.018
L590.784 76.6993
L596.522 66.3407
L600.597 66.6252
L604.672 83.7892
L611.161 60.3155
L612.346 58.7758
L625.656 61.6929
L626.653 73.4489
L627.535 86.3216
L627.91 89.9328
L630.02 73.2768
L630.989 63.0795
L632.304 60.887
L633.85 63.3546
L638.084 83.582
L641.264 118.99
L646.958 180.984
L646.972 180.845
L647.261 177.821
L648.056 167.676
L652.247 122.411
L665.629 91.622
L665.644 91.681
L666.626 96.4027
L669.762 116.365
L671.034 120.385
L674.069 114.995
L676.121 100.868
L677.74 91.1843
L678.65 87.4955
L685.486 74.8773
L687.234 72.9168
L688.477 71.8103
L692.538 69.9094
L708.276 118.421
L708.29 118.41
L711.441 114.285
L714.591 106.75
L715.834 101.757
L717.655 83.9636
L725.907 77.8223
L725.921 77.5987
L727.814 60.0562
L730.387 56.841
L731.731 56.7039
L734.274 56.7026
L735.777 57.6562
L736.095 58.583
L738.378 112.136
L738.61 113.975
L740.517 64.0153
L741.182 57.7277
L747.208 58.0844
L751.313 64.9588
L753.87 68.1608
L754.969 68.3626
L756.804 68.5547
L759.304 68.9942
L764.203 71.0139
L767.715 78.2251
L769.941 84.8534
L769.941 84.8534" style="fill:none;opacity:0.5;stroke:#ff0000;stroke-linecap:square;"/>
   </g>
   <g id="line2d_5">
    <path clip-path="url(#p9fd4257182)" d="
M108.289 136.533
L110.139 129.661
L110.486 128.317
L113 120.357
L113.362 118.456
L115.573 109.63
L116.801 107.924
L118.68 111.659
L119.157 121.096
L121.426 208.128
L122.22 220.868
L124.085 230.857
L124.171 230.832
L125.833 222.883
L128.463 157.461
L130.458 118.511
L132.149 108.043
L132.669 105.719
L133.796 104.133
L136.325 104.136
L138.536 92.1817
L139.374 86.6906
L140.487 80.9102
L141.585 77.5348
L141.846 77.1126
L144.346 85.4863
L145.473 99.0631
L146.513 114.48
L148.407 124.754
L148.421 124.653
L150.314 99.4082
L151.759 82.8847
L154.346 79.8178
L154.361 79.8794
L159.202 128.7
L161.312 155.992
L161.659 158.949
L164.087 140.685
L168.119 77.8671
L170.821 95.4817
L171.182 100.539
L174.261 154.063
L176.154 162.453
L176.168 162.407
L181.27 161.409
L181.718 166.647
L183.466 185.439
L184.42 189.396
L188.221 151.745
L189.29 131.956
L191.761 82.9557
L195.606 60.9447
L196.791 62.8225
L202.484 132.231
L204.074 132.961
L205.924 128.791
L206.531 126.679
L207.759 122.869
L211.444 115.822
L211.95 115.376
L216.214 136.071
L216.43 135.318
L216.575 133.71
L218.251 83.1181
L219.667 69.5103
L219.682 69.5325
L222.789 112.089
L226.286 89.3476
L227.659 84.0382
L227.674 84.0972
L232.963 202.816
L234.105 217.83
L236.735 236.087
L238.31 233.579
L240.434 209.519
L241.374 191.437
L242.27 171.001
L244.726 118.352
L246.432 100.794
L250.088 84.1027
L253.889 69.9149
L254.496 70.3037
L257.805 80.7485
L258.123 82.3942
L261.693 117.603
L268.702 134.865
L269.424 146.952
L271.086 183.414
L271.101 183.207
L272.242 149.05
L273.543 95.499
L274.555 72.6918
L275.248 68.7541
L275.263 68.7619
L278.196 137.328
L278.211 137.206
L278.529 135.429
L279.194 137.847
L279.28 138.856
L283.876 287.133
L292.373 175.428
L297.735 98.8398
L298.284 95.2017
L299.108 90.9487
L313.574 190.025
L315.987 194.594
L318.964 191.71
L319.615 189.714
L326.349 135.579
L328.112 119.783
L331.046 91.4262
L333.214 80.3893
L333.228 80.3677
L336.465 79.5225
L337.347 79.8964
L337.896 80.3074
L341.509 100.599
L342.766 116.417
L343.489 123.925
L347.564 125.917
L350.209 134.99
L357.044 181.641
L361.004 193.051
L361.712 198.546
L363.923 225.604
L365.686 243.892
L369.169 187.018
L370.398 148.909
L371.872 121.163
L373.519 111.769
L375.152 111.163
L376.814 111.86
L377.248 111.617
L377.667 111.589
L378.303 112.454
L379.719 124.558
L380.282 135.405
L384.343 221.267
L388.173 143.897
L388.39 136.326
L389.734 100.359
L390.774 87.5086
L392.162 87.7513
L392.667 92.6562
L395.225 160.198
L396.439 197.943
L398.939 214.992
L398.954 214.934
L403.969 120.617
L407.798 120.719
L408.203 121.625
L414.937 169.893
L425.068 186.603
L425.082 186.552
L432.164 119.627
L438.522 70.371
L438.739 69.9823
L442.699 72.8909
L449.043 89.6251
L449.058 89.5548
L450.3 83.9195
L451.269 76.4717
L454.144 72.0654
L454.159 72.1493
L456.717 79.3767
L456.731 79.3471
L457.179 78.3516
L458.87 77.3491
L458.885 77.3805
L459.362 78.8429
L460.055 82.5226
L460.908 89.9723
L461.443 97.1414
L474.897 150.88
L474.911 150.521
L476.458 117.307
L485.476 71.7061
L488.799 72.1718
L490.563 73.1732
L494.696 81.1029
L503.381 191.245
L506.575 183.738
L510.376 147.864
L514.581 119.495
L515.463 116.104
L518.122 108.953
L519.162 107.937
L520.405 108.477
L520.81 109.139
L525.694 151.853
L528.715 226.968
L531.099 272.364
L531.75 279.478
L532.472 285.042
L542.747 79.1974
L544.294 70.4939
L544.944 69.8552
L545.175 70.032
L552.632 72.7117
L553.311 73.2564
L556.433 78.7924
L556.635 79.3911
L558.442 85.1153
L562.459 98.1326
L565.422 105.46
L569.208 119.539
L571.766 103.802
L572.098 96.3193
L572.908 81.2959
L573.919 70.9363
L575.22 64.9863
L577.72 63.4797
L577.735 63.5055
L579.772 77.9729
L582.388 141.907
L583.197 150.251
L585.929 118.61
L590.784 59.4857
L596.522 57.505
L600.597 56.7253
L604.672 56.7754
L611.161 57.4069
L612.346 57.8977
L625.642 70.2319
L625.656 70.1597
L626.653 65.0676
L627.91 60.4077
L630.02 57.5314
L630.989 57.191
L632.304 57.0856
L638.084 57.2949
L641.264 58.2053
L647.261 182.017
L648.056 190.434
L652.247 174.528
L660.065 99.9463
L665.644 96.7189
L667.493 98.3691
L668.187 99.6276
L669.762 106.811
L671.034 113.785
L674.069 108.756
L676.121 92.6084
L677.74 86.7357
L678.65 87.6272
L685.486 111.676
L687.249 114.089
L688.463 115.082
L692.538 113.118
L708.276 94.3529
L708.29 94.3772
L711.441 100.97
L714.577 108.926
L715.819 110.996
L715.834 110.981
L717.655 102.704
L725.907 106.145
L725.921 106.084
L727.814 91.5576
L730.387 72.8758
L731.731 68.8309
L734.014 73.5004
L734.274 74.7305
L736.095 84.0952
L738.378 70.9416
L738.61 68.3846
L740.517 57.5121
L741.182 56.8125
L747.208 57.9132
L751.298 63.1328
L753.87 85
L754.16 85.88
L754.969 84.6081
L756.804 72.1982
L759.304 61.6389
L764.203 57.1032
L766.458 56.87
L767.715 56.8627
L769.926 57.1387
L769.926 57.1387" style="fill:none;opacity:0.5;stroke:#0000ff;stroke-linecap:square;"/>
   </g>
   <g id="line2d_6">
    <path clip-path="url(#p9fd4257182)" d="
M108.275 106.456
L108.289 106.205
L110.153 86.084
L110.486 85.0758
L113 98.4872
L113.362 102.28
L115.573 136.101
L116.787 145.323
L116.801 145.309
L118.68 140.982
L118.694 141.051
L118.911 142.6
L119.157 145.541
L121.426 191.248
L124.085 195.228
L124.171 196.898
L125.833 225.638
L128.463 160.255
L130.458 122.694
L131.628 121.658
L132.149 117.572
L133.796 96.9609
L136.325 102.978
L138.536 91.0885
L139.374 89.1768
L140.487 94.7569
L141.846 129.919
L144.331 130.31
L144.346 130.033
L145.473 120.017
L146.022 121.866
L146.499 124.134
L148.421 116.675
L150.314 97.5001
L151.759 87.8588
L154.346 84.0313
L154.361 84.0503
L159.65 99.2042
L160.156 101.616
L161.659 110.289
L164.072 118.904
L164.087 118.893
L168.119 101.766
L170.821 107.648
L172.83 117.616
L174.246 120.511
L174.261 120.504
L176.168 106.619
L181.255 90.7818
L181.27 90.9231
L181.718 95.9371
L183.466 126.221
L184.434 145.538
L188.206 162.281
L188.221 162.04
L189.29 135.251
L191.761 70.1422
L195.62 59.1343
L196.776 59.7086
L202.484 90.4557
L204.06 105.736
L205.924 121.959
L206.531 123.486
L207.759 120.748
L211.936 94.3155
L211.95 94.2405
L216.214 80.1402
L216.575 80.3948
L218.251 85.0075
L219.682 91.3638
L222.688 98.5977
L222.746 98.4888
L222.775 98.4306
L226.286 84.2033
L227.674 80.8003
L232.847 78.8601
L232.963 78.9491
L233.324 79.4165
L234.105 81.3732
L236.735 97.4561
L238.31 113.391
L240.434 152.756
L241.374 135.337
L242.27 88.9805
L244.726 56.6306
L246.432 56.7105
L253.889 98.651
L254.496 98.5787
L257.805 88.5142
L258.123 85.7761
L261.693 58.0119
L268.21 56.5493
L268.702 57.185
L269.424 68.1709
L271.086 118.584
L271.101 118.266
L272.242 85.3215
L272.994 74.6653
L273.543 69.5069
L274.555 65.1285
L275.263 65.7371
L278.211 139.801
L278.529 140.667
L279.28 149.708
L283.876 296.136
L292.373 179.445
L297.72 100.01
L298.27 96.5312
L299.108 92.3995
L313.559 170.936
L313.574 170.919
L315.987 164.52
L318.979 148.821
L319.615 144.784
L326.364 111.485
L328.127 105.491
L331.046 74.4927
L333.069 65.1857
L333.228 64.9881
L336.465 67.212
L337.347 69.2359
L337.896 70.8274
L341.509 101.446
L342.766 120.294
L343.489 126.439
L347.564 92.2876
L350.209 83.8244
L357.044 118.423
L360.99 150.364
L361.004 150.343
L361.712 147.75
L363.923 126.132
L365.701 106.372
L369.155 82.5099
L369.169 82.6557
L371.857 115.751
L373.505 113.345
L375.152 81.8349
L376.8 78.1506
L376.814 78.1652
L377.667 78.9683
L378.303 79.0186
L379.719 78.7414
L380.282 79.0271
L384.343 61.5676
L388.173 71.9565
L390.774 90.7636
L392.162 102.314
L392.667 109.04
L396.439 194.968
L398.939 198.776
L398.954 198.635
L402.379 132.734
L403.969 105.618
L407.784 88.4961
L407.798 88.5017
L408.203 88.8485
L414.937 142.512
L425.068 153.991
L425.082 153.912
L432.149 115.503
L438.522 89.837
L438.739 89.5697
L442.699 75.2064
L449.058 77.2665
L451.269 84.4944
L454.144 87.2984
L454.159 87.2726
L457.165 64.4255
L457.179 64.3716
L458.885 73.8616
L459.362 77.8446
L459.911 78.6481
L459.925 78.5979
L460.055 77.9763
L461.443 61.8798
L474.897 93.404
L474.911 93.3912
L476.458 90.9084
L485.476 68.3782
L488.799 65.7861
L490.577 65.5269
L494.696 71.4732
L503.381 205.428
L506.575 199.698
L510.376 180.413
L514.581 184.145
L515.448 189.238
L518.122 202.758
L519.148 204.794
L519.162 204.785
L520.405 191.039
L520.81 182.136
L525.694 94.8847
L528.715 97.5643
L531.114 118.486
L532.472 133.115
L542.733 108.518
L542.747 108.17
L544.294 79.8122
L545.175 71.0204
L552.647 57.444
L553.311 57.5643
L556.433 62.1176
L556.635 63.0243
L558.442 76.0417
L561 103.636
L562.459 113.404
L565.422 104.657
L569.194 100.344
L572.098 93.7878
L572.908 91.6943
L573.919 89.8343
L575.22 88.8206
L577.735 92.6821
L579.772 109.819
L582.388 144.717
L583.197 151.472
L585.914 148.299
L590.784 86.8917
L596.522 68.0399
L600.597 64.7376
L604.672 63.6249
L612.346 69.3154
L625.656 67.7716
L626.653 73.3479
L627.91 81.067
L630.02 88.4097
L630.989 87.178
L632.304 84.4757
L633.85 81.5911
L638.084 83.4317
L641.264 95.0997
L646.972 132.989
L647.261 132.963
L648.056 132.683
L652.247 130.362
L660.051 103.163
L666.626 88.6746
L668.187 85.9878
L669.762 84.5808
L671.048 84.0182
L674.069 83.9436
L677.74 92.4389
L678.65 93.4874
L685.486 83.3688
L687.249 77.5092
L688.477 74.1654
L708.29 69.0865
L711.441 79.7165
L714.591 92.902
L715.819 95.0645
L715.834 95.0418
L717.655 85.2353
L725.907 56.6787
L725.921 56.6848
L727.814 62.2091
L730.387 96.0141
L731.716 97.1525
L731.731 96.9897
L734.014 68.1106
L734.274 66.5589
L735.777 61.5802
L736.095 61.1414
L738.378 61.6952
L741.182 64.8852
L747.208 58.0824
L751.298 56.7712
L756.804 56.6764
L759.304 62.9183
L764.189 95.2838
L764.203 95.2346
L766.458 84.3658
L767.715 80.3017
L769.926 78.5809
L769.926 78.5809" style="fill:none;opacity:0.5;stroke:#ff0000;stroke-linecap:square;"/>
   </g>
   <g id="line2d_7">
    <path clip-path="url(#p9fd4257182)" d="
M108.275 133.069
L110.139 114.477
L110.471 112.531
L113 105.343
L113.362 105.067
L115.573 121.371
L116.801 138.58
L118.911 177.376
L119.157 184.096
L120.472 225.136
L121.426 243.771
L122.22 247.773
L124.085 255.825
L124.171 256.97
L125.833 273.218
L128.463 252.295
L131.628 160.831
L132.669 144.673
L133.796 132.562
L136.325 161.44
L138.522 165.417
L138.536 165.243
L139.374 153.702
L140.487 136.705
L141.846 119.329
L144.346 102.217
L145.473 96.9655
L146.037 95.1745
L146.513 94.1713
L148.421 96.083
L150.314 108.642
L154.361 149.762
L158.393 167.433
L158.407 167.353
L160.156 156.824
L161.659 148.792
L164.087 138.774
L168.119 112.05
L170.821 113.47
L171.182 115.345
L172.83 126.067
L174.261 134.122
L176.168 126.462
L181.255 138.625
L181.718 152.186
L183.466 210.228
L184.434 233.131
L188.206 223.915
L189.305 204.172
L191.761 155.265
L195.606 114.412
L196.791 118.224
L202.47 171.096
L205.924 180.232
L206.531 180.604
L207.759 183.963
L211.444 198.463
L211.95 198.81
L216.199 188.804
L216.56 186.657
L218.251 167.101
L219.682 140.974
L222.775 106.17
L226.286 112.708
L227.674 117.782
L232.847 139.248
L233.324 149.222
L236.735 251.564
L238.296 256.707
L238.31 256.571
L240.434 206.087
L242.27 129.608
L244.726 77.6615
L246.432 73.2116
L253.6 100.674
L253.889 100.91
L254.496 100.14
L257.805 93.7886
L258.123 92.6657
L261.693 71.5622
L268.109 56.8115
L268.124 56.8349
L268.21 57.0132
L268.702 60.9871
L271.086 201.214
L271.101 200.515
L272.242 128.442
L272.994 105.999
L273.543 93.204
L274.555 79.3928
L275.248 77.3164
L275.263 77.3426
L278.211 141.534
L279.194 177.166
L279.28 180.78
L283.876 292.434
L292.388 178.396
L297.735 111.837
L298.284 107.615
L299.108 102.422
L313.574 125.908
L315.987 146.646
L319.615 188.042
L326.349 189.948
L326.364 189.783
L328.127 165.585
L331.046 101.558
L333.214 78.4521
L336.465 80.9386
L337.347 84.9455
L337.896 87.7667
L341.509 111.578
L342.766 121.504
L343.489 125.473
L347.564 118.67
L350.223 123.783
L357.03 185.314
L357.044 185.305
L360.99 180.276
L361.004 180.351
L361.712 184.871
L363.62 199.579
L363.923 203.256
L365.686 216.009
L365.701 215.948
L369.155 190.823
L369.169 190.835
L370.108 190.859
L370.398 190.1
L371.857 168.477
L373.505 130.671
L375.152 101.906
L376.814 104.826
L377.667 113.03
L378.288 121.372
L379.704 170.703
L380.268 202.731
L384.329 259.867
L384.343 259.824
L388.159 179.474
L388.39 169.715
L389.734 121.073
L390.774 100.839
L392.147 97.0557
L392.162 97.1577
L392.667 102.722
L396.439 237.976
L398.939 259.403
L398.954 259.374
L402.379 210.917
L403.969 163.812
L407.798 99.1026
L408.203 97.9914
L414.937 133.385
L425.082 198.236
L428.03 197.443
L428.392 195.912
L432.164 156.589
L438.522 88.9449
L438.739 88.0127
L442.699 65.7286
L449.043 59.5831
L449.058 59.6129
L450.3 69.2717
L451.269 95.218
L454.144 105.585
L454.159 105.057
L456.731 63.9551
L457.179 62.3072
L458.885 73.5111
L459.362 77.8896
L460.055 81.4135
L460.908 82.6577
L461.443 82.2022
L474.911 108.433
L476.458 114.132
L485.476 98.8766
L488.799 88.327
L490.563 85.7419
L494.696 93.7646
L510.361 248.341
L510.376 248.322
L514.581 180.477
L515.448 160.041
L518.107 123.393
L519.162 117.275
L520.405 114.437
L520.81 114.415
L525.694 152.67
L528.715 222.446
L531.114 266.932
L531.764 274.138
L532.472 279.755
L542.733 64.6178
L542.747 64.6584
L544.294 73.3267
L545.175 86.133
L552.632 61.7671
L553.311 62.205
L556.433 71.8715
L556.635 73.3296
L558.442 87.748
L561 105.771
L562.445 112.435
L565.422 114.112
L569.194 95.469
L571.766 81.8859
L572.098 81.643
L572.908 82.4388
L573.919 85.6149
L575.22 92.8265
L577.735 111.694
L579.772 128.016
L582.388 144.87
L583.197 146.734
L585.929 135.942
L590.784 95.3441
L596.522 68.2344
L600.597 66.0826
L604.672 69.7524
L611.147 79.7851
L611.161 79.7742
L612.346 78.1167
L625.642 59.2916
L627.535 66.6583
L627.91 67.4852
L630.006 67.3532
L630.989 67.0012
L633.85 64.1105
L638.084 78.4221
L641.264 129.32
L646.958 137.715
L646.972 137.549
L648.056 126.186
L652.247 98.0118
L655.701 80.4604
L660.051 71.6476
L666.626 86.2446
L667.493 87.5471
L668.187 87.8115
L669.762 85.2153
L671.048 81.9314
L674.069 77.7972
L676.121 76.636
L677.74 78.9348
L678.65 84.0916
L685.471 219.751
L685.486 219.582
L687.249 195.853
L688.463 177.533
L708.276 81.0883
L708.29 81.1261
L711.441 91.7807
L714.577 103.357
L715.834 105.834
L717.655 103.169
L725.921 69.3141
L727.814 75.4105
L730.387 96.8552
L731.716 93.1298
L734.26 70.8637
L735.777 65.0392
L736.095 64.519
L738.378 65.0226
L738.595 65.3382
L740.517 70.354
L741.182 73.1206
L747.223 80.6817
L751.313 90.1771
L754.16 85.9547
L754.969 84.2838
L756.804 77.6006
L759.304 67.6958
L764.203 70.4648
L766.458 79.6089
L767.715 88.0604
L769.926 104.346
L769.926 104.346" style="fill:none;opacity:0.5;stroke:#0000ff;stroke-linecap:square;"/>
   </g>
   <g id="line2d_8">
    <path clip-path="url(#p9fd4257182)" d="
M108.275 67.6925
L108.289 67.6312
L110.486 63.5035
L113 68.2712
L113.362 72.2657
L115.573 97.5459
L116.801 105.561
L118.694 108.282
L119.157 115.948
L120.472 162.63
L121.411 196.257
L122.22 214.077
L125.833 267.631
L128.463 225.324
L130.458 145.094
L131.628 120.568
L132.149 115.265
L132.669 111.935
L133.782 109.835
L133.796 109.853
L136.325 176.376
L138.522 179.186
L139.374 155.551
L141.585 106.876
L141.846 102.954
L144.346 108.047
L145.473 130.507
L148.421 176.653
L150.314 154.324
L151.759 127.758
L154.361 99.8071
L158.407 127.788
L161.659 171.75
L164.072 179.806
L164.087 179.691
L168.119 100.801
L170.807 94.1825
L170.821 94.2303
L171.182 95.6174
L172.83 105.774
L174.261 116.696
L176.168 123.992
L181.27 176.476
L181.718 189.527
L183.466 233.715
L184.434 245.029
L188.206 178.967
L189.305 124.108
L191.761 63.3053
L195.62 61.103
L202.484 142.668
L204.074 145.358
L205.924 144.42
L206.516 143.883
L206.531 143.903
L207.759 152.126
L211.43 201.15
L211.936 202.998
L216.214 173.39
L216.575 169.614
L218.251 107.494
L219.667 76.0059
L222.775 86.084
L227.674 120.023
L232.963 178.336
L233.324 183.668
L234.105 197.49
L236.735 239.167
L238.296 239.66
L238.31 239.564
L240.434 204.734
L241.374 164.174
L242.27 113.211
L244.726 58.5372
L246.432 57.2297
L250.074 57.0923
L254.496 63.6633
L257.805 76.2239
L258.123 78.5055
L261.678 95.368
L261.693 95.3338
L268.109 99.8849
L268.21 100.991
L269.41 129.884
L271.086 173.203
L271.101 172.854
L272.936 104.389
L272.994 103.063
L273.543 93.9957
L274.555 88.2652
L275.263 89.7633
L278.196 150.774
L278.211 150.361
L278.529 142.776
L279.266 136.003
L279.28 136.022
L283.876 273.969
L292.388 123.48
L297.72 76.2113
L298.284 74.6663
L299.108 72.954
L313.574 129.91
L315.987 147.118
L318.979 169.965
L319.615 173.717
L326.349 219.258
L326.364 219.058
L328.127 120.404
L331.046 57.0294
L333.228 56.6102
L336.465 59.3428
L336.928 61.6442
L337.347 64.8307
L337.896 70.4044
L341.509 94.8877
L342.766 105.431
L343.489 110.383
L347.564 110.97
L350.223 112.442
L357.044 136.696
L361.004 153.157
L361.712 157.311
L363.62 173.621
L363.923 177.804
L365.701 197.524
L369.169 196.722
L370.108 194.443
L370.398 192.222
L371.872 169.475
L375.152 105.466
L376.814 90.8099
L377.248 88.7277
L377.667 87.4828
L378.303 87.4429
L379.719 102.057
L380.282 116.449
L384.343 246.625
L388.173 186.657
L388.39 180.288
L389.719 147.401
L390.774 133.147
L392.162 134.548
L392.667 140.118
L395.225 187.813
L396.439 207.416
L398.939 213.76
L398.954 213.705
L402.379 176.208
L403.969 151.47
L407.798 122.262
L408.203 121.587
L414.937 137.886
L425.082 194.393
L428.03 193.524
L428.392 191.714
L438.522 82.6299
L438.739 81.9858
L442.699 93.3785
L449.043 112.706
L450.3 71.4324
L451.269 58.9773
L454.159 56.6856
L457.179 56.5203
L458.885 59.5894
L459.362 70.7696
L460.055 106.757
L460.893 104.332
L461.443 68.3149
L474.897 126.314
L474.911 126.201
L476.458 113.725
L485.476 72.0419
L488.799 68.7762
L490.577 68.4629
L494.696 73.3636
L503.396 140.125
L506.589 149.805
L510.376 146.966
L514.581 141.281
L515.448 138.888
L519.162 124.285
L520.405 121.123
L520.81 120.552
L525.694 148.892
L528.715 221.273
L531.114 270.919
L531.764 279.131
L532.472 285.708
L542.747 112.732
L544.279 97.4377
L544.929 96.2619
L544.944 96.2711
L545.175 96.6387
L552.632 124.887
L553.297 121.454
L556.635 105.577
L558.442 98.4921
L561 90.3869
L562.459 90.1561
L565.422 104.334
L569.208 89.3602
L571.766 72.4328
L572.098 71.7996
L572.908 70.8721
L573.919 70.1645
L575.22 69.9932
L577.735 72.6533
L579.787 83.3068
L582.388 108.643
L583.197 114.455
L585.914 118.335
L585.929 118.262
L590.784 74.9877
L596.522 67.3342
L600.597 71.0643
L604.672 113.315
L611.147 137.825
L611.161 137.612
L612.346 121.225
L625.642 67.3728
L625.656 67.4915
L626.653 77.5477
L627.91 90.5249
L630.02 81.9551
L630.989 69.9349
L632.304 64.3101
L633.85 63.2313
L638.084 77.8521
L641.264 133.818
L646.958 155.536
L646.972 155.493
L647.261 154.483
L648.056 150.457
L652.247 120.331
L655.686 103.296
L659.198 94.4622
L660.051 93.6264
L665.644 102.008
L666.626 105.943
L667.493 110.056
L668.187 112.656
L669.762 111.236
L671.048 105.387
L674.069 90.4668
L676.121 82.7455
L677.74 80.8479
L678.65 81.9824
L685.486 101.507
L687.234 105.71
L688.463 108.391
L708.29 90.1596
L711.441 91.4929
L714.591 91.3698
L715.834 90.0516
L717.655 83.8545
L725.907 61.9877
L725.921 61.9976
L727.814 65.9847
L730.387 82.215
L731.716 88.4284
L731.731 88.4191
L734.274 77.9292
L736.095 72.0147
L738.378 68.879
L738.61 68.7822
L740.517 68.9745
L741.182 69.3886
L747.208 76.9693
L751.298 89.5722
L753.87 102.149
L754.969 110.281
L756.804 124.391
L759.304 132.715
L764.203 119.58
L766.458 113.138
L767.715 111.858
L769.926 116.648
L769.926 116.648" style="fill:none;opacity:0.5;stroke:#0000ff;stroke-linecap:square;"/>
   </g>
   <g id="patch_20">
    <path d="
M108 43.2
L777.6 43.2" style="fill:none;stroke:#000000;stroke-linecap:square;stroke-linejoin:miter;"/>
   </g>
   <g id="patch_21">
    <path d="
M777.6 322.473
L777.6 43.2" style="fill:none;stroke:#000000;stroke-linecap:square;stroke-linejoin:miter;"/>
   </g>
   <g id="patch_22">
    <path d="
M108 322.473
L777.6 322.473" style="fill:none;stroke:#000000;stroke-linecap:square;stroke-linejoin:miter;"/>
   </g>
   <g id="patch_23">
    <path d="
M108 322.473
L108 43.2" style="fill:none;stroke:#000000;stroke-linecap:square;stroke-linejoin:miter;"/>
   </g>
   <g id="matplotlib.axis_1">
    <g id="ytick_1">
     <g id="line2d_9">
      <defs>
       <path d="
M0 0
L4 0" id="m728421d6d4" style="stroke:#000000;stroke-width:0.5;"/>
      </defs>
      <g>
       <use style="stroke:#000000;stroke-width:0.5;" x="108.0" xlink:href="#m728421d6d4" y="322.472727273"/>
      </g>
     </g>
     <g id="line2d_10">
      <defs>
       <path d="
M0 0
L-4 0" id="mcb0005524f" style="stroke:#000000;stroke-width:0.5;"/>
      </defs>
      <g>
       <use style="stroke:#000000;stroke-width:0.5;" x="777.6" xlink:href="#mcb0005524f" y="322.472727273"/>
      </g>
     </g>
     <g id="text_1">
      <!-- 0 -->
      <defs>
       <path d="
M31.7812 66.4062
Q24.1719 66.4062 20.3281 58.9062
Q16.5 51.4219 16.5 36.375
Q16.5 21.3906 20.3281 13.8906
Q24.1719 6.39062 31.7812 6.39062
Q39.4531 6.39062 43.2812 13.8906
Q47.125 21.3906 47.125 36.375
Q47.125 51.4219 43.2812 58.9062
Q39.4531 66.4062 31.7812 66.4062
M31.7812 74.2188
Q44.0469 74.2188 50.5156 64.5156
Q56.9844 54.8281 56.9844 36.375
Q56.9844 17.9688 50.5156 8.26562
Q44.0469 -1.42188 31.7812 -1.42188
Q19.5312 -1.42188 13.0625 8.26562
Q6.59375 17.9688 6.59375 36.375
Q6.59375 54.8281 13.0625 64.5156
Q19.5312 74.2188 31.7812 74.2188" id="DejaVuSans-30"/>
      </defs>
      <g transform="translate(97.953125 325.783977273)scale(0.12 -0.12)">
       <use xlink:href="#DejaVuSans-30"/>
      </g>
     </g>
    </g>
    <g id="ytick_2">
     <g id="line2d_11">
      <g>
       <use style="stroke:#000000;stroke-width:0.5;" x="108.0" xlink:href="#m728421d6d4" y="269.277922078"/>
      </g>
     </g>
     <g id="line2d_12">
      <g>
       <use style="stroke:#000000;stroke-width:0.5;" x="777.6" xlink:href="#mcb0005524f" y="269.277922078"/>
      </g>
     </g>
     <g id="text_2">
      <!-- 20 -->
      <defs>
       <path d="
M19.1875 8.29688
L53.6094 8.29688
L53.6094 0
L7.32812 0
L7.32812 8.29688
Q12.9375 14.1094 22.625 23.8906
Q32.3281 33.6875 34.8125 36.5312
Q39.5469 41.8438 41.4219 45.5312
Q43.3125 49.2188 43.3125 52.7812
Q43.3125 58.5938 39.2344 62.25
Q35.1562 65.9219 28.6094 65.9219
Q23.9688 65.9219 18.8125 64.3125
Q13.6719 62.7031 7.8125 59.4219
L7.8125 69.3906
Q13.7656 71.7812 18.9375 73
Q24.125 74.2188 28.4219 74.2188
Q39.75 74.2188 46.4844 68.5469
Q53.2188 62.8906 53.2188 53.4219
Q53.2188 48.9219 51.5312 44.8906
Q49.8594 40.875 45.4062 35.4062
Q44.1875 33.9844 37.6406 27.2188
Q31.1094 20.4531 19.1875 8.29688" id="DejaVuSans-32"/>
      </defs>
      <g transform="translate(90.40625 272.589172078)scale(0.12 -0.12)">
       <use xlink:href="#DejaVuSans-32"/>
       <use x="63.623046875" xlink:href="#DejaVuSans-30"/>
      </g>
     </g>
    </g>
    <g id="ytick_3">
     <g id="line2d_13">
      <g>
       <use style="stroke:#000000;stroke-width:0.5;" x="108.0" xlink:href="#m728421d6d4" y="216.083116883"/>
      </g>
     </g>
     <g id="line2d_14">
      <g>
       <use style="stroke:#000000;stroke-width:0.5;" x="777.6" xlink:href="#mcb0005524f" y="216.083116883"/>
      </g>
     </g>
     <g id="text_3">
      <!-- 40 -->
      <defs>
       <path d="
M37.7969 64.3125
L12.8906 25.3906
L37.7969 25.3906
z

M35.2031 72.9062
L47.6094 72.9062
L47.6094 25.3906
L58.0156 25.3906
L58.0156 17.1875
L47.6094 17.1875
L47.6094 0
L37.7969 0
L37.7969 17.1875
L4.89062 17.1875
L4.89062 26.7031
z
" id="DejaVuSans-34"/>
      </defs>
      <g transform="translate(90.11375 219.394366883)scale(0.12 -0.12)">
       <use xlink:href="#DejaVuSans-34"/>
       <use x="63.623046875" xlink:href="#DejaVuSans-30"/>
      </g>
     </g>
    </g>
    <g id="ytick_4">
     <g id="line2d_15">
      <g>
       <use style="stroke:#000000;stroke-width:0.5;" x="108.0" xlink:href="#m728421d6d4" y="162.888311688"/>
      </g>
     </g>
     <g id="line2d_16">
      <g>
       <use style="stroke:#000000;stroke-width:0.5;" x="777.6" xlink:href="#mcb0005524f" y="162.888311688"/>
      </g>
     </g>
     <g id="text_4">
      <!-- 60 -->
      <defs>
       <path d="
M33.0156 40.375
Q26.375 40.375 22.4844 35.8281
Q18.6094 31.2969 18.6094 23.3906
Q18.6094 15.5312 22.4844 10.9531
Q26.375 6.39062 33.0156 6.39062
Q39.6562 6.39062 43.5312 10.9531
Q47.4062 15.5312 47.4062 23.3906
Q47.4062 31.2969 43.5312 35.8281
Q39.6562 40.375 33.0156 40.375
M52.5938 71.2969
L52.5938 62.3125
Q48.875 64.0625 45.0938 64.9844
Q41.3125 65.9219 37.5938 65.9219
Q27.8281 65.9219 22.6719 59.3281
Q17.5312 52.7344 16.7969 39.4062
Q19.6719 43.6562 24.0156 45.9219
Q28.375 48.1875 33.5938 48.1875
Q44.5781 48.1875 50.9531 41.5156
Q57.3281 34.8594 57.3281 23.3906
Q57.3281 12.1562 50.6875 5.35938
Q44.0469 -1.42188 33.0156 -1.42188
Q20.3594 -1.42188 13.6719 8.26562
Q6.98438 17.9688 6.98438 36.375
Q6.98438 53.6562 15.1875 63.9375
Q23.3906 74.2188 37.2031 74.2188
Q40.9219 74.2188 44.7031 73.4844
Q48.4844 72.75 52.5938 71.2969" id="DejaVuSans-36"/>
      </defs>
      <g transform="translate(90.365 166.199561688)scale(0.12 -0.12)">
       <use xlink:href="#DejaVuSans-36"/>
       <use x="63.623046875" xlink:href="#DejaVuSans-30"/>
      </g>
     </g>
    </g>
    <g id="ytick_5">
     <g id="line2d_17">
      <g>
       <use style="stroke:#000000;stroke-width:0.5;" x="108.0" xlink:href="#m728421d6d4" y="109.693506494"/>
      </g>
     </g>
     <g id="line2d_18">
      <g>
       <use style="stroke:#000000;stroke-width:0.5;" x="777.6" xlink:href="#mcb0005524f" y="109.693506494"/>
      </g>
     </g>
     <g id="text_5">
      <!-- 80 -->
      <defs>
       <path d="
M31.7812 34.625
Q24.75 34.625 20.7188 30.8594
Q16.7031 27.0938 16.7031 20.5156
Q16.7031 13.9219 20.7188 10.1562
Q24.75 6.39062 31.7812 6.39062
Q38.8125 6.39062 42.8594 10.1719
Q46.9219 13.9688 46.9219 20.5156
Q46.9219 27.0938 42.8906 30.8594
Q38.875 34.625 31.7812 34.625
M21.9219 38.8125
Q15.5781 40.375 12.0312 44.7188
Q8.5 49.0781 8.5 55.3281
Q8.5 64.0625 14.7188 69.1406
Q20.9531 74.2188 31.7812 74.2188
Q42.6719 74.2188 48.875 69.1406
Q55.0781 64.0625 55.0781 55.3281
Q55.0781 49.0781 51.5312 44.7188
Q48 40.375 41.7031 38.8125
Q48.8281 37.1562 52.7969 32.3125
Q56.7812 27.4844 56.7812 20.5156
Q56.7812 9.90625 50.3125 4.23438
Q43.8438 -1.42188 31.7812 -1.42188
Q19.7344 -1.42188 13.25 4.23438
Q6.78125 9.90625 6.78125 20.5156
Q6.78125 27.4844 10.7812 32.3125
Q14.7969 37.1562 21.9219 38.8125
M18.3125 54.3906
Q18.3125 48.7344 21.8438 45.5625
Q25.3906 42.3906 31.7812 42.3906
Q38.1406 42.3906 41.7188 45.5625
Q45.3125 48.7344 45.3125 54.3906
Q45.3125 60.0625 41.7188 63.2344
Q38.1406 66.4062 31.7812 66.4062
Q25.3906 66.4062 21.8438 63.2344
Q18.3125 60.0625 18.3125 54.3906" id="DejaVuSans-38"/>
      </defs>
      <g transform="translate(90.340625 113.004756494)scale(0.12 -0.12)">
       <use xlink:href="#DejaVuSans-38"/>
       <use x="63.623046875" xlink:href="#DejaVuSans-30"/>
      </g>
     </g>
    </g>
    <g id="ytick_6">
     <g id="line2d_19">
      <g>
       <use style="stroke:#000000;stroke-width:0.5;" x="108.0" xlink:href="#m728421d6d4" y="56.4987012987"/>
      </g>
     </g>
     <g id="line2d_20">
      <g>
       <use style="stroke:#000000;stroke-width:0.5;" x="777.6" xlink:href="#mcb0005524f" y="56.4987012987"/>
      </g>
     </g>
     <g id="text_6">
      <!-- 100 -->
      <defs>
       <path d="
M12.4062 8.29688
L28.5156 8.29688
L28.5156 63.9219
L10.9844 60.4062
L10.9844 69.3906
L28.4219 72.9062
L38.2812 72.9062
L38.2812 8.29688
L54.3906 8.29688
L54.3906 0
L12.4062 0
z
" id="DejaVuSans-31"/>
      </defs>
      <g transform="translate(83.21 59.8099512987)scale(0.12 -0.12)">
       <use xlink:href="#DejaVuSans-31"/>
       <use x="63.623046875" xlink:href="#DejaVuSans-30"/>
       <use x="127.24609375" xlink:href="#DejaVuSans-30"/>
      </g>
     </g>
    </g>
    <g id="text_7">
     <!-- Methylation -->
     <defs>
      <path d="
M9.8125 72.9062
L24.5156 72.9062
L43.1094 23.2969
L61.8125 72.9062
L76.5156 72.9062
L76.5156 0
L66.8906 0
L66.8906 64.0156
L48.0938 14.0156
L38.1875 14.0156
L19.3906 64.0156
L19.3906 0
L9.8125 0
z
" id="DejaVuSans-4d"/>
      <path d="
M30.6094 48.3906
Q23.3906 48.3906 19.1875 42.75
Q14.9844 37.1094 14.9844 27.2969
Q14.9844 17.4844 19.1562 11.8438
Q23.3438 6.20312 30.6094 6.20312
Q37.7969 6.20312 41.9844 11.8594
Q46.1875 17.5312 46.1875 27.2969
Q46.1875 37.0156 41.9844 42.7031
Q37.7969 48.3906 30.6094 48.3906
M30.6094 56
Q42.3281 56 49.0156 48.375
Q55.7188 40.7656 55.7188 27.2969
Q55.7188 13.875 49.0156 6.21875
Q42.3281 -1.42188 30.6094 -1.42188
Q18.8438 -1.42188 12.1719 6.21875
Q5.51562 13.875 5.51562 27.2969
Q5.51562 40.7656 12.1719 48.375
Q18.8438 56 30.6094 56" id="DejaVuSans-6f"/>
      <path d="
M54.8906 33.0156
L54.8906 0
L45.9062 0
L45.9062 32.7188
Q45.9062 40.4844 42.875 44.3281
Q39.8438 48.1875 33.7969 48.1875
Q26.5156 48.1875 22.3125 43.5469
Q18.1094 38.9219 18.1094 30.9062
L18.1094 0
L9.07812 0
L9.07812 54.6875
L18.1094 54.6875
L18.1094 46.1875
Q21.3438 51.125 25.7031 53.5625
Q30.0781 56 35.7969 56
Q45.2188 56 50.0469 50.1719
Q54.8906 44.3438 54.8906 33.0156" id="DejaVuSans-6e"/>
      <path d="
M9.42188 75.9844
L18.4062 75.9844
L18.4062 0
L9.42188 0
z
" id="DejaVuSans-6c"/>
      <path d="
M32.1719 -5.07812
Q28.375 -14.8438 24.75 -17.8125
Q21.1406 -20.7969 15.0938 -20.7969
L7.90625 -20.7969
L7.90625 -13.2812
L13.1875 -13.2812
Q16.8906 -13.2812 18.9375 -11.5156
Q21 -9.76562 23.4844 -3.21875
L25.0938 0.875
L2.98438 54.6875
L12.5 54.6875
L29.5938 11.9219
L46.6875 54.6875
L56.2031 54.6875
z
" id="DejaVuSans-79"/>
      <path d="
M54.8906 33.0156
L54.8906 0
L45.9062 0
L45.9062 32.7188
Q45.9062 40.4844 42.875 44.3281
Q39.8438 48.1875 33.7969 48.1875
Q26.5156 48.1875 22.3125 43.5469
Q18.1094 38.9219 18.1094 30.9062
L18.1094 0
L9.07812 0
L9.07812 75.9844
L18.1094 75.9844
L18.1094 46.1875
Q21.3438 51.125 25.7031 53.5625
Q30.0781 56 35.7969 56
Q45.2188 56 50.0469 50.1719
Q54.8906 44.3438 54.8906 33.0156" id="DejaVuSans-68"/>
      <path d="
M9.42188 54.6875
L18.4062 54.6875
L18.4062 0
L9.42188 0
z

M9.42188 75.9844
L18.4062 75.9844
L18.4062 64.5938
L9.42188 64.5938
z
" id="DejaVuSans-69"/>
      <path d="
M18.3125 70.2188
L18.3125 54.6875
L36.8125 54.6875
L36.8125 47.7031
L18.3125 47.7031
L18.3125 18.0156
Q18.3125 11.3281 20.1406 9.42188
Q21.9688 7.51562 27.5938 7.51562
L36.8125 7.51562
L36.8125 0
L27.5938 0
Q17.1875 0 13.2344 3.875
Q9.28125 7.76562 9.28125 18.0156
L9.28125 47.7031
L2.6875 47.7031
L2.6875 54.6875
L9.28125 54.6875
L9.28125 70.2188
z
" id="DejaVuSans-74"/>
      <path d="
M56.2031 29.5938
L56.2031 25.2031
L14.8906 25.2031
Q15.4844 15.9219 20.4844 11.0625
Q25.4844 6.20312 34.4219 6.20312
Q39.5938 6.20312 44.4531 7.46875
Q49.3125 8.73438 54.1094 11.2812
L54.1094 2.78125
Q49.2656 0.734375 44.1875 -0.34375
Q39.1094 -1.42188 33.8906 -1.42188
Q20.7969 -1.42188 13.1562 6.1875
Q5.51562 13.8125 5.51562 26.8125
Q5.51562 40.2344 12.7656 48.1094
Q20.0156 56 32.3281 56
Q43.3594 56 49.7812 48.8906
Q56.2031 41.7969 56.2031 29.5938
M47.2188 32.2344
Q47.125 39.5938 43.0938 43.9844
Q39.0625 48.3906 32.4219 48.3906
Q24.9062 48.3906 20.3906 44.1406
Q15.875 39.8906 15.1875 32.1719
z
" id="DejaVuSans-65"/>
      <path d="
M34.2812 27.4844
Q23.3906 27.4844 19.1875 25
Q14.9844 22.5156 14.9844 16.5
Q14.9844 11.7188 18.1406 8.90625
Q21.2969 6.10938 26.7031 6.10938
Q34.1875 6.10938 38.7031 11.4062
Q43.2188 16.7031 43.2188 25.4844
L43.2188 27.4844
z

M52.2031 31.2031
L52.2031 0
L43.2188 0
L43.2188 8.29688
Q40.1406 3.32812 35.5469 0.953125
Q30.9531 -1.42188 24.3125 -1.42188
Q15.9219 -1.42188 10.9531 3.29688
Q6 8.01562 6 15.9219
Q6 25.1406 12.1719 29.8281
Q18.3594 34.5156 30.6094 34.5156
L43.2188 34.5156
L43.2188 35.4062
Q43.2188 41.6094 39.1406 45
Q35.0625 48.3906 27.6875 48.3906
Q23 48.3906 18.5469 47.2656
Q14.1094 46.1406 10.0156 43.8906
L10.0156 52.2031
Q14.9375 54.1094 19.5781 55.0469
Q24.2188 56 28.6094 56
Q40.4844 56 46.3438 49.8438
Q52.2031 43.7031 52.2031 31.2031" id="DejaVuSans-61"/>
     </defs>
     <g transform="translate(75.714375 217.149801136)rotate(-90.0)scale(0.12 -0.12)">
      <use xlink:href="#DejaVuSans-4d"/>
      <use x="86.279296875" xlink:href="#DejaVuSans-65"/>
      <use x="147.802734375" xlink:href="#DejaVuSans-74"/>
      <use x="187.01171875" xlink:href="#DejaVuSans-68"/>
      <use x="250.390625" xlink:href="#DejaVuSans-79"/>
      <use x="309.5703125" xlink:href="#DejaVuSans-6c"/>
      <use x="337.353515625" xlink:href="#DejaVuSans-61"/>
      <use x="398.6328125" xlink:href="#DejaVuSans-74"/>
      <use x="437.841796875" xlink:href="#DejaVuSans-69"/>
      <use x="465.625" xlink:href="#DejaVuSans-6f"/>
      <use x="526.806640625" xlink:href="#DejaVuSans-6e"/>
     </g>
    </g>
   </g>
  </g>
  <g id="axes_2">
   <g id="patch_24">
    <path d="
M108 388.8
L777.6 388.8
L777.6 353.891
L108 353.891
z
" style="fill:#ffffff;"/>
   </g>
   <g id="line2d_21">
    <path clip-path="url(#pc82b1f09f0)" d="
M108 371.345
L777.6 371.345" style="fill:none;stroke:#000000;stroke-linecap:square;"/>
   </g>
   <g id="line2d_22">
    <path clip-path="url(#pc82b1f09f0)" d="
M122.452 371.345
L763.148 371.345" style="fill:none;stroke:#008000;stroke-linecap:square;stroke-width:3;"/>
   </g>
   <g id="patch_25">
    <path clip-path="url(#pc82b1f09f0)" d="
M122.452 388.8
L129.504 388.8
L129.504 353.891
L122.452 353.891
z
" style="fill:#008000;"/>
   </g>
   <g id="patch_26">
    <path clip-path="url(#pc82b1f09f0)" d="
M252.386 388.8
L254.727 388.8
L254.727 353.891
L252.386 353.891
z
" style="fill:#008000;"/>
   </g>
   <g id="patch_27">
    <path clip-path="url(#pc82b1f09f0)" d="
M267.488 388.8
L269.959 388.8
L269.959 353.891
L267.488 353.891
z
" style="fill:#008000;"/>
   </g>
   <g id="patch_28">
    <path clip-path="url(#pc82b1f09f0)" d="
M326.233 388.8
L326.956 388.8
L326.956 353.891
L326.233 353.891
z
" style="fill:#008000;"/>
   </g>
   <g id="patch_29">
    <path clip-path="url(#pc82b1f09f0)" d="
M331.783 388.8
L332.982 388.8
L332.982 353.891
L331.783 353.891
z
" style="fill:#008000;"/>
   </g>
   <g id="patch_30">
    <path clip-path="url(#pc82b1f09f0)" d="
M402.133 388.8
L403.593 388.8
L403.593 353.891
L402.133 353.891
z
" style="fill:#008000;"/>
   </g>
   <g id="patch_31">
    <path clip-path="url(#pc82b1f09f0)" d="
M425.227 388.8
L425.993 388.8
L425.993 353.891
L425.227 353.891
z
" style="fill:#008000;"/>
   </g>
   <g id="patch_32">
    <path clip-path="url(#pc82b1f09f0)" d="
M489.479 388.8
L490.418 388.8
L490.418 353.891
L489.479 353.891
z
" style="fill:#008000;"/>
   </g>
   <g id="patch_33">
    <path clip-path="url(#pc82b1f09f0)" d="
M552.488 388.8
L553.991 388.8
L553.991 353.891
L552.488 353.891
z
" style="fill:#008000;"/>
   </g>
   <g id="patch_34">
    <path clip-path="url(#pc82b1f09f0)" d="
M581.651 388.8
L583.703 388.8
L583.703 353.891
L581.651 353.891
z
" style="fill:#008000;"/>
   </g>
   <g id="patch_35">
    <path clip-path="url(#pc82b1f09f0)" d="
M626.176 388.8
L626.855 388.8
L626.855 353.891
L626.176 353.891
z
" style="fill:#008000;"/>
   </g>
   <g id="patch_36">
    <path clip-path="url(#pc82b1f09f0)" d="
M658.909 388.8
L659.502 388.8
L659.502 353.891
L658.909 353.891
z
" style="fill:#008000;"/>
   </g>
   <g id="patch_37">
    <path clip-path="url(#pc82b1f09f0)" d="
M715.4 388.8
L717.062 388.8
L717.062 353.891
L715.4 353.891
z
" style="fill:#008000;"/>
   </g>
   <g id="patch_38">
    <path clip-path="url(#pc82b1f09f0)" d="
M727.092 388.8
L728.609 388.8
L728.609 353.891
L727.092 353.891
z
" style="fill:#008000;"/>
   </g>
   <g id="patch_39">
    <path clip-path="url(#pc82b1f09f0)" d="
M732.771 388.8
L733.884 388.8
L733.884 353.891
L732.771 353.891
z
" style="fill:#008000;"/>
   </g>
   <g id="patch_40">
    <path clip-path="url(#pc82b1f09f0)" d="
M736.644 388.8
L738.711 388.8
L738.711 353.891
L736.644 353.891
z
" style="fill:#008000;"/>
   </g>
   <g id="patch_41">
    <path clip-path="url(#pc82b1f09f0)" d="
M756.602 388.8
L763.148 388.8
L763.148 353.891
L756.602 353.891
z
" style="fill:#008000;"/>
   </g>
   <g id="patch_42">
    <path d="
M108 353.891
L777.6 353.891" style="fill:none;"/>
   </g>
   <g id="patch_43">
    <path d="
M777.6 388.8
L777.6 353.891" style="fill:none;"/>
   </g>
   <g id="patch_44">
    <path d="
M108 388.8
L777.6 388.8" style="fill:none;"/>
   </g>
   <g id="patch_45">
    <path d="
M108 388.8
L108 353.891" style="fill:none;"/>
   </g>
   <g id="matplotlib.axis_2">
    <g id="xtick_1">
     <g id="line2d_23">
      <defs>
       <path d="
M0 0
L0 -4" id="m93b0483c22" style="stroke:#000000;stroke-width:0.5;"/>
      </defs>
      <g>
       <use style="stroke:#000000;stroke-width:0.5;" x="112.292122416" xlink:href="#m93b0483c22" y="388.8"/>
      </g>
     </g>
     <g id="line2d_24">
      <defs>
       <path d="
M0 0
L0 4" id="m741efc42ff" style="stroke:#000000;stroke-width:0.5;"/>
      </defs>
      <g>
       <use style="stroke:#000000;stroke-width:0.5;" x="112.292122416" xlink:href="#m741efc42ff" y="353.890909091"/>
      </g>
     </g>
     <g id="text_8">
      <!-- 1000 -->
      <g transform="translate(98.0796224157 401.918125)scale(0.12 -0.12)">
       <use xlink:href="#DejaVuSans-31"/>
       <use x="63.623046875" xlink:href="#DejaVuSans-30"/>
       <use x="127.24609375" xlink:href="#DejaVuSans-30"/>
       <use x="190.869140625" xlink:href="#DejaVuSans-30"/>
      </g>
     </g>
    </g>
    <g id="xtick_2">
     <g id="line2d_25">
      <g>
       <use style="stroke:#000000;stroke-width:0.5;" x="256.808028662" xlink:href="#m93b0483c22" y="388.8"/>
      </g>
     </g>
     <g id="line2d_26">
      <g>
       <use style="stroke:#000000;stroke-width:0.5;" x="256.808028662" xlink:href="#m741efc42ff" y="353.890909091"/>
      </g>
     </g>
     <g id="text_9">
      <!-- 2000 -->
      <g transform="translate(242.376153662 401.918125)scale(0.12 -0.12)">
       <use xlink:href="#DejaVuSans-32"/>
       <use x="63.623046875" xlink:href="#DejaVuSans-30"/>
       <use x="127.24609375" xlink:href="#DejaVuSans-30"/>
       <use x="190.869140625" xlink:href="#DejaVuSans-30"/>
      </g>
     </g>
    </g>
    <g id="xtick_3">
     <g id="line2d_27">
      <g>
       <use style="stroke:#000000;stroke-width:0.5;" x="401.323934908" xlink:href="#m93b0483c22" y="388.8"/>
      </g>
     </g>
     <g id="line2d_28">
      <g>
       <use style="stroke:#000000;stroke-width:0.5;" x="401.323934908" xlink:href="#m741efc42ff" y="353.890909091"/>
      </g>
     </g>
     <g id="text_10">
      <!-- 3000 -->
      <defs>
       <path d="
M40.5781 39.3125
Q47.6562 37.7969 51.625 33
Q55.6094 28.2188 55.6094 21.1875
Q55.6094 10.4062 48.1875 4.48438
Q40.7656 -1.42188 27.0938 -1.42188
Q22.5156 -1.42188 17.6562 -0.515625
Q12.7969 0.390625 7.625 2.20312
L7.625 11.7188
Q11.7188 9.32812 16.5938 8.10938
Q21.4844 6.89062 26.8125 6.89062
Q36.0781 6.89062 40.9375 10.5469
Q45.7969 14.2031 45.7969 21.1875
Q45.7969 27.6406 41.2812 31.2656
Q36.7656 34.9062 28.7188 34.9062
L20.2188 34.9062
L20.2188 43.0156
L29.1094 43.0156
Q36.375 43.0156 40.2344 45.9219
Q44.0938 48.8281 44.0938 54.2969
Q44.0938 59.9062 40.1094 62.9062
Q36.1406 65.9219 28.7188 65.9219
Q24.6562 65.9219 20.0156 65.0312
Q15.375 64.1562 9.8125 62.3125
L9.8125 71.0938
Q15.4375 72.6562 20.3438 73.4375
Q25.25 74.2188 29.5938 74.2188
Q40.8281 74.2188 47.3594 69.1094
Q53.9062 64.0156 53.9062 55.3281
Q53.9062 49.2656 50.4375 45.0938
Q46.9688 40.9219 40.5781 39.3125" id="DejaVuSans-33"/>
      </defs>
      <g transform="translate(386.909872408 401.918125)scale(0.12 -0.12)">
       <use xlink:href="#DejaVuSans-33"/>
       <use x="63.623046875" xlink:href="#DejaVuSans-30"/>
       <use x="127.24609375" xlink:href="#DejaVuSans-30"/>
       <use x="190.869140625" xlink:href="#DejaVuSans-30"/>
      </g>
     </g>
    </g>
    <g id="xtick_4">
     <g id="line2d_29">
      <g>
       <use style="stroke:#000000;stroke-width:0.5;" x="545.839841153" xlink:href="#m93b0483c22" y="388.8"/>
      </g>
     </g>
     <g id="line2d_30">
      <g>
       <use style="stroke:#000000;stroke-width:0.5;" x="545.839841153" xlink:href="#m741efc42ff" y="353.890909091"/>
      </g>
     </g>
     <g id="text_11">
      <!-- 4000 -->
      <g transform="translate(531.261716153 401.918125)scale(0.12 -0.12)">
       <use xlink:href="#DejaVuSans-34"/>
       <use x="63.623046875" xlink:href="#DejaVuSans-30"/>
       <use x="127.24609375" xlink:href="#DejaVuSans-30"/>
       <use x="190.869140625" xlink:href="#DejaVuSans-30"/>
      </g>
     </g>
    </g>
    <g id="xtick_5">
     <g id="line2d_31">
      <g>
       <use style="stroke:#000000;stroke-width:0.5;" x="690.355747399" xlink:href="#m93b0483c22" y="388.8"/>
      </g>
     </g>
     <g id="line2d_32">
      <g>
       <use style="stroke:#000000;stroke-width:0.5;" x="690.355747399" xlink:href="#m741efc42ff" y="353.890909091"/>
      </g>
     </g>
     <g id="text_12">
      <!-- 5000 -->
      <defs>
       <path d="
M10.7969 72.9062
L49.5156 72.9062
L49.5156 64.5938
L19.8281 64.5938
L19.8281 46.7344
Q21.9688 47.4688 24.1094 47.8281
Q26.2656 48.1875 28.4219 48.1875
Q40.625 48.1875 47.75 41.5
Q54.8906 34.8125 54.8906 23.3906
Q54.8906 11.625 47.5625 5.09375
Q40.2344 -1.42188 26.9062 -1.42188
Q22.3125 -1.42188 17.5469 -0.640625
Q12.7969 0.140625 7.71875 1.70312
L7.71875 11.625
Q12.1094 9.23438 16.7969 8.0625
Q21.4844 6.89062 26.7031 6.89062
Q35.1562 6.89062 40.0781 11.3281
Q45.0156 15.7656 45.0156 23.3906
Q45.0156 31 40.0781 35.4375
Q35.1562 39.8906 26.7031 39.8906
Q22.75 39.8906 18.8125 39.0156
Q14.8906 38.1406 10.7969 36.2812
z
" id="DejaVuSans-35"/>
      </defs>
      <g transform="translate(675.947309899 401.918125)scale(0.12 -0.12)">
       <use xlink:href="#DejaVuSans-35"/>
       <use x="63.623046875" xlink:href="#DejaVuSans-30"/>
       <use x="127.24609375" xlink:href="#DejaVuSans-30"/>
       <use x="190.869140625" xlink:href="#DejaVuSans-30"/>
      </g>
     </g>
    </g>
    <g id="text_13">
     <!-- Length (bp) -->
     <defs>
      <path d="
M9.8125 72.9062
L19.6719 72.9062
L19.6719 8.29688
L55.1719 8.29688
L55.1719 0
L9.8125 0
z
" id="DejaVuSans-4c"/>
      <path id="DejaVuSans-20"/>
      <path d="
M45.4062 27.9844
Q45.4062 37.75 41.375 43.1094
Q37.3594 48.4844 30.0781 48.4844
Q22.8594 48.4844 18.8281 43.1094
Q14.7969 37.75 14.7969 27.9844
Q14.7969 18.2656 18.8281 12.8906
Q22.8594 7.51562 30.0781 7.51562
Q37.3594 7.51562 41.375 12.8906
Q45.4062 18.2656 45.4062 27.9844
M54.3906 6.78125
Q54.3906 -7.17188 48.1875 -13.9844
Q42 -20.7969 29.2031 -20.7969
Q24.4688 -20.7969 20.2656 -20.0938
Q16.0625 -19.3906 12.1094 -17.9219
L12.1094 -9.1875
Q16.0625 -11.3281 19.9219 -12.3438
Q23.7812 -13.375 27.7812 -13.375
Q36.625 -13.375 41.0156 -8.76562
Q45.4062 -4.15625 45.4062 5.17188
L45.4062 9.625
Q42.625 4.78125 38.2812 2.39062
Q33.9375 0 27.875 0
Q17.8281 0 11.6719 7.65625
Q5.51562 15.3281 5.51562 27.9844
Q5.51562 40.6719 11.6719 48.3281
Q17.8281 56 27.875 56
Q33.9375 56 38.2812 53.6094
Q42.625 51.2188 45.4062 46.3906
L45.4062 54.6875
L54.3906 54.6875
z
" id="DejaVuSans-67"/>
      <path d="
M31 75.875
Q24.4688 64.6562 21.2812 53.6562
Q18.1094 42.6719 18.1094 31.3906
Q18.1094 20.125 21.3125 9.0625
Q24.5156 -2 31 -13.1875
L23.1875 -13.1875
Q15.875 -1.70312 12.2344 9.375
Q8.59375 20.4531 8.59375 31.3906
Q8.59375 42.2812 12.2031 53.3125
Q15.8281 64.3594 23.1875 75.875
z
" id="DejaVuSans-28"/>
      <path d="
M8.01562 75.875
L15.8281 75.875
Q23.1406 64.3594 26.7812 53.3125
Q30.4219 42.2812 30.4219 31.3906
Q30.4219 20.4531 26.7812 9.375
Q23.1406 -1.70312 15.8281 -13.1875
L8.01562 -13.1875
Q14.5 -2 17.7031 9.0625
Q20.9062 20.125 20.9062 31.3906
Q20.9062 42.6719 17.7031 53.6562
Q14.5 64.6562 8.01562 75.875" id="DejaVuSans-29"/>
      <path d="
M48.6875 27.2969
Q48.6875 37.2031 44.6094 42.8438
Q40.5312 48.4844 33.4062 48.4844
Q26.2656 48.4844 22.1875 42.8438
Q18.1094 37.2031 18.1094 27.2969
Q18.1094 17.3906 22.1875 11.75
Q26.2656 6.10938 33.4062 6.10938
Q40.5312 6.10938 44.6094 11.75
Q48.6875 17.3906 48.6875 27.2969
M18.1094 46.3906
Q20.9531 51.2656 25.2656 53.625
Q29.5938 56 35.5938 56
Q45.5625 56 51.7812 48.0938
Q58.0156 40.1875 58.0156 27.2969
Q58.0156 14.4062 51.7812 6.48438
Q45.5625 -1.42188 35.5938 -1.42188
Q29.5938 -1.42188 25.2656 0.953125
Q20.9531 3.32812 18.1094 8.20312
L18.1094 0
L9.07812 0
L9.07812 75.9844
L18.1094 75.9844
z
" id="DejaVuSans-62"/>
      <path d="
M18.1094 8.20312
L18.1094 -20.7969
L9.07812 -20.7969
L9.07812 54.6875
L18.1094 54.6875
L18.1094 46.3906
Q20.9531 51.2656 25.2656 53.625
Q29.5938 56 35.5938 56
Q45.5625 56 51.7812 48.0938
Q58.0156 40.1875 58.0156 27.2969
Q58.0156 14.4062 51.7812 6.48438
Q45.5625 -1.42188 35.5938 -1.42188
Q29.5938 -1.42188 25.2656 0.953125
Q20.9531 3.32812 18.1094 8.20312
M48.6875 27.2969
Q48.6875 37.2031 44.6094 42.8438
Q40.5312 48.4844 33.4062 48.4844
Q26.2656 48.4844 22.1875 42.8438
Q18.1094 37.2031 18.1094 27.2969
Q18.1094 17.3906 22.1875 11.75
Q26.2656 6.10938 33.4062 6.10938
Q40.5312 6.10938 44.6094 11.75
Q48.6875 17.3906 48.6875 27.2969" id="DejaVuSans-70"/>
     </defs>
     <g transform="translate(408.4125 418.531875)scale(0.12 -0.12)">
      <use xlink:href="#DejaVuSans-4c"/>
      <use x="53.962890625" xlink:href="#DejaVuSans-65"/>
      <use x="115.486328125" xlink:href="#DejaVuSans-6e"/>
      <use x="178.865234375" xlink:href="#DejaVuSans-67"/>
      <use x="242.341796875" xlink:href="#DejaVuSans-74"/>
      <use x="281.55078125" xlink:href="#DejaVuSans-68"/>
      <use x="344.9296875" xlink:href="#DejaVuSans-20"/>
      <use x="376.716796875" xlink:href="#DejaVuSans-28"/>
      <use x="415.73046875" xlink:href="#DejaVuSans-62"/>
      <use x="479.20703125" xlink:href="#DejaVuSans-70"/>
      <use x="542.68359375" xlink:href="#DejaVuSans-29"/>
     </g>
     <!-- chr1:85600703-85645037 -->
     <defs>
      <path d="
M11.7188 12.4062
L22.0156 12.4062
L22.0156 0
L11.7188 0
z

M11.7188 51.7031
L22.0156 51.7031
L22.0156 39.3125
L11.7188 39.3125
z
" id="DejaVuSans-3a"/>
      <path d="
M4.89062 31.3906
L31.2031 31.3906
L31.2031 23.3906
L4.89062 23.3906
z
" id="DejaVuSans-2d"/>
      <path d="
M48.7812 52.5938
L48.7812 44.1875
Q44.9688 46.2969 41.1406 47.3438
Q37.3125 48.3906 33.4062 48.3906
Q24.6562 48.3906 19.8125 42.8438
Q14.9844 37.3125 14.9844 27.2969
Q14.9844 17.2812 19.8125 11.7344
Q24.6562 6.20312 33.4062 6.20312
Q37.3125 6.20312 41.1406 7.25
Q44.9688 8.29688 48.7812 10.4062
L48.7812 2.09375
Q45.0156 0.34375 40.9844 -0.53125
Q36.9688 -1.42188 32.4219 -1.42188
Q20.0625 -1.42188 12.7812 6.34375
Q5.51562 14.1094 5.51562 27.2969
Q5.51562 40.6719 12.8594 48.3281
Q20.2188 56 33.0156 56
Q37.1562 56 41.1094 55.1406
Q45.0625 54.2969 48.7812 52.5938" id="DejaVuSans-63"/>
      <path d="
M8.20312 72.9062
L55.0781 72.9062
L55.0781 68.7031
L28.6094 0
L18.3125 0
L43.2188 64.5938
L8.20312 64.5938
z
" id="DejaVuSans-37"/>
      <path d="
M41.1094 46.2969
Q39.5938 47.1719 37.8125 47.5781
Q36.0312 48 33.8906 48
Q26.2656 48 22.1875 43.0469
Q18.1094 38.0938 18.1094 28.8125
L18.1094 0
L9.07812 0
L9.07812 54.6875
L18.1094 54.6875
L18.1094 46.1875
Q20.9531 51.1719 25.4844 53.5781
Q30.0312 56 36.5312 56
Q37.4531 56 38.5781 55.875
Q39.7031 55.7656 41.0625 55.5156
z
" id="DejaVuSans-72"/>
     </defs>
     <g transform="translate(364.9921875 431.96925)scale(0.12 -0.12)">
      <use xlink:href="#DejaVuSans-63"/>
      <use x="54.98046875" xlink:href="#DejaVuSans-68"/>
      <use x="118.359375" xlink:href="#DejaVuSans-72"/>
      <use x="159.47265625" xlink:href="#DejaVuSans-31"/>
      <use x="223.095703125" xlink:href="#DejaVuSans-3a"/>
      <use x="256.787109375" xlink:href="#DejaVuSans-38"/>
      <use x="320.41015625" xlink:href="#DejaVuSans-35"/>
      <use x="384.033203125" xlink:href="#DejaVuSans-36"/>
      <use x="447.65625" xlink:href="#DejaVuSans-30"/>
      <use x="511.279296875" xlink:href="#DejaVuSans-30"/>
      <use x="574.90234375" xlink:href="#DejaVuSans-37"/>
      <use x="638.525390625" xlink:href="#DejaVuSans-30"/>
      <use x="702.1484375" xlink:href="#DejaVuSans-33"/>
      <use x="765.771484375" xlink:href="#DejaVuSans-2d"/>
      <use x="801.85546875" xlink:href="#DejaVuSans-38"/>
      <use x="865.478515625" xlink:href="#DejaVuSans-35"/>
      <use x="929.1015625" xlink:href="#DejaVuSans-36"/>
      <use x="992.724609375" xlink:href="#DejaVuSans-34"/>
      <use x="1056.34765625" xlink:href="#DejaVuSans-35"/>
      <use x="1119.97070312" xlink:href="#DejaVuSans-30"/>
      <use x="1183.59375" xlink:href="#DejaVuSans-33"/>
      <use x="1247.21679688" xlink:href="#DejaVuSans-37"/>
     </g>
    </g>
   </g>
  </g>
  <g id="text_14">
   <!-- ENSMUST00000080204 (Sp140) -->
   <defs>
    <path d="
M53.5156 70.5156
L53.5156 60.8906
Q47.9062 63.5781 42.9219 64.8906
Q37.9375 66.2188 33.2969 66.2188
Q25.25 66.2188 20.875 63.0938
Q16.5 59.9688 16.5 54.2031
Q16.5 49.3594 19.4062 46.8906
Q22.3125 44.4375 30.4219 42.9219
L36.375 41.7031
Q47.4062 39.5938 52.6562 34.2969
Q57.9062 29 57.9062 20.125
Q57.9062 9.51562 50.7969 4.04688
Q43.7031 -1.42188 29.9844 -1.42188
Q24.8125 -1.42188 18.9688 -0.25
Q13.1406 0.921875 6.89062 3.21875
L6.89062 13.375
Q12.8906 10.0156 18.6562 8.29688
Q24.4219 6.59375 29.9844 6.59375
Q38.4219 6.59375 43.0156 9.90625
Q47.6094 13.2344 47.6094 19.3906
Q47.6094 24.75 44.3125 27.7812
Q41.0156 30.8125 33.5 32.3281
L27.4844 33.5
Q16.4531 35.6875 11.5156 40.375
Q6.59375 45.0625 6.59375 53.4219
Q6.59375 63.0938 13.4062 68.6562
Q20.2188 74.2188 32.1719 74.2188
Q37.3125 74.2188 42.625 73.2812
Q47.9531 72.3594 53.5156 70.5156" id="DejaVuSans-53"/>
    <path d="
M9.8125 72.9062
L55.9062 72.9062
L55.9062 64.5938
L19.6719 64.5938
L19.6719 43.0156
L54.3906 43.0156
L54.3906 34.7188
L19.6719 34.7188
L19.6719 8.29688
L56.7812 8.29688
L56.7812 0
L9.8125 0
z
" id="DejaVuSans-45"/>
    <path d="
M-0.296875 72.9062
L61.375 72.9062
L61.375 64.5938
L35.5 64.5938
L35.5 0
L25.5938 0
L25.5938 64.5938
L-0.296875 64.5938
z
" id="DejaVuSans-54"/>
    <path d="
M8.6875 72.9062
L18.6094 72.9062
L18.6094 28.6094
Q18.6094 16.8906 22.8438 11.7344
Q27.0938 6.59375 36.625 6.59375
Q46.0938 6.59375 50.3438 11.7344
Q54.5938 16.8906 54.5938 28.6094
L54.5938 72.9062
L64.5 72.9062
L64.5 27.3906
Q64.5 13.1406 57.4375 5.85938
Q50.3906 -1.42188 36.625 -1.42188
Q22.7969 -1.42188 15.7344 5.85938
Q8.6875 13.1406 8.6875 27.3906
z
" id="DejaVuSans-55"/>
    <path d="
M9.8125 72.9062
L23.0938 72.9062
L55.4219 11.9219
L55.4219 72.9062
L64.9844 72.9062
L64.9844 0
L51.7031 0
L19.3906 60.9844
L19.3906 0
L9.8125 0
z
" id="DejaVuSans-4e"/>
   </defs>
   <g transform="translate(335.7328125 17.758125)scale(0.12 -0.12)">
    <use xlink:href="#DejaVuSans-45"/>
    <use x="63.18359375" xlink:href="#DejaVuSans-4e"/>
    <use x="137.98828125" xlink:href="#DejaVuSans-53"/>
    <use x="201.46484375" xlink:href="#DejaVuSans-4d"/>
    <use x="287.744140625" xlink:href="#DejaVuSans-55"/>
    <use x="360.9375" xlink:href="#DejaVuSans-53"/>
    <use x="424.4140625" xlink:href="#DejaVuSans-54"/>
    <use x="485.498046875" xlink:href="#DejaVuSans-30"/>
    <use x="549.12109375" xlink:href="#DejaVuSans-30"/>
    <use x="612.744140625" xlink:href="#DejaVuSans-30"/>
    <use x="676.3671875" xlink:href="#DejaVuSans-30"/>
    <use x="739.990234375" xlink:href="#DejaVuSans-30"/>
    <use x="803.61328125" xlink:href="#DejaVuSans-30"/>
    <use x="867.236328125" xlink:href="#DejaVuSans-38"/>
    <use x="930.859375" xlink:href="#DejaVuSans-30"/>
    <use x="994.482421875" xlink:href="#DejaVuSans-32"/>
    <use x="1058.10546875" xlink:href="#DejaVuSans-30"/>
    <use x="1121.72851562" xlink:href="#DejaVuSans-34"/>
    <use x="1185.3515625" xlink:href="#DejaVuSans-20"/>
    <use x="1217.13867188" xlink:href="#DejaVuSans-28"/>
    <use x="1256.15234375" xlink:href="#DejaVuSans-53"/>
    <use x="1319.62890625" xlink:href="#DejaVuSans-70"/>
    <use x="1383.10546875" xlink:href="#DejaVuSans-31"/>
    <use x="1446.72851562" xlink:href="#DejaVuSans-34"/>
    <use x="1510.3515625" xlink:href="#DejaVuSans-30"/>
    <use x="1573.97460938" xlink:href="#DejaVuSans-29"/>
   </g>
  </g>
 </g>
 <defs>
  <clipPath id="p9fd4257182">
   <rect height="279.272727273" width="669.6" x="108.0" y="43.2"/>
  </clipPath>
  <clipPath id="pc82b1f09f0">
   <rect height="34.9090909091" width="669.6" x="108.0" y="353.890909091"/>
  </clipPath>
 </defs>
</svg>
