<?xml version="1.0" encoding="utf-8" standalone="no"?>
<!DOCTYPE svg PUBLIC "-//W3C//DTD SVG 1.1//EN"
  "http://www.w3.org/Graphics/SVG/1.1/DTD/svg11.dtd">
<!-- Created with matplotlib (http://matplotlib.org/) -->
<svg height="432pt" version="1.1" viewBox="0 0 864 432" width="864pt" xmlns="http://www.w3.org/2000/svg" xmlns:xlink="http://www.w3.org/1999/xlink">
 <defs>
  <style type="text/css">
*{stroke-linecap:butt;stroke-linejoin:round;}
  </style>
 </defs>
 <g id="figure_1">
  <g id="patch_1">
   <path d="
M0 432
L864 432
L864 0
L0 0
z
" style="fill:#ffffff;"/>
  </g>
  <g id="axes_1">
   <g id="patch_2">
    <path d="
M108 322.473
L777.6 322.473
L777.6 43.2
L108 43.2
z
" style="fill:#ffffff;"/>
   </g>
   <g id="patch_3">
    <path clip-path="url(#p9fd4257182)" d="
M193.857 322.473
L199.438 322.473
L199.438 43.2
L193.857 43.2
z
" style="fill:#008000;opacity:0.2;"/>
   </g>
   <g id="patch_4">
    <path clip-path="url(#p9fd4257182)" d="
M499.766 322.473
L512.473 322.473
L512.473 43.2
L499.766 43.2
z
" style="fill:#008000;opacity:0.2;"/>
   </g>
   <g id="patch_5">
    <path clip-path="url(#p9fd4257182)" d="
M666.415 322.473
L691.743 322.473
L691.743 43.2
L666.415 43.2
z
" style="fill:#008000;opacity:0.2;"/>
   </g>
   <g id="line2d_1">
    <path clip-path="url(#p9fd4257182)" d="
M122.853 56.5967
L126.889 56.5727
L141.828 56.7821
L156.509 69.6208
L156.595 70.115
L163.635 170.99
L171.62 299.4
L175.57 318.879
L186.473 321.92
L189.307 321.403
L193.342 320.439
L196.004 320.197
L198.236 320.184
L213.776 321.282
L225.023 321.721
L235.326 321.921
L239.791 321.888
L242.796 321.803
L248.376 321.479
L256.619 318.587
L265.548 205.906
L265.634 203.122
L277.053 81.5467
L288.901 248.723
L308.82 151.377
L308.906 150.017
L310.451 127.552
L312.254 107.051
L316.976 79.4255
L318.092 76.672
L319.638 74.3881
L328.138 83.3782
L328.91 85.2433
L352.693 59.6687
L354.152 59.8353
L357.243 60.8479
L358.445 61.6648
L364.026 68.4211
L372.44 76.2842
L377.935 116.691
L379.223 140.318
L385.576 263.559
L389.783 275.889
L389.869 275.69
L392.187 264.14
L400.344 131.698
L408.843 69.2861
L412.965 66.062
L414.424 66.7054
L419.232 74.1072
L430.05 88.625
L433.742 92.1584
L454.691 60.368
L466.969 58.361
L479.762 57.6686
L491.095 58.44
L496.074 59.2195
L505.519 60.2491
L543.553 75.077
L549.649 78.918
L558.836 82.2649
L559.695 82.3305
L581.502 81.0754
L596.527 84.6675
L611.209 90.2963
L626.749 123.697
L645.895 105.769
L645.981 105.16
L650.789 76.3758
L656.971 63.1511
L658.688 62.3027
L663.067 62.2532
L668.733 65.533
L671.481 69.6365
L676.031 79.7924
L678.95 81.1803
L679.036 81.0745
L683.329 70.4327
L687.965 66.703
L701.702 60.901
L724.454 74.2616
L724.884 74.9123
L728.06 79.3181
L735.358 80.6908
L745.575 73.7896
L759.742 69.1681
L773.736 70.2849
L773.736 70.2849" style="fill:none;opacity:0.5;stroke:#0000ff;stroke-linecap:square;"/>
   </g>
   <g id="line2d_2">
    <path clip-path="url(#p9fd4257182)" d="
M122.853 56.5371
L126.974 56.5478
L141.828 56.7668
L156.595 60.1357
L163.635 74.4933
L171.62 267.235
L175.57 320.157
L186.473 322.074
L187.847 321.56
L188.62 321.004
L189.307 320.256
L190.337 318.532
L193.342 310.9
L193.943 310.101
L194.286 309.896
L196.089 311.517
L198.322 316.277
L204.847 321.793
L209.827 322.024
L235.326 321.947
L236.185 321.869
L239.018 321.323
L239.791 321.037
L242.796 318.433
L248.376 301.314
L256.619 285.138
L265.634 226.036
L277.053 147.614
L288.901 105.989
L308.906 75.1275
L312.254 71.4151
L318.092 65.3066
L319.638 63.8697
L328.138 57.5279
L328.825 57.3333
L352.693 57.1537
L354.152 57.9621
L357.243 63.5912
L358.445 68.2359
L364.026 87.1751
L372.44 75.5573
L377.935 98.4204
L379.223 112.286
L385.576 219.664
L389.783 245.886
L389.869 245.864
L392.187 239.653
L400.344 176.522
L408.843 87.4328
L412.965 77.7478
L414.424 76.4044
L419.232 74.2015
L430.05 72.0737
L433.742 71.5969
L454.691 67.3347
L466.969 70.3435
L479.847 73.2507
L496.074 76.4072
L505.519 76.6872
L543.553 71.8282
L549.735 70.8499
L558.836 70.9466
L559.695 71.1813
L581.588 64.8435
L596.613 57.2871
L611.209 56.9736
L626.749 58.623
L645.895 70.1902
L658.688 64.2498
L663.067 62.1838
L668.733 61.9355
L671.481 63.3417
L676.031 68.7757
L679.036 75.1971
L683.329 87.3854
L688.051 98.1949
L701.702 73.9459
L724.884 64.8168
L728.146 63.1221
L735.444 59.4733
L745.575 57.2888
L759.828 56.7961
L773.736 56.9668
L773.736 56.9668" style="fill:none;opacity:0.5;stroke:#ff0000;stroke-linecap:square;"/>
   </g>
   <g id="line2d_3">
    <path clip-path="url(#p9fd4257182)" d="
M122.853 57.9186
L126.974 57.8263
L141.742 58.8334
L156.509 66.3457
L156.595 66.6956
L163.635 142.295
L171.62 293.008
L175.57 319.384
L186.473 322.324
L197.635 322.18
L204.847 322.075
L209.827 321.895
L218.069 321.509
L221.761 321.643
L229.144 322.045
L236.185 322.099
L248.376 321.914
L256.619 319.984
L265.548 271.597
L265.634 270.118
L277.053 97.1508
L288.901 144.903
L308.906 63.8222
L310.451 60.8518
L312.254 58.9799
L316.976 57.4043
L319.638 57.3105
L328.052 65.6673
L328.825 68.8721
L328.91 69.278
L352.607 60.71
L354.067 60.8514
L357.157 61.8652
L358.359 62.738
L372.354 66.8542
L372.44 67.2474
L377.935 142.341
L379.223 170.846
L385.576 270.303
L389.783 272.851
L389.869 272.381
L392.187 252.132
L400.344 135.887
L408.843 77.775
L412.965 72.1953
L414.424 71.9026
L419.232 73.6692
L429.707 74.0567
L430.05 73.935
L433.742 72.3924
L454.691 62.2655
L479.762 64.6313
L496.074 65.1552
L505.519 65.8587
L543.553 79.9066
L549.735 80.2603
L559.695 78.156
L581.502 68.2187
L596.527 57.9758
L611.209 57.2464
L626.749 60.36
L645.895 92.787
L645.981 91.7961
L650.789 60.8258
L656.971 56.8783
L658.688 56.7814
L663.067 56.74
L671.481 56.8928
L676.031 57.3739
L679.036 58.8617
L683.329 75.894
L688.051 176.187
L701.616 181.089
L701.702 179.565
L724.454 71.9456
L724.884 71.4721
L728.146 68.7493
L735.444 67.3335
L745.575 73.7457
L759.828 79.2467
L773.736 74.3725
L773.736 74.3725" style="fill:none;opacity:0.5;stroke:#ff0000;stroke-linecap:square;"/>
   </g>
   <g id="line2d_4">
    <path clip-path="url(#p9fd4257182)" d="
M122.939 63.3019
L126.889 62.2732
L126.974 62.2518
L141.828 60.6089
L156.595 56.7941
L163.635 58.6398
L171.534 136.855
L175.57 266.27
L186.473 317.41
L188.62 317.513
L193.342 317.457
L196.089 317.754
L198.236 318.055
L204.847 318.768
L207.68 318.471
L208.367 318.203
L209.827 317.389
L213.776 314.222
L217.811 314.472
L218.069 314.757
L221.675 319.435
L221.761 319.521
L223.735 321.013
L225.023 321.562
L226.569 321.939
L229.144 322.207
L235.326 322.239
L248.376 321.946
L256.619 321.037
L265.548 220.643
L265.634 217.571
L276.967 69.2387
L288.901 94.4104
L308.82 91.822
L310.451 84.8964
L312.254 78.2536
L316.976 66.447
L318.092 64.6942
L319.638 62.7657
L328.138 57.6615
L328.91 57.5007
L352.607 66.867
L352.693 67.0884
L354.152 71.7227
L357.243 88.2067
L358.445 97.0979
L363.94 105.32
L364.026 104.682
L372.44 67.3484
L377.849 89.6584
L377.935 90.6029
L379.223 108.811
L385.576 260.679
L389.783 282.802
L389.869 282.675
L392.187 273.341
L400.344 182.17
L408.843 82.1479
L412.879 77.6892
L412.965 77.7629
L414.424 79.7735
L419.232 95.9002
L429.621 120.188
L429.707 120.141
L429.964 119.983
L433.742 115.117
L454.691 80.3645
L466.969 68.7074
L479.847 66.2648
L496.074 70.2209
L505.519 69.0365
L543.553 58.4948
L549.735 58.2679
L559.695 58.3944
L581.502 62.6883
L596.527 73.0234
L611.209 88.8071
L626.749 86.3066
L645.895 80.3215
L645.981 80.1199
L650.789 67.8323
L656.971 59.4498
L658.688 58.7407
L663.067 58.4138
L668.733 63.662
L671.481 71.81
L676.031 83.1849
L679.036 86.5628
L683.329 89.9366
L688.051 89.7675
L701.702 81.5835
L724.454 58.1231
L724.884 58.0319
L728.146 57.4998
L735.444 56.9179
L745.575 56.6098
L773.736 56.5914
L773.736 56.5914" style="fill:none;opacity:0.5;stroke:#ff0000;stroke-linecap:square;"/>
   </g>
   <g id="line2d_5">
    <path clip-path="url(#p9fd4257182)" d="
M122.853 59.9644
L126.974 59.7372
L141.828 61.8516
L156.509 84.9638
L156.595 85.8101
L163.635 192.654
L171.62 298.239
L175.57 318.781
L186.473 322.03
L189.908 321.546
L190.337 321.473
L193.342 321.236
L198.322 321.359
L204.847 321.221
L207.68 320.582
L208.367 320.228
L209.827 319.069
L213.776 312.268
L217.725 309.574
L218.069 310.244
L219.443 313.661
L221.761 318.232
L223.735 320.386
L225.023 321.162
L226.569 321.697
L229.144 322.085
L235.326 322.224
L239.791 322.192
L242.796 322.106
L248.376 321.212
L256.533 297.896
L256.619 297.274
L265.634 127.953
L276.967 100.125
L277.053 100.773
L288.901 283.018
L308.82 152.055
L308.906 149.984
L310.451 116.605
L312.254 89.4228
L316.976 62.6777
L318.092 60.808
L319.638 59.2413
L328.052 57.43
L328.825 57.4413
L352.607 84.8
L354.067 91.9314
L358.359 117.244
L363.94 109.31
L364.026 108.516
L372.354 68.6819
L372.44 68.7145
L377.935 81.4136
L379.223 88.8794
L385.576 180.251
L389.869 261.819
L392.187 281.226
L400.344 153.29
L408.843 73.0738
L412.965 69.2954
L414.424 69.0147
L419.232 70.6782
L430.05 82.3689
L433.742 87.6906
L454.691 64.679
L466.969 58.8215
L479.847 57.1903
L491.095 57.1931
L505.519 57.4646
L543.553 65.1725
L549.649 65.7911
L559.695 63.5735
L581.502 59.2925
L596.527 58.4772
L611.209 58.6747
L626.749 62.335
L645.895 90.2006
L645.981 90.0121
L650.789 78.2312
L656.971 66.577
L658.688 65.0162
L663.067 63.1575
L668.733 63.2013
L671.481 63.9362
L676.031 66.2408
L679.036 68.6251
L683.329 73.2547
L688.051 79.2951
L701.702 93.3929
L724.884 78.229
L728.146 75.487
L735.358 70.3189
L745.575 64.5394
L759.742 61.3427
L773.736 62.3697
L773.736 62.3697" style="fill:none;opacity:0.5;stroke:#0000ff;stroke-linecap:square;"/>
   </g>
   <g id="line2d_6">
    <path clip-path="url(#p9fd4257182)" d="
M122.939 56.5106
L141.828 56.515
L156.595 56.7369
L163.635 58.3442
L171.534 139.358
L175.57 257.958
L186.473 320.697
L188.62 321.3
L190.337 321.524
L194.286 321.586
L198.322 321.632
L213.776 321.969
L248.376 322.131
L256.619 321.64
L265.634 251.601
L277.053 70.3704
L288.815 79.2309
L288.901 79.4716
L308.82 87.9681
L310.451 81.5469
L312.254 75.4479
L316.976 65.0131
L318.092 63.5398
L319.638 61.9544
L328.138 57.8997
L328.91 57.7425
L352.693 58.1787
L353.809 60.284
L354.152 61.268
L357.243 80.2174
L358.445 90.7365
L363.94 100.414
L364.026 100.129
L372.44 74.901
L377.849 99.8068
L377.935 100.869
L379.223 120.558
L385.576 249.776
L389.783 256.492
L389.869 255.986
L392.187 233.639
L400.344 111.844
L408.843 76.1694
L412.965 72.1285
L414.424 71.8884
L419.232 73.4187
L430.05 73.0276
L433.742 71.97
L454.691 58.3998
L466.969 57.4258
L479.762 58.0972
L491.095 63.1918
L496.074 68.5621
L505.519 77.6417
L543.639 73.0266
L549.735 70.9567
L559.695 68.4872
L581.588 65.1804
L596.613 61.7949
L611.209 63.8003
L626.749 84.7145
L645.895 63.2552
L650.789 58.6713
L656.971 58.48
L658.688 58.8048
L663.067 59.4796
L668.733 60.6843
L671.481 62.7358
L676.031 73.001
L679.036 86.4737
L683.329 106.19
L688.051 122.255
L701.702 88.7997
L724.454 63.3038
L728.146 63.0898
L735.444 63.2795
L745.575 67.9925
L759.828 77.5413
L773.736 71.0791
L773.736 71.0791" style="fill:none;opacity:0.5;stroke:#ff0000;stroke-linecap:square;"/>
   </g>
   <g id="line2d_7">
    <path clip-path="url(#p9fd4257182)" d="
M122.853 56.9942
L126.974 56.807
L141.828 56.9604
L156.509 72.0948
L156.595 72.7052
L163.635 195.272
L171.62 305.608
L175.57 318.879
L186.473 321.751
L194.286 320.948
L198.322 321.017
L209.827 321.62
L217.811 322.02
L221.761 322.042
L233.266 321.776
L236.185 321.497
L239.018 320.725
L239.791 320.326
L242.796 316.654
L248.376 296.259
L256.619 296.901
L265.634 235.073
L276.967 213.548
L277.053 213.954
L288.901 274.007
L308.906 146.167
L310.451 125.832
L312.254 106.821
L316.976 79.3856
L318.007 76.493
L319.552 73.4945
L328.138 74.8099
L328.91 75.7917
L352.693 82.4568
L358.445 86.7676
L364.026 93.1536
L372.44 120.217
L377.935 175.718
L379.223 196.677
L385.576 271.58
L389.783 270.677
L389.869 270.269
L392.187 253.56
L400.344 149.598
L408.843 96.4566
L412.965 89.5468
L414.424 89.2633
L419.232 92.727
L429.707 93.736
L430.05 93.435
L433.742 89.1771
L454.691 60.3379
L466.969 59.1685
L479.847 60.2749
L491.095 65.0817
L496.074 69.3773
L505.519 79.2183
L543.553 80.6511
L549.735 78.2729
L558.836 74.1894
L559.695 73.6058
L581.588 64.4462
L596.527 64.7799
L611.209 68.3607
L626.749 103.472
L645.895 165.718
L645.981 165.002
L650.789 118.144
L656.971 72.3159
L658.688 66.8682
L663.067 60.3555
L668.733 57.8484
L671.481 57.3962
L676.031 57.029
L683.329 56.841
L688.051 56.8498
L701.702 57.1953
L735.444 57.2278
L745.575 56.9506
L759.828 56.9216
L773.736 58.2814
L773.736 58.2814" style="fill:none;opacity:0.5;stroke:#0000ff;stroke-linecap:square;"/>
   </g>
   <g id="line2d_8">
    <path clip-path="url(#p9fd4257182)" d="
M122.939 63.3494
L126.889 60.1059
L126.974 60.0538
L141.828 57.4468
L156.509 63.2825
L156.595 63.4442
L163.635 98.807
L171.62 239.385
L175.57 296.926
L186.473 317.15
L188.62 316.607
L189.822 316.666
L190.337 316.824
L192.741 318.648
L193.943 319.687
L194.286 319.908
L196.089 320.718
L198.322 321.236
L204.847 321.641
L213.776 321.471
L219.443 321.281
L224.594 321.694
L226.569 321.832
L229.144 321.891
L232.665 321.566
L233.266 321.41
L235.326 320.367
L236.185 319.544
L239.018 313.194
L239.791 309.891
L242.796 288.753
L248.376 259.563
L256.533 264.082
L256.619 263.884
L265.634 180.579
L276.967 193.37
L277.053 194.492
L288.901 307.742
L308.82 158.744
L308.906 156.499
L310.451 120.585
L312.254 92.0069
L316.976 64.6438
L318.092 62.7452
L319.638 61.1954
L328.825 58.1738
L352.693 56.7955
L354.152 57.3613
L357.157 65.4908
L357.243 66.117
L358.445 80.6573
L364.026 226.496
L372.44 155.474
L377.935 175.363
L379.223 187.993
L385.576 242.45
L389.783 244.84
L389.869 244.608
L392.187 233.958
L400.344 131.327
L408.843 70.3476
L412.965 66.9583
L414.424 66.7877
L419.232 67.2894
L430.05 64.751
L454.691 57.6473
L466.969 57.0501
L479.847 56.9864
L491.095 57.6251
L496.074 58.3566
L505.519 60.8487
L543.639 89.1323
L549.735 92.6908
L558.75 92.8041
L559.609 92.3532
L581.502 78.3134
L596.527 73.1678
L611.209 72.3204
L626.835 73.9373
L645.895 87.3969
L645.981 86.6806
L650.789 61.8491
L656.971 57.1727
L658.688 56.9847
L663.067 56.8247
L668.733 56.8871
L671.481 57.1094
L676.031 58.7712
L679.036 62.724
L683.329 77.567
L688.051 95.5539
L701.702 65.3569
L724.454 57.1743
L728.146 57.0333
L745.575 56.8484
L759.828 56.9553
L773.736 61.6729
L773.736 61.6729" style="fill:none;opacity:0.5;stroke:#0000ff;stroke-linecap:square;"/>
   </g>
   <g id="patch_6">
    <path d="
M108 43.2
L777.6 43.2" style="fill:none;stroke:#000000;stroke-linecap:square;stroke-linejoin:miter;"/>
   </g>
   <g id="patch_7">
    <path d="
M777.6 322.473
L777.6 43.2" style="fill:none;stroke:#000000;stroke-linecap:square;stroke-linejoin:miter;"/>
   </g>
   <g id="patch_8">
    <path d="
M108 322.473
L777.6 322.473" style="fill:none;stroke:#000000;stroke-linecap:square;stroke-linejoin:miter;"/>
   </g>
   <g id="patch_9">
    <path d="
M108 322.473
L108 43.2" style="fill:none;stroke:#000000;stroke-linecap:square;stroke-linejoin:miter;"/>
   </g>
   <g id="matplotlib.axis_1">
    <g id="ytick_1">
     <g id="line2d_9">
      <defs>
       <path d="
M0 0
L4 0" id="m728421d6d4" style="stroke:#000000;stroke-width:0.5;"/>
      </defs>
      <g>
       <use style="stroke:#000000;stroke-width:0.5;" x="108.0" xlink:href="#m728421d6d4" y="322.472727273"/>
      </g>
     </g>
     <g id="line2d_10">
      <defs>
       <path d="
M0 0
L-4 0" id="mcb0005524f" style="stroke:#000000;stroke-width:0.5;"/>
      </defs>
      <g>
       <use style="stroke:#000000;stroke-width:0.5;" x="777.6" xlink:href="#mcb0005524f" y="322.472727273"/>
      </g>
     </g>
     <g id="text_1">
      <!-- 0 -->
      <defs>
       <path d="
M31.7812 66.4062
Q24.1719 66.4062 20.3281 58.9062
Q16.5 51.4219 16.5 36.375
Q16.5 21.3906 20.3281 13.8906
Q24.1719 6.39062 31.7812 6.39062
Q39.4531 6.39062 43.2812 13.8906
Q47.125 21.3906 47.125 36.375
Q47.125 51.4219 43.2812 58.9062
Q39.4531 66.4062 31.7812 66.4062
M31.7812 74.2188
Q44.0469 74.2188 50.5156 64.5156
Q56.9844 54.8281 56.9844 36.375
Q56.9844 17.9688 50.5156 8.26562
Q44.0469 -1.42188 31.7812 -1.42188
Q19.5312 -1.42188 13.0625 8.26562
Q6.59375 17.9688 6.59375 36.375
Q6.59375 54.8281 13.0625 64.5156
Q19.5312 74.2188 31.7812 74.2188" id="DejaVuSans-30"/>
      </defs>
      <g transform="translate(97.953125 325.783977273)scale(0.12 -0.12)">
       <use xlink:href="#DejaVuSans-30"/>
      </g>
     </g>
    </g>
    <g id="ytick_2">
     <g id="line2d_11">
      <g>
       <use style="stroke:#000000;stroke-width:0.5;" x="108.0" xlink:href="#m728421d6d4" y="269.277922078"/>
      </g>
     </g>
     <g id="line2d_12">
      <g>
       <use style="stroke:#000000;stroke-width:0.5;" x="777.6" xlink:href="#mcb0005524f" y="269.277922078"/>
      </g>
     </g>
     <g id="text_2">
      <!-- 20 -->
      <defs>
       <path d="
M19.1875 8.29688
L53.6094 8.29688
L53.6094 0
L7.32812 0
L7.32812 8.29688
Q12.9375 14.1094 22.625 23.8906
Q32.3281 33.6875 34.8125 36.5312
Q39.5469 41.8438 41.4219 45.5312
Q43.3125 49.2188 43.3125 52.7812
Q43.3125 58.5938 39.2344 62.25
Q35.1562 65.9219 28.6094 65.9219
Q23.9688 65.9219 18.8125 64.3125
Q13.6719 62.7031 7.8125 59.4219
L7.8125 69.3906
Q13.7656 71.7812 18.9375 73
Q24.125 74.2188 28.4219 74.2188
Q39.75 74.2188 46.4844 68.5469
Q53.2188 62.8906 53.2188 53.4219
Q53.2188 48.9219 51.5312 44.8906
Q49.8594 40.875 45.4062 35.4062
Q44.1875 33.9844 37.6406 27.2188
Q31.1094 20.4531 19.1875 8.29688" id="DejaVuSans-32"/>
      </defs>
      <g transform="translate(90.40625 272.589172078)scale(0.12 -0.12)">
       <use xlink:href="#DejaVuSans-32"/>
       <use x="63.623046875" xlink:href="#DejaVuSans-30"/>
      </g>
     </g>
    </g>
    <g id="ytick_3">
     <g id="line2d_13">
      <g>
       <use style="stroke:#000000;stroke-width:0.5;" x="108.0" xlink:href="#m728421d6d4" y="216.083116883"/>
      </g>
     </g>
     <g id="line2d_14">
      <g>
       <use style="stroke:#000000;stroke-width:0.5;" x="777.6" xlink:href="#mcb0005524f" y="216.083116883"/>
      </g>
     </g>
     <g id="text_3">
      <!-- 40 -->
      <defs>
       <path d="
M37.7969 64.3125
L12.8906 25.3906
L37.7969 25.3906
z

M35.2031 72.9062
L47.6094 72.9062
L47.6094 25.3906
L58.0156 25.3906
L58.0156 17.1875
L47.6094 17.1875
L47.6094 0
L37.7969 0
L37.7969 17.1875
L4.89062 17.1875
L4.89062 26.7031
z
" id="DejaVuSans-34"/>
      </defs>
      <g transform="translate(90.11375 219.394366883)scale(0.12 -0.12)">
       <use xlink:href="#DejaVuSans-34"/>
       <use x="63.623046875" xlink:href="#DejaVuSans-30"/>
      </g>
     </g>
    </g>
    <g id="ytick_4">
     <g id="line2d_15">
      <g>
       <use style="stroke:#000000;stroke-width:0.5;" x="108.0" xlink:href="#m728421d6d4" y="162.888311688"/>
      </g>
     </g>
     <g id="line2d_16">
      <g>
       <use style="stroke:#000000;stroke-width:0.5;" x="777.6" xlink:href="#mcb0005524f" y="162.888311688"/>
      </g>
     </g>
     <g id="text_4">
      <!-- 60 -->
      <defs>
       <path d="
M33.0156 40.375
Q26.375 40.375 22.4844 35.8281
Q18.6094 31.2969 18.6094 23.3906
Q18.6094 15.5312 22.4844 10.9531
Q26.375 6.39062 33.0156 6.39062
Q39.6562 6.39062 43.5312 10.9531
Q47.4062 15.5312 47.4062 23.3906
Q47.4062 31.2969 43.5312 35.8281
Q39.6562 40.375 33.0156 40.375
M52.5938 71.2969
L52.5938 62.3125
Q48.875 64.0625 45.0938 64.9844
Q41.3125 65.9219 37.5938 65.9219
Q27.8281 65.9219 22.6719 59.3281
Q17.5312 52.7344 16.7969 39.4062
Q19.6719 43.6562 24.0156 45.9219
Q28.375 48.1875 33.5938 48.1875
Q44.5781 48.1875 50.9531 41.5156
Q57.3281 34.8594 57.3281 23.3906
Q57.3281 12.1562 50.6875 5.35938
Q44.0469 -1.42188 33.0156 -1.42188
Q20.3594 -1.42188 13.6719 8.26562
Q6.98438 17.9688 6.98438 36.375
Q6.98438 53.6562 15.1875 63.9375
Q23.3906 74.2188 37.2031 74.2188
Q40.9219 74.2188 44.7031 73.4844
Q48.4844 72.75 52.5938 71.2969" id="DejaVuSans-36"/>
      </defs>
      <g transform="translate(90.365 166.199561688)scale(0.12 -0.12)">
       <use xlink:href="#DejaVuSans-36"/>
       <use x="63.623046875" xlink:href="#DejaVuSans-30"/>
      </g>
     </g>
    </g>
    <g id="ytick_5">
     <g id="line2d_17">
      <g>
       <use style="stroke:#000000;stroke-width:0.5;" x="108.0" xlink:href="#m728421d6d4" y="109.693506494"/>
      </g>
     </g>
     <g id="line2d_18">
      <g>
       <use style="stroke:#000000;stroke-width:0.5;" x="777.6" xlink:href="#mcb0005524f" y="109.693506494"/>
      </g>
     </g>
     <g id="text_5">
      <!-- 80 -->
      <defs>
       <path d="
M31.7812 34.625
Q24.75 34.625 20.7188 30.8594
Q16.7031 27.0938 16.7031 20.5156
Q16.7031 13.9219 20.7188 10.1562
Q24.75 6.39062 31.7812 6.39062
Q38.8125 6.39062 42.8594 10.1719
Q46.9219 13.9688 46.9219 20.5156
Q46.9219 27.0938 42.8906 30.8594
Q38.875 34.625 31.7812 34.625
M21.9219 38.8125
Q15.5781 40.375 12.0312 44.7188
Q8.5 49.0781 8.5 55.3281
Q8.5 64.0625 14.7188 69.1406
Q20.9531 74.2188 31.7812 74.2188
Q42.6719 74.2188 48.875 69.1406
Q55.0781 64.0625 55.0781 55.3281
Q55.0781 49.0781 51.5312 44.7188
Q48 40.375 41.7031 38.8125
Q48.8281 37.1562 52.7969 32.3125
Q56.7812 27.4844 56.7812 20.5156
Q56.7812 9.90625 50.3125 4.23438
Q43.8438 -1.42188 31.7812 -1.42188
Q19.7344 -1.42188 13.25 4.23438
Q6.78125 9.90625 6.78125 20.5156
Q6.78125 27.4844 10.7812 32.3125
Q14.7969 37.1562 21.9219 38.8125
M18.3125 54.3906
Q18.3125 48.7344 21.8438 45.5625
Q25.3906 42.3906 31.7812 42.3906
Q38.1406 42.3906 41.7188 45.5625
Q45.3125 48.7344 45.3125 54.3906
Q45.3125 60.0625 41.7188 63.2344
Q38.1406 66.4062 31.7812 66.4062
Q25.3906 66.4062 21.8438 63.2344
Q18.3125 60.0625 18.3125 54.3906" id="DejaVuSans-38"/>
      </defs>
      <g transform="translate(90.340625 113.004756494)scale(0.12 -0.12)">
       <use xlink:href="#DejaVuSans-38"/>
       <use x="63.623046875" xlink:href="#DejaVuSans-30"/>
      </g>
     </g>
    </g>
    <g id="ytick_6">
     <g id="line2d_19">
      <g>
       <use style="stroke:#000000;stroke-width:0.5;" x="108.0" xlink:href="#m728421d6d4" y="56.4987012987"/>
      </g>
     </g>
     <g id="line2d_20">
      <g>
       <use style="stroke:#000000;stroke-width:0.5;" x="777.6" xlink:href="#mcb0005524f" y="56.4987012987"/>
      </g>
     </g>
     <g id="text_6">
      <!-- 100 -->
      <defs>
       <path d="
M12.4062 8.29688
L28.5156 8.29688
L28.5156 63.9219
L10.9844 60.4062
L10.9844 69.3906
L28.4219 72.9062
L38.2812 72.9062
L38.2812 8.29688
L54.3906 8.29688
L54.3906 0
L12.4062 0
z
" id="DejaVuSans-31"/>
      </defs>
      <g transform="translate(83.21 59.8099512987)scale(0.12 -0.12)">
       <use xlink:href="#DejaVuSans-31"/>
       <use x="63.623046875" xlink:href="#DejaVuSans-30"/>
       <use x="127.24609375" xlink:href="#DejaVuSans-30"/>
      </g>
     </g>
    </g>
    <g id="text_7">
     <!-- Methylation -->
     <defs>
      <path d="
M9.8125 72.9062
L24.5156 72.9062
L43.1094 23.2969
L61.8125 72.9062
L76.5156 72.9062
L76.5156 0
L66.8906 0
L66.8906 64.0156
L48.0938 14.0156
L38.1875 14.0156
L19.3906 64.0156
L19.3906 0
L9.8125 0
z
" id="DejaVuSans-4d"/>
      <path d="
M30.6094 48.3906
Q23.3906 48.3906 19.1875 42.75
Q14.9844 37.1094 14.9844 27.2969
Q14.9844 17.4844 19.1562 11.8438
Q23.3438 6.20312 30.6094 6.20312
Q37.7969 6.20312 41.9844 11.8594
Q46.1875 17.5312 46.1875 27.2969
Q46.1875 37.0156 41.9844 42.7031
Q37.7969 48.3906 30.6094 48.3906
M30.6094 56
Q42.3281 56 49.0156 48.375
Q55.7188 40.7656 55.7188 27.2969
Q55.7188 13.875 49.0156 6.21875
Q42.3281 -1.42188 30.6094 -1.42188
Q18.8438 -1.42188 12.1719 6.21875
Q5.51562 13.875 5.51562 27.2969
Q5.51562 40.7656 12.1719 48.375
Q18.8438 56 30.6094 56" id="DejaVuSans-6f"/>
      <path d="
M54.8906 33.0156
L54.8906 0
L45.9062 0
L45.9062 32.7188
Q45.9062 40.4844 42.875 44.3281
Q39.8438 48.1875 33.7969 48.1875
Q26.5156 48.1875 22.3125 43.5469
Q18.1094 38.9219 18.1094 30.9062
L18.1094 0
L9.07812 0
L9.07812 54.6875
L18.1094 54.6875
L18.1094 46.1875
Q21.3438 51.125 25.7031 53.5625
Q30.0781 56 35.7969 56
Q45.2188 56 50.0469 50.1719
Q54.8906 44.3438 54.8906 33.0156" id="DejaVuSans-6e"/>
      <path d="
M9.42188 75.9844
L18.4062 75.9844
L18.4062 0
L9.42188 0
z
" id="DejaVuSans-6c"/>
      <path d="
M32.1719 -5.07812
Q28.375 -14.8438 24.75 -17.8125
Q21.1406 -20.7969 15.0938 -20.7969
L7.90625 -20.7969
L7.90625 -13.2812
L13.1875 -13.2812
Q16.8906 -13.2812 18.9375 -11.5156
Q21 -9.76562 23.4844 -3.21875
L25.0938 0.875
L2.98438 54.6875
L12.5 54.6875
L29.5938 11.9219
L46.6875 54.6875
L56.2031 54.6875
z
" id="DejaVuSans-79"/>
      <path d="
M54.8906 33.0156
L54.8906 0
L45.9062 0
L45.9062 32.7188
Q45.9062 40.4844 42.875 44.3281
Q39.8438 48.1875 33.7969 48.1875
Q26.5156 48.1875 22.3125 43.5469
Q18.1094 38.9219 18.1094 30.9062
L18.1094 0
L9.07812 0
L9.07812 75.9844
L18.1094 75.9844
L18.1094 46.1875
Q21.3438 51.125 25.7031 53.5625
Q30.0781 56 35.7969 56
Q45.2188 56 50.0469 50.1719
Q54.8906 44.3438 54.8906 33.0156" id="DejaVuSans-68"/>
      <path d="
M9.42188 54.6875
L18.4062 54.6875
L18.4062 0
L9.42188 0
z

M9.42188 75.9844
L18.4062 75.9844
L18.4062 64.5938
L9.42188 64.5938
z
" id="DejaVuSans-69"/>
      <path d="
M18.3125 70.2188
L18.3125 54.6875
L36.8125 54.6875
L36.8125 47.7031
L18.3125 47.7031
L18.3125 18.0156
Q18.3125 11.3281 20.1406 9.42188
Q21.9688 7.51562 27.5938 7.51562
L36.8125 7.51562
L36.8125 0
L27.5938 0
Q17.1875 0 13.2344 3.875
Q9.28125 7.76562 9.28125 18.0156
L9.28125 47.7031
L2.6875 47.7031
L2.6875 54.6875
L9.28125 54.6875
L9.28125 70.2188
z
" id="DejaVuSans-74"/>
      <path d="
M56.2031 29.5938
L56.2031 25.2031
L14.8906 25.2031
Q15.4844 15.9219 20.4844 11.0625
Q25.4844 6.20312 34.4219 6.20312
Q39.5938 6.20312 44.4531 7.46875
Q49.3125 8.73438 54.1094 11.2812
L54.1094 2.78125
Q49.2656 0.734375 44.1875 -0.34375
Q39.1094 -1.42188 33.8906 -1.42188
Q20.7969 -1.42188 13.1562 6.1875
Q5.51562 13.8125 5.51562 26.8125
Q5.51562 40.2344 12.7656 48.1094
Q20.0156 56 32.3281 56
Q43.3594 56 49.7812 48.8906
Q56.2031 41.7969 56.2031 29.5938
M47.2188 32.2344
Q47.125 39.5938 43.0938 43.9844
Q39.0625 48.3906 32.4219 48.3906
Q24.9062 48.3906 20.3906 44.1406
Q15.875 39.8906 15.1875 32.1719
z
" id="DejaVuSans-65"/>
      <path d="
M34.2812 27.4844
Q23.3906 27.4844 19.1875 25
Q14.9844 22.5156 14.9844 16.5
Q14.9844 11.7188 18.1406 8.90625
Q21.2969 6.10938 26.7031 6.10938
Q34.1875 6.10938 38.7031 11.4062
Q43.2188 16.7031 43.2188 25.4844
L43.2188 27.4844
z

M52.2031 31.2031
L52.2031 0
L43.2188 0
L43.2188 8.29688
Q40.1406 3.32812 35.5469 0.953125
Q30.9531 -1.42188 24.3125 -1.42188
Q15.9219 -1.42188 10.9531 3.29688
Q6 8.01562 6 15.9219
Q6 25.1406 12.1719 29.8281
Q18.3594 34.5156 30.6094 34.5156
L43.2188 34.5156
L43.2188 35.4062
Q43.2188 41.6094 39.1406 45
Q35.0625 48.3906 27.6875 48.3906
Q23 48.3906 18.5469 47.2656
Q14.1094 46.1406 10.0156 43.8906
L10.0156 52.2031
Q14.9375 54.1094 19.5781 55.0469
Q24.2188 56 28.6094 56
Q40.4844 56 46.3438 49.8438
Q52.2031 43.7031 52.2031 31.2031" id="DejaVuSans-61"/>
     </defs>
     <g transform="translate(75.714375 217.149801136)rotate(-90.0)scale(0.12 -0.12)">
      <use xlink:href="#DejaVuSans-4d"/>
      <use x="86.279296875" xlink:href="#DejaVuSans-65"/>
      <use x="147.802734375" xlink:href="#DejaVuSans-74"/>
      <use x="187.01171875" xlink:href="#DejaVuSans-68"/>
      <use x="250.390625" xlink:href="#DejaVuSans-79"/>
      <use x="309.5703125" xlink:href="#DejaVuSans-6c"/>
      <use x="337.353515625" xlink:href="#DejaVuSans-61"/>
      <use x="398.6328125" xlink:href="#DejaVuSans-74"/>
      <use x="437.841796875" xlink:href="#DejaVuSans-69"/>
      <use x="465.625" xlink:href="#DejaVuSans-6f"/>
      <use x="526.806640625" xlink:href="#DejaVuSans-6e"/>
     </g>
    </g>
   </g>
  </g>
  <g id="axes_2">
   <g id="patch_10">
    <path d="
M108 388.8
L777.6 388.8
L777.6 353.891
L108 353.891
z
" style="fill:#ffffff;"/>
   </g>
   <g id="line2d_21">
    <path clip-path="url(#pc82b1f09f0)" d="
M108 371.345
L777.6 371.345" style="fill:none;stroke:#000000;stroke-linecap:square;"/>
   </g>
   <g id="line2d_22">
    <path clip-path="url(#pc82b1f09f0)" d="
M193.857 371.345
L691.743 371.345" style="fill:none;stroke:#008000;stroke-linecap:square;stroke-width:3;"/>
   </g>
   <g id="patch_11">
    <path clip-path="url(#pc82b1f09f0)" d="
M193.857 388.8
L199.438 388.8
L199.438 353.891
L193.857 353.891
z
" style="fill:#008000;"/>
   </g>
   <g id="patch_12">
    <path clip-path="url(#pc82b1f09f0)" d="
M499.766 388.8
L512.473 388.8
L512.473 353.891
L499.766 353.891
z
" style="fill:#008000;"/>
   </g>
   <g id="patch_13">
    <path clip-path="url(#pc82b1f09f0)" d="
M666.415 388.8
L691.743 388.8
L691.743 353.891
L666.415 353.891
z
" style="fill:#008000;"/>
   </g>
   <g id="patch_14">
    <path d="
M108 353.891
L777.6 353.891" style="fill:none;"/>
   </g>
   <g id="patch_15">
    <path d="
M777.6 388.8
L777.6 353.891" style="fill:none;"/>
   </g>
   <g id="patch_16">
    <path d="
M108 388.8
L777.6 388.8" style="fill:none;"/>
   </g>
   <g id="patch_17">
    <path d="
M108 388.8
L108 353.891" style="fill:none;"/>
   </g>
   <g id="matplotlib.axis_2">
    <g id="xtick_1">
     <g id="line2d_23">
      <defs>
       <path d="
M0 0
L0 -4" id="m93b0483c22" style="stroke:#000000;stroke-width:0.5;"/>
      </defs>
      <g>
       <use style="stroke:#000000;stroke-width:0.5;" x="151.958866521" xlink:href="#m93b0483c22" y="388.8"/>
      </g>
     </g>
     <g id="line2d_24">
      <defs>
       <path d="
M0 0
L0 4" id="m741efc42ff" style="stroke:#000000;stroke-width:0.5;"/>
      </defs>
      <g>
       <use style="stroke:#000000;stroke-width:0.5;" x="151.958866521" xlink:href="#m741efc42ff" y="353.890909091"/>
      </g>
     </g>
     <g id="text_8">
      <!-- 1000 -->
      <g transform="translate(137.746366521 401.918125)scale(0.12 -0.12)">
       <use xlink:href="#DejaVuSans-31"/>
       <use x="63.623046875" xlink:href="#DejaVuSans-30"/>
       <use x="127.24609375" xlink:href="#DejaVuSans-30"/>
       <use x="190.869140625" xlink:href="#DejaVuSans-30"/>
      </g>
     </g>
    </g>
    <g id="xtick_2">
     <g id="line2d_25">
      <g>
       <use style="stroke:#000000;stroke-width:0.5;" x="237.816027695" xlink:href="#m93b0483c22" y="388.8"/>
      </g>
     </g>
     <g id="line2d_26">
      <g>
       <use style="stroke:#000000;stroke-width:0.5;" x="237.816027695" xlink:href="#m741efc42ff" y="353.890909091"/>
      </g>
     </g>
     <g id="text_9">
      <!-- 2000 -->
      <g transform="translate(223.384152695 401.918125)scale(0.12 -0.12)">
       <use xlink:href="#DejaVuSans-32"/>
       <use x="63.623046875" xlink:href="#DejaVuSans-30"/>
       <use x="127.24609375" xlink:href="#DejaVuSans-30"/>
       <use x="190.869140625" xlink:href="#DejaVuSans-30"/>
      </g>
     </g>
    </g>
    <g id="xtick_3">
     <g id="line2d_27">
      <g>
       <use style="stroke:#000000;stroke-width:0.5;" x="323.67318887" xlink:href="#m93b0483c22" y="388.8"/>
      </g>
     </g>
     <g id="line2d_28">
      <g>
       <use style="stroke:#000000;stroke-width:0.5;" x="323.67318887" xlink:href="#m741efc42ff" y="353.890909091"/>
      </g>
     </g>
     <g id="text_10">
      <!-- 3000 -->
      <defs>
       <path d="
M40.5781 39.3125
Q47.6562 37.7969 51.625 33
Q55.6094 28.2188 55.6094 21.1875
Q55.6094 10.4062 48.1875 4.48438
Q40.7656 -1.42188 27.0938 -1.42188
Q22.5156 -1.42188 17.6562 -0.515625
Q12.7969 0.390625 7.625 2.20312
L7.625 11.7188
Q11.7188 9.32812 16.5938 8.10938
Q21.4844 6.89062 26.8125 6.89062
Q36.0781 6.89062 40.9375 10.5469
Q45.7969 14.2031 45.7969 21.1875
Q45.7969 27.6406 41.2812 31.2656
Q36.7656 34.9062 28.7188 34.9062
L20.2188 34.9062
L20.2188 43.0156
L29.1094 43.0156
Q36.375 43.0156 40.2344 45.9219
Q44.0938 48.8281 44.0938 54.2969
Q44.0938 59.9062 40.1094 62.9062
Q36.1406 65.9219 28.7188 65.9219
Q24.6562 65.9219 20.0156 65.0312
Q15.375 64.1562 9.8125 62.3125
L9.8125 71.0938
Q15.4375 72.6562 20.3438 73.4375
Q25.25 74.2188 29.5938 74.2188
Q40.8281 74.2188 47.3594 69.1094
Q53.9062 64.0156 53.9062 55.3281
Q53.9062 49.2656 50.4375 45.0938
Q46.9688 40.9219 40.5781 39.3125" id="DejaVuSans-33"/>
      </defs>
      <g transform="translate(309.25912637 401.918125)scale(0.12 -0.12)">
       <use xlink:href="#DejaVuSans-33"/>
       <use x="63.623046875" xlink:href="#DejaVuSans-30"/>
       <use x="127.24609375" xlink:href="#DejaVuSans-30"/>
       <use x="190.869140625" xlink:href="#DejaVuSans-30"/>
      </g>
     </g>
    </g>
    <g id="xtick_4">
     <g id="line2d_29">
      <g>
       <use style="stroke:#000000;stroke-width:0.5;" x="409.530350044" xlink:href="#m93b0483c22" y="388.8"/>
      </g>
     </g>
     <g id="line2d_30">
      <g>
       <use style="stroke:#000000;stroke-width:0.5;" x="409.530350044" xlink:href="#m741efc42ff" y="353.890909091"/>
      </g>
     </g>
     <g id="text_11">
      <!-- 4000 -->
      <g transform="translate(394.952225044 401.918125)scale(0.12 -0.12)">
       <use xlink:href="#DejaVuSans-34"/>
       <use x="63.623046875" xlink:href="#DejaVuSans-30"/>
       <use x="127.24609375" xlink:href="#DejaVuSans-30"/>
       <use x="190.869140625" xlink:href="#DejaVuSans-30"/>
      </g>
     </g>
    </g>
    <g id="xtick_5">
     <g id="line2d_31">
      <g>
       <use style="stroke:#000000;stroke-width:0.5;" x="495.387511219" xlink:href="#m93b0483c22" y="388.8"/>
      </g>
     </g>
     <g id="line2d_32">
      <g>
       <use style="stroke:#000000;stroke-width:0.5;" x="495.387511219" xlink:href="#m741efc42ff" y="353.890909091"/>
      </g>
     </g>
     <g id="text_12">
      <!-- 5000 -->
      <defs>
       <path d="
M10.7969 72.9062
L49.5156 72.9062
L49.5156 64.5938
L19.8281 64.5938
L19.8281 46.7344
Q21.9688 47.4688 24.1094 47.8281
Q26.2656 48.1875 28.4219 48.1875
Q40.625 48.1875 47.75 41.5
Q54.8906 34.8125 54.8906 23.3906
Q54.8906 11.625 47.5625 5.09375
Q40.2344 -1.42188 26.9062 -1.42188
Q22.3125 -1.42188 17.5469 -0.640625
Q12.7969 0.140625 7.71875 1.70312
L7.71875 11.625
Q12.1094 9.23438 16.7969 8.0625
Q21.4844 6.89062 26.7031 6.89062
Q35.1562 6.89062 40.0781 11.3281
Q45.0156 15.7656 45.0156 23.3906
Q45.0156 31 40.0781 35.4375
Q35.1562 39.8906 26.7031 39.8906
Q22.75 39.8906 18.8125 39.0156
Q14.8906 38.1406 10.7969 36.2812
z
" id="DejaVuSans-35"/>
      </defs>
      <g transform="translate(480.979073719 401.918125)scale(0.12 -0.12)">
       <use xlink:href="#DejaVuSans-35"/>
       <use x="63.623046875" xlink:href="#DejaVuSans-30"/>
       <use x="127.24609375" xlink:href="#DejaVuSans-30"/>
       <use x="190.869140625" xlink:href="#DejaVuSans-30"/>
      </g>
     </g>
    </g>
    <g id="xtick_6">
     <g id="line2d_33">
      <g>
       <use style="stroke:#000000;stroke-width:0.5;" x="581.244672393" xlink:href="#m93b0483c22" y="388.8"/>
      </g>
     </g>
     <g id="line2d_34">
      <g>
       <use style="stroke:#000000;stroke-width:0.5;" x="581.244672393" xlink:href="#m741efc42ff" y="353.890909091"/>
      </g>
     </g>
     <g id="text_13">
      <!-- 6000 -->
      <g transform="translate(566.792172393 401.918125)scale(0.12 -0.12)">
       <use xlink:href="#DejaVuSans-36"/>
       <use x="63.623046875" xlink:href="#DejaVuSans-30"/>
       <use x="127.24609375" xlink:href="#DejaVuSans-30"/>
       <use x="190.869140625" xlink:href="#DejaVuSans-30"/>
      </g>
     </g>
    </g>
    <g id="xtick_7">
     <g id="line2d_35">
      <g>
       <use style="stroke:#000000;stroke-width:0.5;" x="667.101833568" xlink:href="#m93b0483c22" y="388.8"/>
      </g>
     </g>
     <g id="line2d_36">
      <g>
       <use style="stroke:#000000;stroke-width:0.5;" x="667.101833568" xlink:href="#m741efc42ff" y="353.890909091"/>
      </g>
     </g>
     <g id="text_14">
      <!-- 7000 -->
      <defs>
       <path d="
M8.20312 72.9062
L55.0781 72.9062
L55.0781 68.7031
L28.6094 0
L18.3125 0
L43.2188 64.5938
L8.20312 64.5938
z
" id="DejaVuSans-37"/>
      </defs>
      <g transform="translate(652.722458568 401.918125)scale(0.12 -0.12)">
       <use xlink:href="#DejaVuSans-37"/>
       <use x="63.623046875" xlink:href="#DejaVuSans-30"/>
       <use x="127.24609375" xlink:href="#DejaVuSans-30"/>
       <use x="190.869140625" xlink:href="#DejaVuSans-30"/>
      </g>
     </g>
    </g>
    <g id="xtick_8">
     <g id="line2d_37">
      <g>
       <use style="stroke:#000000;stroke-width:0.5;" x="752.958994742" xlink:href="#m93b0483c22" y="388.8"/>
      </g>
     </g>
     <g id="line2d_38">
      <g>
       <use style="stroke:#000000;stroke-width:0.5;" x="752.958994742" xlink:href="#m741efc42ff" y="353.890909091"/>
      </g>
     </g>
    </g>
    <g id="text_15">
     <!-- Length (bp) -->
     <defs>
      <path d="
M9.8125 72.9062
L19.6719 72.9062
L19.6719 8.29688
L55.1719 8.29688
L55.1719 0
L9.8125 0
z
" id="DejaVuSans-4c"/>
      <path id="DejaVuSans-20"/>
      <path d="
M45.4062 27.9844
Q45.4062 37.75 41.375 43.1094
Q37.3594 48.4844 30.0781 48.4844
Q22.8594 48.4844 18.8281 43.1094
Q14.7969 37.75 14.7969 27.9844
Q14.7969 18.2656 18.8281 12.8906
Q22.8594 7.51562 30.0781 7.51562
Q37.3594 7.51562 41.375 12.8906
Q45.4062 18.2656 45.4062 27.9844
M54.3906 6.78125
Q54.3906 -7.17188 48.1875 -13.9844
Q42 -20.7969 29.2031 -20.7969
Q24.4688 -20.7969 20.2656 -20.0938
Q16.0625 -19.3906 12.1094 -17.9219
L12.1094 -9.1875
Q16.0625 -11.3281 19.9219 -12.3438
Q23.7812 -13.375 27.7812 -13.375
Q36.625 -13.375 41.0156 -8.76562
Q45.4062 -4.15625 45.4062 5.17188
L45.4062 9.625
Q42.625 4.78125 38.2812 2.39062
Q33.9375 0 27.875 0
Q17.8281 0 11.6719 7.65625
Q5.51562 15.3281 5.51562 27.9844
Q5.51562 40.6719 11.6719 48.3281
Q17.8281 56 27.875 56
Q33.9375 56 38.2812 53.6094
Q42.625 51.2188 45.4062 46.3906
L45.4062 54.6875
L54.3906 54.6875
z
" id="DejaVuSans-67"/>
      <path d="
M31 75.875
Q24.4688 64.6562 21.2812 53.6562
Q18.1094 42.6719 18.1094 31.3906
Q18.1094 20.125 21.3125 9.0625
Q24.5156 -2 31 -13.1875
L23.1875 -13.1875
Q15.875 -1.70312 12.2344 9.375
Q8.59375 20.4531 8.59375 31.3906
Q8.59375 42.2812 12.2031 53.3125
Q15.8281 64.3594 23.1875 75.875
z
" id="DejaVuSans-28"/>
      <path d="
M8.01562 75.875
L15.8281 75.875
Q23.1406 64.3594 26.7812 53.3125
Q30.4219 42.2812 30.4219 31.3906
Q30.4219 20.4531 26.7812 9.375
Q23.1406 -1.70312 15.8281 -13.1875
L8.01562 -13.1875
Q14.5 -2 17.7031 9.0625
Q20.9062 20.125 20.9062 31.3906
Q20.9062 42.6719 17.7031 53.6562
Q14.5 64.6562 8.01562 75.875" id="DejaVuSans-29"/>
      <path d="
M48.6875 27.2969
Q48.6875 37.2031 44.6094 42.8438
Q40.5312 48.4844 33.4062 48.4844
Q26.2656 48.4844 22.1875 42.8438
Q18.1094 37.2031 18.1094 27.2969
Q18.1094 17.3906 22.1875 11.75
Q26.2656 6.10938 33.4062 6.10938
Q40.5312 6.10938 44.6094 11.75
Q48.6875 17.3906 48.6875 27.2969
M18.1094 46.3906
Q20.9531 51.2656 25.2656 53.625
Q29.5938 56 35.5938 56
Q45.5625 56 51.7812 48.0938
Q58.0156 40.1875 58.0156 27.2969
Q58.0156 14.4062 51.7812 6.48438
Q45.5625 -1.42188 35.5938 -1.42188
Q29.5938 -1.42188 25.2656 0.953125
Q20.9531 3.32812 18.1094 8.20312
L18.1094 0
L9.07812 0
L9.07812 75.9844
L18.1094 75.9844
z
" id="DejaVuSans-62"/>
      <path d="
M18.1094 8.20312
L18.1094 -20.7969
L9.07812 -20.7969
L9.07812 54.6875
L18.1094 54.6875
L18.1094 46.3906
Q20.9531 51.2656 25.2656 53.625
Q29.5938 56 35.5938 56
Q45.5625 56 51.7812 48.0938
Q58.0156 40.1875 58.0156 27.2969
Q58.0156 14.4062 51.7812 6.48438
Q45.5625 -1.42188 35.5938 -1.42188
Q29.5938 -1.42188 25.2656 0.953125
Q20.9531 3.32812 18.1094 8.20312
M48.6875 27.2969
Q48.6875 37.2031 44.6094 42.8438
Q40.5312 48.4844 33.4062 48.4844
Q26.2656 48.4844 22.1875 42.8438
Q18.1094 37.2031 18.1094 27.2969
Q18.1094 17.3906 22.1875 11.75
Q26.2656 6.10938 33.4062 6.10938
Q40.5312 6.10938 44.6094 11.75
Q48.6875 17.3906 48.6875 27.2969" id="DejaVuSans-70"/>
     </defs>
     <g transform="translate(408.4125 418.531875)scale(0.12 -0.12)">
      <use xlink:href="#DejaVuSans-4c"/>
      <use x="53.962890625" xlink:href="#DejaVuSans-65"/>
      <use x="115.486328125" xlink:href="#DejaVuSans-6e"/>
      <use x="178.865234375" xlink:href="#DejaVuSans-67"/>
      <use x="242.341796875" xlink:href="#DejaVuSans-74"/>
      <use x="281.55078125" xlink:href="#DejaVuSans-68"/>
      <use x="344.9296875" xlink:href="#DejaVuSans-20"/>
      <use x="376.716796875" xlink:href="#DejaVuSans-28"/>
      <use x="415.73046875" xlink:href="#DejaVuSans-62"/>
      <use x="479.20703125" xlink:href="#DejaVuSans-70"/>
      <use x="542.68359375" xlink:href="#DejaVuSans-29"/>
     </g>
     <!-- chr3:93520488-93526287 -->
     <defs>
      <path d="
M11.7188 12.4062
L22.0156 12.4062
L22.0156 0
L11.7188 0
z

M11.7188 51.7031
L22.0156 51.7031
L22.0156 39.3125
L11.7188 39.3125
z
" id="DejaVuSans-3a"/>
      <path d="
M10.9844 1.51562
L10.9844 10.5
Q14.7031 8.73438 18.5 7.8125
Q22.3125 6.89062 25.9844 6.89062
Q35.75 6.89062 40.8906 13.4531
Q46.0469 20.0156 46.7812 33.4062
Q43.9531 29.2031 39.5938 26.9531
Q35.25 24.7031 29.9844 24.7031
Q19.0469 24.7031 12.6719 31.3125
Q6.29688 37.9375 6.29688 49.4219
Q6.29688 60.6406 12.9375 67.4219
Q19.5781 74.2188 30.6094 74.2188
Q43.2656 74.2188 49.9219 64.5156
Q56.5938 54.8281 56.5938 36.375
Q56.5938 19.1406 48.4062 8.85938
Q40.2344 -1.42188 26.4219 -1.42188
Q22.7031 -1.42188 18.8906 -0.6875
Q15.0938 0.046875 10.9844 1.51562
M30.6094 32.4219
Q37.25 32.4219 41.125 36.9531
Q45.0156 41.5 45.0156 49.4219
Q45.0156 57.2812 41.125 61.8438
Q37.25 66.4062 30.6094 66.4062
Q23.9688 66.4062 20.0938 61.8438
Q16.2188 57.2812 16.2188 49.4219
Q16.2188 41.5 20.0938 36.9531
Q23.9688 32.4219 30.6094 32.4219" id="DejaVuSans-39"/>
      <path d="
M48.7812 52.5938
L48.7812 44.1875
Q44.9688 46.2969 41.1406 47.3438
Q37.3125 48.3906 33.4062 48.3906
Q24.6562 48.3906 19.8125 42.8438
Q14.9844 37.3125 14.9844 27.2969
Q14.9844 17.2812 19.8125 11.7344
Q24.6562 6.20312 33.4062 6.20312
Q37.3125 6.20312 41.1406 7.25
Q44.9688 8.29688 48.7812 10.4062
L48.7812 2.09375
Q45.0156 0.34375 40.9844 -0.53125
Q36.9688 -1.42188 32.4219 -1.42188
Q20.0625 -1.42188 12.7812 6.34375
Q5.51562 14.1094 5.51562 27.2969
Q5.51562 40.6719 12.8594 48.3281
Q20.2188 56 33.0156 56
Q37.1562 56 41.1094 55.1406
Q45.0625 54.2969 48.7812 52.5938" id="DejaVuSans-63"/>
      <path d="
M4.89062 31.3906
L31.2031 31.3906
L31.2031 23.3906
L4.89062 23.3906
z
" id="DejaVuSans-2d"/>
      <path d="
M41.1094 46.2969
Q39.5938 47.1719 37.8125 47.5781
Q36.0312 48 33.8906 48
Q26.2656 48 22.1875 43.0469
Q18.1094 38.0938 18.1094 28.8125
L18.1094 0
L9.07812 0
L9.07812 54.6875
L18.1094 54.6875
L18.1094 46.1875
Q20.9531 51.1719 25.4844 53.5781
Q30.0312 56 36.5312 56
Q37.4531 56 38.5781 55.875
Q39.7031 55.7656 41.0625 55.5156
z
" id="DejaVuSans-72"/>
     </defs>
     <g transform="translate(364.9921875 431.96925)scale(0.12 -0.12)">
      <use xlink:href="#DejaVuSans-63"/>
      <use x="54.98046875" xlink:href="#DejaVuSans-68"/>
      <use x="118.359375" xlink:href="#DejaVuSans-72"/>
      <use x="159.47265625" xlink:href="#DejaVuSans-33"/>
      <use x="223.095703125" xlink:href="#DejaVuSans-3a"/>
      <use x="256.787109375" xlink:href="#DejaVuSans-39"/>
      <use x="320.41015625" xlink:href="#DejaVuSans-33"/>
      <use x="384.033203125" xlink:href="#DejaVuSans-35"/>
      <use x="447.65625" xlink:href="#DejaVuSans-32"/>
      <use x="511.279296875" xlink:href="#DejaVuSans-30"/>
      <use x="574.90234375" xlink:href="#DejaVuSans-34"/>
      <use x="638.525390625" xlink:href="#DejaVuSans-38"/>
      <use x="702.1484375" xlink:href="#DejaVuSans-38"/>
      <use x="765.771484375" xlink:href="#DejaVuSans-2d"/>
      <use x="801.85546875" xlink:href="#DejaVuSans-39"/>
      <use x="865.478515625" xlink:href="#DejaVuSans-33"/>
      <use x="929.1015625" xlink:href="#DejaVuSans-35"/>
      <use x="992.724609375" xlink:href="#DejaVuSans-32"/>
      <use x="1056.34765625" xlink:href="#DejaVuSans-36"/>
      <use x="1119.97070312" xlink:href="#DejaVuSans-32"/>
      <use x="1183.59375" xlink:href="#DejaVuSans-38"/>
      <use x="1247.21679688" xlink:href="#DejaVuSans-37"/>
     </g>
    </g>
   </g>
  </g>
  <g id="text_16">
   <!-- ENSMUST00000029515 (S100a11) -->
   <defs>
    <path d="
M53.5156 70.5156
L53.5156 60.8906
Q47.9062 63.5781 42.9219 64.8906
Q37.9375 66.2188 33.2969 66.2188
Q25.25 66.2188 20.875 63.0938
Q16.5 59.9688 16.5 54.2031
Q16.5 49.3594 19.4062 46.8906
Q22.3125 44.4375 30.4219 42.9219
L36.375 41.7031
Q47.4062 39.5938 52.6562 34.2969
Q57.9062 29 57.9062 20.125
Q57.9062 9.51562 50.7969 4.04688
Q43.7031 -1.42188 29.9844 -1.42188
Q24.8125 -1.42188 18.9688 -0.25
Q13.1406 0.921875 6.89062 3.21875
L6.89062 13.375
Q12.8906 10.0156 18.6562 8.29688
Q24.4219 6.59375 29.9844 6.59375
Q38.4219 6.59375 43.0156 9.90625
Q47.6094 13.2344 47.6094 19.3906
Q47.6094 24.75 44.3125 27.7812
Q41.0156 30.8125 33.5 32.3281
L27.4844 33.5
Q16.4531 35.6875 11.5156 40.375
Q6.59375 45.0625 6.59375 53.4219
Q6.59375 63.0938 13.4062 68.6562
Q20.2188 74.2188 32.1719 74.2188
Q37.3125 74.2188 42.625 73.2812
Q47.9531 72.3594 53.5156 70.5156" id="DejaVuSans-53"/>
    <path d="
M9.8125 72.9062
L55.9062 72.9062
L55.9062 64.5938
L19.6719 64.5938
L19.6719 43.0156
L54.3906 43.0156
L54.3906 34.7188
L19.6719 34.7188
L19.6719 8.29688
L56.7812 8.29688
L56.7812 0
L9.8125 0
z
" id="DejaVuSans-45"/>
    <path d="
M-0.296875 72.9062
L61.375 72.9062
L61.375 64.5938
L35.5 64.5938
L35.5 0
L25.5938 0
L25.5938 64.5938
L-0.296875 64.5938
z
" id="DejaVuSans-54"/>
    <path d="
M8.6875 72.9062
L18.6094 72.9062
L18.6094 28.6094
Q18.6094 16.8906 22.8438 11.7344
Q27.0938 6.59375 36.625 6.59375
Q46.0938 6.59375 50.3438 11.7344
Q54.5938 16.8906 54.5938 28.6094
L54.5938 72.9062
L64.5 72.9062
L64.5 27.3906
Q64.5 13.1406 57.4375 5.85938
Q50.3906 -1.42188 36.625 -1.42188
Q22.7969 -1.42188 15.7344 5.85938
Q8.6875 13.1406 8.6875 27.3906
z
" id="DejaVuSans-55"/>
    <path d="
M9.8125 72.9062
L23.0938 72.9062
L55.4219 11.9219
L55.4219 72.9062
L64.9844 72.9062
L64.9844 0
L51.7031 0
L19.3906 60.9844
L19.3906 0
L9.8125 0
z
" id="DejaVuSans-4e"/>
   </defs>
   <g transform="translate(328.23 17.758125)scale(0.12 -0.12)">
    <use xlink:href="#DejaVuSans-45"/>
    <use x="63.18359375" xlink:href="#DejaVuSans-4e"/>
    <use x="137.98828125" xlink:href="#DejaVuSans-53"/>
    <use x="201.46484375" xlink:href="#DejaVuSans-4d"/>
    <use x="287.744140625" xlink:href="#DejaVuSans-55"/>
    <use x="360.9375" xlink:href="#DejaVuSans-53"/>
    <use x="424.4140625" xlink:href="#DejaVuSans-54"/>
    <use x="485.498046875" xlink:href="#DejaVuSans-30"/>
    <use x="549.12109375" xlink:href="#DejaVuSans-30"/>
    <use x="612.744140625" xlink:href="#DejaVuSans-30"/>
    <use x="676.3671875" xlink:href="#DejaVuSans-30"/>
    <use x="739.990234375" xlink:href="#DejaVuSans-30"/>
    <use x="803.61328125" xlink:href="#DejaVuSans-30"/>
    <use x="867.236328125" xlink:href="#DejaVuSans-32"/>
    <use x="930.859375" xlink:href="#DejaVuSans-39"/>
    <use x="994.482421875" xlink:href="#DejaVuSans-35"/>
    <use x="1058.10546875" xlink:href="#DejaVuSans-31"/>
    <use x="1121.72851562" xlink:href="#DejaVuSans-35"/>
    <use x="1185.3515625" xlink:href="#DejaVuSans-20"/>
    <use x="1217.13867188" xlink:href="#DejaVuSans-28"/>
    <use x="1256.15234375" xlink:href="#DejaVuSans-53"/>
    <use x="1319.62890625" xlink:href="#DejaVuSans-31"/>
    <use x="1383.25195312" xlink:href="#DejaVuSans-30"/>
    <use x="1446.875" xlink:href="#DejaVuSans-30"/>
    <use x="1510.49804688" xlink:href="#DejaVuSans-61"/>
    <use x="1571.77734375" xlink:href="#DejaVuSans-31"/>
    <use x="1635.40039062" xlink:href="#DejaVuSans-31"/>
    <use x="1699.0234375" xlink:href="#DejaVuSans-29"/>
   </g>
  </g>
 </g>
 <defs>
  <clipPath id="p9fd4257182">
   <rect height="279.272727273" width="669.6" x="108.0" y="43.2"/>
  </clipPath>
  <clipPath id="pc82b1f09f0">
   <rect height="34.9090909091" width="669.6" x="108.0" y="353.890909091"/>
  </clipPath>
 </defs>
</svg>
