<?xml version="1.0" encoding="utf-8" standalone="no"?>
<!DOCTYPE svg PUBLIC "-//W3C//DTD SVG 1.1//EN"
  "http://www.w3.org/Graphics/SVG/1.1/DTD/svg11.dtd">
<!-- Created with matplotlib (http://matplotlib.org/) -->
<svg height="432pt" version="1.1" viewBox="0 0 864 432" width="864pt" xmlns="http://www.w3.org/2000/svg" xmlns:xlink="http://www.w3.org/1999/xlink">
 <defs>
  <style type="text/css">
*{stroke-linecap:butt;stroke-linejoin:round;}
  </style>
 </defs>
 <g id="figure_1">
  <g id="patch_1">
   <path d="
M0 432
L864 432
L864 0
L0 0
z
" style="fill:#ffffff;"/>
  </g>
  <g id="axes_1">
   <g id="patch_2">
    <path d="
M108 322.473
L777.6 322.473
L777.6 43.2
L108 43.2
z
" style="fill:#ffffff;"/>
   </g>
   <g id="patch_3">
    <path clip-path="url(#p9fd4257182)" d="
M750.973 322.473
L755.558 322.473
L755.558 43.2
L750.973 43.2
z
" style="fill:#008000;opacity:0.2;"/>
   </g>
   <g id="patch_4">
    <path clip-path="url(#p9fd4257182)" d="
M399.046 322.473
L401.625 322.473
L401.625 43.2
L399.046 43.2
z
" style="fill:#008000;opacity:0.2;"/>
   </g>
   <g id="patch_5">
    <path clip-path="url(#p9fd4257182)" d="
M244.574 322.473
L250.217 322.473
L250.217 43.2
L244.574 43.2
z
" style="fill:#008000;opacity:0.2;"/>
   </g>
   <g id="patch_6">
    <path clip-path="url(#p9fd4257182)" d="
M205.735 322.473
L210.056 322.473
L210.056 43.2
L205.735 43.2
z
" style="fill:#008000;opacity:0.2;"/>
   </g>
   <g id="patch_7">
    <path clip-path="url(#p9fd4257182)" d="
M130.042 322.473
L169.939 322.473
L169.939 43.2
L130.042 43.2
z
" style="fill:#008000;opacity:0.2;"/>
   </g>
   <g id="line2d_1">
    <path clip-path="url(#p9fd4257182)" d="
M116.685 64.4319
L118.095 70.424
L124.951 107.615
L125.744 96.9157
L127.441 77.303
L135.729 57.0709
L136.501 57.1323
L140.931 59.0279
L147.367 56.8666
L148.58 57.2792
L149.021 57.6496
L150.762 67.029
L153.782 164.625
L155.501 155.464
L155.699 151.233
L156.361 134.724
L166.654 72.9175
L167.206 72.2843
L170.666 67.7429
L174.876 57.9751
L176.331 57.4163
L179.88 60.8412
L181.004 63.2746
L181.687 63.9356
L184.046 64.4232
L186.669 75.128
L186.691 75.0713
L188.675 58.2451
L189.116 57.6888
L190.504 60.1883
L192.113 94.3784
L192.642 95.6328
L192.664 95.3713
L194.56 70.2129
L194.692 69.9896
L197.425 66.0234
L198.902 66.7435
L203.465 64.2667
L204.016 64.2956
L205.206 65.2983
L206.485 68.4866
L208.314 81.0623
L209.637 97.382
L217.087 74.204
L223.083 95.2635
L228.505 139.065
L228.527 139.004
L229.453 129.931
L232.098 106.218
L232.12 106.354
L234.038 153.274
L235.999 310.524
L237.322 322.006
L237.564 322.164
L239.813 321.569
L240.518 320.908
L240.893 320.856
L242.326 321.056
L244.155 321.373
L246.514 321.505
L250.173 321.659
L255.242 206.852
L260.07 84.578
L260.092 84.6034
L262.957 93.2094
L265.25 90.4319
L269.151 85.9559
L291.061 58.0968
L292.406 58.1652
L293.442 58.4205
L294.632 59.0815
L310.37 56.9479
L316.983 57.3181
L324.257 56.9271
L325.072 56.965
L328.665 60.8656
L335.564 120.899
L335.586 120.466
L337.791 78.5656
L339.752 66.142
L339.929 65.8888
L340.458 65.811
L347.225 90.1069
L353.485 113.248
L355.424 114.356
L357.474 113.007
L358.576 111.358
L361.684 99.0395
L366.622 65.8698
L371.383 58.5163
L374.05 57.8733
L382.845 60.7878
L387.562 84.557
L393.866 158.352
L398.032 178.671
L398.605 178.723
L399.421 177.729
L401.338 171.572
L407.687 142.258
L420.625 75.6383
L425.056 90.6066
L432.925 113.172
L433.388 113.118
L436.518 113.089
L438.788 117.025
L440.265 123.405
L446.371 166.522
L448.509 175.915
L458.891 149.345
L460.39 143.227
L468.038 108.289
L474.783 130.753
L476.04 139.554
L480.316 181.728
L493.497 167.876
L493.519 167.319
L498.479 91.5505
L503.13 80.8272
L509.081 78.3064
L509.456 78.6356
L511.704 82.9724
L518.559 111.514
L519.794 113.766
L520.014 113.89
L525.282 101.884
L528.589 91.1751
L530.176 87.6339
L534.342 77.5402
L537.934 73.3643
L542.056 79.3098
L543.092 82.249
L545.561 90.5965
L552.13 104.062
L552.152 104.05
L553.849 102.32
L555.061 100.523
L559.955 95.6472
L560.638 95.9373
L575.362 86.9963
L575.384 87.173
L577.544 115.052
L577.941 123.11
L585.502 148.731
L585.876 120.663
L587.684 59.8855
L599.543 56.6072
L599.961 57.0964
L600.424 59.3062
L602.276 90.8599
L602.827 87.6785
L603.731 79.0336
L603.753 78.9101
L604.149 78.0072
L604.171 78.0355
L605.45 86.5423
L608.117 58.6704
L615.722 80.5894
L617.86 94.7849
L618.874 97.2818
L620.483 95.9749
L624.186 69.075
L626.324 62.7501
L640.894 56.89
L653.348 56.8679
L655.398 60.4151
L656.015 63.079
L658.373 79.4154
L659.387 81.0489
L659.409 81.0125
L662.628 68.32
L662.914 67.8156
L664.722 67.105
L669.527 73.8275
L671.004 78.6861
L678.079 114.105
L694.677 106.822
L697.697 104.328
L699.791 102.005
L703.296 90.0057
L705.456 75.5739
L708.806 62.2071
L709.578 61.92
L712.796 68.7652
L714.339 73.4938
L716.234 66.9645
L718.483 60.2455
L721.216 60.4354
L722.076 61.3161
L724.721 71.472
L725.007 73.9077
L726.219 87.3967
L729.107 127.57
L731.377 136.801
L731.399 136.765
L732.7 131.635
L733.185 128.626
L740.084 76.6521
L740.106 76.6679
L740.525 77.2476
L741.385 79.9865
L744.713 102.382
L745.44 105.39
L747.623 105.067
L750.003 89.2985
L750.422 85.6448
L752.384 70.6392
L756.021 58.642
L756.175 58.5319
L761.289 59.3265
L767.747 103.107
L771.516 117.752
L771.516 117.752" style="fill:none;opacity:0.5;stroke:#0000ff;stroke-linecap:square;"/>
   </g>
   <g id="line2d_2">
    <path clip-path="url(#p9fd4257182)" d="
M113.819 83.99
L114.282 74.6747
L116.685 58.8943
L118.095 57.4795
L124.951 57.2724
L125.744 57.4144
L127.441 57.8583
L135.729 64.6556
L136.501 66.1488
L140.909 77.931
L147.345 75.879
L149.021 71.4825
L150.762 69.1489
L153.782 84.0363
L155.699 104.465
L156.361 107.524
L164.847 58.5231
L165.288 58.0435
L166.654 57.6456
L167.206 57.6609
L168.594 57.8593
L170.666 59.1523
L174.876 73.6138
L176.309 77.2436
L176.331 77.2597
L180.012 67.777
L181.004 66.6297
L181.687 66.9959
L183.407 72.9616
L184.046 76.9597
L186.669 89.5395
L186.691 89.4869
L188.675 79.9688
L189.116 74.3627
L190.504 59.8859
L192.113 57.5367
L192.664 57.814
L194.538 65.3317
L194.692 66.9712
L197.403 90.4626
L197.425 90.1746
L198.902 77.618
L203.465 69.8513
L204.016 69.7347
L205.206 69.6267
L206.485 69.6444
L208.314 69.5362
L209.637 68.6435
L216.845 57.4946
L217.087 57.4502
L223.083 63.7692
L228.527 101.45
L229.453 98.5912
L232.098 92.2262
L232.12 92.3842
L234.038 144.159
L235.999 304.861
L237.322 322.205
L237.564 322.33
L239.813 322.224
L240.893 322.086
L244.309 322.151
L246.976 322.172
L249.489 322.186
L250.173 322.122
L255.242 319.896
L260.092 89.6241
L262.957 84.2293
L265.25 73.6307
L268.49 66.4289
L269.151 65.5808
L291.083 60.5053
L292.119 66.726
L292.428 70.0168
L293.442 89.4629
L294.037 109.966
L294.654 139.574
L308.519 85.4832
L308.541 85.8123
L309.07 93.1373
L310.084 101.136
L310.37 101.556
L311.626 87.2709
L311.913 80.9252
L312.618 68.5952
L316.057 68.6758
L316.277 68.0913
L316.983 64.599
L323 69.5742
L323.706 71.7632
L324.279 72.6229
L325.094 71.3933
L328.665 61.1125
L335.586 94.8739
L337.769 118.531
L337.791 118.292
L339.929 71.3491
L340.458 63.6025
L347.225 56.7573
L353.485 77.4553
L353.507 78.0112
L355.424 130.824
L357.474 125.971
L358.576 110.376
L361.684 72.6457
L366.534 63.0507
L366.6 63.1203
L366.622 63.1441
L371.383 81.0005
L374.05 104.861
L382.845 89.3577
L387.584 79.3862
L393.866 88.6776
L398.032 88.4301
L399.421 86.5378
L401.338 83.088
L407.709 66.3101
L420.648 56.8348
L425.056 58.6828
L433.256 100.985
L433.388 101.35
L436.518 97.9515
L438.788 97.5281
L440.265 99.3663
L444.233 124.933
L446.371 157.135
L448.509 174.78
L458.891 121.21
L460.39 116.992
L468.038 100.524
L475.467 95.8338
L480.316 93.2587
L493.519 85.2657
L498.457 78.5676
L503.13 86.616
L509.059 98.8377
L509.081 98.7907
L509.456 97.8193
L511.704 84.7144
L518.581 59.7477
L520.036 59.1445
L525.282 60.0735
L528.589 65.7226
L530.176 73.9012
L534.319 86.9927
L534.342 86.9769
L537.934 82.4551
L542.056 94.2107
L543.092 98.1223
L545.561 104.405
L552.152 90.4425
L553.849 84.1469
L555.061 80.5022
L559.955 74.8097
L560.638 75.3443
L575.384 94.8513
L577.963 93.5613
L585.524 99.4261
L585.876 99.9271
L587.684 111.626
L599.521 56.6507
L599.543 56.6653
L599.961 57.3082
L600.424 59.7054
L602.166 78.8243
L602.254 78.7408
L602.276 78.6983
L602.827 75.4749
L603.753 67.3349
L604.171 64.7023
L605.45 60.7079
L608.117 57.28
L615.722 79.3639
L618.874 132.326
L620.461 142.332
L620.483 142.295
L624.186 96.023
L626.324 78.0826
L640.872 56.5155
L645.236 58.1004
L645.875 59.4268
L653.348 146.121
L653.37 146.082
L655.398 125.121
L656.015 115.565
L658.373 88.3096
L659.409 85.2474
L662.628 77.3788
L662.914 75.2853
L664.744 66.0998
L669.527 61.6678
L671.004 62.0212
L678.079 98.4871
L694.655 113.415
L694.677 113.335
L697.697 102.492
L699.791 94.2982
L705.456 69.8319
L708.806 62.4858
L709.578 62.4927
L712.796 71.9441
L714.339 97.8974
L716.234 107.088
L718.483 75.8214
L721.216 67.3134
L722.076 65.9252
L724.721 65.3911
L724.985 65.8019
L726.197 69.5047
L729.085 97.0006
L732.7 157.229
L733.185 162.909
L741.385 62.5905
L744.713 56.7597
L745.44 56.7083
L747.623 56.8882
L750.003 59.0352
L750.422 60.1012
L752.384 69.667
L755.999 80.5194
L756.021 80.4914
L756.175 80.2981
L761.289 83.675
L767.747 100.802
L767.747 100.802" style="fill:none;opacity:0.5;stroke:#ff0000;stroke-linecap:square;"/>
   </g>
   <g id="line2d_3">
    <path clip-path="url(#p9fd4257182)" d="
M116.685 58.0169
L118.095 57.8646
L136.501 56.7125
L147.367 56.6182
L148.183 57.4743
L148.58 58.8894
L149.021 62.0452
L150.762 85.5384
L153.76 64.1109
L153.782 64.1342
L155.501 71.2545
L155.699 74.0194
L156.361 90.9952
L166.654 65.3772
L167.206 65.194
L168.594 65.1006
L170.688 65.8395
L174.876 64.1026
L176.155 65.7087
L176.331 66.354
L179.99 57.1925
L180.012 57.1866
L181.004 57.138
L181.687 57.4937
L183.407 62.1831
L184.046 67.1265
L186.691 93.6028
L188.675 57.6976
L189.116 57.1616
L190.504 58.0788
L192.113 66.5874
L192.664 68.5487
L194.692 78.069
L197.425 68.9608
L198.902 58.9072
L203.465 56.6998
L204.016 56.9014
L205.206 58.9287
L206.485 69.335
L208.314 86.3379
L209.637 97.0779
L216.845 62.398
L217.087 62.1387
L223.083 66.4003
L228.527 95.2578
L232.12 98.4401
L234.038 130.711
L235.096 176.187
L235.999 247.432
L237.322 316.752
L237.564 319.424
L239.813 321.911
L240.739 321.75
L243.802 322.138
L250.173 321.98
L255.22 271.158
L255.242 269.168
L260.092 80.3949
L262.957 75.1669
L265.25 72.4757
L268.49 71.1577
L269.151 71.0877
L291.061 95.1681
L292.097 83.2437
L292.406 80.1888
L293.442 71.6679
L294.037 67.9311
L294.632 64.979
L308.541 59.9021
L309.07 60.0448
L310.084 60.2229
L310.37 61.0765
L311.626 77.3178
L311.913 85.1629
L312.618 108.275
L316.057 80.4334
L316.277 73.3797
L316.983 61.9228
L323 65.6998
L324.279 70.9677
L325.072 74.6731
L328.665 111.272
L335.586 87.4973
L337.791 76.4398
L339.752 72.0421
L339.907 71.9616
L340.436 72.0231
L347.225 96.6235
L353.507 91.8084
L355.424 86.3983
L357.474 81.4589
L358.576 79.6966
L366.622 70.8592
L371.383 62.2879
L374.05 60.1776
L382.845 68.1313
L387.584 92.3241
L393.866 74.5789
L398.032 70.9349
L399.421 71.584
L401.338 72.7094
L407.709 77.2931
L420.625 88.108
L420.648 88.0548
L425.056 78.4822
L433.256 69.1098
L433.388 69.0267
L436.518 69.2513
L438.788 74.0627
L440.265 81.6479
L444.233 130.945
L446.371 167.694
L448.509 191.04
L458.891 133.785
L460.39 127.865
L468.038 103.99
L474.783 111.054
L476.04 113.267
L480.162 119.858
L480.316 120.497
L493.497 138.23
L493.519 138.044
L498.479 104.637
L503.13 90.5632
L509.081 79.8189
L509.456 79.4538
L511.704 76.9725
L518.581 73.1587
L519.816 74.1906
L520.036 74.548
L525.282 107.14
L528.566 112.897
L528.589 112.728
L530.176 94.0224
L534.342 71.1452
L537.934 70.2242
L542.056 82.7795
L543.092 89.3077
L545.561 109.891
L552.13 123.082
L552.152 122.911
L555.061 98.7279
L559.955 78.475
L560.638 78.4163
L575.384 199.88
L577.544 184.132
L577.963 179.912
L585.524 98.1088
L585.876 96.1968
L587.684 89.6812
L599.521 74.9654
L599.939 95.5037
L600.424 123.516
L602.188 98.6459
L602.276 93.7774
L602.827 70.4657
L603.312 61.0548
L603.753 57.9264
L604.171 56.9449
L605.45 57.0693
L608.117 80.0815
L615.7 121.646
L617.86 107.274
L620.483 82.6046
L624.186 61.9522
L626.324 59.0811
L640.894 56.8521
L645.875 57.4141
L655.376 71.4875
L656.015 79.1763
L658.241 90.849
L658.263 90.7575
L658.373 90.245
L659.409 82.4795
L662.628 64.934
L662.914 64.6734
L664.744 66.8842
L669.527 88.2719
L671.004 95.6358
L678.079 116.536
L694.677 81.1383
L697.697 84.588
L699.791 96.9766
L703.296 95.2644
L705.456 81.1879
L708.806 66.2135
L709.578 65.4879
L712.796 72.8417
L714.339 77.8508
L716.234 66.4538
L718.483 58.6522
L721.216 58.7151
L722.076 59.4071
L724.721 65.055
L725.007 66.2027
L726.197 73.4208
L729.107 115.948
L731.399 165.594
L732.678 189.374
L733.163 195.659
L740.106 82.5204
L740.525 81.1276
L741.385 78.8757
L744.713 74.0168
L745.44 73.336
L747.623 73.0785
L750.003 71.526
L750.422 70.7933
L752.384 66.7191
L756.175 59.6038
L761.289 61.0648
L767.747 114.263
L771.494 200.529
L771.494 200.529" style="fill:none;opacity:0.5;stroke:#ff0000;stroke-linecap:square;"/>
   </g>
   <g id="line2d_4">
    <path clip-path="url(#p9fd4257182)" d="
M124.951 57.126
L127.463 57.1562
L136.104 57.9206
L136.501 58.0274
L140.909 60.7589
L148.47 71.3388
L149.021 71.7411
L150.762 72.0892
L153.76 70.8723
L155.699 71.1124
L156.361 72.0912
L164.847 175.662
L165.288 164.276
L167.206 109.974
L168.594 84.9187
L170.688 69.3281
L174.876 72.1224
L176.155 74.4179
L176.331 74.4048
L180.012 59.3858
L181.004 58.3625
L181.687 58.2261
L183.407 60.439
L184.046 63.4399
L186.669 70.3172
L186.691 70.1139
L188.675 56.8901
L189.116 56.7311
L190.504 57.3526
L192.642 85.978
L192.664 85.9472
L194.56 68.2014
L194.692 68.0792
L197.425 74.9965
L198.902 112.796
L203.465 63.4757
L204.016 59.8842
L205.206 57.4373
L206.485 56.9267
L208.314 56.9487
L209.637 57.0996
L217.087 57.0507
L223.083 56.5908
L228.527 56.819
L229.453 57.9653
L232.12 87.9072
L234.038 146.137
L235.096 198.312
L235.999 268.534
L237.322 319.649
L237.564 320.979
L239.813 322.242
L241.907 321.818
L242.612 321.466
L243.34 320.859
L243.979 319.969
L244.596 318.922
L245.389 318.295
L245.61 318.46
L247.351 321.51
L247.836 321.84
L248.828 322.034
L250.173 321.988
L255.242 320.485
L260.07 109.152
L260.092 109.214
L262.935 132.247
L262.957 132.207
L265.25 105.172
L268.49 79.6938
L269.151 76.5122
L291.083 57.476
L292.097 58.7136
L292.406 59.3558
L293.442 63.2843
L294.037 67.6562
L294.632 74.4777
L308.541 56.6429
L310.37 56.7138
L311.626 62.1671
L311.913 69.9504
L312.618 123.083
L316.035 146.887
L316.983 118.68
L322.978 65.7842
L323 65.7992
L324.279 66.7275
L325.094 66.9694
L328.665 72.6552
L335.564 163.58
L335.586 163.317
L337.791 118.492
L339.752 89.5944
L339.929 88.3623
L340.458 85.9463
L347.203 84.3562
L347.225 84.6676
L353.485 129.299
L353.507 128.785
L355.424 98.9159
L358.576 89.4195
L361.684 81.0845
L366.622 75.8589
L371.383 73.4741
L374.05 72.6509
L382.845 88.4937
L387.584 103.013
L393.866 125.535
L398.032 136.777
L399.421 138.975
L401.338 141.065
L407.709 138.464
L420.625 99.5674
L420.648 99.6584
L425.056 120.376
L432.925 79.5982
L433.388 73.4488
L436.518 57.2121
L438.788 56.726
L440.265 56.7209
L444.233 59.8478
L446.371 123.362
L448.509 291.569
L458.891 137.541
L460.39 127.852
L468.038 95.6008
L474.783 96.1552
L476.04 97.1712
L480.162 99.9468
L480.316 100.271
L493.497 118.047
L498.479 101.209
L503.13 92.9834
L509.081 82.8582
L509.456 82.6623
L511.704 82.8829
L518.581 90.6729
L520.014 91.8328
L525.26 110.003
L528.589 108.415
L530.176 96.3491
L534.342 74.1644
L537.934 69.064
L542.056 84.231
L543.092 107.745
L545.561 219.512
L552.152 128.435
L553.849 78.5963
L555.061 65.7901
L559.955 57.0923
L560.638 56.9601
L575.384 83.4942
L577.963 120.762
L585.524 58.2459
L585.876 57.6455
L587.662 56.6615
L599.961 56.5697
L600.424 58.6224
L602.166 132.744
L602.188 131.014
L602.827 75.0714
L603.312 58.9681
L603.753 56.72
L604.171 56.5143
L605.45 56.5273
L608.117 57.8875
L615.722 138.589
L618.874 132.578
L620.483 122.254
L624.186 88.8161
L626.324 76.2707
L640.894 56.8258
L645.897 56.6404
L655.398 57.8988
L656.015 59.0967
L658.263 83.1356
L658.373 85.6511
L659.409 102.695
L662.628 59.4153
L662.914 58.1264
L664.744 57.0746
L669.527 82.9835
L671.004 83.7176
L678.057 65.1354
L694.677 57.8817
L697.697 66.0502
L699.791 76.0183
L703.296 78.8238
L705.456 75.1119
L708.806 68.5125
L709.423 69.2084
L709.578 69.5824
L712.796 100.007
L714.339 116.53
L716.234 105.853
L718.483 81.0896
L721.216 65.7404
L722.076 63.2052
L724.721 63.2191
L725.007 63.9514
L726.219 68.2235
L729.085 91.2289
L731.399 132.945
L733.185 172.62
L740.106 95.1876
L740.525 95.4377
L741.385 97.7723
L744.713 116.687
L745.44 119.212
L747.623 125.904
L750.003 115.176
L750.422 110.563
L752.384 92.0201
L756.021 79.3726
L756.175 79.3602
L761.267 90.4598
L767.747 105.048
L767.747 105.048" style="fill:none;opacity:0.5;stroke:#ff0000;stroke-linecap:square;"/>
   </g>
   <g id="line2d_5">
    <path clip-path="url(#p9fd4257182)" d="
M116.685 98.7128
L118.095 108.028
L124.951 87.7169
L125.744 80.8534
L127.463 70.8242
L135.707 71.6304
L136.501 74.5172
L140.733 121.657
L140.909 125.156
L147.367 61.8273
L148.47 59.0306
L149.021 58.3459
L150.762 57.5358
L153.76 57.7328
L156.339 58.5247
L170.666 57.0036
L176.331 56.8279
L180.012 58.0548
L181.687 59.4331
L183.407 66.6736
L184.046 76.0595
L186.691 142.264
L189.116 85.2098
L190.504 67.2135
L192.113 62.2645
L192.664 62.1589
L194.692 64.2038
L197.425 66.3924
L198.902 64.5614
L203.465 57.8016
L204.016 57.4756
L205.206 57.0534
L206.485 56.8532
L209.637 56.8025
L217.087 57.2918
L223.083 64.5372
L228.527 107.87
L229.431 108.27
L229.453 108.216
L232.12 119.895
L234.038 250.02
L235.096 304.737
L235.999 317.047
L237.322 321.821
L237.564 321.998
L239.813 322.097
L241.664 321.991
L247.704 321.72
L248.982 321.599
L249.886 321.772
L250.173 321.88
L255.242 320.811
L260.092 110.791
L262.957 88.1625
L265.25 71.065
L268.49 61.8769
L269.151 61.019
L291.061 75.3362
L291.083 75.1898
L292.428 67.8765
L293.464 64.1248
L294.059 62.5455
L294.654 61.3566
L308.541 57.3123
L308.739 58.0072
L309.07 60.1744
L310.37 77.8587
L311.626 75.554
L311.913 72.9977
L312.618 67.7857
L316.277 57.881
L316.983 57.0728
L323 60.5906
L323.706 63.6627
L324.279 66.7704
L325.094 70.2816
L328.665 75.5622
L335.586 82.2394
L337.791 84.606
L339.73 82.2063
L340.392 80.0826
L340.458 79.8432
L347.225 58.6597
L353.507 60.7315
L355.424 73.34
L357.474 88.8555
L358.576 92.8943
L361.684 87.2955
L366.6 76.6451
L366.622 76.6553
L371.361 86.0576
L374.05 96.1372
L382.845 126.534
L387.584 119.106
L393.866 82.0006
L398.032 61.974
L398.605 60.5917
L399.421 59.1201
L401.338 57.2969
L407.709 56.5036
L420.648 57.8695
L425.056 63.1837
L432.925 97.6078
L433.366 97.6766
L433.388 97.6625
L436.518 88.2216
L438.788 85.3817
L440.265 86.3995
L444.233 104.439
L446.371 129.62
L448.487 139.737
L448.509 139.693
L458.891 79.0717
L460.39 77.6923
L468.038 75.2399
L474.783 94.541
L476.04 100.363
L480.316 116.22
L493.497 133.67
L498.479 99.1075
L503.13 84.873
L509.081 74.716
L509.456 74.6103
L511.704 75.4384
L519.794 90.9847
L520.036 91.5156
L525.282 108.133
L528.589 104.183
L530.176 93.5282
L534.342 69.4586
L537.934 62.7524
L542.056 63.1915
L543.092 63.9254
L545.561 66.2462
L552.152 69.7222
L555.061 67.8063
L559.955 68.5946
L560.638 69.8272
L575.362 116.444
L575.384 116.418
L577.544 112.657
L585.876 93.5717
L587.684 84.8786
L599.521 56.7037
L599.543 56.7311
L599.961 58.3577
L600.424 65.822
L602.166 74.5066
L602.188 74.1727
L602.827 66.1654
L603.29 62.4449
L603.731 60.2014
L604.149 58.8872
L605.45 57.3128
L608.117 58.4369
L617.86 84.7927
L618.874 84.6776
L620.483 81.8912
L624.186 69.3206
L626.324 64.5629
L640.872 56.5211
L645.258 57.8592
L645.897 58.7656
L653.348 85.4528
L655.398 89.1892
L656.015 89.0161
L658.373 82.7467
L659.409 77.7505
L662.628 66.9186
L662.914 66.557
L664.744 67.278
L669.527 79.1991
L671.004 81.1448
L678.079 66.3719
L694.677 56.833
L697.697 60.4975
L699.791 67.5517
L703.296 80.147
L705.456 79.3636
L708.806 70.7395
L709.423 70.7627
L709.578 70.9217
L712.796 85.367
L714.339 91.2642
L716.234 85.1924
L718.483 75.6386
L721.216 74.5004
L722.076 75.4276
L724.699 82.7773
L724.985 84.2642
L726.197 93.0444
L729.085 123.738
L731.399 138.033
L732.7 136.481
L733.185 132.908
L740.084 59.2084
L740.106 59.2137
L740.525 59.353
L741.385 59.9365
L744.713 82.1108
L745.44 103.917
L747.623 146.796
L750.422 141.971
L752.384 122.945
L756.021 98.1067
L756.175 97.9064
L761.289 97.2224
L767.747 96.1095
L771.516 87.8423
L771.516 87.8423" style="fill:none;opacity:0.5;stroke:#0000ff;stroke-linecap:square;"/>
   </g>
   <g id="line2d_6">
    <path clip-path="url(#p9fd4257182)" d="
M116.685 116.103
L118.095 108.022
L124.973 85.697
L125.766 85.1221
L127.463 84.4848
L135.729 65.147
L136.501 62.8878
L147.367 64.4074
L149.021 70.0035
L150.762 79.9375
L153.76 128.75
L153.782 128.241
L155.699 65.1092
L156.361 58.3839
L167.206 56.7265
L168.594 56.8509
L170.666 57.4988
L174.876 65.0856
L176.331 73.2301
L179.99 58.3227
L180.012 58.3099
L181.004 58.006
L181.687 58.0041
L183.407 57.0075
L184.046 56.8999
L186.669 63.4889
L186.691 64.0784
L188.653 106.442
L188.675 105.904
L189.116 97.7117
L192.091 75.7616
L192.113 75.772
L192.664 77.7246
L194.472 75.0966
L194.692 71.8958
L197.425 57.9242
L198.902 57.7661
L203.443 68.0671
L203.465 68.0297
L204.016 66.6176
L205.206 62.1187
L206.485 58.4797
L208.314 56.8575
L209.637 56.7071
L217.087 56.9208
L223.083 61.0214
L228.527 123.121
L229.453 118.535
L232.098 99.4284
L232.12 99.4809
L234.038 121.195
L235.096 179.366
L235.999 297.638
L237.322 322.393
L237.564 322.439
L239.813 322.329
L240.871 322.117
L250.173 321.954
L255.242 319.871
L260.092 106.618
L262.957 114.941
L265.25 106.399
L269.151 96.326
L291.083 77.2604
L292.119 74.9742
L292.406 73.889
L294.654 62.875
L308.541 56.5228
L308.739 56.6939
L309.07 59.466
L310.084 100.975
L310.26 99.0471
L310.37 95.9007
L311.626 57.4957
L311.913 56.7215
L312.596 56.5056
L316.983 56.9085
L325.094 57.0784
L328.665 58.5179
L335.564 120.628
L335.586 121.938
L337.769 157.691
L339.929 87.9964
L340.458 78.5571
L347.225 61.9298
L353.507 103.81
L355.402 107.335
L355.424 107.304
L357.474 101.806
L358.576 98.4002
L361.684 90.7681
L366.556 94.3511
L366.622 94.6149
L371.383 126.911
L374.05 142.666
L382.845 82.0242
L387.562 72.2074
L387.584 72.2222
L393.866 90.6562
L398.01 92.5488
L398.032 92.4822
L398.605 90.5637
L399.421 87.3069
L401.338 78.3268
L407.709 58.7324
L420.625 57.0952
L425.056 60.9267
L432.925 99.7496
L433.388 100.993
L436.518 100.314
L438.788 101.933
L440.265 106.957
L444.233 148.686
L446.371 192.391
L448.509 215.279
L458.891 181.205
L460.39 169.751
L468.038 121.439
L476.04 109.865
L480.316 97.0523
L493.497 60.2403
L498.479 59.9906
L503.13 61.4674
L509.081 70.8094
L509.456 71.9638
L518.581 104.021
L520.014 107.215
L525.282 121.825
L528.589 103.914
L530.176 85.8697
L534.342 60.3385
L537.934 57.1958
L542.056 56.8563
L543.092 56.9015
L545.561 57.2318
L552.152 63.7544
L553.849 72.2081
L555.061 84.3327
L559.933 192.247
L560.638 205.12
L575.362 61.9424
L577.544 59.4632
L577.963 59.2826
L585.524 86.1299
L585.876 89.73
L587.684 112.985
L599.521 63.6523
L599.543 63.8601
L599.961 68.6786
L600.424 75.8198
L602.166 98.0178
L602.254 97.7558
L602.276 97.6555
L602.827 90.644
L604.149 61.7739
L604.171 61.5159
L605.45 57.2675
L608.117 56.7974
L615.722 56.7336
L617.86 58.6054
L618.874 63.6428
L620.483 87.1367
L624.186 167.109
L626.302 177.846
L626.324 177.825
L640.894 73.4281
L645.258 72.3938
L645.897 72.9668
L653.348 99.1032
L653.37 98.8848
L655.398 72.0271
L656.015 66.7525
L658.373 60.0028
L659.387 60.0777
L662.914 66.3657
L664.744 71.0057
L669.527 82.2839
L671.004 82.8724
L678.079 80.6838
L694.677 86.4478
L697.697 91.5616
L699.791 95.8188
L703.296 89.213
L705.456 71.6289
L708.806 60.0034
L709.578 59.3691
L712.796 58.0605
L714.339 59.4563
L716.234 64.2813
L718.483 69.4235
L721.216 67.5905
L722.076 65.6202
L724.721 64.3955
L725.007 65.0305
L726.219 70.6466
L729.107 106.835
L731.377 113.926
L731.399 113.834
L732.7 103.588
L733.185 97.8681
L740.084 58.8385
L740.503 58.8284
L741.363 58.9474
L744.713 64.4889
L747.623 82.497
L750.4 90.0254
L750.422 90.0632
L752.384 91.3222
L756.021 96.2424
L756.175 96.6403
L761.267 102.314
L767.725 87.737
L767.725 87.737" style="fill:none;opacity:0.5;stroke:#ff0000;stroke-linecap:square;"/>
   </g>
   <g id="line2d_7">
    <path clip-path="url(#p9fd4257182)" d="
M116.685 56.9251
L118.095 56.9117
L124.951 59.5443
L125.766 61.5305
L127.463 71.7024
L135.707 74.9988
L136.104 73.2513
L136.501 71.6275
L140.755 62.5643
L140.931 62.505
L147.345 71.6198
L147.367 71.5474
L148.448 62.1305
L148.58 60.8324
L149.021 58.6641
L150.762 62.794
L153.76 160.454
L153.782 159.464
L155.501 61.1124
L155.699 58.7799
L156.361 56.6363
L167.206 82.5347
L168.594 87.0298
L170.49 88.8425
L170.666 88.5072
L174.876 58.5313
L176.331 57.1061
L180.012 56.7085
L181.687 56.7416
L183.407 57.45
L184.046 58.9724
L186.669 90.1905
L186.691 90.0767
L188.675 64.3575
L189.116 62.0877
L190.504 63.1365
L192.091 76.0826
L192.113 76.0365
L192.664 71.2902
L194.56 58.9362
L194.692 58.8809
L197.425 63.5233
L198.902 79.5503
L203.443 86.8637
L204.016 74.6219
L205.206 62.1933
L206.485 58.0545
L208.314 56.7864
L209.637 56.6799
L216.845 76.5425
L217.087 79.8162
L223.083 109.384
L228.527 138.778
L229.453 137.513
L232.12 138.665
L234.038 198.08
L235.096 255.272
L235.999 295.23
L237.322 317.904
L237.564 319.011
L239.813 316.629
L240.496 315.153
L240.518 315.207
L242.039 321.257
L242.612 321.835
L243.141 322.037
L243.802 322.041
L244.309 321.863
L244.596 321.671
L245.61 320.29
L246.976 318.195
L247.417 318.044
L247.704 318.372
L247.836 318.643
L248.828 321.342
L249.247 321.793
L249.908 322.078
L250.173 322.125
L255.242 235.344
L260.092 136.322
L262.957 123.697
L265.25 111.447
L269.151 93.9527
L291.083 57.3783
L293.442 57.1446
L294.654 57.13
L308.541 60.4638
L309.07 62.0705
L310.26 68.1194
L310.37 68.9719
L311.913 85.322
L312.596 88.7437
L312.618 88.7282
L316.057 58.154
L316.277 57.8442
L316.983 57.3182
L322.978 66.6503
L323 66.635
L323.706 66.2516
L324.279 66.218
L325.094 66.9602
L328.665 73.8913
L335.564 140.241
L335.586 139.816
L337.791 88.2538
L339.752 67.9315
L339.929 67.25
L340.458 65.9358
L347.225 104.982
L353.507 118.979
L355.402 121.176
L355.424 121.11
L357.474 107.285
L358.576 97.7307
L361.684 72.4874
L366.622 57.4193
L371.383 57.2142
L374.028 58.3919
L382.845 65.5683
L387.584 81.1159
L393.866 114.782
L398.01 117.288
L398.032 117.242
L399.421 113.996
L401.338 108.762
L407.709 92.4089
L420.625 68.0806
L420.648 68.1306
L425.056 87.7691
L432.903 95.015
L433.388 91.1875
L436.518 71.7884
L438.788 65.5113
L440.265 65.2123
L444.233 76.4157
L448.509 107.896
L458.891 172.787
L460.39 172.32
L468.038 134.105
L474.783 144.865
L476.04 150.155
L480.294 171.761
L480.316 171.949
L493.497 151.225
L493.519 150.843
L498.479 96.6135
L503.108 91.7816
L509.081 91.1219
L511.704 87.6901
L518.559 76.8552
L520.014 73.0422
L525.282 62.6099
L528.589 60.4309
L530.176 60.2125
L534.342 56.9462
L537.934 56.6272
L542.056 65.8974
L543.092 77.4333
L545.561 102.124
L552.152 86.9395
L555.061 82.7544
L559.955 79.5932
L560.638 79.8015
L575.384 249.615
L577.544 313.33
L577.963 316.444
L585.524 64.8181
L585.876 59.7134
L587.684 56.6037
L599.543 56.5328
L599.961 56.8362
L600.424 59.0574
L602.166 101.69
L602.188 101.438
L602.276 100.099
L603.312 71.5345
L603.753 64.5655
L604.171 61.3954
L605.45 58.449
L608.095 65.5649
L608.117 65.7613
L615.7 72.2083
L617.86 71.5234
L618.874 72.0773
L620.483 73.201
L624.186 75.1125
L626.324 73.4669
L640.894 62.6811
L645.258 94.6707
L645.897 105.042
L653.348 148.249
L653.37 147.928
L656.015 96.4028
L658.373 68.8306
L659.409 63.6832
L662.628 58.5203
L662.914 58.4309
L664.744 59.2444
L669.527 87.8364
L671.004 99.9017
L678.079 89.7925
L694.677 87.6779
L697.697 98.9222
L699.791 110.908
L703.273 114.545
L703.296 114.458
L705.456 99.5739
L708.806 70.7218
L709.578 66.3936
L712.796 58.0945
L714.339 57.2788
L716.234 57.039
L718.483 57.0898
L722.076 56.7072
L724.721 57.4315
L725.007 58.1581
L726.219 67.6195
L729.107 127.281
L731.377 137.332
L731.399 137.148
L733.185 115.206
L740.106 80.5539
L740.525 79.3493
L741.385 77.4432
L744.713 71.9371
L745.44 70.3499
L747.623 64.7014
L750.003 61.8548
L750.422 61.8292
L756.175 64.9694
L761.289 65.8701
L767.747 93.9388
L771.494 112.855
L771.494 112.855" style="fill:none;opacity:0.5;stroke:#0000ff;stroke-linecap:square;"/>
   </g>
   <g id="line2d_8">
    <path clip-path="url(#p9fd4257182)" d="
M113.797 57.1177
L114.26 57.2958
L116.685 59.919
L118.095 64.3542
L124.951 89.5188
L124.973 89.4281
L125.766 85.6516
L127.463 76.1912
L135.729 57.7409
L136.501 57.5137
L148.58 57.2877
L149.021 57.563
L150.762 62.9061
L153.782 107.468
L155.501 97.948
L156.339 86.6333
L163.304 57.9159
L167.206 57.1906
L170.688 57.0221
L174.876 56.987
L176.331 56.8359
L179.88 57.7634
L180.012 58.0228
L181.004 63.6882
L181.687 76.2725
L183.407 66.7153
L184.046 58.7556
L186.691 57.2144
L189.116 57.4096
L192.664 57.0618
L194.692 57.1071
L197.425 57.4785
L198.902 57.1087
L203.465 56.7169
L204.016 56.8313
L205.206 57.6244
L206.353 61.1107
L206.485 61.9553
L208.314 88.9118
L209.615 93.7035
L209.637 93.604
L217.087 73.3282
L223.083 70.8108
L228.527 103.119
L229.453 100.55
L232.098 91.5791
L232.12 91.7501
L234.038 161.311
L235.096 263.75
L235.999 313.335
L237.322 322.032
L237.564 322.18
L239.813 322.013
L240.518 321.132
L240.893 320.214
L241.907 317.522
L242.039 317.349
L242.326 317.247
L242.612 317.529
L243.141 318.821
L243.802 320.444
L244.309 321.21
L244.596 321.488
L245.61 321.914
L246.91 321.836
L249.247 321.521
L250.173 321.336
L255.242 200.52
L260.092 89.4038
L262.957 89.8506
L265.25 68.5071
L268.49 56.5764
L269.151 56.5151
L291.061 56.7206
L294.059 57.0525
L294.654 57.0301
L308.541 61.3746
L309.07 62.4651
L310.238 66.5176
L310.37 67.2784
L311.604 79.7284
L311.891 84.3601
L312.596 103.497
L316.057 63.1815
L316.277 59.271
L316.983 56.5954
L324.257 57.0201
L328.665 56.9451
L335.564 62.3343
L337.769 94.8951
L337.791 94.6941
L339.752 71.6418
L339.929 70.8422
L340.392 70.2084
L340.458 70.2816
L347.225 90.5346
L353.485 108.679
L353.507 108.597
L355.424 96.7707
L357.474 79.2893
L358.576 72.3063
L361.684 61.6681
L366.622 57.7472
L371.383 57.3333
L374.05 57.311
L382.845 56.6389
L387.584 56.6052
L393.844 57.221
L398.032 65.1702
L398.605 68.5804
L399.421 75.1557
L401.338 99.2025
L407.687 157.791
L407.709 157.636
L420.648 62.0387
L425.056 60.428
L432.925 84.3487
L433.388 86.3711
L440.265 115.211
L444.233 132.88
L446.371 140.547
L448.509 145.352
L458.891 143.225
L460.39 141.057
L468.038 122.453
L474.783 148.532
L476.04 155.847
L480.294 177.17
L480.316 177.354
L493.519 91.6644
L498.479 65.8115
L503.13 65.8234
L509.081 70.0085
L509.456 69.9116
L511.704 68.8453
L518.559 65.9491
L520.014 66.0319
L525.282 68.9545
L528.589 72.4841
L530.176 74.3746
L534.342 74.2781
L537.934 72.3533
L542.056 76.02
L543.092 78.5823
L545.561 87.2097
L552.152 107.274
L553.849 109.786
L555.061 109.787
L559.955 82.2072
L560.638 76.3803
L575.384 112.332
L577.941 133.781
L577.963 133.907
L585.524 61.2967
L585.876 60.707
L587.684 58.6897
L599.521 61.5462
L599.543 61.8757
L599.961 71.8682
L600.424 91.7571
L602.166 131.333
L602.188 130.732
L602.276 128.145
L603.312 93.3966
L603.753 84.3477
L604.171 80.3478
L605.45 74.0607
L608.095 66.4275
L615.722 153.33
L617.838 159.286
L618.874 157.731
L620.483 150.555
L624.186 122.783
L626.324 107.908
L640.872 83.9756
L645.258 100.591
L645.897 103.959
L653.348 87.8604
L655.398 87.9449
L656.015 88.2206
L658.373 87.5039
L659.409 85.9925
L662.628 73.3111
L662.914 71.7129
L664.744 64.1056
L669.527 59.3891
L671.004 59.3567
L678.079 76.7676
L694.655 60.7335
L697.697 59.3894
L699.791 63.3795
L703.296 83.926
L705.456 99.7122
L708.806 111.698
L709.578 112.317
L712.796 105.591
L714.339 91.966
L716.234 74.0677
L718.483 64.4066
L721.216 63.6227
L722.076 64.6723
L725.007 71.5416
L726.219 73.2537
L729.107 80.1814
L731.399 117.794
L732.7 152.165
L733.185 161.046
L740.106 63.4634
L740.525 63.5058
L741.385 64.2465
L745.44 77.6441
L747.623 74.9118
L750.003 70.1271
L750.422 70.267
L752.384 74.3158
L755.999 79.6476
L756.021 79.632
L756.175 79.5273
L761.289 87.2719
L767.747 132.543
L767.747 132.543" style="fill:none;opacity:0.5;stroke:#0000ff;stroke-linecap:square;"/>
   </g>
   <g id="patch_8">
    <path d="
M108 43.2
L777.6 43.2" style="fill:none;stroke:#000000;stroke-linecap:square;stroke-linejoin:miter;"/>
   </g>
   <g id="patch_9">
    <path d="
M777.6 322.473
L777.6 43.2" style="fill:none;stroke:#000000;stroke-linecap:square;stroke-linejoin:miter;"/>
   </g>
   <g id="patch_10">
    <path d="
M108 322.473
L777.6 322.473" style="fill:none;stroke:#000000;stroke-linecap:square;stroke-linejoin:miter;"/>
   </g>
   <g id="patch_11">
    <path d="
M108 322.473
L108 43.2" style="fill:none;stroke:#000000;stroke-linecap:square;stroke-linejoin:miter;"/>
   </g>
   <g id="matplotlib.axis_1">
    <g id="ytick_1">
     <g id="line2d_9">
      <defs>
       <path d="
M0 0
L4 0" id="m728421d6d4" style="stroke:#000000;stroke-width:0.5;"/>
      </defs>
      <g>
       <use style="stroke:#000000;stroke-width:0.5;" x="108.0" xlink:href="#m728421d6d4" y="322.472727273"/>
      </g>
     </g>
     <g id="line2d_10">
      <defs>
       <path d="
M0 0
L-4 0" id="mcb0005524f" style="stroke:#000000;stroke-width:0.5;"/>
      </defs>
      <g>
       <use style="stroke:#000000;stroke-width:0.5;" x="777.6" xlink:href="#mcb0005524f" y="322.472727273"/>
      </g>
     </g>
     <g id="text_1">
      <!-- 0 -->
      <defs>
       <path d="
M31.7812 66.4062
Q24.1719 66.4062 20.3281 58.9062
Q16.5 51.4219 16.5 36.375
Q16.5 21.3906 20.3281 13.8906
Q24.1719 6.39062 31.7812 6.39062
Q39.4531 6.39062 43.2812 13.8906
Q47.125 21.3906 47.125 36.375
Q47.125 51.4219 43.2812 58.9062
Q39.4531 66.4062 31.7812 66.4062
M31.7812 74.2188
Q44.0469 74.2188 50.5156 64.5156
Q56.9844 54.8281 56.9844 36.375
Q56.9844 17.9688 50.5156 8.26562
Q44.0469 -1.42188 31.7812 -1.42188
Q19.5312 -1.42188 13.0625 8.26562
Q6.59375 17.9688 6.59375 36.375
Q6.59375 54.8281 13.0625 64.5156
Q19.5312 74.2188 31.7812 74.2188" id="DejaVuSans-30"/>
      </defs>
      <g transform="translate(97.953125 325.783977273)scale(0.12 -0.12)">
       <use xlink:href="#DejaVuSans-30"/>
      </g>
     </g>
    </g>
    <g id="ytick_2">
     <g id="line2d_11">
      <g>
       <use style="stroke:#000000;stroke-width:0.5;" x="108.0" xlink:href="#m728421d6d4" y="269.277922078"/>
      </g>
     </g>
     <g id="line2d_12">
      <g>
       <use style="stroke:#000000;stroke-width:0.5;" x="777.6" xlink:href="#mcb0005524f" y="269.277922078"/>
      </g>
     </g>
     <g id="text_2">
      <!-- 20 -->
      <defs>
       <path d="
M19.1875 8.29688
L53.6094 8.29688
L53.6094 0
L7.32812 0
L7.32812 8.29688
Q12.9375 14.1094 22.625 23.8906
Q32.3281 33.6875 34.8125 36.5312
Q39.5469 41.8438 41.4219 45.5312
Q43.3125 49.2188 43.3125 52.7812
Q43.3125 58.5938 39.2344 62.25
Q35.1562 65.9219 28.6094 65.9219
Q23.9688 65.9219 18.8125 64.3125
Q13.6719 62.7031 7.8125 59.4219
L7.8125 69.3906
Q13.7656 71.7812 18.9375 73
Q24.125 74.2188 28.4219 74.2188
Q39.75 74.2188 46.4844 68.5469
Q53.2188 62.8906 53.2188 53.4219
Q53.2188 48.9219 51.5312 44.8906
Q49.8594 40.875 45.4062 35.4062
Q44.1875 33.9844 37.6406 27.2188
Q31.1094 20.4531 19.1875 8.29688" id="DejaVuSans-32"/>
      </defs>
      <g transform="translate(90.40625 272.589172078)scale(0.12 -0.12)">
       <use xlink:href="#DejaVuSans-32"/>
       <use x="63.623046875" xlink:href="#DejaVuSans-30"/>
      </g>
     </g>
    </g>
    <g id="ytick_3">
     <g id="line2d_13">
      <g>
       <use style="stroke:#000000;stroke-width:0.5;" x="108.0" xlink:href="#m728421d6d4" y="216.083116883"/>
      </g>
     </g>
     <g id="line2d_14">
      <g>
       <use style="stroke:#000000;stroke-width:0.5;" x="777.6" xlink:href="#mcb0005524f" y="216.083116883"/>
      </g>
     </g>
     <g id="text_3">
      <!-- 40 -->
      <defs>
       <path d="
M37.7969 64.3125
L12.8906 25.3906
L37.7969 25.3906
z

M35.2031 72.9062
L47.6094 72.9062
L47.6094 25.3906
L58.0156 25.3906
L58.0156 17.1875
L47.6094 17.1875
L47.6094 0
L37.7969 0
L37.7969 17.1875
L4.89062 17.1875
L4.89062 26.7031
z
" id="DejaVuSans-34"/>
      </defs>
      <g transform="translate(90.11375 219.394366883)scale(0.12 -0.12)">
       <use xlink:href="#DejaVuSans-34"/>
       <use x="63.623046875" xlink:href="#DejaVuSans-30"/>
      </g>
     </g>
    </g>
    <g id="ytick_4">
     <g id="line2d_15">
      <g>
       <use style="stroke:#000000;stroke-width:0.5;" x="108.0" xlink:href="#m728421d6d4" y="162.888311688"/>
      </g>
     </g>
     <g id="line2d_16">
      <g>
       <use style="stroke:#000000;stroke-width:0.5;" x="777.6" xlink:href="#mcb0005524f" y="162.888311688"/>
      </g>
     </g>
     <g id="text_4">
      <!-- 60 -->
      <defs>
       <path d="
M33.0156 40.375
Q26.375 40.375 22.4844 35.8281
Q18.6094 31.2969 18.6094 23.3906
Q18.6094 15.5312 22.4844 10.9531
Q26.375 6.39062 33.0156 6.39062
Q39.6562 6.39062 43.5312 10.9531
Q47.4062 15.5312 47.4062 23.3906
Q47.4062 31.2969 43.5312 35.8281
Q39.6562 40.375 33.0156 40.375
M52.5938 71.2969
L52.5938 62.3125
Q48.875 64.0625 45.0938 64.9844
Q41.3125 65.9219 37.5938 65.9219
Q27.8281 65.9219 22.6719 59.3281
Q17.5312 52.7344 16.7969 39.4062
Q19.6719 43.6562 24.0156 45.9219
Q28.375 48.1875 33.5938 48.1875
Q44.5781 48.1875 50.9531 41.5156
Q57.3281 34.8594 57.3281 23.3906
Q57.3281 12.1562 50.6875 5.35938
Q44.0469 -1.42188 33.0156 -1.42188
Q20.3594 -1.42188 13.6719 8.26562
Q6.98438 17.9688 6.98438 36.375
Q6.98438 53.6562 15.1875 63.9375
Q23.3906 74.2188 37.2031 74.2188
Q40.9219 74.2188 44.7031 73.4844
Q48.4844 72.75 52.5938 71.2969" id="DejaVuSans-36"/>
      </defs>
      <g transform="translate(90.365 166.199561688)scale(0.12 -0.12)">
       <use xlink:href="#DejaVuSans-36"/>
       <use x="63.623046875" xlink:href="#DejaVuSans-30"/>
      </g>
     </g>
    </g>
    <g id="ytick_5">
     <g id="line2d_17">
      <g>
       <use style="stroke:#000000;stroke-width:0.5;" x="108.0" xlink:href="#m728421d6d4" y="109.693506494"/>
      </g>
     </g>
     <g id="line2d_18">
      <g>
       <use style="stroke:#000000;stroke-width:0.5;" x="777.6" xlink:href="#mcb0005524f" y="109.693506494"/>
      </g>
     </g>
     <g id="text_5">
      <!-- 80 -->
      <defs>
       <path d="
M31.7812 34.625
Q24.75 34.625 20.7188 30.8594
Q16.7031 27.0938 16.7031 20.5156
Q16.7031 13.9219 20.7188 10.1562
Q24.75 6.39062 31.7812 6.39062
Q38.8125 6.39062 42.8594 10.1719
Q46.9219 13.9688 46.9219 20.5156
Q46.9219 27.0938 42.8906 30.8594
Q38.875 34.625 31.7812 34.625
M21.9219 38.8125
Q15.5781 40.375 12.0312 44.7188
Q8.5 49.0781 8.5 55.3281
Q8.5 64.0625 14.7188 69.1406
Q20.9531 74.2188 31.7812 74.2188
Q42.6719 74.2188 48.875 69.1406
Q55.0781 64.0625 55.0781 55.3281
Q55.0781 49.0781 51.5312 44.7188
Q48 40.375 41.7031 38.8125
Q48.8281 37.1562 52.7969 32.3125
Q56.7812 27.4844 56.7812 20.5156
Q56.7812 9.90625 50.3125 4.23438
Q43.8438 -1.42188 31.7812 -1.42188
Q19.7344 -1.42188 13.25 4.23438
Q6.78125 9.90625 6.78125 20.5156
Q6.78125 27.4844 10.7812 32.3125
Q14.7969 37.1562 21.9219 38.8125
M18.3125 54.3906
Q18.3125 48.7344 21.8438 45.5625
Q25.3906 42.3906 31.7812 42.3906
Q38.1406 42.3906 41.7188 45.5625
Q45.3125 48.7344 45.3125 54.3906
Q45.3125 60.0625 41.7188 63.2344
Q38.1406 66.4062 31.7812 66.4062
Q25.3906 66.4062 21.8438 63.2344
Q18.3125 60.0625 18.3125 54.3906" id="DejaVuSans-38"/>
      </defs>
      <g transform="translate(90.340625 113.004756494)scale(0.12 -0.12)">
       <use xlink:href="#DejaVuSans-38"/>
       <use x="63.623046875" xlink:href="#DejaVuSans-30"/>
      </g>
     </g>
    </g>
    <g id="ytick_6">
     <g id="line2d_19">
      <g>
       <use style="stroke:#000000;stroke-width:0.5;" x="108.0" xlink:href="#m728421d6d4" y="56.4987012987"/>
      </g>
     </g>
     <g id="line2d_20">
      <g>
       <use style="stroke:#000000;stroke-width:0.5;" x="777.6" xlink:href="#mcb0005524f" y="56.4987012987"/>
      </g>
     </g>
     <g id="text_6">
      <!-- 100 -->
      <defs>
       <path d="
M12.4062 8.29688
L28.5156 8.29688
L28.5156 63.9219
L10.9844 60.4062
L10.9844 69.3906
L28.4219 72.9062
L38.2812 72.9062
L38.2812 8.29688
L54.3906 8.29688
L54.3906 0
L12.4062 0
z
" id="DejaVuSans-31"/>
      </defs>
      <g transform="translate(83.21 59.8099512987)scale(0.12 -0.12)">
       <use xlink:href="#DejaVuSans-31"/>
       <use x="63.623046875" xlink:href="#DejaVuSans-30"/>
       <use x="127.24609375" xlink:href="#DejaVuSans-30"/>
      </g>
     </g>
    </g>
    <g id="text_7">
     <!-- Methylation -->
     <defs>
      <path d="
M9.8125 72.9062
L24.5156 72.9062
L43.1094 23.2969
L61.8125 72.9062
L76.5156 72.9062
L76.5156 0
L66.8906 0
L66.8906 64.0156
L48.0938 14.0156
L38.1875 14.0156
L19.3906 64.0156
L19.3906 0
L9.8125 0
z
" id="DejaVuSans-4d"/>
      <path d="
M30.6094 48.3906
Q23.3906 48.3906 19.1875 42.75
Q14.9844 37.1094 14.9844 27.2969
Q14.9844 17.4844 19.1562 11.8438
Q23.3438 6.20312 30.6094 6.20312
Q37.7969 6.20312 41.9844 11.8594
Q46.1875 17.5312 46.1875 27.2969
Q46.1875 37.0156 41.9844 42.7031
Q37.7969 48.3906 30.6094 48.3906
M30.6094 56
Q42.3281 56 49.0156 48.375
Q55.7188 40.7656 55.7188 27.2969
Q55.7188 13.875 49.0156 6.21875
Q42.3281 -1.42188 30.6094 -1.42188
Q18.8438 -1.42188 12.1719 6.21875
Q5.51562 13.875 5.51562 27.2969
Q5.51562 40.7656 12.1719 48.375
Q18.8438 56 30.6094 56" id="DejaVuSans-6f"/>
      <path d="
M54.8906 33.0156
L54.8906 0
L45.9062 0
L45.9062 32.7188
Q45.9062 40.4844 42.875 44.3281
Q39.8438 48.1875 33.7969 48.1875
Q26.5156 48.1875 22.3125 43.5469
Q18.1094 38.9219 18.1094 30.9062
L18.1094 0
L9.07812 0
L9.07812 54.6875
L18.1094 54.6875
L18.1094 46.1875
Q21.3438 51.125 25.7031 53.5625
Q30.0781 56 35.7969 56
Q45.2188 56 50.0469 50.1719
Q54.8906 44.3438 54.8906 33.0156" id="DejaVuSans-6e"/>
      <path d="
M9.42188 75.9844
L18.4062 75.9844
L18.4062 0
L9.42188 0
z
" id="DejaVuSans-6c"/>
      <path d="
M32.1719 -5.07812
Q28.375 -14.8438 24.75 -17.8125
Q21.1406 -20.7969 15.0938 -20.7969
L7.90625 -20.7969
L7.90625 -13.2812
L13.1875 -13.2812
Q16.8906 -13.2812 18.9375 -11.5156
Q21 -9.76562 23.4844 -3.21875
L25.0938 0.875
L2.98438 54.6875
L12.5 54.6875
L29.5938 11.9219
L46.6875 54.6875
L56.2031 54.6875
z
" id="DejaVuSans-79"/>
      <path d="
M54.8906 33.0156
L54.8906 0
L45.9062 0
L45.9062 32.7188
Q45.9062 40.4844 42.875 44.3281
Q39.8438 48.1875 33.7969 48.1875
Q26.5156 48.1875 22.3125 43.5469
Q18.1094 38.9219 18.1094 30.9062
L18.1094 0
L9.07812 0
L9.07812 75.9844
L18.1094 75.9844
L18.1094 46.1875
Q21.3438 51.125 25.7031 53.5625
Q30.0781 56 35.7969 56
Q45.2188 56 50.0469 50.1719
Q54.8906 44.3438 54.8906 33.0156" id="DejaVuSans-68"/>
      <path d="
M9.42188 54.6875
L18.4062 54.6875
L18.4062 0
L9.42188 0
z

M9.42188 75.9844
L18.4062 75.9844
L18.4062 64.5938
L9.42188 64.5938
z
" id="DejaVuSans-69"/>
      <path d="
M18.3125 70.2188
L18.3125 54.6875
L36.8125 54.6875
L36.8125 47.7031
L18.3125 47.7031
L18.3125 18.0156
Q18.3125 11.3281 20.1406 9.42188
Q21.9688 7.51562 27.5938 7.51562
L36.8125 7.51562
L36.8125 0
L27.5938 0
Q17.1875 0 13.2344 3.875
Q9.28125 7.76562 9.28125 18.0156
L9.28125 47.7031
L2.6875 47.7031
L2.6875 54.6875
L9.28125 54.6875
L9.28125 70.2188
z
" id="DejaVuSans-74"/>
      <path d="
M56.2031 29.5938
L56.2031 25.2031
L14.8906 25.2031
Q15.4844 15.9219 20.4844 11.0625
Q25.4844 6.20312 34.4219 6.20312
Q39.5938 6.20312 44.4531 7.46875
Q49.3125 8.73438 54.1094 11.2812
L54.1094 2.78125
Q49.2656 0.734375 44.1875 -0.34375
Q39.1094 -1.42188 33.8906 -1.42188
Q20.7969 -1.42188 13.1562 6.1875
Q5.51562 13.8125 5.51562 26.8125
Q5.51562 40.2344 12.7656 48.1094
Q20.0156 56 32.3281 56
Q43.3594 56 49.7812 48.8906
Q56.2031 41.7969 56.2031 29.5938
M47.2188 32.2344
Q47.125 39.5938 43.0938 43.9844
Q39.0625 48.3906 32.4219 48.3906
Q24.9062 48.3906 20.3906 44.1406
Q15.875 39.8906 15.1875 32.1719
z
" id="DejaVuSans-65"/>
      <path d="
M34.2812 27.4844
Q23.3906 27.4844 19.1875 25
Q14.9844 22.5156 14.9844 16.5
Q14.9844 11.7188 18.1406 8.90625
Q21.2969 6.10938 26.7031 6.10938
Q34.1875 6.10938 38.7031 11.4062
Q43.2188 16.7031 43.2188 25.4844
L43.2188 27.4844
z

M52.2031 31.2031
L52.2031 0
L43.2188 0
L43.2188 8.29688
Q40.1406 3.32812 35.5469 0.953125
Q30.9531 -1.42188 24.3125 -1.42188
Q15.9219 -1.42188 10.9531 3.29688
Q6 8.01562 6 15.9219
Q6 25.1406 12.1719 29.8281
Q18.3594 34.5156 30.6094 34.5156
L43.2188 34.5156
L43.2188 35.4062
Q43.2188 41.6094 39.1406 45
Q35.0625 48.3906 27.6875 48.3906
Q23 48.3906 18.5469 47.2656
Q14.1094 46.1406 10.0156 43.8906
L10.0156 52.2031
Q14.9375 54.1094 19.5781 55.0469
Q24.2188 56 28.6094 56
Q40.4844 56 46.3438 49.8438
Q52.2031 43.7031 52.2031 31.2031" id="DejaVuSans-61"/>
     </defs>
     <g transform="translate(75.714375 217.149801136)rotate(-90.0)scale(0.12 -0.12)">
      <use xlink:href="#DejaVuSans-4d"/>
      <use x="86.279296875" xlink:href="#DejaVuSans-65"/>
      <use x="147.802734375" xlink:href="#DejaVuSans-74"/>
      <use x="187.01171875" xlink:href="#DejaVuSans-68"/>
      <use x="250.390625" xlink:href="#DejaVuSans-79"/>
      <use x="309.5703125" xlink:href="#DejaVuSans-6c"/>
      <use x="337.353515625" xlink:href="#DejaVuSans-61"/>
      <use x="398.6328125" xlink:href="#DejaVuSans-74"/>
      <use x="437.841796875" xlink:href="#DejaVuSans-69"/>
      <use x="465.625" xlink:href="#DejaVuSans-6f"/>
      <use x="526.806640625" xlink:href="#DejaVuSans-6e"/>
     </g>
    </g>
   </g>
  </g>
  <g id="axes_2">
   <g id="patch_12">
    <path d="
M108 388.8
L777.6 388.8
L777.6 353.891
L108 353.891
z
" style="fill:#ffffff;"/>
   </g>
   <g id="line2d_21">
    <path clip-path="url(#pc82b1f09f0)" d="
M108 371.345
L777.6 371.345" style="fill:none;stroke:#000000;stroke-linecap:square;"/>
   </g>
   <g id="line2d_22">
    <path clip-path="url(#pc82b1f09f0)" d="
M130.042 371.345
L755.558 371.345" style="fill:none;stroke:#008000;stroke-linecap:square;stroke-width:3;"/>
   </g>
   <g id="patch_13">
    <path clip-path="url(#pc82b1f09f0)" d="
M750.973 388.8
L755.558 388.8
L755.558 353.891
L750.973 353.891
z
" style="fill:#008000;"/>
   </g>
   <g id="patch_14">
    <path clip-path="url(#pc82b1f09f0)" d="
M399.046 388.8
L401.625 388.8
L401.625 353.891
L399.046 353.891
z
" style="fill:#008000;"/>
   </g>
   <g id="patch_15">
    <path clip-path="url(#pc82b1f09f0)" d="
M244.574 388.8
L250.217 388.8
L250.217 353.891
L244.574 353.891
z
" style="fill:#008000;"/>
   </g>
   <g id="patch_16">
    <path clip-path="url(#pc82b1f09f0)" d="
M205.735 388.8
L210.056 388.8
L210.056 353.891
L205.735 353.891
z
" style="fill:#008000;"/>
   </g>
   <g id="patch_17">
    <path clip-path="url(#pc82b1f09f0)" d="
M130.042 388.8
L169.939 388.8
L169.939 353.891
L130.042 353.891
z
" style="fill:#008000;"/>
   </g>
   <g id="patch_18">
    <path d="
M108 353.891
L777.6 353.891" style="fill:none;"/>
   </g>
   <g id="patch_19">
    <path d="
M777.6 388.8
L777.6 353.891" style="fill:none;"/>
   </g>
   <g id="patch_20">
    <path d="
M108 388.8
L777.6 388.8" style="fill:none;"/>
   </g>
   <g id="patch_21">
    <path d="
M108 388.8
L108 353.891" style="fill:none;"/>
   </g>
   <g id="matplotlib.axis_2">
    <g id="xtick_1">
     <g id="line2d_23">
      <defs>
       <path d="
M0 0
L0 -4" id="m93b0483c22" style="stroke:#000000;stroke-width:0.5;"/>
      </defs>
      <g>
       <use style="stroke:#000000;stroke-width:0.5;" x="133.040015801" xlink:href="#m93b0483c22" y="388.8"/>
      </g>
     </g>
     <g id="line2d_24">
      <defs>
       <path d="
M0 0
L0 4" id="m741efc42ff" style="stroke:#000000;stroke-width:0.5;"/>
      </defs>
      <g>
       <use style="stroke:#000000;stroke-width:0.5;" x="133.040015801" xlink:href="#m741efc42ff" y="353.890909091"/>
      </g>
     </g>
     <g id="text_8">
      <!-- 1000 -->
      <g transform="translate(118.827515801 401.918125)scale(0.12 -0.12)">
       <use xlink:href="#DejaVuSans-31"/>
       <use x="63.623046875" xlink:href="#DejaVuSans-30"/>
       <use x="127.24609375" xlink:href="#DejaVuSans-30"/>
       <use x="190.869140625" xlink:href="#DejaVuSans-30"/>
      </g>
     </g>
    </g>
    <g id="xtick_2">
     <g id="line2d_25">
      <g>
       <use style="stroke:#000000;stroke-width:0.5;" x="243.251352953" xlink:href="#m93b0483c22" y="388.8"/>
      </g>
     </g>
     <g id="line2d_26">
      <g>
       <use style="stroke:#000000;stroke-width:0.5;" x="243.251352953" xlink:href="#m741efc42ff" y="353.890909091"/>
      </g>
     </g>
     <g id="text_9">
      <!-- 2000 -->
      <g transform="translate(228.819477953 401.918125)scale(0.12 -0.12)">
       <use xlink:href="#DejaVuSans-32"/>
       <use x="63.623046875" xlink:href="#DejaVuSans-30"/>
       <use x="127.24609375" xlink:href="#DejaVuSans-30"/>
       <use x="190.869140625" xlink:href="#DejaVuSans-30"/>
      </g>
     </g>
    </g>
    <g id="xtick_3">
     <g id="line2d_27">
      <g>
       <use style="stroke:#000000;stroke-width:0.5;" x="353.462690105" xlink:href="#m93b0483c22" y="388.8"/>
      </g>
     </g>
     <g id="line2d_28">
      <g>
       <use style="stroke:#000000;stroke-width:0.5;" x="353.462690105" xlink:href="#m741efc42ff" y="353.890909091"/>
      </g>
     </g>
     <g id="text_10">
      <!-- 3000 -->
      <defs>
       <path d="
M40.5781 39.3125
Q47.6562 37.7969 51.625 33
Q55.6094 28.2188 55.6094 21.1875
Q55.6094 10.4062 48.1875 4.48438
Q40.7656 -1.42188 27.0938 -1.42188
Q22.5156 -1.42188 17.6562 -0.515625
Q12.7969 0.390625 7.625 2.20312
L7.625 11.7188
Q11.7188 9.32812 16.5938 8.10938
Q21.4844 6.89062 26.8125 6.89062
Q36.0781 6.89062 40.9375 10.5469
Q45.7969 14.2031 45.7969 21.1875
Q45.7969 27.6406 41.2812 31.2656
Q36.7656 34.9062 28.7188 34.9062
L20.2188 34.9062
L20.2188 43.0156
L29.1094 43.0156
Q36.375 43.0156 40.2344 45.9219
Q44.0938 48.8281 44.0938 54.2969
Q44.0938 59.9062 40.1094 62.9062
Q36.1406 65.9219 28.7188 65.9219
Q24.6562 65.9219 20.0156 65.0312
Q15.375 64.1562 9.8125 62.3125
L9.8125 71.0938
Q15.4375 72.6562 20.3438 73.4375
Q25.25 74.2188 29.5938 74.2188
Q40.8281 74.2188 47.3594 69.1094
Q53.9062 64.0156 53.9062 55.3281
Q53.9062 49.2656 50.4375 45.0938
Q46.9688 40.9219 40.5781 39.3125" id="DejaVuSans-33"/>
      </defs>
      <g transform="translate(339.048627605 401.918125)scale(0.12 -0.12)">
       <use xlink:href="#DejaVuSans-33"/>
       <use x="63.623046875" xlink:href="#DejaVuSans-30"/>
       <use x="127.24609375" xlink:href="#DejaVuSans-30"/>
       <use x="190.869140625" xlink:href="#DejaVuSans-30"/>
      </g>
     </g>
    </g>
    <g id="xtick_4">
     <g id="line2d_29">
      <g>
       <use style="stroke:#000000;stroke-width:0.5;" x="463.674027257" xlink:href="#m93b0483c22" y="388.8"/>
      </g>
     </g>
     <g id="line2d_30">
      <g>
       <use style="stroke:#000000;stroke-width:0.5;" x="463.674027257" xlink:href="#m741efc42ff" y="353.890909091"/>
      </g>
     </g>
     <g id="text_11">
      <!-- 4000 -->
      <g transform="translate(449.095902257 401.918125)scale(0.12 -0.12)">
       <use xlink:href="#DejaVuSans-34"/>
       <use x="63.623046875" xlink:href="#DejaVuSans-30"/>
       <use x="127.24609375" xlink:href="#DejaVuSans-30"/>
       <use x="190.869140625" xlink:href="#DejaVuSans-30"/>
      </g>
     </g>
    </g>
    <g id="xtick_5">
     <g id="line2d_31">
      <g>
       <use style="stroke:#000000;stroke-width:0.5;" x="573.885364409" xlink:href="#m93b0483c22" y="388.8"/>
      </g>
     </g>
     <g id="line2d_32">
      <g>
       <use style="stroke:#000000;stroke-width:0.5;" x="573.885364409" xlink:href="#m741efc42ff" y="353.890909091"/>
      </g>
     </g>
     <g id="text_12">
      <!-- 5000 -->
      <defs>
       <path d="
M10.7969 72.9062
L49.5156 72.9062
L49.5156 64.5938
L19.8281 64.5938
L19.8281 46.7344
Q21.9688 47.4688 24.1094 47.8281
Q26.2656 48.1875 28.4219 48.1875
Q40.625 48.1875 47.75 41.5
Q54.8906 34.8125 54.8906 23.3906
Q54.8906 11.625 47.5625 5.09375
Q40.2344 -1.42188 26.9062 -1.42188
Q22.3125 -1.42188 17.5469 -0.640625
Q12.7969 0.140625 7.71875 1.70312
L7.71875 11.625
Q12.1094 9.23438 16.7969 8.0625
Q21.4844 6.89062 26.7031 6.89062
Q35.1562 6.89062 40.0781 11.3281
Q45.0156 15.7656 45.0156 23.3906
Q45.0156 31 40.0781 35.4375
Q35.1562 39.8906 26.7031 39.8906
Q22.75 39.8906 18.8125 39.0156
Q14.8906 38.1406 10.7969 36.2812
z
" id="DejaVuSans-35"/>
      </defs>
      <g transform="translate(559.476926909 401.918125)scale(0.12 -0.12)">
       <use xlink:href="#DejaVuSans-35"/>
       <use x="63.623046875" xlink:href="#DejaVuSans-30"/>
       <use x="127.24609375" xlink:href="#DejaVuSans-30"/>
       <use x="190.869140625" xlink:href="#DejaVuSans-30"/>
      </g>
     </g>
    </g>
    <g id="xtick_6">
     <g id="line2d_33">
      <g>
       <use style="stroke:#000000;stroke-width:0.5;" x="684.096701561" xlink:href="#m93b0483c22" y="388.8"/>
      </g>
     </g>
     <g id="line2d_34">
      <g>
       <use style="stroke:#000000;stroke-width:0.5;" x="684.096701561" xlink:href="#m741efc42ff" y="353.890909091"/>
      </g>
     </g>
     <g id="text_13">
      <!-- 6000 -->
      <g transform="translate(669.644201561 401.918125)scale(0.12 -0.12)">
       <use xlink:href="#DejaVuSans-36"/>
       <use x="63.623046875" xlink:href="#DejaVuSans-30"/>
       <use x="127.24609375" xlink:href="#DejaVuSans-30"/>
       <use x="190.869140625" xlink:href="#DejaVuSans-30"/>
      </g>
     </g>
    </g>
    <g id="text_14">
     <!-- Length (bp) -->
     <defs>
      <path d="
M9.8125 72.9062
L19.6719 72.9062
L19.6719 8.29688
L55.1719 8.29688
L55.1719 0
L9.8125 0
z
" id="DejaVuSans-4c"/>
      <path id="DejaVuSans-20"/>
      <path d="
M45.4062 27.9844
Q45.4062 37.75 41.375 43.1094
Q37.3594 48.4844 30.0781 48.4844
Q22.8594 48.4844 18.8281 43.1094
Q14.7969 37.75 14.7969 27.9844
Q14.7969 18.2656 18.8281 12.8906
Q22.8594 7.51562 30.0781 7.51562
Q37.3594 7.51562 41.375 12.8906
Q45.4062 18.2656 45.4062 27.9844
M54.3906 6.78125
Q54.3906 -7.17188 48.1875 -13.9844
Q42 -20.7969 29.2031 -20.7969
Q24.4688 -20.7969 20.2656 -20.0938
Q16.0625 -19.3906 12.1094 -17.9219
L12.1094 -9.1875
Q16.0625 -11.3281 19.9219 -12.3438
Q23.7812 -13.375 27.7812 -13.375
Q36.625 -13.375 41.0156 -8.76562
Q45.4062 -4.15625 45.4062 5.17188
L45.4062 9.625
Q42.625 4.78125 38.2812 2.39062
Q33.9375 0 27.875 0
Q17.8281 0 11.6719 7.65625
Q5.51562 15.3281 5.51562 27.9844
Q5.51562 40.6719 11.6719 48.3281
Q17.8281 56 27.875 56
Q33.9375 56 38.2812 53.6094
Q42.625 51.2188 45.4062 46.3906
L45.4062 54.6875
L54.3906 54.6875
z
" id="DejaVuSans-67"/>
      <path d="
M31 75.875
Q24.4688 64.6562 21.2812 53.6562
Q18.1094 42.6719 18.1094 31.3906
Q18.1094 20.125 21.3125 9.0625
Q24.5156 -2 31 -13.1875
L23.1875 -13.1875
Q15.875 -1.70312 12.2344 9.375
Q8.59375 20.4531 8.59375 31.3906
Q8.59375 42.2812 12.2031 53.3125
Q15.8281 64.3594 23.1875 75.875
z
" id="DejaVuSans-28"/>
      <path d="
M8.01562 75.875
L15.8281 75.875
Q23.1406 64.3594 26.7812 53.3125
Q30.4219 42.2812 30.4219 31.3906
Q30.4219 20.4531 26.7812 9.375
Q23.1406 -1.70312 15.8281 -13.1875
L8.01562 -13.1875
Q14.5 -2 17.7031 9.0625
Q20.9062 20.125 20.9062 31.3906
Q20.9062 42.6719 17.7031 53.6562
Q14.5 64.6562 8.01562 75.875" id="DejaVuSans-29"/>
      <path d="
M48.6875 27.2969
Q48.6875 37.2031 44.6094 42.8438
Q40.5312 48.4844 33.4062 48.4844
Q26.2656 48.4844 22.1875 42.8438
Q18.1094 37.2031 18.1094 27.2969
Q18.1094 17.3906 22.1875 11.75
Q26.2656 6.10938 33.4062 6.10938
Q40.5312 6.10938 44.6094 11.75
Q48.6875 17.3906 48.6875 27.2969
M18.1094 46.3906
Q20.9531 51.2656 25.2656 53.625
Q29.5938 56 35.5938 56
Q45.5625 56 51.7812 48.0938
Q58.0156 40.1875 58.0156 27.2969
Q58.0156 14.4062 51.7812 6.48438
Q45.5625 -1.42188 35.5938 -1.42188
Q29.5938 -1.42188 25.2656 0.953125
Q20.9531 3.32812 18.1094 8.20312
L18.1094 0
L9.07812 0
L9.07812 75.9844
L18.1094 75.9844
z
" id="DejaVuSans-62"/>
      <path d="
M18.1094 8.20312
L18.1094 -20.7969
L9.07812 -20.7969
L9.07812 54.6875
L18.1094 54.6875
L18.1094 46.3906
Q20.9531 51.2656 25.2656 53.625
Q29.5938 56 35.5938 56
Q45.5625 56 51.7812 48.0938
Q58.0156 40.1875 58.0156 27.2969
Q58.0156 14.4062 51.7812 6.48438
Q45.5625 -1.42188 35.5938 -1.42188
Q29.5938 -1.42188 25.2656 0.953125
Q20.9531 3.32812 18.1094 8.20312
M48.6875 27.2969
Q48.6875 37.2031 44.6094 42.8438
Q40.5312 48.4844 33.4062 48.4844
Q26.2656 48.4844 22.1875 42.8438
Q18.1094 37.2031 18.1094 27.2969
Q18.1094 17.3906 22.1875 11.75
Q26.2656 6.10938 33.4062 6.10938
Q40.5312 6.10938 44.6094 11.75
Q48.6875 17.3906 48.6875 27.2969" id="DejaVuSans-70"/>
     </defs>
     <g transform="translate(408.4125 418.531875)scale(0.12 -0.12)">
      <use xlink:href="#DejaVuSans-4c"/>
      <use x="53.962890625" xlink:href="#DejaVuSans-65"/>
      <use x="115.486328125" xlink:href="#DejaVuSans-6e"/>
      <use x="178.865234375" xlink:href="#DejaVuSans-67"/>
      <use x="242.341796875" xlink:href="#DejaVuSans-74"/>
      <use x="281.55078125" xlink:href="#DejaVuSans-68"/>
      <use x="344.9296875" xlink:href="#DejaVuSans-20"/>
      <use x="376.716796875" xlink:href="#DejaVuSans-28"/>
      <use x="415.73046875" xlink:href="#DejaVuSans-62"/>
      <use x="479.20703125" xlink:href="#DejaVuSans-70"/>
      <use x="542.68359375" xlink:href="#DejaVuSans-29"/>
     </g>
     <!-- chr14:73519864-73548242 -->
     <defs>
      <path d="
M11.7188 12.4062
L22.0156 12.4062
L22.0156 0
L11.7188 0
z

M11.7188 51.7031
L22.0156 51.7031
L22.0156 39.3125
L11.7188 39.3125
z
" id="DejaVuSans-3a"/>
      <path d="
M4.89062 31.3906
L31.2031 31.3906
L31.2031 23.3906
L4.89062 23.3906
z
" id="DejaVuSans-2d"/>
      <path d="
M8.20312 72.9062
L55.0781 72.9062
L55.0781 68.7031
L28.6094 0
L18.3125 0
L43.2188 64.5938
L8.20312 64.5938
z
" id="DejaVuSans-37"/>
      <path d="
M10.9844 1.51562
L10.9844 10.5
Q14.7031 8.73438 18.5 7.8125
Q22.3125 6.89062 25.9844 6.89062
Q35.75 6.89062 40.8906 13.4531
Q46.0469 20.0156 46.7812 33.4062
Q43.9531 29.2031 39.5938 26.9531
Q35.25 24.7031 29.9844 24.7031
Q19.0469 24.7031 12.6719 31.3125
Q6.29688 37.9375 6.29688 49.4219
Q6.29688 60.6406 12.9375 67.4219
Q19.5781 74.2188 30.6094 74.2188
Q43.2656 74.2188 49.9219 64.5156
Q56.5938 54.8281 56.5938 36.375
Q56.5938 19.1406 48.4062 8.85938
Q40.2344 -1.42188 26.4219 -1.42188
Q22.7031 -1.42188 18.8906 -0.6875
Q15.0938 0.046875 10.9844 1.51562
M30.6094 32.4219
Q37.25 32.4219 41.125 36.9531
Q45.0156 41.5 45.0156 49.4219
Q45.0156 57.2812 41.125 61.8438
Q37.25 66.4062 30.6094 66.4062
Q23.9688 66.4062 20.0938 61.8438
Q16.2188 57.2812 16.2188 49.4219
Q16.2188 41.5 20.0938 36.9531
Q23.9688 32.4219 30.6094 32.4219" id="DejaVuSans-39"/>
      <path d="
M48.7812 52.5938
L48.7812 44.1875
Q44.9688 46.2969 41.1406 47.3438
Q37.3125 48.3906 33.4062 48.3906
Q24.6562 48.3906 19.8125 42.8438
Q14.9844 37.3125 14.9844 27.2969
Q14.9844 17.2812 19.8125 11.7344
Q24.6562 6.20312 33.4062 6.20312
Q37.3125 6.20312 41.1406 7.25
Q44.9688 8.29688 48.7812 10.4062
L48.7812 2.09375
Q45.0156 0.34375 40.9844 -0.53125
Q36.9688 -1.42188 32.4219 -1.42188
Q20.0625 -1.42188 12.7812 6.34375
Q5.51562 14.1094 5.51562 27.2969
Q5.51562 40.6719 12.8594 48.3281
Q20.2188 56 33.0156 56
Q37.1562 56 41.1094 55.1406
Q45.0625 54.2969 48.7812 52.5938" id="DejaVuSans-63"/>
      <path d="
M41.1094 46.2969
Q39.5938 47.1719 37.8125 47.5781
Q36.0312 48 33.8906 48
Q26.2656 48 22.1875 43.0469
Q18.1094 38.0938 18.1094 28.8125
L18.1094 0
L9.07812 0
L9.07812 54.6875
L18.1094 54.6875
L18.1094 46.1875
Q20.9531 51.1719 25.4844 53.5781
Q30.0312 56 36.5312 56
Q37.4531 56 38.5781 55.875
Q39.7031 55.7656 41.0625 55.5156
z
" id="DejaVuSans-72"/>
     </defs>
     <g transform="translate(361.2628125 431.96925)scale(0.12 -0.12)">
      <use xlink:href="#DejaVuSans-63"/>
      <use x="54.98046875" xlink:href="#DejaVuSans-68"/>
      <use x="118.359375" xlink:href="#DejaVuSans-72"/>
      <use x="159.47265625" xlink:href="#DejaVuSans-31"/>
      <use x="223.095703125" xlink:href="#DejaVuSans-34"/>
      <use x="286.71875" xlink:href="#DejaVuSans-3a"/>
      <use x="320.41015625" xlink:href="#DejaVuSans-37"/>
      <use x="384.033203125" xlink:href="#DejaVuSans-33"/>
      <use x="447.65625" xlink:href="#DejaVuSans-35"/>
      <use x="511.279296875" xlink:href="#DejaVuSans-31"/>
      <use x="574.90234375" xlink:href="#DejaVuSans-39"/>
      <use x="638.525390625" xlink:href="#DejaVuSans-38"/>
      <use x="702.1484375" xlink:href="#DejaVuSans-36"/>
      <use x="765.771484375" xlink:href="#DejaVuSans-34"/>
      <use x="829.39453125" xlink:href="#DejaVuSans-2d"/>
      <use x="865.478515625" xlink:href="#DejaVuSans-37"/>
      <use x="929.1015625" xlink:href="#DejaVuSans-33"/>
      <use x="992.724609375" xlink:href="#DejaVuSans-35"/>
      <use x="1056.34765625" xlink:href="#DejaVuSans-34"/>
      <use x="1119.97070312" xlink:href="#DejaVuSans-38"/>
      <use x="1183.59375" xlink:href="#DejaVuSans-32"/>
      <use x="1247.21679688" xlink:href="#DejaVuSans-34"/>
      <use x="1310.83984375" xlink:href="#DejaVuSans-32"/>
     </g>
    </g>
   </g>
  </g>
  <g id="text_15">
   <!-- ENSMUST00000043813 (Nudt15) -->
   <defs>
    <path d="
M9.8125 72.9062
L23.0938 72.9062
L55.4219 11.9219
L55.4219 72.9062
L64.9844 72.9062
L64.9844 0
L51.7031 0
L19.3906 60.9844
L19.3906 0
L9.8125 0
z
" id="DejaVuSans-4e"/>
    <path d="
M8.5 21.5781
L8.5 54.6875
L17.4844 54.6875
L17.4844 21.9219
Q17.4844 14.1562 20.5 10.2656
Q23.5312 6.39062 29.5938 6.39062
Q36.8594 6.39062 41.0781 11.0312
Q45.3125 15.6719 45.3125 23.6875
L45.3125 54.6875
L54.2969 54.6875
L54.2969 0
L45.3125 0
L45.3125 8.40625
Q42.0469 3.42188 37.7188 1
Q33.4062 -1.42188 27.6875 -1.42188
Q18.2656 -1.42188 13.375 4.4375
Q8.5 10.2969 8.5 21.5781
M31.1094 56
z
" id="DejaVuSans-75"/>
    <path d="
M9.8125 72.9062
L55.9062 72.9062
L55.9062 64.5938
L19.6719 64.5938
L19.6719 43.0156
L54.3906 43.0156
L54.3906 34.7188
L19.6719 34.7188
L19.6719 8.29688
L56.7812 8.29688
L56.7812 0
L9.8125 0
z
" id="DejaVuSans-45"/>
    <path d="
M53.5156 70.5156
L53.5156 60.8906
Q47.9062 63.5781 42.9219 64.8906
Q37.9375 66.2188 33.2969 66.2188
Q25.25 66.2188 20.875 63.0938
Q16.5 59.9688 16.5 54.2031
Q16.5 49.3594 19.4062 46.8906
Q22.3125 44.4375 30.4219 42.9219
L36.375 41.7031
Q47.4062 39.5938 52.6562 34.2969
Q57.9062 29 57.9062 20.125
Q57.9062 9.51562 50.7969 4.04688
Q43.7031 -1.42188 29.9844 -1.42188
Q24.8125 -1.42188 18.9688 -0.25
Q13.1406 0.921875 6.89062 3.21875
L6.89062 13.375
Q12.8906 10.0156 18.6562 8.29688
Q24.4219 6.59375 29.9844 6.59375
Q38.4219 6.59375 43.0156 9.90625
Q47.6094 13.2344 47.6094 19.3906
Q47.6094 24.75 44.3125 27.7812
Q41.0156 30.8125 33.5 32.3281
L27.4844 33.5
Q16.4531 35.6875 11.5156 40.375
Q6.59375 45.0625 6.59375 53.4219
Q6.59375 63.0938 13.4062 68.6562
Q20.2188 74.2188 32.1719 74.2188
Q37.3125 74.2188 42.625 73.2812
Q47.9531 72.3594 53.5156 70.5156" id="DejaVuSans-53"/>
    <path d="
M45.4062 46.3906
L45.4062 75.9844
L54.3906 75.9844
L54.3906 0
L45.4062 0
L45.4062 8.20312
Q42.5781 3.32812 38.25 0.953125
Q33.9375 -1.42188 27.875 -1.42188
Q17.9688 -1.42188 11.7344 6.48438
Q5.51562 14.4062 5.51562 27.2969
Q5.51562 40.1875 11.7344 48.0938
Q17.9688 56 27.875 56
Q33.9375 56 38.25 53.625
Q42.5781 51.2656 45.4062 46.3906
M14.7969 27.2969
Q14.7969 17.3906 18.875 11.75
Q22.9531 6.10938 30.0781 6.10938
Q37.2031 6.10938 41.2969 11.75
Q45.4062 17.3906 45.4062 27.2969
Q45.4062 37.2031 41.2969 42.8438
Q37.2031 48.4844 30.0781 48.4844
Q22.9531 48.4844 18.875 42.8438
Q14.7969 37.2031 14.7969 27.2969" id="DejaVuSans-64"/>
    <path d="
M8.6875 72.9062
L18.6094 72.9062
L18.6094 28.6094
Q18.6094 16.8906 22.8438 11.7344
Q27.0938 6.59375 36.625 6.59375
Q46.0938 6.59375 50.3438 11.7344
Q54.5938 16.8906 54.5938 28.6094
L54.5938 72.9062
L64.5 72.9062
L64.5 27.3906
Q64.5 13.1406 57.4375 5.85938
Q50.3906 -1.42188 36.625 -1.42188
Q22.7969 -1.42188 15.7344 5.85938
Q8.6875 13.1406 8.6875 27.3906
z
" id="DejaVuSans-55"/>
    <path d="
M-0.296875 72.9062
L61.375 72.9062
L61.375 64.5938
L35.5 64.5938
L35.5 0
L25.5938 0
L25.5938 64.5938
L-0.296875 64.5938
z
" id="DejaVuSans-54"/>
   </defs>
   <g transform="translate(332.7159375 17.758125)scale(0.12 -0.12)">
    <use xlink:href="#DejaVuSans-45"/>
    <use x="63.18359375" xlink:href="#DejaVuSans-4e"/>
    <use x="137.98828125" xlink:href="#DejaVuSans-53"/>
    <use x="201.46484375" xlink:href="#DejaVuSans-4d"/>
    <use x="287.744140625" xlink:href="#DejaVuSans-55"/>
    <use x="360.9375" xlink:href="#DejaVuSans-53"/>
    <use x="424.4140625" xlink:href="#DejaVuSans-54"/>
    <use x="485.498046875" xlink:href="#DejaVuSans-30"/>
    <use x="549.12109375" xlink:href="#DejaVuSans-30"/>
    <use x="612.744140625" xlink:href="#DejaVuSans-30"/>
    <use x="676.3671875" xlink:href="#DejaVuSans-30"/>
    <use x="739.990234375" xlink:href="#DejaVuSans-30"/>
    <use x="803.61328125" xlink:href="#DejaVuSans-30"/>
    <use x="867.236328125" xlink:href="#DejaVuSans-34"/>
    <use x="930.859375" xlink:href="#DejaVuSans-33"/>
    <use x="994.482421875" xlink:href="#DejaVuSans-38"/>
    <use x="1058.10546875" xlink:href="#DejaVuSans-31"/>
    <use x="1121.72851562" xlink:href="#DejaVuSans-33"/>
    <use x="1185.3515625" xlink:href="#DejaVuSans-20"/>
    <use x="1217.13867188" xlink:href="#DejaVuSans-28"/>
    <use x="1256.15234375" xlink:href="#DejaVuSans-4e"/>
    <use x="1330.95703125" xlink:href="#DejaVuSans-75"/>
    <use x="1394.3359375" xlink:href="#DejaVuSans-64"/>
    <use x="1457.8125" xlink:href="#DejaVuSans-74"/>
    <use x="1497.02148438" xlink:href="#DejaVuSans-31"/>
    <use x="1560.64453125" xlink:href="#DejaVuSans-35"/>
    <use x="1624.26757812" xlink:href="#DejaVuSans-29"/>
   </g>
  </g>
 </g>
 <defs>
  <clipPath id="p9fd4257182">
   <rect height="279.272727273" width="669.6" x="108.0" y="43.2"/>
  </clipPath>
  <clipPath id="pc82b1f09f0">
   <rect height="34.9090909091" width="669.6" x="108.0" y="353.890909091"/>
  </clipPath>
 </defs>
</svg>
