<?xml version="1.0" encoding="utf-8" standalone="no"?>
<!DOCTYPE svg PUBLIC "-//W3C//DTD SVG 1.1//EN"
  "http://www.w3.org/Graphics/SVG/1.1/DTD/svg11.dtd">
<!-- Created with matplotlib (http://matplotlib.org/) -->
<svg height="720pt" version="1.1" viewBox="0 0 864 720" width="864pt" xmlns="http://www.w3.org/2000/svg" xmlns:xlink="http://www.w3.org/1999/xlink">
 <defs>
  <style type="text/css">
*{stroke-linecap:butt;stroke-linejoin:round;}
  </style>
 </defs>
 <g id="figure_1">
  <g id="patch_1">
   <path d="
M0 720
L864 720
L864 0
L0 0
z
" style="fill:#ffffff;"/>
  </g>
  <g id="axes_1">
   <g id="patch_2">
    <path d="
M108 648
L777.6 648
L777.6 592.828
L108 592.828
z
" style="fill:#ffffff;"/>
   </g>
   <g id="line2d_1">
    <path clip-path="url(#pae4c56b443)" d="
M108 620.414
L777.6 620.414" style="fill:none;stroke:#000000;stroke-linecap:square;"/>
   </g>
   <g id="line2d_2">
    <path clip-path="url(#pae4c56b443)" d="
M169.619 620.414
L715.981 620.414" style="fill:none;stroke:#008000;stroke-linecap:square;stroke-width:3;"/>
   </g>
   <g id="patch_3">
    <path clip-path="url(#pae4c56b443)" d="
M169.619 648
L175.633 648
L175.633 592.828
L169.619 592.828
z
" style="fill:#008000;"/>
   </g>
   <g id="patch_4">
    <path clip-path="url(#pae4c56b443)" d="
M280.422 648
L282.418 648
L282.418 592.828
L280.422 592.828
z
" style="fill:#008000;"/>
   </g>
   <g id="patch_5">
    <path clip-path="url(#pae4c56b443)" d="
M293.3 648
L295.408 648
L295.408 592.828
L293.3 592.828
z
" style="fill:#008000;"/>
   </g>
   <g id="patch_6">
    <path clip-path="url(#pae4c56b443)" d="
M343.396 648
L344.013 648
L344.013 592.828
L343.396 592.828
z
" style="fill:#008000;"/>
   </g>
   <g id="patch_7">
    <path clip-path="url(#pae4c56b443)" d="
M348.129 648
L349.152 648
L349.152 592.828
L348.129 592.828
z
" style="fill:#008000;"/>
   </g>
   <g id="patch_8">
    <path clip-path="url(#pae4c56b443)" d="
M408.121 648
L409.366 648
L409.366 592.828
L408.121 592.828
z
" style="fill:#008000;"/>
   </g>
   <g id="patch_9">
    <path clip-path="url(#pae4c56b443)" d="
M427.814 648
L428.467 648
L428.467 592.828
L427.814 592.828
z
" style="fill:#008000;"/>
   </g>
   <g id="patch_10">
    <path clip-path="url(#pae4c56b443)" d="
M482.606 648
L483.407 648
L483.407 592.828
L482.606 592.828
z
" style="fill:#008000;"/>
   </g>
   <g id="patch_11">
    <path clip-path="url(#pae4c56b443)" d="
M536.337 648
L537.619 648
L537.619 592.828
L536.337 592.828
z
" style="fill:#008000;"/>
   </g>
   <g id="patch_12">
    <path clip-path="url(#pae4c56b443)" d="
M561.207 648
L562.957 648
L562.957 592.828
L561.207 592.828
z
" style="fill:#008000;"/>
   </g>
   <g id="patch_13">
    <path clip-path="url(#pae4c56b443)" d="
M599.176 648
L599.756 648
L599.756 592.828
L599.176 592.828
z
" style="fill:#008000;"/>
   </g>
   <g id="patch_14">
    <path clip-path="url(#pae4c56b443)" d="
M627.09 648
L627.595 648
L627.595 592.828
L627.09 592.828
z
" style="fill:#008000;"/>
   </g>
   <g id="patch_15">
    <path clip-path="url(#pae4c56b443)" d="
M675.263 648
L676.681 648
L676.681 592.828
L675.263 592.828
z
" style="fill:#008000;"/>
   </g>
   <g id="patch_16">
    <path clip-path="url(#pae4c56b443)" d="
M685.233 648
L686.527 648
L686.527 592.828
L685.233 592.828
z
" style="fill:#008000;"/>
   </g>
   <g id="patch_17">
    <path clip-path="url(#pae4c56b443)" d="
M690.077 648
L691.025 648
L691.025 592.828
L690.077 592.828
z
" style="fill:#008000;"/>
   </g>
   <g id="patch_18">
    <path clip-path="url(#pae4c56b443)" d="
M693.379 648
L695.142 648
L695.142 592.828
L693.379 592.828
z
" style="fill:#008000;"/>
   </g>
   <g id="patch_19">
    <path clip-path="url(#pae4c56b443)" d="
M710.398 648
L715.981 648
L715.981 592.828
L710.398 592.828
z
" style="fill:#008000;"/>
   </g>
   <g id="line2d_3">
    <path clip-path="url(#pae4c56b443)" d="
M169.619 620.414" style="fill:none;stroke:#000000;stroke-linecap:square;"/>
    <defs>
     <path d="
M5 9.18485e-16
L-5 -5
L-5 5
z
" id="m07a48e926e" style="stroke:#000000;stroke-linejoin:miter;stroke-width:0.5;"/>
    </defs>
    <g clip-path="url(#pae4c56b443)">
     <use style="stroke:#000000;stroke-linejoin:miter;stroke-width:0.5;" x="169.618875842" xlink:href="#m07a48e926e" y="620.413793103"/>
    </g>
   </g>
   <g id="line2d_4">
    <path clip-path="url(#pae4c56b443)" d="
M715.981 620.414" style="fill:none;stroke:#000000;stroke-linecap:square;"/>
    <g clip-path="url(#pae4c56b443)">
     <use style="stroke:#000000;stroke-linejoin:miter;stroke-width:0.5;" x="715.981124158" xlink:href="#m07a48e926e" y="620.413793103"/>
    </g>
   </g>
   <g id="patch_20">
    <path d="
M108 592.828
L777.6 592.828" style="fill:none;"/>
   </g>
   <g id="patch_21">
    <path d="
M777.6 648
L777.6 592.828" style="fill:none;"/>
   </g>
   <g id="patch_22">
    <path d="
M108 648
L777.6 648" style="fill:none;"/>
   </g>
   <g id="patch_23">
    <path d="
M108 648
L108 592.828" style="fill:none;"/>
   </g>
   <g id="matplotlib.axis_1">
    <g id="xtick_1">
     <g id="line2d_5">
      <defs>
       <path d="
M0 0
L0 -4" id="m93b0483c22" style="stroke:#000000;stroke-width:0.5;"/>
      </defs>
      <g>
       <use style="stroke:#000000;stroke-width:0.5;" x="160.955261899" xlink:href="#m93b0483c22" y="648.0"/>
      </g>
     </g>
     <g id="line2d_6">
      <defs>
       <path d="
M0 0
L0 4" id="m741efc42ff" style="stroke:#000000;stroke-width:0.5;"/>
      </defs>
      <g>
       <use style="stroke:#000000;stroke-width:0.5;" x="160.955261899" xlink:href="#m741efc42ff" y="592.827586207"/>
      </g>
     </g>
     <g id="text_1">
      <!-- 1000 -->
      <defs>
       <path d="
M12.4062 8.29688
L28.5156 8.29688
L28.5156 63.9219
L10.9844 60.4062
L10.9844 69.3906
L28.4219 72.9062
L38.2812 72.9062
L38.2812 8.29688
L54.3906 8.29688
L54.3906 0
L12.4062 0
z
" id="DejaVuSans-31"/>
       <path d="
M31.7812 66.4062
Q24.1719 66.4062 20.3281 58.9062
Q16.5 51.4219 16.5 36.375
Q16.5 21.3906 20.3281 13.8906
Q24.1719 6.39062 31.7812 6.39062
Q39.4531 6.39062 43.2812 13.8906
Q47.125 21.3906 47.125 36.375
Q47.125 51.4219 43.2812 58.9062
Q39.4531 66.4062 31.7812 66.4062
M31.7812 74.2188
Q44.0469 74.2188 50.5156 64.5156
Q56.9844 54.8281 56.9844 36.375
Q56.9844 17.9688 50.5156 8.26562
Q44.0469 -1.42188 31.7812 -1.42188
Q19.5312 -1.42188 13.0625 8.26562
Q6.59375 17.9688 6.59375 36.375
Q6.59375 54.8281 13.0625 64.5156
Q19.5312 74.2188 31.7812 74.2188" id="DejaVuSans-30"/>
      </defs>
      <g transform="translate(146.742761899 661.118125)scale(0.12 -0.12)">
       <use xlink:href="#DejaVuSans-31"/>
       <use x="63.623046875" xlink:href="#DejaVuSans-30"/>
       <use x="127.24609375" xlink:href="#DejaVuSans-30"/>
       <use x="190.869140625" xlink:href="#DejaVuSans-30"/>
      </g>
     </g>
    </g>
    <g id="xtick_2">
     <g id="line2d_7">
      <g>
       <use style="stroke:#000000;stroke-width:0.5;" x="284.193013583" xlink:href="#m93b0483c22" y="648.0"/>
      </g>
     </g>
     <g id="line2d_8">
      <g>
       <use style="stroke:#000000;stroke-width:0.5;" x="284.193013583" xlink:href="#m741efc42ff" y="592.827586207"/>
      </g>
     </g>
     <g id="text_2">
      <!-- 2000 -->
      <defs>
       <path d="
M19.1875 8.29688
L53.6094 8.29688
L53.6094 0
L7.32812 0
L7.32812 8.29688
Q12.9375 14.1094 22.625 23.8906
Q32.3281 33.6875 34.8125 36.5312
Q39.5469 41.8438 41.4219 45.5312
Q43.3125 49.2188 43.3125 52.7812
Q43.3125 58.5938 39.2344 62.25
Q35.1562 65.9219 28.6094 65.9219
Q23.9688 65.9219 18.8125 64.3125
Q13.6719 62.7031 7.8125 59.4219
L7.8125 69.3906
Q13.7656 71.7812 18.9375 73
Q24.125 74.2188 28.4219 74.2188
Q39.75 74.2188 46.4844 68.5469
Q53.2188 62.8906 53.2188 53.4219
Q53.2188 48.9219 51.5312 44.8906
Q49.8594 40.875 45.4062 35.4062
Q44.1875 33.9844 37.6406 27.2188
Q31.1094 20.4531 19.1875 8.29688" id="DejaVuSans-32"/>
      </defs>
      <g transform="translate(269.761138583 661.118125)scale(0.12 -0.12)">
       <use xlink:href="#DejaVuSans-32"/>
       <use x="63.623046875" xlink:href="#DejaVuSans-30"/>
       <use x="127.24609375" xlink:href="#DejaVuSans-30"/>
       <use x="190.869140625" xlink:href="#DejaVuSans-30"/>
      </g>
     </g>
    </g>
    <g id="xtick_3">
     <g id="line2d_9">
      <g>
       <use style="stroke:#000000;stroke-width:0.5;" x="407.430765267" xlink:href="#m93b0483c22" y="648.0"/>
      </g>
     </g>
     <g id="line2d_10">
      <g>
       <use style="stroke:#000000;stroke-width:0.5;" x="407.430765267" xlink:href="#m741efc42ff" y="592.827586207"/>
      </g>
     </g>
     <g id="text_3">
      <!-- 3000 -->
      <defs>
       <path d="
M40.5781 39.3125
Q47.6562 37.7969 51.625 33
Q55.6094 28.2188 55.6094 21.1875
Q55.6094 10.4062 48.1875 4.48438
Q40.7656 -1.42188 27.0938 -1.42188
Q22.5156 -1.42188 17.6562 -0.515625
Q12.7969 0.390625 7.625 2.20312
L7.625 11.7188
Q11.7188 9.32812 16.5938 8.10938
Q21.4844 6.89062 26.8125 6.89062
Q36.0781 6.89062 40.9375 10.5469
Q45.7969 14.2031 45.7969 21.1875
Q45.7969 27.6406 41.2812 31.2656
Q36.7656 34.9062 28.7188 34.9062
L20.2188 34.9062
L20.2188 43.0156
L29.1094 43.0156
Q36.375 43.0156 40.2344 45.9219
Q44.0938 48.8281 44.0938 54.2969
Q44.0938 59.9062 40.1094 62.9062
Q36.1406 65.9219 28.7188 65.9219
Q24.6562 65.9219 20.0156 65.0312
Q15.375 64.1562 9.8125 62.3125
L9.8125 71.0938
Q15.4375 72.6562 20.3438 73.4375
Q25.25 74.2188 29.5938 74.2188
Q40.8281 74.2188 47.3594 69.1094
Q53.9062 64.0156 53.9062 55.3281
Q53.9062 49.2656 50.4375 45.0938
Q46.9688 40.9219 40.5781 39.3125" id="DejaVuSans-33"/>
      </defs>
      <g transform="translate(393.016702767 661.118125)scale(0.12 -0.12)">
       <use xlink:href="#DejaVuSans-33"/>
       <use x="63.623046875" xlink:href="#DejaVuSans-30"/>
       <use x="127.24609375" xlink:href="#DejaVuSans-30"/>
       <use x="190.869140625" xlink:href="#DejaVuSans-30"/>
      </g>
     </g>
    </g>
    <g id="xtick_4">
     <g id="line2d_11">
      <g>
       <use style="stroke:#000000;stroke-width:0.5;" x="530.668516951" xlink:href="#m93b0483c22" y="648.0"/>
      </g>
     </g>
     <g id="line2d_12">
      <g>
       <use style="stroke:#000000;stroke-width:0.5;" x="530.668516951" xlink:href="#m741efc42ff" y="592.827586207"/>
      </g>
     </g>
     <g id="text_4">
      <!-- 4000 -->
      <defs>
       <path d="
M37.7969 64.3125
L12.8906 25.3906
L37.7969 25.3906
z

M35.2031 72.9062
L47.6094 72.9062
L47.6094 25.3906
L58.0156 25.3906
L58.0156 17.1875
L47.6094 17.1875
L47.6094 0
L37.7969 0
L37.7969 17.1875
L4.89062 17.1875
L4.89062 26.7031
z
" id="DejaVuSans-34"/>
      </defs>
      <g transform="translate(516.090391951 661.118125)scale(0.12 -0.12)">
       <use xlink:href="#DejaVuSans-34"/>
       <use x="63.623046875" xlink:href="#DejaVuSans-30"/>
       <use x="127.24609375" xlink:href="#DejaVuSans-30"/>
       <use x="190.869140625" xlink:href="#DejaVuSans-30"/>
      </g>
     </g>
    </g>
    <g id="xtick_5">
     <g id="line2d_13">
      <g>
       <use style="stroke:#000000;stroke-width:0.5;" x="653.906268635" xlink:href="#m93b0483c22" y="648.0"/>
      </g>
     </g>
     <g id="line2d_14">
      <g>
       <use style="stroke:#000000;stroke-width:0.5;" x="653.906268635" xlink:href="#m741efc42ff" y="592.827586207"/>
      </g>
     </g>
     <g id="text_5">
      <!-- 5000 -->
      <defs>
       <path d="
M10.7969 72.9062
L49.5156 72.9062
L49.5156 64.5938
L19.8281 64.5938
L19.8281 46.7344
Q21.9688 47.4688 24.1094 47.8281
Q26.2656 48.1875 28.4219 48.1875
Q40.625 48.1875 47.75 41.5
Q54.8906 34.8125 54.8906 23.3906
Q54.8906 11.625 47.5625 5.09375
Q40.2344 -1.42188 26.9062 -1.42188
Q22.3125 -1.42188 17.5469 -0.640625
Q12.7969 0.140625 7.71875 1.70312
L7.71875 11.625
Q12.1094 9.23438 16.7969 8.0625
Q21.4844 6.89062 26.7031 6.89062
Q35.1562 6.89062 40.0781 11.3281
Q45.0156 15.7656 45.0156 23.3906
Q45.0156 31 40.0781 35.4375
Q35.1562 39.8906 26.7031 39.8906
Q22.75 39.8906 18.8125 39.0156
Q14.8906 38.1406 10.7969 36.2812
z
" id="DejaVuSans-35"/>
      </defs>
      <g transform="translate(639.497831135 661.118125)scale(0.12 -0.12)">
       <use xlink:href="#DejaVuSans-35"/>
       <use x="63.623046875" xlink:href="#DejaVuSans-30"/>
       <use x="127.24609375" xlink:href="#DejaVuSans-30"/>
       <use x="190.869140625" xlink:href="#DejaVuSans-30"/>
      </g>
     </g>
    </g>
    <g id="xtick_6">
     <g id="line2d_15">
      <g>
       <use style="stroke:#000000;stroke-width:0.5;" x="777.144020319" xlink:href="#m93b0483c22" y="648.0"/>
      </g>
     </g>
     <g id="line2d_16">
      <g>
       <use style="stroke:#000000;stroke-width:0.5;" x="777.144020319" xlink:href="#m741efc42ff" y="592.827586207"/>
      </g>
     </g>
     <g id="text_6">
      <!-- 6000 -->
      <defs>
       <path d="
M33.0156 40.375
Q26.375 40.375 22.4844 35.8281
Q18.6094 31.2969 18.6094 23.3906
Q18.6094 15.5312 22.4844 10.9531
Q26.375 6.39062 33.0156 6.39062
Q39.6562 6.39062 43.5312 10.9531
Q47.4062 15.5312 47.4062 23.3906
Q47.4062 31.2969 43.5312 35.8281
Q39.6562 40.375 33.0156 40.375
M52.5938 71.2969
L52.5938 62.3125
Q48.875 64.0625 45.0938 64.9844
Q41.3125 65.9219 37.5938 65.9219
Q27.8281 65.9219 22.6719 59.3281
Q17.5312 52.7344 16.7969 39.4062
Q19.6719 43.6562 24.0156 45.9219
Q28.375 48.1875 33.5938 48.1875
Q44.5781 48.1875 50.9531 41.5156
Q57.3281 34.8594 57.3281 23.3906
Q57.3281 12.1562 50.6875 5.35938
Q44.0469 -1.42188 33.0156 -1.42188
Q20.3594 -1.42188 13.6719 8.26562
Q6.98438 17.9688 6.98438 36.375
Q6.98438 53.6562 15.1875 63.9375
Q23.3906 74.2188 37.2031 74.2188
Q40.9219 74.2188 44.7031 73.4844
Q48.4844 72.75 52.5938 71.2969" id="DejaVuSans-36"/>
      </defs>
      <g transform="translate(762.691520319 661.118125)scale(0.12 -0.12)">
       <use xlink:href="#DejaVuSans-36"/>
       <use x="63.623046875" xlink:href="#DejaVuSans-30"/>
       <use x="127.24609375" xlink:href="#DejaVuSans-30"/>
       <use x="190.869140625" xlink:href="#DejaVuSans-30"/>
      </g>
     </g>
    </g>
    <g id="text_7">
     <!-- Length (bp) -->
     <defs>
      <path d="
M8.01562 75.875
L15.8281 75.875
Q23.1406 64.3594 26.7812 53.3125
Q30.4219 42.2812 30.4219 31.3906
Q30.4219 20.4531 26.7812 9.375
Q23.1406 -1.70312 15.8281 -13.1875
L8.01562 -13.1875
Q14.5 -2 17.7031 9.0625
Q20.9062 20.125 20.9062 31.3906
Q20.9062 42.6719 17.7031 53.6562
Q14.5 64.6562 8.01562 75.875" id="DejaVuSans-29"/>
      <path d="
M9.8125 72.9062
L19.6719 72.9062
L19.6719 8.29688
L55.1719 8.29688
L55.1719 0
L9.8125 0
z
" id="DejaVuSans-4c"/>
      <path d="
M54.8906 33.0156
L54.8906 0
L45.9062 0
L45.9062 32.7188
Q45.9062 40.4844 42.875 44.3281
Q39.8438 48.1875 33.7969 48.1875
Q26.5156 48.1875 22.3125 43.5469
Q18.1094 38.9219 18.1094 30.9062
L18.1094 0
L9.07812 0
L9.07812 54.6875
L18.1094 54.6875
L18.1094 46.1875
Q21.3438 51.125 25.7031 53.5625
Q30.0781 56 35.7969 56
Q45.2188 56 50.0469 50.1719
Q54.8906 44.3438 54.8906 33.0156" id="DejaVuSans-6e"/>
      <path id="DejaVuSans-20"/>
      <path d="
M54.8906 33.0156
L54.8906 0
L45.9062 0
L45.9062 32.7188
Q45.9062 40.4844 42.875 44.3281
Q39.8438 48.1875 33.7969 48.1875
Q26.5156 48.1875 22.3125 43.5469
Q18.1094 38.9219 18.1094 30.9062
L18.1094 0
L9.07812 0
L9.07812 75.9844
L18.1094 75.9844
L18.1094 46.1875
Q21.3438 51.125 25.7031 53.5625
Q30.0781 56 35.7969 56
Q45.2188 56 50.0469 50.1719
Q54.8906 44.3438 54.8906 33.0156" id="DejaVuSans-68"/>
      <path d="
M18.3125 70.2188
L18.3125 54.6875
L36.8125 54.6875
L36.8125 47.7031
L18.3125 47.7031
L18.3125 18.0156
Q18.3125 11.3281 20.1406 9.42188
Q21.9688 7.51562 27.5938 7.51562
L36.8125 7.51562
L36.8125 0
L27.5938 0
Q17.1875 0 13.2344 3.875
Q9.28125 7.76562 9.28125 18.0156
L9.28125 47.7031
L2.6875 47.7031
L2.6875 54.6875
L9.28125 54.6875
L9.28125 70.2188
z
" id="DejaVuSans-74"/>
      <path d="
M45.4062 27.9844
Q45.4062 37.75 41.375 43.1094
Q37.3594 48.4844 30.0781 48.4844
Q22.8594 48.4844 18.8281 43.1094
Q14.7969 37.75 14.7969 27.9844
Q14.7969 18.2656 18.8281 12.8906
Q22.8594 7.51562 30.0781 7.51562
Q37.3594 7.51562 41.375 12.8906
Q45.4062 18.2656 45.4062 27.9844
M54.3906 6.78125
Q54.3906 -7.17188 48.1875 -13.9844
Q42 -20.7969 29.2031 -20.7969
Q24.4688 -20.7969 20.2656 -20.0938
Q16.0625 -19.3906 12.1094 -17.9219
L12.1094 -9.1875
Q16.0625 -11.3281 19.9219 -12.3438
Q23.7812 -13.375 27.7812 -13.375
Q36.625 -13.375 41.0156 -8.76562
Q45.4062 -4.15625 45.4062 5.17188
L45.4062 9.625
Q42.625 4.78125 38.2812 2.39062
Q33.9375 0 27.875 0
Q17.8281 0 11.6719 7.65625
Q5.51562 15.3281 5.51562 27.9844
Q5.51562 40.6719 11.6719 48.3281
Q17.8281 56 27.875 56
Q33.9375 56 38.2812 53.6094
Q42.625 51.2188 45.4062 46.3906
L45.4062 54.6875
L54.3906 54.6875
z
" id="DejaVuSans-67"/>
      <path d="
M31 75.875
Q24.4688 64.6562 21.2812 53.6562
Q18.1094 42.6719 18.1094 31.3906
Q18.1094 20.125 21.3125 9.0625
Q24.5156 -2 31 -13.1875
L23.1875 -13.1875
Q15.875 -1.70312 12.2344 9.375
Q8.59375 20.4531 8.59375 31.3906
Q8.59375 42.2812 12.2031 53.3125
Q15.8281 64.3594 23.1875 75.875
z
" id="DejaVuSans-28"/>
      <path d="
M56.2031 29.5938
L56.2031 25.2031
L14.8906 25.2031
Q15.4844 15.9219 20.4844 11.0625
Q25.4844 6.20312 34.4219 6.20312
Q39.5938 6.20312 44.4531 7.46875
Q49.3125 8.73438 54.1094 11.2812
L54.1094 2.78125
Q49.2656 0.734375 44.1875 -0.34375
Q39.1094 -1.42188 33.8906 -1.42188
Q20.7969 -1.42188 13.1562 6.1875
Q5.51562 13.8125 5.51562 26.8125
Q5.51562 40.2344 12.7656 48.1094
Q20.0156 56 32.3281 56
Q43.3594 56 49.7812 48.8906
Q56.2031 41.7969 56.2031 29.5938
M47.2188 32.2344
Q47.125 39.5938 43.0938 43.9844
Q39.0625 48.3906 32.4219 48.3906
Q24.9062 48.3906 20.3906 44.1406
Q15.875 39.8906 15.1875 32.1719
z
" id="DejaVuSans-65"/>
      <path d="
M48.6875 27.2969
Q48.6875 37.2031 44.6094 42.8438
Q40.5312 48.4844 33.4062 48.4844
Q26.2656 48.4844 22.1875 42.8438
Q18.1094 37.2031 18.1094 27.2969
Q18.1094 17.3906 22.1875 11.75
Q26.2656 6.10938 33.4062 6.10938
Q40.5312 6.10938 44.6094 11.75
Q48.6875 17.3906 48.6875 27.2969
M18.1094 46.3906
Q20.9531 51.2656 25.2656 53.625
Q29.5938 56 35.5938 56
Q45.5625 56 51.7812 48.0938
Q58.0156 40.1875 58.0156 27.2969
Q58.0156 14.4062 51.7812 6.48438
Q45.5625 -1.42188 35.5938 -1.42188
Q29.5938 -1.42188 25.2656 0.953125
Q20.9531 3.32812 18.1094 8.20312
L18.1094 0
L9.07812 0
L9.07812 75.9844
L18.1094 75.9844
z
" id="DejaVuSans-62"/>
      <path d="
M18.1094 8.20312
L18.1094 -20.7969
L9.07812 -20.7969
L9.07812 54.6875
L18.1094 54.6875
L18.1094 46.3906
Q20.9531 51.2656 25.2656 53.625
Q29.5938 56 35.5938 56
Q45.5625 56 51.7812 48.0938
Q58.0156 40.1875 58.0156 27.2969
Q58.0156 14.4062 51.7812 6.48438
Q45.5625 -1.42188 35.5938 -1.42188
Q29.5938 -1.42188 25.2656 0.953125
Q20.9531 3.32812 18.1094 8.20312
M48.6875 27.2969
Q48.6875 37.2031 44.6094 42.8438
Q40.5312 48.4844 33.4062 48.4844
Q26.2656 48.4844 22.1875 42.8438
Q18.1094 37.2031 18.1094 27.2969
Q18.1094 17.3906 22.1875 11.75
Q26.2656 6.10938 33.4062 6.10938
Q40.5312 6.10938 44.6094 11.75
Q48.6875 17.3906 48.6875 27.2969" id="DejaVuSans-70"/>
     </defs>
     <g transform="translate(408.4125 677.731875)scale(0.12 -0.12)">
      <use xlink:href="#DejaVuSans-4c"/>
      <use x="53.962890625" xlink:href="#DejaVuSans-65"/>
      <use x="115.486328125" xlink:href="#DejaVuSans-6e"/>
      <use x="178.865234375" xlink:href="#DejaVuSans-67"/>
      <use x="242.341796875" xlink:href="#DejaVuSans-74"/>
      <use x="281.55078125" xlink:href="#DejaVuSans-68"/>
      <use x="344.9296875" xlink:href="#DejaVuSans-20"/>
      <use x="376.716796875" xlink:href="#DejaVuSans-28"/>
      <use x="415.73046875" xlink:href="#DejaVuSans-62"/>
      <use x="479.20703125" xlink:href="#DejaVuSans-70"/>
      <use x="542.68359375" xlink:href="#DejaVuSans-29"/>
     </g>
     <!-- chr1:85600703-85645037 -->
     <defs>
      <path d="
M11.7188 12.4062
L22.0156 12.4062
L22.0156 0
L11.7188 0
z

M11.7188 51.7031
L22.0156 51.7031
L22.0156 39.3125
L11.7188 39.3125
z
" id="DejaVuSans-3a"/>
      <path d="
M4.89062 31.3906
L31.2031 31.3906
L31.2031 23.3906
L4.89062 23.3906
z
" id="DejaVuSans-2d"/>
      <path d="
M8.20312 72.9062
L55.0781 72.9062
L55.0781 68.7031
L28.6094 0
L18.3125 0
L43.2188 64.5938
L8.20312 64.5938
z
" id="DejaVuSans-37"/>
      <path d="
M31.7812 34.625
Q24.75 34.625 20.7188 30.8594
Q16.7031 27.0938 16.7031 20.5156
Q16.7031 13.9219 20.7188 10.1562
Q24.75 6.39062 31.7812 6.39062
Q38.8125 6.39062 42.8594 10.1719
Q46.9219 13.9688 46.9219 20.5156
Q46.9219 27.0938 42.8906 30.8594
Q38.875 34.625 31.7812 34.625
M21.9219 38.8125
Q15.5781 40.375 12.0312 44.7188
Q8.5 49.0781 8.5 55.3281
Q8.5 64.0625 14.7188 69.1406
Q20.9531 74.2188 31.7812 74.2188
Q42.6719 74.2188 48.875 69.1406
Q55.0781 64.0625 55.0781 55.3281
Q55.0781 49.0781 51.5312 44.7188
Q48 40.375 41.7031 38.8125
Q48.8281 37.1562 52.7969 32.3125
Q56.7812 27.4844 56.7812 20.5156
Q56.7812 9.90625 50.3125 4.23438
Q43.8438 -1.42188 31.7812 -1.42188
Q19.7344 -1.42188 13.25 4.23438
Q6.78125 9.90625 6.78125 20.5156
Q6.78125 27.4844 10.7812 32.3125
Q14.7969 37.1562 21.9219 38.8125
M18.3125 54.3906
Q18.3125 48.7344 21.8438 45.5625
Q25.3906 42.3906 31.7812 42.3906
Q38.1406 42.3906 41.7188 45.5625
Q45.3125 48.7344 45.3125 54.3906
Q45.3125 60.0625 41.7188 63.2344
Q38.1406 66.4062 31.7812 66.4062
Q25.3906 66.4062 21.8438 63.2344
Q18.3125 60.0625 18.3125 54.3906" id="DejaVuSans-38"/>
      <path d="
M48.7812 52.5938
L48.7812 44.1875
Q44.9688 46.2969 41.1406 47.3438
Q37.3125 48.3906 33.4062 48.3906
Q24.6562 48.3906 19.8125 42.8438
Q14.9844 37.3125 14.9844 27.2969
Q14.9844 17.2812 19.8125 11.7344
Q24.6562 6.20312 33.4062 6.20312
Q37.3125 6.20312 41.1406 7.25
Q44.9688 8.29688 48.7812 10.4062
L48.7812 2.09375
Q45.0156 0.34375 40.9844 -0.53125
Q36.9688 -1.42188 32.4219 -1.42188
Q20.0625 -1.42188 12.7812 6.34375
Q5.51562 14.1094 5.51562 27.2969
Q5.51562 40.6719 12.8594 48.3281
Q20.2188 56 33.0156 56
Q37.1562 56 41.1094 55.1406
Q45.0625 54.2969 48.7812 52.5938" id="DejaVuSans-63"/>
      <path d="
M41.1094 46.2969
Q39.5938 47.1719 37.8125 47.5781
Q36.0312 48 33.8906 48
Q26.2656 48 22.1875 43.0469
Q18.1094 38.0938 18.1094 28.8125
L18.1094 0
L9.07812 0
L9.07812 54.6875
L18.1094 54.6875
L18.1094 46.1875
Q20.9531 51.1719 25.4844 53.5781
Q30.0312 56 36.5312 56
Q37.4531 56 38.5781 55.875
Q39.7031 55.7656 41.0625 55.5156
z
" id="DejaVuSans-72"/>
     </defs>
     <g transform="translate(364.9921875 691.16925)scale(0.12 -0.12)">
      <use xlink:href="#DejaVuSans-63"/>
      <use x="54.98046875" xlink:href="#DejaVuSans-68"/>
      <use x="118.359375" xlink:href="#DejaVuSans-72"/>
      <use x="159.47265625" xlink:href="#DejaVuSans-31"/>
      <use x="223.095703125" xlink:href="#DejaVuSans-3a"/>
      <use x="256.787109375" xlink:href="#DejaVuSans-38"/>
      <use x="320.41015625" xlink:href="#DejaVuSans-35"/>
      <use x="384.033203125" xlink:href="#DejaVuSans-36"/>
      <use x="447.65625" xlink:href="#DejaVuSans-30"/>
      <use x="511.279296875" xlink:href="#DejaVuSans-30"/>
      <use x="574.90234375" xlink:href="#DejaVuSans-37"/>
      <use x="638.525390625" xlink:href="#DejaVuSans-30"/>
      <use x="702.1484375" xlink:href="#DejaVuSans-33"/>
      <use x="765.771484375" xlink:href="#DejaVuSans-2d"/>
      <use x="801.85546875" xlink:href="#DejaVuSans-38"/>
      <use x="865.478515625" xlink:href="#DejaVuSans-35"/>
      <use x="929.1015625" xlink:href="#DejaVuSans-36"/>
      <use x="992.724609375" xlink:href="#DejaVuSans-34"/>
      <use x="1056.34765625" xlink:href="#DejaVuSans-35"/>
      <use x="1119.97070312" xlink:href="#DejaVuSans-30"/>
      <use x="1183.59375" xlink:href="#DejaVuSans-33"/>
      <use x="1247.21679688" xlink:href="#DejaVuSans-37"/>
     </g>
    </g>
   </g>
  </g>
  <g id="axes_2">
   <g id="patch_24">
    <path d="
M108 182.345
L777.6 182.345
L777.6 72
L108 72
z
" style="fill:#ffffff;"/>
   </g>
   <g id="patch_25">
    <path clip-path="url(#pcc118d7821)" d="
M136.308 176.828
L156.839 176.828
L156.839 132.69
L136.308 132.69
z
" style="fill:#0000ff;opacity:0.7;"/>
   </g>
   <g id="patch_26">
    <path clip-path="url(#pcc118d7821)" d="
M167.857 176.828
L181.154 176.828
L181.154 132.69
L167.857 132.69
z
" style="fill:#0000ff;opacity:0.7;"/>
   </g>
   <g id="patch_27">
    <path clip-path="url(#pcc118d7821)" d="
M309.851 176.828
L322.15 176.828
L322.15 132.69
L309.851 132.69
z
" style="fill:#0000ff;opacity:0.7;"/>
   </g>
   <g id="patch_28">
    <path clip-path="url(#pcc118d7821)" d="
M361.894 176.828
L374.07 176.828
L374.07 132.69
L361.894 132.69
z
" style="fill:#0000ff;opacity:0.7;"/>
   </g>
   <g id="patch_29">
    <path clip-path="url(#pcc118d7821)" d="
M741.787 176.828
L761.234 176.828
L761.234 132.69
L741.787 132.69
z
" style="fill:#0000ff;opacity:0.7;"/>
   </g>
   <g id="patch_30">
    <path clip-path="url(#pcc118d7821)" d="
M777.107 176.828
L802.679 176.828
L802.679 132.69
L777.107 132.69
z
" style="fill:#0000ff;opacity:0.7;"/>
   </g>
   <g id="patch_31">
    <path clip-path="url(#pcc118d7821)" d="
M211.261 176.828
L276.232 176.828
L276.232 132.69
L211.261 132.69
z
" style="fill:#0000ff;opacity:0.7;"/>
   </g>
   <g id="patch_32">
    <path clip-path="url(#pcc118d7821)" d="
M146.007 121.655
L148.397 121.655
L148.397 77.5172
L146.007 77.5172
z
" style="fill:#ff0000;opacity:0.7;"/>
   </g>
   <g id="patch_33">
    <path clip-path="url(#pcc118d7821)" d="
M169.964 121.655
L177.26 121.655
L177.26 77.5172
L169.964 77.5172
z
" style="fill:#ff0000;opacity:0.7;"/>
   </g>
   <g id="patch_34">
    <path clip-path="url(#pcc118d7821)" d="
M772.054 121.655
L806.019 121.655
L806.019 77.5172
L772.054 77.5172
z
" style="fill:#ff0000;opacity:0.7;"/>
   </g>
   <g id="patch_35">
    <path clip-path="url(#pcc118d7821)" d="
M169.619 182.345
L175.633 182.345
L175.633 72
L169.619 72
z
" style="fill:#008000;opacity:0.2;"/>
   </g>
   <g id="patch_36">
    <path clip-path="url(#pcc118d7821)" d="
M280.422 182.345
L282.418 182.345
L282.418 72
L280.422 72
z
" style="fill:#008000;opacity:0.2;"/>
   </g>
   <g id="patch_37">
    <path clip-path="url(#pcc118d7821)" d="
M293.3 182.345
L295.408 182.345
L295.408 72
L293.3 72
z
" style="fill:#008000;opacity:0.2;"/>
   </g>
   <g id="patch_38">
    <path clip-path="url(#pcc118d7821)" d="
M343.396 182.345
L344.013 182.345
L344.013 72
L343.396 72
z
" style="fill:#008000;opacity:0.2;"/>
   </g>
   <g id="patch_39">
    <path clip-path="url(#pcc118d7821)" d="
M348.129 182.345
L349.152 182.345
L349.152 72
L348.129 72
z
" style="fill:#008000;opacity:0.2;"/>
   </g>
   <g id="patch_40">
    <path clip-path="url(#pcc118d7821)" d="
M408.121 182.345
L409.366 182.345
L409.366 72
L408.121 72
z
" style="fill:#008000;opacity:0.2;"/>
   </g>
   <g id="patch_41">
    <path clip-path="url(#pcc118d7821)" d="
M427.814 182.345
L428.467 182.345
L428.467 72
L427.814 72
z
" style="fill:#008000;opacity:0.2;"/>
   </g>
   <g id="patch_42">
    <path clip-path="url(#pcc118d7821)" d="
M482.606 182.345
L483.407 182.345
L483.407 72
L482.606 72
z
" style="fill:#008000;opacity:0.2;"/>
   </g>
   <g id="patch_43">
    <path clip-path="url(#pcc118d7821)" d="
M536.337 182.345
L537.619 182.345
L537.619 72
L536.337 72
z
" style="fill:#008000;opacity:0.2;"/>
   </g>
   <g id="patch_44">
    <path clip-path="url(#pcc118d7821)" d="
M561.207 182.345
L562.957 182.345
L562.957 72
L561.207 72
z
" style="fill:#008000;opacity:0.2;"/>
   </g>
   <g id="patch_45">
    <path clip-path="url(#pcc118d7821)" d="
M599.176 182.345
L599.756 182.345
L599.756 72
L599.176 72
z
" style="fill:#008000;opacity:0.2;"/>
   </g>
   <g id="patch_46">
    <path clip-path="url(#pcc118d7821)" d="
M627.09 182.345
L627.595 182.345
L627.595 72
L627.09 72
z
" style="fill:#008000;opacity:0.2;"/>
   </g>
   <g id="patch_47">
    <path clip-path="url(#pcc118d7821)" d="
M675.263 182.345
L676.681 182.345
L676.681 72
L675.263 72
z
" style="fill:#008000;opacity:0.2;"/>
   </g>
   <g id="patch_48">
    <path clip-path="url(#pcc118d7821)" d="
M685.233 182.345
L686.527 182.345
L686.527 72
L685.233 72
z
" style="fill:#008000;opacity:0.2;"/>
   </g>
   <g id="patch_49">
    <path clip-path="url(#pcc118d7821)" d="
M690.077 182.345
L691.025 182.345
L691.025 72
L690.077 72
z
" style="fill:#008000;opacity:0.2;"/>
   </g>
   <g id="patch_50">
    <path clip-path="url(#pcc118d7821)" d="
M693.379 182.345
L695.142 182.345
L695.142 72
L693.379 72
z
" style="fill:#008000;opacity:0.2;"/>
   </g>
   <g id="patch_51">
    <path clip-path="url(#pcc118d7821)" d="
M710.398 182.345
L715.981 182.345
L715.981 72
L710.398 72
z
" style="fill:#008000;opacity:0.2;"/>
   </g>
   <g id="patch_52">
    <path d="
M108 72
L777.6 72" style="fill:none;stroke:#000000;stroke-linecap:square;stroke-linejoin:miter;"/>
   </g>
   <g id="patch_53">
    <path d="
M777.6 182.345
L777.6 72" style="fill:none;stroke:#000000;stroke-linecap:square;stroke-linejoin:miter;"/>
   </g>
   <g id="patch_54">
    <path d="
M108 182.345
L777.6 182.345" style="fill:none;stroke:#000000;stroke-linecap:square;stroke-linejoin:miter;"/>
   </g>
   <g id="patch_55">
    <path d="
M108 182.345
L108 72" style="fill:none;stroke:#000000;stroke-linecap:square;stroke-linejoin:miter;"/>
   </g>
   <g id="matplotlib.axis_2">
    <g id="ytick_1">
     <g id="line2d_17">
      <defs>
       <path d="
M0 0
L4 0" id="m728421d6d4" style="stroke:#000000;stroke-width:0.5;"/>
      </defs>
      <g>
       <use style="stroke:#000000;stroke-width:0.5;" x="108.0" xlink:href="#m728421d6d4" y="154.75862069"/>
      </g>
     </g>
     <g id="line2d_18">
      <defs>
       <path d="
M0 0
L-4 0" id="mcb0005524f" style="stroke:#000000;stroke-width:0.5;"/>
      </defs>
      <g>
       <use style="stroke:#000000;stroke-width:0.5;" x="777.6" xlink:href="#mcb0005524f" y="154.75862069"/>
      </g>
     </g>
     <g id="text_8">
      <!-- B -->
      <defs>
       <path d="
M19.6719 34.8125
L19.6719 8.10938
L35.5 8.10938
Q43.4531 8.10938 47.2812 11.4062
Q51.125 14.7031 51.125 21.4844
Q51.125 28.3281 47.2812 31.5625
Q43.4531 34.8125 35.5 34.8125
z

M19.6719 64.7969
L19.6719 42.8281
L34.2812 42.8281
Q41.5 42.8281 45.0312 45.5312
Q48.5781 48.25 48.5781 53.8125
Q48.5781 59.3281 45.0312 62.0625
Q41.5 64.7969 34.2812 64.7969
z

M9.8125 72.9062
L35.0156 72.9062
Q46.2969 72.9062 52.3906 68.2188
Q58.5 63.5312 58.5 54.8906
Q58.5 48.1875 55.375 44.2344
Q52.25 40.2812 46.1875 39.3125
Q53.4688 37.75 57.5 32.7812
Q61.5312 27.8281 61.5312 20.4062
Q61.5312 10.6406 54.8906 5.3125
Q48.25 0 35.9844 0
L9.8125 0
z
" id="DejaVuSans-42"/>
      </defs>
      <g transform="translate(97.79375 158.06987069)scale(0.12 -0.12)">
       <use xlink:href="#DejaVuSans-42"/>
      </g>
     </g>
    </g>
    <g id="ytick_2">
     <g id="line2d_19">
      <g>
       <use style="stroke:#000000;stroke-width:0.5;" x="108.0" xlink:href="#m728421d6d4" y="99.5862068966"/>
      </g>
     </g>
     <g id="line2d_20">
      <g>
       <use style="stroke:#000000;stroke-width:0.5;" x="777.6" xlink:href="#mcb0005524f" y="99.5862068966"/>
      </g>
     </g>
     <g id="text_9">
      <!-- T -->
      <defs>
       <path d="
M-0.296875 72.9062
L61.375 72.9062
L61.375 64.5938
L35.5 64.5938
L35.5 0
L25.5938 0
L25.5938 64.5938
L-0.296875 64.5938
z
" id="DejaVuSans-54"/>
      </defs>
      <g transform="translate(96.599375 102.897456897)scale(0.12 -0.12)">
       <use xlink:href="#DejaVuSans-54"/>
      </g>
     </g>
    </g>
    <g id="text_10">
     <!-- H3K27ac -->
     <defs>
      <path d="
M9.8125 72.9062
L19.6719 72.9062
L19.6719 43.0156
L55.5156 43.0156
L55.5156 72.9062
L65.375 72.9062
L65.375 0
L55.5156 0
L55.5156 34.7188
L19.6719 34.7188
L19.6719 0
L9.8125 0
z
" id="DejaVuSans-48"/>
      <path d="
M9.8125 72.9062
L19.6719 72.9062
L19.6719 42.0938
L52.3906 72.9062
L65.0938 72.9062
L28.9062 38.9219
L67.6719 0
L54.6875 0
L19.6719 35.1094
L19.6719 0
L9.8125 0
z
" id="DejaVuSans-4b"/>
      <path d="
M34.2812 27.4844
Q23.3906 27.4844 19.1875 25
Q14.9844 22.5156 14.9844 16.5
Q14.9844 11.7188 18.1406 8.90625
Q21.2969 6.10938 26.7031 6.10938
Q34.1875 6.10938 38.7031 11.4062
Q43.2188 16.7031 43.2188 25.4844
L43.2188 27.4844
z

M52.2031 31.2031
L52.2031 0
L43.2188 0
L43.2188 8.29688
Q40.1406 3.32812 35.5469 0.953125
Q30.9531 -1.42188 24.3125 -1.42188
Q15.9219 -1.42188 10.9531 3.29688
Q6 8.01562 6 15.9219
Q6 25.1406 12.1719 29.8281
Q18.3594 34.5156 30.6094 34.5156
L43.2188 34.5156
L43.2188 35.4062
Q43.2188 41.6094 39.1406 45
Q35.0625 48.3906 27.6875 48.3906
Q23 48.3906 18.5469 47.2656
Q14.1094 46.1406 10.0156 43.8906
L10.0156 52.2031
Q14.9375 54.1094 19.5781 55.0469
Q24.2188 56 28.6094 56
Q40.4844 56 46.3438 49.8438
Q52.2031 43.7031 52.2031 31.2031" id="DejaVuSans-61"/>
     </defs>
     <g transform="translate(89.10375 153.086788793)rotate(-90.0)scale(0.12 -0.12)">
      <use xlink:href="#DejaVuSans-48"/>
      <use x="75.1953125" xlink:href="#DejaVuSans-33"/>
      <use x="138.818359375" xlink:href="#DejaVuSans-4b"/>
      <use x="204.39453125" xlink:href="#DejaVuSans-32"/>
      <use x="268.017578125" xlink:href="#DejaVuSans-37"/>
      <use x="331.640625" xlink:href="#DejaVuSans-61"/>
      <use x="392.919921875" xlink:href="#DejaVuSans-63"/>
     </g>
    </g>
   </g>
  </g>
  <g id="axes_3">
   <g id="patch_56">
    <path d="
M108 312.552
L777.6 312.552
L777.6 202.207
L108 202.207
z
" style="fill:#ffffff;"/>
   </g>
   <g id="patch_57">
    <path clip-path="url(#pe18a98d3cc)" d="
M169.619 312.552
L175.633 312.552
L175.633 202.207
L169.619 202.207
z
" style="fill:#008000;opacity:0.2;"/>
   </g>
   <g id="patch_58">
    <path clip-path="url(#pe18a98d3cc)" d="
M280.422 312.552
L282.418 312.552
L282.418 202.207
L280.422 202.207
z
" style="fill:#008000;opacity:0.2;"/>
   </g>
   <g id="patch_59">
    <path clip-path="url(#pe18a98d3cc)" d="
M293.3 312.552
L295.408 312.552
L295.408 202.207
L293.3 202.207
z
" style="fill:#008000;opacity:0.2;"/>
   </g>
   <g id="patch_60">
    <path clip-path="url(#pe18a98d3cc)" d="
M343.396 312.552
L344.013 312.552
L344.013 202.207
L343.396 202.207
z
" style="fill:#008000;opacity:0.2;"/>
   </g>
   <g id="patch_61">
    <path clip-path="url(#pe18a98d3cc)" d="
M348.129 312.552
L349.152 312.552
L349.152 202.207
L348.129 202.207
z
" style="fill:#008000;opacity:0.2;"/>
   </g>
   <g id="patch_62">
    <path clip-path="url(#pe18a98d3cc)" d="
M408.121 312.552
L409.366 312.552
L409.366 202.207
L408.121 202.207
z
" style="fill:#008000;opacity:0.2;"/>
   </g>
   <g id="patch_63">
    <path clip-path="url(#pe18a98d3cc)" d="
M427.814 312.552
L428.467 312.552
L428.467 202.207
L427.814 202.207
z
" style="fill:#008000;opacity:0.2;"/>
   </g>
   <g id="patch_64">
    <path clip-path="url(#pe18a98d3cc)" d="
M482.606 312.552
L483.407 312.552
L483.407 202.207
L482.606 202.207
z
" style="fill:#008000;opacity:0.2;"/>
   </g>
   <g id="patch_65">
    <path clip-path="url(#pe18a98d3cc)" d="
M536.337 312.552
L537.619 312.552
L537.619 202.207
L536.337 202.207
z
" style="fill:#008000;opacity:0.2;"/>
   </g>
   <g id="patch_66">
    <path clip-path="url(#pe18a98d3cc)" d="
M561.207 312.552
L562.957 312.552
L562.957 202.207
L561.207 202.207
z
" style="fill:#008000;opacity:0.2;"/>
   </g>
   <g id="patch_67">
    <path clip-path="url(#pe18a98d3cc)" d="
M599.176 312.552
L599.756 312.552
L599.756 202.207
L599.176 202.207
z
" style="fill:#008000;opacity:0.2;"/>
   </g>
   <g id="patch_68">
    <path clip-path="url(#pe18a98d3cc)" d="
M627.09 312.552
L627.595 312.552
L627.595 202.207
L627.09 202.207
z
" style="fill:#008000;opacity:0.2;"/>
   </g>
   <g id="patch_69">
    <path clip-path="url(#pe18a98d3cc)" d="
M675.263 312.552
L676.681 312.552
L676.681 202.207
L675.263 202.207
z
" style="fill:#008000;opacity:0.2;"/>
   </g>
   <g id="patch_70">
    <path clip-path="url(#pe18a98d3cc)" d="
M685.233 312.552
L686.527 312.552
L686.527 202.207
L685.233 202.207
z
" style="fill:#008000;opacity:0.2;"/>
   </g>
   <g id="patch_71">
    <path clip-path="url(#pe18a98d3cc)" d="
M690.077 312.552
L691.025 312.552
L691.025 202.207
L690.077 202.207
z
" style="fill:#008000;opacity:0.2;"/>
   </g>
   <g id="patch_72">
    <path clip-path="url(#pe18a98d3cc)" d="
M693.379 312.552
L695.142 312.552
L695.142 202.207
L693.379 202.207
z
" style="fill:#008000;opacity:0.2;"/>
   </g>
   <g id="patch_73">
    <path clip-path="url(#pe18a98d3cc)" d="
M710.398 312.552
L715.981 312.552
L715.981 202.207
L710.398 202.207
z
" style="fill:#008000;opacity:0.2;"/>
   </g>
   <g id="patch_74">
    <path d="
M108 202.207
L777.6 202.207" style="fill:none;stroke:#000000;stroke-linecap:square;stroke-linejoin:miter;"/>
   </g>
   <g id="patch_75">
    <path d="
M777.6 312.552
L777.6 202.207" style="fill:none;stroke:#000000;stroke-linecap:square;stroke-linejoin:miter;"/>
   </g>
   <g id="patch_76">
    <path d="
M108 312.552
L777.6 312.552" style="fill:none;stroke:#000000;stroke-linecap:square;stroke-linejoin:miter;"/>
   </g>
   <g id="patch_77">
    <path d="
M108 312.552
L108 202.207" style="fill:none;stroke:#000000;stroke-linecap:square;stroke-linejoin:miter;"/>
   </g>
   <g id="matplotlib.axis_3">
    <g id="ytick_3">
     <g id="line2d_21">
      <g>
       <use style="stroke:#000000;stroke-width:0.5;" x="108.0" xlink:href="#m728421d6d4" y="284.965517241"/>
      </g>
     </g>
     <g id="line2d_22">
      <g>
       <use style="stroke:#000000;stroke-width:0.5;" x="777.6" xlink:href="#mcb0005524f" y="284.965517241"/>
      </g>
     </g>
     <g id="text_11">
      <!-- B -->
      <g transform="translate(97.79375 288.276767241)scale(0.12 -0.12)">
       <use xlink:href="#DejaVuSans-42"/>
      </g>
     </g>
    </g>
    <g id="ytick_4">
     <g id="line2d_23">
      <g>
       <use style="stroke:#000000;stroke-width:0.5;" x="108.0" xlink:href="#m728421d6d4" y="229.793103448"/>
      </g>
     </g>
     <g id="line2d_24">
      <g>
       <use style="stroke:#000000;stroke-width:0.5;" x="777.6" xlink:href="#mcb0005524f" y="229.793103448"/>
      </g>
     </g>
     <g id="text_12">
      <!-- T -->
      <g transform="translate(96.599375 233.104353448)scale(0.12 -0.12)">
       <use xlink:href="#DejaVuSans-54"/>
      </g>
     </g>
    </g>
    <g id="text_13">
     <!-- H3K27me3 -->
     <defs>
      <path d="
M52 44.1875
Q55.375 50.25 60.0625 53.125
Q64.75 56 71.0938 56
Q79.6406 56 84.2812 50.0156
Q88.9219 44.0469 88.9219 33.0156
L88.9219 0
L79.8906 0
L79.8906 32.7188
Q79.8906 40.5781 77.0938 44.375
Q74.3125 48.1875 68.6094 48.1875
Q61.625 48.1875 57.5625 43.5469
Q53.5156 38.9219 53.5156 30.9062
L53.5156 0
L44.4844 0
L44.4844 32.7188
Q44.4844 40.625 41.7031 44.4062
Q38.9219 48.1875 33.1094 48.1875
Q26.2188 48.1875 22.1562 43.5312
Q18.1094 38.875 18.1094 30.9062
L18.1094 0
L9.07812 0
L9.07812 54.6875
L18.1094 54.6875
L18.1094 46.1875
Q21.1875 51.2188 25.4844 53.6094
Q29.7812 56 35.6875 56
Q41.6562 56 45.8281 52.9688
Q50 49.9531 52 44.1875" id="DejaVuSans-6d"/>
     </defs>
     <g transform="translate(89.10375 289.562747845)rotate(-90.0)scale(0.12 -0.12)">
      <use xlink:href="#DejaVuSans-48"/>
      <use x="75.1953125" xlink:href="#DejaVuSans-33"/>
      <use x="138.818359375" xlink:href="#DejaVuSans-4b"/>
      <use x="204.39453125" xlink:href="#DejaVuSans-32"/>
      <use x="268.017578125" xlink:href="#DejaVuSans-37"/>
      <use x="331.640625" xlink:href="#DejaVuSans-6d"/>
      <use x="429.052734375" xlink:href="#DejaVuSans-65"/>
      <use x="490.576171875" xlink:href="#DejaVuSans-33"/>
     </g>
    </g>
   </g>
  </g>
  <g id="axes_4">
   <g id="patch_78">
    <path d="
M108 442.759
L777.6 442.759
L777.6 332.414
L108 332.414
z
" style="fill:#ffffff;"/>
   </g>
   <g id="patch_79">
    <path clip-path="url(#p0c507b41c0)" d="
M345.713 437.241
L363.62 437.241
L363.62 393.103
L345.713 393.103
z
" style="fill:#0000ff;opacity:0.7;"/>
   </g>
   <g id="patch_80">
    <path clip-path="url(#p0c507b41c0)" d="
M346.428 382.069
L384.903 382.069
L384.903 337.931
L346.428 337.931
z
" style="fill:#ff0000;opacity:0.7;"/>
   </g>
   <g id="patch_81">
    <path clip-path="url(#p0c507b41c0)" d="
M671.049 382.069
L721.108 382.069
L721.108 337.931
L671.049 337.931
z
" style="fill:#ff0000;opacity:0.7;"/>
   </g>
   <g id="patch_82">
    <path clip-path="url(#p0c507b41c0)" d="
M169.619 442.759
L175.633 442.759
L175.633 332.414
L169.619 332.414
z
" style="fill:#008000;opacity:0.2;"/>
   </g>
   <g id="patch_83">
    <path clip-path="url(#p0c507b41c0)" d="
M280.422 442.759
L282.418 442.759
L282.418 332.414
L280.422 332.414
z
" style="fill:#008000;opacity:0.2;"/>
   </g>
   <g id="patch_84">
    <path clip-path="url(#p0c507b41c0)" d="
M293.3 442.759
L295.408 442.759
L295.408 332.414
L293.3 332.414
z
" style="fill:#008000;opacity:0.2;"/>
   </g>
   <g id="patch_85">
    <path clip-path="url(#p0c507b41c0)" d="
M343.396 442.759
L344.013 442.759
L344.013 332.414
L343.396 332.414
z
" style="fill:#008000;opacity:0.2;"/>
   </g>
   <g id="patch_86">
    <path clip-path="url(#p0c507b41c0)" d="
M348.129 442.759
L349.152 442.759
L349.152 332.414
L348.129 332.414
z
" style="fill:#008000;opacity:0.2;"/>
   </g>
   <g id="patch_87">
    <path clip-path="url(#p0c507b41c0)" d="
M408.121 442.759
L409.366 442.759
L409.366 332.414
L408.121 332.414
z
" style="fill:#008000;opacity:0.2;"/>
   </g>
   <g id="patch_88">
    <path clip-path="url(#p0c507b41c0)" d="
M427.814 442.759
L428.467 442.759
L428.467 332.414
L427.814 332.414
z
" style="fill:#008000;opacity:0.2;"/>
   </g>
   <g id="patch_89">
    <path clip-path="url(#p0c507b41c0)" d="
M482.606 442.759
L483.407 442.759
L483.407 332.414
L482.606 332.414
z
" style="fill:#008000;opacity:0.2;"/>
   </g>
   <g id="patch_90">
    <path clip-path="url(#p0c507b41c0)" d="
M536.337 442.759
L537.619 442.759
L537.619 332.414
L536.337 332.414
z
" style="fill:#008000;opacity:0.2;"/>
   </g>
   <g id="patch_91">
    <path clip-path="url(#p0c507b41c0)" d="
M561.207 442.759
L562.957 442.759
L562.957 332.414
L561.207 332.414
z
" style="fill:#008000;opacity:0.2;"/>
   </g>
   <g id="patch_92">
    <path clip-path="url(#p0c507b41c0)" d="
M599.176 442.759
L599.756 442.759
L599.756 332.414
L599.176 332.414
z
" style="fill:#008000;opacity:0.2;"/>
   </g>
   <g id="patch_93">
    <path clip-path="url(#p0c507b41c0)" d="
M627.09 442.759
L627.595 442.759
L627.595 332.414
L627.09 332.414
z
" style="fill:#008000;opacity:0.2;"/>
   </g>
   <g id="patch_94">
    <path clip-path="url(#p0c507b41c0)" d="
M675.263 442.759
L676.681 442.759
L676.681 332.414
L675.263 332.414
z
" style="fill:#008000;opacity:0.2;"/>
   </g>
   <g id="patch_95">
    <path clip-path="url(#p0c507b41c0)" d="
M685.233 442.759
L686.527 442.759
L686.527 332.414
L685.233 332.414
z
" style="fill:#008000;opacity:0.2;"/>
   </g>
   <g id="patch_96">
    <path clip-path="url(#p0c507b41c0)" d="
M690.077 442.759
L691.025 442.759
L691.025 332.414
L690.077 332.414
z
" style="fill:#008000;opacity:0.2;"/>
   </g>
   <g id="patch_97">
    <path clip-path="url(#p0c507b41c0)" d="
M693.379 442.759
L695.142 442.759
L695.142 332.414
L693.379 332.414
z
" style="fill:#008000;opacity:0.2;"/>
   </g>
   <g id="patch_98">
    <path clip-path="url(#p0c507b41c0)" d="
M710.398 442.759
L715.981 442.759
L715.981 332.414
L710.398 332.414
z
" style="fill:#008000;opacity:0.2;"/>
   </g>
   <g id="patch_99">
    <path d="
M108 332.414
L777.6 332.414" style="fill:none;stroke:#000000;stroke-linecap:square;stroke-linejoin:miter;"/>
   </g>
   <g id="patch_100">
    <path d="
M777.6 442.759
L777.6 332.414" style="fill:none;stroke:#000000;stroke-linecap:square;stroke-linejoin:miter;"/>
   </g>
   <g id="patch_101">
    <path d="
M108 442.759
L777.6 442.759" style="fill:none;stroke:#000000;stroke-linecap:square;stroke-linejoin:miter;"/>
   </g>
   <g id="patch_102">
    <path d="
M108 442.759
L108 332.414" style="fill:none;stroke:#000000;stroke-linecap:square;stroke-linejoin:miter;"/>
   </g>
   <g id="matplotlib.axis_4">
    <g id="ytick_5">
     <g id="line2d_25">
      <g>
       <use style="stroke:#000000;stroke-width:0.5;" x="108.0" xlink:href="#m728421d6d4" y="415.172413793"/>
      </g>
     </g>
     <g id="line2d_26">
      <g>
       <use style="stroke:#000000;stroke-width:0.5;" x="777.6" xlink:href="#mcb0005524f" y="415.172413793"/>
      </g>
     </g>
     <g id="text_14">
      <!-- B -->
      <g transform="translate(97.79375 418.483663793)scale(0.12 -0.12)">
       <use xlink:href="#DejaVuSans-42"/>
      </g>
     </g>
    </g>
    <g id="ytick_6">
     <g id="line2d_27">
      <g>
       <use style="stroke:#000000;stroke-width:0.5;" x="108.0" xlink:href="#m728421d6d4" y="360.0"/>
      </g>
     </g>
     <g id="line2d_28">
      <g>
       <use style="stroke:#000000;stroke-width:0.5;" x="777.6" xlink:href="#mcb0005524f" y="360.0"/>
      </g>
     </g>
     <g id="text_15">
      <!-- T -->
      <g transform="translate(96.599375 363.31125)scale(0.12 -0.12)">
       <use xlink:href="#DejaVuSans-54"/>
      </g>
     </g>
    </g>
    <g id="text_16">
     <!-- H3K36me3 -->
     <g transform="translate(89.10375 419.769644397)rotate(-90.0)scale(0.12 -0.12)">
      <use xlink:href="#DejaVuSans-48"/>
      <use x="75.1953125" xlink:href="#DejaVuSans-33"/>
      <use x="138.818359375" xlink:href="#DejaVuSans-4b"/>
      <use x="204.39453125" xlink:href="#DejaVuSans-33"/>
      <use x="268.017578125" xlink:href="#DejaVuSans-36"/>
      <use x="331.640625" xlink:href="#DejaVuSans-6d"/>
      <use x="429.052734375" xlink:href="#DejaVuSans-65"/>
      <use x="490.576171875" xlink:href="#DejaVuSans-33"/>
     </g>
    </g>
   </g>
  </g>
  <g id="axes_5">
   <g id="patch_103">
    <path d="
M108 572.966
L777.6 572.966
L777.6 462.621
L108 462.621
z
" style="fill:#ffffff;"/>
   </g>
   <g id="patch_104">
    <path clip-path="url(#p9ca7c97050)" d="
M200.133 567.448
L228.724 567.448
L228.724 523.31
L200.133 523.31
z
" style="fill:#0000ff;opacity:0.7;"/>
   </g>
   <g id="patch_105">
    <path clip-path="url(#p9ca7c97050)" d="
M750.069 567.448
L838.553 567.448
L838.553 523.31
L750.069 523.31
z
" style="fill:#0000ff;opacity:0.7;"/>
   </g>
   <g id="patch_106">
    <path clip-path="url(#p9ca7c97050)" d="
M121.642 512.276
L150.086 512.276
L150.086 468.138
L121.642 468.138
z
" style="fill:#ff0000;opacity:0.7;"/>
   </g>
   <g id="patch_107">
    <path clip-path="url(#p9ca7c97050)" d="
M165.429 512.276
L181.314 512.276
L181.314 468.138
L165.429 468.138
z
" style="fill:#ff0000;opacity:0.7;"/>
   </g>
   <g id="patch_108">
    <path clip-path="url(#p9ca7c97050)" d="
M767.581 512.276
L851.629 512.276
L851.629 468.138
L767.581 468.138
z
" style="fill:#ff0000;opacity:0.7;"/>
   </g>
   <g id="patch_109">
    <path clip-path="url(#p9ca7c97050)" d="
M169.619 572.966
L175.633 572.966
L175.633 462.621
L169.619 462.621
z
" style="fill:#008000;opacity:0.2;"/>
   </g>
   <g id="patch_110">
    <path clip-path="url(#p9ca7c97050)" d="
M280.422 572.966
L282.418 572.966
L282.418 462.621
L280.422 462.621
z
" style="fill:#008000;opacity:0.2;"/>
   </g>
   <g id="patch_111">
    <path clip-path="url(#p9ca7c97050)" d="
M293.3 572.966
L295.408 572.966
L295.408 462.621
L293.3 462.621
z
" style="fill:#008000;opacity:0.2;"/>
   </g>
   <g id="patch_112">
    <path clip-path="url(#p9ca7c97050)" d="
M343.396 572.966
L344.013 572.966
L344.013 462.621
L343.396 462.621
z
" style="fill:#008000;opacity:0.2;"/>
   </g>
   <g id="patch_113">
    <path clip-path="url(#p9ca7c97050)" d="
M348.129 572.966
L349.152 572.966
L349.152 462.621
L348.129 462.621
z
" style="fill:#008000;opacity:0.2;"/>
   </g>
   <g id="patch_114">
    <path clip-path="url(#p9ca7c97050)" d="
M408.121 572.966
L409.366 572.966
L409.366 462.621
L408.121 462.621
z
" style="fill:#008000;opacity:0.2;"/>
   </g>
   <g id="patch_115">
    <path clip-path="url(#p9ca7c97050)" d="
M427.814 572.966
L428.467 572.966
L428.467 462.621
L427.814 462.621
z
" style="fill:#008000;opacity:0.2;"/>
   </g>
   <g id="patch_116">
    <path clip-path="url(#p9ca7c97050)" d="
M482.606 572.966
L483.407 572.966
L483.407 462.621
L482.606 462.621
z
" style="fill:#008000;opacity:0.2;"/>
   </g>
   <g id="patch_117">
    <path clip-path="url(#p9ca7c97050)" d="
M536.337 572.966
L537.619 572.966
L537.619 462.621
L536.337 462.621
z
" style="fill:#008000;opacity:0.2;"/>
   </g>
   <g id="patch_118">
    <path clip-path="url(#p9ca7c97050)" d="
M561.207 572.966
L562.957 572.966
L562.957 462.621
L561.207 462.621
z
" style="fill:#008000;opacity:0.2;"/>
   </g>
   <g id="patch_119">
    <path clip-path="url(#p9ca7c97050)" d="
M599.176 572.966
L599.756 572.966
L599.756 462.621
L599.176 462.621
z
" style="fill:#008000;opacity:0.2;"/>
   </g>
   <g id="patch_120">
    <path clip-path="url(#p9ca7c97050)" d="
M627.09 572.966
L627.595 572.966
L627.595 462.621
L627.09 462.621
z
" style="fill:#008000;opacity:0.2;"/>
   </g>
   <g id="patch_121">
    <path clip-path="url(#p9ca7c97050)" d="
M675.263 572.966
L676.681 572.966
L676.681 462.621
L675.263 462.621
z
" style="fill:#008000;opacity:0.2;"/>
   </g>
   <g id="patch_122">
    <path clip-path="url(#p9ca7c97050)" d="
M685.233 572.966
L686.527 572.966
L686.527 462.621
L685.233 462.621
z
" style="fill:#008000;opacity:0.2;"/>
   </g>
   <g id="patch_123">
    <path clip-path="url(#p9ca7c97050)" d="
M690.077 572.966
L691.025 572.966
L691.025 462.621
L690.077 462.621
z
" style="fill:#008000;opacity:0.2;"/>
   </g>
   <g id="patch_124">
    <path clip-path="url(#p9ca7c97050)" d="
M693.379 572.966
L695.142 572.966
L695.142 462.621
L693.379 462.621
z
" style="fill:#008000;opacity:0.2;"/>
   </g>
   <g id="patch_125">
    <path clip-path="url(#p9ca7c97050)" d="
M710.398 572.966
L715.981 572.966
L715.981 462.621
L710.398 462.621
z
" style="fill:#008000;opacity:0.2;"/>
   </g>
   <g id="patch_126">
    <path d="
M108 462.621
L777.6 462.621" style="fill:none;stroke:#000000;stroke-linecap:square;stroke-linejoin:miter;"/>
   </g>
   <g id="patch_127">
    <path d="
M777.6 572.966
L777.6 462.621" style="fill:none;stroke:#000000;stroke-linecap:square;stroke-linejoin:miter;"/>
   </g>
   <g id="patch_128">
    <path d="
M108 572.966
L777.6 572.966" style="fill:none;stroke:#000000;stroke-linecap:square;stroke-linejoin:miter;"/>
   </g>
   <g id="patch_129">
    <path d="
M108 572.966
L108 462.621" style="fill:none;stroke:#000000;stroke-linecap:square;stroke-linejoin:miter;"/>
   </g>
   <g id="matplotlib.axis_5">
    <g id="ytick_7">
     <g id="line2d_29">
      <g>
       <use style="stroke:#000000;stroke-width:0.5;" x="108.0" xlink:href="#m728421d6d4" y="545.379310345"/>
      </g>
     </g>
     <g id="line2d_30">
      <g>
       <use style="stroke:#000000;stroke-width:0.5;" x="777.6" xlink:href="#mcb0005524f" y="545.379310345"/>
      </g>
     </g>
     <g id="text_17">
      <!-- B -->
      <g transform="translate(97.79375 548.690560345)scale(0.12 -0.12)">
       <use xlink:href="#DejaVuSans-42"/>
      </g>
     </g>
    </g>
    <g id="ytick_8">
     <g id="line2d_31">
      <g>
       <use style="stroke:#000000;stroke-width:0.5;" x="108.0" xlink:href="#m728421d6d4" y="490.206896552"/>
      </g>
     </g>
     <g id="line2d_32">
      <g>
       <use style="stroke:#000000;stroke-width:0.5;" x="777.6" xlink:href="#mcb0005524f" y="490.206896552"/>
      </g>
     </g>
     <g id="text_18">
      <!-- T -->
      <g transform="translate(96.599375 493.518146552)scale(0.12 -0.12)">
       <use xlink:href="#DejaVuSans-54"/>
      </g>
     </g>
    </g>
    <g id="text_19">
     <!-- H3K4me3 -->
     <g transform="translate(89.10375 546.159040948)rotate(-90.0)scale(0.12 -0.12)">
      <use xlink:href="#DejaVuSans-48"/>
      <use x="75.1953125" xlink:href="#DejaVuSans-33"/>
      <use x="138.818359375" xlink:href="#DejaVuSans-4b"/>
      <use x="204.39453125" xlink:href="#DejaVuSans-34"/>
      <use x="268.017578125" xlink:href="#DejaVuSans-6d"/>
      <use x="365.4296875" xlink:href="#DejaVuSans-65"/>
      <use x="426.953125" xlink:href="#DejaVuSans-33"/>
     </g>
    </g>
   </g>
  </g>
  <g id="text_20">
   <!-- ENSMUST00000080204 (Sp140) -->
   <defs>
    <path d="
M53.5156 70.5156
L53.5156 60.8906
Q47.9062 63.5781 42.9219 64.8906
Q37.9375 66.2188 33.2969 66.2188
Q25.25 66.2188 20.875 63.0938
Q16.5 59.9688 16.5 54.2031
Q16.5 49.3594 19.4062 46.8906
Q22.3125 44.4375 30.4219 42.9219
L36.375 41.7031
Q47.4062 39.5938 52.6562 34.2969
Q57.9062 29 57.9062 20.125
Q57.9062 9.51562 50.7969 4.04688
Q43.7031 -1.42188 29.9844 -1.42188
Q24.8125 -1.42188 18.9688 -0.25
Q13.1406 0.921875 6.89062 3.21875
L6.89062 13.375
Q12.8906 10.0156 18.6562 8.29688
Q24.4219 6.59375 29.9844 6.59375
Q38.4219 6.59375 43.0156 9.90625
Q47.6094 13.2344 47.6094 19.3906
Q47.6094 24.75 44.3125 27.7812
Q41.0156 30.8125 33.5 32.3281
L27.4844 33.5
Q16.4531 35.6875 11.5156 40.375
Q6.59375 45.0625 6.59375 53.4219
Q6.59375 63.0938 13.4062 68.6562
Q20.2188 74.2188 32.1719 74.2188
Q37.3125 74.2188 42.625 73.2812
Q47.9531 72.3594 53.5156 70.5156" id="DejaVuSans-53"/>
    <path d="
M9.8125 72.9062
L55.9062 72.9062
L55.9062 64.5938
L19.6719 64.5938
L19.6719 43.0156
L54.3906 43.0156
L54.3906 34.7188
L19.6719 34.7188
L19.6719 8.29688
L56.7812 8.29688
L56.7812 0
L9.8125 0
z
" id="DejaVuSans-45"/>
    <path d="
M9.8125 72.9062
L24.5156 72.9062
L43.1094 23.2969
L61.8125 72.9062
L76.5156 72.9062
L76.5156 0
L66.8906 0
L66.8906 64.0156
L48.0938 14.0156
L38.1875 14.0156
L19.3906 64.0156
L19.3906 0
L9.8125 0
z
" id="DejaVuSans-4d"/>
    <path d="
M8.6875 72.9062
L18.6094 72.9062
L18.6094 28.6094
Q18.6094 16.8906 22.8438 11.7344
Q27.0938 6.59375 36.625 6.59375
Q46.0938 6.59375 50.3438 11.7344
Q54.5938 16.8906 54.5938 28.6094
L54.5938 72.9062
L64.5 72.9062
L64.5 27.3906
Q64.5 13.1406 57.4375 5.85938
Q50.3906 -1.42188 36.625 -1.42188
Q22.7969 -1.42188 15.7344 5.85938
Q8.6875 13.1406 8.6875 27.3906
z
" id="DejaVuSans-55"/>
    <path d="
M9.8125 72.9062
L23.0938 72.9062
L55.4219 11.9219
L55.4219 72.9062
L64.9844 72.9062
L64.9844 0
L51.7031 0
L19.3906 60.9844
L19.3906 0
L9.8125 0
z
" id="DejaVuSans-4e"/>
   </defs>
   <g transform="translate(335.7328125 23.518125)scale(0.12 -0.12)">
    <use xlink:href="#DejaVuSans-45"/>
    <use x="63.18359375" xlink:href="#DejaVuSans-4e"/>
    <use x="137.98828125" xlink:href="#DejaVuSans-53"/>
    <use x="201.46484375" xlink:href="#DejaVuSans-4d"/>
    <use x="287.744140625" xlink:href="#DejaVuSans-55"/>
    <use x="360.9375" xlink:href="#DejaVuSans-53"/>
    <use x="424.4140625" xlink:href="#DejaVuSans-54"/>
    <use x="485.498046875" xlink:href="#DejaVuSans-30"/>
    <use x="549.12109375" xlink:href="#DejaVuSans-30"/>
    <use x="612.744140625" xlink:href="#DejaVuSans-30"/>
    <use x="676.3671875" xlink:href="#DejaVuSans-30"/>
    <use x="739.990234375" xlink:href="#DejaVuSans-30"/>
    <use x="803.61328125" xlink:href="#DejaVuSans-30"/>
    <use x="867.236328125" xlink:href="#DejaVuSans-38"/>
    <use x="930.859375" xlink:href="#DejaVuSans-30"/>
    <use x="994.482421875" xlink:href="#DejaVuSans-32"/>
    <use x="1058.10546875" xlink:href="#DejaVuSans-30"/>
    <use x="1121.72851562" xlink:href="#DejaVuSans-34"/>
    <use x="1185.3515625" xlink:href="#DejaVuSans-20"/>
    <use x="1217.13867188" xlink:href="#DejaVuSans-28"/>
    <use x="1256.15234375" xlink:href="#DejaVuSans-53"/>
    <use x="1319.62890625" xlink:href="#DejaVuSans-70"/>
    <use x="1383.10546875" xlink:href="#DejaVuSans-31"/>
    <use x="1446.72851562" xlink:href="#DejaVuSans-34"/>
    <use x="1510.3515625" xlink:href="#DejaVuSans-30"/>
    <use x="1573.97460938" xlink:href="#DejaVuSans-29"/>
   </g>
  </g>
 </g>
 <defs>
  <clipPath id="pae4c56b443">
   <rect height="55.1724137931" width="669.6" x="108.0" y="592.827586207"/>
  </clipPath>
  <clipPath id="pe18a98d3cc">
   <rect height="110.344827586" width="669.6" x="108.0" y="202.206896552"/>
  </clipPath>
  <clipPath id="p9ca7c97050">
   <rect height="110.344827586" width="669.6" x="108.0" y="462.620689655"/>
  </clipPath>
  <clipPath id="p0c507b41c0">
   <rect height="110.344827586" width="669.6" x="108.0" y="332.413793103"/>
  </clipPath>
  <clipPath id="pcc118d7821">
   <rect height="110.344827586" width="669.6" x="108.0" y="72.0"/>
  </clipPath>
 </defs>
</svg>
