<?xml version="1.0" encoding="utf-8" standalone="no"?>
<!DOCTYPE svg PUBLIC "-//W3C//DTD SVG 1.1//EN"
  "http://www.w3.org/Graphics/SVG/1.1/DTD/svg11.dtd">
<!-- Created with matplotlib (http://matplotlib.org/) -->
<svg height="576pt" version="1.1" viewBox="0 0 576 576" width="576pt" xmlns="http://www.w3.org/2000/svg" xmlns:xlink="http://www.w3.org/1999/xlink">
 <defs>
  <style type="text/css">
*{stroke-linecap:butt;stroke-linejoin:round;}
  </style>
 </defs>
 <g id="figure_1">
  <g id="patch_1">
   <path d="
M0 576
L576 576
L576 0
L0 0
z
" style="fill:#ffffff;"/>
  </g>
  <g id="axes_1">
   <g id="patch_2">
    <path d="
M72 518.4
L518.4 518.4
L518.4 57.6
L72 57.6
z
" style="fill:#ffffff;"/>
   </g>
   <g id="PathCollection_1">
    <defs>
     <path d="
M0 1.22474
C0.324806 1.22474 0.636353 1.0957 0.866025 0.866025
C1.0957 0.636353 1.22474 0.324806 1.22474 0
C1.22474 -0.324806 1.0957 -0.636353 0.866025 -0.866025
C0.636353 -1.0957 0.324806 -1.22474 0 -1.22474
C-0.324806 -1.22474 -0.636353 -1.0957 -0.866025 -0.866025
C-1.0957 -0.636353 -1.22474 -0.324806 -1.22474 0
C-1.22474 0.324806 -1.0957 0.636353 -0.866025 0.866025
C-0.636353 1.0957 -0.324806 1.22474 0 1.22474
z
" id="mbdf861544b"/>
    </defs>
    <g clip-path="url(#p4f6257ca6d)">
     <use style="fill:#808080;fill-opacity:0.4;" x="388.496086615" xlink:href="#mbdf861544b" y="365.181439936"/>
     <use style="fill:#808080;fill-opacity:0.4;" x="314.462389123" xlink:href="#mbdf861544b" y="411.216296197"/>
     <use style="fill:#808080;fill-opacity:0.4;" x="323.603630014" xlink:href="#mbdf861544b" y="436.969961236"/>
     <use style="fill:#808080;fill-opacity:0.4;" x="291.525446202" xlink:href="#mbdf861544b" y="358.262691335"/>
     <use style="fill:#808080;fill-opacity:0.4;" x="345.003424169" xlink:href="#mbdf861544b" y="409.809216542"/>
     <use style="fill:#808080;fill-opacity:0.4;" x="329.463702508" xlink:href="#mbdf861544b" y="370.032004422"/>
     <use style="fill:#808080;fill-opacity:0.4;" x="406.800298202" xlink:href="#mbdf861544b" y="394.965645763"/>
     <use style="fill:#808080;fill-opacity:0.4;" x="307.719481554" xlink:href="#mbdf861544b" y="415.700747459"/>
     <use style="fill:#808080;fill-opacity:0.4;" x="261.089569961" xlink:href="#mbdf861544b" y="406.325861293"/>
     <use style="fill:#808080;fill-opacity:0.4;" x="214.500147318" xlink:href="#mbdf861544b" y="438.45218878"/>
     <use style="fill:#808080;fill-opacity:0.4;" x="384.664897114" xlink:href="#mbdf861544b" y="296.372608375"/>
     <use style="fill:#808080;fill-opacity:0.4;" x="410.737420342" xlink:href="#mbdf861544b" y="418.425446492"/>
     <use style="fill:#808080;fill-opacity:0.4;" x="358.065962614" xlink:href="#mbdf861544b" y="385.779402841"/>
     <use style="fill:#808080;fill-opacity:0.4;" x="332.958026772" xlink:href="#mbdf861544b" y="361.534385625"/>
     <use style="fill:#808080;fill-opacity:0.4;" x="390.072292528" xlink:href="#mbdf861544b" y="305.165361912"/>
     <use style="fill:#808080;fill-opacity:0.4;" x="269.574510471" xlink:href="#mbdf861544b" y="414.424511565"/>
     <use style="fill:#808080;fill-opacity:0.4;" x="325.097797413" xlink:href="#mbdf861544b" y="313.180575866"/>
     <use style="fill:#808080;fill-opacity:0.4;" x="382.998918767" xlink:href="#mbdf861544b" y="325.471891319"/>
     <use style="fill:#808080;fill-opacity:0.4;" x="333.125855708" xlink:href="#mbdf861544b" y="322.453428524"/>
     <use style="fill:#808080;fill-opacity:0.4;" x="317.715831796" xlink:href="#mbdf861544b" y="303.380609844"/>
     <use style="fill:#808080;fill-opacity:0.4;" x="352.139911989" xlink:href="#mbdf861544b" y="430.776378963"/>
     <use style="fill:#808080;fill-opacity:0.4;" x="352.271797123" xlink:href="#mbdf861544b" y="373.696406183"/>
     <use style="fill:#808080;fill-opacity:0.4;" x="347.540834894" xlink:href="#mbdf861544b" y="283.352927601"/>
     <use style="fill:#808080;fill-opacity:0.4;" x="324.990735395" xlink:href="#mbdf861544b" y="380.658892358"/>
     <use style="fill:#808080;fill-opacity:0.4;" x="314.884738326" xlink:href="#mbdf861544b" y="409.30929587"/>
     <use style="fill:#808080;fill-opacity:0.4;" x="334.668817754" xlink:href="#mbdf861544b" y="402.481824859"/>
     <use style="fill:#808080;fill-opacity:0.4;" x="317.316420461" xlink:href="#mbdf861544b" y="365.998782229"/>
     <use style="fill:#808080;fill-opacity:0.4;" x="319.568357213" xlink:href="#mbdf861544b" y="390.051157577"/>
     <use style="fill:#808080;fill-opacity:0.4;" x="396.733526354" xlink:href="#mbdf861544b" y="302.662646528"/>
     <use style="fill:#808080;fill-opacity:0.4;" x="382.935137902" xlink:href="#mbdf861544b" y="238.665773429"/>
     <use style="fill:#808080;fill-opacity:0.4;" x="324.509645998" xlink:href="#mbdf861544b" y="344.462155105"/>
     <use style="fill:#808080;fill-opacity:0.4;" x="387.222727503" xlink:href="#mbdf861544b" y="288.205470692"/>
     <use style="fill:#808080;fill-opacity:0.4;" x="431.132084374" xlink:href="#mbdf861544b" y="240.739048609"/>
     <use style="fill:#808080;fill-opacity:0.4;" x="245.92499184" xlink:href="#mbdf861544b" y="323.094922649"/>
     <use style="fill:#808080;fill-opacity:0.4;" x="400.471947513" xlink:href="#mbdf861544b" y="229.288318625"/>
     <use style="fill:#808080;fill-opacity:0.4;" x="324.581854631" xlink:href="#mbdf861544b" y="372.632297107"/>
     <use style="fill:#808080;fill-opacity:0.4;" x="351.207139706" xlink:href="#mbdf861544b" y="387.176224628"/>
     <use style="fill:#808080;fill-opacity:0.4;" x="361.981611975" xlink:href="#mbdf861544b" y="343.322246834"/>
     <use style="fill:#808080;fill-opacity:0.4;" x="395.107653096" xlink:href="#mbdf861544b" y="283.033202593"/>
     <use style="fill:#808080;fill-opacity:0.4;" x="365.333777764" xlink:href="#mbdf861544b" y="292.039754027"/>
     <use style="fill:#808080;fill-opacity:0.4;" x="390.698766171" xlink:href="#mbdf861544b" y="277.639124806"/>
     <use style="fill:#808080;fill-opacity:0.4;" x="392.332525236" xlink:href="#mbdf861544b" y="427.77723198"/>
     <use style="fill:#808080;fill-opacity:0.4;" x="378.476175802" xlink:href="#mbdf861544b" y="293.224306482"/>
     <use style="fill:#808080;fill-opacity:0.4;" x="318.12727725" xlink:href="#mbdf861544b" y="393.480542156"/>
     <use style="fill:#808080;fill-opacity:0.4;" x="334.159366006" xlink:href="#mbdf861544b" y="427.033463127"/>
     <use style="fill:#808080;fill-opacity:0.4;" x="433.935197294" xlink:href="#mbdf861544b" y="296.109034009"/>
     <use style="fill:#808080;fill-opacity:0.4;" x="424.127387048" xlink:href="#mbdf861544b" y="362.925091498"/>
     <use style="fill:#808080;fill-opacity:0.4;" x="315.602690819" xlink:href="#mbdf861544b" y="414.179726905"/>
     <use style="fill:#808080;fill-opacity:0.4;" x="335.131250547" xlink:href="#mbdf861544b" y="425.512175896"/>
     <use style="fill:#808080;fill-opacity:0.4;" x="308.61804886" xlink:href="#mbdf861544b" y="425.441631155"/>
     <use style="fill:#808080;fill-opacity:0.4;" x="352.366131334" xlink:href="#mbdf861544b" y="252.133005219"/>
     <use style="fill:#808080;fill-opacity:0.4;" x="335.161540015" xlink:href="#mbdf861544b" y="429.043823419"/>
     <use style="fill:#808080;fill-opacity:0.4;" x="322.517644194" xlink:href="#mbdf861544b" y="361.260019672"/>
     <use style="fill:#808080;fill-opacity:0.4;" x="371.708616582" xlink:href="#mbdf861544b" y="392.905624585"/>
     <use style="fill:#808080;fill-opacity:0.4;" x="323.225594197" xlink:href="#mbdf861544b" y="435.957762527"/>
     <use style="fill:#808080;fill-opacity:0.4;" x="397.931453875" xlink:href="#mbdf861544b" y="430.582093122"/>
     <use style="fill:#808080;fill-opacity:0.4;" x="342.150021178" xlink:href="#mbdf861544b" y="343.23446965"/>
     <use style="fill:#808080;fill-opacity:0.4;" x="368.601774076" xlink:href="#mbdf861544b" y="402.829042682"/>
     <use style="fill:#808080;fill-opacity:0.4;" x="373.038503774" xlink:href="#mbdf861544b" y="210.901790561"/>
     <use style="fill:#808080;fill-opacity:0.4;" x="423.786902873" xlink:href="#mbdf861544b" y="326.065081298"/>
     <use style="fill:#808080;fill-opacity:0.4;" x="255.935647057" xlink:href="#mbdf861544b" y="204.094527735"/>
     <use style="fill:#808080;fill-opacity:0.4;" x="357.511792664" xlink:href="#mbdf861544b" y="402.676817676"/>
     <use style="fill:#808080;fill-opacity:0.4;" x="357.804077701" xlink:href="#mbdf861544b" y="302.624690013"/>
     <use style="fill:#808080;fill-opacity:0.4;" x="341.150661854" xlink:href="#mbdf861544b" y="419.381307517"/>
     <use style="fill:#808080;fill-opacity:0.4;" x="330.28123832" xlink:href="#mbdf861544b" y="397.747295328"/>
     <use style="fill:#808080;fill-opacity:0.4;" x="316.569081782" xlink:href="#mbdf861544b" y="430.268687578"/>
     <use style="fill:#808080;fill-opacity:0.4;" x="348.423030856" xlink:href="#mbdf861544b" y="419.594780998"/>
     <use style="fill:#808080;fill-opacity:0.4;" x="360.51522442" xlink:href="#mbdf861544b" y="256.714999856"/>
     <use style="fill:#808080;fill-opacity:0.4;" x="349.564625953" xlink:href="#mbdf861544b" y="423.524795289"/>
     <use style="fill:#808080;fill-opacity:0.4;" x="320.988859385" xlink:href="#mbdf861544b" y="427.213354934"/>
     <use style="fill:#808080;fill-opacity:0.4;" x="275.234236182" xlink:href="#mbdf861544b" y="414.710556324"/>
     <use style="fill:#808080;fill-opacity:0.4;" x="386.997861429" xlink:href="#mbdf861544b" y="438.620299372"/>
     <use style="fill:#808080;fill-opacity:0.4;" x="379.921584843" xlink:href="#mbdf861544b" y="336.700881116"/>
     <use style="fill:#808080;fill-opacity:0.4;" x="401.901215879" xlink:href="#mbdf861544b" y="287.437130988"/>
     <use style="fill:#808080;fill-opacity:0.4;" x="337.55419011" xlink:href="#mbdf861544b" y="342.726309788"/>
     <use style="fill:#808080;fill-opacity:0.4;" x="342.463000212" xlink:href="#mbdf861544b" y="391.179407997"/>
     <use style="fill:#808080;fill-opacity:0.4;" x="389.182842911" xlink:href="#mbdf861544b" y="396.370778483"/>
     <use style="fill:#808080;fill-opacity:0.4;" x="270.381786857" xlink:href="#mbdf861544b" y="396.466951728"/>
     <use style="fill:#808080;fill-opacity:0.4;" x="399.605080629" xlink:href="#mbdf861544b" y="284.021208841"/>
     <use style="fill:#808080;fill-opacity:0.4;" x="345.631657234" xlink:href="#mbdf861544b" y="384.428541931"/>
     <use style="fill:#808080;fill-opacity:0.4;" x="269.107228497" xlink:href="#mbdf861544b" y="420.176993699"/>
     <use style="fill:#808080;fill-opacity:0.4;" x="371.485463657" xlink:href="#mbdf861544b" y="431.389871901"/>
     <use style="fill:#808080;fill-opacity:0.4;" x="412.781548321" xlink:href="#mbdf861544b" y="411.123959271"/>
     <use style="fill:#808080;fill-opacity:0.4;" x="318.480723823" xlink:href="#mbdf861544b" y="427.500274495"/>
     <use style="fill:#808080;fill-opacity:0.4;" x="336.296080074" xlink:href="#mbdf861544b" y="419.842204823"/>
     <use style="fill:#808080;fill-opacity:0.4;" x="363.877759917" xlink:href="#mbdf861544b" y="392.247723938"/>
     <use style="fill:#808080;fill-opacity:0.4;" x="320.755379144" xlink:href="#mbdf861544b" y="429.675434697"/>
     <use style="fill:#808080;fill-opacity:0.4;" x="375.900569888" xlink:href="#mbdf861544b" y="338.061282393"/>
     <use style="fill:#808080;fill-opacity:0.4;" x="385.98652376" xlink:href="#mbdf861544b" y="328.381340329"/>
     <use style="fill:#808080;fill-opacity:0.4;" x="383.993309558" xlink:href="#mbdf861544b" y="340.626605563"/>
     <use style="fill:#808080;fill-opacity:0.4;" x="465.784405774" xlink:href="#mbdf861544b" y="187.867911552"/>
     <use style="fill:#808080;fill-opacity:0.4;" x="345.445244795" xlink:href="#mbdf861544b" y="212.70989044"/>
     <use style="fill:#808080;fill-opacity:0.4;" x="435.914662538" xlink:href="#mbdf861544b" y="312.736141895"/>
     <use style="fill:#808080;fill-opacity:0.4;" x="350.86327491" xlink:href="#mbdf861544b" y="422.831698047"/>
     <use style="fill:#808080;fill-opacity:0.4;" x="348.435769087" xlink:href="#mbdf861544b" y="422.188041287"/>
     <use style="fill:#808080;fill-opacity:0.4;" x="339.27672238" xlink:href="#mbdf861544b" y="346.85428636"/>
     <use style="fill:#808080;fill-opacity:0.4;" x="350.52893814" xlink:href="#mbdf861544b" y="362.773150248"/>
     <use style="fill:#808080;fill-opacity:0.4;" x="383.809852257" xlink:href="#mbdf861544b" y="353.77501898"/>
     <use style="fill:#808080;fill-opacity:0.4;" x="343.292101947" xlink:href="#mbdf861544b" y="400.142613762"/>
     <use style="fill:#808080;fill-opacity:0.4;" x="280.422895039" xlink:href="#mbdf861544b" y="426.75041298"/>
     <use style="fill:#808080;fill-opacity:0.4;" x="211.306556562" xlink:href="#mbdf861544b" y="427.318969692"/>
     <use style="fill:#808080;fill-opacity:0.4;" x="340.384322526" xlink:href="#mbdf861544b" y="374.640622654"/>
     <use style="fill:#808080;fill-opacity:0.4;" x="348.488340492" xlink:href="#mbdf861544b" y="235.027871595"/>
     <use style="fill:#808080;fill-opacity:0.4;" x="312.519456204" xlink:href="#mbdf861544b" y="435.057623774"/>
     <use style="fill:#808080;fill-opacity:0.4;" x="259.518617714" xlink:href="#mbdf861544b" y="414.687856833"/>
     <use style="fill:#808080;fill-opacity:0.4;" x="358.922220707" xlink:href="#mbdf861544b" y="423.706363939"/>
    </g>
   </g>
   <g id="PathCollection_2">
    <defs>
     <path d="
M0 2.23607
C0.593012 2.23607 1.16182 2.00046 1.58114 1.58114
C2.00046 1.16182 2.23607 0.593012 2.23607 0
C2.23607 -0.593012 2.00046 -1.16182 1.58114 -1.58114
C1.16182 -2.00046 0.593012 -2.23607 0 -2.23607
C-0.593012 -2.23607 -1.16182 -2.00046 -1.58114 -1.58114
C-2.00046 -1.16182 -2.23607 -0.593012 -2.23607 0
C-2.23607 0.593012 -2.00046 1.16182 -1.58114 1.58114
C-1.16182 2.00046 -0.593012 2.23607 0 2.23607
z
" id="m7cb9d76dbe"/>
    </defs>
    <g clip-path="url(#p4f6257ca6d)">
     <use style="fill:#ff0000;fill-opacity:0.7;" x="190.708906591" xlink:href="#m7cb9d76dbe" y="349.536936975"/>
     <use style="fill:#ff0000;fill-opacity:0.7;" x="232.235520159" xlink:href="#m7cb9d76dbe" y="397.316417641"/>
     <use style="fill:#ff0000;fill-opacity:0.7;" x="316.241895163" xlink:href="#m7cb9d76dbe" y="433.069790701"/>
     <use style="fill:#ff0000;fill-opacity:0.7;" x="337.790753165" xlink:href="#m7cb9d76dbe" y="261.133944676"/>
     <use style="fill:#ff0000;fill-opacity:0.7;" x="325.067022688" xlink:href="#m7cb9d76dbe" y="431.551357729"/>
     <use style="fill:#ff0000;fill-opacity:0.7;" x="313.90234826" xlink:href="#m7cb9d76dbe" y="340.868389191"/>
     <use style="fill:#ff0000;fill-opacity:0.7;" x="321.448800975" xlink:href="#m7cb9d76dbe" y="390.960170624"/>
     <use style="fill:#ff0000;fill-opacity:0.7;" x="314.002395582" xlink:href="#m7cb9d76dbe" y="418.8567891"/>
     <use style="fill:#ff0000;fill-opacity:0.7;" x="310.416731242" xlink:href="#m7cb9d76dbe" y="428.973849619"/>
     <use style="fill:#ff0000;fill-opacity:0.7;" x="311.731725944" xlink:href="#m7cb9d76dbe" y="438.679234839"/>
     <use style="fill:#ff0000;fill-opacity:0.7;" x="200.567893766" xlink:href="#m7cb9d76dbe" y="306.875846043"/>
     <use style="fill:#ff0000;fill-opacity:0.7;" x="259.562652279" xlink:href="#m7cb9d76dbe" y="160.227351193"/>
     <use style="fill:#ff0000;fill-opacity:0.7;" x="338.239155787" xlink:href="#m7cb9d76dbe" y="435.9560518"/>
     <use style="fill:#ff0000;fill-opacity:0.7;" x="433.424863912" xlink:href="#m7cb9d76dbe" y="316.682835099"/>
     <use style="fill:#ff0000;fill-opacity:0.7;" x="294.271418513" xlink:href="#m7cb9d76dbe" y="385.257403125"/>
    </g>
   </g>
   <g id="PathCollection_3">
    <defs>
     <path d="
M0 2.23607
C0.593012 2.23607 1.16182 2.00046 1.58114 1.58114
C2.00046 1.16182 2.23607 0.593012 2.23607 0
C2.23607 -0.593012 2.00046 -1.16182 1.58114 -1.58114
C1.16182 -2.00046 0.593012 -2.23607 0 -2.23607
C-0.593012 -2.23607 -1.16182 -2.00046 -1.58114 -1.58114
C-2.00046 -1.16182 -2.23607 -0.593012 -2.23607 0
C-2.23607 0.593012 -2.00046 1.16182 -1.58114 1.58114
C-1.16182 2.00046 -0.593012 2.23607 0 2.23607
z
" id="m2ef34689e1"/>
    </defs>
    <g clip-path="url(#p4f6257ca6d)">
     <use style="fill:#0000ff;fill-opacity:0.7;" x="277.502778238" xlink:href="#m2ef34689e1" y="418.095303706"/>
     <use style="fill:#0000ff;fill-opacity:0.7;" x="339.675620908" xlink:href="#m2ef34689e1" y="276.668755432"/>
     <use style="fill:#0000ff;fill-opacity:0.7;" x="402.528205636" xlink:href="#m2ef34689e1" y="285.633409787"/>
     <use style="fill:#0000ff;fill-opacity:0.7;" x="318.257020113" xlink:href="#m2ef34689e1" y="373.680399088"/>
     <use style="fill:#0000ff;fill-opacity:0.7;" x="331.110314135" xlink:href="#m2ef34689e1" y="237.024827523"/>
     <use style="fill:#0000ff;fill-opacity:0.7;" x="326.343858697" xlink:href="#m2ef34689e1" y="384.848524463"/>
     <use style="fill:#0000ff;fill-opacity:0.7;" x="316.523632274" xlink:href="#m2ef34689e1" y="432.132918284"/>
     <use style="fill:#0000ff;fill-opacity:0.7;" x="336.766200227" xlink:href="#m2ef34689e1" y="438.625188447"/>
     <use style="fill:#0000ff;fill-opacity:0.7;" x="313.199048057" xlink:href="#m2ef34689e1" y="404.863659034"/>
     <use style="fill:#0000ff;fill-opacity:0.7;" x="373.931493414" xlink:href="#m2ef34689e1" y="359.000342927"/>
     <use style="fill:#0000ff;fill-opacity:0.7;" x="365.89596533" xlink:href="#m2ef34689e1" y="405.436140443"/>
     <use style="fill:#0000ff;fill-opacity:0.7;" x="333.460567336" xlink:href="#m2ef34689e1" y="274.250789567"/>
     <use style="fill:#0000ff;fill-opacity:0.7;" x="331.404875242" xlink:href="#m2ef34689e1" y="391.459389832"/>
     <use style="fill:#0000ff;fill-opacity:0.7;" x="340.459272514" xlink:href="#m2ef34689e1" y="346.281361896"/>
     <use style="fill:#0000ff;fill-opacity:0.7;" x="417.472410164" xlink:href="#m2ef34689e1" y="308.765629316"/>
     <use style="fill:#0000ff;fill-opacity:0.7;" x="375.261726627" xlink:href="#m2ef34689e1" y="257.162553448"/>
     <use style="fill:#0000ff;fill-opacity:0.7;" x="310.061333796" xlink:href="#m2ef34689e1" y="422.013250524"/>
     <use style="fill:#0000ff;fill-opacity:0.7;" x="258.397334495" xlink:href="#m2ef34689e1" y="434.845421444"/>
     <use style="fill:#0000ff;fill-opacity:0.7;" x="344.85199252" xlink:href="#m2ef34689e1" y="263.586799919"/>
     <use style="fill:#0000ff;fill-opacity:0.7;" x="355.216996997" xlink:href="#m2ef34689e1" y="432.961709629"/>
     <use style="fill:#0000ff;fill-opacity:0.7;" x="393.228433901" xlink:href="#m2ef34689e1" y="288.01880262"/>
     <use style="fill:#0000ff;fill-opacity:0.7;" x="327.767584625" xlink:href="#m2ef34689e1" y="294.980432779"/>
     <use style="fill:#0000ff;fill-opacity:0.7;" x="345.488070685" xlink:href="#m2ef34689e1" y="338.370338539"/>
     <use style="fill:#0000ff;fill-opacity:0.7;" x="317.816098822" xlink:href="#m2ef34689e1" y="389.06577597"/>
     <use style="fill:#0000ff;fill-opacity:0.7;" x="331.231279278" xlink:href="#m2ef34689e1" y="366.95130641"/>
     <use style="fill:#0000ff;fill-opacity:0.7;" x="325.318546304" xlink:href="#m2ef34689e1" y="384.235961361"/>
     <use style="fill:#0000ff;fill-opacity:0.7;" x="415.847027389" xlink:href="#m2ef34689e1" y="257.309927209"/>
     <use style="fill:#0000ff;fill-opacity:0.7;" x="323.963237599" xlink:href="#m2ef34689e1" y="413.489978191"/>
     <use style="fill:#0000ff;fill-opacity:0.7;" x="332.891835355" xlink:href="#m2ef34689e1" y="385.441832311"/>
     <use style="fill:#0000ff;fill-opacity:0.7;" x="323.561704071" xlink:href="#m2ef34689e1" y="379.044608757"/>
     <use style="fill:#0000ff;fill-opacity:0.7;" x="353.860554409" xlink:href="#m2ef34689e1" y="336.546517568"/>
     <use style="fill:#0000ff;fill-opacity:0.7;" x="318.480800724" xlink:href="#m2ef34689e1" y="400.691788358"/>
     <use style="fill:#0000ff;fill-opacity:0.7;" x="329.986816182" xlink:href="#m2ef34689e1" y="429.708639209"/>
     <use style="fill:#0000ff;fill-opacity:0.7;" x="398.630018683" xlink:href="#m2ef34689e1" y="284.806260577"/>
     <use style="fill:#0000ff;fill-opacity:0.7;" x="369.087748242" xlink:href="#m2ef34689e1" y="360.044029362"/>
     <use style="fill:#0000ff;fill-opacity:0.7;" x="338.90779672" xlink:href="#m2ef34689e1" y="398.18986798"/>
     <use style="fill:#0000ff;fill-opacity:0.7;" x="313.694192117" xlink:href="#m2ef34689e1" y="388.063209033"/>
     <use style="fill:#0000ff;fill-opacity:0.7;" x="324.471371907" xlink:href="#m2ef34689e1" y="432.094038826"/>
     <use style="fill:#0000ff;fill-opacity:0.7;" x="377.343292422" xlink:href="#m2ef34689e1" y="330.303740843"/>
     <use style="fill:#0000ff;fill-opacity:0.7;" x="346.537222506" xlink:href="#m2ef34689e1" y="293.40262008"/>
     <use style="fill:#0000ff;fill-opacity:0.7;" x="418.198471292" xlink:href="#m2ef34689e1" y="374.650555601"/>
     <use style="fill:#0000ff;fill-opacity:0.7;" x="340.948898217" xlink:href="#m2ef34689e1" y="424.956739996"/>
     <use style="fill:#0000ff;fill-opacity:0.7;" x="323.680115455" xlink:href="#m2ef34689e1" y="426.59160431"/>
     <use style="fill:#0000ff;fill-opacity:0.7;" x="309.230536439" xlink:href="#m2ef34689e1" y="387.137037295"/>
     <use style="fill:#0000ff;fill-opacity:0.7;" x="349.164541445" xlink:href="#m2ef34689e1" y="237.877364744"/>
     <use style="fill:#0000ff;fill-opacity:0.7;" x="370.612518792" xlink:href="#m2ef34689e1" y="326.483657341"/>
     <use style="fill:#0000ff;fill-opacity:0.7;" x="339.878311695" xlink:href="#m2ef34689e1" y="321.142321737"/>
     <use style="fill:#0000ff;fill-opacity:0.7;" x="347.021830496" xlink:href="#m2ef34689e1" y="396.335212208"/>
     <use style="fill:#0000ff;fill-opacity:0.7;" x="331.328631704" xlink:href="#m2ef34689e1" y="331.49294059"/>
     <use style="fill:#0000ff;fill-opacity:0.7;" x="335.839750508" xlink:href="#m2ef34689e1" y="321.703414223"/>
     <use style="fill:#0000ff;fill-opacity:0.7;" x="324.195973868" xlink:href="#m2ef34689e1" y="416.750826431"/>
     <use style="fill:#0000ff;fill-opacity:0.7;" x="440.514333821" xlink:href="#m2ef34689e1" y="370.937891193"/>
     <use style="fill:#0000ff;fill-opacity:0.7;" x="349.822561329" xlink:href="#m2ef34689e1" y="302.819316575"/>
     <use style="fill:#0000ff;fill-opacity:0.7;" x="272.729172109" xlink:href="#m2ef34689e1" y="423.192924381"/>
     <use style="fill:#0000ff;fill-opacity:0.7;" x="361.007903779" xlink:href="#m2ef34689e1" y="395.88968456"/>
     <use style="fill:#0000ff;fill-opacity:0.7;" x="345.355421828" xlink:href="#m2ef34689e1" y="320.703648942"/>
     <use style="fill:#0000ff;fill-opacity:0.7;" x="334.732384259" xlink:href="#m2ef34689e1" y="429.407897052"/>
     <use style="fill:#0000ff;fill-opacity:0.7;" x="318.860190818" xlink:href="#m2ef34689e1" y="427.260269622"/>
     <use style="fill:#0000ff;fill-opacity:0.7;" x="420.978489857" xlink:href="#m2ef34689e1" y="207.31029955"/>
     <use style="fill:#0000ff;fill-opacity:0.7;" x="364.244092472" xlink:href="#m2ef34689e1" y="431.346947134"/>
     <use style="fill:#0000ff;fill-opacity:0.7;" x="320.471742501" xlink:href="#m2ef34689e1" y="400.552674038"/>
     <use style="fill:#0000ff;fill-opacity:0.7;" x="337.076520839" xlink:href="#m2ef34689e1" y="363.00847783"/>
     <use style="fill:#0000ff;fill-opacity:0.7;" x="392.235008942" xlink:href="#m2ef34689e1" y="284.676932863"/>
     <use style="fill:#0000ff;fill-opacity:0.7;" x="348.198471348" xlink:href="#m2ef34689e1" y="239.102798553"/>
     <use style="fill:#0000ff;fill-opacity:0.7;" x="250.188038746" xlink:href="#m2ef34689e1" y="325.575357608"/>
     <use style="fill:#0000ff;fill-opacity:0.7;" x="332.531882569" xlink:href="#m2ef34689e1" y="412.426826437"/>
     <use style="fill:#0000ff;fill-opacity:0.7;" x="260.026188064" xlink:href="#m2ef34689e1" y="169.571438234"/>
     <use style="fill:#0000ff;fill-opacity:0.7;" x="283.762765751" xlink:href="#m2ef34689e1" y="393.224560495"/>
    </g>
   </g>
   <g id="line2d_1">
    <path clip-path="url(#p4f6257ca6d)" d="
M72 468.44
L518.4 468.44" style="fill:none;stroke:#000000;stroke-dasharray:6.000000,6.000000;stroke-dashoffset:0.0;"/>
   </g>
   <g id="patch_3">
    <path d="
M72 57.6
L518.4 57.6" style="fill:none;"/>
   </g>
   <g id="patch_4">
    <path d="
M518.4 518.4
L518.4 57.6" style="fill:none;"/>
   </g>
   <g id="patch_5">
    <path d="
M72 518.4
L518.4 518.4" style="fill:none;stroke:#000000;stroke-linecap:square;stroke-linejoin:miter;"/>
   </g>
   <g id="patch_6">
    <path d="
M295.2 518.4
L295.2 57.6" style="fill:none;stroke:#000000;stroke-linecap:square;stroke-linejoin:miter;"/>
   </g>
   <g id="matplotlib.axis_1">
    <g id="xtick_1">
     <g id="line2d_2">
      <defs>
       <path d="
M0 0
L0 -4" id="m93b0483c22" style="stroke:#000000;stroke-width:0.5;"/>
      </defs>
      <g>
       <use style="stroke:#000000;stroke-width:0.5;" x="72.0" xlink:href="#m93b0483c22" y="518.4"/>
      </g>
     </g>
     <g id="line2d_3">
      <defs>
       <path d="
M0 0
L0 4" id="m741efc42ff" style="stroke:#000000;stroke-width:0.5;"/>
      </defs>
      <g>
       <use style="stroke:#000000;stroke-width:0.5;" x="72.0" xlink:href="#m741efc42ff" y="57.6"/>
      </g>
     </g>
     <g id="text_1">
      <!-- −20 -->
      <defs>
       <path d="
M31.7812 66.4062
Q24.1719 66.4062 20.3281 58.9062
Q16.5 51.4219 16.5 36.375
Q16.5 21.3906 20.3281 13.8906
Q24.1719 6.39062 31.7812 6.39062
Q39.4531 6.39062 43.2812 13.8906
Q47.125 21.3906 47.125 36.375
Q47.125 51.4219 43.2812 58.9062
Q39.4531 66.4062 31.7812 66.4062
M31.7812 74.2188
Q44.0469 74.2188 50.5156 64.5156
Q56.9844 54.8281 56.9844 36.375
Q56.9844 17.9688 50.5156 8.26562
Q44.0469 -1.42188 31.7812 -1.42188
Q19.5312 -1.42188 13.0625 8.26562
Q6.59375 17.9688 6.59375 36.375
Q6.59375 54.8281 13.0625 64.5156
Q19.5312 74.2188 31.7812 74.2188" id="DejaVuSans-30"/>
       <path d="
M19.1875 8.29688
L53.6094 8.29688
L53.6094 0
L7.32812 0
L7.32812 8.29688
Q12.9375 14.1094 22.625 23.8906
Q32.3281 33.6875 34.8125 36.5312
Q39.5469 41.8438 41.4219 45.5312
Q43.3125 49.2188 43.3125 52.7812
Q43.3125 58.5938 39.2344 62.25
Q35.1562 65.9219 28.6094 65.9219
Q23.9688 65.9219 18.8125 64.3125
Q13.6719 62.7031 7.8125 59.4219
L7.8125 69.3906
Q13.7656 71.7812 18.9375 73
Q24.125 74.2188 28.4219 74.2188
Q39.75 74.2188 46.4844 68.5469
Q53.2188 62.8906 53.2188 53.4219
Q53.2188 48.9219 51.5312 44.8906
Q49.8594 40.875 45.4062 35.4062
Q44.1875 33.9844 37.6406 27.2188
Q31.1094 20.4531 19.1875 8.29688" id="DejaVuSans-32"/>
       <path d="
M10.5938 35.5
L73.1875 35.5
L73.1875 27.2031
L10.5938 27.2031
z
" id="DejaVuSans-2212"/>
      </defs>
      <g transform="translate(60.37125 531.518125)scale(0.12 -0.12)">
       <use xlink:href="#DejaVuSans-2212"/>
       <use x="83.7890625" xlink:href="#DejaVuSans-32"/>
       <use x="147.412109375" xlink:href="#DejaVuSans-30"/>
      </g>
     </g>
    </g>
    <g id="xtick_2">
     <g id="line2d_4">
      <g>
       <use style="stroke:#000000;stroke-width:0.5;" x="127.8" xlink:href="#m93b0483c22" y="518.4"/>
      </g>
     </g>
     <g id="line2d_5">
      <g>
       <use style="stroke:#000000;stroke-width:0.5;" x="127.8" xlink:href="#m741efc42ff" y="57.6"/>
      </g>
     </g>
     <g id="text_2">
      <!-- −15 -->
      <defs>
       <path d="
M12.4062 8.29688
L28.5156 8.29688
L28.5156 63.9219
L10.9844 60.4062
L10.9844 69.3906
L28.4219 72.9062
L38.2812 72.9062
L38.2812 8.29688
L54.3906 8.29688
L54.3906 0
L12.4062 0
z
" id="DejaVuSans-31"/>
       <path d="
M10.7969 72.9062
L49.5156 72.9062
L49.5156 64.5938
L19.8281 64.5938
L19.8281 46.7344
Q21.9688 47.4688 24.1094 47.8281
Q26.2656 48.1875 28.4219 48.1875
Q40.625 48.1875 47.75 41.5
Q54.8906 34.8125 54.8906 23.3906
Q54.8906 11.625 47.5625 5.09375
Q40.2344 -1.42188 26.9062 -1.42188
Q22.3125 -1.42188 17.5469 -0.640625
Q12.7969 0.140625 7.71875 1.70312
L7.71875 11.625
Q12.1094 9.23438 16.7969 8.0625
Q21.4844 6.89062 26.7031 6.89062
Q35.1562 6.89062 40.0781 11.3281
Q45.0156 15.7656 45.0156 23.3906
Q45.0156 31 40.0781 35.4375
Q35.1562 39.8906 26.7031 39.8906
Q22.75 39.8906 18.8125 39.0156
Q14.8906 38.1406 10.7969 36.2812
z
" id="DejaVuSans-35"/>
      </defs>
      <g transform="translate(116.296875 531.518125)scale(0.12 -0.12)">
       <use xlink:href="#DejaVuSans-2212"/>
       <use x="83.7890625" xlink:href="#DejaVuSans-31"/>
       <use x="147.412109375" xlink:href="#DejaVuSans-35"/>
      </g>
     </g>
    </g>
    <g id="xtick_3">
     <g id="line2d_6">
      <g>
       <use style="stroke:#000000;stroke-width:0.5;" x="183.6" xlink:href="#m93b0483c22" y="518.4"/>
      </g>
     </g>
     <g id="line2d_7">
      <g>
       <use style="stroke:#000000;stroke-width:0.5;" x="183.6" xlink:href="#m741efc42ff" y="57.6"/>
      </g>
     </g>
     <g id="text_3">
      <!-- −10 -->
      <g transform="translate(171.97125 531.518125)scale(0.12 -0.12)">
       <use xlink:href="#DejaVuSans-2212"/>
       <use x="83.7890625" xlink:href="#DejaVuSans-31"/>
       <use x="147.412109375" xlink:href="#DejaVuSans-30"/>
      </g>
     </g>
    </g>
    <g id="xtick_4">
     <g id="line2d_8">
      <g>
       <use style="stroke:#000000;stroke-width:0.5;" x="239.4" xlink:href="#m93b0483c22" y="518.4"/>
      </g>
     </g>
     <g id="line2d_9">
      <g>
       <use style="stroke:#000000;stroke-width:0.5;" x="239.4" xlink:href="#m741efc42ff" y="57.6"/>
      </g>
     </g>
     <g id="text_4">
      <!-- −5 -->
      <g transform="translate(231.714375 531.518125)scale(0.12 -0.12)">
       <use xlink:href="#DejaVuSans-2212"/>
       <use x="83.7890625" xlink:href="#DejaVuSans-35"/>
      </g>
     </g>
    </g>
    <g id="xtick_5">
     <g id="line2d_10">
      <g>
       <use style="stroke:#000000;stroke-width:0.5;" x="295.2" xlink:href="#m93b0483c22" y="518.4"/>
      </g>
     </g>
     <g id="line2d_11">
      <g>
       <use style="stroke:#000000;stroke-width:0.5;" x="295.2" xlink:href="#m741efc42ff" y="57.6"/>
      </g>
     </g>
     <g id="text_5">
      <!-- 0 -->
      <g transform="translate(292.1765625 531.518125)scale(0.12 -0.12)">
       <use xlink:href="#DejaVuSans-30"/>
      </g>
     </g>
    </g>
    <g id="xtick_6">
     <g id="line2d_12">
      <g>
       <use style="stroke:#000000;stroke-width:0.5;" x="351.0" xlink:href="#m93b0483c22" y="518.4"/>
      </g>
     </g>
     <g id="line2d_13">
      <g>
       <use style="stroke:#000000;stroke-width:0.5;" x="351.0" xlink:href="#m741efc42ff" y="57.6"/>
      </g>
     </g>
     <g id="text_6">
      <!-- 5 -->
      <g transform="translate(348.1696875 531.518125)scale(0.12 -0.12)">
       <use xlink:href="#DejaVuSans-35"/>
      </g>
     </g>
    </g>
    <g id="xtick_7">
     <g id="line2d_14">
      <g>
       <use style="stroke:#000000;stroke-width:0.5;" x="406.8" xlink:href="#m93b0483c22" y="518.4"/>
      </g>
     </g>
     <g id="line2d_15">
      <g>
       <use style="stroke:#000000;stroke-width:0.5;" x="406.8" xlink:href="#m741efc42ff" y="57.6"/>
      </g>
     </g>
     <g id="text_7">
      <!-- 10 -->
      <g transform="translate(400.2225 531.518125)scale(0.12 -0.12)">
       <use xlink:href="#DejaVuSans-31"/>
       <use x="63.623046875" xlink:href="#DejaVuSans-30"/>
      </g>
     </g>
    </g>
    <g id="xtick_8">
     <g id="line2d_16">
      <g>
       <use style="stroke:#000000;stroke-width:0.5;" x="462.6" xlink:href="#m93b0483c22" y="518.4"/>
      </g>
     </g>
     <g id="line2d_17">
      <g>
       <use style="stroke:#000000;stroke-width:0.5;" x="462.6" xlink:href="#m741efc42ff" y="57.6"/>
      </g>
     </g>
     <g id="text_8">
      <!-- 15 -->
      <g transform="translate(456.148125 531.518125)scale(0.12 -0.12)">
       <use xlink:href="#DejaVuSans-31"/>
       <use x="63.623046875" xlink:href="#DejaVuSans-35"/>
      </g>
     </g>
    </g>
    <g id="xtick_9">
     <g id="line2d_18">
      <g>
       <use style="stroke:#000000;stroke-width:0.5;" x="518.4" xlink:href="#m93b0483c22" y="518.4"/>
      </g>
     </g>
     <g id="line2d_19">
      <g>
       <use style="stroke:#000000;stroke-width:0.5;" x="518.4" xlink:href="#m741efc42ff" y="57.6"/>
      </g>
     </g>
     <g id="text_9">
      <!-- 20 -->
      <g transform="translate(511.603125 531.518125)scale(0.12 -0.12)">
       <use xlink:href="#DejaVuSans-32"/>
       <use x="63.623046875" xlink:href="#DejaVuSans-30"/>
      </g>
     </g>
    </g>
    <g id="text_10">
     <!-- $\log_2(FC)$ -->
     <defs>
      <path d="
M4.98438 0
L4.98438 2.6875
Q4.98438 2.9375 5.17188 3.21875
L20.7031 20.4062
Q24.2188 24.2188 26.4062 26.7969
Q28.6094 29.3906 30.75 32.7656
Q32.9062 36.1406 34.1562 39.625
Q35.4062 43.1094 35.4062 47.0156
Q35.4062 51.125 33.8906 54.8594
Q32.375 58.5938 29.375 60.8438
Q26.375 63.0938 22.125 63.0938
Q17.7812 63.0938 14.3125 60.4688
Q10.8438 57.8594 9.42188 53.7188
Q9.8125 53.8125 10.5 53.8125
Q12.75 53.8125 14.3281 52.2969
Q15.9219 50.7812 15.9219 48.3906
Q15.9219 46.0938 14.3281 44.5
Q12.75 42.9219 10.5 42.9219
Q8.15625 42.9219 6.5625 44.5469
Q4.98438 46.1875 4.98438 48.3906
Q4.98438 52.1562 6.39062 55.4375
Q7.8125 58.7344 10.4688 61.2969
Q13.1406 63.875 16.4844 65.2344
Q19.8281 66.6094 23.5781 66.6094
Q29.2969 66.6094 34.2188 64.1875
Q39.1562 61.7656 42.0312 57.3438
Q44.9219 52.9375 44.9219 47.0156
Q44.9219 42.6719 43.0156 38.7656
Q41.1094 34.8594 38.125 31.6562
Q35.1562 28.4688 30.5156 24.4062
Q25.875 20.3594 24.4219 19
L13.0938 8.10938
L22.7031 8.10938
Q29.7812 8.10938 34.5469 8.21875
Q39.3125 8.34375 39.5938 8.59375
Q40.7656 9.85938 42 17.8281
L44.9219 17.8281
L42.0938 0
z
" id="Cmr10-32"/>
      <path d="
M31 -24.8125
Q25.4375 -20.4062 21.4062 -14.7188
Q17.3906 -9.03125 14.8125 -2.57812
Q12.25 3.85938 10.9844 10.8906
Q9.71875 17.9219 9.71875 25
Q9.71875 32.1719 10.9844 39.2031
Q12.25 46.2344 14.8594 52.7344
Q17.4844 59.2344 21.5312 64.8906
Q25.5938 70.5625 31 74.8125
Q31 75 31.5 75
L32.4219 75
Q32.7188 75 32.9531 74.7344
Q33.2031 74.4688 33.2031 74.125
Q33.2031 73.6875 33.0156 73.4844
Q28.125 68.7031 24.875 63.2344
Q21.625 57.7656 19.6406 51.5781
Q17.6719 45.4062 16.7969 38.7812
Q15.9219 32.1719 15.9219 25
Q15.9219 -6.78125 32.9062 -23.2969
Q33.2031 -23.5781 33.2031 -24.125
Q33.2031 -24.3594 32.9375 -24.6719
Q32.6719 -25 32.4219 -25
L31.5 -25
Q31 -25 31 -24.8125" id="Cmr10-28"/>
      <path d="
M6.5 -25
Q5.60938 -25 5.60938 -24.125
Q5.60938 -23.6875 5.8125 -23.4844
Q22.9062 -6.78125 22.9062 25
Q22.9062 56.7812 6 73.2969
Q5.60938 73.5312 5.60938 74.125
Q5.60938 74.4688 5.875 74.7344
Q6.15625 75 6.5 75
L7.42188 75
Q7.71875 75 7.90625 74.8125
Q15.0938 69.1406 19.875 61.0312
Q24.6562 52.9375 26.875 43.75
Q29.1094 34.5781 29.1094 25
Q29.1094 17.9219 27.9062 11.0625
Q26.7031 4.20312 24.0938 -2.45312
Q21.4844 -9.125 17.4844 -14.7656
Q13.4844 -20.4062 7.90625 -24.8125
Q7.71875 -25 7.42188 -25
z
" id="Cmr10-29"/>
      <path d="
M25 -1.125
Q19 -1.125 13.8594 1.92188
Q8.73438 4.98438 5.75 10.1094
Q2.78125 15.2344 2.78125 21.2969
Q2.78125 25.875 4.42188 30.125
Q6.0625 34.375 9.10938 37.7188
Q12.1562 41.0625 16.2031 42.9375
Q20.2656 44.8281 25 44.8281
Q31.1562 44.8281 36.2031 41.5781
Q41.2656 38.3281 44.1875 32.875
Q47.125 27.4375 47.125 21.2969
Q47.125 15.2812 44.1406 10.125
Q41.1562 4.98438 36.0469 1.92188
Q30.9531 -1.125 25 -1.125
M25 1.8125
Q33.0156 1.8125 35.6875 7.60938
Q38.375 13.4219 38.375 22.4062
Q38.375 27.4375 37.8438 30.7344
Q37.3125 34.0312 35.5 36.7188
Q34.375 38.375 32.6406 39.625
Q30.9062 40.875 28.9688 41.5312
Q27.0469 42.1875 25 42.1875
Q21.875 42.1875 19.0625 40.7656
Q16.2656 39.3594 14.4062 36.7188
Q12.5469 33.8906 12.0312 30.4844
Q11.5312 27.0938 11.5312 22.4062
Q11.5312 16.7969 12.5 12.3281
Q13.4844 7.85938 16.4375 4.82812
Q19.3906 1.8125 25 1.8125" id="Cmr10-6f"/>
      <path d="
M3.07812 0
L3.07812 3.51562
Q6.5 3.51562 8.6875 4.04688
Q10.8906 4.59375 10.8906 6.6875
L10.8906 59.1875
Q10.8906 61.8594 10.0781 63.0625
Q9.28125 64.2656 7.76562 64.5312
Q6.25 64.7969 3.07812 64.7969
L3.07812 68.3125
L17.9219 69.3906
L17.9219 6.6875
Q17.9219 4.59375 20.1094 4.04688
Q22.3125 3.51562 25.6875 3.51562
L25.6875 0
z
" id="Cmr10-6c"/>
      <path d="
M4.6875 0
Q3.71875 0 3.71875 1.3125
Q3.76562 1.5625 3.90625 2.17188
Q4.04688 2.78125 4.3125 3.14062
Q4.59375 3.51562 4.98438 3.51562
Q11.0781 3.51562 13.4844 4.20312
Q14.7969 4.64062 15.375 6.89062
L29.1094 61.8125
Q29.2969 62.7969 29.2969 63.1875
Q29.2969 64.2656 28.0781 64.4062
Q26.2188 64.7969 20.9062 64.7969
Q19.9219 64.7969 19.9219 66.1094
Q19.9688 66.3594 20.1094 66.9688
Q20.2656 67.5781 20.5312 67.9375
Q20.7969 68.3125 21.1875 68.3125
L74.0312 68.3125
Q75 68.3125 75 67
L72.6094 46.2969
Q72.6094 46 72.2656 45.7031
Q71.9219 45.4062 71.5781 45.4062
L70.7031 45.4062
Q69.6719 45.4062 69.6719 46.6875
Q70.3125 51.2188 70.3125 54.1094
Q70.3125 59.0781 68.1562 61.4219
Q66.0156 63.7656 62.7344 64.2812
Q59.4688 64.7969 53.7188 64.7969
L43.0156 64.7969
Q40.2812 64.7969 39.4062 64.3281
Q38.5312 63.875 37.7969 61.375
L31.3906 35.8906
L38.9219 35.8906
Q42.625 35.8906 44.9219 36.2812
Q47.2188 36.6719 48.7344 37.7969
Q50.25 38.9219 51.25 41.0469
Q52.25 43.1719 53.0781 46.6875
Q53.375 47.6094 54.1094 47.6094
L54.9844 47.6094
Q56 47.6094 56 46.2969
L49.9062 21.5781
Q49.4688 20.7031 48.875 20.7031
L48 20.7031
Q47.0156 20.7031 47.0156 22.0156
Q47.2656 23.0469 47.4062 23.7344
Q47.5625 24.4219 47.7812 25.7031
Q48 27 48 27.9844
Q48 30.8594 45.4531 31.6406
Q42.9219 32.4219 38.8125 32.4219
L30.6094 32.4219
L24.125 6.5
Q23.875 5.51562 23.875 5.51562
Q23.875 4.34375 24.6094 4.20312
Q27.2031 3.51562 34.8125 3.51562
Q35.7969 3.51562 35.7969 2.20312
Q35.4531 0.78125 35.25 0.390625
Q35.0625 0 34.0781 0
z
" id="Cmmi10-46"/>
      <path d="
M14.5938 21.5781
Q14.5938 15.5781 16.9062 11.0156
Q19.2344 6.45312 23.6562 3.875
Q28.0781 1.3125 34.0781 1.3125
Q40.375 1.3125 46.2031 4.53125
Q52.0469 7.76562 56.1719 13.1562
Q60.2969 18.5625 61.8125 24.6094
Q62.0156 25.2031 62.5938 25.2031
L63.8125 25.2031
Q64.2031 25.2031 64.4531 24.9219
Q64.7031 24.6562 64.7031 24.3125
Q64.7031 24.2188 64.5938 24.0312
Q62.8906 17.0938 57.9844 11.0156
Q53.0781 4.9375 46.2344 1.35938
Q39.4062 -2.20312 32.1719 -2.20312
Q24.3594 -2.20312 18.1562 1.3125
Q11.9688 4.82812 8.51562 11.0781
Q5.07812 17.3281 5.07812 25.2031
Q5.07812 33.5938 8.82812 41.8125
Q12.5938 50.0469 18.9375 56.4688
Q25.2969 62.8906 33.4219 66.7031
Q41.5469 70.5156 49.9062 70.5156
Q53.2188 70.5156 56.25 69.5
Q59.2812 68.5 61.8594 66.4531
Q64.4531 64.4062 66.1094 61.7188
L74.0312 70.3125
Q74.0312 70.5156 74.5156 70.5156
L75.0938 70.5156
Q75.4844 70.5156 75.7344 70.1719
Q75.9844 69.8281 75.9844 69.4844
L69.1875 42.4844
Q69.1875 41.7969 68.4062 41.7969
L66.6094 41.7969
Q65.8281 41.7969 65.8281 42.9219
Q66.2188 45.125 66.2188 48.1875
Q66.2188 53.0781 64.5469 57.3906
Q62.8906 61.7188 59.3906 64.3594
Q55.9062 67 50.875 67
Q42.7188 67 35.9375 62.8906
Q29.1562 58.7969 24.4375 52.125
Q19.7344 45.4531 17.1562 37.3281
Q14.5938 29.2031 14.5938 21.5781" id="Cmmi10-43"/>
      <path d="
M2.78125 -7.8125
Q2.78125 -4.25 5.35938 -1.57812
Q7.95312 1.07812 11.5312 2.20312
Q9.51562 3.71875 8.46875 6
Q7.42188 8.29688 7.42188 10.8906
Q7.42188 15.5781 10.4062 19.1875
Q5.8125 23.6875 5.8125 29.5
Q5.8125 32.625 7.15625 35.3594
Q8.5 38.0938 10.8906 40.0938
Q13.2812 42.0938 16.2031 43.1406
Q19.1406 44.1875 22.2188 44.1875
Q28.1719 44.1875 32.9062 40.7188
Q34.9688 42.9219 37.7656 44.1094
Q40.5781 45.3125 43.6094 45.3125
Q45.75 45.3125 47.1094 43.7656
Q48.4844 42.2344 48.4844 40.0938
Q48.4844 38.875 47.5469 37.9375
Q46.625 37.0156 45.4062 37.0156
Q44.1406 37.0156 43.2031 37.9375
Q42.2812 38.875 42.2812 40.0938
Q42.2812 41.9375 43.5 42.6719
Q38.3281 42.6719 34.625 39.1094
Q36.4219 37.3125 37.5156 34.6875
Q38.625 32.0781 38.625 29.5
Q38.625 25.25 36.2812 21.8438
Q33.9375 18.4531 30.0938 16.5781
Q26.2656 14.7031 22.2188 14.7031
Q16.75 14.7031 12.2031 17.6719
Q10.7969 15.7188 10.7969 13.2812
Q10.7969 10.6406 12.5312 8.65625
Q14.2656 6.6875 16.8906 6.6875
L25.0938 6.6875
Q31.0625 6.6875 35.8438 5.60938
Q40.625 4.54688 43.875 1.3125
Q47.125 -1.90625 47.125 -7.8125
Q47.125 -12.2031 43.4062 -15.1094
Q39.7031 -18.0156 34.5469 -19.3125
Q29.3906 -20.6094 25 -20.6094
Q20.5625 -20.6094 15.375 -19.3125
Q10.2031 -18.0156 6.48438 -15.1094
Q2.78125 -12.2031 2.78125 -7.8125
M8.40625 -7.8125
Q8.40625 -11.1875 11.1406 -13.4531
Q13.875 -15.7188 17.7188 -16.8125
Q21.5781 -17.9219 25 -17.9219
Q28.375 -17.9219 32.2188 -16.8125
Q36.0781 -15.7188 38.7812 -13.4531
Q41.5 -11.1875 41.5 -7.8125
Q41.5 -2.59375 36.7188 -1.04688
Q31.9375 0.484375 25.0938 0.484375
L16.8906 0.484375
Q14.5938 0.484375 12.6719 -0.609375
Q10.75 -1.70312 9.57812 -3.6875
Q8.40625 -5.67188 8.40625 -7.8125
M22.2188 17.3906
Q30.7188 17.3906 30.7188 29.5
Q30.7188 34.7188 28.9062 38.1094
Q27.0938 41.5 22.2188 41.5
Q17.3281 41.5 15.5156 38.1094
Q13.7188 34.7188 13.7188 29.5
Q13.7188 26.1719 14.4062 23.4844
Q15.0938 20.7969 16.9375 19.0938
Q18.7969 17.3906 22.2188 17.3906" id="Cmr10-67"/>
     </defs>
     <g transform="translate(271.68 548.01375)scale(0.12 -0.12)">
      <use xlink:href="#Cmr10-6c"/>
      <use transform="translate(27.685546875 0.0)" xlink:href="#Cmr10-6f"/>
      <use transform="translate(77.685546875 0.0)" xlink:href="#Cmr10-67"/>
      <use transform="translate(127.685546875 -25.509375)scale(0.7)" xlink:href="#Cmr10-32"/>
      <use transform="translate(177.685546875 0.0)" xlink:href="#Cmr10-28"/>
      <use transform="translate(216.50390625 0.0)" xlink:href="#Cmmi10-46"/>
      <use transform="translate(280.810546875 0.0)" xlink:href="#Cmmi10-43"/>
      <use transform="translate(352.197265625 0.0)" xlink:href="#Cmr10-29"/>
     </g>
    </g>
   </g>
   <g id="matplotlib.axis_2">
    <g id="ytick_1">
     <g id="line2d_20">
      <defs>
       <path d="
M0 0
L4 0" id="m728421d6d4" style="stroke:#000000;stroke-width:0.5;"/>
      </defs>
      <g>
       <use style="stroke:#000000;stroke-width:0.5;" x="295.2" xlink:href="#m728421d6d4" y="518.4"/>
      </g>
     </g>
     <g id="line2d_21">
      <defs>
       <path d="
M0 0
L-4 0" id="mcb0005524f" style="stroke:#000000;stroke-width:0.5;"/>
      </defs>
      <g>
       <use style="stroke:#000000;stroke-width:0.5;" x="518.4" xlink:href="#mcb0005524f" y="518.4"/>
      </g>
     </g>
     <g id="text_11">
      <!-- 0 -->
      <g transform="translate(285.153125 521.71125)scale(0.12 -0.12)">
       <use xlink:href="#DejaVuSans-30"/>
      </g>
     </g>
    </g>
    <g id="ytick_2">
     <g id="line2d_22">
      <g>
       <use style="stroke:#000000;stroke-width:0.5;" x="295.2" xlink:href="#m728421d6d4" y="441.6"/>
      </g>
     </g>
     <g id="line2d_23">
      <g>
       <use style="stroke:#000000;stroke-width:0.5;" x="518.4" xlink:href="#mcb0005524f" y="441.6"/>
      </g>
     </g>
     <g id="text_12">
      <!-- 2 -->
      <g transform="translate(285.64625 444.91125)scale(0.12 -0.12)">
       <use xlink:href="#DejaVuSans-32"/>
      </g>
     </g>
    </g>
    <g id="ytick_3">
     <g id="line2d_24">
      <g>
       <use style="stroke:#000000;stroke-width:0.5;" x="295.2" xlink:href="#m728421d6d4" y="364.8"/>
      </g>
     </g>
     <g id="line2d_25">
      <g>
       <use style="stroke:#000000;stroke-width:0.5;" x="518.4" xlink:href="#mcb0005524f" y="364.8"/>
      </g>
     </g>
     <g id="text_13">
      <!-- 4 -->
      <defs>
       <path d="
M37.7969 64.3125
L12.8906 25.3906
L37.7969 25.3906
z

M35.2031 72.9062
L47.6094 72.9062
L47.6094 25.3906
L58.0156 25.3906
L58.0156 17.1875
L47.6094 17.1875
L47.6094 0
L37.7969 0
L37.7969 17.1875
L4.89062 17.1875
L4.89062 26.7031
z
" id="DejaVuSans-34"/>
      </defs>
      <g transform="translate(284.825 368.11125)scale(0.12 -0.12)">
       <use xlink:href="#DejaVuSans-34"/>
      </g>
     </g>
    </g>
    <g id="ytick_4">
     <g id="line2d_26">
      <g>
       <use style="stroke:#000000;stroke-width:0.5;" x="295.2" xlink:href="#m728421d6d4" y="288.0"/>
      </g>
     </g>
     <g id="line2d_27">
      <g>
       <use style="stroke:#000000;stroke-width:0.5;" x="518.4" xlink:href="#mcb0005524f" y="288.0"/>
      </g>
     </g>
     <g id="text_14">
      <!-- 6 -->
      <defs>
       <path d="
M33.0156 40.375
Q26.375 40.375 22.4844 35.8281
Q18.6094 31.2969 18.6094 23.3906
Q18.6094 15.5312 22.4844 10.9531
Q26.375 6.39062 33.0156 6.39062
Q39.6562 6.39062 43.5312 10.9531
Q47.4062 15.5312 47.4062 23.3906
Q47.4062 31.2969 43.5312 35.8281
Q39.6562 40.375 33.0156 40.375
M52.5938 71.2969
L52.5938 62.3125
Q48.875 64.0625 45.0938 64.9844
Q41.3125 65.9219 37.5938 65.9219
Q27.8281 65.9219 22.6719 59.3281
Q17.5312 52.7344 16.7969 39.4062
Q19.6719 43.6562 24.0156 45.9219
Q28.375 48.1875 33.5938 48.1875
Q44.5781 48.1875 50.9531 41.5156
Q57.3281 34.8594 57.3281 23.3906
Q57.3281 12.1562 50.6875 5.35938
Q44.0469 -1.42188 33.0156 -1.42188
Q20.3594 -1.42188 13.6719 8.26562
Q6.98438 17.9688 6.98438 36.375
Q6.98438 53.6562 15.1875 63.9375
Q23.3906 74.2188 37.2031 74.2188
Q40.9219 74.2188 44.7031 73.4844
Q48.4844 72.75 52.5938 71.2969" id="DejaVuSans-36"/>
      </defs>
      <g transform="translate(285.15875 291.31125)scale(0.12 -0.12)">
       <use xlink:href="#DejaVuSans-36"/>
      </g>
     </g>
    </g>
    <g id="ytick_5">
     <g id="line2d_28">
      <g>
       <use style="stroke:#000000;stroke-width:0.5;" x="295.2" xlink:href="#m728421d6d4" y="211.2"/>
      </g>
     </g>
     <g id="line2d_29">
      <g>
       <use style="stroke:#000000;stroke-width:0.5;" x="518.4" xlink:href="#mcb0005524f" y="211.2"/>
      </g>
     </g>
     <g id="text_15">
      <!-- 8 -->
      <defs>
       <path d="
M31.7812 34.625
Q24.75 34.625 20.7188 30.8594
Q16.7031 27.0938 16.7031 20.5156
Q16.7031 13.9219 20.7188 10.1562
Q24.75 6.39062 31.7812 6.39062
Q38.8125 6.39062 42.8594 10.1719
Q46.9219 13.9688 46.9219 20.5156
Q46.9219 27.0938 42.8906 30.8594
Q38.875 34.625 31.7812 34.625
M21.9219 38.8125
Q15.5781 40.375 12.0312 44.7188
Q8.5 49.0781 8.5 55.3281
Q8.5 64.0625 14.7188 69.1406
Q20.9531 74.2188 31.7812 74.2188
Q42.6719 74.2188 48.875 69.1406
Q55.0781 64.0625 55.0781 55.3281
Q55.0781 49.0781 51.5312 44.7188
Q48 40.375 41.7031 38.8125
Q48.8281 37.1562 52.7969 32.3125
Q56.7812 27.4844 56.7812 20.5156
Q56.7812 9.90625 50.3125 4.23438
Q43.8438 -1.42188 31.7812 -1.42188
Q19.7344 -1.42188 13.25 4.23438
Q6.78125 9.90625 6.78125 20.5156
Q6.78125 27.4844 10.7812 32.3125
Q14.7969 37.1562 21.9219 38.8125
M18.3125 54.3906
Q18.3125 48.7344 21.8438 45.5625
Q25.3906 42.3906 31.7812 42.3906
Q38.1406 42.3906 41.7188 45.5625
Q45.3125 48.7344 45.3125 54.3906
Q45.3125 60.0625 41.7188 63.2344
Q38.1406 66.4062 31.7812 66.4062
Q25.3906 66.4062 21.8438 63.2344
Q18.3125 60.0625 18.3125 54.3906" id="DejaVuSans-38"/>
      </defs>
      <g transform="translate(285.2 214.51125)scale(0.12 -0.12)">
       <use xlink:href="#DejaVuSans-38"/>
      </g>
     </g>
    </g>
    <g id="ytick_6">
     <g id="line2d_30">
      <g>
       <use style="stroke:#000000;stroke-width:0.5;" x="295.2" xlink:href="#m728421d6d4" y="134.4"/>
      </g>
     </g>
     <g id="line2d_31">
      <g>
       <use style="stroke:#000000;stroke-width:0.5;" x="518.4" xlink:href="#mcb0005524f" y="134.4"/>
      </g>
     </g>
     <g id="text_16">
      <!-- 10 -->
      <g transform="translate(278.045 137.71125)scale(0.12 -0.12)">
       <use xlink:href="#DejaVuSans-31"/>
       <use x="63.623046875" xlink:href="#DejaVuSans-30"/>
      </g>
     </g>
    </g>
    <g id="ytick_7">
     <g id="line2d_32">
      <g>
       <use style="stroke:#000000;stroke-width:0.5;" x="295.2" xlink:href="#m728421d6d4" y="57.6"/>
      </g>
     </g>
     <g id="line2d_33">
      <g>
       <use style="stroke:#000000;stroke-width:0.5;" x="518.4" xlink:href="#mcb0005524f" y="57.6"/>
      </g>
     </g>
     <g id="text_17">
      <!-- 12 -->
      <g transform="translate(278.45 60.91125)scale(0.12 -0.12)">
       <use xlink:href="#DejaVuSans-31"/>
       <use x="63.623046875" xlink:href="#DejaVuSans-32"/>
      </g>
     </g>
    </g>
    <g id="text_18">
     <!-- $-\log_{10}(p)$ -->
     <defs>
      <path d="
M-2.48438 -19.3906
Q-3.42188 -19.3906 -3.42188 -18.1094
Q-3.07812 -15.9219 -2.09375 -15.9219
Q1.03125 -15.9219 2.26562 -15.3594
Q3.51562 -14.7969 4.20312 -12.5
L15.4844 32.5156
Q16.2188 34.375 16.2188 37.3125
Q16.2188 41.6094 13.2812 41.6094
Q10.1562 41.6094 8.64062 37.8594
Q7.125 34.125 5.71875 28.4219
Q5.71875 27.7812 4.89062 27.7812
L3.71875 27.7812
Q3.46875 27.7812 3.17188 28.1406
Q2.875 28.5156 2.875 28.8125
Q3.95312 33.1562 4.95312 36.1719
Q5.95312 39.2031 8.07812 41.6875
Q10.2031 44.1875 13.375 44.1875
Q16.7969 44.1875 19.375 42.25
Q21.9688 40.3281 22.7031 37.0156
Q25.4375 40.1875 28.75 42.1875
Q32.0781 44.1875 35.5938 44.1875
Q39.7969 44.1875 42.8906 41.9375
Q46 39.7031 47.5625 36.0625
Q49.125 32.4219 49.125 28.2188
Q49.125 21.7812 45.8281 14.8906
Q42.5312 8.01562 36.8906 3.4375
Q31.25 -1.125 24.8125 -1.125
Q21.875 -1.125 19.5 0.53125
Q17.1406 2.20312 15.8281 4.89062
L11.2812 -12.8906
Q11.0312 -14.3594 10.9844 -14.5938
Q10.9844 -15.9219 17.5781 -15.9219
Q18.6094 -15.9219 18.6094 -17.1875
Q18.2656 -18.5 18.0469 -18.9375
Q17.8281 -19.3906 16.8906 -19.3906
z

M24.9062 1.51562
Q28.375 1.51562 31.3438 4.375
Q34.3281 7.23438 36.1875 10.7969
Q37.5469 13.4844 38.7344 17.3594
Q39.9375 21.2344 40.8125 25.625
Q41.7031 30.0312 41.7031 32.625
Q41.7031 34.9062 41.0938 36.9062
Q40.4844 38.9219 39.0938 40.2656
Q37.7031 41.6094 35.4062 41.6094
Q31.7344 41.6094 28.4844 38.9844
Q25.25 36.375 22.6094 32.5156
L22.6094 32.1719
L17.0938 10.1094
Q17.7812 6.54688 19.7344 4.03125
Q21.6875 1.51562 24.9062 1.51562" id="Cmmi10-70"/>
      <path d="
M9.28125 0
L9.28125 3.51562
Q21.7812 3.51562 21.7812 6.6875
L21.7812 59.1875
Q16.6094 56.6875 8.6875 56.6875
L8.6875 60.2031
Q20.9531 60.2031 27.2031 66.6094
L28.6094 66.6094
Q28.9531 66.6094 29.2656 66.3281
Q29.5938 66.0625 29.5938 65.7188
L29.5938 6.6875
Q29.5938 3.51562 42.0938 3.51562
L42.0938 0
z
" id="Cmr10-31"/>
      <path d="
M10.2031 23
Q9.375 23 8.82812 23.625
Q8.29688 24.2656 8.29688 25
Q8.29688 25.7344 8.82812 26.3594
Q9.375 27 10.2031 27
L67.5781 27
Q68.3594 27 68.875 26.3594
Q69.3906 25.7344 69.3906 25
Q69.3906 24.2656 68.875 23.625
Q68.3594 23 67.5781 23
z
" id="Cmsy10-a1"/>
      <path d="
M25 -2.20312
Q12.75 -2.20312 8.32812 7.875
Q3.90625 17.9688 3.90625 31.8906
Q3.90625 40.5781 5.48438 48.2344
Q7.07812 55.9062 11.7812 61.25
Q16.5 66.6094 25 66.6094
Q31.5938 66.6094 35.7812 63.375
Q39.9844 60.1562 42.1875 55.0469
Q44.3906 49.9531 45.1875 44.1094
Q46 38.2812 46 31.8906
Q46 23.2969 44.4062 15.7969
Q42.8281 8.29688 38.1875 3.04688
Q33.5469 -2.20312 25 -2.20312
M25 0.390625
Q30.5625 0.390625 33.2969 6.09375
Q36.0312 11.8125 36.6719 18.75
Q37.3125 25.6875 37.3125 33.5
Q37.3125 41.0156 36.6719 47.3594
Q36.0312 53.7188 33.3125 58.8594
Q30.6094 64.0156 25 64.0156
Q19.3438 64.0156 16.6094 58.8281
Q13.875 53.6562 13.2344 47.3281
Q12.5938 41.0156 12.5938 33.5
Q12.5938 27.9375 12.8594 23
Q13.1406 18.0625 14.3125 12.8125
Q15.4844 7.5625 18.0938 3.96875
Q20.7031 0.390625 25 0.390625" id="Cmr10-30"/>
     </defs>
     <g transform="translate(270.96 31.2)scale(0.12 -0.12)">
      <use xlink:href="#Cmsy10-a1"/>
      <use transform="translate(77.685546875 0.0)" xlink:href="#Cmr10-6c"/>
      <use transform="translate(105.37109375 0.0)" xlink:href="#Cmr10-6f"/>
      <use transform="translate(155.37109375 0.0)" xlink:href="#Cmr10-67"/>
      <use transform="translate(205.37109375 -25.509375)scale(0.7)" xlink:href="#Cmr10-31"/>
      <use transform="translate(240.37109375 -25.509375)scale(0.7)" xlink:href="#Cmr10-30"/>
      <use transform="translate(275.37109375 0.0)" xlink:href="#Cmr10-28"/>
      <use transform="translate(314.189453125 0.0)" xlink:href="#Cmmi10-70"/>
      <use transform="translate(364.482421875 0.0)" xlink:href="#Cmr10-29"/>
     </g>
    </g>
   </g>
   <g id="text_19">
    <!-- $p=0.05$ -->
    <defs>
     <path d="
M8.40625 5.51562
Q8.40625 7.76562 10.0625 9.375
Q11.7188 10.9844 13.9219 10.9844
Q15.2812 10.9844 16.5938 10.25
Q17.9219 9.51562 18.6562 8.20312
Q19.3906 6.89062 19.3906 5.51562
Q19.3906 3.32812 17.7656 1.65625
Q16.1562 0 13.9219 0
Q11.7188 0 10.0625 1.65625
Q8.40625 3.32812 8.40625 5.51562" id="Cmmi10-3a"/>
     <path d="
M8.6875 11.375
Q9.71875 8.45312 11.8438 6.04688
Q13.9688 3.65625 16.875 2.3125
Q19.7812 0.984375 22.9062 0.984375
Q30.125 0.984375 32.8594 6.59375
Q35.5938 12.2031 35.5938 20.2188
Q35.5938 23.6875 35.4688 26.0469
Q35.3594 28.4219 34.8125 30.6094
Q33.8906 34.125 31.5625 36.7656
Q29.25 39.4062 25.875 39.4062
Q22.5156 39.4062 20.0938 38.375
Q17.6719 37.3594 16.1562 35.9844
Q14.6562 34.625 13.4844 33.1094
Q12.3125 31.5938 12.0156 31.5
L10.8906 31.5
Q10.6406 31.5 10.2656 31.8125
Q9.90625 32.125 9.90625 32.4219
L9.90625 65.8281
Q9.90625 66.0625 10.2188 66.3281
Q10.5469 66.6094 10.8906 66.6094
L11.1875 66.6094
Q17.9219 63.375 25.4844 63.375
Q32.9062 63.375 39.7969 66.6094
L40.0938 66.6094
Q40.4375 66.6094 40.7188 66.3594
Q41.0156 66.1094 41.0156 65.8281
L41.0156 64.8906
Q41.0156 64.4062 40.8281 64.4062
Q37.4062 59.8594 32.25 57.3125
Q27.0938 54.7812 21.5781 54.7812
Q17.5781 54.7812 13.375 55.9062
L13.375 37.0156
Q16.7031 39.7031 19.3125 40.8438
Q21.9219 42 25.9844 42
Q31.5 42 35.8594 38.8125
Q40.2344 35.6406 42.5781 30.5312
Q44.9219 25.4375 44.9219 20.125
Q44.9219 14.1094 41.9688 8.98438
Q39.0156 3.85938 33.9375 0.828125
Q28.8594 -2.20312 22.9062 -2.20312
Q17.9688 -2.20312 13.8438 0.328125
Q9.71875 2.875 7.34375 7.17188
Q4.98438 11.4688 4.98438 16.3125
Q4.98438 18.5625 6.4375 19.9688
Q7.90625 21.3906 10.1094 21.3906
Q12.3125 21.3906 13.7969 19.9375
Q15.2812 18.5 15.2812 16.3125
Q15.2812 14.1562 13.7969 12.6719
Q12.3125 11.1875 10.1094 11.1875
Q9.76562 11.1875 9.32812 11.25
Q8.89062 11.3281 8.6875 11.375" id="Cmr10-35"/>
     <path d="
M7.51562 13.2812
Q6.6875 13.2812 6.14062 13.9062
Q5.60938 14.5469 5.60938 15.2812
Q5.60938 16.1094 6.14062 16.6875
Q6.6875 17.2812 7.51562 17.2812
L70.3125 17.2812
Q71.0469 17.2812 71.5781 16.6875
Q72.125 16.1094 72.125 15.2812
Q72.125 14.5469 71.5781 13.9062
Q71.0469 13.2812 70.3125 13.2812
z

M7.51562 32.7188
Q6.6875 32.7188 6.14062 33.2969
Q5.60938 33.8906 5.60938 34.7188
Q5.60938 35.4531 6.14062 36.0781
Q6.6875 36.7188 7.51562 36.7188
L70.3125 36.7188
Q71.0469 36.7188 71.5781 36.0781
Q72.125 35.4531 72.125 34.7188
Q72.125 33.8906 71.5781 33.2969
Q71.0469 32.7188 70.3125 32.7188
z
" id="Cmr10-3d"/>
    </defs>
    <g transform="translate(228.24 460.946515391)scale(0.12 -0.12)">
     <use transform="translate(0.0 0.390625)" xlink:href="#Cmmi10-70"/>
     <use transform="translate(67.8515625 0.390625)" xlink:href="#Cmr10-3d"/>
     <use transform="translate(151.91015625 0.390625)" xlink:href="#Cmr10-30"/>
     <use transform="translate(201.91015625 0.390625)" xlink:href="#Cmmi10-3a"/>
     <use transform="translate(230.453125 0.390625)" xlink:href="#Cmr10-30"/>
     <use transform="translate(280.453125 0.390625)" xlink:href="#Cmr10-35"/>
    </g>
   </g>
   <g id="legend_1">
    <g id="patch_7">
     <path d="
M72 449.28
L208.405 449.28
L208.405 368.652
L72 368.652
z
" style="fill:#ffffff;stroke:#000000;stroke-linejoin:miter;"/>
    </g>
    <g id="PathCollection_4">
     <path d="
M79 385.489
C79.3248 385.489 79.6364 385.36 79.866 385.13
C80.0957 384.901 80.2247 384.589 80.2247 384.264
C80.2247 383.94 80.0957 383.628 79.866 383.398
C79.6364 383.169 79.3248 383.04 79 383.04
C78.6752 383.04 78.3636 383.169 78.134 383.398
C77.9043 383.628 77.7753 383.94 77.7753 384.264
C77.7753 384.589 77.9043 384.901 78.134 385.13
C78.3636 385.36 78.6752 385.489 79 385.489
z
" style="fill:#808080;fill-opacity:0.4;"/>
     <path d="
M86 384.614
C86.3248 384.614 86.6364 384.485 86.866 384.255
C87.0957 384.026 87.2247 383.714 87.2247 383.389
C87.2247 383.065 87.0957 382.753 86.866 382.523
C86.6364 382.294 86.3248 382.165 86 382.165
C85.6752 382.165 85.3636 382.294 85.134 382.523
C84.9043 382.753 84.7753 383.065 84.7753 383.389
C84.7753 383.714 84.9043 384.026 85.134 384.255
C85.3636 384.485 85.6752 384.614 86 384.614
z
" style="fill:#808080;fill-opacity:0.4;"/>
     <path d="
M93 385.927
C93.3248 385.927 93.6364 385.798 93.866 385.568
C94.0957 385.338 94.2247 385.027 94.2247 384.702
C94.2247 384.377 94.0957 384.066 93.866 383.836
C93.6364 383.606 93.3248 383.477 93 383.477
C92.6752 383.477 92.3636 383.606 92.134 383.836
C91.9043 384.066 91.7753 384.377 91.7753 384.702
C91.7753 385.027 91.9043 385.338 92.134 385.568
C92.3636 385.798 92.6752 385.927 93 385.927
z
" style="fill:#808080;fill-opacity:0.4;"/>
    </g>
    <g id="text_20">
     <!-- Parents in both -->
     <defs>
      <path d="
M56.2031 29.5938
L56.2031 25.2031
L14.8906 25.2031
Q15.4844 15.9219 20.4844 11.0625
Q25.4844 6.20312 34.4219 6.20312
Q39.5938 6.20312 44.4531 7.46875
Q49.3125 8.73438 54.1094 11.2812
L54.1094 2.78125
Q49.2656 0.734375 44.1875 -0.34375
Q39.1094 -1.42188 33.8906 -1.42188
Q20.7969 -1.42188 13.1562 6.1875
Q5.51562 13.8125 5.51562 26.8125
Q5.51562 40.2344 12.7656 48.1094
Q20.0156 56 32.3281 56
Q43.3594 56 49.7812 48.8906
Q56.2031 41.7969 56.2031 29.5938
M47.2188 32.2344
Q47.125 39.5938 43.0938 43.9844
Q39.0625 48.3906 32.4219 48.3906
Q24.9062 48.3906 20.3906 44.1406
Q15.875 39.8906 15.1875 32.1719
z
" id="DejaVuSans-65"/>
      <path d="
M30.6094 48.3906
Q23.3906 48.3906 19.1875 42.75
Q14.9844 37.1094 14.9844 27.2969
Q14.9844 17.4844 19.1562 11.8438
Q23.3438 6.20312 30.6094 6.20312
Q37.7969 6.20312 41.9844 11.8594
Q46.1875 17.5312 46.1875 27.2969
Q46.1875 37.0156 41.9844 42.7031
Q37.7969 48.3906 30.6094 48.3906
M30.6094 56
Q42.3281 56 49.0156 48.375
Q55.7188 40.7656 55.7188 27.2969
Q55.7188 13.875 49.0156 6.21875
Q42.3281 -1.42188 30.6094 -1.42188
Q18.8438 -1.42188 12.1719 6.21875
Q5.51562 13.875 5.51562 27.2969
Q5.51562 40.7656 12.1719 48.375
Q18.8438 56 30.6094 56" id="DejaVuSans-6f"/>
      <path d="
M54.8906 33.0156
L54.8906 0
L45.9062 0
L45.9062 32.7188
Q45.9062 40.4844 42.875 44.3281
Q39.8438 48.1875 33.7969 48.1875
Q26.5156 48.1875 22.3125 43.5469
Q18.1094 38.9219 18.1094 30.9062
L18.1094 0
L9.07812 0
L9.07812 54.6875
L18.1094 54.6875
L18.1094 46.1875
Q21.3438 51.125 25.7031 53.5625
Q30.0781 56 35.7969 56
Q45.2188 56 50.0469 50.1719
Q54.8906 44.3438 54.8906 33.0156" id="DejaVuSans-6e"/>
      <path d="
M34.2812 27.4844
Q23.3906 27.4844 19.1875 25
Q14.9844 22.5156 14.9844 16.5
Q14.9844 11.7188 18.1406 8.90625
Q21.2969 6.10938 26.7031 6.10938
Q34.1875 6.10938 38.7031 11.4062
Q43.2188 16.7031 43.2188 25.4844
L43.2188 27.4844
z

M52.2031 31.2031
L52.2031 0
L43.2188 0
L43.2188 8.29688
Q40.1406 3.32812 35.5469 0.953125
Q30.9531 -1.42188 24.3125 -1.42188
Q15.9219 -1.42188 10.9531 3.29688
Q6 8.01562 6 15.9219
Q6 25.1406 12.1719 29.8281
Q18.3594 34.5156 30.6094 34.5156
L43.2188 34.5156
L43.2188 35.4062
Q43.2188 41.6094 39.1406 45
Q35.0625 48.3906 27.6875 48.3906
Q23 48.3906 18.5469 47.2656
Q14.1094 46.1406 10.0156 43.8906
L10.0156 52.2031
Q14.9375 54.1094 19.5781 55.0469
Q24.2188 56 28.6094 56
Q40.4844 56 46.3438 49.8438
Q52.2031 43.7031 52.2031 31.2031" id="DejaVuSans-61"/>
      <path id="DejaVuSans-20"/>
      <path d="
M54.8906 33.0156
L54.8906 0
L45.9062 0
L45.9062 32.7188
Q45.9062 40.4844 42.875 44.3281
Q39.8438 48.1875 33.7969 48.1875
Q26.5156 48.1875 22.3125 43.5469
Q18.1094 38.9219 18.1094 30.9062
L18.1094 0
L9.07812 0
L9.07812 75.9844
L18.1094 75.9844
L18.1094 46.1875
Q21.3438 51.125 25.7031 53.5625
Q30.0781 56 35.7969 56
Q45.2188 56 50.0469 50.1719
Q54.8906 44.3438 54.8906 33.0156" id="DejaVuSans-68"/>
      <path d="
M9.42188 54.6875
L18.4062 54.6875
L18.4062 0
L9.42188 0
z

M9.42188 75.9844
L18.4062 75.9844
L18.4062 64.5938
L9.42188 64.5938
z
" id="DejaVuSans-69"/>
      <path d="
M18.3125 70.2188
L18.3125 54.6875
L36.8125 54.6875
L36.8125 47.7031
L18.3125 47.7031
L18.3125 18.0156
Q18.3125 11.3281 20.1406 9.42188
Q21.9688 7.51562 27.5938 7.51562
L36.8125 7.51562
L36.8125 0
L27.5938 0
Q17.1875 0 13.2344 3.875
Q9.28125 7.76562 9.28125 18.0156
L9.28125 47.7031
L2.6875 47.7031
L2.6875 54.6875
L9.28125 54.6875
L9.28125 70.2188
z
" id="DejaVuSans-74"/>
      <path d="
M19.6719 64.7969
L19.6719 37.4062
L32.0781 37.4062
Q38.9688 37.4062 42.7188 40.9688
Q46.4844 44.5312 46.4844 51.125
Q46.4844 57.6719 42.7188 61.2344
Q38.9688 64.7969 32.0781 64.7969
z

M9.8125 72.9062
L32.0781 72.9062
Q44.3438 72.9062 50.6094 67.3594
Q56.8906 61.8125 56.8906 51.125
Q56.8906 40.3281 50.6094 34.8125
Q44.3438 29.2969 32.0781 29.2969
L19.6719 29.2969
L19.6719 0
L9.8125 0
z
" id="DejaVuSans-50"/>
      <path d="
M48.6875 27.2969
Q48.6875 37.2031 44.6094 42.8438
Q40.5312 48.4844 33.4062 48.4844
Q26.2656 48.4844 22.1875 42.8438
Q18.1094 37.2031 18.1094 27.2969
Q18.1094 17.3906 22.1875 11.75
Q26.2656 6.10938 33.4062 6.10938
Q40.5312 6.10938 44.6094 11.75
Q48.6875 17.3906 48.6875 27.2969
M18.1094 46.3906
Q20.9531 51.2656 25.2656 53.625
Q29.5938 56 35.5938 56
Q45.5625 56 51.7812 48.0938
Q58.0156 40.1875 58.0156 27.2969
Q58.0156 14.4062 51.7812 6.48438
Q45.5625 -1.42188 35.5938 -1.42188
Q29.5938 -1.42188 25.2656 0.953125
Q20.9531 3.32812 18.1094 8.20312
L18.1094 0
L9.07812 0
L9.07812 75.9844
L18.1094 75.9844
z
" id="DejaVuSans-62"/>
      <path d="
M44.2812 53.0781
L44.2812 44.5781
Q40.4844 46.5312 36.375 47.5
Q32.2812 48.4844 27.875 48.4844
Q21.1875 48.4844 17.8438 46.4375
Q14.5 44.3906 14.5 40.2812
Q14.5 37.1562 16.8906 35.375
Q19.2812 33.5938 26.5156 31.9844
L29.5938 31.2969
Q39.1562 29.25 43.1875 25.5156
Q47.2188 21.7812 47.2188 15.0938
Q47.2188 7.46875 41.1875 3.01562
Q35.1562 -1.42188 24.6094 -1.42188
Q20.2188 -1.42188 15.4531 -0.5625
Q10.6875 0.296875 5.42188 2
L5.42188 11.2812
Q10.4062 8.6875 15.2344 7.39062
Q20.0625 6.10938 24.8125 6.10938
Q31.1562 6.10938 34.5625 8.28125
Q37.9844 10.4531 37.9844 14.4062
Q37.9844 18.0625 35.5156 20.0156
Q33.0625 21.9688 24.7031 23.7812
L21.5781 24.5156
Q13.2344 26.2656 9.51562 29.9062
Q5.8125 33.5469 5.8125 39.8906
Q5.8125 47.6094 11.2812 51.7969
Q16.75 56 26.8125 56
Q31.7812 56 36.1719 55.2656
Q40.5781 54.5469 44.2812 53.0781" id="DejaVuSans-73"/>
      <path d="
M41.1094 46.2969
Q39.5938 47.1719 37.8125 47.5781
Q36.0312 48 33.8906 48
Q26.2656 48 22.1875 43.0469
Q18.1094 38.0938 18.1094 28.8125
L18.1094 0
L9.07812 0
L9.07812 54.6875
L18.1094 54.6875
L18.1094 46.1875
Q20.9531 51.1719 25.4844 53.5781
Q30.0312 56 36.5312 56
Q37.4531 56 38.5781 55.875
Q39.7031 55.7656 41.0625 55.5156
z
" id="DejaVuSans-72"/>
     </defs>
     <g transform="translate(104.0 380.250625)scale(0.1 -0.1)">
      <use xlink:href="#DejaVuSans-50"/>
      <use x="55.802734375" xlink:href="#DejaVuSans-61"/>
      <use x="117.08203125" xlink:href="#DejaVuSans-72"/>
      <use x="155.9453125" xlink:href="#DejaVuSans-65"/>
      <use x="217.46875" xlink:href="#DejaVuSans-6e"/>
      <use x="280.84765625" xlink:href="#DejaVuSans-74"/>
      <use x="320.056640625" xlink:href="#DejaVuSans-73"/>
      <use x="372.15625" xlink:href="#DejaVuSans-20"/>
      <use x="403.943359375" xlink:href="#DejaVuSans-69"/>
      <use x="431.7265625" xlink:href="#DejaVuSans-6e"/>
      <use x="495.10546875" xlink:href="#DejaVuSans-20"/>
      <use x="526.892578125" xlink:href="#DejaVuSans-62"/>
      <use x="590.369140625" xlink:href="#DejaVuSans-6f"/>
      <use x="651.55078125" xlink:href="#DejaVuSans-74"/>
      <use x="690.759765625" xlink:href="#DejaVuSans-68"/>
     </g>
     <!-- tissues -->
     <defs>
      <path d="
M8.5 21.5781
L8.5 54.6875
L17.4844 54.6875
L17.4844 21.9219
Q17.4844 14.1562 20.5 10.2656
Q23.5312 6.39062 29.5938 6.39062
Q36.8594 6.39062 41.0781 11.0312
Q45.3125 15.6719 45.3125 23.6875
L45.3125 54.6875
L54.2969 54.6875
L54.2969 0
L45.3125 0
L45.3125 8.40625
Q42.0469 3.42188 37.7188 1
Q33.4062 -1.42188 27.6875 -1.42188
Q18.2656 -1.42188 13.375 4.4375
Q8.5 10.2969 8.5 21.5781
M31.1094 56
z
" id="DejaVuSans-75"/>
     </defs>
     <g transform="translate(104.0 391.4484375)scale(0.1 -0.1)">
      <use xlink:href="#DejaVuSans-74"/>
      <use x="39.208984375" xlink:href="#DejaVuSans-69"/>
      <use x="66.9921875" xlink:href="#DejaVuSans-73"/>
      <use x="119.091796875" xlink:href="#DejaVuSans-73"/>
      <use x="171.19140625" xlink:href="#DejaVuSans-75"/>
      <use x="234.5703125" xlink:href="#DejaVuSans-65"/>
      <use x="296.09375" xlink:href="#DejaVuSans-73"/>
     </g>
    </g>
    <g id="PathCollection_5">
     <path d="
M79 412.376
C79.593 412.376 80.1618 412.141 80.5811 411.721
C81.0005 411.302 81.2361 410.733 81.2361 410.14
C81.2361 409.547 81.0005 408.978 80.5811 408.559
C80.1618 408.14 79.593 407.904 79 407.904
C78.407 407.904 77.8382 408.14 77.4189 408.559
C76.9995 408.978 76.7639 409.547 76.7639 410.14
C76.7639 410.733 76.9995 411.302 77.4189 411.721
C77.8382 412.141 78.407 412.376 79 412.376
z
" style="fill:#ff0000;fill-opacity:0.7;"/>
     <path d="
M86 411.501
C86.593 411.501 87.1618 411.266 87.5811 410.846
C88.0005 410.427 88.2361 409.858 88.2361 409.265
C88.2361 408.672 88.0005 408.103 87.5811 407.684
C87.1618 407.265 86.593 407.029 86 407.029
C85.407 407.029 84.8382 407.265 84.4189 407.684
C83.9995 408.103 83.7639 408.672 83.7639 409.265
C83.7639 409.858 83.9995 410.427 84.4189 410.846
C84.8382 411.266 85.407 411.501 86 411.501
z
" style="fill:#ff0000;fill-opacity:0.7;"/>
     <path d="
M93 412.814
C93.593 412.814 94.1618 412.578 94.5811 412.159
C95.0005 411.74 95.2361 411.171 95.2361 410.578
C95.2361 409.985 95.0005 409.416 94.5811 408.997
C94.1618 408.577 93.593 408.342 93 408.342
C92.407 408.342 91.8382 408.577 91.4189 408.997
C90.9995 409.416 90.7639 409.985 90.7639 410.578
C90.7639 411.171 90.9995 411.74 91.4189 412.159
C91.8382 412.578 92.407 412.814 93 412.814
z
" style="fill:#ff0000;fill-opacity:0.7;"/>
    </g>
    <g id="text_21">
     <!-- Liver-specific -->
     <defs>
      <path d="
M4.89062 31.3906
L31.2031 31.3906
L31.2031 23.3906
L4.89062 23.3906
z
" id="DejaVuSans-2d"/>
      <path d="
M9.8125 72.9062
L19.6719 72.9062
L19.6719 8.29688
L55.1719 8.29688
L55.1719 0
L9.8125 0
z
" id="DejaVuSans-4c"/>
      <path d="
M18.1094 8.20312
L18.1094 -20.7969
L9.07812 -20.7969
L9.07812 54.6875
L18.1094 54.6875
L18.1094 46.3906
Q20.9531 51.2656 25.2656 53.625
Q29.5938 56 35.5938 56
Q45.5625 56 51.7812 48.0938
Q58.0156 40.1875 58.0156 27.2969
Q58.0156 14.4062 51.7812 6.48438
Q45.5625 -1.42188 35.5938 -1.42188
Q29.5938 -1.42188 25.2656 0.953125
Q20.9531 3.32812 18.1094 8.20312
M48.6875 27.2969
Q48.6875 37.2031 44.6094 42.8438
Q40.5312 48.4844 33.4062 48.4844
Q26.2656 48.4844 22.1875 42.8438
Q18.1094 37.2031 18.1094 27.2969
Q18.1094 17.3906 22.1875 11.75
Q26.2656 6.10938 33.4062 6.10938
Q40.5312 6.10938 44.6094 11.75
Q48.6875 17.3906 48.6875 27.2969" id="DejaVuSans-70"/>
      <path d="
M37.1094 75.9844
L37.1094 68.5
L28.5156 68.5
Q23.6875 68.5 21.7969 66.5469
Q19.9219 64.5938 19.9219 59.5156
L19.9219 54.6875
L34.7188 54.6875
L34.7188 47.7031
L19.9219 47.7031
L19.9219 0
L10.8906 0
L10.8906 47.7031
L2.29688 47.7031
L2.29688 54.6875
L10.8906 54.6875
L10.8906 58.5
Q10.8906 67.625 15.1406 71.7969
Q19.3906 75.9844 28.6094 75.9844
z
" id="DejaVuSans-66"/>
      <path d="
M2.98438 54.6875
L12.5 54.6875
L29.5938 8.79688
L46.6875 54.6875
L56.2031 54.6875
L35.6875 0
L23.4844 0
z
" id="DejaVuSans-76"/>
      <path d="
M48.7812 52.5938
L48.7812 44.1875
Q44.9688 46.2969 41.1406 47.3438
Q37.3125 48.3906 33.4062 48.3906
Q24.6562 48.3906 19.8125 42.8438
Q14.9844 37.3125 14.9844 27.2969
Q14.9844 17.2812 19.8125 11.7344
Q24.6562 6.20312 33.4062 6.20312
Q37.3125 6.20312 41.1406 7.25
Q44.9688 8.29688 48.7812 10.4062
L48.7812 2.09375
Q45.0156 0.34375 40.9844 -0.53125
Q36.9688 -1.42188 32.4219 -1.42188
Q20.0625 -1.42188 12.7812 6.34375
Q5.51562 14.1094 5.51562 27.2969
Q5.51562 40.6719 12.8594 48.3281
Q20.2188 56 33.0156 56
Q37.1562 56 41.1094 55.1406
Q45.0625 54.2969 48.7812 52.5938" id="DejaVuSans-63"/>
     </defs>
     <g transform="translate(104.0 406.1265625)scale(0.1 -0.1)">
      <use xlink:href="#DejaVuSans-4c"/>
      <use x="55.712890625" xlink:href="#DejaVuSans-69"/>
      <use x="83.49609375" xlink:href="#DejaVuSans-76"/>
      <use x="142.67578125" xlink:href="#DejaVuSans-65"/>
      <use x="204.19921875" xlink:href="#DejaVuSans-72"/>
      <use x="238.9375" xlink:href="#DejaVuSans-2d"/>
      <use x="275.021484375" xlink:href="#DejaVuSans-73"/>
      <use x="327.12109375" xlink:href="#DejaVuSans-70"/>
      <use x="390.59765625" xlink:href="#DejaVuSans-65"/>
      <use x="452.12109375" xlink:href="#DejaVuSans-63"/>
      <use x="507.1015625" xlink:href="#DejaVuSans-69"/>
      <use x="534.884765625" xlink:href="#DejaVuSans-66"/>
      <use x="570.08984375" xlink:href="#DejaVuSans-69"/>
      <use x="597.873046875" xlink:href="#DejaVuSans-63"/>
     </g>
     <!-- parents -->
     <g transform="translate(104.0 417.324375)scale(0.1 -0.1)">
      <use xlink:href="#DejaVuSans-70"/>
      <use x="63.4765625" xlink:href="#DejaVuSans-61"/>
      <use x="124.755859375" xlink:href="#DejaVuSans-72"/>
      <use x="163.619140625" xlink:href="#DejaVuSans-65"/>
      <use x="225.142578125" xlink:href="#DejaVuSans-6e"/>
      <use x="288.521484375" xlink:href="#DejaVuSans-74"/>
      <use x="327.73046875" xlink:href="#DejaVuSans-73"/>
     </g>
    </g>
    <g id="PathCollection_6">
     <path d="
M79 438.252
C79.593 438.252 80.1618 438.017 80.5811 437.597
C81.0005 437.178 81.2361 436.609 81.2361 436.016
C81.2361 435.423 81.0005 434.854 80.5811 434.435
C80.1618 434.016 79.593 433.78 79 433.78
C78.407 433.78 77.8382 434.016 77.4189 434.435
C76.9995 434.854 76.7639 435.423 76.7639 436.016
C76.7639 436.609 76.9995 437.178 77.4189 437.597
C77.8382 438.017 78.407 438.252 79 438.252
z
" style="fill:#0000ff;fill-opacity:0.7;"/>
     <path d="
M86 437.377
C86.593 437.377 87.1618 437.142 87.5811 436.722
C88.0005 436.303 88.2361 435.734 88.2361 435.141
C88.2361 434.548 88.0005 433.979 87.5811 433.56
C87.1618 433.141 86.593 432.905 86 432.905
C85.407 432.905 84.8382 433.141 84.4189 433.56
C83.9995 433.979 83.7639 434.548 83.7639 435.141
C83.7639 435.734 83.9995 436.303 84.4189 436.722
C84.8382 437.142 85.407 437.377 86 437.377
z
" style="fill:#0000ff;fill-opacity:0.7;"/>
     <path d="
M93 438.69
C93.593 438.69 94.1618 438.454 94.5811 438.035
C95.0005 437.616 95.2361 437.047 95.2361 436.454
C95.2361 435.861 95.0005 435.292 94.5811 434.873
C94.1618 434.453 93.593 434.218 93 434.218
C92.407 434.218 91.8382 434.453 91.4189 434.873
C90.9995 435.292 90.7639 435.861 90.7639 436.454
C90.7639 437.047 90.9995 437.616 91.4189 438.035
C91.8382 438.454 92.407 438.69 93 438.69
z
" style="fill:#0000ff;fill-opacity:0.7;"/>
    </g>
    <g id="text_22">
     <!-- Lymphocyte-specific -->
     <defs>
      <path d="
M52 44.1875
Q55.375 50.25 60.0625 53.125
Q64.75 56 71.0938 56
Q79.6406 56 84.2812 50.0156
Q88.9219 44.0469 88.9219 33.0156
L88.9219 0
L79.8906 0
L79.8906 32.7188
Q79.8906 40.5781 77.0938 44.375
Q74.3125 48.1875 68.6094 48.1875
Q61.625 48.1875 57.5625 43.5469
Q53.5156 38.9219 53.5156 30.9062
L53.5156 0
L44.4844 0
L44.4844 32.7188
Q44.4844 40.625 41.7031 44.4062
Q38.9219 48.1875 33.1094 48.1875
Q26.2188 48.1875 22.1562 43.5312
Q18.1094 38.875 18.1094 30.9062
L18.1094 0
L9.07812 0
L9.07812 54.6875
L18.1094 54.6875
L18.1094 46.1875
Q21.1875 51.2188 25.4844 53.6094
Q29.7812 56 35.6875 56
Q41.6562 56 45.8281 52.9688
Q50 49.9531 52 44.1875" id="DejaVuSans-6d"/>
      <path d="
M32.1719 -5.07812
Q28.375 -14.8438 24.75 -17.8125
Q21.1406 -20.7969 15.0938 -20.7969
L7.90625 -20.7969
L7.90625 -13.2812
L13.1875 -13.2812
Q16.8906 -13.2812 18.9375 -11.5156
Q21 -9.76562 23.4844 -3.21875
L25.0938 0.875
L2.98438 54.6875
L12.5 54.6875
L29.5938 11.9219
L46.6875 54.6875
L56.2031 54.6875
z
" id="DejaVuSans-79"/>
     </defs>
     <g transform="translate(104.0 432.0025)scale(0.1 -0.1)">
      <use xlink:href="#DejaVuSans-4c"/>
      <use x="46.587890625" xlink:href="#DejaVuSans-79"/>
      <use x="105.767578125" xlink:href="#DejaVuSans-6d"/>
      <use x="203.1796875" xlink:href="#DejaVuSans-70"/>
      <use x="266.65625" xlink:href="#DejaVuSans-68"/>
      <use x="330.03515625" xlink:href="#DejaVuSans-6f"/>
      <use x="391.216796875" xlink:href="#DejaVuSans-63"/>
      <use x="446.197265625" xlink:href="#DejaVuSans-79"/>
      <use x="505.376953125" xlink:href="#DejaVuSans-74"/>
      <use x="544.5859375" xlink:href="#DejaVuSans-65"/>
      <use x="606.109375" xlink:href="#DejaVuSans-2d"/>
      <use x="642.193359375" xlink:href="#DejaVuSans-73"/>
      <use x="694.29296875" xlink:href="#DejaVuSans-70"/>
      <use x="757.76953125" xlink:href="#DejaVuSans-65"/>
      <use x="819.29296875" xlink:href="#DejaVuSans-63"/>
      <use x="874.2734375" xlink:href="#DejaVuSans-69"/>
      <use x="902.056640625" xlink:href="#DejaVuSans-66"/>
      <use x="937.26171875" xlink:href="#DejaVuSans-69"/>
      <use x="965.044921875" xlink:href="#DejaVuSans-63"/>
     </g>
     <!-- parents -->
     <g transform="translate(104.0 443.2003125)scale(0.1 -0.1)">
      <use xlink:href="#DejaVuSans-70"/>
      <use x="63.4765625" xlink:href="#DejaVuSans-61"/>
      <use x="124.755859375" xlink:href="#DejaVuSans-72"/>
      <use x="163.619140625" xlink:href="#DejaVuSans-65"/>
      <use x="225.142578125" xlink:href="#DejaVuSans-6e"/>
      <use x="288.521484375" xlink:href="#DejaVuSans-74"/>
      <use x="327.73046875" xlink:href="#DejaVuSans-73"/>
     </g>
    </g>
   </g>
  </g>
 </g>
 <defs>
  <clipPath id="p4f6257ca6d">
   <rect height="460.8" width="446.4" x="72.0" y="57.6"/>
  </clipPath>
 </defs>
</svg>
