<?xml version="1.0" encoding="utf-8" standalone="no"?>
<!DOCTYPE svg PUBLIC "-//W3C//DTD SVG 1.1//EN"
  "http://www.w3.org/Graphics/SVG/1.1/DTD/svg11.dtd">
<!-- Created with matplotlib (http://matplotlib.org/) -->
<svg height="576pt" version="1.1" viewBox="0 0 1008 576" width="1008pt" xmlns="http://www.w3.org/2000/svg" xmlns:xlink="http://www.w3.org/1999/xlink">
 <defs>
  <style type="text/css">
*{stroke-linecap:butt;stroke-linejoin:round;}
  </style>
 </defs>
 <g id="figure_1">
  <g id="patch_1">
   <path d="M 0 576 
L 1008 576 
L 1008 0 
L 0 0 
z
" style="fill:#ffffff;"/>
  </g>
  <g id="axes_1">
   <g id="patch_2">
    <path d="M 126 270.72 
L 481.090909 270.72 
L 481.090909 69.12 
L 126 69.12 
z
" style="fill:#ffffff;"/>
   </g>
   <g id="matplotlib.axis_1">
    <g id="xtick_1">
     <g id="line2d_1">
      <defs>
       <path d="M 0 0 
L 0 3.5 
" id="m421be1afe9" style="stroke:#000000;stroke-width:0.8;"/>
      </defs>
      <g>
       <use style="stroke:#000000;stroke-width:0.8;" x="142.140496" xlink:href="#m421be1afe9" y="270.72"/>
      </g>
     </g>
    </g>
    <g id="xtick_2">
     <g id="line2d_2">
      <g>
       <use style="stroke:#000000;stroke-width:0.8;" x="219.666733" xlink:href="#m421be1afe9" y="270.72"/>
      </g>
     </g>
    </g>
    <g id="xtick_3">
     <g id="line2d_3">
      <g>
       <use style="stroke:#000000;stroke-width:0.8;" x="297.19297" xlink:href="#m421be1afe9" y="270.72"/>
      </g>
     </g>
    </g>
    <g id="xtick_4">
     <g id="line2d_4">
      <g>
       <use style="stroke:#000000;stroke-width:0.8;" x="374.719207" xlink:href="#m421be1afe9" y="270.72"/>
      </g>
     </g>
    </g>
    <g id="xtick_5">
     <g id="line2d_5">
      <g>
       <use style="stroke:#000000;stroke-width:0.8;" x="452.245444" xlink:href="#m421be1afe9" y="270.72"/>
      </g>
     </g>
    </g>
   </g>
   <g id="matplotlib.axis_2">
    <g id="ytick_1">
     <g id="line2d_6">
      <defs>
       <path d="M 0 0 
L -3.5 0 
" id="mfe0094db20" style="stroke:#000000;stroke-width:0.8;"/>
      </defs>
      <g>
       <use style="stroke:#000000;stroke-width:0.8;" x="126" xlink:href="#mfe0094db20" y="261.556364"/>
      </g>
     </g>
     <g id="text_1">
      <!-- 0.000 -->
      <defs>
       <path d="M 31.78125 66.40625 
Q 24.171875 66.40625 20.328125 58.90625 
Q 16.5 51.421875 16.5 36.375 
Q 16.5 21.390625 20.328125 13.890625 
Q 24.171875 6.390625 31.78125 6.390625 
Q 39.453125 6.390625 43.28125 13.890625 
Q 47.125 21.390625 47.125 36.375 
Q 47.125 51.421875 43.28125 58.90625 
Q 39.453125 66.40625 31.78125 66.40625 
z
M 31.78125 74.21875 
Q 44.046875 74.21875 50.515625 64.515625 
Q 56.984375 54.828125 56.984375 36.375 
Q 56.984375 17.96875 50.515625 8.265625 
Q 44.046875 -1.421875 31.78125 -1.421875 
Q 19.53125 -1.421875 13.0625 8.265625 
Q 6.59375 17.96875 6.59375 36.375 
Q 6.59375 54.828125 13.0625 64.515625 
Q 19.53125 74.21875 31.78125 74.21875 
z
" id="DejaVuSans-30"/>
       <path d="M 10.6875 12.40625 
L 21 12.40625 
L 21 0 
L 10.6875 0 
z
" id="DejaVuSans-2e"/>
      </defs>
      <g transform="translate(90.371875 265.355582)scale(0.1 -0.1)">
       <use xlink:href="#DejaVuSans-30"/>
       <use x="63.623047" xlink:href="#DejaVuSans-2e"/>
       <use x="95.410156" xlink:href="#DejaVuSans-30"/>
       <use x="159.033203" xlink:href="#DejaVuSans-30"/>
       <use x="222.65625" xlink:href="#DejaVuSans-30"/>
      </g>
     </g>
    </g>
    <g id="ytick_2">
     <g id="line2d_7">
      <g>
       <use style="stroke:#000000;stroke-width:0.8;" x="126" xlink:href="#mfe0094db20" y="235.245643"/>
      </g>
     </g>
     <g id="text_2">
      <!-- 0.025 -->
      <defs>
       <path d="M 19.1875 8.296875 
L 53.609375 8.296875 
L 53.609375 0 
L 7.328125 0 
L 7.328125 8.296875 
Q 12.9375 14.109375 22.625 23.890625 
Q 32.328125 33.6875 34.8125 36.53125 
Q 39.546875 41.84375 41.421875 45.53125 
Q 43.3125 49.21875 43.3125 52.78125 
Q 43.3125 58.59375 39.234375 62.25 
Q 35.15625 65.921875 28.609375 65.921875 
Q 23.96875 65.921875 18.8125 64.3125 
Q 13.671875 62.703125 7.8125 59.421875 
L 7.8125 69.390625 
Q 13.765625 71.78125 18.9375 73 
Q 24.125 74.21875 28.421875 74.21875 
Q 39.75 74.21875 46.484375 68.546875 
Q 53.21875 62.890625 53.21875 53.421875 
Q 53.21875 48.921875 51.53125 44.890625 
Q 49.859375 40.875 45.40625 35.40625 
Q 44.1875 33.984375 37.640625 27.21875 
Q 31.109375 20.453125 19.1875 8.296875 
z
" id="DejaVuSans-32"/>
       <path d="M 10.796875 72.90625 
L 49.515625 72.90625 
L 49.515625 64.59375 
L 19.828125 64.59375 
L 19.828125 46.734375 
Q 21.96875 47.46875 24.109375 47.828125 
Q 26.265625 48.1875 28.421875 48.1875 
Q 40.625 48.1875 47.75 41.5 
Q 54.890625 34.8125 54.890625 23.390625 
Q 54.890625 11.625 47.5625 5.09375 
Q 40.234375 -1.421875 26.90625 -1.421875 
Q 22.3125 -1.421875 17.546875 -0.640625 
Q 12.796875 0.140625 7.71875 1.703125 
L 7.71875 11.625 
Q 12.109375 9.234375 16.796875 8.0625 
Q 21.484375 6.890625 26.703125 6.890625 
Q 35.15625 6.890625 40.078125 11.328125 
Q 45.015625 15.765625 45.015625 23.390625 
Q 45.015625 31 40.078125 35.4375 
Q 35.15625 39.890625 26.703125 39.890625 
Q 22.75 39.890625 18.8125 39.015625 
Q 14.890625 38.140625 10.796875 36.28125 
z
" id="DejaVuSans-35"/>
      </defs>
      <g transform="translate(90.371875 239.044862)scale(0.1 -0.1)">
       <use xlink:href="#DejaVuSans-30"/>
       <use x="63.623047" xlink:href="#DejaVuSans-2e"/>
       <use x="95.410156" xlink:href="#DejaVuSans-30"/>
       <use x="159.033203" xlink:href="#DejaVuSans-32"/>
       <use x="222.65625" xlink:href="#DejaVuSans-35"/>
      </g>
     </g>
    </g>
    <g id="ytick_3">
     <g id="line2d_8">
      <g>
       <use style="stroke:#000000;stroke-width:0.8;" x="126" xlink:href="#mfe0094db20" y="208.934923"/>
      </g>
     </g>
     <g id="text_3">
      <!-- 0.050 -->
      <g transform="translate(90.371875 212.734142)scale(0.1 -0.1)">
       <use xlink:href="#DejaVuSans-30"/>
       <use x="63.623047" xlink:href="#DejaVuSans-2e"/>
       <use x="95.410156" xlink:href="#DejaVuSans-30"/>
       <use x="159.033203" xlink:href="#DejaVuSans-35"/>
       <use x="222.65625" xlink:href="#DejaVuSans-30"/>
      </g>
     </g>
    </g>
    <g id="ytick_4">
     <g id="line2d_9">
      <g>
       <use style="stroke:#000000;stroke-width:0.8;" x="126" xlink:href="#mfe0094db20" y="182.624203"/>
      </g>
     </g>
     <g id="text_4">
      <!-- 0.075 -->
      <defs>
       <path d="M 8.203125 72.90625 
L 55.078125 72.90625 
L 55.078125 68.703125 
L 28.609375 0 
L 18.3125 0 
L 43.21875 64.59375 
L 8.203125 64.59375 
z
" id="DejaVuSans-37"/>
      </defs>
      <g transform="translate(90.371875 186.423422)scale(0.1 -0.1)">
       <use xlink:href="#DejaVuSans-30"/>
       <use x="63.623047" xlink:href="#DejaVuSans-2e"/>
       <use x="95.410156" xlink:href="#DejaVuSans-30"/>
       <use x="159.033203" xlink:href="#DejaVuSans-37"/>
       <use x="222.65625" xlink:href="#DejaVuSans-35"/>
      </g>
     </g>
    </g>
    <g id="ytick_5">
     <g id="line2d_10">
      <g>
       <use style="stroke:#000000;stroke-width:0.8;" x="126" xlink:href="#mfe0094db20" y="156.313483"/>
      </g>
     </g>
     <g id="text_5">
      <!-- 0.100 -->
      <defs>
       <path d="M 12.40625 8.296875 
L 28.515625 8.296875 
L 28.515625 63.921875 
L 10.984375 60.40625 
L 10.984375 69.390625 
L 28.421875 72.90625 
L 38.28125 72.90625 
L 38.28125 8.296875 
L 54.390625 8.296875 
L 54.390625 0 
L 12.40625 0 
z
" id="DejaVuSans-31"/>
      </defs>
      <g transform="translate(90.371875 160.112702)scale(0.1 -0.1)">
       <use xlink:href="#DejaVuSans-30"/>
       <use x="63.623047" xlink:href="#DejaVuSans-2e"/>
       <use x="95.410156" xlink:href="#DejaVuSans-31"/>
       <use x="159.033203" xlink:href="#DejaVuSans-30"/>
       <use x="222.65625" xlink:href="#DejaVuSans-30"/>
      </g>
     </g>
    </g>
    <g id="ytick_6">
     <g id="line2d_11">
      <g>
       <use style="stroke:#000000;stroke-width:0.8;" x="126" xlink:href="#mfe0094db20" y="130.002763"/>
      </g>
     </g>
     <g id="text_6">
      <!-- 0.125 -->
      <g transform="translate(90.371875 133.801981)scale(0.1 -0.1)">
       <use xlink:href="#DejaVuSans-30"/>
       <use x="63.623047" xlink:href="#DejaVuSans-2e"/>
       <use x="95.410156" xlink:href="#DejaVuSans-31"/>
       <use x="159.033203" xlink:href="#DejaVuSans-32"/>
       <use x="222.65625" xlink:href="#DejaVuSans-35"/>
      </g>
     </g>
    </g>
    <g id="ytick_7">
     <g id="line2d_12">
      <g>
       <use style="stroke:#000000;stroke-width:0.8;" x="126" xlink:href="#mfe0094db20" y="103.692042"/>
      </g>
     </g>
     <g id="text_7">
      <!-- 0.150 -->
      <g transform="translate(90.371875 107.491261)scale(0.1 -0.1)">
       <use xlink:href="#DejaVuSans-30"/>
       <use x="63.623047" xlink:href="#DejaVuSans-2e"/>
       <use x="95.410156" xlink:href="#DejaVuSans-31"/>
       <use x="159.033203" xlink:href="#DejaVuSans-35"/>
       <use x="222.65625" xlink:href="#DejaVuSans-30"/>
      </g>
     </g>
    </g>
    <g id="ytick_8">
     <g id="line2d_13">
      <g>
       <use style="stroke:#000000;stroke-width:0.8;" x="126" xlink:href="#mfe0094db20" y="77.381322"/>
      </g>
     </g>
     <g id="text_8">
      <!-- 0.175 -->
      <g transform="translate(90.371875 81.180541)scale(0.1 -0.1)">
       <use xlink:href="#DejaVuSans-30"/>
       <use x="63.623047" xlink:href="#DejaVuSans-2e"/>
       <use x="95.410156" xlink:href="#DejaVuSans-31"/>
       <use x="159.033203" xlink:href="#DejaVuSans-37"/>
       <use x="222.65625" xlink:href="#DejaVuSans-35"/>
      </g>
     </g>
    </g>
    <g id="text_9">
     <!-- Density -->
     <defs>
      <path d="M 19.671875 64.796875 
L 19.671875 8.109375 
L 31.59375 8.109375 
Q 46.6875 8.109375 53.6875 14.9375 
Q 60.6875 21.78125 60.6875 36.53125 
Q 60.6875 51.171875 53.6875 57.984375 
Q 46.6875 64.796875 31.59375 64.796875 
z
M 9.8125 72.90625 
L 30.078125 72.90625 
Q 51.265625 72.90625 61.171875 64.09375 
Q 71.09375 55.28125 71.09375 36.53125 
Q 71.09375 17.671875 61.125 8.828125 
Q 51.171875 0 30.078125 0 
L 9.8125 0 
z
" id="DejaVuSans-44"/>
      <path d="M 56.203125 29.59375 
L 56.203125 25.203125 
L 14.890625 25.203125 
Q 15.484375 15.921875 20.484375 11.0625 
Q 25.484375 6.203125 34.421875 6.203125 
Q 39.59375 6.203125 44.453125 7.46875 
Q 49.3125 8.734375 54.109375 11.28125 
L 54.109375 2.78125 
Q 49.265625 0.734375 44.1875 -0.34375 
Q 39.109375 -1.421875 33.890625 -1.421875 
Q 20.796875 -1.421875 13.15625 6.1875 
Q 5.515625 13.8125 5.515625 26.8125 
Q 5.515625 40.234375 12.765625 48.109375 
Q 20.015625 56 32.328125 56 
Q 43.359375 56 49.78125 48.890625 
Q 56.203125 41.796875 56.203125 29.59375 
z
M 47.21875 32.234375 
Q 47.125 39.59375 43.09375 43.984375 
Q 39.0625 48.390625 32.421875 48.390625 
Q 24.90625 48.390625 20.390625 44.140625 
Q 15.875 39.890625 15.1875 32.171875 
z
" id="DejaVuSans-65"/>
      <path d="M 54.890625 33.015625 
L 54.890625 0 
L 45.90625 0 
L 45.90625 32.71875 
Q 45.90625 40.484375 42.875 44.328125 
Q 39.84375 48.1875 33.796875 48.1875 
Q 26.515625 48.1875 22.3125 43.546875 
Q 18.109375 38.921875 18.109375 30.90625 
L 18.109375 0 
L 9.078125 0 
L 9.078125 54.6875 
L 18.109375 54.6875 
L 18.109375 46.1875 
Q 21.34375 51.125 25.703125 53.5625 
Q 30.078125 56 35.796875 56 
Q 45.21875 56 50.046875 50.171875 
Q 54.890625 44.34375 54.890625 33.015625 
z
" id="DejaVuSans-6e"/>
      <path d="M 44.28125 53.078125 
L 44.28125 44.578125 
Q 40.484375 46.53125 36.375 47.5 
Q 32.28125 48.484375 27.875 48.484375 
Q 21.1875 48.484375 17.84375 46.4375 
Q 14.5 44.390625 14.5 40.28125 
Q 14.5 37.15625 16.890625 35.375 
Q 19.28125 33.59375 26.515625 31.984375 
L 29.59375 31.296875 
Q 39.15625 29.25 43.1875 25.515625 
Q 47.21875 21.78125 47.21875 15.09375 
Q 47.21875 7.46875 41.1875 3.015625 
Q 35.15625 -1.421875 24.609375 -1.421875 
Q 20.21875 -1.421875 15.453125 -0.5625 
Q 10.6875 0.296875 5.421875 2 
L 5.421875 11.28125 
Q 10.40625 8.6875 15.234375 7.390625 
Q 20.0625 6.109375 24.8125 6.109375 
Q 31.15625 6.109375 34.5625 8.28125 
Q 37.984375 10.453125 37.984375 14.40625 
Q 37.984375 18.0625 35.515625 20.015625 
Q 33.0625 21.96875 24.703125 23.78125 
L 21.578125 24.515625 
Q 13.234375 26.265625 9.515625 29.90625 
Q 5.8125 33.546875 5.8125 39.890625 
Q 5.8125 47.609375 11.28125 51.796875 
Q 16.75 56 26.8125 56 
Q 31.78125 56 36.171875 55.265625 
Q 40.578125 54.546875 44.28125 53.078125 
z
" id="DejaVuSans-73"/>
      <path d="M 9.421875 54.6875 
L 18.40625 54.6875 
L 18.40625 0 
L 9.421875 0 
z
M 9.421875 75.984375 
L 18.40625 75.984375 
L 18.40625 64.59375 
L 9.421875 64.59375 
z
" id="DejaVuSans-69"/>
      <path d="M 18.3125 70.21875 
L 18.3125 54.6875 
L 36.8125 54.6875 
L 36.8125 47.703125 
L 18.3125 47.703125 
L 18.3125 18.015625 
Q 18.3125 11.328125 20.140625 9.421875 
Q 21.96875 7.515625 27.59375 7.515625 
L 36.8125 7.515625 
L 36.8125 0 
L 27.59375 0 
Q 17.1875 0 13.234375 3.875 
Q 9.28125 7.765625 9.28125 18.015625 
L 9.28125 47.703125 
L 2.6875 47.703125 
L 2.6875 54.6875 
L 9.28125 54.6875 
L 9.28125 70.21875 
z
" id="DejaVuSans-74"/>
      <path d="M 32.171875 -5.078125 
Q 28.375 -14.84375 24.75 -17.8125 
Q 21.140625 -20.796875 15.09375 -20.796875 
L 7.90625 -20.796875 
L 7.90625 -13.28125 
L 13.1875 -13.28125 
Q 16.890625 -13.28125 18.9375 -11.515625 
Q 21 -9.765625 23.484375 -3.21875 
L 25.09375 0.875 
L 2.984375 54.6875 
L 12.5 54.6875 
L 29.59375 11.921875 
L 46.6875 54.6875 
L 56.203125 54.6875 
z
" id="DejaVuSans-79"/>
     </defs>
     <g transform="translate(84.292187 188.928594)rotate(-90)scale(0.1 -0.1)">
      <use xlink:href="#DejaVuSans-44"/>
      <use x="77.001953" xlink:href="#DejaVuSans-65"/>
      <use x="138.525391" xlink:href="#DejaVuSans-6e"/>
      <use x="201.904297" xlink:href="#DejaVuSans-73"/>
      <use x="254.003906" xlink:href="#DejaVuSans-69"/>
      <use x="281.787109" xlink:href="#DejaVuSans-74"/>
      <use x="320.996094" xlink:href="#DejaVuSans-79"/>
     </g>
    </g>
   </g>
   <g id="line2d_14">
    <path clip-path="url(#p63cd75d858)" d="M 142.140496 202.487156 
L 142.786762 202.636888 
L 143.433028 203.083811 
L 144.079294 203.821161 
L 144.72556 204.837857 
L 145.694959 206.852575 
L 146.664359 209.394897 
L 147.956891 213.463894 
L 149.572556 219.329812 
L 155.388951 241.226654 
L 157.004616 246.13016 
L 158.297148 249.465957 
L 159.589681 252.270879 
L 160.882213 254.568409 
L 162.174745 256.403159 
L 163.467277 257.832562 
L 164.759809 258.919562 
L 166.052342 259.726788 
L 167.668007 260.430358 
L 169.283672 260.885008 
L 171.22247 261.210217 
L 174.130668 261.438734 
L 178.977664 261.540873 
L 198.365647 261.556363 
L 315.016678 261.445616 
L 319.540541 261.183986 
L 322.771871 260.78367 
L 325.680068 260.199653 
L 328.588266 259.368945 
L 331.496463 258.298667 
L 335.050927 256.72741 
L 338.605391 254.906434 
L 341.190455 253.33148 
L 343.129253 251.878352 
L 344.744918 250.377126 
L 346.037451 248.910888 
L 347.329983 247.14229 
L 348.622515 245.005489 
L 349.915047 242.433523 
L 351.207579 239.361621 
L 352.500112 235.73081 
L 353.792644 231.491631 
L 355.408309 225.283426 
L 357.023974 218.03574 
L 358.63964 209.764493 
L 360.578438 198.592741 
L 362.840369 184.149688 
L 366.717966 157.546943 
L 369.626163 138.11124 
L 371.564962 126.439701 
L 373.180627 117.954143 
L 374.473159 112.174521 
L 375.765691 107.417287 
L 376.73509 104.574777 
L 377.70449 102.384468 
L 378.673889 100.862752 
L 379.320155 100.222991 
L 379.966421 99.882166 
L 380.612687 99.837148 
L 381.258953 100.082702 
L 381.905219 100.611552 
L 382.551485 101.414478 
L 383.520885 103.108159 
L 384.490284 105.349205 
L 385.782816 109.099571 
L 387.075348 113.596209 
L 388.691013 120.045193 
L 390.952945 130.110038 
L 399.354404 168.563873 
L 402.262601 180.358656 
L 405.493932 192.551907 
L 410.017795 208.721056 
L 414.541657 224.132929 
L 417.449855 233.255425 
L 419.711786 239.62001 
L 421.650584 244.42172 
L 423.26625 247.906607 
L 424.881915 250.902992 
L 426.49758 253.416242 
L 428.113245 255.471432 
L 429.728911 257.109182 
L 431.344576 258.380508 
L 432.960241 259.341527 
L 434.575906 260.048721 
L 436.514705 260.636659 
L 438.776636 261.062965 
L 441.684834 261.350788 
L 445.885563 261.506561 
L 455.256422 261.555297 
L 464.950413 261.556357 
L 464.950413 261.556357 
" style="fill:none;stroke:#ff0000;stroke-linecap:square;"/>
   </g>
   <g id="line2d_15">
    <path clip-path="url(#p63cd75d858)" d="M 142.140496 142.467607 
L 142.786762 142.655008 
L 143.433028 143.215445 
L 144.079294 144.143642 
L 144.72556 145.4309 
L 145.694959 148.007947 
L 146.664359 151.311872 
L 147.956891 156.730055 
L 149.249423 163.129864 
L 151.188221 174.095188 
L 154.419552 194.109384 
L 157.327749 211.650009 
L 159.266548 222.15036 
L 160.882213 229.885242 
L 162.497878 236.598062 
L 164.113543 242.271473 
L 165.406075 246.087326 
L 166.698608 249.303496 
L 167.99114 251.972502 
L 169.283672 254.153978 
L 170.576204 255.910489 
L 171.868737 257.304111 
L 173.161269 258.393829 
L 174.453801 259.233735 
L 176.069466 260.004992 
L 177.685131 260.540343 
L 179.62393 260.960645 
L 182.208994 261.276631 
L 185.763458 261.465248 
L 192.549252 261.548147 
L 232.940883 261.556364 
L 293.04363 261.450637 
L 301.44509 261.19307 
L 306.938352 260.818636 
L 311.139081 260.327112 
L 314.693545 259.693312 
L 317.601742 258.966176 
L 320.186807 258.113857 
L 322.771871 257.018755 
L 325.033802 255.818152 
L 327.295734 254.346901 
L 329.234532 252.834263 
L 331.17333 251.054828 
L 333.112129 248.97413 
L 335.050927 246.55761 
L 336.989725 243.772842 
L 338.928524 240.592451 
L 340.867322 236.997564 
L 343.129253 232.27166 
L 345.391185 226.99047 
L 347.976249 220.344877 
L 351.207579 211.342096 
L 358.962773 189.307589 
L 361.224704 183.649411 
L 363.163502 179.369613 
L 364.779168 176.292993 
L 366.394833 173.721585 
L 367.687365 172.058561 
L 368.979897 170.764858 
L 369.949296 170.044375 
L 370.918696 169.541624 
L 371.888095 169.258063 
L 372.857494 169.193518 
L 373.826893 169.346235 
L 374.796292 169.712944 
L 375.765691 170.288939 
L 377.058224 171.371843 
L 378.350756 172.798149 
L 379.643288 174.546614 
L 381.258953 177.148023 
L 382.874618 180.161939 
L 384.813417 184.242168 
L 387.075348 189.509057 
L 390.306679 197.658514 
L 399.031271 220.076051 
L 401.939468 226.826507 
L 404.524533 232.305682 
L 407.109597 237.239732 
L 409.371529 241.091889 
L 411.63346 244.509414 
L 413.895391 247.503012 
L 416.157323 250.091692 
L 418.419254 252.300763 
L 420.681185 254.160194 
L 422.943117 255.703204 
L 425.205048 256.965013 
L 427.466979 257.981662 
L 430.052044 258.889155 
L 432.960241 259.646524 
L 436.191572 260.237849 
L 440.069168 260.703133 
L 444.916164 261.050174 
L 451.701958 261.300743 
L 462.365349 261.443674 
L 464.950413 261.458735 
L 464.950413 261.458735 
" style="fill:none;stroke:#000000;stroke-linecap:square;"/>
   </g>
   <g id="line2d_16">
    <path clip-path="url(#p63cd75d858)" d="M 142.140496 171.646486 
L 142.786762 171.804044 
L 143.433028 172.275062 
L 144.079294 173.054605 
L 144.72556 174.134544 
L 145.694959 176.292445 
L 146.664359 179.050848 
L 147.956891 183.553984 
L 149.572556 190.259643 
L 151.511354 199.375726 
L 157.327749 227.425605 
L 159.266548 235.320974 
L 160.882213 240.988061 
L 162.497878 245.780691 
L 163.79041 248.997108 
L 165.082942 251.697062 
L 166.375475 253.92443 
L 167.668007 255.730916 
L 168.960539 257.171762 
L 170.253071 258.302216 
L 171.545603 259.174864 
L 173.161269 259.975851 
L 174.776934 260.530183 
L 176.715732 260.962665 
L 179.300797 261.283867 
L 182.85526 261.471146 
L 189.641054 261.549465 
L 234.879681 261.556364 
L 296.921227 261.450563 
L 305.645819 261.188588 
L 311.139081 260.821745 
L 315.339811 260.322445 
L 318.571141 259.72354 
L 321.479339 258.9541 
L 324.064403 258.028495 
L 326.326335 256.984983 
L 328.588266 255.676744 
L 330.527064 254.305834 
L 332.465863 252.66579 
L 334.404661 250.715532 
L 336.343459 248.410413 
L 338.282257 245.703735 
L 340.221056 242.549354 
L 342.159854 238.905391 
L 344.098652 234.738863 
L 346.037451 230.030869 
L 347.976249 224.781775 
L 350.23818 218.007692 
L 352.823245 209.517528 
L 356.377708 196.933404 
L 362.517236 175.030577 
L 364.779168 167.766241 
L 366.717966 162.208532 
L 368.333631 158.164514 
L 369.949296 154.735963 
L 371.241829 152.479332 
L 372.534361 150.683449 
L 373.50376 149.651011 
L 374.473159 148.894858 
L 375.442558 148.418716 
L 376.411957 148.224112 
L 377.381357 148.310346 
L 378.350756 148.674496 
L 379.320155 149.311437 
L 380.289554 150.213896 
L 381.258953 151.372524 
L 382.551485 153.296025 
L 383.844018 155.622833 
L 385.459683 159.042054 
L 387.398481 163.786854 
L 389.660412 170.015714 
L 392.56861 178.744274 
L 402.262601 208.447028 
L 405.493932 217.38672 
L 408.402129 224.808662 
L 411.310327 231.595792 
L 413.895391 237.059741 
L 416.157323 241.370726 
L 418.419254 245.216878 
L 420.358052 248.129205 
L 422.296851 250.681368 
L 424.235649 252.877194 
L 426.174447 254.729983 
L 428.113245 256.262123 
L 430.052044 257.503594 
L 431.990842 258.489659 
L 434.252773 259.367796 
L 436.514705 260.009542 
L 439.099769 260.52364 
L 442.3311 260.936505 
L 446.531829 261.239634 
L 452.671357 261.443855 
L 463.334748 261.543928 
L 464.950413 261.548008 
L 464.950413 261.548008 
" style="fill:none;stroke:#0000ff;stroke-linecap:square;"/>
   </g>
   <g id="patch_3">
    <path d="M 126 270.72 
L 126 69.12 
" style="fill:none;stroke:#000000;stroke-linecap:square;stroke-linejoin:miter;stroke-width:0.8;"/>
   </g>
   <g id="patch_4">
    <path d="M 481.090909 270.72 
L 481.090909 69.12 
" style="fill:none;stroke:#000000;stroke-linecap:square;stroke-linejoin:miter;stroke-width:0.8;"/>
   </g>
   <g id="patch_5">
    <path d="M 126 270.72 
L 481.090909 270.72 
" style="fill:none;stroke:#000000;stroke-linecap:square;stroke-linejoin:miter;stroke-width:0.8;"/>
   </g>
   <g id="patch_6">
    <path d="M 126 69.12 
L 481.090909 69.12 
" style="fill:none;stroke:#000000;stroke-linecap:square;stroke-linejoin:miter;stroke-width:0.8;"/>
   </g>
   <g id="text_10">
    <!-- female B -->
    <defs>
     <path d="M 37.109375 75.984375 
L 37.109375 68.5 
L 28.515625 68.5 
Q 23.6875 68.5 21.796875 66.546875 
Q 19.921875 64.59375 19.921875 59.515625 
L 19.921875 54.6875 
L 34.71875 54.6875 
L 34.71875 47.703125 
L 19.921875 47.703125 
L 19.921875 0 
L 10.890625 0 
L 10.890625 47.703125 
L 2.296875 47.703125 
L 2.296875 54.6875 
L 10.890625 54.6875 
L 10.890625 58.5 
Q 10.890625 67.625 15.140625 71.796875 
Q 19.390625 75.984375 28.609375 75.984375 
z
" id="DejaVuSans-66"/>
     <path d="M 52 44.1875 
Q 55.375 50.25 60.0625 53.125 
Q 64.75 56 71.09375 56 
Q 79.640625 56 84.28125 50.015625 
Q 88.921875 44.046875 88.921875 33.015625 
L 88.921875 0 
L 79.890625 0 
L 79.890625 32.71875 
Q 79.890625 40.578125 77.09375 44.375 
Q 74.3125 48.1875 68.609375 48.1875 
Q 61.625 48.1875 57.5625 43.546875 
Q 53.515625 38.921875 53.515625 30.90625 
L 53.515625 0 
L 44.484375 0 
L 44.484375 32.71875 
Q 44.484375 40.625 41.703125 44.40625 
Q 38.921875 48.1875 33.109375 48.1875 
Q 26.21875 48.1875 22.15625 43.53125 
Q 18.109375 38.875 18.109375 30.90625 
L 18.109375 0 
L 9.078125 0 
L 9.078125 54.6875 
L 18.109375 54.6875 
L 18.109375 46.1875 
Q 21.1875 51.21875 25.484375 53.609375 
Q 29.78125 56 35.6875 56 
Q 41.65625 56 45.828125 52.96875 
Q 50 49.953125 52 44.1875 
z
" id="DejaVuSans-6d"/>
     <path d="M 34.28125 27.484375 
Q 23.390625 27.484375 19.1875 25 
Q 14.984375 22.515625 14.984375 16.5 
Q 14.984375 11.71875 18.140625 8.90625 
Q 21.296875 6.109375 26.703125 6.109375 
Q 34.1875 6.109375 38.703125 11.40625 
Q 43.21875 16.703125 43.21875 25.484375 
L 43.21875 27.484375 
z
M 52.203125 31.203125 
L 52.203125 0 
L 43.21875 0 
L 43.21875 8.296875 
Q 40.140625 3.328125 35.546875 0.953125 
Q 30.953125 -1.421875 24.3125 -1.421875 
Q 15.921875 -1.421875 10.953125 3.296875 
Q 6 8.015625 6 15.921875 
Q 6 25.140625 12.171875 29.828125 
Q 18.359375 34.515625 30.609375 34.515625 
L 43.21875 34.515625 
L 43.21875 35.40625 
Q 43.21875 41.609375 39.140625 45 
Q 35.0625 48.390625 27.6875 48.390625 
Q 23 48.390625 18.546875 47.265625 
Q 14.109375 46.140625 10.015625 43.890625 
L 10.015625 52.203125 
Q 14.9375 54.109375 19.578125 55.046875 
Q 24.21875 56 28.609375 56 
Q 40.484375 56 46.34375 49.84375 
Q 52.203125 43.703125 52.203125 31.203125 
z
" id="DejaVuSans-61"/>
     <path d="M 9.421875 75.984375 
L 18.40625 75.984375 
L 18.40625 0 
L 9.421875 0 
z
" id="DejaVuSans-6c"/>
     <path id="DejaVuSans-20"/>
     <path d="M 19.671875 34.8125 
L 19.671875 8.109375 
L 35.5 8.109375 
Q 43.453125 8.109375 47.28125 11.40625 
Q 51.125 14.703125 51.125 21.484375 
Q 51.125 28.328125 47.28125 31.5625 
Q 43.453125 34.8125 35.5 34.8125 
z
M 19.671875 64.796875 
L 19.671875 42.828125 
L 34.28125 42.828125 
Q 41.5 42.828125 45.03125 45.53125 
Q 48.578125 48.25 48.578125 53.8125 
Q 48.578125 59.328125 45.03125 62.0625 
Q 41.5 64.796875 34.28125 64.796875 
z
M 9.8125 72.90625 
L 35.015625 72.90625 
Q 46.296875 72.90625 52.390625 68.21875 
Q 58.5 63.53125 58.5 54.890625 
Q 58.5 48.1875 55.375 44.234375 
Q 52.25 40.28125 46.1875 39.3125 
Q 53.46875 37.75 57.5 32.78125 
Q 61.53125 27.828125 61.53125 20.40625 
Q 61.53125 10.640625 54.890625 5.3125 
Q 48.25 0 35.984375 0 
L 9.8125 0 
z
" id="DejaVuSans-42"/>
    </defs>
    <g transform="translate(276.837955 63.12)scale(0.12 -0.12)">
     <use xlink:href="#DejaVuSans-66"/>
     <use x="35.205078" xlink:href="#DejaVuSans-65"/>
     <use x="96.728516" xlink:href="#DejaVuSans-6d"/>
     <use x="194.140625" xlink:href="#DejaVuSans-61"/>
     <use x="255.419922" xlink:href="#DejaVuSans-6c"/>
     <use x="283.203125" xlink:href="#DejaVuSans-65"/>
     <use x="344.726562" xlink:href="#DejaVuSans-20"/>
     <use x="376.513672" xlink:href="#DejaVuSans-42"/>
    </g>
   </g>
  </g>
  <g id="axes_2">
   <g id="patch_7">
    <path d="M 552.109091 270.72 
L 907.2 270.72 
L 907.2 69.12 
L 552.109091 69.12 
z
" style="fill:#ffffff;"/>
   </g>
   <g id="matplotlib.axis_3">
    <g id="xtick_6">
     <g id="line2d_17">
      <g>
       <use style="stroke:#000000;stroke-width:0.8;" x="568.249587" xlink:href="#m421be1afe9" y="270.72"/>
      </g>
     </g>
    </g>
    <g id="xtick_7">
     <g id="line2d_18">
      <g>
       <use style="stroke:#000000;stroke-width:0.8;" x="645.775824" xlink:href="#m421be1afe9" y="270.72"/>
      </g>
     </g>
    </g>
    <g id="xtick_8">
     <g id="line2d_19">
      <g>
       <use style="stroke:#000000;stroke-width:0.8;" x="723.302061" xlink:href="#m421be1afe9" y="270.72"/>
      </g>
     </g>
    </g>
    <g id="xtick_9">
     <g id="line2d_20">
      <g>
       <use style="stroke:#000000;stroke-width:0.8;" x="800.828298" xlink:href="#m421be1afe9" y="270.72"/>
      </g>
     </g>
    </g>
    <g id="xtick_10">
     <g id="line2d_21">
      <g>
       <use style="stroke:#000000;stroke-width:0.8;" x="878.354535" xlink:href="#m421be1afe9" y="270.72"/>
      </g>
     </g>
    </g>
   </g>
   <g id="matplotlib.axis_4">
    <g id="ytick_9">
     <g id="line2d_22">
      <g>
       <use style="stroke:#000000;stroke-width:0.8;" x="552.109091" xlink:href="#mfe0094db20" y="261.556364"/>
      </g>
     </g>
    </g>
    <g id="ytick_10">
     <g id="line2d_23">
      <g>
       <use style="stroke:#000000;stroke-width:0.8;" x="552.109091" xlink:href="#mfe0094db20" y="235.245643"/>
      </g>
     </g>
    </g>
    <g id="ytick_11">
     <g id="line2d_24">
      <g>
       <use style="stroke:#000000;stroke-width:0.8;" x="552.109091" xlink:href="#mfe0094db20" y="208.934923"/>
      </g>
     </g>
    </g>
    <g id="ytick_12">
     <g id="line2d_25">
      <g>
       <use style="stroke:#000000;stroke-width:0.8;" x="552.109091" xlink:href="#mfe0094db20" y="182.624203"/>
      </g>
     </g>
    </g>
    <g id="ytick_13">
     <g id="line2d_26">
      <g>
       <use style="stroke:#000000;stroke-width:0.8;" x="552.109091" xlink:href="#mfe0094db20" y="156.313483"/>
      </g>
     </g>
    </g>
    <g id="ytick_14">
     <g id="line2d_27">
      <g>
       <use style="stroke:#000000;stroke-width:0.8;" x="552.109091" xlink:href="#mfe0094db20" y="130.002763"/>
      </g>
     </g>
    </g>
    <g id="ytick_15">
     <g id="line2d_28">
      <g>
       <use style="stroke:#000000;stroke-width:0.8;" x="552.109091" xlink:href="#mfe0094db20" y="103.692042"/>
      </g>
     </g>
    </g>
    <g id="ytick_16">
     <g id="line2d_29">
      <g>
       <use style="stroke:#000000;stroke-width:0.8;" x="552.109091" xlink:href="#mfe0094db20" y="77.381322"/>
      </g>
     </g>
    </g>
   </g>
   <g id="line2d_30">
    <path clip-path="url(#pd560071379)" d="M 568.249587 214.545359 
L 568.895853 214.699342 
L 569.542119 215.158271 
L 570.188385 215.913186 
L 570.834651 216.949477 
L 571.80405 218.986939 
L 572.773449 221.526712 
L 574.065982 225.516216 
L 576.327913 233.400654 
L 578.912977 242.31288 
L 580.528643 247.174071 
L 581.821175 250.494202 
L 583.113707 253.2683 
L 584.406239 255.50759 
L 585.698771 257.256222 
L 586.991304 258.578537 
L 588.283836 259.547654 
L 589.576368 260.236478 
L 591.192033 260.803822 
L 593.130832 261.193107 
L 595.715896 261.430887 
L 599.916626 261.538534 
L 615.427012 261.556362 
L 746.942164 261.447459 
L 750.81976 261.191542 
L 753.404825 260.822436 
L 755.666756 260.290122 
L 757.605554 259.627322 
L 759.544353 258.733959 
L 761.483151 257.579733 
L 763.421949 256.144739 
L 765.360748 254.419559 
L 767.299546 252.401535 
L 769.238344 250.087511 
L 771.177142 247.464824 
L 773.115941 244.503792 
L 775.054739 241.155393 
L 776.993537 237.356768 
L 778.932336 233.044287 
L 780.871134 228.170237 
L 782.809932 222.71663 
L 785.071864 215.645018 
L 787.656928 206.71658 
L 790.565125 195.736137 
L 793.473323 183.862502 
L 796.704653 169.660872 
L 800.58225 151.474329 
L 805.429246 128.797892 
L 807.691177 119.303937 
L 809.629975 112.181232 
L 811.245641 107.120296 
L 812.538173 103.707582 
L 813.830705 100.900242 
L 814.800104 99.214568 
L 815.769503 97.909539 
L 816.738903 97.008469 
L 817.385169 96.646062 
L 818.031435 96.48559 
L 818.677701 96.537849 
L 819.323967 96.814425 
L 819.970233 97.327426 
L 820.616499 98.089115 
L 821.262765 99.111473 
L 822.232164 101.157928 
L 823.201564 103.847477 
L 824.170963 107.20101 
L 825.463495 112.713472 
L 826.756027 119.37975 
L 828.371692 129.178048 
L 830.310491 142.631671 
L 833.864954 169.496279 
L 836.450019 188.312143 
L 838.388817 200.970871 
L 840.327615 212.047318 
L 841.94328 220.046839 
L 843.558946 227.009867 
L 845.174611 233.056225 
L 846.790276 238.307692 
L 848.405941 242.864607 
L 850.021607 246.797815 
L 851.637272 250.153125 
L 853.252937 252.962753 
L 854.868602 255.257794 
L 856.161135 256.749187 
L 857.453667 257.961411 
L 858.746199 258.924395 
L 860.361864 259.82817 
L 861.97753 260.461039 
L 863.916328 260.952308 
L 866.178259 261.27438 
L 869.40959 261.472851 
L 875.225985 261.550027 
L 891.059504 261.556363 
L 891.059504 261.556363 
" style="fill:none;stroke:#ff0000;stroke-linecap:square;"/>
   </g>
   <g id="line2d_31">
    <path clip-path="url(#pd560071379)" d="M 568.249587 134.735585 
L 568.895853 134.932229 
L 569.542119 135.520332 
L 570.188385 136.494441 
L 570.834651 137.845557 
L 571.80405 140.55111 
L 572.773449 144.021107 
L 574.065982 149.71496 
L 575.358514 156.445969 
L 577.297312 167.993954 
L 580.528643 189.128777 
L 583.43684 207.727385 
L 585.375638 218.905522 
L 586.991304 227.167271 
L 588.606969 234.361319 
L 590.222634 240.463536 
L 591.515166 244.582312 
L 592.807699 248.065342 
L 594.100231 250.965954 
L 595.392763 253.345491 
L 596.685295 255.268915 
L 597.977827 256.80117 
L 599.27036 258.004383 
L 600.562892 258.935879 
L 602.178557 259.79565 
L 603.794222 260.39606 
L 605.733021 260.870699 
L 607.994952 261.198067 
L 611.226282 261.423645 
L 616.719544 261.535835 
L 635.461261 261.556357 
L 717.213923 261.447995 
L 728.200447 261.217116 
L 734.016842 260.881468 
L 737.894438 260.455992 
L 741.125769 259.892057 
L 744.033966 259.147461 
L 746.619031 258.23244 
L 748.880962 257.185274 
L 750.81976 256.068947 
L 752.758559 254.720601 
L 754.697357 253.112912 
L 756.636155 251.221152 
L 758.574953 249.02456 
L 760.513752 246.507578 
L 762.45255 243.660872 
L 764.714481 239.920322 
L 766.976413 235.737765 
L 769.561477 230.449407 
L 772.469675 223.931508 
L 776.024138 215.352951 
L 784.425597 194.750511 
L 786.687529 189.84327 
L 788.626327 186.095612 
L 790.241992 183.372216 
L 791.857658 181.067648 
L 793.15019 179.555612 
L 794.442722 178.358612 
L 795.735254 177.490793 
L 796.704653 177.061829 
L 797.674053 176.825633 
L 798.643452 176.782806 
L 799.612851 176.932367 
L 800.58225 177.271789 
L 801.874782 178.012548 
L 803.167314 179.070172 
L 804.459847 180.427314 
L 806.075512 182.513002 
L 807.691177 184.987453 
L 809.629975 188.397474 
L 811.891907 192.865012 
L 814.800104 199.154081 
L 820.293366 211.744728 
L 824.817229 221.882278 
L 828.048559 228.608234 
L 830.956757 234.144972 
L 833.541821 238.592434 
L 835.803753 242.092742 
L 838.065684 245.219817 
L 840.327615 247.976992 
L 842.589547 250.376844 
L 844.851478 252.43933 
L 847.113409 254.189672 
L 849.375341 255.656268 
L 851.637272 256.868886 
L 854.222336 257.981901 
L 856.807401 258.845008 
L 859.715598 259.567677 
L 862.946929 260.124791 
L 866.824525 260.541976 
L 871.671521 260.820329 
L 881.04238 261.075766 
L 891.059504 261.319618 
L 891.059504 261.319618 
" style="fill:none;stroke:#000000;stroke-linecap:square;"/>
   </g>
   <g id="line2d_32">
    <path clip-path="url(#pd560071379)" d="M 568.249587 176.063439 
L 568.895853 176.217399 
L 569.542119 176.677615 
L 570.188385 177.439133 
L 570.834651 178.493794 
L 571.80405 180.600101 
L 572.773449 183.2904 
L 574.065982 187.676971 
L 575.681647 194.195945 
L 577.943578 204.566186 
L 582.790574 227.229248 
L 584.729372 235.076606 
L 586.345038 240.749127 
L 587.960703 245.570732 
L 589.253235 248.818491 
L 590.545767 251.55172 
L 591.838299 253.810962 
L 593.130832 255.645869 
L 594.423364 257.110652 
L 595.715896 258.260294 
L 597.008428 259.147628 
L 598.624094 259.961501 
L 600.239759 260.523905 
L 602.178557 260.961612 
L 604.763621 261.285323 
L 608.318085 261.472641 
L 615.103879 261.549797 
L 661.958171 261.556364 
L 709.781863 261.447317 
L 735.632507 261.003816 
L 740.15637 260.643418 
L 743.710833 260.148336 
L 746.619031 259.532134 
L 749.204095 258.755742 
L 751.466026 257.83807 
L 753.404825 256.825896 
L 755.343623 255.560259 
L 757.282421 253.996313 
L 759.22122 252.089538 
L 760.836885 250.208304 
L 762.775683 247.567507 
L 764.714481 244.478932 
L 766.65328 240.919313 
L 768.592078 236.875746 
L 770.530876 232.347868 
L 772.792808 226.473641 
L 775.377872 219.048592 
L 778.28607 209.959429 
L 783.456198 192.842028 
L 787.010662 181.387618 
L 789.595726 173.776232 
L 791.534525 168.669363 
L 793.473323 164.194044 
L 795.088988 161.00503 
L 796.704653 158.342503 
L 797.997186 156.605382 
L 799.289718 155.223019 
L 800.58225 154.195838 
L 801.551649 153.656631 
L 802.521048 153.31276 
L 803.490447 153.160793 
L 804.459847 153.19666 
L 805.429246 153.415838 
L 806.721778 153.984903 
L 808.01431 154.859658 
L 809.306842 156.028664 
L 810.599375 157.481116 
L 812.21504 159.68021 
L 813.830705 162.289132 
L 815.44637 165.291571 
L 817.385169 169.390321 
L 819.323967 173.997425 
L 821.585898 179.953048 
L 824.170963 187.397358 
L 827.725426 198.359933 
L 833.864954 217.346249 
L 836.773152 225.515958 
L 839.035083 231.264616 
L 841.297014 236.419942 
L 843.558946 240.96781 
L 845.497744 244.393351 
L 847.436542 247.403177 
L 849.375341 250.021598 
L 851.314139 252.274527 
L 853.252937 254.188305 
L 855.191736 255.789791 
L 857.130534 257.107026 
L 859.069332 258.169808 
L 861.331263 259.130366 
L 863.593195 259.839701 
L 866.178259 260.408728 
L 869.086457 260.824721 
L 872.964053 261.145455 
L 878.780448 261.376401 
L 888.797573 261.521397 
L 891.059504 261.534183 
L 891.059504 261.534183 
" style="fill:none;stroke:#0000ff;stroke-linecap:square;"/>
   </g>
   <g id="patch_8">
    <path d="M 552.109091 270.72 
L 552.109091 69.12 
" style="fill:none;stroke:#000000;stroke-linecap:square;stroke-linejoin:miter;stroke-width:0.8;"/>
   </g>
   <g id="patch_9">
    <path d="M 907.2 270.72 
L 907.2 69.12 
" style="fill:none;stroke:#000000;stroke-linecap:square;stroke-linejoin:miter;stroke-width:0.8;"/>
   </g>
   <g id="patch_10">
    <path d="M 552.109091 270.72 
L 907.2 270.72 
" style="fill:none;stroke:#000000;stroke-linecap:square;stroke-linejoin:miter;stroke-width:0.8;"/>
   </g>
   <g id="patch_11">
    <path d="M 552.109091 69.12 
L 907.2 69.12 
" style="fill:none;stroke:#000000;stroke-linecap:square;stroke-linejoin:miter;stroke-width:0.8;"/>
   </g>
   <g id="text_11">
    <!-- female T -->
    <defs>
     <path d="M -0.296875 72.90625 
L 61.375 72.90625 
L 61.375 64.59375 
L 35.5 64.59375 
L 35.5 0 
L 25.59375 0 
L 25.59375 64.59375 
L -0.296875 64.59375 
z
" id="DejaVuSans-54"/>
    </defs>
    <g transform="translate(703.39892 63.12)scale(0.12 -0.12)">
     <use xlink:href="#DejaVuSans-66"/>
     <use x="35.205078" xlink:href="#DejaVuSans-65"/>
     <use x="96.728516" xlink:href="#DejaVuSans-6d"/>
     <use x="194.140625" xlink:href="#DejaVuSans-61"/>
     <use x="255.419922" xlink:href="#DejaVuSans-6c"/>
     <use x="283.203125" xlink:href="#DejaVuSans-65"/>
     <use x="344.726562" xlink:href="#DejaVuSans-20"/>
     <use x="376.513672" xlink:href="#DejaVuSans-54"/>
    </g>
   </g>
   <g id="legend_1">
    <g id="patch_12">
     <path d="M 926.954545 116.154375 
L 999.90142 116.154375 
Q 1001.90142 116.154375 1001.90142 114.154375 
L 1001.90142 71.12 
Q 1001.90142 69.12 999.90142 69.12 
L 926.954545 69.12 
Q 924.954545 69.12 924.954545 71.12 
L 924.954545 114.154375 
Q 924.954545 116.154375 926.954545 116.154375 
z
" style="fill:#ffffff;opacity:0.8;stroke:#cccccc;stroke-linejoin:miter;"/>
    </g>
    <g id="patch_13">
     <path d="M 928.954545 80.718437 
L 948.954545 80.718437 
L 948.954545 73.718437 
L 928.954545 73.718437 
z
" style="fill:#ff0000;stroke:#ff0000;stroke-linejoin:miter;"/>
    </g>
    <g id="text_12">
     <!-- EXPR -->
     <defs>
      <path d="M 9.8125 72.90625 
L 55.90625 72.90625 
L 55.90625 64.59375 
L 19.671875 64.59375 
L 19.671875 43.015625 
L 54.390625 43.015625 
L 54.390625 34.71875 
L 19.671875 34.71875 
L 19.671875 8.296875 
L 56.78125 8.296875 
L 56.78125 0 
L 9.8125 0 
z
" id="DejaVuSans-45"/>
      <path d="M 6.296875 72.90625 
L 16.890625 72.90625 
L 35.015625 45.796875 
L 53.21875 72.90625 
L 63.8125 72.90625 
L 40.375 37.890625 
L 65.375 0 
L 54.78125 0 
L 34.28125 31 
L 13.625 0 
L 2.984375 0 
L 29 38.921875 
z
" id="DejaVuSans-58"/>
      <path d="M 19.671875 64.796875 
L 19.671875 37.40625 
L 32.078125 37.40625 
Q 38.96875 37.40625 42.71875 40.96875 
Q 46.484375 44.53125 46.484375 51.125 
Q 46.484375 57.671875 42.71875 61.234375 
Q 38.96875 64.796875 32.078125 64.796875 
z
M 9.8125 72.90625 
L 32.078125 72.90625 
Q 44.34375 72.90625 50.609375 67.359375 
Q 56.890625 61.8125 56.890625 51.125 
Q 56.890625 40.328125 50.609375 34.8125 
Q 44.34375 29.296875 32.078125 29.296875 
L 19.671875 29.296875 
L 19.671875 0 
L 9.8125 0 
z
" id="DejaVuSans-50"/>
      <path d="M 44.390625 34.1875 
Q 47.5625 33.109375 50.5625 29.59375 
Q 53.5625 26.078125 56.59375 19.921875 
L 66.609375 0 
L 56 0 
L 46.6875 18.703125 
Q 43.0625 26.03125 39.671875 28.421875 
Q 36.28125 30.8125 30.421875 30.8125 
L 19.671875 30.8125 
L 19.671875 0 
L 9.8125 0 
L 9.8125 72.90625 
L 32.078125 72.90625 
Q 44.578125 72.90625 50.734375 67.671875 
Q 56.890625 62.453125 56.890625 51.90625 
Q 56.890625 45.015625 53.6875 40.46875 
Q 50.484375 35.9375 44.390625 34.1875 
z
M 19.671875 64.796875 
L 19.671875 38.921875 
L 32.078125 38.921875 
Q 39.203125 38.921875 42.84375 42.21875 
Q 46.484375 45.515625 46.484375 51.90625 
Q 46.484375 58.296875 42.84375 61.546875 
Q 39.203125 64.796875 32.078125 64.796875 
z
" id="DejaVuSans-52"/>
     </defs>
     <g transform="translate(956.954545 80.718437)scale(0.1 -0.1)">
      <use xlink:href="#DejaVuSans-45"/>
      <use x="63.183594" xlink:href="#DejaVuSans-58"/>
      <use x="131.689453" xlink:href="#DejaVuSans-50"/>
      <use x="191.992188" xlink:href="#DejaVuSans-52"/>
     </g>
    </g>
    <g id="patch_14">
     <path d="M 928.954545 95.396563 
L 948.954545 95.396563 
L 948.954545 88.396563 
L 928.954545 88.396563 
z
" style="fill:#0000ff;stroke:#0000ff;stroke-linejoin:miter;"/>
    </g>
    <g id="text_13">
     <!-- UNEXPR -->
     <defs>
      <path d="M 8.6875 72.90625 
L 18.609375 72.90625 
L 18.609375 28.609375 
Q 18.609375 16.890625 22.84375 11.734375 
Q 27.09375 6.59375 36.625 6.59375 
Q 46.09375 6.59375 50.34375 11.734375 
Q 54.59375 16.890625 54.59375 28.609375 
L 54.59375 72.90625 
L 64.5 72.90625 
L 64.5 27.390625 
Q 64.5 13.140625 57.4375 5.859375 
Q 50.390625 -1.421875 36.625 -1.421875 
Q 22.796875 -1.421875 15.734375 5.859375 
Q 8.6875 13.140625 8.6875 27.390625 
z
" id="DejaVuSans-55"/>
      <path d="M 9.8125 72.90625 
L 23.09375 72.90625 
L 55.421875 11.921875 
L 55.421875 72.90625 
L 64.984375 72.90625 
L 64.984375 0 
L 51.703125 0 
L 19.390625 60.984375 
L 19.390625 0 
L 9.8125 0 
z
" id="DejaVuSans-4e"/>
     </defs>
     <g transform="translate(956.954545 95.396563)scale(0.1 -0.1)">
      <use xlink:href="#DejaVuSans-55"/>
      <use x="73.193359" xlink:href="#DejaVuSans-4e"/>
      <use x="147.998047" xlink:href="#DejaVuSans-45"/>
      <use x="211.181641" xlink:href="#DejaVuSans-58"/>
      <use x="279.6875" xlink:href="#DejaVuSans-50"/>
      <use x="339.990234" xlink:href="#DejaVuSans-52"/>
     </g>
    </g>
    <g id="patch_15">
     <path d="M 928.954545 110.074687 
L 948.954545 110.074687 
L 948.954545 103.074687 
L 928.954545 103.074687 
z
" style="stroke:#000000;stroke-linejoin:miter;"/>
    </g>
    <g id="text_14">
     <!-- ALL -->
     <defs>
      <path d="M 34.1875 63.1875 
L 20.796875 26.90625 
L 47.609375 26.90625 
z
M 28.609375 72.90625 
L 39.796875 72.90625 
L 67.578125 0 
L 57.328125 0 
L 50.6875 18.703125 
L 17.828125 18.703125 
L 11.1875 0 
L 0.78125 0 
z
" id="DejaVuSans-41"/>
      <path d="M 9.8125 72.90625 
L 19.671875 72.90625 
L 19.671875 8.296875 
L 55.171875 8.296875 
L 55.171875 0 
L 9.8125 0 
z
" id="DejaVuSans-4c"/>
     </defs>
     <g transform="translate(956.954545 110.074687)scale(0.1 -0.1)">
      <use xlink:href="#DejaVuSans-41"/>
      <use x="68.408203" xlink:href="#DejaVuSans-4c"/>
      <use x="124.121094" xlink:href="#DejaVuSans-4c"/>
     </g>
    </g>
   </g>
  </g>
  <g id="axes_3">
   <g id="patch_16">
    <path d="M 126 512.64 
L 481.090909 512.64 
L 481.090909 311.04 
L 126 311.04 
z
" style="fill:#ffffff;"/>
   </g>
   <g id="matplotlib.axis_5">
    <g id="xtick_11">
     <g id="line2d_33">
      <g>
       <use style="stroke:#000000;stroke-width:0.8;" x="142.140496" xlink:href="#m421be1afe9" y="512.64"/>
      </g>
     </g>
     <g id="text_15">
      <!-- 0 -->
      <g transform="translate(138.959246 527.238438)scale(0.1 -0.1)">
       <use xlink:href="#DejaVuSans-30"/>
      </g>
     </g>
    </g>
    <g id="xtick_12">
     <g id="line2d_34">
      <g>
       <use style="stroke:#000000;stroke-width:0.8;" x="219.666733" xlink:href="#m421be1afe9" y="512.64"/>
      </g>
     </g>
     <g id="text_16">
      <!-- 10 -->
      <g transform="translate(213.304233 527.238438)scale(0.1 -0.1)">
       <use xlink:href="#DejaVuSans-31"/>
       <use x="63.623047" xlink:href="#DejaVuSans-30"/>
      </g>
     </g>
    </g>
    <g id="xtick_13">
     <g id="line2d_35">
      <g>
       <use style="stroke:#000000;stroke-width:0.8;" x="297.19297" xlink:href="#m421be1afe9" y="512.64"/>
      </g>
     </g>
     <g id="text_17">
      <!-- 20 -->
      <g transform="translate(290.83047 527.238438)scale(0.1 -0.1)">
       <use xlink:href="#DejaVuSans-32"/>
       <use x="63.623047" xlink:href="#DejaVuSans-30"/>
      </g>
     </g>
    </g>
    <g id="xtick_14">
     <g id="line2d_36">
      <g>
       <use style="stroke:#000000;stroke-width:0.8;" x="374.719207" xlink:href="#m421be1afe9" y="512.64"/>
      </g>
     </g>
     <g id="text_18">
      <!-- 30 -->
      <defs>
       <path d="M 40.578125 39.3125 
Q 47.65625 37.796875 51.625 33 
Q 55.609375 28.21875 55.609375 21.1875 
Q 55.609375 10.40625 48.1875 4.484375 
Q 40.765625 -1.421875 27.09375 -1.421875 
Q 22.515625 -1.421875 17.65625 -0.515625 
Q 12.796875 0.390625 7.625 2.203125 
L 7.625 11.71875 
Q 11.71875 9.328125 16.59375 8.109375 
Q 21.484375 6.890625 26.8125 6.890625 
Q 36.078125 6.890625 40.9375 10.546875 
Q 45.796875 14.203125 45.796875 21.1875 
Q 45.796875 27.640625 41.28125 31.265625 
Q 36.765625 34.90625 28.71875 34.90625 
L 20.21875 34.90625 
L 20.21875 43.015625 
L 29.109375 43.015625 
Q 36.375 43.015625 40.234375 45.921875 
Q 44.09375 48.828125 44.09375 54.296875 
Q 44.09375 59.90625 40.109375 62.90625 
Q 36.140625 65.921875 28.71875 65.921875 
Q 24.65625 65.921875 20.015625 65.03125 
Q 15.375 64.15625 9.8125 62.3125 
L 9.8125 71.09375 
Q 15.4375 72.65625 20.34375 73.4375 
Q 25.25 74.21875 29.59375 74.21875 
Q 40.828125 74.21875 47.359375 69.109375 
Q 53.90625 64.015625 53.90625 55.328125 
Q 53.90625 49.265625 50.4375 45.09375 
Q 46.96875 40.921875 40.578125 39.3125 
z
" id="DejaVuSans-33"/>
      </defs>
      <g transform="translate(368.356707 527.238438)scale(0.1 -0.1)">
       <use xlink:href="#DejaVuSans-33"/>
       <use x="63.623047" xlink:href="#DejaVuSans-30"/>
      </g>
     </g>
    </g>
    <g id="xtick_15">
     <g id="line2d_37">
      <g>
       <use style="stroke:#000000;stroke-width:0.8;" x="452.245444" xlink:href="#m421be1afe9" y="512.64"/>
      </g>
     </g>
     <g id="text_19">
      <!-- 40 -->
      <defs>
       <path d="M 37.796875 64.3125 
L 12.890625 25.390625 
L 37.796875 25.390625 
z
M 35.203125 72.90625 
L 47.609375 72.90625 
L 47.609375 25.390625 
L 58.015625 25.390625 
L 58.015625 17.1875 
L 47.609375 17.1875 
L 47.609375 0 
L 37.796875 0 
L 37.796875 17.1875 
L 4.890625 17.1875 
L 4.890625 26.703125 
z
" id="DejaVuSans-34"/>
      </defs>
      <g transform="translate(445.882944 527.238438)scale(0.1 -0.1)">
       <use xlink:href="#DejaVuSans-34"/>
       <use x="63.623047" xlink:href="#DejaVuSans-30"/>
      </g>
     </g>
    </g>
    <g id="text_20">
     <!-- $\log_2($protein abundance$)$ -->
     <defs>
      <path d="M 30.609375 48.390625 
Q 23.390625 48.390625 19.1875 42.75 
Q 14.984375 37.109375 14.984375 27.296875 
Q 14.984375 17.484375 19.15625 11.84375 
Q 23.34375 6.203125 30.609375 6.203125 
Q 37.796875 6.203125 41.984375 11.859375 
Q 46.1875 17.53125 46.1875 27.296875 
Q 46.1875 37.015625 41.984375 42.703125 
Q 37.796875 48.390625 30.609375 48.390625 
z
M 30.609375 56 
Q 42.328125 56 49.015625 48.375 
Q 55.71875 40.765625 55.71875 27.296875 
Q 55.71875 13.875 49.015625 6.21875 
Q 42.328125 -1.421875 30.609375 -1.421875 
Q 18.84375 -1.421875 12.171875 6.21875 
Q 5.515625 13.875 5.515625 27.296875 
Q 5.515625 40.765625 12.171875 48.375 
Q 18.84375 56 30.609375 56 
z
" id="DejaVuSans-6f"/>
      <path d="M 45.40625 27.984375 
Q 45.40625 37.75 41.375 43.109375 
Q 37.359375 48.484375 30.078125 48.484375 
Q 22.859375 48.484375 18.828125 43.109375 
Q 14.796875 37.75 14.796875 27.984375 
Q 14.796875 18.265625 18.828125 12.890625 
Q 22.859375 7.515625 30.078125 7.515625 
Q 37.359375 7.515625 41.375 12.890625 
Q 45.40625 18.265625 45.40625 27.984375 
z
M 54.390625 6.78125 
Q 54.390625 -7.171875 48.1875 -13.984375 
Q 42 -20.796875 29.203125 -20.796875 
Q 24.46875 -20.796875 20.265625 -20.09375 
Q 16.0625 -19.390625 12.109375 -17.921875 
L 12.109375 -9.1875 
Q 16.0625 -11.328125 19.921875 -12.34375 
Q 23.78125 -13.375 27.78125 -13.375 
Q 36.625 -13.375 41.015625 -8.765625 
Q 45.40625 -4.15625 45.40625 5.171875 
L 45.40625 9.625 
Q 42.625 4.78125 38.28125 2.390625 
Q 33.9375 0 27.875 0 
Q 17.828125 0 11.671875 7.65625 
Q 5.515625 15.328125 5.515625 27.984375 
Q 5.515625 40.671875 11.671875 48.328125 
Q 17.828125 56 27.875 56 
Q 33.9375 56 38.28125 53.609375 
Q 42.625 51.21875 45.40625 46.390625 
L 45.40625 54.6875 
L 54.390625 54.6875 
z
" id="DejaVuSans-67"/>
      <path d="M 31 75.875 
Q 24.46875 64.65625 21.28125 53.65625 
Q 18.109375 42.671875 18.109375 31.390625 
Q 18.109375 20.125 21.3125 9.0625 
Q 24.515625 -2 31 -13.1875 
L 23.1875 -13.1875 
Q 15.875 -1.703125 12.234375 9.375 
Q 8.59375 20.453125 8.59375 31.390625 
Q 8.59375 42.28125 12.203125 53.3125 
Q 15.828125 64.359375 23.1875 75.875 
z
" id="DejaVuSans-28"/>
      <path d="M 18.109375 8.203125 
L 18.109375 -20.796875 
L 9.078125 -20.796875 
L 9.078125 54.6875 
L 18.109375 54.6875 
L 18.109375 46.390625 
Q 20.953125 51.265625 25.265625 53.625 
Q 29.59375 56 35.59375 56 
Q 45.5625 56 51.78125 48.09375 
Q 58.015625 40.1875 58.015625 27.296875 
Q 58.015625 14.40625 51.78125 6.484375 
Q 45.5625 -1.421875 35.59375 -1.421875 
Q 29.59375 -1.421875 25.265625 0.953125 
Q 20.953125 3.328125 18.109375 8.203125 
z
M 48.6875 27.296875 
Q 48.6875 37.203125 44.609375 42.84375 
Q 40.53125 48.484375 33.40625 48.484375 
Q 26.265625 48.484375 22.1875 42.84375 
Q 18.109375 37.203125 18.109375 27.296875 
Q 18.109375 17.390625 22.1875 11.75 
Q 26.265625 6.109375 33.40625 6.109375 
Q 40.53125 6.109375 44.609375 11.75 
Q 48.6875 17.390625 48.6875 27.296875 
z
" id="DejaVuSans-70"/>
      <path d="M 41.109375 46.296875 
Q 39.59375 47.171875 37.8125 47.578125 
Q 36.03125 48 33.890625 48 
Q 26.265625 48 22.1875 43.046875 
Q 18.109375 38.09375 18.109375 28.8125 
L 18.109375 0 
L 9.078125 0 
L 9.078125 54.6875 
L 18.109375 54.6875 
L 18.109375 46.1875 
Q 20.953125 51.171875 25.484375 53.578125 
Q 30.03125 56 36.53125 56 
Q 37.453125 56 38.578125 55.875 
Q 39.703125 55.765625 41.0625 55.515625 
z
" id="DejaVuSans-72"/>
      <path d="M 48.6875 27.296875 
Q 48.6875 37.203125 44.609375 42.84375 
Q 40.53125 48.484375 33.40625 48.484375 
Q 26.265625 48.484375 22.1875 42.84375 
Q 18.109375 37.203125 18.109375 27.296875 
Q 18.109375 17.390625 22.1875 11.75 
Q 26.265625 6.109375 33.40625 6.109375 
Q 40.53125 6.109375 44.609375 11.75 
Q 48.6875 17.390625 48.6875 27.296875 
z
M 18.109375 46.390625 
Q 20.953125 51.265625 25.265625 53.625 
Q 29.59375 56 35.59375 56 
Q 45.5625 56 51.78125 48.09375 
Q 58.015625 40.1875 58.015625 27.296875 
Q 58.015625 14.40625 51.78125 6.484375 
Q 45.5625 -1.421875 35.59375 -1.421875 
Q 29.59375 -1.421875 25.265625 0.953125 
Q 20.953125 3.328125 18.109375 8.203125 
L 18.109375 0 
L 9.078125 0 
L 9.078125 75.984375 
L 18.109375 75.984375 
z
" id="DejaVuSans-62"/>
      <path d="M 8.5 21.578125 
L 8.5 54.6875 
L 17.484375 54.6875 
L 17.484375 21.921875 
Q 17.484375 14.15625 20.5 10.265625 
Q 23.53125 6.390625 29.59375 6.390625 
Q 36.859375 6.390625 41.078125 11.03125 
Q 45.3125 15.671875 45.3125 23.6875 
L 45.3125 54.6875 
L 54.296875 54.6875 
L 54.296875 0 
L 45.3125 0 
L 45.3125 8.40625 
Q 42.046875 3.421875 37.71875 1 
Q 33.40625 -1.421875 27.6875 -1.421875 
Q 18.265625 -1.421875 13.375 4.4375 
Q 8.5 10.296875 8.5 21.578125 
z
M 31.109375 56 
z
" id="DejaVuSans-75"/>
      <path d="M 45.40625 46.390625 
L 45.40625 75.984375 
L 54.390625 75.984375 
L 54.390625 0 
L 45.40625 0 
L 45.40625 8.203125 
Q 42.578125 3.328125 38.25 0.953125 
Q 33.9375 -1.421875 27.875 -1.421875 
Q 17.96875 -1.421875 11.734375 6.484375 
Q 5.515625 14.40625 5.515625 27.296875 
Q 5.515625 40.1875 11.734375 48.09375 
Q 17.96875 56 27.875 56 
Q 33.9375 56 38.25 53.625 
Q 42.578125 51.265625 45.40625 46.390625 
z
M 14.796875 27.296875 
Q 14.796875 17.390625 18.875 11.75 
Q 22.953125 6.109375 30.078125 6.109375 
Q 37.203125 6.109375 41.296875 11.75 
Q 45.40625 17.390625 45.40625 27.296875 
Q 45.40625 37.203125 41.296875 42.84375 
Q 37.203125 48.484375 30.078125 48.484375 
Q 22.953125 48.484375 18.875 42.84375 
Q 14.796875 37.203125 14.796875 27.296875 
z
" id="DejaVuSans-64"/>
      <path d="M 48.78125 52.59375 
L 48.78125 44.1875 
Q 44.96875 46.296875 41.140625 47.34375 
Q 37.3125 48.390625 33.40625 48.390625 
Q 24.65625 48.390625 19.8125 42.84375 
Q 14.984375 37.3125 14.984375 27.296875 
Q 14.984375 17.28125 19.8125 11.734375 
Q 24.65625 6.203125 33.40625 6.203125 
Q 37.3125 6.203125 41.140625 7.25 
Q 44.96875 8.296875 48.78125 10.40625 
L 48.78125 2.09375 
Q 45.015625 0.34375 40.984375 -0.53125 
Q 36.96875 -1.421875 32.421875 -1.421875 
Q 20.0625 -1.421875 12.78125 6.34375 
Q 5.515625 14.109375 5.515625 27.296875 
Q 5.515625 40.671875 12.859375 48.328125 
Q 20.21875 56 33.015625 56 
Q 37.15625 56 41.109375 55.140625 
Q 45.0625 54.296875 48.78125 52.59375 
z
" id="DejaVuSans-63"/>
      <path d="M 8.015625 75.875 
L 15.828125 75.875 
Q 23.140625 64.359375 26.78125 53.3125 
Q 30.421875 42.28125 30.421875 31.390625 
Q 30.421875 20.453125 26.78125 9.375 
Q 23.140625 -1.703125 15.828125 -13.1875 
L 8.015625 -13.1875 
Q 14.5 -2 17.703125 9.0625 
Q 20.90625 20.125 20.90625 31.390625 
Q 20.90625 42.671875 17.703125 53.65625 
Q 14.5 64.65625 8.015625 75.875 
z
" id="DejaVuSans-29"/>
     </defs>
     <g transform="translate(242.295455 540.918125)scale(0.1 -0.1)">
      <use transform="translate(0 0.015625)" xlink:href="#DejaVuSans-6c"/>
      <use transform="translate(27.783203 0.015625)" xlink:href="#DejaVuSans-6f"/>
      <use transform="translate(88.964844 0.015625)" xlink:href="#DejaVuSans-67"/>
      <use transform="translate(153.398438 -16.390625)scale(0.7)" xlink:href="#DejaVuSans-32"/>
      <use transform="translate(200.668945 0.015625)" xlink:href="#DejaVuSans-28"/>
      <use transform="translate(239.682617 0.015625)" xlink:href="#DejaVuSans-70"/>
      <use transform="translate(303.15918 0.015625)" xlink:href="#DejaVuSans-72"/>
      <use transform="translate(344.272461 0.015625)" xlink:href="#DejaVuSans-6f"/>
      <use transform="translate(405.454102 0.015625)" xlink:href="#DejaVuSans-74"/>
      <use transform="translate(444.663086 0.015625)" xlink:href="#DejaVuSans-65"/>
      <use transform="translate(506.186523 0.015625)" xlink:href="#DejaVuSans-69"/>
      <use transform="translate(533.969727 0.015625)" xlink:href="#DejaVuSans-6e"/>
      <use transform="translate(597.348633 0.015625)" xlink:href="#DejaVuSans-20"/>
      <use transform="translate(629.135742 0.015625)" xlink:href="#DejaVuSans-61"/>
      <use transform="translate(690.415039 0.015625)" xlink:href="#DejaVuSans-62"/>
      <use transform="translate(753.891602 0.015625)" xlink:href="#DejaVuSans-75"/>
      <use transform="translate(817.270508 0.015625)" xlink:href="#DejaVuSans-6e"/>
      <use transform="translate(880.649414 0.015625)" xlink:href="#DejaVuSans-64"/>
      <use transform="translate(944.125977 0.015625)" xlink:href="#DejaVuSans-61"/>
      <use transform="translate(1005.405273 0.015625)" xlink:href="#DejaVuSans-6e"/>
      <use transform="translate(1068.78418 0.015625)" xlink:href="#DejaVuSans-63"/>
      <use transform="translate(1123.764648 0.015625)" xlink:href="#DejaVuSans-65"/>
      <use transform="translate(1185.288086 0.015625)" xlink:href="#DejaVuSans-29"/>
     </g>
    </g>
   </g>
   <g id="matplotlib.axis_6">
    <g id="ytick_17">
     <g id="line2d_38">
      <g>
       <use style="stroke:#000000;stroke-width:0.8;" x="126" xlink:href="#mfe0094db20" y="503.476364"/>
      </g>
     </g>
     <g id="text_21">
      <!-- 0.000 -->
      <g transform="translate(90.371875 507.275582)scale(0.1 -0.1)">
       <use xlink:href="#DejaVuSans-30"/>
       <use x="63.623047" xlink:href="#DejaVuSans-2e"/>
       <use x="95.410156" xlink:href="#DejaVuSans-30"/>
       <use x="159.033203" xlink:href="#DejaVuSans-30"/>
       <use x="222.65625" xlink:href="#DejaVuSans-30"/>
      </g>
     </g>
    </g>
    <g id="ytick_18">
     <g id="line2d_39">
      <g>
       <use style="stroke:#000000;stroke-width:0.8;" x="126" xlink:href="#mfe0094db20" y="477.165643"/>
      </g>
     </g>
     <g id="text_22">
      <!-- 0.025 -->
      <g transform="translate(90.371875 480.964862)scale(0.1 -0.1)">
       <use xlink:href="#DejaVuSans-30"/>
       <use x="63.623047" xlink:href="#DejaVuSans-2e"/>
       <use x="95.410156" xlink:href="#DejaVuSans-30"/>
       <use x="159.033203" xlink:href="#DejaVuSans-32"/>
       <use x="222.65625" xlink:href="#DejaVuSans-35"/>
      </g>
     </g>
    </g>
    <g id="ytick_19">
     <g id="line2d_40">
      <g>
       <use style="stroke:#000000;stroke-width:0.8;" x="126" xlink:href="#mfe0094db20" y="450.854923"/>
      </g>
     </g>
     <g id="text_23">
      <!-- 0.050 -->
      <g transform="translate(90.371875 454.654142)scale(0.1 -0.1)">
       <use xlink:href="#DejaVuSans-30"/>
       <use x="63.623047" xlink:href="#DejaVuSans-2e"/>
       <use x="95.410156" xlink:href="#DejaVuSans-30"/>
       <use x="159.033203" xlink:href="#DejaVuSans-35"/>
       <use x="222.65625" xlink:href="#DejaVuSans-30"/>
      </g>
     </g>
    </g>
    <g id="ytick_20">
     <g id="line2d_41">
      <g>
       <use style="stroke:#000000;stroke-width:0.8;" x="126" xlink:href="#mfe0094db20" y="424.544203"/>
      </g>
     </g>
     <g id="text_24">
      <!-- 0.075 -->
      <g transform="translate(90.371875 428.343422)scale(0.1 -0.1)">
       <use xlink:href="#DejaVuSans-30"/>
       <use x="63.623047" xlink:href="#DejaVuSans-2e"/>
       <use x="95.410156" xlink:href="#DejaVuSans-30"/>
       <use x="159.033203" xlink:href="#DejaVuSans-37"/>
       <use x="222.65625" xlink:href="#DejaVuSans-35"/>
      </g>
     </g>
    </g>
    <g id="ytick_21">
     <g id="line2d_42">
      <g>
       <use style="stroke:#000000;stroke-width:0.8;" x="126" xlink:href="#mfe0094db20" y="398.233483"/>
      </g>
     </g>
     <g id="text_25">
      <!-- 0.100 -->
      <g transform="translate(90.371875 402.032702)scale(0.1 -0.1)">
       <use xlink:href="#DejaVuSans-30"/>
       <use x="63.623047" xlink:href="#DejaVuSans-2e"/>
       <use x="95.410156" xlink:href="#DejaVuSans-31"/>
       <use x="159.033203" xlink:href="#DejaVuSans-30"/>
       <use x="222.65625" xlink:href="#DejaVuSans-30"/>
      </g>
     </g>
    </g>
    <g id="ytick_22">
     <g id="line2d_43">
      <g>
       <use style="stroke:#000000;stroke-width:0.8;" x="126" xlink:href="#mfe0094db20" y="371.922763"/>
      </g>
     </g>
     <g id="text_26">
      <!-- 0.125 -->
      <g transform="translate(90.371875 375.721981)scale(0.1 -0.1)">
       <use xlink:href="#DejaVuSans-30"/>
       <use x="63.623047" xlink:href="#DejaVuSans-2e"/>
       <use x="95.410156" xlink:href="#DejaVuSans-31"/>
       <use x="159.033203" xlink:href="#DejaVuSans-32"/>
       <use x="222.65625" xlink:href="#DejaVuSans-35"/>
      </g>
     </g>
    </g>
    <g id="ytick_23">
     <g id="line2d_44">
      <g>
       <use style="stroke:#000000;stroke-width:0.8;" x="126" xlink:href="#mfe0094db20" y="345.612042"/>
      </g>
     </g>
     <g id="text_27">
      <!-- 0.150 -->
      <g transform="translate(90.371875 349.411261)scale(0.1 -0.1)">
       <use xlink:href="#DejaVuSans-30"/>
       <use x="63.623047" xlink:href="#DejaVuSans-2e"/>
       <use x="95.410156" xlink:href="#DejaVuSans-31"/>
       <use x="159.033203" xlink:href="#DejaVuSans-35"/>
       <use x="222.65625" xlink:href="#DejaVuSans-30"/>
      </g>
     </g>
    </g>
    <g id="ytick_24">
     <g id="line2d_45">
      <g>
       <use style="stroke:#000000;stroke-width:0.8;" x="126" xlink:href="#mfe0094db20" y="319.301322"/>
      </g>
     </g>
     <g id="text_28">
      <!-- 0.175 -->
      <g transform="translate(90.371875 323.100541)scale(0.1 -0.1)">
       <use xlink:href="#DejaVuSans-30"/>
       <use x="63.623047" xlink:href="#DejaVuSans-2e"/>
       <use x="95.410156" xlink:href="#DejaVuSans-31"/>
       <use x="159.033203" xlink:href="#DejaVuSans-37"/>
       <use x="222.65625" xlink:href="#DejaVuSans-35"/>
      </g>
     </g>
    </g>
    <g id="text_29">
     <!-- Density -->
     <g transform="translate(84.292187 430.848594)rotate(-90)scale(0.1 -0.1)">
      <use xlink:href="#DejaVuSans-44"/>
      <use x="77.001953" xlink:href="#DejaVuSans-65"/>
      <use x="138.525391" xlink:href="#DejaVuSans-6e"/>
      <use x="201.904297" xlink:href="#DejaVuSans-73"/>
      <use x="254.003906" xlink:href="#DejaVuSans-69"/>
      <use x="281.787109" xlink:href="#DejaVuSans-74"/>
      <use x="320.996094" xlink:href="#DejaVuSans-79"/>
     </g>
    </g>
   </g>
   <g id="line2d_46">
    <path clip-path="url(#pe7d6d204cf)" d="M 142.140496 462.559628 
L 142.786762 462.724022 
L 143.433028 463.213251 
L 144.079294 464.015617 
L 144.72556 465.112139 
L 145.694959 467.251097 
L 146.987492 470.851182 
L 148.92629 477.22579 
L 151.834487 486.937381 
L 153.450153 491.55158 
L 154.742685 494.623818 
L 156.035217 497.112827 
L 157.327749 499.046996 
L 158.620281 500.490998 
L 159.912814 501.528018 
L 161.205346 502.24511 
L 162.497878 502.722936 
L 164.113543 503.086656 
L 166.375475 503.334065 
L 169.929938 503.452425 
L 181.239595 503.476347 
L 323.418137 503.374622 
L 326.972601 503.143319 
L 329.557665 502.783464 
L 331.819596 502.265918 
L 334.081528 501.505902 
L 336.020326 500.629493 
L 337.959124 499.521279 
L 339.897923 498.155496 
L 341.836721 496.495373 
L 343.452386 494.849159 
L 345.068052 492.922585 
L 346.683717 490.672738 
L 348.299382 488.059626 
L 349.915047 485.054171 
L 351.853846 480.916208 
L 353.792644 476.223798 
L 356.054575 470.139531 
L 358.63964 462.538873 
L 361.224704 454.302772 
L 363.486635 446.359418 
L 365.425434 438.6384 
L 367.041099 431.255002 
L 368.656764 422.768612 
L 370.272429 413.037795 
L 372.211228 399.743246 
L 374.796292 379.998016 
L 378.350756 352.731984 
L 379.966421 341.965097 
L 381.258953 334.656907 
L 382.551485 328.743678 
L 383.520885 325.306296 
L 384.490284 322.75404 
L 385.13655 321.545435 
L 385.782816 320.725543 
L 386.429082 320.285225 
L 387.075348 320.212055 
L 387.721614 320.490871 
L 388.36788 321.104337 
L 389.014146 322.033499 
L 389.983546 323.975175 
L 390.952945 326.512439 
L 392.245477 330.703295 
L 393.538009 335.678547 
L 395.153674 342.801734 
L 397.092473 352.415286 
L 399.354404 364.800255 
L 402.262601 382.14486 
L 411.310327 437.620453 
L 413.572258 449.406904 
L 415.511057 458.417832 
L 417.449855 466.43287 
L 419.388653 473.514747 
L 421.327451 479.731651 
L 423.26625 485.130193 
L 424.881915 489.019203 
L 426.49758 492.359229 
L 428.113245 495.158546 
L 429.405778 497.021592 
L 430.69831 498.568764 
L 431.990842 499.824669 
L 433.283374 500.819766 
L 434.89904 501.749501 
L 436.514705 502.395883 
L 438.453503 502.892176 
L 440.715434 503.211769 
L 443.946765 503.402497 
L 450.086293 503.472353 
L 464.950413 503.476363 
L 464.950413 503.476363 
" style="fill:none;stroke:#ff0000;stroke-linecap:square;"/>
   </g>
   <g id="line2d_47">
    <path clip-path="url(#pe7d6d204cf)" d="M 142.140496 426.838532 
L 142.786762 427.000769 
L 143.433028 427.485425 
L 144.079294 428.286369 
L 144.72556 429.393528 
L 145.694959 431.597269 
L 146.664359 434.397367 
L 147.956891 438.92658 
L 149.572556 445.569931 
L 152.15762 457.415835 
L 155.388951 472.023097 
L 157.327749 479.698138 
L 158.943414 485.183318 
L 160.235947 488.925521 
L 161.528479 492.096752 
L 162.821011 494.726447 
L 164.113543 496.86155 
L 165.406075 498.559723 
L 166.698608 499.883369 
L 167.99114 500.894806 
L 169.283672 501.652702 
L 170.899337 502.323127 
L 172.838136 502.833822 
L 175.100067 503.166899 
L 178.331398 503.376772 
L 183.824659 503.464999 
L 210.967836 503.476364 
L 280.441441 503.368256 
L 288.842901 503.09166 
L 296.921227 502.590369 
L 307.261485 501.705638 
L 313.724146 500.973918 
L 317.278609 500.371984 
L 319.863674 499.739182 
L 322.125605 498.973394 
L 324.064403 498.101249 
L 326.003202 496.974127 
L 327.618867 495.798305 
L 329.234532 494.369388 
L 330.850197 492.650133 
L 332.465863 490.602366 
L 334.081528 488.187787 
L 335.697193 485.3692 
L 337.312858 482.112338 
L 338.928524 478.388324 
L 340.867322 473.274933 
L 342.80612 467.448209 
L 344.744918 460.929685 
L 347.00685 452.535569 
L 349.915047 440.776205 
L 357.993374 407.367641 
L 360.255305 399.327869 
L 362.194103 393.333051 
L 363.809768 389.074741 
L 365.102301 386.1936 
L 366.394833 383.803047 
L 367.687365 381.91733 
L 368.656764 380.839282 
L 369.626163 380.050868 
L 370.595563 379.551517 
L 371.564962 379.339087 
L 372.534361 379.409973 
L 373.50376 379.759208 
L 374.473159 380.380549 
L 375.442558 381.266545 
L 376.411957 382.408603 
L 377.70449 384.312792 
L 378.997022 386.629127 
L 380.612687 390.060068 
L 382.228352 394.027874 
L 384.167151 399.402482 
L 386.429082 406.360128 
L 389.337279 416.074568 
L 400.323803 453.677946 
L 402.908868 461.456835 
L 405.493932 468.53321 
L 407.755863 474.103271 
L 410.017795 479.076192 
L 411.956593 482.863803 
L 413.895391 486.221383 
L 415.83419 489.162739 
L 417.772988 491.706532 
L 419.711786 493.875758 
L 421.650584 495.697366 
L 423.589383 497.201835 
L 425.528181 498.422619 
L 427.466979 499.395369 
L 429.728911 500.2659 
L 431.990842 500.907158 
L 434.89904 501.482925 
L 438.453503 501.942408 
L 444.269898 502.428739 
L 453.96389 503.002708 
L 462.365349 503.281246 
L 464.950413 503.330181 
L 464.950413 503.330181 
" style="fill:none;stroke:#000000;stroke-linecap:square;"/>
   </g>
   <g id="line2d_48">
    <path clip-path="url(#pe7d6d204cf)" d="M 142.140496 446.122196 
L 142.786762 446.281563 
L 143.433028 446.757012 
L 144.079294 447.540661 
L 144.72556 448.619613 
L 145.694959 450.752171 
L 146.664359 453.432383 
L 147.956891 457.695703 
L 149.895689 465.056937 
L 154.096419 481.346466 
L 155.712084 486.663302 
L 157.004616 490.314879 
L 158.297148 493.400194 
L 159.589681 495.932069 
L 160.882213 497.952101 
L 162.174745 499.520306 
L 163.467277 500.705703 
L 164.759809 501.578624 
L 166.052342 502.205138 
L 167.668007 502.729725 
L 169.606805 503.099802 
L 172.19187 503.336523 
L 176.392599 503.453239 
L 189.964187 503.47635 
L 285.61157 503.366562 
L 305.322686 502.903894 
L 309.523416 502.576196 
L 313.401013 502.057182 
L 317.278609 501.308287 
L 320.833073 500.389908 
L 323.74127 499.414354 
L 326.326335 498.30268 
L 328.588266 497.068739 
L 330.527064 495.757521 
L 332.465863 494.153402 
L 334.081528 492.547118 
L 335.697193 490.652401 
L 337.312858 488.425149 
L 338.928524 485.81894 
L 340.544189 482.786726 
L 342.159854 479.28352 
L 343.775519 475.27016 
L 345.391185 470.718013 
L 347.329983 464.527506 
L 349.268781 457.56177 
L 351.530713 448.552599 
L 354.43891 435.910134 
L 361.87097 402.922731 
L 364.132901 394.166404 
L 366.0717 387.553824 
L 367.687365 382.761122 
L 369.30303 378.661985 
L 370.595563 375.893103 
L 371.888095 373.578363 
L 373.180627 371.712989 
L 374.473159 370.289755 
L 375.442558 369.507965 
L 376.411957 368.968095 
L 377.381357 368.66848 
L 378.350756 368.608573 
L 379.320155 368.789 
L 380.289554 369.211465 
L 381.258953 369.87848 
L 382.228352 370.792963 
L 383.197751 371.957709 
L 384.490284 373.903402 
L 385.782816 376.29842 
L 387.075348 379.136874 
L 388.691013 383.285285 
L 390.306679 388.052558 
L 392.245477 394.484255 
L 394.507408 402.757408 
L 398.061872 416.750111 
L 404.847666 443.6056 
L 408.078996 455.388972 
L 410.664061 464.048302 
L 412.925992 470.953203 
L 415.187923 477.153031 
L 417.126722 481.864778 
L 419.06552 486.0007 
L 421.004318 489.559026 
L 422.619984 492.093518 
L 424.235649 494.254749 
L 425.851314 496.067768 
L 427.466979 497.564056 
L 429.082645 498.779987 
L 430.69831 499.754819 
L 432.637108 500.66236 
L 434.89904 501.441208 
L 437.484104 502.068984 
L 440.715434 502.599291 
L 444.593031 503.006434 
L 449.440027 503.292471 
L 455.902688 503.440146 
L 464.950413 503.474741 
L 464.950413 503.474741 
" style="fill:none;stroke:#0000ff;stroke-linecap:square;"/>
   </g>
   <g id="patch_17">
    <path d="M 126 512.64 
L 126 311.04 
" style="fill:none;stroke:#000000;stroke-linecap:square;stroke-linejoin:miter;stroke-width:0.8;"/>
   </g>
   <g id="patch_18">
    <path d="M 481.090909 512.64 
L 481.090909 311.04 
" style="fill:none;stroke:#000000;stroke-linecap:square;stroke-linejoin:miter;stroke-width:0.8;"/>
   </g>
   <g id="patch_19">
    <path d="M 126 512.64 
L 481.090909 512.64 
" style="fill:none;stroke:#000000;stroke-linecap:square;stroke-linejoin:miter;stroke-width:0.8;"/>
   </g>
   <g id="patch_20">
    <path d="M 126 311.04 
L 481.090909 311.04 
" style="fill:none;stroke:#000000;stroke-linecap:square;stroke-linejoin:miter;stroke-width:0.8;"/>
   </g>
   <g id="text_30">
    <!-- male B -->
    <g transform="translate(282.642017 305.04)scale(0.12 -0.12)">
     <use xlink:href="#DejaVuSans-6d"/>
     <use x="97.412109" xlink:href="#DejaVuSans-61"/>
     <use x="158.691406" xlink:href="#DejaVuSans-6c"/>
     <use x="186.474609" xlink:href="#DejaVuSans-65"/>
     <use x="247.998047" xlink:href="#DejaVuSans-20"/>
     <use x="279.785156" xlink:href="#DejaVuSans-42"/>
    </g>
   </g>
  </g>
  <g id="axes_4">
   <g id="patch_21">
    <path d="M 552.109091 512.64 
L 907.2 512.64 
L 907.2 311.04 
L 552.109091 311.04 
z
" style="fill:#ffffff;"/>
   </g>
   <g id="matplotlib.axis_7">
    <g id="xtick_16">
     <g id="line2d_49">
      <g>
       <use style="stroke:#000000;stroke-width:0.8;" x="568.249587" xlink:href="#m421be1afe9" y="512.64"/>
      </g>
     </g>
     <g id="text_31">
      <!-- 0 -->
      <g transform="translate(565.068337 527.238438)scale(0.1 -0.1)">
       <use xlink:href="#DejaVuSans-30"/>
      </g>
     </g>
    </g>
    <g id="xtick_17">
     <g id="line2d_50">
      <g>
       <use style="stroke:#000000;stroke-width:0.8;" x="645.775824" xlink:href="#m421be1afe9" y="512.64"/>
      </g>
     </g>
     <g id="text_32">
      <!-- 10 -->
      <g transform="translate(639.413324 527.238438)scale(0.1 -0.1)">
       <use xlink:href="#DejaVuSans-31"/>
       <use x="63.623047" xlink:href="#DejaVuSans-30"/>
      </g>
     </g>
    </g>
    <g id="xtick_18">
     <g id="line2d_51">
      <g>
       <use style="stroke:#000000;stroke-width:0.8;" x="723.302061" xlink:href="#m421be1afe9" y="512.64"/>
      </g>
     </g>
     <g id="text_33">
      <!-- 20 -->
      <g transform="translate(716.939561 527.238438)scale(0.1 -0.1)">
       <use xlink:href="#DejaVuSans-32"/>
       <use x="63.623047" xlink:href="#DejaVuSans-30"/>
      </g>
     </g>
    </g>
    <g id="xtick_19">
     <g id="line2d_52">
      <g>
       <use style="stroke:#000000;stroke-width:0.8;" x="800.828298" xlink:href="#m421be1afe9" y="512.64"/>
      </g>
     </g>
     <g id="text_34">
      <!-- 30 -->
      <g transform="translate(794.465798 527.238438)scale(0.1 -0.1)">
       <use xlink:href="#DejaVuSans-33"/>
       <use x="63.623047" xlink:href="#DejaVuSans-30"/>
      </g>
     </g>
    </g>
    <g id="xtick_20">
     <g id="line2d_53">
      <g>
       <use style="stroke:#000000;stroke-width:0.8;" x="878.354535" xlink:href="#m421be1afe9" y="512.64"/>
      </g>
     </g>
     <g id="text_35">
      <!-- 40 -->
      <g transform="translate(871.992035 527.238438)scale(0.1 -0.1)">
       <use xlink:href="#DejaVuSans-34"/>
       <use x="63.623047" xlink:href="#DejaVuSans-30"/>
      </g>
     </g>
    </g>
    <g id="text_36">
     <!-- $\log_2($protein abundance$)$ -->
     <g transform="translate(668.404545 540.918125)scale(0.1 -0.1)">
      <use transform="translate(0 0.015625)" xlink:href="#DejaVuSans-6c"/>
      <use transform="translate(27.783203 0.015625)" xlink:href="#DejaVuSans-6f"/>
      <use transform="translate(88.964844 0.015625)" xlink:href="#DejaVuSans-67"/>
      <use transform="translate(153.398438 -16.390625)scale(0.7)" xlink:href="#DejaVuSans-32"/>
      <use transform="translate(200.668945 0.015625)" xlink:href="#DejaVuSans-28"/>
      <use transform="translate(239.682617 0.015625)" xlink:href="#DejaVuSans-70"/>
      <use transform="translate(303.15918 0.015625)" xlink:href="#DejaVuSans-72"/>
      <use transform="translate(344.272461 0.015625)" xlink:href="#DejaVuSans-6f"/>
      <use transform="translate(405.454102 0.015625)" xlink:href="#DejaVuSans-74"/>
      <use transform="translate(444.663086 0.015625)" xlink:href="#DejaVuSans-65"/>
      <use transform="translate(506.186523 0.015625)" xlink:href="#DejaVuSans-69"/>
      <use transform="translate(533.969727 0.015625)" xlink:href="#DejaVuSans-6e"/>
      <use transform="translate(597.348633 0.015625)" xlink:href="#DejaVuSans-20"/>
      <use transform="translate(629.135742 0.015625)" xlink:href="#DejaVuSans-61"/>
      <use transform="translate(690.415039 0.015625)" xlink:href="#DejaVuSans-62"/>
      <use transform="translate(753.891602 0.015625)" xlink:href="#DejaVuSans-75"/>
      <use transform="translate(817.270508 0.015625)" xlink:href="#DejaVuSans-6e"/>
      <use transform="translate(880.649414 0.015625)" xlink:href="#DejaVuSans-64"/>
      <use transform="translate(944.125977 0.015625)" xlink:href="#DejaVuSans-61"/>
      <use transform="translate(1005.405273 0.015625)" xlink:href="#DejaVuSans-6e"/>
      <use transform="translate(1068.78418 0.015625)" xlink:href="#DejaVuSans-63"/>
      <use transform="translate(1123.764648 0.015625)" xlink:href="#DejaVuSans-65"/>
      <use transform="translate(1185.288086 0.015625)" xlink:href="#DejaVuSans-29"/>
     </g>
    </g>
   </g>
   <g id="matplotlib.axis_8">
    <g id="ytick_25">
     <g id="line2d_54">
      <g>
       <use style="stroke:#000000;stroke-width:0.8;" x="552.109091" xlink:href="#mfe0094db20" y="503.476364"/>
      </g>
     </g>
    </g>
    <g id="ytick_26">
     <g id="line2d_55">
      <g>
       <use style="stroke:#000000;stroke-width:0.8;" x="552.109091" xlink:href="#mfe0094db20" y="477.165643"/>
      </g>
     </g>
    </g>
    <g id="ytick_27">
     <g id="line2d_56">
      <g>
       <use style="stroke:#000000;stroke-width:0.8;" x="552.109091" xlink:href="#mfe0094db20" y="450.854923"/>
      </g>
     </g>
    </g>
    <g id="ytick_28">
     <g id="line2d_57">
      <g>
       <use style="stroke:#000000;stroke-width:0.8;" x="552.109091" xlink:href="#mfe0094db20" y="424.544203"/>
      </g>
     </g>
    </g>
    <g id="ytick_29">
     <g id="line2d_58">
      <g>
       <use style="stroke:#000000;stroke-width:0.8;" x="552.109091" xlink:href="#mfe0094db20" y="398.233483"/>
      </g>
     </g>
    </g>
    <g id="ytick_30">
     <g id="line2d_59">
      <g>
       <use style="stroke:#000000;stroke-width:0.8;" x="552.109091" xlink:href="#mfe0094db20" y="371.922763"/>
      </g>
     </g>
    </g>
    <g id="ytick_31">
     <g id="line2d_60">
      <g>
       <use style="stroke:#000000;stroke-width:0.8;" x="552.109091" xlink:href="#mfe0094db20" y="345.612042"/>
      </g>
     </g>
    </g>
    <g id="ytick_32">
     <g id="line2d_61">
      <g>
       <use style="stroke:#000000;stroke-width:0.8;" x="552.109091" xlink:href="#mfe0094db20" y="319.301322"/>
      </g>
     </g>
    </g>
   </g>
   <g id="line2d_62">
    <path clip-path="url(#pe3a46716a0)" d="M 568.249587 458.051259 
L 568.895853 458.21235 
L 569.542119 458.692205 
L 570.188385 459.480684 
L 570.834651 460.561288 
L 571.80405 462.679774 
L 573.096583 466.27927 
L 574.712248 471.633797 
L 579.23611 487.205748 
L 580.851776 491.710704 
L 582.144308 494.68411 
L 583.43684 497.090184 
L 584.729372 498.967791 
L 586.021905 500.382552 
L 587.314437 501.412858 
L 588.606969 502.138615 
L 589.899501 502.633417 
L 591.515166 503.021664 
L 593.777098 503.298528 
L 597.008428 503.436368 
L 605.086755 503.475923 
L 748.880962 503.407025 
L 752.758559 503.202717 
L 755.343623 502.869975 
L 757.605554 502.348599 
L 759.544353 501.658362 
L 761.160018 500.867762 
L 762.775683 499.85122 
L 764.391348 498.588629 
L 766.007014 497.068768 
L 767.945812 494.899503 
L 769.88461 492.34812 
L 771.823409 489.393408 
L 773.762207 485.980505 
L 775.377872 482.718182 
L 776.993537 478.99811 
L 778.609203 474.741496 
L 780.224868 469.877761 
L 781.840533 464.357572 
L 783.779331 456.841682 
L 785.71813 448.379837 
L 787.980061 437.416348 
L 790.565125 423.653318 
L 793.473323 406.925759 
L 801.874782 357.511771 
L 803.490447 349.747384 
L 804.78298 344.471302 
L 806.075512 340.183316 
L 807.044911 337.680906 
L 808.01431 335.82185 
L 808.660576 334.945983 
L 809.306842 334.360427 
L 809.953108 334.061228 
L 810.599375 334.041528 
L 811.245641 334.291876 
L 811.891907 334.800614 
L 812.538173 335.554318 
L 813.507572 337.111785 
L 814.476971 339.134733 
L 815.769503 342.465446 
L 817.062036 346.415538 
L 818.677701 352.083033 
L 820.616499 359.797742 
L 822.555297 368.419315 
L 824.817229 379.59062 
L 827.07916 391.889952 
L 830.310491 410.836261 
L 834.188087 433.488446 
L 836.450019 445.370815 
L 838.388817 454.332316 
L 840.004482 460.886421 
L 841.620147 466.671408 
L 843.558946 472.759381 
L 845.497744 478.121416 
L 847.759675 483.680329 
L 850.021607 488.591935 
L 851.960405 492.265191 
L 853.57607 494.904481 
L 855.191736 497.131294 
L 856.807401 498.939528 
L 858.423066 500.348385 
L 860.038731 501.399632 
L 861.654397 502.150034 
L 863.270062 502.662165 
L 865.20886 503.046471 
L 867.793925 503.30893 
L 871.671521 503.442991 
L 881.688646 503.476194 
L 891.059504 503.476363 
L 891.059504 503.476363 
" style="fill:none;stroke:#ff0000;stroke-linecap:square;"/>
   </g>
   <g id="line2d_63">
    <path clip-path="url(#pe3a46716a0)" d="M 568.249587 383.106642 
L 568.895853 383.296319 
L 569.542119 383.863556 
L 570.188385 384.803009 
L 570.834651 386.10586 
L 571.80405 388.714063 
L 572.773449 392.057813 
L 574.065982 397.541007 
L 575.358514 404.017105 
L 577.297312 415.111776 
L 580.851776 437.393821 
L 583.759973 454.945394 
L 585.698771 465.349564 
L 587.314437 472.963059 
L 588.930102 479.532901 
L 590.545767 485.054926 
L 591.838299 488.750908 
L 593.130832 491.85292 
L 594.423364 494.416498 
L 595.715896 496.503205 
L 597.008428 498.17658 
L 598.30096 499.498887 
L 599.593493 500.528699 
L 600.886025 501.319269 
L 602.50169 502.04202 
L 604.440488 502.619931 
L 606.70242 503.023648 
L 609.610617 503.287914 
L 614.13448 503.433904 
L 624.797871 503.475677 
L 707.519932 503.391907 
L 717.860189 503.139272 
L 729.816112 502.603865 
L 736.601906 502.117881 
L 740.479503 501.636158 
L 743.710833 501.009513 
L 746.295898 500.28963 
L 748.557829 499.44857 
L 750.81976 498.362105 
L 752.758559 497.19723 
L 754.697357 495.780928 
L 756.636155 494.0781 
L 758.574953 492.053699 
L 760.513752 489.67438 
L 762.45255 486.910665 
L 764.391348 483.739547 
L 766.330147 480.147396 
L 768.592078 475.423538 
L 770.854009 470.149863 
L 773.439074 463.524383 
L 776.670404 454.56056 
L 785.071864 430.821341 
L 787.333795 425.246441 
L 789.272593 421.033743 
L 790.888259 418.005213 
L 792.503924 415.472526 
L 793.796456 413.833342 
L 795.088988 412.557573 
L 796.058387 411.847256 
L 797.027786 411.352514 
L 797.997186 411.075531 
L 798.966585 411.016948 
L 799.935984 411.175877 
L 800.905383 411.549934 
L 801.874782 412.135282 
L 803.167314 413.235192 
L 804.459847 414.685277 
L 805.752379 416.465734 
L 807.368044 419.120293 
L 808.983709 422.203115 
L 810.922508 426.387239 
L 813.184439 431.803085 
L 816.415769 440.208186 
L 825.463495 464.172934 
L 828.371692 471.026227 
L 830.956757 476.516712 
L 833.218688 480.807358 
L 835.480619 484.603177 
L 837.419418 487.466918 
L 839.358216 489.984574 
L 841.297014 492.176256 
L 843.235813 494.066715 
L 845.174611 495.683362 
L 847.436542 497.261205 
L 849.698474 498.549209 
L 851.960405 499.58915 
L 854.545469 500.52298 
L 857.453667 501.310005 
L 860.684997 501.932279 
L 864.562594 502.430016 
L 869.40959 502.81482 
L 876.84165 503.153083 
L 887.181908 503.389587 
L 891.059504 503.430895 
L 891.059504 503.430895 
" style="fill:none;stroke:#000000;stroke-linecap:square;"/>
   </g>
   <g id="line2d_64">
    <path clip-path="url(#pe3a46716a0)" d="M 568.249587 423.933876 
L 568.895853 424.087607 
L 569.542119 424.54702 
L 570.188385 425.306809 
L 570.834651 426.358241 
L 571.80405 428.455161 
L 572.773449 431.127647 
L 574.065982 435.470652 
L 575.681647 441.889702 
L 577.943578 452.005568 
L 582.144308 470.950375 
L 584.083106 478.571336 
L 585.698771 484.06236 
L 587.314437 488.704303 
L 588.606969 491.809871 
L 589.899501 494.404047 
L 591.192033 496.529725 
L 592.484566 498.239035 
L 593.777098 499.588387 
L 595.06963 500.634416 
L 596.362162 501.430922 
L 597.977827 502.149583 
L 599.593493 502.636306 
L 601.532291 503.00619 
L 604.117355 503.270933 
L 607.994952 503.423535 
L 616.719544 503.474869 
L 726.261648 503.43367 
L 734.016842 503.247523 
L 738.863837 502.929819 
L 742.741434 502.462406 
L 745.972765 501.849446 
L 748.557829 501.153078 
L 750.81976 500.344354 
L 753.081692 499.297447 
L 755.02049 498.164456 
L 756.959288 496.766601 
L 758.898087 495.053384 
L 760.513752 493.345652 
L 762.129417 491.348894 
L 763.745082 489.031531 
L 765.360748 486.364397 
L 766.976413 483.322663 
L 768.915211 479.152679 
L 770.854009 474.401456 
L 772.792808 469.074989 
L 775.054739 462.17628 
L 777.639803 453.508685 
L 780.871134 441.822425 
L 788.94946 412.157468 
L 791.534525 403.735988 
L 793.473323 398.086319 
L 795.412121 393.132561 
L 797.027786 389.610056 
L 798.320319 387.227871 
L 799.612851 385.26087 
L 800.905383 383.732158 
L 801.874782 382.885503 
L 802.844181 382.303984 
L 803.813581 381.993465 
L 804.78298 381.958299 
L 805.752379 382.201159 
L 806.721778 382.72288 
L 807.691177 383.522346 
L 808.660576 384.5964 
L 809.953108 386.446267 
L 811.245641 388.756654 
L 812.538173 391.503204 
L 814.153838 395.503323 
L 816.092636 401.041135 
L 818.354568 408.340464 
L 820.939632 417.484407 
L 826.756027 439.227859 
L 829.987358 450.802913 
L 832.572422 459.303556 
L 834.834353 466.029608 
L 837.096285 472.029969 
L 839.035083 476.591964 
L 840.973881 480.640489 
L 842.91268 484.212726 
L 844.851478 487.352353 
L 846.790276 490.102711 
L 848.729075 492.502214 
L 850.667873 494.582439 
L 852.606671 496.368651 
L 854.545469 497.881984 
L 856.484268 499.142255 
L 858.423066 500.170451 
L 860.684997 501.108396 
L 862.946929 501.805129 
L 865.531993 502.364452 
L 868.763324 502.805193 
L 872.964053 503.115646 
L 879.426714 503.331507 
L 890.736371 503.457305 
L 891.059504 503.458632 
L 891.059504 503.458632 
" style="fill:none;stroke:#0000ff;stroke-linecap:square;"/>
   </g>
   <g id="patch_22">
    <path d="M 552.109091 512.64 
L 552.109091 311.04 
" style="fill:none;stroke:#000000;stroke-linecap:square;stroke-linejoin:miter;stroke-width:0.8;"/>
   </g>
   <g id="patch_23">
    <path d="M 907.2 512.64 
L 907.2 311.04 
" style="fill:none;stroke:#000000;stroke-linecap:square;stroke-linejoin:miter;stroke-width:0.8;"/>
   </g>
   <g id="patch_24">
    <path d="M 552.109091 512.64 
L 907.2 512.64 
" style="fill:none;stroke:#000000;stroke-linecap:square;stroke-linejoin:miter;stroke-width:0.8;"/>
   </g>
   <g id="patch_25">
    <path d="M 552.109091 311.04 
L 907.2 311.04 
" style="fill:none;stroke:#000000;stroke-linecap:square;stroke-linejoin:miter;stroke-width:0.8;"/>
   </g>
   <g id="text_37">
    <!-- male T -->
    <g transform="translate(709.202983 305.04)scale(0.12 -0.12)">
     <use xlink:href="#DejaVuSans-6d"/>
     <use x="97.412109" xlink:href="#DejaVuSans-61"/>
     <use x="158.691406" xlink:href="#DejaVuSans-6c"/>
     <use x="186.474609" xlink:href="#DejaVuSans-65"/>
     <use x="247.998047" xlink:href="#DejaVuSans-20"/>
     <use x="279.785156" xlink:href="#DejaVuSans-54"/>
    </g>
   </g>
  </g>
 </g>
 <defs>
  <clipPath id="p63cd75d858">
   <rect height="201.6" width="355.090909" x="126" y="69.12"/>
  </clipPath>
  <clipPath id="pd560071379">
   <rect height="201.6" width="355.090909" x="552.109091" y="69.12"/>
  </clipPath>
  <clipPath id="pe7d6d204cf">
   <rect height="201.6" width="355.090909" x="126" y="311.04"/>
  </clipPath>
  <clipPath id="pe3a46716a0">
   <rect height="201.6" width="355.090909" x="552.109091" y="311.04"/>
  </clipPath>
 </defs>
</svg>
