<?xml version="1.0" encoding="utf-8" standalone="no"?>
<!DOCTYPE svg PUBLIC "-//W3C//DTD SVG 1.1//EN"
  "http://www.w3.org/Graphics/SVG/1.1/DTD/svg11.dtd">
<!-- Created with matplotlib (http://matplotlib.org/) -->
<svg height="720pt" version="1.1" viewBox="0 0 720 720" width="720pt" xmlns="http://www.w3.org/2000/svg" xmlns:xlink="http://www.w3.org/1999/xlink">
 <defs>
  <style type="text/css">
*{stroke-linecap:butt;stroke-linejoin:round;}
  </style>
 </defs>
 <g id="figure_1">
  <g id="patch_1">
   <path d="M 0 720 
L 720 720 
L 720 0 
L 0 0 
z
" style="fill:#ffffff;"/>
  </g>
  <g id="axes_1">
   <g id="patch_2">
    <path d="M 90 640.8 
L 648 640.8 
L 648 86.4 
L 90 86.4 
z
" style="fill:#ffffff;"/>
   </g>
   <g id="PathCollection_1">
    <defs>
     <path d="M 0 1.224745 
C 0.324806 1.224745 0.636353 1.095698 0.866025 0.866025 
C 1.095698 0.636353 1.224745 0.324806 1.224745 0 
C 1.224745 -0.324806 1.095698 -0.636353 0.866025 -0.866025 
C 0.636353 -1.095698 0.324806 -1.224745 0 -1.224745 
C -0.324806 -1.224745 -0.636353 -1.095698 -0.866025 -0.866025 
C -1.095698 -0.636353 -1.224745 -0.324806 -1.224745 0 
C -1.224745 0.324806 -1.095698 0.636353 -0.866025 0.866025 
C -0.636353 1.095698 -0.324806 1.224745 0 1.224745 
z
" id="m24539bdf87"/>
    </defs>
    <g clip-path="url(#p6409cfb342)">
     <use style="fill:#bcbddc;fill-opacity:0.6;" x="214.073315" xlink:href="#m24539bdf87" y="472.820183"/>
     <use style="fill:#bcbddc;fill-opacity:0.6;" x="364.110506" xlink:href="#m24539bdf87" y="400.694679"/>
     <use style="fill:#bcbddc;fill-opacity:0.6;" x="364.110506" xlink:href="#m24539bdf87" y="550.456299"/>
     <use style="fill:#bcbddc;fill-opacity:0.6;" x="174.16093" xlink:href="#m24539bdf87" y="297.920211"/>
     <use style="fill:#bcbddc;fill-opacity:0.6;" x="243.730764" xlink:href="#m24539bdf87" y="533.95553"/>
     <use style="fill:#bcbddc;fill-opacity:0.6;" x="218.005366" xlink:href="#m24539bdf87" y="508.136575"/>
     <use style="fill:#bcbddc;fill-opacity:0.6;" x="204.342032" xlink:href="#m24539bdf87" y="476.213221"/>
     <use style="fill:#bcbddc;fill-opacity:0.6;" x="182.585702" xlink:href="#m24539bdf87" y="164.230854"/>
     <use style="fill:#bcbddc;fill-opacity:0.6;" x="512.169676" xlink:href="#m24539bdf87" y="476.413795"/>
     <use style="fill:#bcbddc;fill-opacity:0.6;" x="212.905704" xlink:href="#m24539bdf87" y="422.401502"/>
     <use style="fill:#bcbddc;fill-opacity:0.6;" x="424.271648" xlink:href="#m24539bdf87" y="471.169871"/>
     <use style="fill:#bcbddc;fill-opacity:0.6;" x="230.299444" xlink:href="#m24539bdf87" y="511.070808"/>
     <use style="fill:#bcbddc;fill-opacity:0.6;" x="230.299444" xlink:href="#m24539bdf87" y="486.969331"/>
     <use style="fill:#bcbddc;fill-opacity:0.6;" x="267.870576" xlink:href="#m24539bdf87" y="563.884363"/>
     <use style="fill:#bcbddc;fill-opacity:0.6;" x="229.527342" xlink:href="#m24539bdf87" y="414.85786"/>
     <use style="fill:#bcbddc;fill-opacity:0.6;" x="327.788983" xlink:href="#m24539bdf87" y="338.52524"/>
     <use style="fill:#bcbddc;fill-opacity:0.6;" x="288.395913" xlink:href="#m24539bdf87" y="401.155528"/>
     <use style="fill:#bcbddc;fill-opacity:0.6;" x="193.904529" xlink:href="#m24539bdf87" y="485.32968"/>
     <use style="fill:#bcbddc;fill-opacity:0.6;" x="193.904529" xlink:href="#m24539bdf87" y="417.983433"/>
     <use style="fill:#bcbddc;fill-opacity:0.6;" x="334.057063" xlink:href="#m24539bdf87" y="332.217845"/>
     <use style="fill:#bcbddc;fill-opacity:0.6;" x="334.057063" xlink:href="#m24539bdf87" y="449.863765"/>
     <use style="fill:#bcbddc;fill-opacity:0.6;" x="191.120418" xlink:href="#m24539bdf87" y="332.217845"/>
     <use style="fill:#bcbddc;fill-opacity:0.6;" x="191.120418" xlink:href="#m24539bdf87" y="449.863765"/>
    </g>
   </g>
   <g id="PathCollection_2">
    <defs>
     <path d="M 0 1.224745 
C 0.324806 1.224745 0.636353 1.095698 0.866025 0.866025 
C 1.095698 0.636353 1.224745 0.324806 1.224745 0 
C 1.224745 -0.324806 1.095698 -0.636353 0.866025 -0.866025 
C 0.636353 -1.095698 0.324806 -1.224745 0 -1.224745 
C -0.324806 -1.224745 -0.636353 -1.095698 -0.866025 -0.866025 
C -1.095698 -0.636353 -1.224745 -0.324806 -1.224745 0 
C -1.224745 0.324806 -1.095698 0.636353 -0.866025 0.866025 
C -0.636353 1.095698 -0.324806 1.224745 0 1.224745 
z
" id="m54b5eeb246"/>
    </defs>
    <g clip-path="url(#p6409cfb342)">
     <use style="fill:#9e9ac8;fill-opacity:0.6;" x="261.191223" xlink:href="#m54b5eeb246" y="529.100628"/>
     <use style="fill:#9e9ac8;fill-opacity:0.6;" x="190.09421" xlink:href="#m54b5eeb246" y="495.910181"/>
     <use style="fill:#9e9ac8;fill-opacity:0.6;" x="383.790274" xlink:href="#m54b5eeb246" y="403.689185"/>
     <use style="fill:#9e9ac8;fill-opacity:0.6;" x="197.647921" xlink:href="#m54b5eeb246" y="309.192389"/>
     <use style="fill:#9e9ac8;fill-opacity:0.6;" x="228.637105" xlink:href="#m54b5eeb246" y="251.591471"/>
     <use style="fill:#9e9ac8;fill-opacity:0.6;" x="207.266762" xlink:href="#m54b5eeb246" y="530.322159"/>
     <use style="fill:#9e9ac8;fill-opacity:0.6;" x="219.999055" xlink:href="#m54b5eeb246" y="551.762865"/>
     <use style="fill:#9e9ac8;fill-opacity:0.6;" x="197.664514" xlink:href="#m54b5eeb246" y="471.910848"/>
     <use style="fill:#9e9ac8;fill-opacity:0.6;" x="172.577179" xlink:href="#m54b5eeb246" y="412.057067"/>
     <use style="fill:#9e9ac8;fill-opacity:0.6;" x="503.588685" xlink:href="#m54b5eeb246" y="465.660724"/>
     <use style="fill:#9e9ac8;fill-opacity:0.6;" x="416.868212" xlink:href="#m54b5eeb246" y="455.186896"/>
     <use style="fill:#9e9ac8;fill-opacity:0.6;" x="217.800186" xlink:href="#m54b5eeb246" y="552.240096"/>
     <use style="fill:#9e9ac8;fill-opacity:0.6;" x="217.800186" xlink:href="#m54b5eeb246" y="535.987868"/>
     <use style="fill:#9e9ac8;fill-opacity:0.6;" x="383.823621" xlink:href="#m54b5eeb246" y="310.643034"/>
     <use style="fill:#9e9ac8;fill-opacity:0.6;" x="185.120392" xlink:href="#m54b5eeb246" y="364.113415"/>
     <use style="fill:#9e9ac8;fill-opacity:0.6;" x="239.256169" xlink:href="#m54b5eeb246" y="384.402867"/>
     <use style="fill:#9e9ac8;fill-opacity:0.6;" x="355.916391" xlink:href="#m54b5eeb246" y="332.159842"/>
     <use style="fill:#9e9ac8;fill-opacity:0.6;" x="355.916391" xlink:href="#m54b5eeb246" y="446.621585"/>
     <use style="fill:#9e9ac8;fill-opacity:0.6;" x="178.847373" xlink:href="#m54b5eeb246" y="332.159842"/>
     <use style="fill:#9e9ac8;fill-opacity:0.6;" x="178.847373" xlink:href="#m54b5eeb246" y="446.621585"/>
    </g>
   </g>
   <g id="PathCollection_3">
    <defs>
     <path d="M 0 1.224745 
C 0.324806 1.224745 0.636353 1.095698 0.866025 0.866025 
C 1.095698 0.636353 1.224745 0.324806 1.224745 0 
C 1.224745 -0.324806 1.095698 -0.636353 0.866025 -0.866025 
C 0.636353 -1.095698 0.324806 -1.224745 0 -1.224745 
C -0.324806 -1.224745 -0.636353 -1.095698 -0.866025 -0.866025 
C -1.095698 -0.636353 -1.224745 -0.324806 -1.224745 0 
C -1.224745 0.324806 -1.095698 0.636353 -0.866025 0.866025 
C -0.636353 1.095698 -0.324806 1.224745 0 1.224745 
z
" id="mbc91d89fd9"/>
    </defs>
    <g clip-path="url(#p6409cfb342)">
     <use style="fill:#756bb1;fill-opacity:0.6;" x="236.359807" xlink:href="#mbc91d89fd9" y="561.257953"/>
     <use style="fill:#756bb1;fill-opacity:0.6;" x="189.476605" xlink:href="#mbc91d89fd9" y="529.032046"/>
     <use style="fill:#756bb1;fill-opacity:0.6;" x="374.911224" xlink:href="#mbc91d89fd9" y="364.135734"/>
     <use style="fill:#756bb1;fill-opacity:0.6;" x="374.911224" xlink:href="#mbc91d89fd9" y="563.656809"/>
     <use style="fill:#756bb1;fill-opacity:0.6;" x="269.072709" xlink:href="#mbc91d89fd9" y="283.687658"/>
     <use style="fill:#756bb1;fill-opacity:0.6;" x="274.377067" xlink:href="#mbc91d89fd9" y="225.307266"/>
     <use style="fill:#756bb1;fill-opacity:0.6;" x="202.333566" xlink:href="#mbc91d89fd9" y="506.477087"/>
     <use style="fill:#756bb1;fill-opacity:0.6;" x="221.919206" xlink:href="#mbc91d89fd9" y="490.943384"/>
     <use style="fill:#756bb1;fill-opacity:0.6;" x="209.998483" xlink:href="#mbc91d89fd9" y="560.899858"/>
     <use style="fill:#756bb1;fill-opacity:0.6;" x="227.723851" xlink:href="#mbc91d89fd9" y="449.311227"/>
     <use style="fill:#756bb1;fill-opacity:0.6;" x="214.120735" xlink:href="#mbc91d89fd9" y="128.185937"/>
     <use style="fill:#756bb1;fill-opacity:0.6;" x="200.479405" xlink:href="#mbc91d89fd9" y="388.542102"/>
     <use style="fill:#756bb1;fill-opacity:0.6;" x="530.774125" xlink:href="#mbc91d89fd9" y="485.357672"/>
     <use style="fill:#756bb1;fill-opacity:0.6;" x="433.148924" xlink:href="#mbc91d89fd9" y="450.533346"/>
     <use style="fill:#756bb1;fill-opacity:0.6;" x="218.384928" xlink:href="#mbc91d89fd9" y="486.009785"/>
     <use style="fill:#756bb1;fill-opacity:0.6;" x="218.384928" xlink:href="#mbc91d89fd9" y="538.736579"/>
     <use style="fill:#756bb1;fill-opacity:0.6;" x="189.010288" xlink:href="#mbc91d89fd9" y="543.740611"/>
     <use style="fill:#756bb1;fill-opacity:0.6;" x="309.210563" xlink:href="#mbc91d89fd9" y="313.112834"/>
     <use style="fill:#756bb1;fill-opacity:0.6;" x="215.364407" xlink:href="#mbc91d89fd9" y="331.973005"/>
     <use style="fill:#756bb1;fill-opacity:0.6;" x="169.455427" xlink:href="#mbc91d89fd9" y="363.615756"/>
     <use style="fill:#756bb1;fill-opacity:0.6;" x="169.455427" xlink:href="#mbc91d89fd9" y="395.52138"/>
     <use style="fill:#756bb1;fill-opacity:0.6;" x="222.36919" xlink:href="#mbc91d89fd9" y="338.213924"/>
     <use style="fill:#756bb1;fill-opacity:0.6;" x="176.883931" xlink:href="#mbc91d89fd9" y="425.88029"/>
     <use style="fill:#756bb1;fill-opacity:0.6;" x="176.883931" xlink:href="#mbc91d89fd9" y="418.100131"/>
     <use style="fill:#756bb1;fill-opacity:0.6;" x="380.666248" xlink:href="#mbc91d89fd9" y="278.5672"/>
     <use style="fill:#756bb1;fill-opacity:0.6;" x="380.666248" xlink:href="#mbc91d89fd9" y="472.864193"/>
    </g>
   </g>
   <g id="PathCollection_4">
    <defs>
     <path d="M 0 1.224745 
C 0.324806 1.224745 0.636353 1.095698 0.866025 0.866025 
C 1.095698 0.636353 1.224745 0.324806 1.224745 0 
C 1.224745 -0.324806 1.095698 -0.636353 0.866025 -0.866025 
C 0.636353 -1.095698 0.324806 -1.224745 0 -1.224745 
C -0.324806 -1.224745 -0.636353 -1.095698 -0.866025 -0.866025 
C -1.095698 -0.636353 -1.224745 -0.324806 -1.224745 0 
C -1.224745 0.324806 -1.095698 0.636353 -0.866025 0.866025 
C -0.636353 1.095698 -0.324806 1.224745 0 1.224745 
z
" id="m186666fe62"/>
    </defs>
    <g clip-path="url(#p6409cfb342)">
     <use style="fill:#a1d99b;fill-opacity:0.6;" x="263.337921" xlink:href="#m186666fe62" y="496.287168"/>
     <use style="fill:#a1d99b;fill-opacity:0.6;" x="208.635785" xlink:href="#m186666fe62" y="525.648071"/>
     <use style="fill:#a1d99b;fill-opacity:0.6;" x="371.189345" xlink:href="#m186666fe62" y="406.704019"/>
     <use style="fill:#a1d99b;fill-opacity:0.6;" x="371.189345" xlink:href="#m186666fe62" y="559.024052"/>
     <use style="fill:#a1d99b;fill-opacity:0.6;" x="193.755193" xlink:href="#m186666fe62" y="286.704917"/>
     <use style="fill:#a1d99b;fill-opacity:0.6;" x="242.984895" xlink:href="#m186666fe62" y="514.55559"/>
     <use style="fill:#a1d99b;fill-opacity:0.6;" x="218.814497" xlink:href="#m186666fe62" y="480.125202"/>
     <use style="fill:#a1d99b;fill-opacity:0.6;" x="214.01306" xlink:href="#m186666fe62" y="552.846858"/>
     <use style="fill:#a1d99b;fill-opacity:0.6;" x="202.092004" xlink:href="#m186666fe62" y="469.192424"/>
     <use style="fill:#a1d99b;fill-opacity:0.6;" x="214.956743" xlink:href="#m186666fe62" y="150.074878"/>
     <use style="fill:#a1d99b;fill-opacity:0.6;" x="509.000953" xlink:href="#m186666fe62" y="461.180187"/>
     <use style="fill:#a1d99b;fill-opacity:0.6;" x="436.605243" xlink:href="#m186666fe62" y="451.341706"/>
     <use style="fill:#a1d99b;fill-opacity:0.6;" x="228.038542" xlink:href="#m186666fe62" y="526.02272"/>
     <use style="fill:#a1d99b;fill-opacity:0.6;" x="228.038542" xlink:href="#m186666fe62" y="534.538138"/>
     <use style="fill:#a1d99b;fill-opacity:0.6;" x="186.967307" xlink:href="#m186666fe62" y="539.848769"/>
     <use style="fill:#a1d99b;fill-opacity:0.6;" x="180.243143" xlink:href="#m186666fe62" y="401.553184"/>
     <use style="fill:#a1d99b;fill-opacity:0.6;" x="361.02394" xlink:href="#m186666fe62" y="308.55755"/>
     <use style="fill:#a1d99b;fill-opacity:0.6;" x="171.483489" xlink:href="#m186666fe62" y="341.609338"/>
     <use style="fill:#a1d99b;fill-opacity:0.6;" x="168.133998" xlink:href="#m186666fe62" y="385.516014"/>
     <use style="fill:#a1d99b;fill-opacity:0.6;" x="168.133998" xlink:href="#m186666fe62" y="414.434921"/>
     <use style="fill:#a1d99b;fill-opacity:0.6;" x="243.086256" xlink:href="#m186666fe62" y="381.71899"/>
     <use style="fill:#a1d99b;fill-opacity:0.6;" x="189.007638" xlink:href="#m186666fe62" y="467.426464"/>
     <use style="fill:#a1d99b;fill-opacity:0.6;" x="189.007638" xlink:href="#m186666fe62" y="409.087537"/>
     <use style="fill:#a1d99b;fill-opacity:0.6;" x="357.846308" xlink:href="#m186666fe62" y="324.046428"/>
     <use style="fill:#a1d99b;fill-opacity:0.6;" x="357.846308" xlink:href="#m186666fe62" y="453.192886"/>
    </g>
   </g>
   <g id="PathCollection_5">
    <defs>
     <path d="M 0 1.224745 
C 0.324806 1.224745 0.636353 1.095698 0.866025 0.866025 
C 1.095698 0.636353 1.224745 0.324806 1.224745 0 
C 1.224745 -0.324806 1.095698 -0.636353 0.866025 -0.866025 
C 0.636353 -1.095698 0.324806 -1.224745 0 -1.224745 
C -0.324806 -1.224745 -0.636353 -1.095698 -0.866025 -0.866025 
C -1.095698 -0.636353 -1.224745 -0.324806 -1.224745 0 
C -1.224745 0.324806 -1.095698 0.636353 -0.866025 0.866025 
C -0.636353 1.095698 -0.324806 1.224745 0 1.224745 
z
" id="m1dee5165b3"/>
    </defs>
    <g clip-path="url(#p6409cfb342)">
     <use style="fill:#74c476;fill-opacity:0.6;" x="238.884545" xlink:href="#m1dee5165b3" y="540.174302"/>
     <use style="fill:#74c476;fill-opacity:0.6;" x="167.196928" xlink:href="#m1dee5165b3" y="479.464653"/>
     <use style="fill:#74c476;fill-opacity:0.6;" x="373.55352" xlink:href="#m1dee5165b3" y="408.82496"/>
     <use style="fill:#74c476;fill-opacity:0.6;" x="373.55352" xlink:href="#m1dee5165b3" y="542.197489"/>
     <use style="fill:#74c476;fill-opacity:0.6;" x="219.985928" xlink:href="#m1dee5165b3" y="304.186128"/>
     <use style="fill:#74c476;fill-opacity:0.6;" x="180.07493" xlink:href="#m1dee5165b3" y="249.165952"/>
     <use style="fill:#74c476;fill-opacity:0.6;" x="205.237916" xlink:href="#m1dee5165b3" y="537.59119"/>
     <use style="fill:#74c476;fill-opacity:0.6;" x="220.999285" xlink:href="#m1dee5165b3" y="541.198495"/>
     <use style="fill:#74c476;fill-opacity:0.6;" x="206.243996" xlink:href="#m1dee5165b3" y="481.224701"/>
     <use style="fill:#74c476;fill-opacity:0.6;" x="171.959053" xlink:href="#m1dee5165b3" y="431.26608"/>
     <use style="fill:#74c476;fill-opacity:0.6;" x="513.190651" xlink:href="#m1dee5165b3" y="481.561486"/>
     <use style="fill:#74c476;fill-opacity:0.6;" x="415.912867" xlink:href="#m1dee5165b3" y="474.851738"/>
     <use style="fill:#74c476;fill-opacity:0.6;" x="204.626496" xlink:href="#m1dee5165b3" y="534.28313"/>
     <use style="fill:#74c476;fill-opacity:0.6;" x="204.626496" xlink:href="#m1dee5165b3" y="536.558054"/>
     <use style="fill:#74c476;fill-opacity:0.6;" x="369.581529" xlink:href="#m1dee5165b3" y="316.345241"/>
     <use style="fill:#74c476;fill-opacity:0.6;" x="188.512004" xlink:href="#m1dee5165b3" y="371.738325"/>
     <use style="fill:#74c476;fill-opacity:0.6;" x="209.868713" xlink:href="#m1dee5165b3" y="382.651112"/>
     <use style="fill:#74c476;fill-opacity:0.6;" x="335.336878" xlink:href="#m1dee5165b3" y="312.735555"/>
     <use style="fill:#74c476;fill-opacity:0.6;" x="335.336878" xlink:href="#m1dee5165b3" y="516.985746"/>
    </g>
   </g>
   <g id="PathCollection_6">
    <defs>
     <path d="M 0 1.224745 
C 0.324806 1.224745 0.636353 1.095698 0.866025 0.866025 
C 1.095698 0.636353 1.224745 0.324806 1.224745 0 
C 1.224745 -0.324806 1.095698 -0.636353 0.866025 -0.866025 
C 0.636353 -1.095698 0.324806 -1.224745 0 -1.224745 
C -0.324806 -1.224745 -0.636353 -1.095698 -0.866025 -0.866025 
C -1.095698 -0.636353 -1.224745 -0.324806 -1.224745 0 
C -1.224745 0.324806 -1.095698 0.636353 -0.866025 0.866025 
C -0.636353 1.095698 -0.324806 1.224745 0 1.224745 
z
" id="mdb1a3e3e0b"/>
    </defs>
    <g clip-path="url(#p6409cfb342)">
     <use style="fill:#31a354;fill-opacity:0.6;" x="242.185921" xlink:href="#mdb1a3e3e0b" y="501.868475"/>
     <use style="fill:#31a354;fill-opacity:0.6;" x="188.207122" xlink:href="#mdb1a3e3e0b" y="480.943323"/>
     <use style="fill:#31a354;fill-opacity:0.6;" x="389.652943" xlink:href="#mdb1a3e3e0b" y="363.882523"/>
     <use style="fill:#31a354;fill-opacity:0.6;" x="225.804564" xlink:href="#mdb1a3e3e0b" y="284.264603"/>
     <use style="fill:#31a354;fill-opacity:0.6;" x="190.388648" xlink:href="#mdb1a3e3e0b" y="502.315779"/>
     <use style="fill:#31a354;fill-opacity:0.6;" x="221.481089" xlink:href="#mdb1a3e3e0b" y="531.290794"/>
     <use style="fill:#31a354;fill-opacity:0.6;" x="212.316194" xlink:href="#mdb1a3e3e0b" y="455.287692"/>
     <use style="fill:#31a354;fill-opacity:0.6;" x="176.201888" xlink:href="#mdb1a3e3e0b" y="122.885296"/>
     <use style="fill:#31a354;fill-opacity:0.6;" x="193.560885" xlink:href="#mdb1a3e3e0b" y="397.513754"/>
     <use style="fill:#31a354;fill-opacity:0.6;" x="529.651708" xlink:href="#mdb1a3e3e0b" y="503.794224"/>
     <use style="fill:#31a354;fill-opacity:0.6;" x="435.500845" xlink:href="#mdb1a3e3e0b" y="456.45106"/>
     <use style="fill:#31a354;fill-opacity:0.6;" x="214.507363" xlink:href="#mdb1a3e3e0b" y="511.388667"/>
     <use style="fill:#31a354;fill-opacity:0.6;" x="214.507363" xlink:href="#mdb1a3e3e0b" y="502.856785"/>
     <use style="fill:#31a354;fill-opacity:0.6;" x="356.908021" xlink:href="#mdb1a3e3e0b" y="302.999829"/>
     <use style="fill:#31a354;fill-opacity:0.6;" x="210.695361" xlink:href="#mdb1a3e3e0b" y="330.660895"/>
     <use style="fill:#31a354;fill-opacity:0.6;" x="236.209746" xlink:href="#mdb1a3e3e0b" y="348.128141"/>
     <use style="fill:#31a354;fill-opacity:0.6;" x="369.033972" xlink:href="#mdb1a3e3e0b" y="278.634005"/>
     <use style="fill:#31a354;fill-opacity:0.6;" x="369.033972" xlink:href="#mdb1a3e3e0b" y="431.428778"/>
    </g>
   </g>
   <g id="PathCollection_7">
    <defs>
     <path d="M 0 1.224745 
C 0.324806 1.224745 0.636353 1.095698 0.866025 0.866025 
C 1.095698 0.636353 1.224745 0.324806 1.224745 0 
C 1.224745 -0.324806 1.095698 -0.636353 0.866025 -0.866025 
C 0.636353 -1.095698 0.324806 -1.224745 0 -1.224745 
C -0.324806 -1.224745 -0.636353 -1.095698 -0.866025 -0.866025 
C -1.095698 -0.636353 -1.224745 -0.324806 -1.224745 0 
C -1.224745 0.324806 -1.095698 0.636353 -0.866025 0.866025 
C -0.636353 1.095698 -0.324806 1.224745 0 1.224745 
z
" id="m16314644c0"/>
    </defs>
    <g clip-path="url(#p6409cfb342)">
     <use style="fill:#fdae6b;fill-opacity:0.6;" x="257.412248" xlink:href="#m16314644c0" y="465.684803"/>
     <use style="fill:#fdae6b;fill-opacity:0.6;" x="336.84967" xlink:href="#m16314644c0" y="401.296085"/>
     <use style="fill:#fdae6b;fill-opacity:0.6;" x="169.697692" xlink:href="#m16314644c0" y="273.56879"/>
     <use style="fill:#fdae6b;fill-opacity:0.6;" x="227.22147" xlink:href="#m16314644c0" y="536.63408"/>
     <use style="fill:#fdae6b;fill-opacity:0.6;" x="202.286817" xlink:href="#m16314644c0" y="528.136239"/>
     <use style="fill:#fdae6b;fill-opacity:0.6;" x="173.828614" xlink:href="#m16314644c0" y="459.461158"/>
     <use style="fill:#fdae6b;fill-opacity:0.6;" x="467.574807" xlink:href="#m16314644c0" y="450.441897"/>
     <use style="fill:#fdae6b;fill-opacity:0.6;" x="431.562667" xlink:href="#m16314644c0" y="456.220146"/>
     <use style="fill:#fdae6b;fill-opacity:0.6;" x="208.926474" xlink:href="#m16314644c0" y="508.024318"/>
     <use style="fill:#fdae6b;fill-opacity:0.6;" x="208.926474" xlink:href="#m16314644c0" y="508.59667"/>
     <use style="fill:#fdae6b;fill-opacity:0.6;" x="233.777969" xlink:href="#m16314644c0" y="540.922343"/>
     <use style="fill:#fdae6b;fill-opacity:0.6;" x="199.031423" xlink:href="#m16314644c0" y="393.580212"/>
     <use style="fill:#fdae6b;fill-opacity:0.6;" x="262.012536" xlink:href="#m16314644c0" y="387.043211"/>
     <use style="fill:#fdae6b;fill-opacity:0.6;" x="262.012536" xlink:href="#m16314644c0" y="406.930192"/>
     <use style="fill:#fdae6b;fill-opacity:0.6;" x="593.383456" xlink:href="#m16314644c0" y="241.882916"/>
     <use style="fill:#fdae6b;fill-opacity:0.6;" x="314.058549" xlink:href="#m16314644c0" y="322.482554"/>
     <use style="fill:#fdae6b;fill-opacity:0.6;" x="314.058549" xlink:href="#m16314644c0" y="488.050246"/>
    </g>
   </g>
   <g id="PathCollection_8">
    <defs>
     <path d="M 0 1.224745 
C 0.324806 1.224745 0.636353 1.095698 0.866025 0.866025 
C 1.095698 0.636353 1.224745 0.324806 1.224745 0 
C 1.224745 -0.324806 1.095698 -0.636353 0.866025 -0.866025 
C 0.636353 -1.095698 0.324806 -1.224745 0 -1.224745 
C -0.324806 -1.224745 -0.636353 -1.095698 -0.866025 -0.866025 
C -1.095698 -0.636353 -1.224745 -0.324806 -1.224745 0 
C -1.224745 0.324806 -1.095698 0.636353 -0.866025 0.866025 
C -0.636353 1.095698 -0.324806 1.224745 0 1.224745 
z
" id="m5ca17aa2a5"/>
    </defs>
    <g clip-path="url(#p6409cfb342)">
     <use style="fill:#fd8d3c;fill-opacity:0.6;" x="206.29137" xlink:href="#m5ca17aa2a5" y="536.217221"/>
     <use style="fill:#fd8d3c;fill-opacity:0.6;" x="303.351447" xlink:href="#m5ca17aa2a5" y="449.816513"/>
     <use style="fill:#fd8d3c;fill-opacity:0.6;" x="326.009154" xlink:href="#m5ca17aa2a5" y="403.554839"/>
     <use style="fill:#fd8d3c;fill-opacity:0.6;" x="326.009154" xlink:href="#m5ca17aa2a5" y="525.776048"/>
     <use style="fill:#fd8d3c;fill-opacity:0.6;" x="220.045257" xlink:href="#m5ca17aa2a5" y="284.771525"/>
     <use style="fill:#fd8d3c;fill-opacity:0.6;" x="198.139645" xlink:href="#m5ca17aa2a5" y="524.842889"/>
     <use style="fill:#fd8d3c;fill-opacity:0.6;" x="209.548548" xlink:href="#m5ca17aa2a5" y="540.324616"/>
     <use style="fill:#fd8d3c;fill-opacity:0.6;" x="225.416542" xlink:href="#m5ca17aa2a5" y="533.553697"/>
     <use style="fill:#fd8d3c;fill-opacity:0.6;" x="182.997405" xlink:href="#m5ca17aa2a5" y="452.474334"/>
     <use style="fill:#fd8d3c;fill-opacity:0.6;" x="518.204852" xlink:href="#m5ca17aa2a5" y="487.357697"/>
     <use style="fill:#fd8d3c;fill-opacity:0.6;" x="441.77985" xlink:href="#m5ca17aa2a5" y="448.236869"/>
     <use style="fill:#fd8d3c;fill-opacity:0.6;" x="200.999505" xlink:href="#m5ca17aa2a5" y="333.551029"/>
     <use style="fill:#fd8d3c;fill-opacity:0.6;" x="206.335565" xlink:href="#m5ca17aa2a5" y="521.986056"/>
     <use style="fill:#fd8d3c;fill-opacity:0.6;" x="206.335565" xlink:href="#m5ca17aa2a5" y="490.33026"/>
     <use style="fill:#fd8d3c;fill-opacity:0.6;" x="259.456041" xlink:href="#m5ca17aa2a5" y="520.714823"/>
     <use style="fill:#fd8d3c;fill-opacity:0.6;" x="178.900416" xlink:href="#m5ca17aa2a5" y="392.421981"/>
     <use style="fill:#fd8d3c;fill-opacity:0.6;" x="278.330145" xlink:href="#m5ca17aa2a5" y="417.385616"/>
     <use style="fill:#fd8d3c;fill-opacity:0.6;" x="278.330145" xlink:href="#m5ca17aa2a5" y="415.446082"/>
     <use style="fill:#fd8d3c;fill-opacity:0.6;" x="597.2535" xlink:href="#m5ca17aa2a5" y="255.963062"/>
     <use style="fill:#fd8d3c;fill-opacity:0.6;" x="277.165633" xlink:href="#m5ca17aa2a5" y="313.370659"/>
     <use style="fill:#fd8d3c;fill-opacity:0.6;" x="277.165633" xlink:href="#m5ca17aa2a5" y="527.358136"/>
    </g>
   </g>
   <g id="PathCollection_9">
    <defs>
     <path d="M 0 1.224745 
C 0.324806 1.224745 0.636353 1.095698 0.866025 0.866025 
C 1.095698 0.636353 1.224745 0.324806 1.224745 0 
C 1.224745 -0.324806 1.095698 -0.636353 0.866025 -0.866025 
C 0.636353 -1.095698 0.324806 -1.224745 0 -1.224745 
C -0.324806 -1.224745 -0.636353 -1.095698 -0.866025 -0.866025 
C -1.095698 -0.636353 -1.224745 -0.324806 -1.224745 0 
C -1.224745 0.324806 -1.095698 0.636353 -0.866025 0.866025 
C -0.636353 1.095698 -0.324806 1.224745 0 1.224745 
z
" id="m085bc906d0"/>
    </defs>
    <g clip-path="url(#p6409cfb342)">
     <use style="fill:#e6550d;fill-opacity:0.6;" x="231.666306" xlink:href="#m085bc906d0" y="522.917977"/>
     <use style="fill:#e6550d;fill-opacity:0.6;" x="328.423682" xlink:href="#m085bc906d0" y="473.115839"/>
     <use style="fill:#e6550d;fill-opacity:0.6;" x="358.324185" xlink:href="#m085bc906d0" y="382.394661"/>
     <use style="fill:#e6550d;fill-opacity:0.6;" x="201.435749" xlink:href="#m085bc906d0" y="479.894078"/>
     <use style="fill:#e6550d;fill-opacity:0.6;" x="204.445747" xlink:href="#m085bc906d0" y="555.380784"/>
     <use style="fill:#e6550d;fill-opacity:0.6;" x="211.03484" xlink:href="#m085bc906d0" y="548.522821"/>
     <use style="fill:#e6550d;fill-opacity:0.6;" x="177.874749" xlink:href="#m085bc906d0" y="439.335561"/>
     <use style="fill:#e6550d;fill-opacity:0.6;" x="514.141224" xlink:href="#m085bc906d0" y="443.855365"/>
     <use style="fill:#e6550d;fill-opacity:0.6;" x="459.395071" xlink:href="#m085bc906d0" y="435.465025"/>
     <use style="fill:#e6550d;fill-opacity:0.6;" x="209.993624" xlink:href="#m085bc906d0" y="296.806324"/>
     <use style="fill:#e6550d;fill-opacity:0.6;" x="213.800553" xlink:href="#m085bc906d0" y="503.031275"/>
     <use style="fill:#e6550d;fill-opacity:0.6;" x="213.800553" xlink:href="#m085bc906d0" y="483.307312"/>
     <use style="fill:#e6550d;fill-opacity:0.6;" x="177.518864" xlink:href="#m085bc906d0" y="377.37008"/>
     <use style="fill:#e6550d;fill-opacity:0.6;" x="293.506822" xlink:href="#m085bc906d0" y="431.252244"/>
     <use style="fill:#e6550d;fill-opacity:0.6;" x="293.506822" xlink:href="#m085bc906d0" y="357.740286"/>
     <use style="fill:#e6550d;fill-opacity:0.6;" x="618.110457" xlink:href="#m085bc906d0" y="215.875817"/>
     <use style="fill:#e6550d;fill-opacity:0.6;" x="313.100322" xlink:href="#m085bc906d0" y="308.56137"/>
     <use style="fill:#e6550d;fill-opacity:0.6;" x="313.100322" xlink:href="#m085bc906d0" y="424.131017"/>
    </g>
   </g>
   <g id="PathCollection_10">
    <defs>
     <path d="M 0 1.224745 
C 0.324806 1.224745 0.636353 1.095698 0.866025 0.866025 
C 1.095698 0.636353 1.224745 0.324806 1.224745 0 
C 1.224745 -0.324806 1.095698 -0.636353 0.866025 -0.866025 
C 0.636353 -1.095698 0.324806 -1.224745 0 -1.224745 
C -0.324806 -1.224745 -0.636353 -1.095698 -0.866025 -0.866025 
C -1.095698 -0.636353 -1.224745 -0.324806 -1.224745 0 
C -1.224745 0.324806 -1.095698 0.636353 -0.866025 0.866025 
C -0.636353 1.095698 -0.324806 1.224745 0 1.224745 
z
" id="m33c645d2df"/>
    </defs>
    <g clip-path="url(#p6409cfb342)">
     <use style="fill:#9ecae1;fill-opacity:0.6;" x="243.240881" xlink:href="#m33c645d2df" y="553.806751"/>
     <use style="fill:#9ecae1;fill-opacity:0.6;" x="375.196671" xlink:href="#m33c645d2df" y="466.635296"/>
     <use style="fill:#9ecae1;fill-opacity:0.6;" x="366.456474" xlink:href="#m33c645d2df" y="381.45199"/>
     <use style="fill:#9ecae1;fill-opacity:0.6;" x="366.456474" xlink:href="#m33c645d2df" y="542.051292"/>
     <use style="fill:#9ecae1;fill-opacity:0.6;" x="264.212759" xlink:href="#m33c645d2df" y="496.952564"/>
     <use style="fill:#9ecae1;fill-opacity:0.6;" x="213.42159" xlink:href="#m33c645d2df" y="482.741742"/>
     <use style="fill:#9ecae1;fill-opacity:0.6;" x="214.170748" xlink:href="#m33c645d2df" y="537.217791"/>
     <use style="fill:#9ecae1;fill-opacity:0.6;" x="194.920265" xlink:href="#m33c645d2df" y="431.75186"/>
     <use style="fill:#9ecae1;fill-opacity:0.6;" x="573.513783" xlink:href="#m33c645d2df" y="427.901661"/>
     <use style="fill:#9ecae1;fill-opacity:0.6;" x="467.818065" xlink:href="#m33c645d2df" y="421.557839"/>
     <use style="fill:#9ecae1;fill-opacity:0.6;" x="239.976693" xlink:href="#m33c645d2df" y="291.582421"/>
     <use style="fill:#9ecae1;fill-opacity:0.6;" x="242.485107" xlink:href="#m33c645d2df" y="506.274569"/>
     <use style="fill:#9ecae1;fill-opacity:0.6;" x="242.485107" xlink:href="#m33c645d2df" y="463.430534"/>
     <use style="fill:#9ecae1;fill-opacity:0.6;" x="268.76056" xlink:href="#m33c645d2df" y="506.661219"/>
     <use style="fill:#9ecae1;fill-opacity:0.6;" x="195.827025" xlink:href="#m33c645d2df" y="363.943621"/>
     <use style="fill:#9ecae1;fill-opacity:0.6;" x="290.226127" xlink:href="#m33c645d2df" y="379.053456"/>
     <use style="fill:#9ecae1;fill-opacity:0.6;" x="290.226127" xlink:href="#m33c645d2df" y="364.309315"/>
     <use style="fill:#9ecae1;fill-opacity:0.6;" x="624.288248" xlink:href="#m33c645d2df" y="209.247748"/>
     <use style="fill:#9ecae1;fill-opacity:0.6;" x="170.307583" xlink:href="#m33c645d2df" y="490.656896"/>
     <use style="fill:#9ecae1;fill-opacity:0.6;" x="170.307583" xlink:href="#m33c645d2df" y="425.596531"/>
     <use style="fill:#9ecae1;fill-opacity:0.6;" x="309.955971" xlink:href="#m33c645d2df" y="290.816404"/>
     <use style="fill:#9ecae1;fill-opacity:0.6;" x="309.955971" xlink:href="#m33c645d2df" y="492.280613"/>
    </g>
   </g>
   <g id="PathCollection_11">
    <defs>
     <path d="M 0 1.224745 
C 0.324806 1.224745 0.636353 1.095698 0.866025 0.866025 
C 1.095698 0.636353 1.224745 0.324806 1.224745 0 
C 1.224745 -0.324806 1.095698 -0.636353 0.866025 -0.866025 
C 0.636353 -1.095698 0.324806 -1.224745 0 -1.224745 
C -0.324806 -1.224745 -0.636353 -1.095698 -0.866025 -0.866025 
C -1.095698 -0.636353 -1.224745 -0.324806 -1.224745 0 
C -1.224745 0.324806 -1.095698 0.636353 -0.866025 0.866025 
C -0.636353 1.095698 -0.324806 1.224745 0 1.224745 
z
" id="m91894a936b"/>
    </defs>
    <g clip-path="url(#p6409cfb342)">
     <use style="fill:#6baed6;fill-opacity:0.6;" x="289.938643" xlink:href="#m91894a936b" y="476.941954"/>
     <use style="fill:#6baed6;fill-opacity:0.6;" x="329.722757" xlink:href="#m91894a936b" y="412.506212"/>
     <use style="fill:#6baed6;fill-opacity:0.6;" x="329.722757" xlink:href="#m91894a936b" y="553.690201"/>
     <use style="fill:#6baed6;fill-opacity:0.6;" x="219.558046" xlink:href="#m91894a936b" y="528.709398"/>
     <use style="fill:#6baed6;fill-opacity:0.6;" x="207.518021" xlink:href="#m91894a936b" y="510.103533"/>
     <use style="fill:#6baed6;fill-opacity:0.6;" x="181.083898" xlink:href="#m91894a936b" y="463.440823"/>
     <use style="fill:#6baed6;fill-opacity:0.6;" x="524.408518" xlink:href="#m91894a936b" y="465.154636"/>
     <use style="fill:#6baed6;fill-opacity:0.6;" x="419.748767" xlink:href="#m91894a936b" y="462.977792"/>
     <use style="fill:#6baed6;fill-opacity:0.6;" x="187.898198" xlink:href="#m91894a936b" y="512.986722"/>
     <use style="fill:#6baed6;fill-opacity:0.6;" x="187.898198" xlink:href="#m91894a936b" y="533.198581"/>
     <use style="fill:#6baed6;fill-opacity:0.6;" x="253.499187" xlink:href="#m91894a936b" y="544.238772"/>
     <use style="fill:#6baed6;fill-opacity:0.6;" x="174.706512" xlink:href="#m91894a936b" y="390.40211"/>
     <use style="fill:#6baed6;fill-opacity:0.6;" x="319.100846" xlink:href="#m91894a936b" y="406.647694"/>
     <use style="fill:#6baed6;fill-opacity:0.6;" x="319.100846" xlink:href="#m91894a936b" y="416.339741"/>
     <use style="fill:#6baed6;fill-opacity:0.6;" x="561.973687" xlink:href="#m91894a936b" y="248.419393"/>
     <use style="fill:#6baed6;fill-opacity:0.6;" x="333.99754" xlink:href="#m91894a936b" y="338.515195"/>
     <use style="fill:#6baed6;fill-opacity:0.6;" x="333.99754" xlink:href="#m91894a936b" y="542.895964"/>
    </g>
   </g>
   <g id="PathCollection_12">
    <defs>
     <path d="M 0 1.224745 
C 0.324806 1.224745 0.636353 1.095698 0.866025 0.866025 
C 1.095698 0.636353 1.224745 0.324806 1.224745 0 
C 1.224745 -0.324806 1.095698 -0.636353 0.866025 -0.866025 
C 0.636353 -1.095698 0.324806 -1.224745 0 -1.224745 
C -0.324806 -1.224745 -0.636353 -1.095698 -0.866025 -0.866025 
C -1.095698 -0.636353 -1.224745 -0.324806 -1.224745 0 
C -1.224745 0.324806 -1.095698 0.636353 -0.866025 0.866025 
C -0.636353 1.095698 -0.324806 1.224745 0 1.224745 
z
" id="m6a73783803"/>
    </defs>
    <g clip-path="url(#p6409cfb342)">
     <use style="fill:#3182bd;fill-opacity:0.6;" x="238.085365" xlink:href="#m6a73783803" y="548.264887"/>
     <use style="fill:#3182bd;fill-opacity:0.6;" x="331.962288" xlink:href="#m6a73783803" y="453.690929"/>
     <use style="fill:#3182bd;fill-opacity:0.6;" x="366.821699" xlink:href="#m6a73783803" y="417.184975"/>
     <use style="fill:#3182bd;fill-opacity:0.6;" x="366.821699" xlink:href="#m6a73783803" y="549.031933"/>
     <use style="fill:#3182bd;fill-opacity:0.6;" x="255.070756" xlink:href="#m6a73783803" y="538.32983"/>
     <use style="fill:#3182bd;fill-opacity:0.6;" x="218.659321" xlink:href="#m6a73783803" y="503.832246"/>
     <use style="fill:#3182bd;fill-opacity:0.6;" x="216.086542" xlink:href="#m6a73783803" y="451.683551"/>
     <use style="fill:#3182bd;fill-opacity:0.6;" x="473.046718" xlink:href="#m6a73783803" y="436.987096"/>
     <use style="fill:#3182bd;fill-opacity:0.6;" x="185.678625" xlink:href="#m6a73783803" y="443.33419"/>
     <use style="fill:#3182bd;fill-opacity:0.6;" x="456.828266" xlink:href="#m6a73783803" y="448.254537"/>
     <use style="fill:#3182bd;fill-opacity:0.6;" x="228.793329" xlink:href="#m6a73783803" y="318.145954"/>
     <use style="fill:#3182bd;fill-opacity:0.6;" x="222.281125" xlink:href="#m6a73783803" y="495.816341"/>
     <use style="fill:#3182bd;fill-opacity:0.6;" x="222.281125" xlink:href="#m6a73783803" y="563.10785"/>
     <use style="fill:#3182bd;fill-opacity:0.6;" x="313.246425" xlink:href="#m6a73783803" y="508.243984"/>
     <use style="fill:#3182bd;fill-opacity:0.6;" x="319.220371" xlink:href="#m6a73783803" y="403.491163"/>
     <use style="fill:#3182bd;fill-opacity:0.6;" x="319.220371" xlink:href="#m6a73783803" y="410.632737"/>
     <use style="fill:#3182bd;fill-opacity:0.6;" x="592.07905" xlink:href="#m6a73783803" y="245.047723"/>
     <use style="fill:#3182bd;fill-opacity:0.6;" x="279.371973" xlink:href="#m6a73783803" y="339.605744"/>
     <use style="fill:#3182bd;fill-opacity:0.6;" x="279.371973" xlink:href="#m6a73783803" y="496.56018"/>
    </g>
   </g>
   <g id="matplotlib.axis_1">
    <g id="xtick_1">
     <g id="line2d_1">
      <defs>
       <path d="M 0 0 
L 0 3.5 
" id="me067d8e929" style="stroke:#000000;stroke-width:0.8;"/>
      </defs>
      <g>
       <use style="stroke:#000000;stroke-width:0.8;" x="100.974135" xlink:href="#me067d8e929" y="640.8"/>
      </g>
     </g>
     <g id="text_1">
      <!-- 0.0 -->
      <defs>
       <path d="M 31.78125 66.40625 
Q 24.171875 66.40625 20.328125 58.90625 
Q 16.5 51.421875 16.5 36.375 
Q 16.5 21.390625 20.328125 13.890625 
Q 24.171875 6.390625 31.78125 6.390625 
Q 39.453125 6.390625 43.28125 13.890625 
Q 47.125 21.390625 47.125 36.375 
Q 47.125 51.421875 43.28125 58.90625 
Q 39.453125 66.40625 31.78125 66.40625 
z
M 31.78125 74.21875 
Q 44.046875 74.21875 50.515625 64.515625 
Q 56.984375 54.828125 56.984375 36.375 
Q 56.984375 17.96875 50.515625 8.265625 
Q 44.046875 -1.421875 31.78125 -1.421875 
Q 19.53125 -1.421875 13.0625 8.265625 
Q 6.59375 17.96875 6.59375 36.375 
Q 6.59375 54.828125 13.0625 64.515625 
Q 19.53125 74.21875 31.78125 74.21875 
z
" id="DejaVuSans-30"/>
       <path d="M 10.6875 12.40625 
L 21 12.40625 
L 21 0 
L 10.6875 0 
z
" id="DejaVuSans-2e"/>
      </defs>
      <g transform="translate(93.022573 655.398438)scale(0.1 -0.1)">
       <use xlink:href="#DejaVuSans-30"/>
       <use x="63.623047" xlink:href="#DejaVuSans-2e"/>
       <use x="95.410156" xlink:href="#DejaVuSans-30"/>
      </g>
     </g>
    </g>
    <g id="xtick_2">
     <g id="line2d_2">
      <g>
       <use style="stroke:#000000;stroke-width:0.8;" x="210.715489" xlink:href="#me067d8e929" y="640.8"/>
      </g>
     </g>
     <g id="text_2">
      <!-- 0.5 -->
      <defs>
       <path d="M 10.796875 72.90625 
L 49.515625 72.90625 
L 49.515625 64.59375 
L 19.828125 64.59375 
L 19.828125 46.734375 
Q 21.96875 47.46875 24.109375 47.828125 
Q 26.265625 48.1875 28.421875 48.1875 
Q 40.625 48.1875 47.75 41.5 
Q 54.890625 34.8125 54.890625 23.390625 
Q 54.890625 11.625 47.5625 5.09375 
Q 40.234375 -1.421875 26.90625 -1.421875 
Q 22.3125 -1.421875 17.546875 -0.640625 
Q 12.796875 0.140625 7.71875 1.703125 
L 7.71875 11.625 
Q 12.109375 9.234375 16.796875 8.0625 
Q 21.484375 6.890625 26.703125 6.890625 
Q 35.15625 6.890625 40.078125 11.328125 
Q 45.015625 15.765625 45.015625 23.390625 
Q 45.015625 31 40.078125 35.4375 
Q 35.15625 39.890625 26.703125 39.890625 
Q 22.75 39.890625 18.8125 39.015625 
Q 14.890625 38.140625 10.796875 36.28125 
z
" id="DejaVuSans-35"/>
      </defs>
      <g transform="translate(202.763926 655.398438)scale(0.1 -0.1)">
       <use xlink:href="#DejaVuSans-30"/>
       <use x="63.623047" xlink:href="#DejaVuSans-2e"/>
       <use x="95.410156" xlink:href="#DejaVuSans-35"/>
      </g>
     </g>
    </g>
    <g id="xtick_3">
     <g id="line2d_3">
      <g>
       <use style="stroke:#000000;stroke-width:0.8;" x="320.456842" xlink:href="#me067d8e929" y="640.8"/>
      </g>
     </g>
     <g id="text_3">
      <!-- 1.0 -->
      <defs>
       <path d="M 12.40625 8.296875 
L 28.515625 8.296875 
L 28.515625 63.921875 
L 10.984375 60.40625 
L 10.984375 69.390625 
L 28.421875 72.90625 
L 38.28125 72.90625 
L 38.28125 8.296875 
L 54.390625 8.296875 
L 54.390625 0 
L 12.40625 0 
z
" id="DejaVuSans-31"/>
      </defs>
      <g transform="translate(312.50528 655.398438)scale(0.1 -0.1)">
       <use xlink:href="#DejaVuSans-31"/>
       <use x="63.623047" xlink:href="#DejaVuSans-2e"/>
       <use x="95.410156" xlink:href="#DejaVuSans-30"/>
      </g>
     </g>
    </g>
    <g id="xtick_4">
     <g id="line2d_4">
      <g>
       <use style="stroke:#000000;stroke-width:0.8;" x="430.198196" xlink:href="#me067d8e929" y="640.8"/>
      </g>
     </g>
     <g id="text_4">
      <!-- 1.5 -->
      <g transform="translate(422.246633 655.398438)scale(0.1 -0.1)">
       <use xlink:href="#DejaVuSans-31"/>
       <use x="63.623047" xlink:href="#DejaVuSans-2e"/>
       <use x="95.410156" xlink:href="#DejaVuSans-35"/>
      </g>
     </g>
    </g>
    <g id="xtick_5">
     <g id="line2d_5">
      <g>
       <use style="stroke:#000000;stroke-width:0.8;" x="539.939549" xlink:href="#me067d8e929" y="640.8"/>
      </g>
     </g>
     <g id="text_5">
      <!-- 2.0 -->
      <defs>
       <path d="M 19.1875 8.296875 
L 53.609375 8.296875 
L 53.609375 0 
L 7.328125 0 
L 7.328125 8.296875 
Q 12.9375 14.109375 22.625 23.890625 
Q 32.328125 33.6875 34.8125 36.53125 
Q 39.546875 41.84375 41.421875 45.53125 
Q 43.3125 49.21875 43.3125 52.78125 
Q 43.3125 58.59375 39.234375 62.25 
Q 35.15625 65.921875 28.609375 65.921875 
Q 23.96875 65.921875 18.8125 64.3125 
Q 13.671875 62.703125 7.8125 59.421875 
L 7.8125 69.390625 
Q 13.765625 71.78125 18.9375 73 
Q 24.125 74.21875 28.421875 74.21875 
Q 39.75 74.21875 46.484375 68.546875 
Q 53.21875 62.890625 53.21875 53.421875 
Q 53.21875 48.921875 51.53125 44.890625 
Q 49.859375 40.875 45.40625 35.40625 
Q 44.1875 33.984375 37.640625 27.21875 
Q 31.109375 20.453125 19.1875 8.296875 
z
" id="DejaVuSans-32"/>
      </defs>
      <g transform="translate(531.987987 655.398438)scale(0.1 -0.1)">
       <use xlink:href="#DejaVuSans-32"/>
       <use x="63.623047" xlink:href="#DejaVuSans-2e"/>
       <use x="95.410156" xlink:href="#DejaVuSans-30"/>
      </g>
     </g>
    </g>
    <g id="text_6">
     <!-- StringTie $\log_{10}(TPM+1)$ -->
     <defs>
      <path d="M 53.515625 70.515625 
L 53.515625 60.890625 
Q 47.90625 63.578125 42.921875 64.890625 
Q 37.9375 66.21875 33.296875 66.21875 
Q 25.25 66.21875 20.875 63.09375 
Q 16.5 59.96875 16.5 54.203125 
Q 16.5 49.359375 19.40625 46.890625 
Q 22.3125 44.4375 30.421875 42.921875 
L 36.375 41.703125 
Q 47.40625 39.59375 52.65625 34.296875 
Q 57.90625 29 57.90625 20.125 
Q 57.90625 9.515625 50.796875 4.046875 
Q 43.703125 -1.421875 29.984375 -1.421875 
Q 24.8125 -1.421875 18.96875 -0.25 
Q 13.140625 0.921875 6.890625 3.21875 
L 6.890625 13.375 
Q 12.890625 10.015625 18.65625 8.296875 
Q 24.421875 6.59375 29.984375 6.59375 
Q 38.421875 6.59375 43.015625 9.90625 
Q 47.609375 13.234375 47.609375 19.390625 
Q 47.609375 24.75 44.3125 27.78125 
Q 41.015625 30.8125 33.5 32.328125 
L 27.484375 33.5 
Q 16.453125 35.6875 11.515625 40.375 
Q 6.59375 45.0625 6.59375 53.421875 
Q 6.59375 63.09375 13.40625 68.65625 
Q 20.21875 74.21875 32.171875 74.21875 
Q 37.3125 74.21875 42.625 73.28125 
Q 47.953125 72.359375 53.515625 70.515625 
z
" id="DejaVuSans-53"/>
      <path d="M 18.3125 70.21875 
L 18.3125 54.6875 
L 36.8125 54.6875 
L 36.8125 47.703125 
L 18.3125 47.703125 
L 18.3125 18.015625 
Q 18.3125 11.328125 20.140625 9.421875 
Q 21.96875 7.515625 27.59375 7.515625 
L 36.8125 7.515625 
L 36.8125 0 
L 27.59375 0 
Q 17.1875 0 13.234375 3.875 
Q 9.28125 7.765625 9.28125 18.015625 
L 9.28125 47.703125 
L 2.6875 47.703125 
L 2.6875 54.6875 
L 9.28125 54.6875 
L 9.28125 70.21875 
z
" id="DejaVuSans-74"/>
      <path d="M 41.109375 46.296875 
Q 39.59375 47.171875 37.8125 47.578125 
Q 36.03125 48 33.890625 48 
Q 26.265625 48 22.1875 43.046875 
Q 18.109375 38.09375 18.109375 28.8125 
L 18.109375 0 
L 9.078125 0 
L 9.078125 54.6875 
L 18.109375 54.6875 
L 18.109375 46.1875 
Q 20.953125 51.171875 25.484375 53.578125 
Q 30.03125 56 36.53125 56 
Q 37.453125 56 38.578125 55.875 
Q 39.703125 55.765625 41.0625 55.515625 
z
" id="DejaVuSans-72"/>
      <path d="M 9.421875 54.6875 
L 18.40625 54.6875 
L 18.40625 0 
L 9.421875 0 
z
M 9.421875 75.984375 
L 18.40625 75.984375 
L 18.40625 64.59375 
L 9.421875 64.59375 
z
" id="DejaVuSans-69"/>
      <path d="M 54.890625 33.015625 
L 54.890625 0 
L 45.90625 0 
L 45.90625 32.71875 
Q 45.90625 40.484375 42.875 44.328125 
Q 39.84375 48.1875 33.796875 48.1875 
Q 26.515625 48.1875 22.3125 43.546875 
Q 18.109375 38.921875 18.109375 30.90625 
L 18.109375 0 
L 9.078125 0 
L 9.078125 54.6875 
L 18.109375 54.6875 
L 18.109375 46.1875 
Q 21.34375 51.125 25.703125 53.5625 
Q 30.078125 56 35.796875 56 
Q 45.21875 56 50.046875 50.171875 
Q 54.890625 44.34375 54.890625 33.015625 
z
" id="DejaVuSans-6e"/>
      <path d="M 45.40625 27.984375 
Q 45.40625 37.75 41.375 43.109375 
Q 37.359375 48.484375 30.078125 48.484375 
Q 22.859375 48.484375 18.828125 43.109375 
Q 14.796875 37.75 14.796875 27.984375 
Q 14.796875 18.265625 18.828125 12.890625 
Q 22.859375 7.515625 30.078125 7.515625 
Q 37.359375 7.515625 41.375 12.890625 
Q 45.40625 18.265625 45.40625 27.984375 
z
M 54.390625 6.78125 
Q 54.390625 -7.171875 48.1875 -13.984375 
Q 42 -20.796875 29.203125 -20.796875 
Q 24.46875 -20.796875 20.265625 -20.09375 
Q 16.0625 -19.390625 12.109375 -17.921875 
L 12.109375 -9.1875 
Q 16.0625 -11.328125 19.921875 -12.34375 
Q 23.78125 -13.375 27.78125 -13.375 
Q 36.625 -13.375 41.015625 -8.765625 
Q 45.40625 -4.15625 45.40625 5.171875 
L 45.40625 9.625 
Q 42.625 4.78125 38.28125 2.390625 
Q 33.9375 0 27.875 0 
Q 17.828125 0 11.671875 7.65625 
Q 5.515625 15.328125 5.515625 27.984375 
Q 5.515625 40.671875 11.671875 48.328125 
Q 17.828125 56 27.875 56 
Q 33.9375 56 38.28125 53.609375 
Q 42.625 51.21875 45.40625 46.390625 
L 45.40625 54.6875 
L 54.390625 54.6875 
z
" id="DejaVuSans-67"/>
      <path d="M -0.296875 72.90625 
L 61.375 72.90625 
L 61.375 64.59375 
L 35.5 64.59375 
L 35.5 0 
L 25.59375 0 
L 25.59375 64.59375 
L -0.296875 64.59375 
z
" id="DejaVuSans-54"/>
      <path d="M 56.203125 29.59375 
L 56.203125 25.203125 
L 14.890625 25.203125 
Q 15.484375 15.921875 20.484375 11.0625 
Q 25.484375 6.203125 34.421875 6.203125 
Q 39.59375 6.203125 44.453125 7.46875 
Q 49.3125 8.734375 54.109375 11.28125 
L 54.109375 2.78125 
Q 49.265625 0.734375 44.1875 -0.34375 
Q 39.109375 -1.421875 33.890625 -1.421875 
Q 20.796875 -1.421875 13.15625 6.1875 
Q 5.515625 13.8125 5.515625 26.8125 
Q 5.515625 40.234375 12.765625 48.109375 
Q 20.015625 56 32.328125 56 
Q 43.359375 56 49.78125 48.890625 
Q 56.203125 41.796875 56.203125 29.59375 
z
M 47.21875 32.234375 
Q 47.125 39.59375 43.09375 43.984375 
Q 39.0625 48.390625 32.421875 48.390625 
Q 24.90625 48.390625 20.390625 44.140625 
Q 15.875 39.890625 15.1875 32.171875 
z
" id="DejaVuSans-65"/>
      <path id="DejaVuSans-20"/>
      <path d="M 9.421875 75.984375 
L 18.40625 75.984375 
L 18.40625 0 
L 9.421875 0 
z
" id="DejaVuSans-6c"/>
      <path d="M 30.609375 48.390625 
Q 23.390625 48.390625 19.1875 42.75 
Q 14.984375 37.109375 14.984375 27.296875 
Q 14.984375 17.484375 19.15625 11.84375 
Q 23.34375 6.203125 30.609375 6.203125 
Q 37.796875 6.203125 41.984375 11.859375 
Q 46.1875 17.53125 46.1875 27.296875 
Q 46.1875 37.015625 41.984375 42.703125 
Q 37.796875 48.390625 30.609375 48.390625 
z
M 30.609375 56 
Q 42.328125 56 49.015625 48.375 
Q 55.71875 40.765625 55.71875 27.296875 
Q 55.71875 13.875 49.015625 6.21875 
Q 42.328125 -1.421875 30.609375 -1.421875 
Q 18.84375 -1.421875 12.171875 6.21875 
Q 5.515625 13.875 5.515625 27.296875 
Q 5.515625 40.765625 12.171875 48.375 
Q 18.84375 56 30.609375 56 
z
" id="DejaVuSans-6f"/>
      <path d="M 31 75.875 
Q 24.46875 64.65625 21.28125 53.65625 
Q 18.109375 42.671875 18.109375 31.390625 
Q 18.109375 20.125 21.3125 9.0625 
Q 24.515625 -2 31 -13.1875 
L 23.1875 -13.1875 
Q 15.875 -1.703125 12.234375 9.375 
Q 8.59375 20.453125 8.59375 31.390625 
Q 8.59375 42.28125 12.203125 53.3125 
Q 15.828125 64.359375 23.1875 75.875 
z
" id="DejaVuSans-28"/>
      <path d="M 5.90625 72.90625 
L 67.578125 72.90625 
L 66.015625 64.59375 
L 39.984375 64.59375 
L 27.484375 0 
L 17.578125 0 
L 30.078125 64.59375 
L 4.296875 64.59375 
z
" id="DejaVuSans-Oblique-54"/>
      <path d="M 16.890625 72.90625 
L 39.703125 72.90625 
Q 49.65625 72.90625 54.875 68.265625 
Q 60.109375 63.625 60.109375 54.6875 
Q 60.109375 42.671875 52.390625 35.984375 
Q 44.671875 29.296875 30.71875 29.296875 
L 18.3125 29.296875 
L 12.59375 0 
L 2.6875 0 
z
M 25.203125 64.796875 
L 19.921875 37.40625 
L 32.328125 37.40625 
Q 40.71875 37.40625 45.203125 41.703125 
Q 49.703125 46 49.703125 54 
Q 49.703125 59.125 46.65625 61.953125 
Q 43.609375 64.796875 38.09375 64.796875 
z
" id="DejaVuSans-Oblique-50"/>
      <path d="M 16.890625 72.90625 
L 31.6875 72.90625 
L 40.1875 23.78125 
L 68.40625 72.90625 
L 83.59375 72.90625 
L 69.390625 0 
L 59.8125 0 
L 72.21875 63.921875 
L 43.609375 14.015625 
L 33.984375 14.015625 
L 24.703125 64.109375 
L 12.3125 0 
L 2.6875 0 
z
" id="DejaVuSans-Oblique-4d"/>
      <path d="M 46 62.703125 
L 46 35.5 
L 73.1875 35.5 
L 73.1875 27.203125 
L 46 27.203125 
L 46 0 
L 37.796875 0 
L 37.796875 27.203125 
L 10.59375 27.203125 
L 10.59375 35.5 
L 37.796875 35.5 
L 37.796875 62.703125 
z
" id="DejaVuSans-2b"/>
      <path d="M 8.015625 75.875 
L 15.828125 75.875 
Q 23.140625 64.359375 26.78125 53.3125 
Q 30.421875 42.28125 30.421875 31.390625 
Q 30.421875 20.453125 26.78125 9.375 
Q 23.140625 -1.703125 15.828125 -13.1875 
L 8.015625 -13.1875 
Q 14.5 -2 17.703125 9.0625 
Q 20.90625 20.125 20.90625 31.390625 
Q 20.90625 42.671875 17.703125 53.65625 
Q 14.5 64.65625 8.015625 75.875 
z
" id="DejaVuSans-29"/>
     </defs>
     <g transform="translate(309.1 669.078125)scale(0.1 -0.1)">
      <use transform="translate(0 0.015625)" xlink:href="#DejaVuSans-53"/>
      <use transform="translate(63.476562 0.015625)" xlink:href="#DejaVuSans-74"/>
      <use transform="translate(102.685547 0.015625)" xlink:href="#DejaVuSans-72"/>
      <use transform="translate(143.798828 0.015625)" xlink:href="#DejaVuSans-69"/>
      <use transform="translate(171.582031 0.015625)" xlink:href="#DejaVuSans-6e"/>
      <use transform="translate(234.960938 0.015625)" xlink:href="#DejaVuSans-67"/>
      <use transform="translate(298.4375 0.015625)" xlink:href="#DejaVuSans-54"/>
      <use transform="translate(359.521484 0.015625)" xlink:href="#DejaVuSans-69"/>
      <use transform="translate(387.304688 0.015625)" xlink:href="#DejaVuSans-65"/>
      <use transform="translate(448.828125 0.015625)" xlink:href="#DejaVuSans-20"/>
      <use transform="translate(480.615234 0.015625)" xlink:href="#DejaVuSans-6c"/>
      <use transform="translate(508.398438 0.015625)" xlink:href="#DejaVuSans-6f"/>
      <use transform="translate(569.580078 0.015625)" xlink:href="#DejaVuSans-67"/>
      <use transform="translate(634.013672 -16.390625)scale(0.7)" xlink:href="#DejaVuSans-31"/>
      <use transform="translate(678.549805 -16.390625)scale(0.7)" xlink:href="#DejaVuSans-30"/>
      <use transform="translate(725.820312 0.015625)" xlink:href="#DejaVuSans-28"/>
      <use transform="translate(764.833984 0.015625)" xlink:href="#DejaVuSans-Oblique-54"/>
      <use transform="translate(825.917969 0.015625)" xlink:href="#DejaVuSans-Oblique-50"/>
      <use transform="translate(886.220703 0.015625)" xlink:href="#DejaVuSans-Oblique-4d"/>
      <use transform="translate(991.982422 0.015625)" xlink:href="#DejaVuSans-2b"/>
      <use transform="translate(1095.253906 0.015625)" xlink:href="#DejaVuSans-31"/>
      <use transform="translate(1158.876953 0.015625)" xlink:href="#DejaVuSans-29"/>
     </g>
    </g>
   </g>
   <g id="matplotlib.axis_2">
    <g id="ytick_1">
     <g id="line2d_6">
      <defs>
       <path d="M 0 0 
L -3.5 0 
" id="m27485515d0" style="stroke:#000000;stroke-width:0.8;"/>
      </defs>
      <g>
       <use style="stroke:#000000;stroke-width:0.8;" x="90" xlink:href="#m27485515d0" y="629.896666"/>
      </g>
     </g>
     <g id="text_7">
      <!-- 0.0 -->
      <g transform="translate(67.096875 633.695884)scale(0.1 -0.1)">
       <use xlink:href="#DejaVuSans-30"/>
       <use x="63.623047" xlink:href="#DejaVuSans-2e"/>
       <use x="95.410156" xlink:href="#DejaVuSans-30"/>
      </g>
     </g>
    </g>
    <g id="ytick_2">
     <g id="line2d_7">
      <g>
       <use style="stroke:#000000;stroke-width:0.8;" x="90" xlink:href="#m27485515d0" y="520.863321"/>
      </g>
     </g>
     <g id="text_8">
      <!-- 0.5 -->
      <g transform="translate(67.096875 524.66254)scale(0.1 -0.1)">
       <use xlink:href="#DejaVuSans-30"/>
       <use x="63.623047" xlink:href="#DejaVuSans-2e"/>
       <use x="95.410156" xlink:href="#DejaVuSans-35"/>
      </g>
     </g>
    </g>
    <g id="ytick_3">
     <g id="line2d_8">
      <g>
       <use style="stroke:#000000;stroke-width:0.8;" x="90" xlink:href="#m27485515d0" y="411.829976"/>
      </g>
     </g>
     <g id="text_9">
      <!-- 1.0 -->
      <g transform="translate(67.096875 415.629195)scale(0.1 -0.1)">
       <use xlink:href="#DejaVuSans-31"/>
       <use x="63.623047" xlink:href="#DejaVuSans-2e"/>
       <use x="95.410156" xlink:href="#DejaVuSans-30"/>
      </g>
     </g>
    </g>
    <g id="ytick_4">
     <g id="line2d_9">
      <g>
       <use style="stroke:#000000;stroke-width:0.8;" x="90" xlink:href="#m27485515d0" y="302.796631"/>
      </g>
     </g>
     <g id="text_10">
      <!-- 1.5 -->
      <g transform="translate(67.096875 306.59585)scale(0.1 -0.1)">
       <use xlink:href="#DejaVuSans-31"/>
       <use x="63.623047" xlink:href="#DejaVuSans-2e"/>
       <use x="95.410156" xlink:href="#DejaVuSans-35"/>
      </g>
     </g>
    </g>
    <g id="ytick_5">
     <g id="line2d_10">
      <g>
       <use style="stroke:#000000;stroke-width:0.8;" x="90" xlink:href="#m27485515d0" y="193.763287"/>
      </g>
     </g>
     <g id="text_11">
      <!-- 2.0 -->
      <g transform="translate(67.096875 197.562505)scale(0.1 -0.1)">
       <use xlink:href="#DejaVuSans-32"/>
       <use x="63.623047" xlink:href="#DejaVuSans-2e"/>
       <use x="95.410156" xlink:href="#DejaVuSans-30"/>
      </g>
     </g>
    </g>
    <g id="text_12">
     <!-- Ensembl $\log_{10}(TPM+1)$ -->
     <defs>
      <path d="M 9.8125 72.90625 
L 55.90625 72.90625 
L 55.90625 64.59375 
L 19.671875 64.59375 
L 19.671875 43.015625 
L 54.390625 43.015625 
L 54.390625 34.71875 
L 19.671875 34.71875 
L 19.671875 8.296875 
L 56.78125 8.296875 
L 56.78125 0 
L 9.8125 0 
z
" id="DejaVuSans-45"/>
      <path d="M 44.28125 53.078125 
L 44.28125 44.578125 
Q 40.484375 46.53125 36.375 47.5 
Q 32.28125 48.484375 27.875 48.484375 
Q 21.1875 48.484375 17.84375 46.4375 
Q 14.5 44.390625 14.5 40.28125 
Q 14.5 37.15625 16.890625 35.375 
Q 19.28125 33.59375 26.515625 31.984375 
L 29.59375 31.296875 
Q 39.15625 29.25 43.1875 25.515625 
Q 47.21875 21.78125 47.21875 15.09375 
Q 47.21875 7.46875 41.1875 3.015625 
Q 35.15625 -1.421875 24.609375 -1.421875 
Q 20.21875 -1.421875 15.453125 -0.5625 
Q 10.6875 0.296875 5.421875 2 
L 5.421875 11.28125 
Q 10.40625 8.6875 15.234375 7.390625 
Q 20.0625 6.109375 24.8125 6.109375 
Q 31.15625 6.109375 34.5625 8.28125 
Q 37.984375 10.453125 37.984375 14.40625 
Q 37.984375 18.0625 35.515625 20.015625 
Q 33.0625 21.96875 24.703125 23.78125 
L 21.578125 24.515625 
Q 13.234375 26.265625 9.515625 29.90625 
Q 5.8125 33.546875 5.8125 39.890625 
Q 5.8125 47.609375 11.28125 51.796875 
Q 16.75 56 26.8125 56 
Q 31.78125 56 36.171875 55.265625 
Q 40.578125 54.546875 44.28125 53.078125 
z
" id="DejaVuSans-73"/>
      <path d="M 52 44.1875 
Q 55.375 50.25 60.0625 53.125 
Q 64.75 56 71.09375 56 
Q 79.640625 56 84.28125 50.015625 
Q 88.921875 44.046875 88.921875 33.015625 
L 88.921875 0 
L 79.890625 0 
L 79.890625 32.71875 
Q 79.890625 40.578125 77.09375 44.375 
Q 74.3125 48.1875 68.609375 48.1875 
Q 61.625 48.1875 57.5625 43.546875 
Q 53.515625 38.921875 53.515625 30.90625 
L 53.515625 0 
L 44.484375 0 
L 44.484375 32.71875 
Q 44.484375 40.625 41.703125 44.40625 
Q 38.921875 48.1875 33.109375 48.1875 
Q 26.21875 48.1875 22.15625 43.53125 
Q 18.109375 38.875 18.109375 30.90625 
L 18.109375 0 
L 9.078125 0 
L 9.078125 54.6875 
L 18.109375 54.6875 
L 18.109375 46.1875 
Q 21.1875 51.21875 25.484375 53.609375 
Q 29.78125 56 35.6875 56 
Q 41.65625 56 45.828125 52.96875 
Q 50 49.953125 52 44.1875 
z
" id="DejaVuSans-6d"/>
      <path d="M 48.6875 27.296875 
Q 48.6875 37.203125 44.609375 42.84375 
Q 40.53125 48.484375 33.40625 48.484375 
Q 26.265625 48.484375 22.1875 42.84375 
Q 18.109375 37.203125 18.109375 27.296875 
Q 18.109375 17.390625 22.1875 11.75 
Q 26.265625 6.109375 33.40625 6.109375 
Q 40.53125 6.109375 44.609375 11.75 
Q 48.6875 17.390625 48.6875 27.296875 
z
M 18.109375 46.390625 
Q 20.953125 51.265625 25.265625 53.625 
Q 29.59375 56 35.59375 56 
Q 45.5625 56 51.78125 48.09375 
Q 58.015625 40.1875 58.015625 27.296875 
Q 58.015625 14.40625 51.78125 6.484375 
Q 45.5625 -1.421875 35.59375 -1.421875 
Q 29.59375 -1.421875 25.265625 0.953125 
Q 20.953125 3.328125 18.109375 8.203125 
L 18.109375 0 
L 9.078125 0 
L 9.078125 75.984375 
L 18.109375 75.984375 
z
" id="DejaVuSans-62"/>
     </defs>
     <g transform="translate(60.996875 422.5)rotate(-90)scale(0.1 -0.1)">
      <use transform="translate(0 0.015625)" xlink:href="#DejaVuSans-45"/>
      <use transform="translate(63.183594 0.015625)" xlink:href="#DejaVuSans-6e"/>
      <use transform="translate(126.5625 0.015625)" xlink:href="#DejaVuSans-73"/>
      <use transform="translate(178.662109 0.015625)" xlink:href="#DejaVuSans-65"/>
      <use transform="translate(240.185547 0.015625)" xlink:href="#DejaVuSans-6d"/>
      <use transform="translate(337.597656 0.015625)" xlink:href="#DejaVuSans-62"/>
      <use transform="translate(401.074219 0.015625)" xlink:href="#DejaVuSans-6c"/>
      <use transform="translate(428.857422 0.015625)" xlink:href="#DejaVuSans-20"/>
      <use transform="translate(460.644531 0.015625)" xlink:href="#DejaVuSans-6c"/>
      <use transform="translate(488.427734 0.015625)" xlink:href="#DejaVuSans-6f"/>
      <use transform="translate(549.609375 0.015625)" xlink:href="#DejaVuSans-67"/>
      <use transform="translate(614.042969 -16.390625)scale(0.7)" xlink:href="#DejaVuSans-31"/>
      <use transform="translate(658.579102 -16.390625)scale(0.7)" xlink:href="#DejaVuSans-30"/>
      <use transform="translate(705.849609 0.015625)" xlink:href="#DejaVuSans-28"/>
      <use transform="translate(744.863281 0.015625)" xlink:href="#DejaVuSans-Oblique-54"/>
      <use transform="translate(805.947266 0.015625)" xlink:href="#DejaVuSans-Oblique-50"/>
      <use transform="translate(866.25 0.015625)" xlink:href="#DejaVuSans-Oblique-4d"/>
      <use transform="translate(972.011719 0.015625)" xlink:href="#DejaVuSans-2b"/>
      <use transform="translate(1075.283203 0.015625)" xlink:href="#DejaVuSans-31"/>
      <use transform="translate(1138.90625 0.015625)" xlink:href="#DejaVuSans-29"/>
     </g>
    </g>
   </g>
   <g id="line2d_11">
    <path clip-path="url(#p6409cfb342)" d="M 174.16093 412.853838 
L 182.585702 414.691677 
L 191.120418 416.5535 
L 193.904529 417.160845 
L 204.342032 419.437755 
L 212.905704 421.305895 
L 214.073315 421.560606 
L 218.005366 422.418371 
L 229.527342 424.931855 
L 230.299444 425.100287 
L 243.730764 428.030289 
L 267.870576 433.296317 
L 288.395913 437.773858 
L 327.788983 446.367338 
L 334.057063 447.734701 
L 364.110506 454.29077 
L 424.271648 467.414743 
L 512.169676 486.589435 
" style="fill:none;stroke:#bcbddc;stroke-dasharray:7.4,3.2;stroke-dashoffset:0;stroke-width:2;"/>
   </g>
   <g id="line2d_12">
    <path clip-path="url(#p6409cfb342)" d="M 172.577179 435.591305 
L 178.847373 435.146895 
L 185.120392 434.702285 
L 190.09421 434.349758 
L 197.647921 433.814377 
L 197.664514 433.813201 
L 207.266762 433.132626 
L 217.800186 432.386053 
L 219.999055 432.230205 
L 228.637105 431.617969 
L 239.256169 430.865326 
L 261.191223 429.310645 
L 355.916391 422.596849 
L 383.790274 420.621244 
L 383.823621 420.61888 
L 416.868212 418.276792 
L 503.588685 412.130342 
" style="fill:none;stroke:#9e9ac8;stroke-dasharray:7.4,3.2;stroke-dashoffset:0;stroke-width:2;"/>
   </g>
   <g id="line2d_13">
    <path clip-path="url(#p6409cfb342)" d="M 169.455427 419.318054 
L 176.883931 419.291199 
L 189.010288 419.247362 
L 189.476605 419.245676 
L 200.479405 419.2059 
L 202.333566 419.199198 
L 209.998483 419.171489 
L 214.120735 419.156586 
L 215.364407 419.15209 
L 218.384928 419.141171 
L 221.919206 419.128395 
L 222.36919 419.126768 
L 227.723851 419.10741 
L 236.359807 419.076191 
L 269.072709 418.957932 
L 274.377067 418.938757 
L 309.210563 418.812832 
L 374.911224 418.575321 
L 380.666248 418.554516 
L 433.148924 418.364789 
L 530.774125 418.011869 
" style="fill:none;stroke:#756bb1;stroke-dasharray:7.4,3.2;stroke-dashoffset:0;stroke-width:2;"/>
   </g>
   <g id="line2d_14">
    <path clip-path="url(#p6409cfb342)" d="M 168.133998 429.451133 
L 171.483489 429.605864 
L 180.243143 430.010519 
L 186.967307 430.321145 
L 189.007638 430.415399 
L 193.755193 430.634714 
L 202.092004 431.019836 
L 208.635785 431.322128 
L 214.01306 431.570533 
L 214.956743 431.614127 
L 218.814497 431.792338 
L 228.038542 432.218446 
L 242.984895 432.908898 
L 243.086256 432.913581 
L 263.337921 433.849114 
L 357.846308 438.214964 
L 361.02394 438.361756 
L 371.189345 438.831351 
L 436.605243 441.853263 
L 509.000953 445.19761 
" style="fill:none;stroke:#a1d99b;stroke-dasharray:7.4,3.2;stroke-dashoffset:0;stroke-width:2;"/>
   </g>
   <g id="line2d_15">
    <path clip-path="url(#p6409cfb342)" d="M 167.196928 440.286371 
L 171.959053 440.475022 
L 180.07493 440.79653 
L 188.512004 441.130762 
L 204.626496 441.769133 
L 205.237916 441.793355 
L 206.243996 441.83321 
L 209.868713 441.976802 
L 219.985928 442.377593 
L 220.999285 442.417737 
L 238.884545 443.126257 
L 335.336878 446.94719 
L 369.581529 448.303782 
L 373.55352 448.461132 
L 415.912867 450.139186 
L 513.190651 453.992819 
" style="fill:none;stroke:#74c476;stroke-dasharray:7.4,3.2;stroke-dashoffset:0;stroke-width:2;"/>
   </g>
   <g id="line2d_16">
    <path clip-path="url(#p6409cfb342)" d="M 176.201888 399.294312 
L 188.207122 400.088114 
L 190.388648 400.232359 
L 193.560885 400.442112 
L 210.695361 401.575066 
L 212.316194 401.682238 
L 214.507363 401.827121 
L 221.481089 402.288233 
L 225.804564 402.574107 
L 236.209746 403.262111 
L 242.185921 403.657264 
L 356.908021 411.242842 
L 369.033972 412.044626 
L 389.652943 413.40798 
L 435.500845 416.439505 
L 529.651708 422.664885 
" style="fill:none;stroke:#31a354;stroke-dasharray:7.4,3.2;stroke-dashoffset:0;stroke-width:2;"/>
   </g>
   <g id="line2d_17">
    <path clip-path="url(#p6409cfb342)" d="M 169.697692 469.905499 
L 173.828614 468.611688 
L 199.031423 460.718133 
L 202.286817 459.698538 
L 208.926474 457.618988 
L 227.22147 451.88897 
L 233.777969 449.835465 
L 257.412248 442.433175 
L 262.012536 440.992358 
L 314.058549 424.691473 
L 336.84967 417.553261 
L 431.562667 387.889016 
L 467.574807 376.609962 
L 593.383456 337.206515 
" style="fill:none;stroke:#fdae6b;stroke-dasharray:7.4,3.2;stroke-dashoffset:0;stroke-width:2;"/>
   </g>
   <g id="line2d_18">
    <path clip-path="url(#p6409cfb342)" d="M 178.900416 471.084246 
L 182.997405 470.103552 
L 198.139645 466.47896 
L 200.999505 465.794396 
L 206.29137 464.527684 
L 206.335565 464.517106 
L 209.548548 463.748015 
L 220.045257 461.235422 
L 225.416542 459.949699 
L 259.456041 451.801678 
L 277.165633 447.56254 
L 278.330145 447.283791 
L 303.351447 441.294452 
L 326.009154 435.870885 
L 441.77985 408.158899 
L 518.204852 389.865076 
L 597.2535 370.943232 
" style="fill:none;stroke:#fd8d3c;stroke-dasharray:7.4,3.2;stroke-dashoffset:0;stroke-width:2;"/>
   </g>
   <g id="line2d_19">
    <path clip-path="url(#p6409cfb342)" d="M 177.518864 469.653909 
L 177.874749 469.524926 
L 201.435749 460.985767 
L 204.445747 459.894861 
L 209.993624 457.884157 
L 211.03484 457.506791 
L 213.800553 456.50442 
L 231.666306 450.029377 
L 293.506822 427.616662 
L 313.100322 420.515435 
L 328.423682 414.961825 
L 358.324185 404.125055 
L 459.395071 367.494168 
L 514.141224 347.652647 
L 618.110457 309.971318 
" style="fill:none;stroke:#e6550d;stroke-dasharray:7.4,3.2;stroke-dashoffset:0;stroke-width:2;"/>
   </g>
   <g id="line2d_20">
    <path clip-path="url(#p6409cfb342)" d="M 170.307583 471.437234 
L 194.920265 464.228478 
L 195.827025 463.962899 
L 213.42159 458.809664 
L 214.170748 458.590245 
L 239.976693 451.031996 
L 242.485107 450.297312 
L 243.240881 450.075955 
L 264.212759 443.933547 
L 268.76056 442.601551 
L 290.226127 436.314547 
L 309.955971 430.535915 
L 366.456474 413.987603 
L 375.196671 411.427705 
L 467.818065 384.300022 
L 573.513783 353.343028 
L 624.288248 338.471803 
" style="fill:none;stroke:#9ecae1;stroke-dasharray:7.4,3.2;stroke-dashoffset:0;stroke-width:2;"/>
   </g>
   <g id="line2d_21">
    <path clip-path="url(#p6409cfb342)" d="M 174.706512 505.981095 
L 181.083898 503.681997 
L 187.898198 501.225389 
L 207.518021 494.15229 
L 219.558046 489.811767 
L 253.499187 477.575721 
L 289.938643 464.439013 
L 319.100846 453.925811 
L 329.722757 450.09653 
L 333.99754 448.555437 
L 419.748767 417.641451 
L 524.408518 379.910795 
L 561.973687 366.368259 
" style="fill:none;stroke:#6baed6;stroke-dasharray:7.4,3.2;stroke-dashoffset:0;stroke-width:2;"/>
   </g>
   <g id="line2d_22">
    <path clip-path="url(#p6409cfb342)" d="M 185.678625 497.374724 
L 216.086542 486.036435 
L 218.659321 485.077115 
L 222.281125 483.726642 
L 228.793329 481.298417 
L 238.085365 477.833668 
L 255.070756 471.500275 
L 279.371973 462.439009 
L 313.246425 449.808142 
L 319.220371 447.580619 
L 331.962288 442.829503 
L 366.821699 429.831371 
L 456.828266 396.270356 
L 473.046718 390.222934 
L 592.07905 345.838997 
" style="fill:none;stroke:#3182bd;stroke-dasharray:7.4,3.2;stroke-dashoffset:0;stroke-width:2;"/>
   </g>
   <g id="patch_3">
    <path d="M 90 640.8 
L 90 86.4 
" style="fill:none;stroke:#000000;stroke-linecap:square;stroke-linejoin:miter;stroke-width:0.8;"/>
   </g>
   <g id="patch_4">
    <path d="M 648 640.8 
L 648 86.4 
" style="fill:none;stroke:#000000;stroke-linecap:square;stroke-linejoin:miter;stroke-width:0.8;"/>
   </g>
   <g id="patch_5">
    <path d="M 90 640.8 
L 648 640.8 
" style="fill:none;stroke:#000000;stroke-linecap:square;stroke-linejoin:miter;stroke-width:0.8;"/>
   </g>
   <g id="patch_6">
    <path d="M 90 86.4 
L 648 86.4 
" style="fill:none;stroke:#000000;stroke-linecap:square;stroke-linejoin:miter;stroke-width:0.8;"/>
   </g>
   <g id="text_13">
    <!-- Spearman's rho = 0.09, p = 0.48 -->
    <defs>
     <path d="M 18.109375 8.203125 
L 18.109375 -20.796875 
L 9.078125 -20.796875 
L 9.078125 54.6875 
L 18.109375 54.6875 
L 18.109375 46.390625 
Q 20.953125 51.265625 25.265625 53.625 
Q 29.59375 56 35.59375 56 
Q 45.5625 56 51.78125 48.09375 
Q 58.015625 40.1875 58.015625 27.296875 
Q 58.015625 14.40625 51.78125 6.484375 
Q 45.5625 -1.421875 35.59375 -1.421875 
Q 29.59375 -1.421875 25.265625 0.953125 
Q 20.953125 3.328125 18.109375 8.203125 
z
M 48.6875 27.296875 
Q 48.6875 37.203125 44.609375 42.84375 
Q 40.53125 48.484375 33.40625 48.484375 
Q 26.265625 48.484375 22.1875 42.84375 
Q 18.109375 37.203125 18.109375 27.296875 
Q 18.109375 17.390625 22.1875 11.75 
Q 26.265625 6.109375 33.40625 6.109375 
Q 40.53125 6.109375 44.609375 11.75 
Q 48.6875 17.390625 48.6875 27.296875 
z
" id="DejaVuSans-70"/>
     <path d="M 34.28125 27.484375 
Q 23.390625 27.484375 19.1875 25 
Q 14.984375 22.515625 14.984375 16.5 
Q 14.984375 11.71875 18.140625 8.90625 
Q 21.296875 6.109375 26.703125 6.109375 
Q 34.1875 6.109375 38.703125 11.40625 
Q 43.21875 16.703125 43.21875 25.484375 
L 43.21875 27.484375 
z
M 52.203125 31.203125 
L 52.203125 0 
L 43.21875 0 
L 43.21875 8.296875 
Q 40.140625 3.328125 35.546875 0.953125 
Q 30.953125 -1.421875 24.3125 -1.421875 
Q 15.921875 -1.421875 10.953125 3.296875 
Q 6 8.015625 6 15.921875 
Q 6 25.140625 12.171875 29.828125 
Q 18.359375 34.515625 30.609375 34.515625 
L 43.21875 34.515625 
L 43.21875 35.40625 
Q 43.21875 41.609375 39.140625 45 
Q 35.0625 48.390625 27.6875 48.390625 
Q 23 48.390625 18.546875 47.265625 
Q 14.109375 46.140625 10.015625 43.890625 
L 10.015625 52.203125 
Q 14.9375 54.109375 19.578125 55.046875 
Q 24.21875 56 28.609375 56 
Q 40.484375 56 46.34375 49.84375 
Q 52.203125 43.703125 52.203125 31.203125 
z
" id="DejaVuSans-61"/>
     <path d="M 17.921875 72.90625 
L 17.921875 45.796875 
L 9.625 45.796875 
L 9.625 72.90625 
z
" id="DejaVuSans-27"/>
     <path d="M 54.890625 33.015625 
L 54.890625 0 
L 45.90625 0 
L 45.90625 32.71875 
Q 45.90625 40.484375 42.875 44.328125 
Q 39.84375 48.1875 33.796875 48.1875 
Q 26.515625 48.1875 22.3125 43.546875 
Q 18.109375 38.921875 18.109375 30.90625 
L 18.109375 0 
L 9.078125 0 
L 9.078125 75.984375 
L 18.109375 75.984375 
L 18.109375 46.1875 
Q 21.34375 51.125 25.703125 53.5625 
Q 30.078125 56 35.796875 56 
Q 45.21875 56 50.046875 50.171875 
Q 54.890625 44.34375 54.890625 33.015625 
z
" id="DejaVuSans-68"/>
     <path d="M 10.59375 45.40625 
L 73.1875 45.40625 
L 73.1875 37.203125 
L 10.59375 37.203125 
z
M 10.59375 25.484375 
L 73.1875 25.484375 
L 73.1875 17.1875 
L 10.59375 17.1875 
z
" id="DejaVuSans-3d"/>
     <path d="M 10.984375 1.515625 
L 10.984375 10.5 
Q 14.703125 8.734375 18.5 7.8125 
Q 22.3125 6.890625 25.984375 6.890625 
Q 35.75 6.890625 40.890625 13.453125 
Q 46.046875 20.015625 46.78125 33.40625 
Q 43.953125 29.203125 39.59375 26.953125 
Q 35.25 24.703125 29.984375 24.703125 
Q 19.046875 24.703125 12.671875 31.3125 
Q 6.296875 37.9375 6.296875 49.421875 
Q 6.296875 60.640625 12.9375 67.421875 
Q 19.578125 74.21875 30.609375 74.21875 
Q 43.265625 74.21875 49.921875 64.515625 
Q 56.59375 54.828125 56.59375 36.375 
Q 56.59375 19.140625 48.40625 8.859375 
Q 40.234375 -1.421875 26.421875 -1.421875 
Q 22.703125 -1.421875 18.890625 -0.6875 
Q 15.09375 0.046875 10.984375 1.515625 
z
M 30.609375 32.421875 
Q 37.25 32.421875 41.125 36.953125 
Q 45.015625 41.5 45.015625 49.421875 
Q 45.015625 57.28125 41.125 61.84375 
Q 37.25 66.40625 30.609375 66.40625 
Q 23.96875 66.40625 20.09375 61.84375 
Q 16.21875 57.28125 16.21875 49.421875 
Q 16.21875 41.5 20.09375 36.953125 
Q 23.96875 32.421875 30.609375 32.421875 
z
" id="DejaVuSans-39"/>
     <path d="M 11.71875 12.40625 
L 22.015625 12.40625 
L 22.015625 4 
L 14.015625 -11.625 
L 7.71875 -11.625 
L 11.71875 4 
z
" id="DejaVuSans-2c"/>
     <path d="M 37.796875 64.3125 
L 12.890625 25.390625 
L 37.796875 25.390625 
z
M 35.203125 72.90625 
L 47.609375 72.90625 
L 47.609375 25.390625 
L 58.015625 25.390625 
L 58.015625 17.1875 
L 47.609375 17.1875 
L 47.609375 0 
L 37.796875 0 
L 37.796875 17.1875 
L 4.890625 17.1875 
L 4.890625 26.703125 
z
" id="DejaVuSans-34"/>
     <path d="M 31.78125 34.625 
Q 24.75 34.625 20.71875 30.859375 
Q 16.703125 27.09375 16.703125 20.515625 
Q 16.703125 13.921875 20.71875 10.15625 
Q 24.75 6.390625 31.78125 6.390625 
Q 38.8125 6.390625 42.859375 10.171875 
Q 46.921875 13.96875 46.921875 20.515625 
Q 46.921875 27.09375 42.890625 30.859375 
Q 38.875 34.625 31.78125 34.625 
z
M 21.921875 38.8125 
Q 15.578125 40.375 12.03125 44.71875 
Q 8.5 49.078125 8.5 55.328125 
Q 8.5 64.0625 14.71875 69.140625 
Q 20.953125 74.21875 31.78125 74.21875 
Q 42.671875 74.21875 48.875 69.140625 
Q 55.078125 64.0625 55.078125 55.328125 
Q 55.078125 49.078125 51.53125 44.71875 
Q 48 40.375 41.703125 38.8125 
Q 48.828125 37.15625 52.796875 32.3125 
Q 56.78125 27.484375 56.78125 20.515625 
Q 56.78125 9.90625 50.3125 4.234375 
Q 43.84375 -1.421875 31.78125 -1.421875 
Q 19.734375 -1.421875 13.25 4.234375 
Q 6.78125 9.90625 6.78125 20.515625 
Q 6.78125 27.484375 10.78125 32.3125 
Q 14.796875 37.15625 21.921875 38.8125 
z
M 18.3125 54.390625 
Q 18.3125 48.734375 21.84375 45.5625 
Q 25.390625 42.390625 31.78125 42.390625 
Q 38.140625 42.390625 41.71875 45.5625 
Q 45.3125 48.734375 45.3125 54.390625 
Q 45.3125 60.0625 41.71875 63.234375 
Q 38.140625 66.40625 31.78125 66.40625 
Q 25.390625 66.40625 21.84375 63.234375 
Q 18.3125 60.0625 18.3125 54.390625 
z
" id="DejaVuSans-38"/>
    </defs>
    <g transform="translate(269.578125 80.4)scale(0.12 -0.12)">
     <use xlink:href="#DejaVuSans-53"/>
     <use x="63.476562" xlink:href="#DejaVuSans-70"/>
     <use x="126.953125" xlink:href="#DejaVuSans-65"/>
     <use x="188.476562" xlink:href="#DejaVuSans-61"/>
     <use x="249.755859" xlink:href="#DejaVuSans-72"/>
     <use x="290.853516" xlink:href="#DejaVuSans-6d"/>
     <use x="388.265625" xlink:href="#DejaVuSans-61"/>
     <use x="449.544922" xlink:href="#DejaVuSans-6e"/>
     <use x="512.923828" xlink:href="#DejaVuSans-27"/>
     <use x="540.414062" xlink:href="#DejaVuSans-73"/>
     <use x="592.513672" xlink:href="#DejaVuSans-20"/>
     <use x="624.300781" xlink:href="#DejaVuSans-72"/>
     <use x="665.398438" xlink:href="#DejaVuSans-68"/>
     <use x="728.777344" xlink:href="#DejaVuSans-6f"/>
     <use x="789.958984" xlink:href="#DejaVuSans-20"/>
     <use x="821.746094" xlink:href="#DejaVuSans-3d"/>
     <use x="905.535156" xlink:href="#DejaVuSans-20"/>
     <use x="937.322266" xlink:href="#DejaVuSans-30"/>
     <use x="1000.945312" xlink:href="#DejaVuSans-2e"/>
     <use x="1032.732422" xlink:href="#DejaVuSans-30"/>
     <use x="1096.355469" xlink:href="#DejaVuSans-39"/>
     <use x="1159.978516" xlink:href="#DejaVuSans-2c"/>
     <use x="1191.765625" xlink:href="#DejaVuSans-20"/>
     <use x="1223.552734" xlink:href="#DejaVuSans-70"/>
     <use x="1287.029297" xlink:href="#DejaVuSans-20"/>
     <use x="1318.816406" xlink:href="#DejaVuSans-3d"/>
     <use x="1402.605469" xlink:href="#DejaVuSans-20"/>
     <use x="1434.392578" xlink:href="#DejaVuSans-30"/>
     <use x="1498.015625" xlink:href="#DejaVuSans-2e"/>
     <use x="1529.802734" xlink:href="#DejaVuSans-34"/>
     <use x="1593.425781" xlink:href="#DejaVuSans-38"/>
    </g>
   </g>
   <g id="legend_1">
    <g id="patch_7">
     <path d="M 272.232813 273.875 
L 465.767188 273.875 
Q 467.767188 273.875 467.767188 271.875 
L 467.767188 93.4 
Q 467.767188 91.4 465.767188 91.4 
L 272.232813 91.4 
Q 270.232813 91.4 270.232813 93.4 
L 270.232813 271.875 
Q 270.232813 273.875 272.232813 273.875 
z
" style="fill:#ffffff;opacity:0.8;stroke:#cccccc;stroke-linejoin:miter;"/>
    </g>
    <g id="PathCollection_13">
     <g>
      <use style="fill:#bcbddc;fill-opacity:0.6;" x="284.232813" xlink:href="#m24539bdf87" y="100.373437"/>
     </g>
    </g>
    <g id="text_14">
     <!-- 11049_5#18_C57BL-6J_Male_T -->
     <defs>
      <path d="M 50.984375 -16.609375 
L 50.984375 -23.578125 
L -0.984375 -23.578125 
L -0.984375 -16.609375 
z
" id="DejaVuSans-5f"/>
      <path d="M 51.125 44 
L 36.921875 44 
L 32.8125 27.6875 
L 47.125 27.6875 
z
M 43.796875 71.78125 
L 38.71875 51.515625 
L 52.984375 51.515625 
L 58.109375 71.78125 
L 65.921875 71.78125 
L 60.890625 51.515625 
L 76.125 51.515625 
L 76.125 44 
L 58.984375 44 
L 54.984375 27.6875 
L 70.515625 27.6875 
L 70.515625 20.21875 
L 53.078125 20.21875 
L 48 0 
L 40.1875 0 
L 45.21875 20.21875 
L 30.90625 20.21875 
L 25.875 0 
L 18.015625 0 
L 23.09375 20.21875 
L 7.71875 20.21875 
L 7.71875 27.6875 
L 24.90625 27.6875 
L 29 44 
L 13.28125 44 
L 13.28125 51.515625 
L 30.90625 51.515625 
L 35.890625 71.78125 
z
" id="DejaVuSans-23"/>
      <path d="M 64.40625 67.28125 
L 64.40625 56.890625 
Q 59.421875 61.53125 53.78125 63.8125 
Q 48.140625 66.109375 41.796875 66.109375 
Q 29.296875 66.109375 22.65625 58.46875 
Q 16.015625 50.828125 16.015625 36.375 
Q 16.015625 21.96875 22.65625 14.328125 
Q 29.296875 6.6875 41.796875 6.6875 
Q 48.140625 6.6875 53.78125 8.984375 
Q 59.421875 11.28125 64.40625 15.921875 
L 64.40625 5.609375 
Q 59.234375 2.09375 53.4375 0.328125 
Q 47.65625 -1.421875 41.21875 -1.421875 
Q 24.65625 -1.421875 15.125 8.703125 
Q 5.609375 18.84375 5.609375 36.375 
Q 5.609375 53.953125 15.125 64.078125 
Q 24.65625 74.21875 41.21875 74.21875 
Q 47.75 74.21875 53.53125 72.484375 
Q 59.328125 70.75 64.40625 67.28125 
z
" id="DejaVuSans-43"/>
      <path d="M 8.203125 72.90625 
L 55.078125 72.90625 
L 55.078125 68.703125 
L 28.609375 0 
L 18.3125 0 
L 43.21875 64.59375 
L 8.203125 64.59375 
z
" id="DejaVuSans-37"/>
      <path d="M 19.671875 34.8125 
L 19.671875 8.109375 
L 35.5 8.109375 
Q 43.453125 8.109375 47.28125 11.40625 
Q 51.125 14.703125 51.125 21.484375 
Q 51.125 28.328125 47.28125 31.5625 
Q 43.453125 34.8125 35.5 34.8125 
z
M 19.671875 64.796875 
L 19.671875 42.828125 
L 34.28125 42.828125 
Q 41.5 42.828125 45.03125 45.53125 
Q 48.578125 48.25 48.578125 53.8125 
Q 48.578125 59.328125 45.03125 62.0625 
Q 41.5 64.796875 34.28125 64.796875 
z
M 9.8125 72.90625 
L 35.015625 72.90625 
Q 46.296875 72.90625 52.390625 68.21875 
Q 58.5 63.53125 58.5 54.890625 
Q 58.5 48.1875 55.375 44.234375 
Q 52.25 40.28125 46.1875 39.3125 
Q 53.46875 37.75 57.5 32.78125 
Q 61.53125 27.828125 61.53125 20.40625 
Q 61.53125 10.640625 54.890625 5.3125 
Q 48.25 0 35.984375 0 
L 9.8125 0 
z
" id="DejaVuSans-42"/>
      <path d="M 9.8125 72.90625 
L 19.671875 72.90625 
L 19.671875 8.296875 
L 55.171875 8.296875 
L 55.171875 0 
L 9.8125 0 
z
" id="DejaVuSans-4c"/>
      <path d="M 4.890625 31.390625 
L 31.203125 31.390625 
L 31.203125 23.390625 
L 4.890625 23.390625 
z
" id="DejaVuSans-2d"/>
      <path d="M 33.015625 40.375 
Q 26.375 40.375 22.484375 35.828125 
Q 18.609375 31.296875 18.609375 23.390625 
Q 18.609375 15.53125 22.484375 10.953125 
Q 26.375 6.390625 33.015625 6.390625 
Q 39.65625 6.390625 43.53125 10.953125 
Q 47.40625 15.53125 47.40625 23.390625 
Q 47.40625 31.296875 43.53125 35.828125 
Q 39.65625 40.375 33.015625 40.375 
z
M 52.59375 71.296875 
L 52.59375 62.3125 
Q 48.875 64.0625 45.09375 64.984375 
Q 41.3125 65.921875 37.59375 65.921875 
Q 27.828125 65.921875 22.671875 59.328125 
Q 17.53125 52.734375 16.796875 39.40625 
Q 19.671875 43.65625 24.015625 45.921875 
Q 28.375 48.1875 33.59375 48.1875 
Q 44.578125 48.1875 50.953125 41.515625 
Q 57.328125 34.859375 57.328125 23.390625 
Q 57.328125 12.15625 50.6875 5.359375 
Q 44.046875 -1.421875 33.015625 -1.421875 
Q 20.359375 -1.421875 13.671875 8.265625 
Q 6.984375 17.96875 6.984375 36.375 
Q 6.984375 53.65625 15.1875 63.9375 
Q 23.390625 74.21875 37.203125 74.21875 
Q 40.921875 74.21875 44.703125 73.484375 
Q 48.484375 72.75 52.59375 71.296875 
z
" id="DejaVuSans-36"/>
      <path d="M 9.8125 72.90625 
L 19.671875 72.90625 
L 19.671875 5.078125 
Q 19.671875 -8.109375 14.671875 -14.0625 
Q 9.671875 -20.015625 -1.421875 -20.015625 
L -5.171875 -20.015625 
L -5.171875 -11.71875 
L -2.09375 -11.71875 
Q 4.4375 -11.71875 7.125 -8.046875 
Q 9.8125 -4.390625 9.8125 5.078125 
z
" id="DejaVuSans-4a"/>
      <path d="M 9.8125 72.90625 
L 24.515625 72.90625 
L 43.109375 23.296875 
L 61.8125 72.90625 
L 76.515625 72.90625 
L 76.515625 0 
L 66.890625 0 
L 66.890625 64.015625 
L 48.09375 14.015625 
L 38.1875 14.015625 
L 19.390625 64.015625 
L 19.390625 0 
L 9.8125 0 
z
" id="DejaVuSans-4d"/>
     </defs>
     <g transform="translate(302.232813 102.998437)scale(0.1 -0.1)">
      <use xlink:href="#DejaVuSans-31"/>
      <use x="63.623047" xlink:href="#DejaVuSans-31"/>
      <use x="127.246094" xlink:href="#DejaVuSans-30"/>
      <use x="190.869141" xlink:href="#DejaVuSans-34"/>
      <use x="254.492188" xlink:href="#DejaVuSans-39"/>
      <use x="318.115234" xlink:href="#DejaVuSans-5f"/>
      <use x="368.115234" xlink:href="#DejaVuSans-35"/>
      <use x="431.738281" xlink:href="#DejaVuSans-23"/>
      <use x="515.527344" xlink:href="#DejaVuSans-31"/>
      <use x="579.150391" xlink:href="#DejaVuSans-38"/>
      <use x="642.773438" xlink:href="#DejaVuSans-5f"/>
      <use x="692.773438" xlink:href="#DejaVuSans-43"/>
      <use x="762.597656" xlink:href="#DejaVuSans-35"/>
      <use x="826.220703" xlink:href="#DejaVuSans-37"/>
      <use x="889.84375" xlink:href="#DejaVuSans-42"/>
      <use x="958.447266" xlink:href="#DejaVuSans-4c"/>
      <use x="1014.144531" xlink:href="#DejaVuSans-2d"/>
      <use x="1050.228516" xlink:href="#DejaVuSans-36"/>
      <use x="1113.851562" xlink:href="#DejaVuSans-4a"/>
      <use x="1143.34375" xlink:href="#DejaVuSans-5f"/>
      <use x="1193.34375" xlink:href="#DejaVuSans-4d"/>
      <use x="1279.623047" xlink:href="#DejaVuSans-61"/>
      <use x="1340.902344" xlink:href="#DejaVuSans-6c"/>
      <use x="1368.685547" xlink:href="#DejaVuSans-65"/>
      <use x="1430.208984" xlink:href="#DejaVuSans-5f"/>
      <use x="1480.208984" xlink:href="#DejaVuSans-54"/>
     </g>
    </g>
    <g id="PathCollection_14">
     <g>
      <use style="fill:#9e9ac8;fill-opacity:0.6;" x="284.232813" xlink:href="#m54b5eeb246" y="115.329687"/>
     </g>
    </g>
    <g id="text_15">
     <!-- 11049_5#17_C57BL-6J_Male_T -->
     <g transform="translate(302.232813 117.954687)scale(0.1 -0.1)">
      <use xlink:href="#DejaVuSans-31"/>
      <use x="63.623047" xlink:href="#DejaVuSans-31"/>
      <use x="127.246094" xlink:href="#DejaVuSans-30"/>
      <use x="190.869141" xlink:href="#DejaVuSans-34"/>
      <use x="254.492188" xlink:href="#DejaVuSans-39"/>
      <use x="318.115234" xlink:href="#DejaVuSans-5f"/>
      <use x="368.115234" xlink:href="#DejaVuSans-35"/>
      <use x="431.738281" xlink:href="#DejaVuSans-23"/>
      <use x="515.527344" xlink:href="#DejaVuSans-31"/>
      <use x="579.150391" xlink:href="#DejaVuSans-37"/>
      <use x="642.773438" xlink:href="#DejaVuSans-5f"/>
      <use x="692.773438" xlink:href="#DejaVuSans-43"/>
      <use x="762.597656" xlink:href="#DejaVuSans-35"/>
      <use x="826.220703" xlink:href="#DejaVuSans-37"/>
      <use x="889.84375" xlink:href="#DejaVuSans-42"/>
      <use x="958.447266" xlink:href="#DejaVuSans-4c"/>
      <use x="1014.144531" xlink:href="#DejaVuSans-2d"/>
      <use x="1050.228516" xlink:href="#DejaVuSans-36"/>
      <use x="1113.851562" xlink:href="#DejaVuSans-4a"/>
      <use x="1143.34375" xlink:href="#DejaVuSans-5f"/>
      <use x="1193.34375" xlink:href="#DejaVuSans-4d"/>
      <use x="1279.623047" xlink:href="#DejaVuSans-61"/>
      <use x="1340.902344" xlink:href="#DejaVuSans-6c"/>
      <use x="1368.685547" xlink:href="#DejaVuSans-65"/>
      <use x="1430.208984" xlink:href="#DejaVuSans-5f"/>
      <use x="1480.208984" xlink:href="#DejaVuSans-54"/>
     </g>
    </g>
    <g id="PathCollection_15">
     <g>
      <use style="fill:#756bb1;fill-opacity:0.6;" x="284.232813" xlink:href="#mbc91d89fd9" y="130.285937"/>
     </g>
    </g>
    <g id="text_16">
     <!-- 11049_5#16_C57BL-6J_Male_T -->
     <g transform="translate(302.232813 132.910937)scale(0.1 -0.1)">
      <use xlink:href="#DejaVuSans-31"/>
      <use x="63.623047" xlink:href="#DejaVuSans-31"/>
      <use x="127.246094" xlink:href="#DejaVuSans-30"/>
      <use x="190.869141" xlink:href="#DejaVuSans-34"/>
      <use x="254.492188" xlink:href="#DejaVuSans-39"/>
      <use x="318.115234" xlink:href="#DejaVuSans-5f"/>
      <use x="368.115234" xlink:href="#DejaVuSans-35"/>
      <use x="431.738281" xlink:href="#DejaVuSans-23"/>
      <use x="515.527344" xlink:href="#DejaVuSans-31"/>
      <use x="579.150391" xlink:href="#DejaVuSans-36"/>
      <use x="642.773438" xlink:href="#DejaVuSans-5f"/>
      <use x="692.773438" xlink:href="#DejaVuSans-43"/>
      <use x="762.597656" xlink:href="#DejaVuSans-35"/>
      <use x="826.220703" xlink:href="#DejaVuSans-37"/>
      <use x="889.84375" xlink:href="#DejaVuSans-42"/>
      <use x="958.447266" xlink:href="#DejaVuSans-4c"/>
      <use x="1014.144531" xlink:href="#DejaVuSans-2d"/>
      <use x="1050.228516" xlink:href="#DejaVuSans-36"/>
      <use x="1113.851562" xlink:href="#DejaVuSans-4a"/>
      <use x="1143.34375" xlink:href="#DejaVuSans-5f"/>
      <use x="1193.34375" xlink:href="#DejaVuSans-4d"/>
      <use x="1279.623047" xlink:href="#DejaVuSans-61"/>
      <use x="1340.902344" xlink:href="#DejaVuSans-6c"/>
      <use x="1368.685547" xlink:href="#DejaVuSans-65"/>
      <use x="1430.208984" xlink:href="#DejaVuSans-5f"/>
      <use x="1480.208984" xlink:href="#DejaVuSans-54"/>
     </g>
    </g>
    <g id="PathCollection_16">
     <g>
      <use style="fill:#a1d99b;fill-opacity:0.6;" x="284.232813" xlink:href="#m186666fe62" y="145.242187"/>
     </g>
    </g>
    <g id="text_17">
     <!-- 11049_4#6_C57BL-6J_Female_T -->
     <defs>
      <path d="M 9.8125 72.90625 
L 51.703125 72.90625 
L 51.703125 64.59375 
L 19.671875 64.59375 
L 19.671875 43.109375 
L 48.578125 43.109375 
L 48.578125 34.8125 
L 19.671875 34.8125 
L 19.671875 0 
L 9.8125 0 
z
" id="DejaVuSans-46"/>
     </defs>
     <g transform="translate(302.232813 147.867187)scale(0.1 -0.1)">
      <use xlink:href="#DejaVuSans-31"/>
      <use x="63.623047" xlink:href="#DejaVuSans-31"/>
      <use x="127.246094" xlink:href="#DejaVuSans-30"/>
      <use x="190.869141" xlink:href="#DejaVuSans-34"/>
      <use x="254.492188" xlink:href="#DejaVuSans-39"/>
      <use x="318.115234" xlink:href="#DejaVuSans-5f"/>
      <use x="368.115234" xlink:href="#DejaVuSans-34"/>
      <use x="431.738281" xlink:href="#DejaVuSans-23"/>
      <use x="515.527344" xlink:href="#DejaVuSans-36"/>
      <use x="579.150391" xlink:href="#DejaVuSans-5f"/>
      <use x="629.150391" xlink:href="#DejaVuSans-43"/>
      <use x="698.974609" xlink:href="#DejaVuSans-35"/>
      <use x="762.597656" xlink:href="#DejaVuSans-37"/>
      <use x="826.220703" xlink:href="#DejaVuSans-42"/>
      <use x="894.824219" xlink:href="#DejaVuSans-4c"/>
      <use x="950.521484" xlink:href="#DejaVuSans-2d"/>
      <use x="986.605469" xlink:href="#DejaVuSans-36"/>
      <use x="1050.228516" xlink:href="#DejaVuSans-4a"/>
      <use x="1079.720703" xlink:href="#DejaVuSans-5f"/>
      <use x="1129.720703" xlink:href="#DejaVuSans-46"/>
      <use x="1187.162109" xlink:href="#DejaVuSans-65"/>
      <use x="1248.685547" xlink:href="#DejaVuSans-6d"/>
      <use x="1346.097656" xlink:href="#DejaVuSans-61"/>
      <use x="1407.376953" xlink:href="#DejaVuSans-6c"/>
      <use x="1435.160156" xlink:href="#DejaVuSans-65"/>
      <use x="1496.683594" xlink:href="#DejaVuSans-5f"/>
      <use x="1546.683594" xlink:href="#DejaVuSans-54"/>
     </g>
    </g>
    <g id="PathCollection_17">
     <g>
      <use style="fill:#74c476;fill-opacity:0.6;" x="284.232813" xlink:href="#m1dee5165b3" y="160.198437"/>
     </g>
    </g>
    <g id="text_18">
     <!-- 11049_4#5_C57BL-6J_Female_T -->
     <g transform="translate(302.232813 162.823437)scale(0.1 -0.1)">
      <use xlink:href="#DejaVuSans-31"/>
      <use x="63.623047" xlink:href="#DejaVuSans-31"/>
      <use x="127.246094" xlink:href="#DejaVuSans-30"/>
      <use x="190.869141" xlink:href="#DejaVuSans-34"/>
      <use x="254.492188" xlink:href="#DejaVuSans-39"/>
      <use x="318.115234" xlink:href="#DejaVuSans-5f"/>
      <use x="368.115234" xlink:href="#DejaVuSans-34"/>
      <use x="431.738281" xlink:href="#DejaVuSans-23"/>
      <use x="515.527344" xlink:href="#DejaVuSans-35"/>
      <use x="579.150391" xlink:href="#DejaVuSans-5f"/>
      <use x="629.150391" xlink:href="#DejaVuSans-43"/>
      <use x="698.974609" xlink:href="#DejaVuSans-35"/>
      <use x="762.597656" xlink:href="#DejaVuSans-37"/>
      <use x="826.220703" xlink:href="#DejaVuSans-42"/>
      <use x="894.824219" xlink:href="#DejaVuSans-4c"/>
      <use x="950.521484" xlink:href="#DejaVuSans-2d"/>
      <use x="986.605469" xlink:href="#DejaVuSans-36"/>
      <use x="1050.228516" xlink:href="#DejaVuSans-4a"/>
      <use x="1079.720703" xlink:href="#DejaVuSans-5f"/>
      <use x="1129.720703" xlink:href="#DejaVuSans-46"/>
      <use x="1187.162109" xlink:href="#DejaVuSans-65"/>
      <use x="1248.685547" xlink:href="#DejaVuSans-6d"/>
      <use x="1346.097656" xlink:href="#DejaVuSans-61"/>
      <use x="1407.376953" xlink:href="#DejaVuSans-6c"/>
      <use x="1435.160156" xlink:href="#DejaVuSans-65"/>
      <use x="1496.683594" xlink:href="#DejaVuSans-5f"/>
      <use x="1546.683594" xlink:href="#DejaVuSans-54"/>
     </g>
    </g>
    <g id="PathCollection_18">
     <g>
      <use style="fill:#31a354;fill-opacity:0.6;" x="284.232813" xlink:href="#mdb1a3e3e0b" y="175.154687"/>
     </g>
    </g>
    <g id="text_19">
     <!-- 11049_4#4_C57BL-6J_Female_T -->
     <g transform="translate(302.232813 177.779687)scale(0.1 -0.1)">
      <use xlink:href="#DejaVuSans-31"/>
      <use x="63.623047" xlink:href="#DejaVuSans-31"/>
      <use x="127.246094" xlink:href="#DejaVuSans-30"/>
      <use x="190.869141" xlink:href="#DejaVuSans-34"/>
      <use x="254.492188" xlink:href="#DejaVuSans-39"/>
      <use x="318.115234" xlink:href="#DejaVuSans-5f"/>
      <use x="368.115234" xlink:href="#DejaVuSans-34"/>
      <use x="431.738281" xlink:href="#DejaVuSans-23"/>
      <use x="515.527344" xlink:href="#DejaVuSans-34"/>
      <use x="579.150391" xlink:href="#DejaVuSans-5f"/>
      <use x="629.150391" xlink:href="#DejaVuSans-43"/>
      <use x="698.974609" xlink:href="#DejaVuSans-35"/>
      <use x="762.597656" xlink:href="#DejaVuSans-37"/>
      <use x="826.220703" xlink:href="#DejaVuSans-42"/>
      <use x="894.824219" xlink:href="#DejaVuSans-4c"/>
      <use x="950.521484" xlink:href="#DejaVuSans-2d"/>
      <use x="986.605469" xlink:href="#DejaVuSans-36"/>
      <use x="1050.228516" xlink:href="#DejaVuSans-4a"/>
      <use x="1079.720703" xlink:href="#DejaVuSans-5f"/>
      <use x="1129.720703" xlink:href="#DejaVuSans-46"/>
      <use x="1187.162109" xlink:href="#DejaVuSans-65"/>
      <use x="1248.685547" xlink:href="#DejaVuSans-6d"/>
      <use x="1346.097656" xlink:href="#DejaVuSans-61"/>
      <use x="1407.376953" xlink:href="#DejaVuSans-6c"/>
      <use x="1435.160156" xlink:href="#DejaVuSans-65"/>
      <use x="1496.683594" xlink:href="#DejaVuSans-5f"/>
      <use x="1546.683594" xlink:href="#DejaVuSans-54"/>
     </g>
    </g>
    <g id="PathCollection_19">
     <g>
      <use style="fill:#fdae6b;fill-opacity:0.6;" x="284.232813" xlink:href="#m16314644c0" y="190.110937"/>
     </g>
    </g>
    <g id="text_20">
     <!-- 11048_5#15_C57BL-6J_Male_B -->
     <g transform="translate(302.232813 192.735937)scale(0.1 -0.1)">
      <use xlink:href="#DejaVuSans-31"/>
      <use x="63.623047" xlink:href="#DejaVuSans-31"/>
      <use x="127.246094" xlink:href="#DejaVuSans-30"/>
      <use x="190.869141" xlink:href="#DejaVuSans-34"/>
      <use x="254.492188" xlink:href="#DejaVuSans-38"/>
      <use x="318.115234" xlink:href="#DejaVuSans-5f"/>
      <use x="368.115234" xlink:href="#DejaVuSans-35"/>
      <use x="431.738281" xlink:href="#DejaVuSans-23"/>
      <use x="515.527344" xlink:href="#DejaVuSans-31"/>
      <use x="579.150391" xlink:href="#DejaVuSans-35"/>
      <use x="642.773438" xlink:href="#DejaVuSans-5f"/>
      <use x="692.773438" xlink:href="#DejaVuSans-43"/>
      <use x="762.597656" xlink:href="#DejaVuSans-35"/>
      <use x="826.220703" xlink:href="#DejaVuSans-37"/>
      <use x="889.84375" xlink:href="#DejaVuSans-42"/>
      <use x="958.447266" xlink:href="#DejaVuSans-4c"/>
      <use x="1014.144531" xlink:href="#DejaVuSans-2d"/>
      <use x="1050.228516" xlink:href="#DejaVuSans-36"/>
      <use x="1113.851562" xlink:href="#DejaVuSans-4a"/>
      <use x="1143.34375" xlink:href="#DejaVuSans-5f"/>
      <use x="1193.34375" xlink:href="#DejaVuSans-4d"/>
      <use x="1279.623047" xlink:href="#DejaVuSans-61"/>
      <use x="1340.902344" xlink:href="#DejaVuSans-6c"/>
      <use x="1368.685547" xlink:href="#DejaVuSans-65"/>
      <use x="1430.208984" xlink:href="#DejaVuSans-5f"/>
      <use x="1480.208984" xlink:href="#DejaVuSans-42"/>
     </g>
    </g>
    <g id="PathCollection_20">
     <g>
      <use style="fill:#fd8d3c;fill-opacity:0.6;" x="284.232813" xlink:href="#m5ca17aa2a5" y="205.067187"/>
     </g>
    </g>
    <g id="text_21">
     <!-- 11048_5#14_C57BL-6J_Male_B -->
     <g transform="translate(302.232813 207.692187)scale(0.1 -0.1)">
      <use xlink:href="#DejaVuSans-31"/>
      <use x="63.623047" xlink:href="#DejaVuSans-31"/>
      <use x="127.246094" xlink:href="#DejaVuSans-30"/>
      <use x="190.869141" xlink:href="#DejaVuSans-34"/>
      <use x="254.492188" xlink:href="#DejaVuSans-38"/>
      <use x="318.115234" xlink:href="#DejaVuSans-5f"/>
      <use x="368.115234" xlink:href="#DejaVuSans-35"/>
      <use x="431.738281" xlink:href="#DejaVuSans-23"/>
      <use x="515.527344" xlink:href="#DejaVuSans-31"/>
      <use x="579.150391" xlink:href="#DejaVuSans-34"/>
      <use x="642.773438" xlink:href="#DejaVuSans-5f"/>
      <use x="692.773438" xlink:href="#DejaVuSans-43"/>
      <use x="762.597656" xlink:href="#DejaVuSans-35"/>
      <use x="826.220703" xlink:href="#DejaVuSans-37"/>
      <use x="889.84375" xlink:href="#DejaVuSans-42"/>
      <use x="958.447266" xlink:href="#DejaVuSans-4c"/>
      <use x="1014.144531" xlink:href="#DejaVuSans-2d"/>
      <use x="1050.228516" xlink:href="#DejaVuSans-36"/>
      <use x="1113.851562" xlink:href="#DejaVuSans-4a"/>
      <use x="1143.34375" xlink:href="#DejaVuSans-5f"/>
      <use x="1193.34375" xlink:href="#DejaVuSans-4d"/>
      <use x="1279.623047" xlink:href="#DejaVuSans-61"/>
      <use x="1340.902344" xlink:href="#DejaVuSans-6c"/>
      <use x="1368.685547" xlink:href="#DejaVuSans-65"/>
      <use x="1430.208984" xlink:href="#DejaVuSans-5f"/>
      <use x="1480.208984" xlink:href="#DejaVuSans-42"/>
     </g>
    </g>
    <g id="PathCollection_21">
     <g>
      <use style="fill:#e6550d;fill-opacity:0.6;" x="284.232813" xlink:href="#m085bc906d0" y="220.023437"/>
     </g>
    </g>
    <g id="text_22">
     <!-- 11048_5#13_C57BL-6J_Male_B -->
     <defs>
      <path d="M 40.578125 39.3125 
Q 47.65625 37.796875 51.625 33 
Q 55.609375 28.21875 55.609375 21.1875 
Q 55.609375 10.40625 48.1875 4.484375 
Q 40.765625 -1.421875 27.09375 -1.421875 
Q 22.515625 -1.421875 17.65625 -0.515625 
Q 12.796875 0.390625 7.625 2.203125 
L 7.625 11.71875 
Q 11.71875 9.328125 16.59375 8.109375 
Q 21.484375 6.890625 26.8125 6.890625 
Q 36.078125 6.890625 40.9375 10.546875 
Q 45.796875 14.203125 45.796875 21.1875 
Q 45.796875 27.640625 41.28125 31.265625 
Q 36.765625 34.90625 28.71875 34.90625 
L 20.21875 34.90625 
L 20.21875 43.015625 
L 29.109375 43.015625 
Q 36.375 43.015625 40.234375 45.921875 
Q 44.09375 48.828125 44.09375 54.296875 
Q 44.09375 59.90625 40.109375 62.90625 
Q 36.140625 65.921875 28.71875 65.921875 
Q 24.65625 65.921875 20.015625 65.03125 
Q 15.375 64.15625 9.8125 62.3125 
L 9.8125 71.09375 
Q 15.4375 72.65625 20.34375 73.4375 
Q 25.25 74.21875 29.59375 74.21875 
Q 40.828125 74.21875 47.359375 69.109375 
Q 53.90625 64.015625 53.90625 55.328125 
Q 53.90625 49.265625 50.4375 45.09375 
Q 46.96875 40.921875 40.578125 39.3125 
z
" id="DejaVuSans-33"/>
     </defs>
     <g transform="translate(302.232813 222.648437)scale(0.1 -0.1)">
      <use xlink:href="#DejaVuSans-31"/>
      <use x="63.623047" xlink:href="#DejaVuSans-31"/>
      <use x="127.246094" xlink:href="#DejaVuSans-30"/>
      <use x="190.869141" xlink:href="#DejaVuSans-34"/>
      <use x="254.492188" xlink:href="#DejaVuSans-38"/>
      <use x="318.115234" xlink:href="#DejaVuSans-5f"/>
      <use x="368.115234" xlink:href="#DejaVuSans-35"/>
      <use x="431.738281" xlink:href="#DejaVuSans-23"/>
      <use x="515.527344" xlink:href="#DejaVuSans-31"/>
      <use x="579.150391" xlink:href="#DejaVuSans-33"/>
      <use x="642.773438" xlink:href="#DejaVuSans-5f"/>
      <use x="692.773438" xlink:href="#DejaVuSans-43"/>
      <use x="762.597656" xlink:href="#DejaVuSans-35"/>
      <use x="826.220703" xlink:href="#DejaVuSans-37"/>
      <use x="889.84375" xlink:href="#DejaVuSans-42"/>
      <use x="958.447266" xlink:href="#DejaVuSans-4c"/>
      <use x="1014.144531" xlink:href="#DejaVuSans-2d"/>
      <use x="1050.228516" xlink:href="#DejaVuSans-36"/>
      <use x="1113.851562" xlink:href="#DejaVuSans-4a"/>
      <use x="1143.34375" xlink:href="#DejaVuSans-5f"/>
      <use x="1193.34375" xlink:href="#DejaVuSans-4d"/>
      <use x="1279.623047" xlink:href="#DejaVuSans-61"/>
      <use x="1340.902344" xlink:href="#DejaVuSans-6c"/>
      <use x="1368.685547" xlink:href="#DejaVuSans-65"/>
      <use x="1430.208984" xlink:href="#DejaVuSans-5f"/>
      <use x="1480.208984" xlink:href="#DejaVuSans-42"/>
     </g>
    </g>
    <g id="PathCollection_22">
     <g>
      <use style="fill:#9ecae1;fill-opacity:0.6;" x="284.232813" xlink:href="#m33c645d2df" y="234.979687"/>
     </g>
    </g>
    <g id="text_23">
     <!-- 10966_8#3_C57BL-6J_Female_B -->
     <g transform="translate(302.232813 237.604687)scale(0.1 -0.1)">
      <use xlink:href="#DejaVuSans-31"/>
      <use x="63.623047" xlink:href="#DejaVuSans-30"/>
      <use x="127.246094" xlink:href="#DejaVuSans-39"/>
      <use x="190.869141" xlink:href="#DejaVuSans-36"/>
      <use x="254.492188" xlink:href="#DejaVuSans-36"/>
      <use x="318.115234" xlink:href="#DejaVuSans-5f"/>
      <use x="368.115234" xlink:href="#DejaVuSans-38"/>
      <use x="431.738281" xlink:href="#DejaVuSans-23"/>
      <use x="515.527344" xlink:href="#DejaVuSans-33"/>
      <use x="579.150391" xlink:href="#DejaVuSans-5f"/>
      <use x="629.150391" xlink:href="#DejaVuSans-43"/>
      <use x="698.974609" xlink:href="#DejaVuSans-35"/>
      <use x="762.597656" xlink:href="#DejaVuSans-37"/>
      <use x="826.220703" xlink:href="#DejaVuSans-42"/>
      <use x="894.824219" xlink:href="#DejaVuSans-4c"/>
      <use x="950.521484" xlink:href="#DejaVuSans-2d"/>
      <use x="986.605469" xlink:href="#DejaVuSans-36"/>
      <use x="1050.228516" xlink:href="#DejaVuSans-4a"/>
      <use x="1079.720703" xlink:href="#DejaVuSans-5f"/>
      <use x="1129.720703" xlink:href="#DejaVuSans-46"/>
      <use x="1187.162109" xlink:href="#DejaVuSans-65"/>
      <use x="1248.685547" xlink:href="#DejaVuSans-6d"/>
      <use x="1346.097656" xlink:href="#DejaVuSans-61"/>
      <use x="1407.376953" xlink:href="#DejaVuSans-6c"/>
      <use x="1435.160156" xlink:href="#DejaVuSans-65"/>
      <use x="1496.683594" xlink:href="#DejaVuSans-5f"/>
      <use x="1546.683594" xlink:href="#DejaVuSans-42"/>
     </g>
    </g>
    <g id="PathCollection_23">
     <g>
      <use style="fill:#6baed6;fill-opacity:0.6;" x="284.232813" xlink:href="#m91894a936b" y="249.935937"/>
     </g>
    </g>
    <g id="text_24">
     <!-- 10966_8#2_C57BL-6J_Female_B -->
     <g transform="translate(302.232813 252.560937)scale(0.1 -0.1)">
      <use xlink:href="#DejaVuSans-31"/>
      <use x="63.623047" xlink:href="#DejaVuSans-30"/>
      <use x="127.246094" xlink:href="#DejaVuSans-39"/>
      <use x="190.869141" xlink:href="#DejaVuSans-36"/>
      <use x="254.492188" xlink:href="#DejaVuSans-36"/>
      <use x="318.115234" xlink:href="#DejaVuSans-5f"/>
      <use x="368.115234" xlink:href="#DejaVuSans-38"/>
      <use x="431.738281" xlink:href="#DejaVuSans-23"/>
      <use x="515.527344" xlink:href="#DejaVuSans-32"/>
      <use x="579.150391" xlink:href="#DejaVuSans-5f"/>
      <use x="629.150391" xlink:href="#DejaVuSans-43"/>
      <use x="698.974609" xlink:href="#DejaVuSans-35"/>
      <use x="762.597656" xlink:href="#DejaVuSans-37"/>
      <use x="826.220703" xlink:href="#DejaVuSans-42"/>
      <use x="894.824219" xlink:href="#DejaVuSans-4c"/>
      <use x="950.521484" xlink:href="#DejaVuSans-2d"/>
      <use x="986.605469" xlink:href="#DejaVuSans-36"/>
      <use x="1050.228516" xlink:href="#DejaVuSans-4a"/>
      <use x="1079.720703" xlink:href="#DejaVuSans-5f"/>
      <use x="1129.720703" xlink:href="#DejaVuSans-46"/>
      <use x="1187.162109" xlink:href="#DejaVuSans-65"/>
      <use x="1248.685547" xlink:href="#DejaVuSans-6d"/>
      <use x="1346.097656" xlink:href="#DejaVuSans-61"/>
      <use x="1407.376953" xlink:href="#DejaVuSans-6c"/>
      <use x="1435.160156" xlink:href="#DejaVuSans-65"/>
      <use x="1496.683594" xlink:href="#DejaVuSans-5f"/>
      <use x="1546.683594" xlink:href="#DejaVuSans-42"/>
     </g>
    </g>
    <g id="PathCollection_24">
     <g>
      <use style="fill:#3182bd;fill-opacity:0.6;" x="284.232813" xlink:href="#m6a73783803" y="264.892187"/>
     </g>
    </g>
    <g id="text_25">
     <!-- 10966_8#1_C57BL-6J_Female_B -->
     <g transform="translate(302.232813 267.517187)scale(0.1 -0.1)">
      <use xlink:href="#DejaVuSans-31"/>
      <use x="63.623047" xlink:href="#DejaVuSans-30"/>
      <use x="127.246094" xlink:href="#DejaVuSans-39"/>
      <use x="190.869141" xlink:href="#DejaVuSans-36"/>
      <use x="254.492188" xlink:href="#DejaVuSans-36"/>
      <use x="318.115234" xlink:href="#DejaVuSans-5f"/>
      <use x="368.115234" xlink:href="#DejaVuSans-38"/>
      <use x="431.738281" xlink:href="#DejaVuSans-23"/>
      <use x="515.527344" xlink:href="#DejaVuSans-31"/>
      <use x="579.150391" xlink:href="#DejaVuSans-5f"/>
      <use x="629.150391" xlink:href="#DejaVuSans-43"/>
      <use x="698.974609" xlink:href="#DejaVuSans-35"/>
      <use x="762.597656" xlink:href="#DejaVuSans-37"/>
      <use x="826.220703" xlink:href="#DejaVuSans-42"/>
      <use x="894.824219" xlink:href="#DejaVuSans-4c"/>
      <use x="950.521484" xlink:href="#DejaVuSans-2d"/>
      <use x="986.605469" xlink:href="#DejaVuSans-36"/>
      <use x="1050.228516" xlink:href="#DejaVuSans-4a"/>
      <use x="1079.720703" xlink:href="#DejaVuSans-5f"/>
      <use x="1129.720703" xlink:href="#DejaVuSans-46"/>
      <use x="1187.162109" xlink:href="#DejaVuSans-65"/>
      <use x="1248.685547" xlink:href="#DejaVuSans-6d"/>
      <use x="1346.097656" xlink:href="#DejaVuSans-61"/>
      <use x="1407.376953" xlink:href="#DejaVuSans-6c"/>
      <use x="1435.160156" xlink:href="#DejaVuSans-65"/>
      <use x="1496.683594" xlink:href="#DejaVuSans-5f"/>
      <use x="1546.683594" xlink:href="#DejaVuSans-42"/>
     </g>
    </g>
   </g>
  </g>
 </g>
 <defs>
  <clipPath id="p6409cfb342">
   <rect height="554.4" width="558" x="90" y="86.4"/>
  </clipPath>
 </defs>
</svg>
