<?xml version="1.0" encoding="utf-8" standalone="no"?>
<!DOCTYPE svg PUBLIC "-//W3C//DTD SVG 1.1//EN"
  "http://www.w3.org/Graphics/SVG/1.1/DTD/svg11.dtd">
<!-- Created with matplotlib (http://matplotlib.org/) -->
<svg height="576pt" version="1.1" viewBox="0 0 576 576" width="576pt" xmlns="http://www.w3.org/2000/svg" xmlns:xlink="http://www.w3.org/1999/xlink">
 <defs>
  <style type="text/css">
*{stroke-linecap:butt;stroke-linejoin:round;}
  </style>
 </defs>
 <g id="figure_1">
  <g id="patch_1">
   <path d="M 0 576 
L 576 576 
L 576 0 
L 0 0 
z
" style="fill:#ffffff;"/>
  </g>
  <g id="axes_1">
   <g id="patch_2">
    <path d="M 72 512.64 
L 518.4 512.64 
L 518.4 69.12 
L 72 69.12 
z
" style="fill:#ffffff;"/>
   </g>
   <g id="PathCollection_1">
    <defs>
     <path d="M 0 1.224745 
C 0.324806 1.224745 0.636353 1.095698 0.866025 0.866025 
C 1.095698 0.636353 1.224745 0.324806 1.224745 0 
C 1.224745 -0.324806 1.095698 -0.636353 0.866025 -0.866025 
C 0.636353 -1.095698 0.324806 -1.224745 0 -1.224745 
C -0.324806 -1.224745 -0.636353 -1.095698 -0.866025 -0.866025 
C -1.095698 -0.636353 -1.224745 -0.324806 -1.224745 0 
C -1.224745 0.324806 -1.095698 0.636353 -0.866025 0.866025 
C -0.636353 1.095698 -0.324806 1.224745 0 1.224745 
z
" id="mba840d64fc"/>
    </defs>
    <g clip-path="url(#p05132c01e3)">
     <use style="fill:#808080;fill-opacity:0.4;" x="384.283777" xlink:href="#mba840d64fc" y="404.972464"/>
     <use style="fill:#808080;fill-opacity:0.4;" x="288.567495" xlink:href="#mba840d64fc" y="460.446048"/>
     <use style="fill:#808080;fill-opacity:0.4;" x="271.019224" xlink:href="#mba840d64fc" y="444.848909"/>
     <use style="fill:#808080;fill-opacity:0.4;" x="282.677848" xlink:href="#mba840d64fc" y="358.613032"/>
     <use style="fill:#808080;fill-opacity:0.4;" x="337.98895" xlink:href="#mba840d64fc" y="422.317149"/>
     <use style="fill:#808080;fill-opacity:0.4;" x="283.057048" xlink:href="#mba840d64fc" y="453.407931"/>
     <use style="fill:#808080;fill-opacity:0.4;" x="250.794342" xlink:href="#mba840d64fc" y="372.251236"/>
     <use style="fill:#808080;fill-opacity:0.4;" x="169.001634" xlink:href="#mba840d64fc" y="357.31707"/>
     <use style="fill:#808080;fill-opacity:0.4;" x="318.270483" xlink:href="#mba840d64fc" y="410.249833"/>
     <use style="fill:#808080;fill-opacity:0.4;" x="162.828971" xlink:href="#mba840d64fc" y="322.23591"/>
     <use style="fill:#808080;fill-opacity:0.4;" x="250.802799" xlink:href="#mba840d64fc" y="371.103288"/>
     <use style="fill:#808080;fill-opacity:0.4;" x="266.6528" xlink:href="#mba840d64fc" y="422.673139"/>
     <use style="fill:#808080;fill-opacity:0.4;" x="267.215119" xlink:href="#mba840d64fc" y="423.534726"/>
     <use style="fill:#808080;fill-opacity:0.4;" x="296.917263" xlink:href="#mba840d64fc" y="437.262049"/>
    </g>
   </g>
   <g id="PathCollection_2">
    <defs>
     <path d="M 0 2.236068 
C 0.593012 2.236068 1.161816 2.000462 1.581139 1.581139 
C 2.000462 1.161816 2.236068 0.593012 2.236068 0 
C 2.236068 -0.593012 2.000462 -1.161816 1.581139 -1.581139 
C 1.161816 -2.000462 0.593012 -2.236068 0 -2.236068 
C -0.593012 -2.236068 -1.161816 -2.000462 -1.581139 -1.581139 
C -2.000462 -1.161816 -2.236068 -0.593012 -2.236068 0 
C -2.236068 0.593012 -2.000462 1.161816 -1.581139 1.581139 
C -1.161816 2.000462 -0.593012 2.236068 0 2.236068 
z
" id="me641c36b86"/>
    </defs>
    <g clip-path="url(#p05132c01e3)">
     <use style="fill:#ff0000;fill-opacity:0.7;" x="326.885919" xlink:href="#me641c36b86" y="416.35807"/>
     <use style="fill:#ff0000;fill-opacity:0.7;" x="319.627199" xlink:href="#me641c36b86" y="454.010141"/>
     <use style="fill:#ff0000;fill-opacity:0.7;" x="377.853469" xlink:href="#me641c36b86" y="264.933687"/>
     <use style="fill:#ff0000;fill-opacity:0.7;" x="324.40084" xlink:href="#me641c36b86" y="426.017488"/>
     <use style="fill:#ff0000;fill-opacity:0.7;" x="325.384628" xlink:href="#me641c36b86" y="403.718554"/>
     <use style="fill:#ff0000;fill-opacity:0.7;" x="277.107392" xlink:href="#me641c36b86" y="434.543645"/>
     <use style="fill:#ff0000;fill-opacity:0.7;" x="318.871517" xlink:href="#me641c36b86" y="395.681656"/>
     <use style="fill:#ff0000;fill-opacity:0.7;" x="311.332558" xlink:href="#me641c36b86" y="452.825904"/>
     <use style="fill:#ff0000;fill-opacity:0.7;" x="335.195588" xlink:href="#me641c36b86" y="388.201555"/>
     <use style="fill:#ff0000;fill-opacity:0.7;" x="90.468489" xlink:href="#me641c36b86" y="89.832446"/>
     <use style="fill:#ff0000;fill-opacity:0.7;" x="435.266833" xlink:href="#me641c36b86" y="301.884063"/>
     <use style="fill:#ff0000;fill-opacity:0.7;" x="339.684188" xlink:href="#me641c36b86" y="381.056131"/>
     <use style="fill:#ff0000;fill-opacity:0.7;" x="205.013197" xlink:href="#me641c36b86" y="412.79395"/>
     <use style="fill:#ff0000;fill-opacity:0.7;" x="276.583265" xlink:href="#me641c36b86" y="454.438237"/>
     <use style="fill:#ff0000;fill-opacity:0.7;" x="332.622443" xlink:href="#me641c36b86" y="346.271514"/>
     <use style="fill:#ff0000;fill-opacity:0.7;" x="272.628477" xlink:href="#me641c36b86" y="456.611018"/>
     <use style="fill:#ff0000;fill-opacity:0.7;" x="216.420912" xlink:href="#me641c36b86" y="425.205807"/>
     <use style="fill:#ff0000;fill-opacity:0.7;" x="352.902139" xlink:href="#me641c36b86" y="320.883834"/>
     <use style="fill:#ff0000;fill-opacity:0.7;" x="268.045855" xlink:href="#me641c36b86" y="423.801496"/>
     <use style="fill:#ff0000;fill-opacity:0.7;" x="220.460187" xlink:href="#me641c36b86" y="422.444469"/>
     <use style="fill:#ff0000;fill-opacity:0.7;" x="214.170971" xlink:href="#me641c36b86" y="237.267829"/>
     <use style="fill:#ff0000;fill-opacity:0.7;" x="325.958185" xlink:href="#me641c36b86" y="453.446331"/>
     <use style="fill:#ff0000;fill-opacity:0.7;" x="319.354985" xlink:href="#me641c36b86" y="411.512122"/>
     <use style="fill:#ff0000;fill-opacity:0.7;" x="172.416993" xlink:href="#me641c36b86" y="404.884202"/>
     <use style="fill:#ff0000;fill-opacity:0.7;" x="270.669937" xlink:href="#me641c36b86" y="340.712603"/>
     <use style="fill:#ff0000;fill-opacity:0.7;" x="327.295185" xlink:href="#me641c36b86" y="451.986617"/>
     <use style="fill:#ff0000;fill-opacity:0.7;" x="350.999836" xlink:href="#me641c36b86" y="434.616883"/>
     <use style="fill:#ff0000;fill-opacity:0.7;" x="235.734081" xlink:href="#me641c36b86" y="419.50908"/>
     <use style="fill:#ff0000;fill-opacity:0.7;" x="245.175839" xlink:href="#me641c36b86" y="434.760701"/>
     <use style="fill:#ff0000;fill-opacity:0.7;" x="341.631911" xlink:href="#me641c36b86" y="381.168183"/>
     <use style="fill:#ff0000;fill-opacity:0.7;" x="285.182985" xlink:href="#me641c36b86" y="361.927937"/>
     <use style="fill:#ff0000;fill-opacity:0.7;" x="257.518571" xlink:href="#me641c36b86" y="425.611169"/>
     <use style="fill:#ff0000;fill-opacity:0.7;" x="307.745476" xlink:href="#me641c36b86" y="460.34906"/>
     <use style="fill:#ff0000;fill-opacity:0.7;" x="249.287676" xlink:href="#me641c36b86" y="366.298774"/>
     <use style="fill:#ff0000;fill-opacity:0.7;" x="247.417299" xlink:href="#me641c36b86" y="457.185589"/>
     <use style="fill:#ff0000;fill-opacity:0.7;" x="261.946353" xlink:href="#me641c36b86" y="451.219421"/>
     <use style="fill:#ff0000;fill-opacity:0.7;" x="314.089685" xlink:href="#me641c36b86" y="441.328929"/>
     <use style="fill:#ff0000;fill-opacity:0.7;" x="277.548551" xlink:href="#me641c36b86" y="460.649141"/>
     <use style="fill:#ff0000;fill-opacity:0.7;" x="285.986268" xlink:href="#me641c36b86" y="458.782848"/>
     <use style="fill:#ff0000;fill-opacity:0.7;" x="316.833096" xlink:href="#me641c36b86" y="421.108496"/>
     <use style="fill:#ff0000;fill-opacity:0.7;" x="322.450918" xlink:href="#me641c36b86" y="438.368122"/>
     <use style="fill:#ff0000;fill-opacity:0.7;" x="341.457192" xlink:href="#me641c36b86" y="377.960033"/>
     <use style="fill:#ff0000;fill-opacity:0.7;" x="440.495474" xlink:href="#me641c36b86" y="263.137026"/>
     <use style="fill:#ff0000;fill-opacity:0.7;" x="351.618149" xlink:href="#me641c36b86" y="406.895729"/>
     <use style="fill:#ff0000;fill-opacity:0.7;" x="408.948707" xlink:href="#me641c36b86" y="320.266275"/>
     <use style="fill:#ff0000;fill-opacity:0.7;" x="367.956192" xlink:href="#me641c36b86" y="424.756507"/>
     <use style="fill:#ff0000;fill-opacity:0.7;" x="200.656762" xlink:href="#me641c36b86" y="410.847293"/>
     <use style="fill:#ff0000;fill-opacity:0.7;" x="317.308976" xlink:href="#me641c36b86" y="446.946155"/>
     <use style="fill:#ff0000;fill-opacity:0.7;" x="348.647105" xlink:href="#me641c36b86" y="373.482942"/>
     <use style="fill:#ff0000;fill-opacity:0.7;" x="237.583321" xlink:href="#me641c36b86" y="426.613661"/>
     <use style="fill:#ff0000;fill-opacity:0.7;" x="293.144138" xlink:href="#me641c36b86" y="426.027555"/>
     <use style="fill:#ff0000;fill-opacity:0.7;" x="230.06442" xlink:href="#me641c36b86" y="424.946414"/>
     <use style="fill:#ff0000;fill-opacity:0.7;" x="289.49771" xlink:href="#me641c36b86" y="411.998193"/>
     <use style="fill:#ff0000;fill-opacity:0.7;" x="210.956657" xlink:href="#me641c36b86" y="297.807374"/>
    </g>
   </g>
   <g id="PathCollection_3">
    <defs>
     <path d="M 0 2.236068 
C 0.593012 2.236068 1.161816 2.000462 1.581139 1.581139 
C 2.000462 1.161816 2.236068 0.593012 2.236068 0 
C 2.236068 -0.593012 2.000462 -1.161816 1.581139 -1.581139 
C 1.161816 -2.000462 0.593012 -2.236068 0 -2.236068 
C -0.593012 -2.236068 -1.161816 -2.000462 -1.581139 -1.581139 
C -2.000462 -1.161816 -2.236068 -0.593012 -2.236068 0 
C -2.236068 0.593012 -2.000462 1.161816 -1.581139 1.581139 
C -1.161816 2.000462 -0.593012 2.236068 0 2.236068 
z
" id="m6d972b2809"/>
    </defs>
    <g clip-path="url(#p05132c01e3)">
     <use style="fill:#0000ff;fill-opacity:0.7;" x="216.44509" xlink:href="#m6d972b2809" y="346.07549"/>
     <use style="fill:#0000ff;fill-opacity:0.7;" x="276.114853" xlink:href="#m6d972b2809" y="364.261993"/>
     <use style="fill:#0000ff;fill-opacity:0.7;" x="283.246654" xlink:href="#m6d972b2809" y="443.852866"/>
     <use style="fill:#0000ff;fill-opacity:0.7;" x="272.50962" xlink:href="#m6d972b2809" y="434.943487"/>
     <use style="fill:#0000ff;fill-opacity:0.7;" x="249.273385" xlink:href="#m6d972b2809" y="385.7247"/>
     <use style="fill:#0000ff;fill-opacity:0.7;" x="145.976486" xlink:href="#m6d972b2809" y="138.562668"/>
     <use style="fill:#0000ff;fill-opacity:0.7;" x="247.208916" xlink:href="#m6d972b2809" y="338.876801"/>
     <use style="fill:#0000ff;fill-opacity:0.7;" x="254.200245" xlink:href="#m6d972b2809" y="334.527392"/>
     <use style="fill:#0000ff;fill-opacity:0.7;" x="255.246637" xlink:href="#m6d972b2809" y="351.641081"/>
     <use style="fill:#0000ff;fill-opacity:0.7;" x="284.916096" xlink:href="#m6d972b2809" y="346.331546"/>
     <use style="fill:#0000ff;fill-opacity:0.7;" x="312.913909" xlink:href="#m6d972b2809" y="435.415885"/>
     <use style="fill:#0000ff;fill-opacity:0.7;" x="236.812725" xlink:href="#m6d972b2809" y="442.892194"/>
     <use style="fill:#0000ff;fill-opacity:0.7;" x="289.285658" xlink:href="#m6d972b2809" y="453.055499"/>
     <use style="fill:#0000ff;fill-opacity:0.7;" x="253.247308" xlink:href="#m6d972b2809" y="385.21273"/>
     <use style="fill:#0000ff;fill-opacity:0.7;" x="271.39732" xlink:href="#m6d972b2809" y="415.630979"/>
     <use style="fill:#0000ff;fill-opacity:0.7;" x="260.801514" xlink:href="#m6d972b2809" y="411.801394"/>
     <use style="fill:#0000ff;fill-opacity:0.7;" x="287.946234" xlink:href="#m6d972b2809" y="433.037316"/>
     <use style="fill:#0000ff;fill-opacity:0.7;" x="279.758428" xlink:href="#m6d972b2809" y="441.557712"/>
     <use style="fill:#0000ff;fill-opacity:0.7;" x="129.040838" xlink:href="#m6d972b2809" y="296.772819"/>
     <use style="fill:#0000ff;fill-opacity:0.7;" x="282.282966" xlink:href="#m6d972b2809" y="460.432246"/>
     <use style="fill:#0000ff;fill-opacity:0.7;" x="208.839101" xlink:href="#m6d972b2809" y="443.685748"/>
     <use style="fill:#0000ff;fill-opacity:0.7;" x="208.744894" xlink:href="#m6d972b2809" y="412.349653"/>
     <use style="fill:#0000ff;fill-opacity:0.7;" x="166.198587" xlink:href="#m6d972b2809" y="435.198322"/>
     <use style="fill:#0000ff;fill-opacity:0.7;" x="155.079909" xlink:href="#m6d972b2809" y="294.163336"/>
     <use style="fill:#0000ff;fill-opacity:0.7;" x="176.633137" xlink:href="#m6d972b2809" y="349.457598"/>
     <use style="fill:#0000ff;fill-opacity:0.7;" x="257.382188" xlink:href="#m6d972b2809" y="440.45173"/>
     <use style="fill:#0000ff;fill-opacity:0.7;" x="276.499043" xlink:href="#m6d972b2809" y="401.443156"/>
    </g>
   </g>
   <g id="matplotlib.axis_1">
    <g id="xtick_1">
     <g id="line2d_1">
      <defs>
       <path d="M 0 0 
L 0 3.5 
" id="m7b94a04107" style="stroke:#000000;stroke-width:0.8;"/>
      </defs>
      <g>
       <use style="stroke:#000000;stroke-width:0.8;" x="127.17191" xlink:href="#m7b94a04107" y="512.64"/>
      </g>
     </g>
     <g id="text_1">
      <!-- −4 -->
      <defs>
       <path d="M 10.59375 35.5 
L 73.1875 35.5 
L 73.1875 27.203125 
L 10.59375 27.203125 
z
" id="DejaVuSans-2212"/>
       <path d="M 37.796875 64.3125 
L 12.890625 25.390625 
L 37.796875 25.390625 
z
M 35.203125 72.90625 
L 47.609375 72.90625 
L 47.609375 25.390625 
L 58.015625 25.390625 
L 58.015625 17.1875 
L 47.609375 17.1875 
L 47.609375 0 
L 37.796875 0 
L 37.796875 17.1875 
L 4.890625 17.1875 
L 4.890625 26.703125 
z
" id="DejaVuSans-34"/>
      </defs>
      <g transform="translate(119.800817 527.238438)scale(0.1 -0.1)">
       <use xlink:href="#DejaVuSans-2212"/>
       <use x="83.789062" xlink:href="#DejaVuSans-34"/>
      </g>
     </g>
    </g>
    <g id="xtick_2">
     <g id="line2d_2">
      <g>
       <use style="stroke:#000000;stroke-width:0.8;" x="211.185955" xlink:href="#m7b94a04107" y="512.64"/>
      </g>
     </g>
     <g id="text_2">
      <!-- −2 -->
      <defs>
       <path d="M 19.1875 8.296875 
L 53.609375 8.296875 
L 53.609375 0 
L 7.328125 0 
L 7.328125 8.296875 
Q 12.9375 14.109375 22.625 23.890625 
Q 32.328125 33.6875 34.8125 36.53125 
Q 39.546875 41.84375 41.421875 45.53125 
Q 43.3125 49.21875 43.3125 52.78125 
Q 43.3125 58.59375 39.234375 62.25 
Q 35.15625 65.921875 28.609375 65.921875 
Q 23.96875 65.921875 18.8125 64.3125 
Q 13.671875 62.703125 7.8125 59.421875 
L 7.8125 69.390625 
Q 13.765625 71.78125 18.9375 73 
Q 24.125 74.21875 28.421875 74.21875 
Q 39.75 74.21875 46.484375 68.546875 
Q 53.21875 62.890625 53.21875 53.421875 
Q 53.21875 48.921875 51.53125 44.890625 
Q 49.859375 40.875 45.40625 35.40625 
Q 44.1875 33.984375 37.640625 27.21875 
Q 31.109375 20.453125 19.1875 8.296875 
z
" id="DejaVuSans-32"/>
      </defs>
      <g transform="translate(203.814861 527.238438)scale(0.1 -0.1)">
       <use xlink:href="#DejaVuSans-2212"/>
       <use x="83.789062" xlink:href="#DejaVuSans-32"/>
      </g>
     </g>
    </g>
    <g id="xtick_3">
     <g id="line2d_3">
      <g>
       <use style="stroke:#000000;stroke-width:0.8;" x="295.2" xlink:href="#m7b94a04107" y="512.64"/>
      </g>
     </g>
     <g id="text_3">
      <!-- 0 -->
      <defs>
       <path d="M 31.78125 66.40625 
Q 24.171875 66.40625 20.328125 58.90625 
Q 16.5 51.421875 16.5 36.375 
Q 16.5 21.390625 20.328125 13.890625 
Q 24.171875 6.390625 31.78125 6.390625 
Q 39.453125 6.390625 43.28125 13.890625 
Q 47.125 21.390625 47.125 36.375 
Q 47.125 51.421875 43.28125 58.90625 
Q 39.453125 66.40625 31.78125 66.40625 
z
M 31.78125 74.21875 
Q 44.046875 74.21875 50.515625 64.515625 
Q 56.984375 54.828125 56.984375 36.375 
Q 56.984375 17.96875 50.515625 8.265625 
Q 44.046875 -1.421875 31.78125 -1.421875 
Q 19.53125 -1.421875 13.0625 8.265625 
Q 6.59375 17.96875 6.59375 36.375 
Q 6.59375 54.828125 13.0625 64.515625 
Q 19.53125 74.21875 31.78125 74.21875 
z
" id="DejaVuSans-30"/>
      </defs>
      <g transform="translate(292.01875 527.238438)scale(0.1 -0.1)">
       <use xlink:href="#DejaVuSans-30"/>
      </g>
     </g>
    </g>
    <g id="xtick_4">
     <g id="line2d_4">
      <g>
       <use style="stroke:#000000;stroke-width:0.8;" x="379.214045" xlink:href="#m7b94a04107" y="512.64"/>
      </g>
     </g>
     <g id="text_4">
      <!-- 2 -->
      <g transform="translate(376.032795 527.238438)scale(0.1 -0.1)">
       <use xlink:href="#DejaVuSans-32"/>
      </g>
     </g>
    </g>
    <g id="xtick_5">
     <g id="line2d_5">
      <g>
       <use style="stroke:#000000;stroke-width:0.8;" x="463.22809" xlink:href="#m7b94a04107" y="512.64"/>
      </g>
     </g>
     <g id="text_5">
      <!-- 4 -->
      <g transform="translate(460.04684 527.238438)scale(0.1 -0.1)">
       <use xlink:href="#DejaVuSans-34"/>
      </g>
     </g>
    </g>
    <g id="text_6">
     <!-- $\log_2(FC)$ -->
     <defs>
      <path d="M 9.421875 75.984375 
L 18.40625 75.984375 
L 18.40625 0 
L 9.421875 0 
z
" id="DejaVuSans-6c"/>
      <path d="M 30.609375 48.390625 
Q 23.390625 48.390625 19.1875 42.75 
Q 14.984375 37.109375 14.984375 27.296875 
Q 14.984375 17.484375 19.15625 11.84375 
Q 23.34375 6.203125 30.609375 6.203125 
Q 37.796875 6.203125 41.984375 11.859375 
Q 46.1875 17.53125 46.1875 27.296875 
Q 46.1875 37.015625 41.984375 42.703125 
Q 37.796875 48.390625 30.609375 48.390625 
z
M 30.609375 56 
Q 42.328125 56 49.015625 48.375 
Q 55.71875 40.765625 55.71875 27.296875 
Q 55.71875 13.875 49.015625 6.21875 
Q 42.328125 -1.421875 30.609375 -1.421875 
Q 18.84375 -1.421875 12.171875 6.21875 
Q 5.515625 13.875 5.515625 27.296875 
Q 5.515625 40.765625 12.171875 48.375 
Q 18.84375 56 30.609375 56 
z
" id="DejaVuSans-6f"/>
      <path d="M 45.40625 27.984375 
Q 45.40625 37.75 41.375 43.109375 
Q 37.359375 48.484375 30.078125 48.484375 
Q 22.859375 48.484375 18.828125 43.109375 
Q 14.796875 37.75 14.796875 27.984375 
Q 14.796875 18.265625 18.828125 12.890625 
Q 22.859375 7.515625 30.078125 7.515625 
Q 37.359375 7.515625 41.375 12.890625 
Q 45.40625 18.265625 45.40625 27.984375 
z
M 54.390625 6.78125 
Q 54.390625 -7.171875 48.1875 -13.984375 
Q 42 -20.796875 29.203125 -20.796875 
Q 24.46875 -20.796875 20.265625 -20.09375 
Q 16.0625 -19.390625 12.109375 -17.921875 
L 12.109375 -9.1875 
Q 16.0625 -11.328125 19.921875 -12.34375 
Q 23.78125 -13.375 27.78125 -13.375 
Q 36.625 -13.375 41.015625 -8.765625 
Q 45.40625 -4.15625 45.40625 5.171875 
L 45.40625 9.625 
Q 42.625 4.78125 38.28125 2.390625 
Q 33.9375 0 27.875 0 
Q 17.828125 0 11.671875 7.65625 
Q 5.515625 15.328125 5.515625 27.984375 
Q 5.515625 40.671875 11.671875 48.328125 
Q 17.828125 56 27.875 56 
Q 33.9375 56 38.28125 53.609375 
Q 42.625 51.21875 45.40625 46.390625 
L 45.40625 54.6875 
L 54.390625 54.6875 
z
" id="DejaVuSans-67"/>
      <path d="M 31 75.875 
Q 24.46875 64.65625 21.28125 53.65625 
Q 18.109375 42.671875 18.109375 31.390625 
Q 18.109375 20.125 21.3125 9.0625 
Q 24.515625 -2 31 -13.1875 
L 23.1875 -13.1875 
Q 15.875 -1.703125 12.234375 9.375 
Q 8.59375 20.453125 8.59375 31.390625 
Q 8.59375 42.28125 12.203125 53.3125 
Q 15.828125 64.359375 23.1875 75.875 
z
" id="DejaVuSans-28"/>
      <path d="M 16.890625 72.90625 
L 58.6875 72.90625 
L 57.078125 64.59375 
L 25.09375 64.59375 
L 20.90625 43.109375 
L 49.8125 43.109375 
L 48.1875 34.8125 
L 19.28125 34.8125 
L 12.5 0 
L 2.6875 0 
z
" id="DejaVuSans-Oblique-46"/>
      <path d="M 69.484375 67.28125 
L 67.484375 56.890625 
Q 62.796875 61.625 57.546875 63.921875 
Q 52.296875 66.21875 46.1875 66.21875 
Q 37.84375 66.21875 31.515625 62.203125 
Q 25.203125 58.203125 20.609375 50 
Q 17.671875 44.734375 16.125 38.84375 
Q 14.59375 32.953125 14.59375 27 
Q 14.59375 17.046875 19.75 11.8125 
Q 24.90625 6.59375 34.71875 6.59375 
Q 41.5 6.59375 47.75 8.765625 
Q 54 10.9375 59.90625 15.28125 
L 57.625 3.609375 
Q 51.8125 1.125 45.875 -0.140625 
Q 39.9375 -1.421875 33.984375 -1.421875 
Q 19.96875 -1.421875 12.078125 6.1875 
Q 4.203125 13.8125 4.203125 27.390625 
Q 4.203125 36.078125 7.203125 44.46875 
Q 10.203125 52.875 15.828125 59.8125 
Q 21.78125 67.1875 29.421875 70.703125 
Q 37.0625 74.21875 47.21875 74.21875 
Q 53.46875 74.21875 59.0625 72.484375 
Q 64.65625 70.75 69.484375 67.28125 
z
" id="DejaVuSans-Oblique-43"/>
      <path d="M 8.015625 75.875 
L 15.828125 75.875 
Q 23.140625 64.359375 26.78125 53.3125 
Q 30.421875 42.28125 30.421875 31.390625 
Q 30.421875 20.453125 26.78125 9.375 
Q 23.140625 -1.703125 15.828125 -13.1875 
L 8.015625 -13.1875 
Q 14.5 -2 17.703125 9.0625 
Q 20.90625 20.125 20.90625 31.390625 
Q 20.90625 42.671875 17.703125 53.65625 
Q 14.5 64.65625 8.015625 75.875 
z
" id="DejaVuSans-29"/>
     </defs>
     <g transform="translate(274.85 540.918125)scale(0.1 -0.1)">
      <use transform="translate(0 0.015625)" xlink:href="#DejaVuSans-6c"/>
      <use transform="translate(27.783203 0.015625)" xlink:href="#DejaVuSans-6f"/>
      <use transform="translate(88.964844 0.015625)" xlink:href="#DejaVuSans-67"/>
      <use transform="translate(153.398438 -16.390625)scale(0.7)" xlink:href="#DejaVuSans-32"/>
      <use transform="translate(200.668945 0.015625)" xlink:href="#DejaVuSans-28"/>
      <use transform="translate(239.682617 0.015625)" xlink:href="#DejaVuSans-Oblique-46"/>
      <use transform="translate(297.202148 0.015625)" xlink:href="#DejaVuSans-Oblique-43"/>
      <use transform="translate(367.026367 0.015625)" xlink:href="#DejaVuSans-29"/>
     </g>
    </g>
   </g>
   <g id="matplotlib.axis_2">
    <g id="ytick_1">
     <g id="line2d_6">
      <defs>
       <path d="M 0 0 
L -3.5 0 
" id="mef2cd5bb84" style="stroke:#000000;stroke-width:0.8;"/>
      </defs>
      <g>
       <use style="stroke:#000000;stroke-width:0.8;" x="295.2" xlink:href="#mef2cd5bb84" y="467.123882"/>
      </g>
     </g>
     <g id="text_7">
      <!-- 2 -->
      <g transform="translate(281.8375 470.923101)scale(0.1 -0.1)">
       <use xlink:href="#DejaVuSans-32"/>
      </g>
     </g>
    </g>
    <g id="ytick_2">
     <g id="line2d_7">
      <g>
       <use style="stroke:#000000;stroke-width:0.8;" x="295.2" xlink:href="#mef2cd5bb84" y="394.571075"/>
      </g>
     </g>
     <g id="text_8">
      <!-- 4 -->
      <g transform="translate(281.8375 398.370294)scale(0.1 -0.1)">
       <use xlink:href="#DejaVuSans-34"/>
      </g>
     </g>
    </g>
    <g id="ytick_3">
     <g id="line2d_8">
      <g>
       <use style="stroke:#000000;stroke-width:0.8;" x="295.2" xlink:href="#mef2cd5bb84" y="322.018268"/>
      </g>
     </g>
     <g id="text_9">
      <!-- 6 -->
      <defs>
       <path d="M 33.015625 40.375 
Q 26.375 40.375 22.484375 35.828125 
Q 18.609375 31.296875 18.609375 23.390625 
Q 18.609375 15.53125 22.484375 10.953125 
Q 26.375 6.390625 33.015625 6.390625 
Q 39.65625 6.390625 43.53125 10.953125 
Q 47.40625 15.53125 47.40625 23.390625 
Q 47.40625 31.296875 43.53125 35.828125 
Q 39.65625 40.375 33.015625 40.375 
z
M 52.59375 71.296875 
L 52.59375 62.3125 
Q 48.875 64.0625 45.09375 64.984375 
Q 41.3125 65.921875 37.59375 65.921875 
Q 27.828125 65.921875 22.671875 59.328125 
Q 17.53125 52.734375 16.796875 39.40625 
Q 19.671875 43.65625 24.015625 45.921875 
Q 28.375 48.1875 33.59375 48.1875 
Q 44.578125 48.1875 50.953125 41.515625 
Q 57.328125 34.859375 57.328125 23.390625 
Q 57.328125 12.15625 50.6875 5.359375 
Q 44.046875 -1.421875 33.015625 -1.421875 
Q 20.359375 -1.421875 13.671875 8.265625 
Q 6.984375 17.96875 6.984375 36.375 
Q 6.984375 53.65625 15.1875 63.9375 
Q 23.390625 74.21875 37.203125 74.21875 
Q 40.921875 74.21875 44.703125 73.484375 
Q 48.484375 72.75 52.59375 71.296875 
z
" id="DejaVuSans-36"/>
      </defs>
      <g transform="translate(281.8375 325.817487)scale(0.1 -0.1)">
       <use xlink:href="#DejaVuSans-36"/>
      </g>
     </g>
    </g>
    <g id="ytick_4">
     <g id="line2d_9">
      <g>
       <use style="stroke:#000000;stroke-width:0.8;" x="295.2" xlink:href="#mef2cd5bb84" y="249.465461"/>
      </g>
     </g>
     <g id="text_10">
      <!-- 8 -->
      <defs>
       <path d="M 31.78125 34.625 
Q 24.75 34.625 20.71875 30.859375 
Q 16.703125 27.09375 16.703125 20.515625 
Q 16.703125 13.921875 20.71875 10.15625 
Q 24.75 6.390625 31.78125 6.390625 
Q 38.8125 6.390625 42.859375 10.171875 
Q 46.921875 13.96875 46.921875 20.515625 
Q 46.921875 27.09375 42.890625 30.859375 
Q 38.875 34.625 31.78125 34.625 
z
M 21.921875 38.8125 
Q 15.578125 40.375 12.03125 44.71875 
Q 8.5 49.078125 8.5 55.328125 
Q 8.5 64.0625 14.71875 69.140625 
Q 20.953125 74.21875 31.78125 74.21875 
Q 42.671875 74.21875 48.875 69.140625 
Q 55.078125 64.0625 55.078125 55.328125 
Q 55.078125 49.078125 51.53125 44.71875 
Q 48 40.375 41.703125 38.8125 
Q 48.828125 37.15625 52.796875 32.3125 
Q 56.78125 27.484375 56.78125 20.515625 
Q 56.78125 9.90625 50.3125 4.234375 
Q 43.84375 -1.421875 31.78125 -1.421875 
Q 19.734375 -1.421875 13.25 4.234375 
Q 6.78125 9.90625 6.78125 20.515625 
Q 6.78125 27.484375 10.78125 32.3125 
Q 14.796875 37.15625 21.921875 38.8125 
z
M 18.3125 54.390625 
Q 18.3125 48.734375 21.84375 45.5625 
Q 25.390625 42.390625 31.78125 42.390625 
Q 38.140625 42.390625 41.71875 45.5625 
Q 45.3125 48.734375 45.3125 54.390625 
Q 45.3125 60.0625 41.71875 63.234375 
Q 38.140625 66.40625 31.78125 66.40625 
Q 25.390625 66.40625 21.84375 63.234375 
Q 18.3125 60.0625 18.3125 54.390625 
z
" id="DejaVuSans-38"/>
      </defs>
      <g transform="translate(281.8375 253.26468)scale(0.1 -0.1)">
       <use xlink:href="#DejaVuSans-38"/>
      </g>
     </g>
    </g>
    <g id="ytick_5">
     <g id="line2d_10">
      <g>
       <use style="stroke:#000000;stroke-width:0.8;" x="295.2" xlink:href="#mef2cd5bb84" y="176.912654"/>
      </g>
     </g>
     <g id="text_11">
      <!-- 10 -->
      <defs>
       <path d="M 12.40625 8.296875 
L 28.515625 8.296875 
L 28.515625 63.921875 
L 10.984375 60.40625 
L 10.984375 69.390625 
L 28.421875 72.90625 
L 38.28125 72.90625 
L 38.28125 8.296875 
L 54.390625 8.296875 
L 54.390625 0 
L 12.40625 0 
z
" id="DejaVuSans-31"/>
      </defs>
      <g transform="translate(275.475 180.711872)scale(0.1 -0.1)">
       <use xlink:href="#DejaVuSans-31"/>
       <use x="63.623047" xlink:href="#DejaVuSans-30"/>
      </g>
     </g>
    </g>
    <g id="ytick_6">
     <g id="line2d_11">
      <g>
       <use style="stroke:#000000;stroke-width:0.8;" x="295.2" xlink:href="#mef2cd5bb84" y="104.359847"/>
      </g>
     </g>
     <g id="text_12">
      <!-- 12 -->
      <g transform="translate(275.475 108.159065)scale(0.1 -0.1)">
       <use xlink:href="#DejaVuSans-31"/>
       <use x="63.623047" xlink:href="#DejaVuSans-32"/>
      </g>
     </g>
    </g>
    <g id="text_13">
     <!-- $-\log_{10}(p)$ -->
     <defs>
      <path d="M 49.609375 33.6875 
Q 49.609375 40.875 46.484375 44.671875 
Q 43.359375 48.484375 37.5 48.484375 
Q 33.5 48.484375 29.859375 46.4375 
Q 26.21875 44.390625 23.390625 40.484375 
Q 20.609375 36.625 18.9375 31.15625 
Q 17.28125 25.6875 17.28125 20.3125 
Q 17.28125 13.484375 20.40625 9.796875 
Q 23.53125 6.109375 29.296875 6.109375 
Q 33.546875 6.109375 37.1875 8.109375 
Q 40.828125 10.109375 43.40625 13.921875 
Q 46.1875 17.921875 47.890625 23.34375 
Q 49.609375 28.765625 49.609375 33.6875 
z
M 21.78125 46.390625 
Q 25.390625 51.125 30.296875 53.5625 
Q 35.203125 56 41.21875 56 
Q 49.609375 56 54.25 50.5 
Q 58.890625 45.015625 58.890625 35.109375 
Q 58.890625 27 56 19.65625 
Q 53.125 12.3125 47.703125 6.5 
Q 44.09375 2.640625 39.546875 0.609375 
Q 35.015625 -1.421875 29.984375 -1.421875 
Q 24.171875 -1.421875 20.21875 1 
Q 16.265625 3.421875 14.3125 8.203125 
L 8.6875 -20.796875 
L -0.296875 -20.796875 
L 14.40625 54.6875 
L 23.390625 54.6875 
z
" id="DejaVuSans-Oblique-70"/>
     </defs>
     <g transform="translate(271.65 44.844)scale(0.1 -0.1)">
      <use transform="translate(0 0.015625)" xlink:href="#DejaVuSans-2212"/>
      <use transform="translate(83.789062 0.015625)" xlink:href="#DejaVuSans-6c"/>
      <use transform="translate(111.572266 0.015625)" xlink:href="#DejaVuSans-6f"/>
      <use transform="translate(172.753906 0.015625)" xlink:href="#DejaVuSans-67"/>
      <use transform="translate(237.1875 -16.390625)scale(0.7)" xlink:href="#DejaVuSans-31"/>
      <use transform="translate(281.723633 -16.390625)scale(0.7)" xlink:href="#DejaVuSans-30"/>
      <use transform="translate(328.994141 0.015625)" xlink:href="#DejaVuSans-28"/>
      <use transform="translate(368.007812 0.015625)" xlink:href="#DejaVuSans-Oblique-70"/>
      <use transform="translate(431.484375 0.015625)" xlink:href="#DejaVuSans-29"/>
     </g>
    </g>
   </g>
   <g id="line2d_12">
    <path clip-path="url(#p05132c01e3)" d="M 72 492.48 
L 518.4 492.48 
" style="fill:none;stroke:#000000;stroke-dasharray:5.55,2.4;stroke-dashoffset:0;stroke-width:1.5;"/>
   </g>
   <g id="patch_3">
    <path d="M 295.2 512.64 
L 295.2 69.12 
" style="fill:none;stroke:#000000;stroke-linecap:square;stroke-linejoin:miter;stroke-width:0.8;"/>
   </g>
   <g id="patch_4">
    <path d="M 518.4 512.64 
L 518.4 69.12 
" style="fill:none;"/>
   </g>
   <g id="patch_5">
    <path d="M 72 512.64 
L 518.4 512.64 
" style="fill:none;stroke:#000000;stroke-linecap:square;stroke-linejoin:miter;stroke-width:0.8;"/>
   </g>
   <g id="patch_6">
    <path d="M 72 69.12 
L 518.4 69.12 
" style="fill:none;"/>
   </g>
   <g id="text_14">
    <!-- $p=0.05$ -->
    <defs>
     <path d="M 10.59375 45.40625 
L 73.1875 45.40625 
L 73.1875 37.203125 
L 10.59375 37.203125 
z
M 10.59375 25.484375 
L 73.1875 25.484375 
L 73.1875 17.1875 
L 10.59375 17.1875 
z
" id="DejaVuSans-3d"/>
     <path d="M 10.6875 12.40625 
L 21 12.40625 
L 21 0 
L 10.6875 0 
z
" id="DejaVuSans-2e"/>
     <path d="M 10.796875 72.90625 
L 49.515625 72.90625 
L 49.515625 64.59375 
L 19.828125 64.59375 
L 19.828125 46.734375 
Q 21.96875 47.46875 24.109375 47.828125 
Q 26.265625 48.1875 28.421875 48.1875 
Q 40.625 48.1875 47.75 41.5 
Q 54.890625 34.8125 54.890625 23.390625 
Q 54.890625 11.625 47.5625 5.09375 
Q 40.234375 -1.421875 26.90625 -1.421875 
Q 22.3125 -1.421875 17.546875 -0.640625 
Q 12.796875 0.140625 7.71875 1.703125 
L 7.71875 11.625 
Q 12.109375 9.234375 16.796875 8.0625 
Q 21.484375 6.890625 26.703125 6.890625 
Q 35.15625 6.890625 40.078125 11.328125 
Q 45.015625 15.765625 45.015625 23.390625 
Q 45.015625 31 40.078125 35.4375 
Q 35.15625 39.890625 26.703125 39.890625 
Q 22.75 39.890625 18.8125 39.015625 
Q 14.890625 38.140625 10.796875 36.28125 
z
" id="DejaVuSans-35"/>
    </defs>
    <g transform="translate(43.157866 485.400497)scale(0.1 -0.1)">
     <use transform="translate(0 0.78125)" xlink:href="#DejaVuSans-Oblique-70"/>
     <use transform="translate(82.958984 0.78125)" xlink:href="#DejaVuSans-3d"/>
     <use transform="translate(186.230469 0.78125)" xlink:href="#DejaVuSans-30"/>
     <use transform="translate(249.853516 0.78125)" xlink:href="#DejaVuSans-2e"/>
     <use transform="translate(281.640625 0.78125)" xlink:href="#DejaVuSans-30"/>
     <use transform="translate(345.263672 0.78125)" xlink:href="#DejaVuSans-35"/>
    </g>
   </g>
   <g id="legend_1">
    <g id="patch_7">
     <path d="M -10.253125 482.168188 
L 70 482.168188 
Q 72 482.168188 72 480.168188 
L 72 425.936 
Q 72 423.936 70 423.936 
L -10.253125 423.936 
Q -12.253125 423.936 -12.253125 425.936 
L -12.253125 480.168188 
Q -12.253125 482.168188 -10.253125 482.168188 
z
" style="fill:#ffffff;opacity:0.8;stroke:#cccccc;stroke-linejoin:miter;"/>
    </g>
    <g id="PathCollection_4">
     <g>
      <use style="fill:#808080;fill-opacity:0.4;" x="1.746875" xlink:href="#mba840d64fc" y="439.548188"/>
     </g>
    </g>
    <g id="text_15">
     <!-- Both -->
     <defs>
      <path d="M 19.671875 34.8125 
L 19.671875 8.109375 
L 35.5 8.109375 
Q 43.453125 8.109375 47.28125 11.40625 
Q 51.125 14.703125 51.125 21.484375 
Q 51.125 28.328125 47.28125 31.5625 
Q 43.453125 34.8125 35.5 34.8125 
z
M 19.671875 64.796875 
L 19.671875 42.828125 
L 34.28125 42.828125 
Q 41.5 42.828125 45.03125 45.53125 
Q 48.578125 48.25 48.578125 53.8125 
Q 48.578125 59.328125 45.03125 62.0625 
Q 41.5 64.796875 34.28125 64.796875 
z
M 9.8125 72.90625 
L 35.015625 72.90625 
Q 46.296875 72.90625 52.390625 68.21875 
Q 58.5 63.53125 58.5 54.890625 
Q 58.5 48.1875 55.375 44.234375 
Q 52.25 40.28125 46.1875 39.3125 
Q 53.46875 37.75 57.5 32.78125 
Q 61.53125 27.828125 61.53125 20.40625 
Q 61.53125 10.640625 54.890625 5.3125 
Q 48.25 0 35.984375 0 
L 9.8125 0 
z
" id="DejaVuSans-42"/>
      <path d="M 18.3125 70.21875 
L 18.3125 54.6875 
L 36.8125 54.6875 
L 36.8125 47.703125 
L 18.3125 47.703125 
L 18.3125 18.015625 
Q 18.3125 11.328125 20.140625 9.421875 
Q 21.96875 7.515625 27.59375 7.515625 
L 36.8125 7.515625 
L 36.8125 0 
L 27.59375 0 
Q 17.1875 0 13.234375 3.875 
Q 9.28125 7.765625 9.28125 18.015625 
L 9.28125 47.703125 
L 2.6875 47.703125 
L 2.6875 54.6875 
L 9.28125 54.6875 
L 9.28125 70.21875 
z
" id="DejaVuSans-74"/>
      <path d="M 54.890625 33.015625 
L 54.890625 0 
L 45.90625 0 
L 45.90625 32.71875 
Q 45.90625 40.484375 42.875 44.328125 
Q 39.84375 48.1875 33.796875 48.1875 
Q 26.515625 48.1875 22.3125 43.546875 
Q 18.109375 38.921875 18.109375 30.90625 
L 18.109375 0 
L 9.078125 0 
L 9.078125 75.984375 
L 18.109375 75.984375 
L 18.109375 46.1875 
Q 21.34375 51.125 25.703125 53.5625 
Q 30.078125 56 35.796875 56 
Q 45.21875 56 50.046875 50.171875 
Q 54.890625 44.34375 54.890625 33.015625 
z
" id="DejaVuSans-68"/>
     </defs>
     <g transform="translate(19.746875 435.534438)scale(0.1 -0.1)">
      <use xlink:href="#DejaVuSans-42"/>
      <use x="68.603516" xlink:href="#DejaVuSans-6f"/>
      <use x="129.785156" xlink:href="#DejaVuSans-74"/>
      <use x="168.994141" xlink:href="#DejaVuSans-68"/>
     </g>
     <!-- cell types -->
     <defs>
      <path d="M 48.78125 52.59375 
L 48.78125 44.1875 
Q 44.96875 46.296875 41.140625 47.34375 
Q 37.3125 48.390625 33.40625 48.390625 
Q 24.65625 48.390625 19.8125 42.84375 
Q 14.984375 37.3125 14.984375 27.296875 
Q 14.984375 17.28125 19.8125 11.734375 
Q 24.65625 6.203125 33.40625 6.203125 
Q 37.3125 6.203125 41.140625 7.25 
Q 44.96875 8.296875 48.78125 10.40625 
L 48.78125 2.09375 
Q 45.015625 0.34375 40.984375 -0.53125 
Q 36.96875 -1.421875 32.421875 -1.421875 
Q 20.0625 -1.421875 12.78125 6.34375 
Q 5.515625 14.109375 5.515625 27.296875 
Q 5.515625 40.671875 12.859375 48.328125 
Q 20.21875 56 33.015625 56 
Q 37.15625 56 41.109375 55.140625 
Q 45.0625 54.296875 48.78125 52.59375 
z
" id="DejaVuSans-63"/>
      <path d="M 56.203125 29.59375 
L 56.203125 25.203125 
L 14.890625 25.203125 
Q 15.484375 15.921875 20.484375 11.0625 
Q 25.484375 6.203125 34.421875 6.203125 
Q 39.59375 6.203125 44.453125 7.46875 
Q 49.3125 8.734375 54.109375 11.28125 
L 54.109375 2.78125 
Q 49.265625 0.734375 44.1875 -0.34375 
Q 39.109375 -1.421875 33.890625 -1.421875 
Q 20.796875 -1.421875 13.15625 6.1875 
Q 5.515625 13.8125 5.515625 26.8125 
Q 5.515625 40.234375 12.765625 48.109375 
Q 20.015625 56 32.328125 56 
Q 43.359375 56 49.78125 48.890625 
Q 56.203125 41.796875 56.203125 29.59375 
z
M 47.21875 32.234375 
Q 47.125 39.59375 43.09375 43.984375 
Q 39.0625 48.390625 32.421875 48.390625 
Q 24.90625 48.390625 20.390625 44.140625 
Q 15.875 39.890625 15.1875 32.171875 
z
" id="DejaVuSans-65"/>
      <path id="DejaVuSans-20"/>
      <path d="M 32.171875 -5.078125 
Q 28.375 -14.84375 24.75 -17.8125 
Q 21.140625 -20.796875 15.09375 -20.796875 
L 7.90625 -20.796875 
L 7.90625 -13.28125 
L 13.1875 -13.28125 
Q 16.890625 -13.28125 18.9375 -11.515625 
Q 21 -9.765625 23.484375 -3.21875 
L 25.09375 0.875 
L 2.984375 54.6875 
L 12.5 54.6875 
L 29.59375 11.921875 
L 46.6875 54.6875 
L 56.203125 54.6875 
z
" id="DejaVuSans-79"/>
      <path d="M 18.109375 8.203125 
L 18.109375 -20.796875 
L 9.078125 -20.796875 
L 9.078125 54.6875 
L 18.109375 54.6875 
L 18.109375 46.390625 
Q 20.953125 51.265625 25.265625 53.625 
Q 29.59375 56 35.59375 56 
Q 45.5625 56 51.78125 48.09375 
Q 58.015625 40.1875 58.015625 27.296875 
Q 58.015625 14.40625 51.78125 6.484375 
Q 45.5625 -1.421875 35.59375 -1.421875 
Q 29.59375 -1.421875 25.265625 0.953125 
Q 20.953125 3.328125 18.109375 8.203125 
z
M 48.6875 27.296875 
Q 48.6875 37.203125 44.609375 42.84375 
Q 40.53125 48.484375 33.40625 48.484375 
Q 26.265625 48.484375 22.1875 42.84375 
Q 18.109375 37.203125 18.109375 27.296875 
Q 18.109375 17.390625 22.1875 11.75 
Q 26.265625 6.109375 33.40625 6.109375 
Q 40.53125 6.109375 44.609375 11.75 
Q 48.6875 17.390625 48.6875 27.296875 
z
" id="DejaVuSans-70"/>
      <path d="M 44.28125 53.078125 
L 44.28125 44.578125 
Q 40.484375 46.53125 36.375 47.5 
Q 32.28125 48.484375 27.875 48.484375 
Q 21.1875 48.484375 17.84375 46.4375 
Q 14.5 44.390625 14.5 40.28125 
Q 14.5 37.15625 16.890625 35.375 
Q 19.28125 33.59375 26.515625 31.984375 
L 29.59375 31.296875 
Q 39.15625 29.25 43.1875 25.515625 
Q 47.21875 21.78125 47.21875 15.09375 
Q 47.21875 7.46875 41.1875 3.015625 
Q 35.15625 -1.421875 24.609375 -1.421875 
Q 20.21875 -1.421875 15.453125 -0.5625 
Q 10.6875 0.296875 5.421875 2 
L 5.421875 11.28125 
Q 10.40625 8.6875 15.234375 7.390625 
Q 20.0625 6.109375 24.8125 6.109375 
Q 31.15625 6.109375 34.5625 8.28125 
Q 37.984375 10.453125 37.984375 14.40625 
Q 37.984375 18.0625 35.515625 20.015625 
Q 33.0625 21.96875 24.703125 23.78125 
L 21.578125 24.515625 
Q 13.234375 26.265625 9.515625 29.90625 
Q 5.8125 33.546875 5.8125 39.890625 
Q 5.8125 47.609375 11.28125 51.796875 
Q 16.75 56 26.8125 56 
Q 31.78125 56 36.171875 55.265625 
Q 40.578125 54.546875 44.28125 53.078125 
z
" id="DejaVuSans-73"/>
     </defs>
     <g transform="translate(19.746875 446.73225)scale(0.1 -0.1)">
      <use xlink:href="#DejaVuSans-63"/>
      <use x="54.980469" xlink:href="#DejaVuSans-65"/>
      <use x="116.503906" xlink:href="#DejaVuSans-6c"/>
      <use x="144.287109" xlink:href="#DejaVuSans-6c"/>
      <use x="172.070312" xlink:href="#DejaVuSans-20"/>
      <use x="203.857422" xlink:href="#DejaVuSans-74"/>
      <use x="243.066406" xlink:href="#DejaVuSans-79"/>
      <use x="302.246094" xlink:href="#DejaVuSans-70"/>
      <use x="365.722656" xlink:href="#DejaVuSans-65"/>
      <use x="427.246094" xlink:href="#DejaVuSans-73"/>
     </g>
    </g>
    <g id="PathCollection_5">
     <g>
      <use style="fill:#ff0000;fill-opacity:0.7;" x="1.746875" xlink:href="#me641c36b86" y="458.785375"/>
     </g>
    </g>
    <g id="text_16">
     <!-- T-specific -->
     <defs>
      <path d="M -0.296875 72.90625 
L 61.375 72.90625 
L 61.375 64.59375 
L 35.5 64.59375 
L 35.5 0 
L 25.59375 0 
L 25.59375 64.59375 
L -0.296875 64.59375 
z
" id="DejaVuSans-54"/>
      <path d="M 4.890625 31.390625 
L 31.203125 31.390625 
L 31.203125 23.390625 
L 4.890625 23.390625 
z
" id="DejaVuSans-2d"/>
      <path d="M 9.421875 54.6875 
L 18.40625 54.6875 
L 18.40625 0 
L 9.421875 0 
z
M 9.421875 75.984375 
L 18.40625 75.984375 
L 18.40625 64.59375 
L 9.421875 64.59375 
z
" id="DejaVuSans-69"/>
      <path d="M 37.109375 75.984375 
L 37.109375 68.5 
L 28.515625 68.5 
Q 23.6875 68.5 21.796875 66.546875 
Q 19.921875 64.59375 19.921875 59.515625 
L 19.921875 54.6875 
L 34.71875 54.6875 
L 34.71875 47.703125 
L 19.921875 47.703125 
L 19.921875 0 
L 10.890625 0 
L 10.890625 47.703125 
L 2.296875 47.703125 
L 2.296875 54.6875 
L 10.890625 54.6875 
L 10.890625 58.5 
Q 10.890625 67.625 15.140625 71.796875 
Q 19.390625 75.984375 28.609375 75.984375 
z
" id="DejaVuSans-66"/>
     </defs>
     <g transform="translate(19.746875 461.410375)scale(0.1 -0.1)">
      <use xlink:href="#DejaVuSans-54"/>
      <use x="60.943359" xlink:href="#DejaVuSans-2d"/>
      <use x="97.027344" xlink:href="#DejaVuSans-73"/>
      <use x="149.126953" xlink:href="#DejaVuSans-70"/>
      <use x="212.603516" xlink:href="#DejaVuSans-65"/>
      <use x="274.126953" xlink:href="#DejaVuSans-63"/>
      <use x="329.107422" xlink:href="#DejaVuSans-69"/>
      <use x="356.890625" xlink:href="#DejaVuSans-66"/>
      <use x="392.095703" xlink:href="#DejaVuSans-69"/>
      <use x="419.878906" xlink:href="#DejaVuSans-63"/>
     </g>
    </g>
    <g id="PathCollection_6">
     <g>
      <use style="fill:#0000ff;fill-opacity:0.7;" x="1.746875" xlink:href="#m6d972b2809" y="473.4635"/>
     </g>
    </g>
    <g id="text_17">
     <!-- B-specific -->
     <g transform="translate(19.746875 476.0885)scale(0.1 -0.1)">
      <use xlink:href="#DejaVuSans-42"/>
      <use x="68.603516" xlink:href="#DejaVuSans-2d"/>
      <use x="104.6875" xlink:href="#DejaVuSans-73"/>
      <use x="156.787109" xlink:href="#DejaVuSans-70"/>
      <use x="220.263672" xlink:href="#DejaVuSans-65"/>
      <use x="281.787109" xlink:href="#DejaVuSans-63"/>
      <use x="336.767578" xlink:href="#DejaVuSans-69"/>
      <use x="364.550781" xlink:href="#DejaVuSans-66"/>
      <use x="399.755859" xlink:href="#DejaVuSans-69"/>
      <use x="427.539062" xlink:href="#DejaVuSans-63"/>
     </g>
    </g>
   </g>
  </g>
 </g>
 <defs>
  <clipPath id="p05132c01e3">
   <rect height="443.52" width="446.4" x="72" y="69.12"/>
  </clipPath>
 </defs>
</svg>
