<?xml version="1.0" encoding="utf-8" standalone="no"?>
<!DOCTYPE svg PUBLIC "-//W3C//DTD SVG 1.1//EN"
  "http://www.w3.org/Graphics/SVG/1.1/DTD/svg11.dtd">
<!-- Created with matplotlib (http://matplotlib.org/) -->
<svg height="576pt" version="1.1" viewBox="0 0 576 576" width="576pt" xmlns="http://www.w3.org/2000/svg" xmlns:xlink="http://www.w3.org/1999/xlink">
 <defs>
  <style type="text/css">
*{stroke-linecap:butt;stroke-linejoin:round;}
  </style>
 </defs>
 <g id="figure_1">
  <g id="patch_1">
   <path d="M 0 576 
L 576 576 
L 576 0 
L 0 0 
z
" style="fill:#ffffff;"/>
  </g>
  <g id="axes_1">
   <g id="patch_2">
    <path d="M 72 512.64 
L 518.4 512.64 
L 518.4 69.12 
L 72 69.12 
z
" style="fill:#ffffff;"/>
   </g>
   <g id="PathCollection_1">
    <defs>
     <path d="M 0 1.224745 
C 0.324806 1.224745 0.636353 1.095698 0.866025 0.866025 
C 1.095698 0.636353 1.224745 0.324806 1.224745 0 
C 1.224745 -0.324806 1.095698 -0.636353 0.866025 -0.866025 
C 0.636353 -1.095698 0.324806 -1.224745 0 -1.224745 
C -0.324806 -1.224745 -0.636353 -1.095698 -0.866025 -0.866025 
C -1.095698 -0.636353 -1.224745 -0.324806 -1.224745 0 
C -1.224745 0.324806 -1.095698 0.636353 -0.866025 0.866025 
C -0.636353 1.095698 -0.324806 1.224745 0 1.224745 
z
" id="m5bb7cf1641"/>
    </defs>
    <g clip-path="url(#pcc4646b754)">
     <use style="fill:#808080;fill-opacity:0.4;" x="310.547877" xlink:href="#m5bb7cf1641" y="445.632688"/>
     <use style="fill:#808080;fill-opacity:0.4;" x="288.103182" xlink:href="#m5bb7cf1641" y="444.844924"/>
     <use style="fill:#808080;fill-opacity:0.4;" x="265.84911" xlink:href="#m5bb7cf1641" y="360.385933"/>
     <use style="fill:#808080;fill-opacity:0.4;" x="250.702597" xlink:href="#m5bb7cf1641" y="334.737137"/>
     <use style="fill:#808080;fill-opacity:0.4;" x="275.255649" xlink:href="#m5bb7cf1641" y="350.647408"/>
     <use style="fill:#808080;fill-opacity:0.4;" x="253.964138" xlink:href="#m5bb7cf1641" y="400.029231"/>
     <use style="fill:#808080;fill-opacity:0.4;" x="304.602214" xlink:href="#m5bb7cf1641" y="433.529829"/>
     <use style="fill:#808080;fill-opacity:0.4;" x="286.807169" xlink:href="#m5bb7cf1641" y="435.718667"/>
     <use style="fill:#808080;fill-opacity:0.4;" x="311.712818" xlink:href="#m5bb7cf1641" y="389.663463"/>
     <use style="fill:#808080;fill-opacity:0.4;" x="282.827497" xlink:href="#m5bb7cf1641" y="385.719982"/>
     <use style="fill:#808080;fill-opacity:0.4;" x="318.635119" xlink:href="#m5bb7cf1641" y="371.006008"/>
     <use style="fill:#808080;fill-opacity:0.4;" x="267.136906" xlink:href="#m5bb7cf1641" y="444.806054"/>
     <use style="fill:#808080;fill-opacity:0.4;" x="289.808542" xlink:href="#m5bb7cf1641" y="456.770034"/>
     <use style="fill:#808080;fill-opacity:0.4;" x="269.555787" xlink:href="#m5bb7cf1641" y="250.790824"/>
     <use style="fill:#808080;fill-opacity:0.4;" x="306.278505" xlink:href="#m5bb7cf1641" y="409.01471"/>
     <use style="fill:#808080;fill-opacity:0.4;" x="309.809974" xlink:href="#m5bb7cf1641" y="312.828842"/>
     <use style="fill:#808080;fill-opacity:0.4;" x="313.725198" xlink:href="#m5bb7cf1641" y="397.414288"/>
     <use style="fill:#808080;fill-opacity:0.4;" x="283.844302" xlink:href="#m5bb7cf1641" y="456.354544"/>
     <use style="fill:#808080;fill-opacity:0.4;" x="303.031226" xlink:href="#m5bb7cf1641" y="445.009335"/>
     <use style="fill:#808080;fill-opacity:0.4;" x="249.705629" xlink:href="#m5bb7cf1641" y="330.059406"/>
     <use style="fill:#808080;fill-opacity:0.4;" x="316.727055" xlink:href="#m5bb7cf1641" y="421.815465"/>
     <use style="fill:#808080;fill-opacity:0.4;" x="284.839747" xlink:href="#m5bb7cf1641" y="415.795984"/>
     <use style="fill:#808080;fill-opacity:0.4;" x="283.618659" xlink:href="#m5bb7cf1641" y="449.439588"/>
     <use style="fill:#808080;fill-opacity:0.4;" x="280.837948" xlink:href="#m5bb7cf1641" y="422.174"/>
     <use style="fill:#808080;fill-opacity:0.4;" x="286.319583" xlink:href="#m5bb7cf1641" y="460.421542"/>
     <use style="fill:#808080;fill-opacity:0.4;" x="284.012729" xlink:href="#m5bb7cf1641" y="432.967464"/>
     <use style="fill:#808080;fill-opacity:0.4;" x="302.289368" xlink:href="#m5bb7cf1641" y="439.702762"/>
     <use style="fill:#808080;fill-opacity:0.4;" x="306.083577" xlink:href="#m5bb7cf1641" y="420.59817"/>
     <use style="fill:#808080;fill-opacity:0.4;" x="288.088893" xlink:href="#m5bb7cf1641" y="455.913901"/>
     <use style="fill:#808080;fill-opacity:0.4;" x="274.446227" xlink:href="#m5bb7cf1641" y="437.961679"/>
    </g>
   </g>
   <g id="PathCollection_2">
    <defs>
     <path d="M 0 2.236068 
C 0.593012 2.236068 1.161816 2.000462 1.581139 1.581139 
C 2.000462 1.161816 2.236068 0.593012 2.236068 0 
C 2.236068 -0.593012 2.000462 -1.161816 1.581139 -1.581139 
C 1.161816 -2.000462 0.593012 -2.236068 0 -2.236068 
C -0.593012 -2.236068 -1.161816 -2.000462 -1.581139 -1.581139 
C -2.000462 -1.161816 -2.236068 -0.593012 -2.236068 0 
C -2.236068 0.593012 -2.000462 1.161816 -1.581139 1.581139 
C -1.161816 2.000462 -0.593012 2.236068 0 2.236068 
z
" id="m3d36e08fcf"/>
    </defs>
    <g clip-path="url(#pcc4646b754)">
     <use style="fill:#ff0000;fill-opacity:0.7;" x="325.96527" xlink:href="#m3d36e08fcf" y="250.989717"/>
     <use style="fill:#ff0000;fill-opacity:0.7;" x="288.008873" xlink:href="#m3d36e08fcf" y="448.231357"/>
     <use style="fill:#ff0000;fill-opacity:0.7;" x="307.538137" xlink:href="#m3d36e08fcf" y="437.081872"/>
     <use style="fill:#ff0000;fill-opacity:0.7;" x="289.646187" xlink:href="#m3d36e08fcf" y="427.113983"/>
     <use style="fill:#ff0000;fill-opacity:0.7;" x="315.098096" xlink:href="#m3d36e08fcf" y="269.279657"/>
     <use style="fill:#ff0000;fill-opacity:0.7;" x="313.297199" xlink:href="#m3d36e08fcf" y="356.765279"/>
     <use style="fill:#ff0000;fill-opacity:0.7;" x="258.650429" xlink:href="#m3d36e08fcf" y="404.592298"/>
     <use style="fill:#ff0000;fill-opacity:0.7;" x="273.808206" xlink:href="#m3d36e08fcf" y="305.125603"/>
     <use style="fill:#ff0000;fill-opacity:0.7;" x="272.817038" xlink:href="#m3d36e08fcf" y="429.081218"/>
     <use style="fill:#ff0000;fill-opacity:0.7;" x="365.767694" xlink:href="#m3d36e08fcf" y="216.807283"/>
     <use style="fill:#ff0000;fill-opacity:0.7;" x="308.618096" xlink:href="#m3d36e08fcf" y="377.937619"/>
     <use style="fill:#ff0000;fill-opacity:0.7;" x="286.546228" xlink:href="#m3d36e08fcf" y="426.763572"/>
     <use style="fill:#ff0000;fill-opacity:0.7;" x="307.489286" xlink:href="#m3d36e08fcf" y="453.73507"/>
     <use style="fill:#ff0000;fill-opacity:0.7;" x="323.027617" xlink:href="#m3d36e08fcf" y="300.388045"/>
     <use style="fill:#ff0000;fill-opacity:0.7;" x="349.712457" xlink:href="#m3d36e08fcf" y="354.511863"/>
     <use style="fill:#ff0000;fill-opacity:0.7;" x="344.975426" xlink:href="#m3d36e08fcf" y="294.149143"/>
     <use style="fill:#ff0000;fill-opacity:0.7;" x="286.097637" xlink:href="#m3d36e08fcf" y="434.129383"/>
     <use style="fill:#ff0000;fill-opacity:0.7;" x="309.74455" xlink:href="#m3d36e08fcf" y="442.202998"/>
     <use style="fill:#ff0000;fill-opacity:0.7;" x="271.559156" xlink:href="#m3d36e08fcf" y="266.733657"/>
     <use style="fill:#ff0000;fill-opacity:0.7;" x="307.109104" xlink:href="#m3d36e08fcf" y="394.98952"/>
     <use style="fill:#ff0000;fill-opacity:0.7;" x="271.830529" xlink:href="#m3d36e08fcf" y="330.980579"/>
     <use style="fill:#ff0000;fill-opacity:0.7;" x="384.96695" xlink:href="#m3d36e08fcf" y="216.970151"/>
     <use style="fill:#ff0000;fill-opacity:0.7;" x="320.79629" xlink:href="#m3d36e08fcf" y="375.307375"/>
     <use style="fill:#ff0000;fill-opacity:0.7;" x="268.163357" xlink:href="#m3d36e08fcf" y="386.028707"/>
     <use style="fill:#ff0000;fill-opacity:0.7;" x="303.982611" xlink:href="#m3d36e08fcf" y="445.9259"/>
     <use style="fill:#ff0000;fill-opacity:0.7;" x="302.105959" xlink:href="#m3d36e08fcf" y="457.053599"/>
     <use style="fill:#ff0000;fill-opacity:0.7;" x="230.163138" xlink:href="#m3d36e08fcf" y="251.704131"/>
     <use style="fill:#ff0000;fill-opacity:0.7;" x="330.348961" xlink:href="#m3d36e08fcf" y="322.091754"/>
     <use style="fill:#ff0000;fill-opacity:0.7;" x="267.347079" xlink:href="#m3d36e08fcf" y="375.893105"/>
     <use style="fill:#ff0000;fill-opacity:0.7;" x="309.046765" xlink:href="#m3d36e08fcf" y="455.590177"/>
     <use style="fill:#ff0000;fill-opacity:0.7;" x="261.37256" xlink:href="#m3d36e08fcf" y="290.228672"/>
     <use style="fill:#ff0000;fill-opacity:0.7;" x="315.321719" xlink:href="#m3d36e08fcf" y="387.455934"/>
     <use style="fill:#ff0000;fill-opacity:0.7;" x="279.168954" xlink:href="#m3d36e08fcf" y="351.492551"/>
     <use style="fill:#ff0000;fill-opacity:0.7;" x="327.043689" xlink:href="#m3d36e08fcf" y="296.74098"/>
     <use style="fill:#ff0000;fill-opacity:0.7;" x="280.046718" xlink:href="#m3d36e08fcf" y="388.292118"/>
     <use style="fill:#ff0000;fill-opacity:0.7;" x="284.857353" xlink:href="#m3d36e08fcf" y="408.339866"/>
     <use style="fill:#ff0000;fill-opacity:0.7;" x="289.482761" xlink:href="#m3d36e08fcf" y="440.26508"/>
     <use style="fill:#ff0000;fill-opacity:0.7;" x="272.016267" xlink:href="#m3d36e08fcf" y="274.462599"/>
     <use style="fill:#ff0000;fill-opacity:0.7;" x="276.243315" xlink:href="#m3d36e08fcf" y="369.413661"/>
     <use style="fill:#ff0000;fill-opacity:0.7;" x="309.758414" xlink:href="#m3d36e08fcf" y="461.296801"/>
     <use style="fill:#ff0000;fill-opacity:0.7;" x="305.942669" xlink:href="#m3d36e08fcf" y="423.332457"/>
     <use style="fill:#ff0000;fill-opacity:0.7;" x="312.093345" xlink:href="#m3d36e08fcf" y="396.652524"/>
     <use style="fill:#ff0000;fill-opacity:0.7;" x="279.296357" xlink:href="#m3d36e08fcf" y="388.36857"/>
     <use style="fill:#ff0000;fill-opacity:0.7;" x="312.616535" xlink:href="#m3d36e08fcf" y="407.877609"/>
     <use style="fill:#ff0000;fill-opacity:0.7;" x="272.604955" xlink:href="#m3d36e08fcf" y="308.069584"/>
     <use style="fill:#ff0000;fill-opacity:0.7;" x="336.074767" xlink:href="#m3d36e08fcf" y="385.139959"/>
     <use style="fill:#ff0000;fill-opacity:0.7;" x="319.624828" xlink:href="#m3d36e08fcf" y="393.428245"/>
     <use style="fill:#ff0000;fill-opacity:0.7;" x="284.34135" xlink:href="#m3d36e08fcf" y="354.271132"/>
     <use style="fill:#ff0000;fill-opacity:0.7;" x="311.302502" xlink:href="#m3d36e08fcf" y="412.693762"/>
     <use style="fill:#ff0000;fill-opacity:0.7;" x="314.027174" xlink:href="#m3d36e08fcf" y="345.226081"/>
     <use style="fill:#ff0000;fill-opacity:0.7;" x="330.904392" xlink:href="#m3d36e08fcf" y="327.636886"/>
     <use style="fill:#ff0000;fill-opacity:0.7;" x="310.773663" xlink:href="#m3d36e08fcf" y="458.339185"/>
     <use style="fill:#ff0000;fill-opacity:0.7;" x="310.094602" xlink:href="#m3d36e08fcf" y="429.707136"/>
     <use style="fill:#ff0000;fill-opacity:0.7;" x="351.174314" xlink:href="#m3d36e08fcf" y="214.707789"/>
     <use style="fill:#ff0000;fill-opacity:0.7;" x="308.246666" xlink:href="#m3d36e08fcf" y="372.647949"/>
     <use style="fill:#ff0000;fill-opacity:0.7;" x="316.204262" xlink:href="#m3d36e08fcf" y="390.281471"/>
     <use style="fill:#ff0000;fill-opacity:0.7;" x="287.417924" xlink:href="#m3d36e08fcf" y="457.5592"/>
     <use style="fill:#ff0000;fill-opacity:0.7;" x="273.609248" xlink:href="#m3d36e08fcf" y="367.534386"/>
     <use style="fill:#ff0000;fill-opacity:0.7;" x="254.43442" xlink:href="#m3d36e08fcf" y="235.442989"/>
     <use style="fill:#ff0000;fill-opacity:0.7;" x="278.360805" xlink:href="#m3d36e08fcf" y="365.1953"/>
     <use style="fill:#ff0000;fill-opacity:0.7;" x="382.432261" xlink:href="#m3d36e08fcf" y="364.239229"/>
     <use style="fill:#ff0000;fill-opacity:0.7;" x="274.905953" xlink:href="#m3d36e08fcf" y="351.70304"/>
     <use style="fill:#ff0000;fill-opacity:0.7;" x="323.646377" xlink:href="#m3d36e08fcf" y="351.699544"/>
     <use style="fill:#ff0000;fill-opacity:0.7;" x="233.428059" xlink:href="#m3d36e08fcf" y="404.257867"/>
     <use style="fill:#ff0000;fill-opacity:0.7;" x="320.6545" xlink:href="#m3d36e08fcf" y="266.215327"/>
     <use style="fill:#ff0000;fill-opacity:0.7;" x="282.858963" xlink:href="#m3d36e08fcf" y="339.627422"/>
     <use style="fill:#ff0000;fill-opacity:0.7;" x="300.514186" xlink:href="#m3d36e08fcf" y="456.75297"/>
     <use style="fill:#ff0000;fill-opacity:0.7;" x="322.675424" xlink:href="#m3d36e08fcf" y="351.483683"/>
     <use style="fill:#ff0000;fill-opacity:0.7;" x="378.852233" xlink:href="#m3d36e08fcf" y="170.916678"/>
     <use style="fill:#ff0000;fill-opacity:0.7;" x="275.512177" xlink:href="#m3d36e08fcf" y="317.469379"/>
     <use style="fill:#ff0000;fill-opacity:0.7;" x="309.680063" xlink:href="#m3d36e08fcf" y="423.402324"/>
     <use style="fill:#ff0000;fill-opacity:0.7;" x="309.471142" xlink:href="#m3d36e08fcf" y="449.446002"/>
     <use style="fill:#ff0000;fill-opacity:0.7;" x="272.863836" xlink:href="#m3d36e08fcf" y="370.235409"/>
     <use style="fill:#ff0000;fill-opacity:0.7;" x="272.10158" xlink:href="#m3d36e08fcf" y="365.396542"/>
     <use style="fill:#ff0000;fill-opacity:0.7;" x="308.178029" xlink:href="#m3d36e08fcf" y="411.659203"/>
     <use style="fill:#ff0000;fill-opacity:0.7;" x="307.848404" xlink:href="#m3d36e08fcf" y="417.187498"/>
     <use style="fill:#ff0000;fill-opacity:0.7;" x="291.499528" xlink:href="#m3d36e08fcf" y="456.119263"/>
     <use style="fill:#ff0000;fill-opacity:0.7;" x="308.827237" xlink:href="#m3d36e08fcf" y="458.059401"/>
     <use style="fill:#ff0000;fill-opacity:0.7;" x="323.976154" xlink:href="#m3d36e08fcf" y="369.091602"/>
     <use style="fill:#ff0000;fill-opacity:0.7;" x="313.811893" xlink:href="#m3d36e08fcf" y="436.7715"/>
     <use style="fill:#ff0000;fill-opacity:0.7;" x="308.909895" xlink:href="#m3d36e08fcf" y="437.981207"/>
     <use style="fill:#ff0000;fill-opacity:0.7;" x="317.476926" xlink:href="#m3d36e08fcf" y="456.856263"/>
     <use style="fill:#ff0000;fill-opacity:0.7;" x="314.525915" xlink:href="#m3d36e08fcf" y="419.462626"/>
     <use style="fill:#ff0000;fill-opacity:0.7;" x="311.203168" xlink:href="#m3d36e08fcf" y="389.456289"/>
     <use style="fill:#ff0000;fill-opacity:0.7;" x="310.525263" xlink:href="#m3d36e08fcf" y="410.80135"/>
     <use style="fill:#ff0000;fill-opacity:0.7;" x="276.067682" xlink:href="#m3d36e08fcf" y="459.469004"/>
     <use style="fill:#ff0000;fill-opacity:0.7;" x="255.89439" xlink:href="#m3d36e08fcf" y="374.697723"/>
     <use style="fill:#ff0000;fill-opacity:0.7;" x="294.165699" xlink:href="#m3d36e08fcf" y="425.552401"/>
     <use style="fill:#ff0000;fill-opacity:0.7;" x="262.43039" xlink:href="#m3d36e08fcf" y="424.46353"/>
     <use style="fill:#ff0000;fill-opacity:0.7;" x="308.093754" xlink:href="#m3d36e08fcf" y="437.932625"/>
     <use style="fill:#ff0000;fill-opacity:0.7;" x="264.025273" xlink:href="#m3d36e08fcf" y="457.200696"/>
     <use style="fill:#ff0000;fill-opacity:0.7;" x="251.425099" xlink:href="#m3d36e08fcf" y="415.255493"/>
     <use style="fill:#ff0000;fill-opacity:0.7;" x="273.90246" xlink:href="#m3d36e08fcf" y="425.399543"/>
    </g>
   </g>
   <g id="PathCollection_3">
    <defs>
     <path d="M 0 2.236068 
C 0.593012 2.236068 1.161816 2.000462 1.581139 1.581139 
C 2.000462 1.161816 2.236068 0.593012 2.236068 0 
C 2.236068 -0.593012 2.000462 -1.161816 1.581139 -1.581139 
C 1.161816 -2.000462 0.593012 -2.236068 0 -2.236068 
C -0.593012 -2.236068 -1.161816 -2.000462 -1.581139 -1.581139 
C -2.000462 -1.161816 -2.236068 -0.593012 -2.236068 0 
C -2.236068 0.593012 -2.000462 1.161816 -1.581139 1.581139 
C -1.161816 2.000462 -0.593012 2.236068 0 2.236068 
z
" id="m5817260871"/>
    </defs>
    <g clip-path="url(#pcc4646b754)">
     <use style="fill:#0000ff;fill-opacity:0.7;" x="277.911622" xlink:href="#m5817260871" y="376.129633"/>
     <use style="fill:#0000ff;fill-opacity:0.7;" x="325.561639" xlink:href="#m5817260871" y="310.006353"/>
     <use style="fill:#0000ff;fill-opacity:0.7;" x="271.4331" xlink:href="#m5817260871" y="330.93142"/>
     <use style="fill:#0000ff;fill-opacity:0.7;" x="244.967556" xlink:href="#m5817260871" y="267.031499"/>
     <use style="fill:#0000ff;fill-opacity:0.7;" x="310.262237" xlink:href="#m5817260871" y="442.405166"/>
     <use style="fill:#0000ff;fill-opacity:0.7;" x="317.429916" xlink:href="#m5817260871" y="440.510415"/>
     <use style="fill:#0000ff;fill-opacity:0.7;" x="278.376832" xlink:href="#m5817260871" y="380.048835"/>
     <use style="fill:#0000ff;fill-opacity:0.7;" x="275.083836" xlink:href="#m5817260871" y="380.938774"/>
     <use style="fill:#0000ff;fill-opacity:0.7;" x="287.919851" xlink:href="#m5817260871" y="447.167433"/>
     <use style="fill:#0000ff;fill-opacity:0.7;" x="221.612039" xlink:href="#m5817260871" y="259.731203"/>
     <use style="fill:#0000ff;fill-opacity:0.7;" x="254.939284" xlink:href="#m5817260871" y="278.277473"/>
     <use style="fill:#0000ff;fill-opacity:0.7;" x="277.085158" xlink:href="#m5817260871" y="377.774613"/>
     <use style="fill:#0000ff;fill-opacity:0.7;" x="315.83366" xlink:href="#m5817260871" y="443.71178"/>
     <use style="fill:#0000ff;fill-opacity:0.7;" x="270.063667" xlink:href="#m5817260871" y="401.349173"/>
     <use style="fill:#0000ff;fill-opacity:0.7;" x="289.18629" xlink:href="#m5817260871" y="443.505168"/>
     <use style="fill:#0000ff;fill-opacity:0.7;" x="323.604483" xlink:href="#m5817260871" y="290.725104"/>
     <use style="fill:#0000ff;fill-opacity:0.7;" x="87.57362" xlink:href="#m5817260871" y="337.014912"/>
     <use style="fill:#0000ff;fill-opacity:0.7;" x="283.784505" xlink:href="#m5817260871" y="434.532085"/>
     <use style="fill:#0000ff;fill-opacity:0.7;" x="289.510154" xlink:href="#m5817260871" y="450.429319"/>
     <use style="fill:#0000ff;fill-opacity:0.7;" x="323.853061" xlink:href="#m5817260871" y="328.215313"/>
     <use style="fill:#0000ff;fill-opacity:0.7;" x="271.05576" xlink:href="#m5817260871" y="337.778494"/>
     <use style="fill:#0000ff;fill-opacity:0.7;" x="274.573086" xlink:href="#m5817260871" y="333.397986"/>
     <use style="fill:#0000ff;fill-opacity:0.7;" x="275.099525" xlink:href="#m5817260871" y="350.634042"/>
     <use style="fill:#0000ff;fill-opacity:0.7;" x="281.047369" xlink:href="#m5817260871" y="447.486949"/>
     <use style="fill:#0000ff;fill-opacity:0.7;" x="256.632731" xlink:href="#m5817260871" y="358.311489"/>
     <use style="fill:#0000ff;fill-opacity:0.7;" x="227.133148" xlink:href="#m5817260871" y="167.970821"/>
     <use style="fill:#0000ff;fill-opacity:0.7;" x="290.026184" xlink:href="#m5817260871" y="345.286542"/>
     <use style="fill:#0000ff;fill-opacity:0.7;" x="279.74424" xlink:href="#m5817260871" y="348.158368"/>
     <use style="fill:#0000ff;fill-opacity:0.7;" x="179.268754" xlink:href="#m5817260871" y="90.446171"/>
     <use style="fill:#0000ff;fill-opacity:0.7;" x="234.209546" xlink:href="#m5817260871" y="424.791367"/>
     <use style="fill:#0000ff;fill-opacity:0.7;" x="306.121684" xlink:href="#m5817260871" y="403.185918"/>
     <use style="fill:#0000ff;fill-opacity:0.7;" x="127.250723" xlink:href="#m5817260871" y="298.75025"/>
     <use style="fill:#0000ff;fill-opacity:0.7;" x="292.224504" xlink:href="#m5817260871" y="452.773603"/>
     <use style="fill:#0000ff;fill-opacity:0.7;" x="231.841329" xlink:href="#m5817260871" y="457.457294"/>
     <use style="fill:#0000ff;fill-opacity:0.7;" x="227.059242" xlink:href="#m5817260871" y="428.170141"/>
     <use style="fill:#0000ff;fill-opacity:0.7;" x="281.530385" xlink:href="#m5817260871" y="417.30975"/>
     <use style="fill:#0000ff;fill-opacity:0.7;" x="242.645405" xlink:href="#m5817260871" y="381.359927"/>
     <use style="fill:#0000ff;fill-opacity:0.7;" x="291.344506" xlink:href="#m5817260871" y="454.025367"/>
     <use style="fill:#0000ff;fill-opacity:0.7;" x="229.878032" xlink:href="#m5817260871" y="341.97876"/>
     <use style="fill:#0000ff;fill-opacity:0.7;" x="277.894175" xlink:href="#m5817260871" y="411.224519"/>
     <use style="fill:#0000ff;fill-opacity:0.7;" x="273.916872" xlink:href="#m5817260871" y="437.843172"/>
     <use style="fill:#0000ff;fill-opacity:0.7;" x="276.957874" xlink:href="#m5817260871" y="422.212073"/>
     <use style="fill:#0000ff;fill-opacity:0.7;" x="291.550641" xlink:href="#m5817260871" y="432.612284"/>
     <use style="fill:#0000ff;fill-opacity:0.7;" x="287.431369" xlink:href="#m5817260871" y="441.193603"/>
     <use style="fill:#0000ff;fill-opacity:0.7;" x="269.988884" xlink:href="#m5817260871" y="447.41292"/>
     <use style="fill:#0000ff;fill-opacity:0.7;" x="197.643919" xlink:href="#m5817260871" y="228.2406"/>
     <use style="fill:#0000ff;fill-opacity:0.7;" x="247.696648" xlink:href="#m5817260871" y="318.583609"/>
     <use style="fill:#0000ff;fill-opacity:0.7;" x="310.171382" xlink:href="#m5817260871" y="461.018375"/>
     <use style="fill:#0000ff;fill-opacity:0.7;" x="318.91526" xlink:href="#m5817260871" y="433.051627"/>
     <use style="fill:#0000ff;fill-opacity:0.7;" x="385.48714" xlink:href="#m5817260871" y="198.855639"/>
     <use style="fill:#0000ff;fill-opacity:0.7;" x="276.173917" xlink:href="#m5817260871" y="440.079713"/>
     <use style="fill:#0000ff;fill-opacity:0.7;" x="277.36801" xlink:href="#m5817260871" y="383.476208"/>
    </g>
   </g>
   <g id="matplotlib.axis_1">
    <g id="xtick_1">
     <g id="line2d_1">
      <defs>
       <path d="M 0 0 
L 0 3.5 
" id="me88d07f289" style="stroke:#000000;stroke-width:0.8;"/>
      </defs>
      <g>
       <use style="stroke:#000000;stroke-width:0.8;" x="83.863319" xlink:href="#me88d07f289" y="512.64"/>
      </g>
     </g>
     <g id="text_1">
      <!-- −10.0 -->
      <defs>
       <path d="M 10.59375 35.5 
L 73.1875 35.5 
L 73.1875 27.203125 
L 10.59375 27.203125 
z
" id="DejaVuSans-2212"/>
       <path d="M 12.40625 8.296875 
L 28.515625 8.296875 
L 28.515625 63.921875 
L 10.984375 60.40625 
L 10.984375 69.390625 
L 28.421875 72.90625 
L 38.28125 72.90625 
L 38.28125 8.296875 
L 54.390625 8.296875 
L 54.390625 0 
L 12.40625 0 
z
" id="DejaVuSans-31"/>
       <path d="M 31.78125 66.40625 
Q 24.171875 66.40625 20.328125 58.90625 
Q 16.5 51.421875 16.5 36.375 
Q 16.5 21.390625 20.328125 13.890625 
Q 24.171875 6.390625 31.78125 6.390625 
Q 39.453125 6.390625 43.28125 13.890625 
Q 47.125 21.390625 47.125 36.375 
Q 47.125 51.421875 43.28125 58.90625 
Q 39.453125 66.40625 31.78125 66.40625 
z
M 31.78125 74.21875 
Q 44.046875 74.21875 50.515625 64.515625 
Q 56.984375 54.828125 56.984375 36.375 
Q 56.984375 17.96875 50.515625 8.265625 
Q 44.046875 -1.421875 31.78125 -1.421875 
Q 19.53125 -1.421875 13.0625 8.265625 
Q 6.59375 17.96875 6.59375 36.375 
Q 6.59375 54.828125 13.0625 64.515625 
Q 19.53125 74.21875 31.78125 74.21875 
z
" id="DejaVuSans-30"/>
       <path d="M 10.6875 12.40625 
L 21 12.40625 
L 21 0 
L 10.6875 0 
z
" id="DejaVuSans-2e"/>
      </defs>
      <g transform="translate(68.540662 527.238438)scale(0.1 -0.1)">
       <use xlink:href="#DejaVuSans-2212"/>
       <use x="83.789062" xlink:href="#DejaVuSans-31"/>
       <use x="147.412109" xlink:href="#DejaVuSans-30"/>
       <use x="211.035156" xlink:href="#DejaVuSans-2e"/>
       <use x="242.822266" xlink:href="#DejaVuSans-30"/>
      </g>
     </g>
    </g>
    <g id="xtick_2">
     <g id="line2d_2">
      <g>
       <use style="stroke:#000000;stroke-width:0.8;" x="136.697489" xlink:href="#me88d07f289" y="512.64"/>
      </g>
     </g>
     <g id="text_2">
      <!-- −7.5 -->
      <defs>
       <path d="M 8.203125 72.90625 
L 55.078125 72.90625 
L 55.078125 68.703125 
L 28.609375 0 
L 18.3125 0 
L 43.21875 64.59375 
L 8.203125 64.59375 
z
" id="DejaVuSans-37"/>
       <path d="M 10.796875 72.90625 
L 49.515625 72.90625 
L 49.515625 64.59375 
L 19.828125 64.59375 
L 19.828125 46.734375 
Q 21.96875 47.46875 24.109375 47.828125 
Q 26.265625 48.1875 28.421875 48.1875 
Q 40.625 48.1875 47.75 41.5 
Q 54.890625 34.8125 54.890625 23.390625 
Q 54.890625 11.625 47.5625 5.09375 
Q 40.234375 -1.421875 26.90625 -1.421875 
Q 22.3125 -1.421875 17.546875 -0.640625 
Q 12.796875 0.140625 7.71875 1.703125 
L 7.71875 11.625 
Q 12.109375 9.234375 16.796875 8.0625 
Q 21.484375 6.890625 26.703125 6.890625 
Q 35.15625 6.890625 40.078125 11.328125 
Q 45.015625 15.765625 45.015625 23.390625 
Q 45.015625 31 40.078125 35.4375 
Q 35.15625 39.890625 26.703125 39.890625 
Q 22.75 39.890625 18.8125 39.015625 
Q 14.890625 38.140625 10.796875 36.28125 
z
" id="DejaVuSans-35"/>
      </defs>
      <g transform="translate(124.556083 527.238438)scale(0.1 -0.1)">
       <use xlink:href="#DejaVuSans-2212"/>
       <use x="83.789062" xlink:href="#DejaVuSans-37"/>
       <use x="147.412109" xlink:href="#DejaVuSans-2e"/>
       <use x="179.199219" xlink:href="#DejaVuSans-35"/>
      </g>
     </g>
    </g>
    <g id="xtick_3">
     <g id="line2d_3">
      <g>
       <use style="stroke:#000000;stroke-width:0.8;" x="189.531659" xlink:href="#me88d07f289" y="512.64"/>
      </g>
     </g>
     <g id="text_3">
      <!-- −5.0 -->
      <g transform="translate(177.390253 527.238438)scale(0.1 -0.1)">
       <use xlink:href="#DejaVuSans-2212"/>
       <use x="83.789062" xlink:href="#DejaVuSans-35"/>
       <use x="147.412109" xlink:href="#DejaVuSans-2e"/>
       <use x="179.199219" xlink:href="#DejaVuSans-30"/>
      </g>
     </g>
    </g>
    <g id="xtick_4">
     <g id="line2d_4">
      <g>
       <use style="stroke:#000000;stroke-width:0.8;" x="242.36583" xlink:href="#me88d07f289" y="512.64"/>
      </g>
     </g>
     <g id="text_4">
      <!-- −2.5 -->
      <defs>
       <path d="M 19.1875 8.296875 
L 53.609375 8.296875 
L 53.609375 0 
L 7.328125 0 
L 7.328125 8.296875 
Q 12.9375 14.109375 22.625 23.890625 
Q 32.328125 33.6875 34.8125 36.53125 
Q 39.546875 41.84375 41.421875 45.53125 
Q 43.3125 49.21875 43.3125 52.78125 
Q 43.3125 58.59375 39.234375 62.25 
Q 35.15625 65.921875 28.609375 65.921875 
Q 23.96875 65.921875 18.8125 64.3125 
Q 13.671875 62.703125 7.8125 59.421875 
L 7.8125 69.390625 
Q 13.765625 71.78125 18.9375 73 
Q 24.125 74.21875 28.421875 74.21875 
Q 39.75 74.21875 46.484375 68.546875 
Q 53.21875 62.890625 53.21875 53.421875 
Q 53.21875 48.921875 51.53125 44.890625 
Q 49.859375 40.875 45.40625 35.40625 
Q 44.1875 33.984375 37.640625 27.21875 
Q 31.109375 20.453125 19.1875 8.296875 
z
" id="DejaVuSans-32"/>
      </defs>
      <g transform="translate(230.224423 527.238438)scale(0.1 -0.1)">
       <use xlink:href="#DejaVuSans-2212"/>
       <use x="83.789062" xlink:href="#DejaVuSans-32"/>
       <use x="147.412109" xlink:href="#DejaVuSans-2e"/>
       <use x="179.199219" xlink:href="#DejaVuSans-35"/>
      </g>
     </g>
    </g>
    <g id="xtick_5">
     <g id="line2d_5">
      <g>
       <use style="stroke:#000000;stroke-width:0.8;" x="295.2" xlink:href="#me88d07f289" y="512.64"/>
      </g>
     </g>
     <g id="text_5">
      <!-- 0.0 -->
      <g transform="translate(287.248437 527.238438)scale(0.1 -0.1)">
       <use xlink:href="#DejaVuSans-30"/>
       <use x="63.623047" xlink:href="#DejaVuSans-2e"/>
       <use x="95.410156" xlink:href="#DejaVuSans-30"/>
      </g>
     </g>
    </g>
    <g id="xtick_6">
     <g id="line2d_6">
      <g>
       <use style="stroke:#000000;stroke-width:0.8;" x="348.03417" xlink:href="#me88d07f289" y="512.64"/>
      </g>
     </g>
     <g id="text_6">
      <!-- 2.5 -->
      <g transform="translate(340.082608 527.238438)scale(0.1 -0.1)">
       <use xlink:href="#DejaVuSans-32"/>
       <use x="63.623047" xlink:href="#DejaVuSans-2e"/>
       <use x="95.410156" xlink:href="#DejaVuSans-35"/>
      </g>
     </g>
    </g>
    <g id="xtick_7">
     <g id="line2d_7">
      <g>
       <use style="stroke:#000000;stroke-width:0.8;" x="400.868341" xlink:href="#me88d07f289" y="512.64"/>
      </g>
     </g>
     <g id="text_7">
      <!-- 5.0 -->
      <g transform="translate(392.916778 527.238438)scale(0.1 -0.1)">
       <use xlink:href="#DejaVuSans-35"/>
       <use x="63.623047" xlink:href="#DejaVuSans-2e"/>
       <use x="95.410156" xlink:href="#DejaVuSans-30"/>
      </g>
     </g>
    </g>
    <g id="xtick_8">
     <g id="line2d_8">
      <g>
       <use style="stroke:#000000;stroke-width:0.8;" x="453.702511" xlink:href="#me88d07f289" y="512.64"/>
      </g>
     </g>
     <g id="text_8">
      <!-- 7.5 -->
      <g transform="translate(445.750949 527.238438)scale(0.1 -0.1)">
       <use xlink:href="#DejaVuSans-37"/>
       <use x="63.623047" xlink:href="#DejaVuSans-2e"/>
       <use x="95.410156" xlink:href="#DejaVuSans-35"/>
      </g>
     </g>
    </g>
    <g id="xtick_9">
     <g id="line2d_9">
      <g>
       <use style="stroke:#000000;stroke-width:0.8;" x="506.536681" xlink:href="#me88d07f289" y="512.64"/>
      </g>
     </g>
     <g id="text_9">
      <!-- 10.0 -->
      <g transform="translate(495.403869 527.238438)scale(0.1 -0.1)">
       <use xlink:href="#DejaVuSans-31"/>
       <use x="63.623047" xlink:href="#DejaVuSans-30"/>
       <use x="127.246094" xlink:href="#DejaVuSans-2e"/>
       <use x="159.033203" xlink:href="#DejaVuSans-30"/>
      </g>
     </g>
    </g>
    <g id="text_10">
     <!-- $\log_2(FC)$ -->
     <defs>
      <path d="M 9.421875 75.984375 
L 18.40625 75.984375 
L 18.40625 0 
L 9.421875 0 
z
" id="DejaVuSans-6c"/>
      <path d="M 30.609375 48.390625 
Q 23.390625 48.390625 19.1875 42.75 
Q 14.984375 37.109375 14.984375 27.296875 
Q 14.984375 17.484375 19.15625 11.84375 
Q 23.34375 6.203125 30.609375 6.203125 
Q 37.796875 6.203125 41.984375 11.859375 
Q 46.1875 17.53125 46.1875 27.296875 
Q 46.1875 37.015625 41.984375 42.703125 
Q 37.796875 48.390625 30.609375 48.390625 
z
M 30.609375 56 
Q 42.328125 56 49.015625 48.375 
Q 55.71875 40.765625 55.71875 27.296875 
Q 55.71875 13.875 49.015625 6.21875 
Q 42.328125 -1.421875 30.609375 -1.421875 
Q 18.84375 -1.421875 12.171875 6.21875 
Q 5.515625 13.875 5.515625 27.296875 
Q 5.515625 40.765625 12.171875 48.375 
Q 18.84375 56 30.609375 56 
z
" id="DejaVuSans-6f"/>
      <path d="M 45.40625 27.984375 
Q 45.40625 37.75 41.375 43.109375 
Q 37.359375 48.484375 30.078125 48.484375 
Q 22.859375 48.484375 18.828125 43.109375 
Q 14.796875 37.75 14.796875 27.984375 
Q 14.796875 18.265625 18.828125 12.890625 
Q 22.859375 7.515625 30.078125 7.515625 
Q 37.359375 7.515625 41.375 12.890625 
Q 45.40625 18.265625 45.40625 27.984375 
z
M 54.390625 6.78125 
Q 54.390625 -7.171875 48.1875 -13.984375 
Q 42 -20.796875 29.203125 -20.796875 
Q 24.46875 -20.796875 20.265625 -20.09375 
Q 16.0625 -19.390625 12.109375 -17.921875 
L 12.109375 -9.1875 
Q 16.0625 -11.328125 19.921875 -12.34375 
Q 23.78125 -13.375 27.78125 -13.375 
Q 36.625 -13.375 41.015625 -8.765625 
Q 45.40625 -4.15625 45.40625 5.171875 
L 45.40625 9.625 
Q 42.625 4.78125 38.28125 2.390625 
Q 33.9375 0 27.875 0 
Q 17.828125 0 11.671875 7.65625 
Q 5.515625 15.328125 5.515625 27.984375 
Q 5.515625 40.671875 11.671875 48.328125 
Q 17.828125 56 27.875 56 
Q 33.9375 56 38.28125 53.609375 
Q 42.625 51.21875 45.40625 46.390625 
L 45.40625 54.6875 
L 54.390625 54.6875 
z
" id="DejaVuSans-67"/>
      <path d="M 31 75.875 
Q 24.46875 64.65625 21.28125 53.65625 
Q 18.109375 42.671875 18.109375 31.390625 
Q 18.109375 20.125 21.3125 9.0625 
Q 24.515625 -2 31 -13.1875 
L 23.1875 -13.1875 
Q 15.875 -1.703125 12.234375 9.375 
Q 8.59375 20.453125 8.59375 31.390625 
Q 8.59375 42.28125 12.203125 53.3125 
Q 15.828125 64.359375 23.1875 75.875 
z
" id="DejaVuSans-28"/>
      <path d="M 16.890625 72.90625 
L 58.6875 72.90625 
L 57.078125 64.59375 
L 25.09375 64.59375 
L 20.90625 43.109375 
L 49.8125 43.109375 
L 48.1875 34.8125 
L 19.28125 34.8125 
L 12.5 0 
L 2.6875 0 
z
" id="DejaVuSans-Oblique-46"/>
      <path d="M 69.484375 67.28125 
L 67.484375 56.890625 
Q 62.796875 61.625 57.546875 63.921875 
Q 52.296875 66.21875 46.1875 66.21875 
Q 37.84375 66.21875 31.515625 62.203125 
Q 25.203125 58.203125 20.609375 50 
Q 17.671875 44.734375 16.125 38.84375 
Q 14.59375 32.953125 14.59375 27 
Q 14.59375 17.046875 19.75 11.8125 
Q 24.90625 6.59375 34.71875 6.59375 
Q 41.5 6.59375 47.75 8.765625 
Q 54 10.9375 59.90625 15.28125 
L 57.625 3.609375 
Q 51.8125 1.125 45.875 -0.140625 
Q 39.9375 -1.421875 33.984375 -1.421875 
Q 19.96875 -1.421875 12.078125 6.1875 
Q 4.203125 13.8125 4.203125 27.390625 
Q 4.203125 36.078125 7.203125 44.46875 
Q 10.203125 52.875 15.828125 59.8125 
Q 21.78125 67.1875 29.421875 70.703125 
Q 37.0625 74.21875 47.21875 74.21875 
Q 53.46875 74.21875 59.0625 72.484375 
Q 64.65625 70.75 69.484375 67.28125 
z
" id="DejaVuSans-Oblique-43"/>
      <path d="M 8.015625 75.875 
L 15.828125 75.875 
Q 23.140625 64.359375 26.78125 53.3125 
Q 30.421875 42.28125 30.421875 31.390625 
Q 30.421875 20.453125 26.78125 9.375 
Q 23.140625 -1.703125 15.828125 -13.1875 
L 8.015625 -13.1875 
Q 14.5 -2 17.703125 9.0625 
Q 20.90625 20.125 20.90625 31.390625 
Q 20.90625 42.671875 17.703125 53.65625 
Q 14.5 64.65625 8.015625 75.875 
z
" id="DejaVuSans-29"/>
     </defs>
     <g transform="translate(274.85 540.918125)scale(0.1 -0.1)">
      <use transform="translate(0 0.015625)" xlink:href="#DejaVuSans-6c"/>
      <use transform="translate(27.783203 0.015625)" xlink:href="#DejaVuSans-6f"/>
      <use transform="translate(88.964844 0.015625)" xlink:href="#DejaVuSans-67"/>
      <use transform="translate(153.398438 -16.390625)scale(0.7)" xlink:href="#DejaVuSans-32"/>
      <use transform="translate(200.668945 0.015625)" xlink:href="#DejaVuSans-28"/>
      <use transform="translate(239.682617 0.015625)" xlink:href="#DejaVuSans-Oblique-46"/>
      <use transform="translate(297.202148 0.015625)" xlink:href="#DejaVuSans-Oblique-43"/>
      <use transform="translate(367.026367 0.015625)" xlink:href="#DejaVuSans-29"/>
     </g>
    </g>
   </g>
   <g id="matplotlib.axis_2">
    <g id="ytick_1">
     <g id="line2d_10">
      <defs>
       <path d="M 0 0 
L -3.5 0 
" id="m5a79b8f6e8" style="stroke:#000000;stroke-width:0.8;"/>
      </defs>
      <g>
       <use style="stroke:#000000;stroke-width:0.8;" x="295.2" xlink:href="#m5a79b8f6e8" y="466.942579"/>
      </g>
     </g>
     <g id="text_11">
      <!-- 2 -->
      <g transform="translate(281.8375 470.741797)scale(0.1 -0.1)">
       <use xlink:href="#DejaVuSans-32"/>
      </g>
     </g>
    </g>
    <g id="ytick_2">
     <g id="line2d_11">
      <g>
       <use style="stroke:#000000;stroke-width:0.8;" x="295.2" xlink:href="#m5a79b8f6e8" y="393.870998"/>
      </g>
     </g>
     <g id="text_12">
      <!-- 4 -->
      <defs>
       <path d="M 37.796875 64.3125 
L 12.890625 25.390625 
L 37.796875 25.390625 
z
M 35.203125 72.90625 
L 47.609375 72.90625 
L 47.609375 25.390625 
L 58.015625 25.390625 
L 58.015625 17.1875 
L 47.609375 17.1875 
L 47.609375 0 
L 37.796875 0 
L 37.796875 17.1875 
L 4.890625 17.1875 
L 4.890625 26.703125 
z
" id="DejaVuSans-34"/>
      </defs>
      <g transform="translate(281.8375 397.670217)scale(0.1 -0.1)">
       <use xlink:href="#DejaVuSans-34"/>
      </g>
     </g>
    </g>
    <g id="ytick_3">
     <g id="line2d_12">
      <g>
       <use style="stroke:#000000;stroke-width:0.8;" x="295.2" xlink:href="#m5a79b8f6e8" y="320.799417"/>
      </g>
     </g>
     <g id="text_13">
      <!-- 6 -->
      <defs>
       <path d="M 33.015625 40.375 
Q 26.375 40.375 22.484375 35.828125 
Q 18.609375 31.296875 18.609375 23.390625 
Q 18.609375 15.53125 22.484375 10.953125 
Q 26.375 6.390625 33.015625 6.390625 
Q 39.65625 6.390625 43.53125 10.953125 
Q 47.40625 15.53125 47.40625 23.390625 
Q 47.40625 31.296875 43.53125 35.828125 
Q 39.65625 40.375 33.015625 40.375 
z
M 52.59375 71.296875 
L 52.59375 62.3125 
Q 48.875 64.0625 45.09375 64.984375 
Q 41.3125 65.921875 37.59375 65.921875 
Q 27.828125 65.921875 22.671875 59.328125 
Q 17.53125 52.734375 16.796875 39.40625 
Q 19.671875 43.65625 24.015625 45.921875 
Q 28.375 48.1875 33.59375 48.1875 
Q 44.578125 48.1875 50.953125 41.515625 
Q 57.328125 34.859375 57.328125 23.390625 
Q 57.328125 12.15625 50.6875 5.359375 
Q 44.046875 -1.421875 33.015625 -1.421875 
Q 20.359375 -1.421875 13.671875 8.265625 
Q 6.984375 17.96875 6.984375 36.375 
Q 6.984375 53.65625 15.1875 63.9375 
Q 23.390625 74.21875 37.203125 74.21875 
Q 40.921875 74.21875 44.703125 73.484375 
Q 48.484375 72.75 52.59375 71.296875 
z
" id="DejaVuSans-36"/>
      </defs>
      <g transform="translate(281.8375 324.598636)scale(0.1 -0.1)">
       <use xlink:href="#DejaVuSans-36"/>
      </g>
     </g>
    </g>
    <g id="ytick_4">
     <g id="line2d_13">
      <g>
       <use style="stroke:#000000;stroke-width:0.8;" x="295.2" xlink:href="#m5a79b8f6e8" y="247.727837"/>
      </g>
     </g>
     <g id="text_14">
      <!-- 8 -->
      <defs>
       <path d="M 31.78125 34.625 
Q 24.75 34.625 20.71875 30.859375 
Q 16.703125 27.09375 16.703125 20.515625 
Q 16.703125 13.921875 20.71875 10.15625 
Q 24.75 6.390625 31.78125 6.390625 
Q 38.8125 6.390625 42.859375 10.171875 
Q 46.921875 13.96875 46.921875 20.515625 
Q 46.921875 27.09375 42.890625 30.859375 
Q 38.875 34.625 31.78125 34.625 
z
M 21.921875 38.8125 
Q 15.578125 40.375 12.03125 44.71875 
Q 8.5 49.078125 8.5 55.328125 
Q 8.5 64.0625 14.71875 69.140625 
Q 20.953125 74.21875 31.78125 74.21875 
Q 42.671875 74.21875 48.875 69.140625 
Q 55.078125 64.0625 55.078125 55.328125 
Q 55.078125 49.078125 51.53125 44.71875 
Q 48 40.375 41.703125 38.8125 
Q 48.828125 37.15625 52.796875 32.3125 
Q 56.78125 27.484375 56.78125 20.515625 
Q 56.78125 9.90625 50.3125 4.234375 
Q 43.84375 -1.421875 31.78125 -1.421875 
Q 19.734375 -1.421875 13.25 4.234375 
Q 6.78125 9.90625 6.78125 20.515625 
Q 6.78125 27.484375 10.78125 32.3125 
Q 14.796875 37.15625 21.921875 38.8125 
z
M 18.3125 54.390625 
Q 18.3125 48.734375 21.84375 45.5625 
Q 25.390625 42.390625 31.78125 42.390625 
Q 38.140625 42.390625 41.71875 45.5625 
Q 45.3125 48.734375 45.3125 54.390625 
Q 45.3125 60.0625 41.71875 63.234375 
Q 38.140625 66.40625 31.78125 66.40625 
Q 25.390625 66.40625 21.84375 63.234375 
Q 18.3125 60.0625 18.3125 54.390625 
z
" id="DejaVuSans-38"/>
      </defs>
      <g transform="translate(281.8375 251.527056)scale(0.1 -0.1)">
       <use xlink:href="#DejaVuSans-38"/>
      </g>
     </g>
    </g>
    <g id="ytick_5">
     <g id="line2d_14">
      <g>
       <use style="stroke:#000000;stroke-width:0.8;" x="295.2" xlink:href="#m5a79b8f6e8" y="174.656256"/>
      </g>
     </g>
     <g id="text_15">
      <!-- 10 -->
      <g transform="translate(275.475 178.455475)scale(0.1 -0.1)">
       <use xlink:href="#DejaVuSans-31"/>
       <use x="63.623047" xlink:href="#DejaVuSans-30"/>
      </g>
     </g>
    </g>
    <g id="ytick_6">
     <g id="line2d_15">
      <g>
       <use style="stroke:#000000;stroke-width:0.8;" x="295.2" xlink:href="#m5a79b8f6e8" y="101.584676"/>
      </g>
     </g>
     <g id="text_16">
      <!-- 12 -->
      <g transform="translate(275.475 105.383895)scale(0.1 -0.1)">
       <use xlink:href="#DejaVuSans-31"/>
       <use x="63.623047" xlink:href="#DejaVuSans-32"/>
      </g>
     </g>
    </g>
    <g id="text_17">
     <!-- $-\log_{10}(p)$ -->
     <defs>
      <path d="M 49.609375 33.6875 
Q 49.609375 40.875 46.484375 44.671875 
Q 43.359375 48.484375 37.5 48.484375 
Q 33.5 48.484375 29.859375 46.4375 
Q 26.21875 44.390625 23.390625 40.484375 
Q 20.609375 36.625 18.9375 31.15625 
Q 17.28125 25.6875 17.28125 20.3125 
Q 17.28125 13.484375 20.40625 9.796875 
Q 23.53125 6.109375 29.296875 6.109375 
Q 33.546875 6.109375 37.1875 8.109375 
Q 40.828125 10.109375 43.40625 13.921875 
Q 46.1875 17.921875 47.890625 23.34375 
Q 49.609375 28.765625 49.609375 33.6875 
z
M 21.78125 46.390625 
Q 25.390625 51.125 30.296875 53.5625 
Q 35.203125 56 41.21875 56 
Q 49.609375 56 54.25 50.5 
Q 58.890625 45.015625 58.890625 35.109375 
Q 58.890625 27 56 19.65625 
Q 53.125 12.3125 47.703125 6.5 
Q 44.09375 2.640625 39.546875 0.609375 
Q 35.015625 -1.421875 29.984375 -1.421875 
Q 24.171875 -1.421875 20.21875 1 
Q 16.265625 3.421875 14.3125 8.203125 
L 8.6875 -20.796875 
L -0.296875 -20.796875 
L 14.40625 54.6875 
L 23.390625 54.6875 
z
" id="DejaVuSans-Oblique-70"/>
     </defs>
     <g transform="translate(271.65 44.844)scale(0.1 -0.1)">
      <use transform="translate(0 0.015625)" xlink:href="#DejaVuSans-2212"/>
      <use transform="translate(83.789062 0.015625)" xlink:href="#DejaVuSans-6c"/>
      <use transform="translate(111.572266 0.015625)" xlink:href="#DejaVuSans-6f"/>
      <use transform="translate(172.753906 0.015625)" xlink:href="#DejaVuSans-67"/>
      <use transform="translate(237.1875 -16.390625)scale(0.7)" xlink:href="#DejaVuSans-31"/>
      <use transform="translate(281.723633 -16.390625)scale(0.7)" xlink:href="#DejaVuSans-30"/>
      <use transform="translate(328.994141 0.015625)" xlink:href="#DejaVuSans-28"/>
      <use transform="translate(368.007812 0.015625)" xlink:href="#DejaVuSans-Oblique-70"/>
      <use transform="translate(431.484375 0.015625)" xlink:href="#DejaVuSans-29"/>
     </g>
    </g>
   </g>
   <g id="line2d_16">
    <path clip-path="url(#pcc4646b754)" d="M 72 492.48 
L 518.4 492.48 
" style="fill:none;stroke:#000000;stroke-dasharray:5.55,2.4;stroke-dashoffset:0;stroke-width:1.5;"/>
   </g>
   <g id="patch_3">
    <path d="M 295.2 512.64 
L 295.2 69.12 
" style="fill:none;stroke:#000000;stroke-linecap:square;stroke-linejoin:miter;stroke-width:0.8;"/>
   </g>
   <g id="patch_4">
    <path d="M 518.4 512.64 
L 518.4 69.12 
" style="fill:none;"/>
   </g>
   <g id="patch_5">
    <path d="M 72 512.64 
L 518.4 512.64 
" style="fill:none;stroke:#000000;stroke-linecap:square;stroke-linejoin:miter;stroke-width:0.8;"/>
   </g>
   <g id="patch_6">
    <path d="M 72 69.12 
L 518.4 69.12 
" style="fill:none;"/>
   </g>
   <g id="text_18">
    <!-- $p=0.05$ -->
    <defs>
     <path d="M 10.59375 45.40625 
L 73.1875 45.40625 
L 73.1875 37.203125 
L 10.59375 37.203125 
z
M 10.59375 25.484375 
L 73.1875 25.484375 
L 73.1875 17.1875 
L 10.59375 17.1875 
z
" id="DejaVuSans-3d"/>
    </defs>
    <g transform="translate(168.397991 485.349876)scale(0.1 -0.1)">
     <use transform="translate(0 0.78125)" xlink:href="#DejaVuSans-Oblique-70"/>
     <use transform="translate(82.958984 0.78125)" xlink:href="#DejaVuSans-3d"/>
     <use transform="translate(186.230469 0.78125)" xlink:href="#DejaVuSans-30"/>
     <use transform="translate(249.853516 0.78125)" xlink:href="#DejaVuSans-2e"/>
     <use transform="translate(281.640625 0.78125)" xlink:href="#DejaVuSans-30"/>
     <use transform="translate(345.263672 0.78125)" xlink:href="#DejaVuSans-35"/>
    </g>
   </g>
   <g id="legend_1">
    <g id="patch_7">
     <path d="M -10.253125 482.168188 
L 70 482.168188 
Q 72 482.168188 72 480.168188 
L 72 425.936 
Q 72 423.936 70 423.936 
L -10.253125 423.936 
Q -12.253125 423.936 -12.253125 425.936 
L -12.253125 480.168188 
Q -12.253125 482.168188 -10.253125 482.168188 
z
" style="fill:#ffffff;opacity:0.8;stroke:#cccccc;stroke-linejoin:miter;"/>
    </g>
    <g id="PathCollection_4">
     <g>
      <use style="fill:#808080;fill-opacity:0.4;" x="1.746875" xlink:href="#m5bb7cf1641" y="439.548188"/>
     </g>
    </g>
    <g id="text_19">
     <!-- Both -->
     <defs>
      <path d="M 19.671875 34.8125 
L 19.671875 8.109375 
L 35.5 8.109375 
Q 43.453125 8.109375 47.28125 11.40625 
Q 51.125 14.703125 51.125 21.484375 
Q 51.125 28.328125 47.28125 31.5625 
Q 43.453125 34.8125 35.5 34.8125 
z
M 19.671875 64.796875 
L 19.671875 42.828125 
L 34.28125 42.828125 
Q 41.5 42.828125 45.03125 45.53125 
Q 48.578125 48.25 48.578125 53.8125 
Q 48.578125 59.328125 45.03125 62.0625 
Q 41.5 64.796875 34.28125 64.796875 
z
M 9.8125 72.90625 
L 35.015625 72.90625 
Q 46.296875 72.90625 52.390625 68.21875 
Q 58.5 63.53125 58.5 54.890625 
Q 58.5 48.1875 55.375 44.234375 
Q 52.25 40.28125 46.1875 39.3125 
Q 53.46875 37.75 57.5 32.78125 
Q 61.53125 27.828125 61.53125 20.40625 
Q 61.53125 10.640625 54.890625 5.3125 
Q 48.25 0 35.984375 0 
L 9.8125 0 
z
" id="DejaVuSans-42"/>
      <path d="M 18.3125 70.21875 
L 18.3125 54.6875 
L 36.8125 54.6875 
L 36.8125 47.703125 
L 18.3125 47.703125 
L 18.3125 18.015625 
Q 18.3125 11.328125 20.140625 9.421875 
Q 21.96875 7.515625 27.59375 7.515625 
L 36.8125 7.515625 
L 36.8125 0 
L 27.59375 0 
Q 17.1875 0 13.234375 3.875 
Q 9.28125 7.765625 9.28125 18.015625 
L 9.28125 47.703125 
L 2.6875 47.703125 
L 2.6875 54.6875 
L 9.28125 54.6875 
L 9.28125 70.21875 
z
" id="DejaVuSans-74"/>
      <path d="M 54.890625 33.015625 
L 54.890625 0 
L 45.90625 0 
L 45.90625 32.71875 
Q 45.90625 40.484375 42.875 44.328125 
Q 39.84375 48.1875 33.796875 48.1875 
Q 26.515625 48.1875 22.3125 43.546875 
Q 18.109375 38.921875 18.109375 30.90625 
L 18.109375 0 
L 9.078125 0 
L 9.078125 75.984375 
L 18.109375 75.984375 
L 18.109375 46.1875 
Q 21.34375 51.125 25.703125 53.5625 
Q 30.078125 56 35.796875 56 
Q 45.21875 56 50.046875 50.171875 
Q 54.890625 44.34375 54.890625 33.015625 
z
" id="DejaVuSans-68"/>
     </defs>
     <g transform="translate(19.746875 435.534438)scale(0.1 -0.1)">
      <use xlink:href="#DejaVuSans-42"/>
      <use x="68.603516" xlink:href="#DejaVuSans-6f"/>
      <use x="129.785156" xlink:href="#DejaVuSans-74"/>
      <use x="168.994141" xlink:href="#DejaVuSans-68"/>
     </g>
     <!-- cell types -->
     <defs>
      <path d="M 48.78125 52.59375 
L 48.78125 44.1875 
Q 44.96875 46.296875 41.140625 47.34375 
Q 37.3125 48.390625 33.40625 48.390625 
Q 24.65625 48.390625 19.8125 42.84375 
Q 14.984375 37.3125 14.984375 27.296875 
Q 14.984375 17.28125 19.8125 11.734375 
Q 24.65625 6.203125 33.40625 6.203125 
Q 37.3125 6.203125 41.140625 7.25 
Q 44.96875 8.296875 48.78125 10.40625 
L 48.78125 2.09375 
Q 45.015625 0.34375 40.984375 -0.53125 
Q 36.96875 -1.421875 32.421875 -1.421875 
Q 20.0625 -1.421875 12.78125 6.34375 
Q 5.515625 14.109375 5.515625 27.296875 
Q 5.515625 40.671875 12.859375 48.328125 
Q 20.21875 56 33.015625 56 
Q 37.15625 56 41.109375 55.140625 
Q 45.0625 54.296875 48.78125 52.59375 
z
" id="DejaVuSans-63"/>
      <path d="M 56.203125 29.59375 
L 56.203125 25.203125 
L 14.890625 25.203125 
Q 15.484375 15.921875 20.484375 11.0625 
Q 25.484375 6.203125 34.421875 6.203125 
Q 39.59375 6.203125 44.453125 7.46875 
Q 49.3125 8.734375 54.109375 11.28125 
L 54.109375 2.78125 
Q 49.265625 0.734375 44.1875 -0.34375 
Q 39.109375 -1.421875 33.890625 -1.421875 
Q 20.796875 -1.421875 13.15625 6.1875 
Q 5.515625 13.8125 5.515625 26.8125 
Q 5.515625 40.234375 12.765625 48.109375 
Q 20.015625 56 32.328125 56 
Q 43.359375 56 49.78125 48.890625 
Q 56.203125 41.796875 56.203125 29.59375 
z
M 47.21875 32.234375 
Q 47.125 39.59375 43.09375 43.984375 
Q 39.0625 48.390625 32.421875 48.390625 
Q 24.90625 48.390625 20.390625 44.140625 
Q 15.875 39.890625 15.1875 32.171875 
z
" id="DejaVuSans-65"/>
      <path id="DejaVuSans-20"/>
      <path d="M 32.171875 -5.078125 
Q 28.375 -14.84375 24.75 -17.8125 
Q 21.140625 -20.796875 15.09375 -20.796875 
L 7.90625 -20.796875 
L 7.90625 -13.28125 
L 13.1875 -13.28125 
Q 16.890625 -13.28125 18.9375 -11.515625 
Q 21 -9.765625 23.484375 -3.21875 
L 25.09375 0.875 
L 2.984375 54.6875 
L 12.5 54.6875 
L 29.59375 11.921875 
L 46.6875 54.6875 
L 56.203125 54.6875 
z
" id="DejaVuSans-79"/>
      <path d="M 18.109375 8.203125 
L 18.109375 -20.796875 
L 9.078125 -20.796875 
L 9.078125 54.6875 
L 18.109375 54.6875 
L 18.109375 46.390625 
Q 20.953125 51.265625 25.265625 53.625 
Q 29.59375 56 35.59375 56 
Q 45.5625 56 51.78125 48.09375 
Q 58.015625 40.1875 58.015625 27.296875 
Q 58.015625 14.40625 51.78125 6.484375 
Q 45.5625 -1.421875 35.59375 -1.421875 
Q 29.59375 -1.421875 25.265625 0.953125 
Q 20.953125 3.328125 18.109375 8.203125 
z
M 48.6875 27.296875 
Q 48.6875 37.203125 44.609375 42.84375 
Q 40.53125 48.484375 33.40625 48.484375 
Q 26.265625 48.484375 22.1875 42.84375 
Q 18.109375 37.203125 18.109375 27.296875 
Q 18.109375 17.390625 22.1875 11.75 
Q 26.265625 6.109375 33.40625 6.109375 
Q 40.53125 6.109375 44.609375 11.75 
Q 48.6875 17.390625 48.6875 27.296875 
z
" id="DejaVuSans-70"/>
      <path d="M 44.28125 53.078125 
L 44.28125 44.578125 
Q 40.484375 46.53125 36.375 47.5 
Q 32.28125 48.484375 27.875 48.484375 
Q 21.1875 48.484375 17.84375 46.4375 
Q 14.5 44.390625 14.5 40.28125 
Q 14.5 37.15625 16.890625 35.375 
Q 19.28125 33.59375 26.515625 31.984375 
L 29.59375 31.296875 
Q 39.15625 29.25 43.1875 25.515625 
Q 47.21875 21.78125 47.21875 15.09375 
Q 47.21875 7.46875 41.1875 3.015625 
Q 35.15625 -1.421875 24.609375 -1.421875 
Q 20.21875 -1.421875 15.453125 -0.5625 
Q 10.6875 0.296875 5.421875 2 
L 5.421875 11.28125 
Q 10.40625 8.6875 15.234375 7.390625 
Q 20.0625 6.109375 24.8125 6.109375 
Q 31.15625 6.109375 34.5625 8.28125 
Q 37.984375 10.453125 37.984375 14.40625 
Q 37.984375 18.0625 35.515625 20.015625 
Q 33.0625 21.96875 24.703125 23.78125 
L 21.578125 24.515625 
Q 13.234375 26.265625 9.515625 29.90625 
Q 5.8125 33.546875 5.8125 39.890625 
Q 5.8125 47.609375 11.28125 51.796875 
Q 16.75 56 26.8125 56 
Q 31.78125 56 36.171875 55.265625 
Q 40.578125 54.546875 44.28125 53.078125 
z
" id="DejaVuSans-73"/>
     </defs>
     <g transform="translate(19.746875 446.73225)scale(0.1 -0.1)">
      <use xlink:href="#DejaVuSans-63"/>
      <use x="54.980469" xlink:href="#DejaVuSans-65"/>
      <use x="116.503906" xlink:href="#DejaVuSans-6c"/>
      <use x="144.287109" xlink:href="#DejaVuSans-6c"/>
      <use x="172.070312" xlink:href="#DejaVuSans-20"/>
      <use x="203.857422" xlink:href="#DejaVuSans-74"/>
      <use x="243.066406" xlink:href="#DejaVuSans-79"/>
      <use x="302.246094" xlink:href="#DejaVuSans-70"/>
      <use x="365.722656" xlink:href="#DejaVuSans-65"/>
      <use x="427.246094" xlink:href="#DejaVuSans-73"/>
     </g>
    </g>
    <g id="PathCollection_5">
     <g>
      <use style="fill:#ff0000;fill-opacity:0.7;" x="1.746875" xlink:href="#m3d36e08fcf" y="458.785375"/>
     </g>
    </g>
    <g id="text_20">
     <!-- T-specific -->
     <defs>
      <path d="M -0.296875 72.90625 
L 61.375 72.90625 
L 61.375 64.59375 
L 35.5 64.59375 
L 35.5 0 
L 25.59375 0 
L 25.59375 64.59375 
L -0.296875 64.59375 
z
" id="DejaVuSans-54"/>
      <path d="M 4.890625 31.390625 
L 31.203125 31.390625 
L 31.203125 23.390625 
L 4.890625 23.390625 
z
" id="DejaVuSans-2d"/>
      <path d="M 9.421875 54.6875 
L 18.40625 54.6875 
L 18.40625 0 
L 9.421875 0 
z
M 9.421875 75.984375 
L 18.40625 75.984375 
L 18.40625 64.59375 
L 9.421875 64.59375 
z
" id="DejaVuSans-69"/>
      <path d="M 37.109375 75.984375 
L 37.109375 68.5 
L 28.515625 68.5 
Q 23.6875 68.5 21.796875 66.546875 
Q 19.921875 64.59375 19.921875 59.515625 
L 19.921875 54.6875 
L 34.71875 54.6875 
L 34.71875 47.703125 
L 19.921875 47.703125 
L 19.921875 0 
L 10.890625 0 
L 10.890625 47.703125 
L 2.296875 47.703125 
L 2.296875 54.6875 
L 10.890625 54.6875 
L 10.890625 58.5 
Q 10.890625 67.625 15.140625 71.796875 
Q 19.390625 75.984375 28.609375 75.984375 
z
" id="DejaVuSans-66"/>
     </defs>
     <g transform="translate(19.746875 461.410375)scale(0.1 -0.1)">
      <use xlink:href="#DejaVuSans-54"/>
      <use x="60.943359" xlink:href="#DejaVuSans-2d"/>
      <use x="97.027344" xlink:href="#DejaVuSans-73"/>
      <use x="149.126953" xlink:href="#DejaVuSans-70"/>
      <use x="212.603516" xlink:href="#DejaVuSans-65"/>
      <use x="274.126953" xlink:href="#DejaVuSans-63"/>
      <use x="329.107422" xlink:href="#DejaVuSans-69"/>
      <use x="356.890625" xlink:href="#DejaVuSans-66"/>
      <use x="392.095703" xlink:href="#DejaVuSans-69"/>
      <use x="419.878906" xlink:href="#DejaVuSans-63"/>
     </g>
    </g>
    <g id="PathCollection_6">
     <g>
      <use style="fill:#0000ff;fill-opacity:0.7;" x="1.746875" xlink:href="#m5817260871" y="473.4635"/>
     </g>
    </g>
    <g id="text_21">
     <!-- B-specific -->
     <g transform="translate(19.746875 476.0885)scale(0.1 -0.1)">
      <use xlink:href="#DejaVuSans-42"/>
      <use x="68.603516" xlink:href="#DejaVuSans-2d"/>
      <use x="104.6875" xlink:href="#DejaVuSans-73"/>
      <use x="156.787109" xlink:href="#DejaVuSans-70"/>
      <use x="220.263672" xlink:href="#DejaVuSans-65"/>
      <use x="281.787109" xlink:href="#DejaVuSans-63"/>
      <use x="336.767578" xlink:href="#DejaVuSans-69"/>
      <use x="364.550781" xlink:href="#DejaVuSans-66"/>
      <use x="399.755859" xlink:href="#DejaVuSans-69"/>
      <use x="427.539062" xlink:href="#DejaVuSans-63"/>
     </g>
    </g>
   </g>
  </g>
 </g>
 <defs>
  <clipPath id="pcc4646b754">
   <rect height="443.52" width="446.4" x="72" y="69.12"/>
  </clipPath>
 </defs>
</svg>
