<?xml version="1.0" encoding="utf-8" standalone="no"?>
<!DOCTYPE svg PUBLIC "-//W3C//DTD SVG 1.1//EN"
  "http://www.w3.org/Graphics/SVG/1.1/DTD/svg11.dtd">
<!-- Created with matplotlib (http://matplotlib.org/) -->
<svg height="576pt" version="1.1" viewBox="0 0 576 576" width="576pt" xmlns="http://www.w3.org/2000/svg" xmlns:xlink="http://www.w3.org/1999/xlink">
 <defs>
  <style type="text/css">
*{stroke-linecap:butt;stroke-linejoin:round;}
  </style>
 </defs>
 <g id="figure_1">
  <g id="patch_1">
   <path d="
M0 576
L576 576
L576 0
L0 0
z
" style="fill:#ffffff;"/>
  </g>
  <g id="axes_1">
   <g id="patch_2">
    <path d="
M72 518.4
L518.4 518.4
L518.4 57.6
L72 57.6
z
" style="fill:#ffffff;"/>
   </g>
   <g id="PathCollection_1">
    <defs>
     <path d="
M0 1.22474
C0.324806 1.22474 0.636353 1.0957 0.866025 0.866025
C1.0957 0.636353 1.22474 0.324806 1.22474 0
C1.22474 -0.324806 1.0957 -0.636353 0.866025 -0.866025
C0.636353 -1.0957 0.324806 -1.22474 0 -1.22474
C-0.324806 -1.22474 -0.636353 -1.0957 -0.866025 -0.866025
C-1.0957 -0.636353 -1.22474 -0.324806 -1.22474 0
C-1.22474 0.324806 -1.0957 0.636353 -0.866025 0.866025
C-0.636353 1.0957 -0.324806 1.22474 0 1.22474
z
" id="mbdf861544b"/>
    </defs>
    <g clip-path="url(#p4f6257ca6d)">
     <use style="fill:#808080;fill-opacity:0.4;" x="259.408863381" xlink:href="#mbdf861544b" y="386.750818349"/>
     <use style="fill:#808080;fill-opacity:0.4;" x="303.07840811" xlink:href="#mbdf861544b" y="447.411001307"/>
     <use style="fill:#808080;fill-opacity:0.4;" x="281.266659999" xlink:href="#mbdf861544b" y="403.311886419"/>
     <use style="fill:#808080;fill-opacity:0.4;" x="263.582487039" xlink:href="#mbdf861544b" y="350.29245519"/>
     <use style="fill:#808080;fill-opacity:0.4;" x="284.781894413" xlink:href="#mbdf861544b" y="446.384763692"/>
     <use style="fill:#808080;fill-opacity:0.4;" x="310.327687422" xlink:href="#mbdf861544b" y="432.297350053"/>
     <use style="fill:#808080;fill-opacity:0.4;" x="268.870099333" xlink:href="#mbdf861544b" y="369.128220183"/>
     <use style="fill:#808080;fill-opacity:0.4;" x="318.177813657" xlink:href="#mbdf861544b" y="380.643349375"/>
     <use style="fill:#808080;fill-opacity:0.4;" x="372.988405993" xlink:href="#mbdf861544b" y="354.939188179"/>
     <use style="fill:#808080;fill-opacity:0.4;" x="290.089724777" xlink:href="#mbdf861544b" y="435.268212178"/>
     <use style="fill:#808080;fill-opacity:0.4;" x="304.210689475" xlink:href="#mbdf861544b" y="415.132956218"/>
     <use style="fill:#808080;fill-opacity:0.4;" x="319.526449653" xlink:href="#mbdf861544b" y="405.6630702"/>
     <use style="fill:#808080;fill-opacity:0.4;" x="302.264675748" xlink:href="#mbdf861544b" y="430.055410497"/>
     <use style="fill:#808080;fill-opacity:0.4;" x="303.517966665" xlink:href="#mbdf861544b" y="451.474418869"/>
     <use style="fill:#808080;fill-opacity:0.4;" x="271.617765237" xlink:href="#mbdf861544b" y="409.820824173"/>
     <use style="fill:#808080;fill-opacity:0.4;" x="304.339218486" xlink:href="#mbdf861544b" y="425.760994137"/>
     <use style="fill:#808080;fill-opacity:0.4;" x="288.082367685" xlink:href="#mbdf861544b" y="452.781306938"/>
     <use style="fill:#808080;fill-opacity:0.4;" x="241.606632464" xlink:href="#mbdf861544b" y="439.97229437"/>
     <use style="fill:#808080;fill-opacity:0.4;" x="323.045508064" xlink:href="#mbdf861544b" y="355.087125872"/>
     <use style="fill:#808080;fill-opacity:0.4;" x="309.17463234" xlink:href="#mbdf861544b" y="426.828718363"/>
     <use style="fill:#808080;fill-opacity:0.4;" x="245.999517436" xlink:href="#mbdf861544b" y="387.672047972"/>
     <use style="fill:#808080;fill-opacity:0.4;" x="303.462213932" xlink:href="#mbdf861544b" y="441.181007179"/>
     <use style="fill:#808080;fill-opacity:0.4;" x="282.241379352" xlink:href="#mbdf861544b" y="402.961273477"/>
     <use style="fill:#808080;fill-opacity:0.4;" x="298.673182302" xlink:href="#mbdf861544b" y="451.955945927"/>
     <use style="fill:#808080;fill-opacity:0.4;" x="265.420079335" xlink:href="#mbdf861544b" y="343.493366746"/>
     <use style="fill:#808080;fill-opacity:0.4;" x="269.157337631" xlink:href="#mbdf861544b" y="418.142259414"/>
     <use style="fill:#808080;fill-opacity:0.4;" x="262.438454037" xlink:href="#mbdf861544b" y="337.387219759"/>
     <use style="fill:#808080;fill-opacity:0.4;" x="221.997904974" xlink:href="#mbdf861544b" y="236.478686442"/>
     <use style="fill:#808080;fill-opacity:0.4;" x="271.408630589" xlink:href="#mbdf861544b" y="401.418342227"/>
     <use style="fill:#808080;fill-opacity:0.4;" x="263.880654649" xlink:href="#mbdf861544b" y="312.767650708"/>
     <use style="fill:#808080;fill-opacity:0.4;" x="224.96817968" xlink:href="#mbdf861544b" y="353.939163119"/>
     <use style="fill:#808080;fill-opacity:0.4;" x="279.550175851" xlink:href="#mbdf861544b" y="334.515508899"/>
     <use style="fill:#808080;fill-opacity:0.4;" x="337.893250617" xlink:href="#mbdf861544b" y="379.701370269"/>
     <use style="fill:#808080;fill-opacity:0.4;" x="276.473900011" xlink:href="#mbdf861544b" y="396.883267818"/>
     <use style="fill:#808080;fill-opacity:0.4;" x="277.757961218" xlink:href="#mbdf861544b" y="392.418521941"/>
     <use style="fill:#808080;fill-opacity:0.4;" x="269.585291113" xlink:href="#mbdf861544b" y="414.463119709"/>
     <use style="fill:#808080;fill-opacity:0.4;" x="249.340607927" xlink:href="#mbdf861544b" y="345.571721616"/>
     <use style="fill:#808080;fill-opacity:0.4;" x="274.621379667" xlink:href="#mbdf861544b" y="414.740457698"/>
     <use style="fill:#808080;fill-opacity:0.4;" x="262.291964776" xlink:href="#mbdf861544b" y="407.537836478"/>
     <use style="fill:#808080;fill-opacity:0.4;" x="302.835682018" xlink:href="#mbdf861544b" y="450.665818873"/>
     <use style="fill:#808080;fill-opacity:0.4;" x="259.701219597" xlink:href="#mbdf861544b" y="366.014109291"/>
     <use style="fill:#808080;fill-opacity:0.4;" x="289.347310977" xlink:href="#mbdf861544b" y="449.011059632"/>
     <use style="fill:#808080;fill-opacity:0.4;" x="284.345968833" xlink:href="#mbdf861544b" y="453.367218343"/>
     <use style="fill:#808080;fill-opacity:0.4;" x="262.358330335" xlink:href="#mbdf861544b" y="440.80414653"/>
     <use style="fill:#808080;fill-opacity:0.4;" x="289.325598574" xlink:href="#mbdf861544b" y="362.002724172"/>
     <use style="fill:#808080;fill-opacity:0.4;" x="283.865899155" xlink:href="#mbdf861544b" y="455.416810841"/>
     <use style="fill:#808080;fill-opacity:0.4;" x="275.924020303" xlink:href="#mbdf861544b" y="443.940153611"/>
     <use style="fill:#808080;fill-opacity:0.4;" x="276.503485295" xlink:href="#mbdf861544b" y="445.921290165"/>
     <use style="fill:#808080;fill-opacity:0.4;" x="298.556730439" xlink:href="#mbdf861544b" y="416.918788621"/>
     <use style="fill:#808080;fill-opacity:0.4;" x="327.0088095" xlink:href="#mbdf861544b" y="341.089974945"/>
     <use style="fill:#808080;fill-opacity:0.4;" x="282.783257256" xlink:href="#mbdf861544b" y="446.395027805"/>
     <use style="fill:#808080;fill-opacity:0.4;" x="308.203451332" xlink:href="#mbdf861544b" y="357.467710723"/>
     <use style="fill:#808080;fill-opacity:0.4;" x="282.726997455" xlink:href="#mbdf861544b" y="446.594142266"/>
     <use style="fill:#808080;fill-opacity:0.4;" x="252.459601528" xlink:href="#mbdf861544b" y="390.212082223"/>
     <use style="fill:#808080;fill-opacity:0.4;" x="307.550379297" xlink:href="#mbdf861544b" y="421.027656314"/>
     <use style="fill:#808080;fill-opacity:0.4;" x="279.873622031" xlink:href="#mbdf861544b" y="376.643489088"/>
     <use style="fill:#808080;fill-opacity:0.4;" x="308.875021972" xlink:href="#mbdf861544b" y="332.880768974"/>
     <use style="fill:#808080;fill-opacity:0.4;" x="283.164342182" xlink:href="#mbdf861544b" y="409.065052254"/>
     <use style="fill:#808080;fill-opacity:0.4;" x="315.354457305" xlink:href="#mbdf861544b" y="418.772390997"/>
     <use style="fill:#808080;fill-opacity:0.4;" x="306.293986089" xlink:href="#mbdf861544b" y="419.337715791"/>
    </g>
   </g>
   <g id="PathCollection_2">
    <defs>
     <path d="
M0 2.23607
C0.593012 2.23607 1.16182 2.00046 1.58114 1.58114
C2.00046 1.16182 2.23607 0.593012 2.23607 0
C2.23607 -0.593012 2.00046 -1.16182 1.58114 -1.58114
C1.16182 -2.00046 0.593012 -2.23607 0 -2.23607
C-0.593012 -2.23607 -1.16182 -2.00046 -1.58114 -1.58114
C-2.00046 -1.16182 -2.23607 -0.593012 -2.23607 0
C-2.23607 0.593012 -2.00046 1.16182 -1.58114 1.58114
C-1.16182 2.00046 -0.593012 2.23607 0 2.23607
z
" id="m7cb9d76dbe"/>
    </defs>
    <g clip-path="url(#p4f6257ca6d)">
     <use style="fill:#ff0000;fill-opacity:0.7;" x="303.66953252" xlink:href="#m7cb9d76dbe" y="446.782564098"/>
     <use style="fill:#ff0000;fill-opacity:0.7;" x="282.694272922" xlink:href="#m7cb9d76dbe" y="430.034386591"/>
     <use style="fill:#ff0000;fill-opacity:0.7;" x="321.535144815" xlink:href="#m7cb9d76dbe" y="384.915593484"/>
     <use style="fill:#ff0000;fill-opacity:0.7;" x="277.315018734" xlink:href="#m7cb9d76dbe" y="395.737621725"/>
     <use style="fill:#ff0000;fill-opacity:0.7;" x="281.239277789" xlink:href="#m7cb9d76dbe" y="438.414855396"/>
     <use style="fill:#ff0000;fill-opacity:0.7;" x="277.763617205" xlink:href="#m7cb9d76dbe" y="415.254683519"/>
     <use style="fill:#ff0000;fill-opacity:0.7;" x="312.331082254" xlink:href="#m7cb9d76dbe" y="353.811401703"/>
     <use style="fill:#ff0000;fill-opacity:0.7;" x="324.674689752" xlink:href="#m7cb9d76dbe" y="376.730738977"/>
     <use style="fill:#ff0000;fill-opacity:0.7;" x="283.229996178" xlink:href="#m7cb9d76dbe" y="445.087450437"/>
     <use style="fill:#ff0000;fill-opacity:0.7;" x="303.865644484" xlink:href="#m7cb9d76dbe" y="455.049778677"/>
     <use style="fill:#ff0000;fill-opacity:0.7;" x="268.436610988" xlink:href="#m7cb9d76dbe" y="401.743058679"/>
     <use style="fill:#ff0000;fill-opacity:0.7;" x="192.597755505" xlink:href="#m7cb9d76dbe" y="279.921463086"/>
     <use style="fill:#ff0000;fill-opacity:0.7;" x="240.619292426" xlink:href="#m7cb9d76dbe" y="390.192985973"/>
     <use style="fill:#ff0000;fill-opacity:0.7;" x="246.288868016" xlink:href="#m7cb9d76dbe" y="311.994224137"/>
     <use style="fill:#ff0000;fill-opacity:0.7;" x="268.045602577" xlink:href="#m7cb9d76dbe" y="436.949617629"/>
     <use style="fill:#ff0000;fill-opacity:0.7;" x="289.170260117" xlink:href="#m7cb9d76dbe" y="387.151004453"/>
     <use style="fill:#ff0000;fill-opacity:0.7;" x="262.33543522" xlink:href="#m7cb9d76dbe" y="316.476573764"/>
     <use style="fill:#ff0000;fill-opacity:0.7;" x="291.828169946" xlink:href="#m7cb9d76dbe" y="437.504067104"/>
     <use style="fill:#ff0000;fill-opacity:0.7;" x="298.270709266" xlink:href="#m7cb9d76dbe" y="448.051211713"/>
     <use style="fill:#ff0000;fill-opacity:0.7;" x="283.829471294" xlink:href="#m7cb9d76dbe" y="442.324048375"/>
     <use style="fill:#ff0000;fill-opacity:0.7;" x="278.831381909" xlink:href="#m7cb9d76dbe" y="448.091460308"/>
     <use style="fill:#ff0000;fill-opacity:0.7;" x="312.566927225" xlink:href="#m7cb9d76dbe" y="431.188439606"/>
     <use style="fill:#ff0000;fill-opacity:0.7;" x="326.704179055" xlink:href="#m7cb9d76dbe" y="399.158788718"/>
     <use style="fill:#ff0000;fill-opacity:0.7;" x="277.154924395" xlink:href="#m7cb9d76dbe" y="427.269749781"/>
     <use style="fill:#ff0000;fill-opacity:0.7;" x="327.615009945" xlink:href="#m7cb9d76dbe" y="372.855621518"/>
     <use style="fill:#ff0000;fill-opacity:0.7;" x="359.579838691" xlink:href="#m7cb9d76dbe" y="243.397180063"/>
     <use style="fill:#ff0000;fill-opacity:0.7;" x="290.06756181" xlink:href="#m7cb9d76dbe" y="447.325754811"/>
     <use style="fill:#ff0000;fill-opacity:0.7;" x="257.028424612" xlink:href="#m7cb9d76dbe" y="332.035040375"/>
     <use style="fill:#ff0000;fill-opacity:0.7;" x="285.370626387" xlink:href="#m7cb9d76dbe" y="454.491021406"/>
     <use style="fill:#ff0000;fill-opacity:0.7;" x="308.512421471" xlink:href="#m7cb9d76dbe" y="443.769794477"/>
     <use style="fill:#ff0000;fill-opacity:0.7;" x="209.340393024" xlink:href="#m7cb9d76dbe" y="291.134386031"/>
     <use style="fill:#ff0000;fill-opacity:0.7;" x="339.869271117" xlink:href="#m7cb9d76dbe" y="292.047506618"/>
     <use style="fill:#ff0000;fill-opacity:0.7;" x="308.313055017" xlink:href="#m7cb9d76dbe" y="443.012370113"/>
     <use style="fill:#ff0000;fill-opacity:0.7;" x="154.849329311" xlink:href="#m7cb9d76dbe" y="245.107027886"/>
     <use style="fill:#ff0000;fill-opacity:0.7;" x="106.289390924" xlink:href="#m7cb9d76dbe" y="240.801674433"/>
     <use style="fill:#ff0000;fill-opacity:0.7;" x="273.628300202" xlink:href="#m7cb9d76dbe" y="400.568018667"/>
     <use style="fill:#ff0000;fill-opacity:0.7;" x="279.639228444" xlink:href="#m7cb9d76dbe" y="424.575710076"/>
     <use style="fill:#ff0000;fill-opacity:0.7;" x="316.159030631" xlink:href="#m7cb9d76dbe" y="384.839770007"/>
     <use style="fill:#ff0000;fill-opacity:0.7;" x="309.380407298" xlink:href="#m7cb9d76dbe" y="422.296736792"/>
     <use style="fill:#ff0000;fill-opacity:0.7;" x="271.328072991" xlink:href="#m7cb9d76dbe" y="367.462858356"/>
     <use style="fill:#ff0000;fill-opacity:0.7;" x="289.08660133" xlink:href="#m7cb9d76dbe" y="450.60731008"/>
     <use style="fill:#ff0000;fill-opacity:0.7;" x="315.573089102" xlink:href="#m7cb9d76dbe" y="449.737788804"/>
     <use style="fill:#ff0000;fill-opacity:0.7;" x="270.584934829" xlink:href="#m7cb9d76dbe" y="408.426612945"/>
     <use style="fill:#ff0000;fill-opacity:0.7;" x="310.944093277" xlink:href="#m7cb9d76dbe" y="413.675961201"/>
     <use style="fill:#ff0000;fill-opacity:0.7;" x="268.943359037" xlink:href="#m7cb9d76dbe" y="366.331681544"/>
     <use style="fill:#ff0000;fill-opacity:0.7;" x="288.500790944" xlink:href="#m7cb9d76dbe" y="453.677482194"/>
     <use style="fill:#ff0000;fill-opacity:0.7;" x="259.054617215" xlink:href="#m7cb9d76dbe" y="439.294739984"/>
     <use style="fill:#ff0000;fill-opacity:0.7;" x="337.643853137" xlink:href="#m7cb9d76dbe" y="290.541273915"/>
     <use style="fill:#ff0000;fill-opacity:0.7;" x="328.288958775" xlink:href="#m7cb9d76dbe" y="447.688451344"/>
     <use style="fill:#ff0000;fill-opacity:0.7;" x="170.411085618" xlink:href="#m7cb9d76dbe" y="216.994876237"/>
     <use style="fill:#ff0000;fill-opacity:0.7;" x="274.795794416" xlink:href="#m7cb9d76dbe" y="367.166189621"/>
     <use style="fill:#ff0000;fill-opacity:0.7;" x="297.366336249" xlink:href="#m7cb9d76dbe" y="454.096958156"/>
     <use style="fill:#ff0000;fill-opacity:0.7;" x="307.433901006" xlink:href="#m7cb9d76dbe" y="450.706371124"/>
     <use style="fill:#ff0000;fill-opacity:0.7;" x="267.372541265" xlink:href="#m7cb9d76dbe" y="449.25176624"/>
     <use style="fill:#ff0000;fill-opacity:0.7;" x="234.2076864" xlink:href="#m7cb9d76dbe" y="310.554284687"/>
     <use style="fill:#ff0000;fill-opacity:0.7;" x="242.219207297" xlink:href="#m7cb9d76dbe" y="379.91554023"/>
     <use style="fill:#ff0000;fill-opacity:0.7;" x="278.852834276" xlink:href="#m7cb9d76dbe" y="451.323455115"/>
     <use style="fill:#ff0000;fill-opacity:0.7;" x="371.219258509" xlink:href="#m7cb9d76dbe" y="191.91061334"/>
     <use style="fill:#ff0000;fill-opacity:0.7;" x="344.758065268" xlink:href="#m7cb9d76dbe" y="279.798091514"/>
     <use style="fill:#ff0000;fill-opacity:0.7;" x="310.691239381" xlink:href="#m7cb9d76dbe" y="412.190067261"/>
     <use style="fill:#ff0000;fill-opacity:0.7;" x="260.857128724" xlink:href="#m7cb9d76dbe" y="411.603645055"/>
     <use style="fill:#ff0000;fill-opacity:0.7;" x="149.045699482" xlink:href="#m7cb9d76dbe" y="245.069286552"/>
     <use style="fill:#ff0000;fill-opacity:0.7;" x="289.946108851" xlink:href="#m7cb9d76dbe" y="431.480386448"/>
     <use style="fill:#ff0000;fill-opacity:0.7;" x="213.777088667" xlink:href="#m7cb9d76dbe" y="396.990685962"/>
     <use style="fill:#ff0000;fill-opacity:0.7;" x="280.433924281" xlink:href="#m7cb9d76dbe" y="455.538933668"/>
     <use style="fill:#ff0000;fill-opacity:0.7;" x="308.226269929" xlink:href="#m7cb9d76dbe" y="408.544356641"/>
     <use style="fill:#ff0000;fill-opacity:0.7;" x="280.447012214" xlink:href="#m7cb9d76dbe" y="405.449766325"/>
     <use style="fill:#ff0000;fill-opacity:0.7;" x="204.538283488" xlink:href="#m7cb9d76dbe" y="448.214438168"/>
     <use style="fill:#ff0000;fill-opacity:0.7;" x="271.223647817" xlink:href="#m7cb9d76dbe" y="337.558439716"/>
     <use style="fill:#ff0000;fill-opacity:0.7;" x="281.274379111" xlink:href="#m7cb9d76dbe" y="443.984463803"/>
     <use style="fill:#ff0000;fill-opacity:0.7;" x="253.381973732" xlink:href="#m7cb9d76dbe" y="350.004877929"/>
     <use style="fill:#ff0000;fill-opacity:0.7;" x="318.011218788" xlink:href="#m7cb9d76dbe" y="430.155413424"/>
     <use style="fill:#ff0000;fill-opacity:0.7;" x="232.711151237" xlink:href="#m7cb9d76dbe" y="348.849087418"/>
     <use style="fill:#ff0000;fill-opacity:0.7;" x="308.672847861" xlink:href="#m7cb9d76dbe" y="442.092355778"/>
     <use style="fill:#ff0000;fill-opacity:0.7;" x="261.389474278" xlink:href="#m7cb9d76dbe" y="406.284086893"/>
     <use style="fill:#ff0000;fill-opacity:0.7;" x="149.06872295" xlink:href="#m7cb9d76dbe" y="387.6492573"/>
     <use style="fill:#ff0000;fill-opacity:0.7;" x="316.438959823" xlink:href="#m7cb9d76dbe" y="370.560966326"/>
     <use style="fill:#ff0000;fill-opacity:0.7;" x="314.094972381" xlink:href="#m7cb9d76dbe" y="414.994107895"/>
     <use style="fill:#ff0000;fill-opacity:0.7;" x="312.20465264" xlink:href="#m7cb9d76dbe" y="448.059187175"/>
     <use style="fill:#ff0000;fill-opacity:0.7;" x="233.721397387" xlink:href="#m7cb9d76dbe" y="401.36239879"/>
     <use style="fill:#ff0000;fill-opacity:0.7;" x="270.015765564" xlink:href="#m7cb9d76dbe" y="432.640340396"/>
     <use style="fill:#ff0000;fill-opacity:0.7;" x="289.080472877" xlink:href="#m7cb9d76dbe" y="454.178015638"/>
     <use style="fill:#ff0000;fill-opacity:0.7;" x="264.454716487" xlink:href="#m7cb9d76dbe" y="437.788257558"/>
     <use style="fill:#ff0000;fill-opacity:0.7;" x="296.686264208" xlink:href="#m7cb9d76dbe" y="436.713211519"/>
     <use style="fill:#ff0000;fill-opacity:0.7;" x="308.506145153" xlink:href="#m7cb9d76dbe" y="371.359473235"/>
     <use style="fill:#ff0000;fill-opacity:0.7;" x="299.310352718" xlink:href="#m7cb9d76dbe" y="435.293014027"/>
     <use style="fill:#ff0000;fill-opacity:0.7;" x="345.614532127" xlink:href="#m7cb9d76dbe" y="328.604996411"/>
     <use style="fill:#ff0000;fill-opacity:0.7;" x="298.011090697" xlink:href="#m7cb9d76dbe" y="454.093287749"/>
     <use style="fill:#ff0000;fill-opacity:0.7;" x="247.185329247" xlink:href="#m7cb9d76dbe" y="392.806556736"/>
     <use style="fill:#ff0000;fill-opacity:0.7;" x="305.677293769" xlink:href="#m7cb9d76dbe" y="444.641087424"/>
     <use style="fill:#ff0000;fill-opacity:0.7;" x="277.255953119" xlink:href="#m7cb9d76dbe" y="436.242877571"/>
     <use style="fill:#ff0000;fill-opacity:0.7;" x="238.525491515" xlink:href="#m7cb9d76dbe" y="296.298058677"/>
     <use style="fill:#ff0000;fill-opacity:0.7;" x="259.299517551" xlink:href="#m7cb9d76dbe" y="393.197024181"/>
     <use style="fill:#ff0000;fill-opacity:0.7;" x="259.843562379" xlink:href="#m7cb9d76dbe" y="312.826075487"/>
     <use style="fill:#ff0000;fill-opacity:0.7;" x="260.9423977" xlink:href="#m7cb9d76dbe" y="380.271140726"/>
    </g>
   </g>
   <g id="PathCollection_3">
    <defs>
     <path d="
M0 2.23607
C0.593012 2.23607 1.16182 2.00046 1.58114 1.58114
C2.00046 1.16182 2.23607 0.593012 2.23607 0
C2.23607 -0.593012 2.00046 -1.16182 1.58114 -1.58114
C1.16182 -2.00046 0.593012 -2.23607 0 -2.23607
C-0.593012 -2.23607 -1.16182 -2.00046 -1.58114 -1.58114
C-2.00046 -1.16182 -2.23607 -0.593012 -2.23607 0
C-2.23607 0.593012 -2.00046 1.16182 -1.58114 1.58114
C-1.16182 2.00046 -0.593012 2.23607 0 2.23607
z
" id="m2ef34689e1"/>
    </defs>
    <g clip-path="url(#p4f6257ca6d)">
     <use style="fill:#0000ff;fill-opacity:0.7;" x="311.008410675" xlink:href="#m2ef34689e1" y="421.810499099"/>
     <use style="fill:#0000ff;fill-opacity:0.7;" x="177.495971165" xlink:href="#m2ef34689e1" y="280.32108214"/>
     <use style="fill:#0000ff;fill-opacity:0.7;" x="275.232987355" xlink:href="#m2ef34689e1" y="402.43056923"/>
     <use style="fill:#0000ff;fill-opacity:0.7;" x="281.749154537" xlink:href="#m2ef34689e1" y="445.826526425"/>
     <use style="fill:#0000ff;fill-opacity:0.7;" x="285.81558574" xlink:href="#m2ef34689e1" y="441.822427386"/>
     <use style="fill:#0000ff;fill-opacity:0.7;" x="277.811976071" xlink:href="#m2ef34689e1" y="409.399293489"/>
     <use style="fill:#0000ff;fill-opacity:0.7;" x="314.594458018" xlink:href="#m2ef34689e1" y="428.165448898"/>
     <use style="fill:#0000ff;fill-opacity:0.7;" x="306.453275391" xlink:href="#m2ef34689e1" y="426.077372125"/>
     <use style="fill:#0000ff;fill-opacity:0.7;" x="275.055534033" xlink:href="#m2ef34689e1" y="386.264368561"/>
     <use style="fill:#0000ff;fill-opacity:0.7;" x="272.029043507" xlink:href="#m2ef34689e1" y="403.415426089"/>
     <use style="fill:#0000ff;fill-opacity:0.7;" x="269.685934781" xlink:href="#m2ef34689e1" y="375.147001875"/>
     <use style="fill:#0000ff;fill-opacity:0.7;" x="267.29661616" xlink:href="#m2ef34689e1" y="444.548736914"/>
     <use style="fill:#0000ff;fill-opacity:0.7;" x="343.591163776" xlink:href="#m2ef34689e1" y="432.722872661"/>
     <use style="fill:#0000ff;fill-opacity:0.7;" x="358.887365017" xlink:href="#m2ef34689e1" y="312.793666427"/>
     <use style="fill:#0000ff;fill-opacity:0.7;" x="276.920334592" xlink:href="#m2ef34689e1" y="358.325331561"/>
     <use style="fill:#0000ff;fill-opacity:0.7;" x="317.592624962" xlink:href="#m2ef34689e1" y="365.244705614"/>
     <use style="fill:#0000ff;fill-opacity:0.7;" x="342.337383812" xlink:href="#m2ef34689e1" y="279.14009377"/>
     <use style="fill:#0000ff;fill-opacity:0.7;" x="267.727928176" xlink:href="#m2ef34689e1" y="414.127347133"/>
     <use style="fill:#0000ff;fill-opacity:0.7;" x="264.386567102" xlink:href="#m2ef34689e1" y="402.806590574"/>
     <use style="fill:#0000ff;fill-opacity:0.7;" x="260.176443412" xlink:href="#m2ef34689e1" y="359.701122449"/>
     <use style="fill:#0000ff;fill-opacity:0.7;" x="286.792750886" xlink:href="#m2ef34689e1" y="370.284873261"/>
     <use style="fill:#0000ff;fill-opacity:0.7;" x="269.367776884" xlink:href="#m2ef34689e1" y="383.308327801"/>
     <use style="fill:#0000ff;fill-opacity:0.7;" x="314.131057765" xlink:href="#m2ef34689e1" y="426.103401711"/>
     <use style="fill:#0000ff;fill-opacity:0.7;" x="259.243425588" xlink:href="#m2ef34689e1" y="376.584103924"/>
     <use style="fill:#0000ff;fill-opacity:0.7;" x="406.448079637" xlink:href="#m2ef34689e1" y="294.620431792"/>
     <use style="fill:#0000ff;fill-opacity:0.7;" x="329.548311878" xlink:href="#m2ef34689e1" y="417.052074407"/>
     <use style="fill:#0000ff;fill-opacity:0.7;" x="350.187654236" xlink:href="#m2ef34689e1" y="228.897326003"/>
     <use style="fill:#0000ff;fill-opacity:0.7;" x="263.161777297" xlink:href="#m2ef34689e1" y="308.975801449"/>
     <use style="fill:#0000ff;fill-opacity:0.7;" x="275.845239627" xlink:href="#m2ef34689e1" y="450.523272374"/>
     <use style="fill:#0000ff;fill-opacity:0.7;" x="310.669419718" xlink:href="#m2ef34689e1" y="401.129177508"/>
     <use style="fill:#0000ff;fill-opacity:0.7;" x="257.66600087" xlink:href="#m2ef34689e1" y="385.47507974"/>
     <use style="fill:#0000ff;fill-opacity:0.7;" x="322.978483044" xlink:href="#m2ef34689e1" y="394.313105649"/>
     <use style="fill:#0000ff;fill-opacity:0.7;" x="373.806901865" xlink:href="#m2ef34689e1" y="274.957348159"/>
     <use style="fill:#0000ff;fill-opacity:0.7;" x="322.145934166" xlink:href="#m2ef34689e1" y="364.545086497"/>
     <use style="fill:#0000ff;fill-opacity:0.7;" x="264.881268938" xlink:href="#m2ef34689e1" y="342.087341236"/>
     <use style="fill:#0000ff;fill-opacity:0.7;" x="389.81161004" xlink:href="#m2ef34689e1" y="265.055603115"/>
     <use style="fill:#0000ff;fill-opacity:0.7;" x="276.481553597" xlink:href="#m2ef34689e1" y="407.208922224"/>
     <use style="fill:#0000ff;fill-opacity:0.7;" x="256.248949941" xlink:href="#m2ef34689e1" y="365.956982462"/>
     <use style="fill:#0000ff;fill-opacity:0.7;" x="142.151236564" xlink:href="#m2ef34689e1" y="164.019871173"/>
     <use style="fill:#0000ff;fill-opacity:0.7;" x="288.748671666" xlink:href="#m2ef34689e1" y="452.403664961"/>
     <use style="fill:#0000ff;fill-opacity:0.7;" x="435.012282645" xlink:href="#m2ef34689e1" y="273.429375246"/>
     <use style="fill:#0000ff;fill-opacity:0.7;" x="278.8647709" xlink:href="#m2ef34689e1" y="399.772040521"/>
     <use style="fill:#0000ff;fill-opacity:0.7;" x="264.861954504" xlink:href="#m2ef34689e1" y="380.891627321"/>
     <use style="fill:#0000ff;fill-opacity:0.7;" x="241.382571756" xlink:href="#m2ef34689e1" y="278.3162455"/>
     <use style="fill:#0000ff;fill-opacity:0.7;" x="403.205489644" xlink:href="#m2ef34689e1" y="266.686033909"/>
     <use style="fill:#0000ff;fill-opacity:0.7;" x="281.720625651" xlink:href="#m2ef34689e1" y="428.258556459"/>
     <use style="fill:#0000ff;fill-opacity:0.7;" x="276.259612224" xlink:href="#m2ef34689e1" y="453.345363748"/>
     <use style="fill:#0000ff;fill-opacity:0.7;" x="248.306006131" xlink:href="#m2ef34689e1" y="361.940150182"/>
     <use style="fill:#0000ff;fill-opacity:0.7;" x="270.717020144" xlink:href="#m2ef34689e1" y="362.807158194"/>
     <use style="fill:#0000ff;fill-opacity:0.7;" x="313.994452741" xlink:href="#m2ef34689e1" y="393.68331231"/>
     <use style="fill:#0000ff;fill-opacity:0.7;" x="264.019090398" xlink:href="#m2ef34689e1" y="401.155750179"/>
     <use style="fill:#0000ff;fill-opacity:0.7;" x="356.030698209" xlink:href="#m2ef34689e1" y="309.588026877"/>
     <use style="fill:#0000ff;fill-opacity:0.7;" x="316.34032843" xlink:href="#m2ef34689e1" y="420.705701974"/>
     <use style="fill:#0000ff;fill-opacity:0.7;" x="288.573266262" xlink:href="#m2ef34689e1" y="446.144661055"/>
     <use style="fill:#0000ff;fill-opacity:0.7;" x="288.793489495" xlink:href="#m2ef34689e1" y="453.958562824"/>
     <use style="fill:#0000ff;fill-opacity:0.7;" x="279.91068061" xlink:href="#m2ef34689e1" y="447.00295028"/>
     <use style="fill:#0000ff;fill-opacity:0.7;" x="267.015493824" xlink:href="#m2ef34689e1" y="421.133558167"/>
     <use style="fill:#0000ff;fill-opacity:0.7;" x="349.546146208" xlink:href="#m2ef34689e1" y="413.968090151"/>
     <use style="fill:#0000ff;fill-opacity:0.7;" x="188.803042035" xlink:href="#m2ef34689e1" y="318.825275931"/>
     <use style="fill:#0000ff;fill-opacity:0.7;" x="219.106352167" xlink:href="#m2ef34689e1" y="282.632563437"/>
     <use style="fill:#0000ff;fill-opacity:0.7;" x="249.472787902" xlink:href="#m2ef34689e1" y="171.228944601"/>
     <use style="fill:#0000ff;fill-opacity:0.7;" x="473.248264035" xlink:href="#m2ef34689e1" y="129.996217734"/>
     <use style="fill:#0000ff;fill-opacity:0.7;" x="286.165678801" xlink:href="#m2ef34689e1" y="434.759754731"/>
     <use style="fill:#0000ff;fill-opacity:0.7;" x="286.171167636" xlink:href="#m2ef34689e1" y="410.060723581"/>
     <use style="fill:#0000ff;fill-opacity:0.7;" x="289.480687137" xlink:href="#m2ef34689e1" y="438.613326135"/>
     <use style="fill:#0000ff;fill-opacity:0.7;" x="239.839955245" xlink:href="#m2ef34689e1" y="311.502262502"/>
     <use style="fill:#0000ff;fill-opacity:0.7;" x="341.909633153" xlink:href="#m2ef34689e1" y="327.298617005"/>
    </g>
   </g>
   <g id="line2d_1">
    <path clip-path="url(#p4f6257ca6d)" d="
M72 480.93
L518.4 480.93" style="fill:none;stroke:#000000;stroke-dasharray:6.000000,6.000000;stroke-dashoffset:0.0;"/>
   </g>
   <g id="patch_3">
    <path d="
M72 57.6
L518.4 57.6" style="fill:none;"/>
   </g>
   <g id="patch_4">
    <path d="
M518.4 518.4
L518.4 57.6" style="fill:none;"/>
   </g>
   <g id="patch_5">
    <path d="
M72 518.4
L518.4 518.4" style="fill:none;stroke:#000000;stroke-linecap:square;stroke-linejoin:miter;"/>
   </g>
   <g id="patch_6">
    <path d="
M295.2 518.4
L295.2 57.6" style="fill:none;stroke:#000000;stroke-linecap:square;stroke-linejoin:miter;"/>
   </g>
   <g id="matplotlib.axis_1">
    <g id="xtick_1">
     <g id="line2d_2">
      <defs>
       <path d="
M0 0
L0 -4" id="m93b0483c22" style="stroke:#000000;stroke-width:0.5;"/>
      </defs>
      <g>
       <use style="stroke:#000000;stroke-width:0.5;" x="72.0" xlink:href="#m93b0483c22" y="518.4"/>
      </g>
     </g>
     <g id="line2d_3">
      <defs>
       <path d="
M0 0
L0 4" id="m741efc42ff" style="stroke:#000000;stroke-width:0.5;"/>
      </defs>
      <g>
       <use style="stroke:#000000;stroke-width:0.5;" x="72.0" xlink:href="#m741efc42ff" y="57.6"/>
      </g>
     </g>
     <g id="text_1">
      <!-- −8 -->
      <defs>
       <path d="
M10.5938 35.5
L73.1875 35.5
L73.1875 27.2031
L10.5938 27.2031
z
" id="BitstreamVeraSans-Roman-2212"/>
       <path d="
M31.7812 34.625
Q24.75 34.625 20.7188 30.8594
Q16.7031 27.0938 16.7031 20.5156
Q16.7031 13.9219 20.7188 10.1562
Q24.75 6.39062 31.7812 6.39062
Q38.8125 6.39062 42.8594 10.1719
Q46.9219 13.9688 46.9219 20.5156
Q46.9219 27.0938 42.8906 30.8594
Q38.875 34.625 31.7812 34.625
M21.9219 38.8125
Q15.5781 40.375 12.0312 44.7188
Q8.5 49.0781 8.5 55.3281
Q8.5 64.0625 14.7188 69.1406
Q20.9531 74.2188 31.7812 74.2188
Q42.6719 74.2188 48.875 69.1406
Q55.0781 64.0625 55.0781 55.3281
Q55.0781 49.0781 51.5312 44.7188
Q48 40.375 41.7031 38.8125
Q48.8281 37.1562 52.7969 32.3125
Q56.7812 27.4844 56.7812 20.5156
Q56.7812 9.90625 50.3125 4.23438
Q43.8438 -1.42188 31.7812 -1.42188
Q19.7344 -1.42188 13.25 4.23438
Q6.78125 9.90625 6.78125 20.5156
Q6.78125 27.4844 10.7812 32.3125
Q14.7969 37.1562 21.9219 38.8125
M18.3125 54.3906
Q18.3125 48.7344 21.8438 45.5625
Q25.3906 42.3906 31.7812 42.3906
Q38.1406 42.3906 41.7188 45.5625
Q45.3125 48.7344 45.3125 54.3906
Q45.3125 60.0625 41.7188 63.2344
Q38.1406 66.4062 31.7812 66.4062
Q25.3906 66.4062 21.8438 63.2344
Q18.3125 60.0625 18.3125 54.3906" id="BitstreamVeraSans-Roman-38"/>
      </defs>
      <g transform="translate(64.2009375 531.518125)scale(0.12 -0.12)">
       <use xlink:href="#BitstreamVeraSans-Roman-2212"/>
       <use x="83.7890625" xlink:href="#BitstreamVeraSans-Roman-38"/>
      </g>
     </g>
    </g>
    <g id="xtick_2">
     <g id="line2d_4">
      <g>
       <use style="stroke:#000000;stroke-width:0.5;" x="127.8" xlink:href="#m93b0483c22" y="518.4"/>
      </g>
     </g>
     <g id="line2d_5">
      <g>
       <use style="stroke:#000000;stroke-width:0.5;" x="127.8" xlink:href="#m741efc42ff" y="57.6"/>
      </g>
     </g>
     <g id="text_2">
      <!-- −6 -->
      <defs>
       <path d="
M33.0156 40.375
Q26.375 40.375 22.4844 35.8281
Q18.6094 31.2969 18.6094 23.3906
Q18.6094 15.5312 22.4844 10.9531
Q26.375 6.39062 33.0156 6.39062
Q39.6562 6.39062 43.5312 10.9531
Q47.4062 15.5312 47.4062 23.3906
Q47.4062 31.2969 43.5312 35.8281
Q39.6562 40.375 33.0156 40.375
M52.5938 71.2969
L52.5938 62.3125
Q48.875 64.0625 45.0938 64.9844
Q41.3125 65.9219 37.5938 65.9219
Q27.8281 65.9219 22.6719 59.3281
Q17.5312 52.7344 16.7969 39.4062
Q19.6719 43.6562 24.0156 45.9219
Q28.375 48.1875 33.5938 48.1875
Q44.5781 48.1875 50.9531 41.5156
Q57.3281 34.8594 57.3281 23.3906
Q57.3281 12.1562 50.6875 5.35938
Q44.0469 -1.42188 33.0156 -1.42188
Q20.3594 -1.42188 13.6719 8.26562
Q6.98438 17.9688 6.98438 36.375
Q6.98438 53.6562 15.1875 63.9375
Q23.3906 74.2188 37.2031 74.2188
Q40.9219 74.2188 44.7031 73.4844
Q48.4844 72.75 52.5938 71.2969" id="BitstreamVeraSans-Roman-36"/>
      </defs>
      <g transform="translate(119.968125 531.518125)scale(0.12 -0.12)">
       <use xlink:href="#BitstreamVeraSans-Roman-2212"/>
       <use x="83.7890625" xlink:href="#BitstreamVeraSans-Roman-36"/>
      </g>
     </g>
    </g>
    <g id="xtick_3">
     <g id="line2d_6">
      <g>
       <use style="stroke:#000000;stroke-width:0.5;" x="183.6" xlink:href="#m93b0483c22" y="518.4"/>
      </g>
     </g>
     <g id="line2d_7">
      <g>
       <use style="stroke:#000000;stroke-width:0.5;" x="183.6" xlink:href="#m741efc42ff" y="57.6"/>
      </g>
     </g>
     <g id="text_3">
      <!-- −4 -->
      <defs>
       <path d="
M37.7969 64.3125
L12.8906 25.3906
L37.7969 25.3906
z

M35.2031 72.9062
L47.6094 72.9062
L47.6094 25.3906
L58.0156 25.3906
L58.0156 17.1875
L47.6094 17.1875
L47.6094 0
L37.7969 0
L37.7969 17.1875
L4.89062 17.1875
L4.89062 26.7031
z
" id="BitstreamVeraSans-Roman-34"/>
      </defs>
      <g transform="translate(175.726875 531.518125)scale(0.12 -0.12)">
       <use xlink:href="#BitstreamVeraSans-Roman-2212"/>
       <use x="83.7890625" xlink:href="#BitstreamVeraSans-Roman-34"/>
      </g>
     </g>
    </g>
    <g id="xtick_4">
     <g id="line2d_8">
      <g>
       <use style="stroke:#000000;stroke-width:0.5;" x="239.4" xlink:href="#m93b0483c22" y="518.4"/>
      </g>
     </g>
     <g id="line2d_9">
      <g>
       <use style="stroke:#000000;stroke-width:0.5;" x="239.4" xlink:href="#m741efc42ff" y="57.6"/>
      </g>
     </g>
     <g id="text_4">
      <!-- −2 -->
      <defs>
       <path d="
M19.1875 8.29688
L53.6094 8.29688
L53.6094 0
L7.32812 0
L7.32812 8.29688
Q12.9375 14.1094 22.625 23.8906
Q32.3281 33.6875 34.8125 36.5312
Q39.5469 41.8438 41.4219 45.5312
Q43.3125 49.2188 43.3125 52.7812
Q43.3125 58.5938 39.2344 62.25
Q35.1562 65.9219 28.6094 65.9219
Q23.9688 65.9219 18.8125 64.3125
Q13.6719 62.7031 7.8125 59.4219
L7.8125 69.3906
Q13.7656 71.7812 18.9375 73
Q24.125 74.2188 28.4219 74.2188
Q39.75 74.2188 46.4844 68.5469
Q53.2188 62.8906 53.2188 53.4219
Q53.2188 48.9219 51.5312 44.8906
Q49.8594 40.875 45.4062 35.4062
Q44.1875 33.9844 37.6406 27.2188
Q31.1094 20.4531 19.1875 8.29688" id="BitstreamVeraSans-Roman-32"/>
      </defs>
      <g transform="translate(231.79125 531.518125)scale(0.12 -0.12)">
       <use xlink:href="#BitstreamVeraSans-Roman-2212"/>
       <use x="83.7890625" xlink:href="#BitstreamVeraSans-Roman-32"/>
      </g>
     </g>
    </g>
    <g id="xtick_5">
     <g id="line2d_10">
      <g>
       <use style="stroke:#000000;stroke-width:0.5;" x="295.2" xlink:href="#m93b0483c22" y="518.4"/>
      </g>
     </g>
     <g id="line2d_11">
      <g>
       <use style="stroke:#000000;stroke-width:0.5;" x="295.2" xlink:href="#m741efc42ff" y="57.6"/>
      </g>
     </g>
     <g id="text_5">
      <!-- 0 -->
      <defs>
       <path d="
M31.7812 66.4062
Q24.1719 66.4062 20.3281 58.9062
Q16.5 51.4219 16.5 36.375
Q16.5 21.3906 20.3281 13.8906
Q24.1719 6.39062 31.7812 6.39062
Q39.4531 6.39062 43.2812 13.8906
Q47.125 21.3906 47.125 36.375
Q47.125 51.4219 43.2812 58.9062
Q39.4531 66.4062 31.7812 66.4062
M31.7812 74.2188
Q44.0469 74.2188 50.5156 64.5156
Q56.9844 54.8281 56.9844 36.375
Q56.9844 17.9688 50.5156 8.26562
Q44.0469 -1.42188 31.7812 -1.42188
Q19.5312 -1.42188 13.0625 8.26562
Q6.59375 17.9688 6.59375 36.375
Q6.59375 54.8281 13.0625 64.5156
Q19.5312 74.2188 31.7812 74.2188" id="BitstreamVeraSans-Roman-30"/>
      </defs>
      <g transform="translate(292.1765625 531.518125)scale(0.12 -0.12)">
       <use xlink:href="#BitstreamVeraSans-Roman-30"/>
      </g>
     </g>
    </g>
    <g id="xtick_6">
     <g id="line2d_12">
      <g>
       <use style="stroke:#000000;stroke-width:0.5;" x="351.0" xlink:href="#m93b0483c22" y="518.4"/>
      </g>
     </g>
     <g id="line2d_13">
      <g>
       <use style="stroke:#000000;stroke-width:0.5;" x="351.0" xlink:href="#m741efc42ff" y="57.6"/>
      </g>
     </g>
     <g id="text_6">
      <!-- 2 -->
      <g transform="translate(348.223125 531.518125)scale(0.12 -0.12)">
       <use xlink:href="#BitstreamVeraSans-Roman-32"/>
      </g>
     </g>
    </g>
    <g id="xtick_7">
     <g id="line2d_14">
      <g>
       <use style="stroke:#000000;stroke-width:0.5;" x="406.8" xlink:href="#m93b0483c22" y="518.4"/>
      </g>
     </g>
     <g id="line2d_15">
      <g>
       <use style="stroke:#000000;stroke-width:0.5;" x="406.8" xlink:href="#m741efc42ff" y="57.6"/>
      </g>
     </g>
     <g id="text_7">
      <!-- 4 -->
      <g transform="translate(403.6125 531.518125)scale(0.12 -0.12)">
       <use xlink:href="#BitstreamVeraSans-Roman-34"/>
      </g>
     </g>
    </g>
    <g id="xtick_8">
     <g id="line2d_16">
      <g>
       <use style="stroke:#000000;stroke-width:0.5;" x="462.6" xlink:href="#m93b0483c22" y="518.4"/>
      </g>
     </g>
     <g id="line2d_17">
      <g>
       <use style="stroke:#000000;stroke-width:0.5;" x="462.6" xlink:href="#m741efc42ff" y="57.6"/>
      </g>
     </g>
     <g id="text_8">
      <!-- 6 -->
      <g transform="translate(459.579375 531.518125)scale(0.12 -0.12)">
       <use xlink:href="#BitstreamVeraSans-Roman-36"/>
      </g>
     </g>
    </g>
    <g id="xtick_9">
     <g id="line2d_18">
      <g>
       <use style="stroke:#000000;stroke-width:0.5;" x="518.4" xlink:href="#m93b0483c22" y="518.4"/>
      </g>
     </g>
     <g id="line2d_19">
      <g>
       <use style="stroke:#000000;stroke-width:0.5;" x="518.4" xlink:href="#m741efc42ff" y="57.6"/>
      </g>
     </g>
     <g id="text_9">
      <!-- 8 -->
      <g transform="translate(515.4 531.518125)scale(0.12 -0.12)">
       <use xlink:href="#BitstreamVeraSans-Roman-38"/>
      </g>
     </g>
    </g>
    <g id="text_10">
     <!-- $\log_2(FC)$ -->
     <defs>
      <path d="
M4.98438 0
L4.98438 2.6875
Q4.98438 2.9375 5.17188 3.21875
L20.7031 20.4062
Q24.2188 24.2188 26.4062 26.7969
Q28.6094 29.3906 30.75 32.7656
Q32.9062 36.1406 34.1562 39.625
Q35.4062 43.1094 35.4062 47.0156
Q35.4062 51.125 33.8906 54.8594
Q32.375 58.5938 29.375 60.8438
Q26.375 63.0938 22.125 63.0938
Q17.7812 63.0938 14.3125 60.4688
Q10.8438 57.8594 9.42188 53.7188
Q9.8125 53.8125 10.5 53.8125
Q12.75 53.8125 14.3281 52.2969
Q15.9219 50.7812 15.9219 48.3906
Q15.9219 46.0938 14.3281 44.5
Q12.75 42.9219 10.5 42.9219
Q8.15625 42.9219 6.5625 44.5469
Q4.98438 46.1875 4.98438 48.3906
Q4.98438 52.1562 6.39062 55.4375
Q7.8125 58.7344 10.4688 61.2969
Q13.1406 63.875 16.4844 65.2344
Q19.8281 66.6094 23.5781 66.6094
Q29.2969 66.6094 34.2188 64.1875
Q39.1562 61.7656 42.0312 57.3438
Q44.9219 52.9375 44.9219 47.0156
Q44.9219 42.6719 43.0156 38.7656
Q41.1094 34.8594 38.125 31.6562
Q35.1562 28.4688 30.5156 24.4062
Q25.875 20.3594 24.4219 19
L13.0938 8.10938
L22.7031 8.10938
Q29.7812 8.10938 34.5469 8.21875
Q39.3125 8.34375 39.5938 8.59375
Q40.7656 9.85938 42 17.8281
L44.9219 17.8281
L42.0938 0
z
" id="Cmr10-32"/>
      <path d="
M31 -24.8125
Q25.4375 -20.4062 21.4062 -14.7188
Q17.3906 -9.03125 14.8125 -2.57812
Q12.25 3.85938 10.9844 10.8906
Q9.71875 17.9219 9.71875 25
Q9.71875 32.1719 10.9844 39.2031
Q12.25 46.2344 14.8594 52.7344
Q17.4844 59.2344 21.5312 64.8906
Q25.5938 70.5625 31 74.8125
Q31 75 31.5 75
L32.4219 75
Q32.7188 75 32.9531 74.7344
Q33.2031 74.4688 33.2031 74.125
Q33.2031 73.6875 33.0156 73.4844
Q28.125 68.7031 24.875 63.2344
Q21.625 57.7656 19.6406 51.5781
Q17.6719 45.4062 16.7969 38.7812
Q15.9219 32.1719 15.9219 25
Q15.9219 -6.78125 32.9062 -23.2969
Q33.2031 -23.5781 33.2031 -24.125
Q33.2031 -24.3594 32.9375 -24.6719
Q32.6719 -25 32.4219 -25
L31.5 -25
Q31 -25 31 -24.8125" id="Cmr10-28"/>
      <path d="
M6.5 -25
Q5.60938 -25 5.60938 -24.125
Q5.60938 -23.6875 5.8125 -23.4844
Q22.9062 -6.78125 22.9062 25
Q22.9062 56.7812 6 73.2969
Q5.60938 73.5312 5.60938 74.125
Q5.60938 74.4688 5.875 74.7344
Q6.15625 75 6.5 75
L7.42188 75
Q7.71875 75 7.90625 74.8125
Q15.0938 69.1406 19.875 61.0312
Q24.6562 52.9375 26.875 43.75
Q29.1094 34.5781 29.1094 25
Q29.1094 17.9219 27.9062 11.0625
Q26.7031 4.20312 24.0938 -2.45312
Q21.4844 -9.125 17.4844 -14.7656
Q13.4844 -20.4062 7.90625 -24.8125
Q7.71875 -25 7.42188 -25
z
" id="Cmr10-29"/>
      <path d="
M25 -1.125
Q19 -1.125 13.8594 1.92188
Q8.73438 4.98438 5.75 10.1094
Q2.78125 15.2344 2.78125 21.2969
Q2.78125 25.875 4.42188 30.125
Q6.0625 34.375 9.10938 37.7188
Q12.1562 41.0625 16.2031 42.9375
Q20.2656 44.8281 25 44.8281
Q31.1562 44.8281 36.2031 41.5781
Q41.2656 38.3281 44.1875 32.875
Q47.125 27.4375 47.125 21.2969
Q47.125 15.2812 44.1406 10.125
Q41.1562 4.98438 36.0469 1.92188
Q30.9531 -1.125 25 -1.125
M25 1.8125
Q33.0156 1.8125 35.6875 7.60938
Q38.375 13.4219 38.375 22.4062
Q38.375 27.4375 37.8438 30.7344
Q37.3125 34.0312 35.5 36.7188
Q34.375 38.375 32.6406 39.625
Q30.9062 40.875 28.9688 41.5312
Q27.0469 42.1875 25 42.1875
Q21.875 42.1875 19.0625 40.7656
Q16.2656 39.3594 14.4062 36.7188
Q12.5469 33.8906 12.0312 30.4844
Q11.5312 27.0938 11.5312 22.4062
Q11.5312 16.7969 12.5 12.3281
Q13.4844 7.85938 16.4375 4.82812
Q19.3906 1.8125 25 1.8125" id="Cmr10-6f"/>
      <path d="
M3.07812 0
L3.07812 3.51562
Q6.5 3.51562 8.6875 4.04688
Q10.8906 4.59375 10.8906 6.6875
L10.8906 59.1875
Q10.8906 61.8594 10.0781 63.0625
Q9.28125 64.2656 7.76562 64.5312
Q6.25 64.7969 3.07812 64.7969
L3.07812 68.3125
L17.9219 69.3906
L17.9219 6.6875
Q17.9219 4.59375 20.1094 4.04688
Q22.3125 3.51562 25.6875 3.51562
L25.6875 0
z
" id="Cmr10-6c"/>
      <path d="
M4.6875 0
Q3.71875 0 3.71875 1.3125
Q3.76562 1.5625 3.90625 2.17188
Q4.04688 2.78125 4.3125 3.14062
Q4.59375 3.51562 4.98438 3.51562
Q11.0781 3.51562 13.4844 4.20312
Q14.7969 4.64062 15.375 6.89062
L29.1094 61.8125
Q29.2969 62.7969 29.2969 63.1875
Q29.2969 64.2656 28.0781 64.4062
Q26.2188 64.7969 20.9062 64.7969
Q19.9219 64.7969 19.9219 66.1094
Q19.9688 66.3594 20.1094 66.9688
Q20.2656 67.5781 20.5312 67.9375
Q20.7969 68.3125 21.1875 68.3125
L74.0312 68.3125
Q75 68.3125 75 67
L72.6094 46.2969
Q72.6094 46 72.2656 45.7031
Q71.9219 45.4062 71.5781 45.4062
L70.7031 45.4062
Q69.6719 45.4062 69.6719 46.6875
Q70.3125 51.2188 70.3125 54.1094
Q70.3125 59.0781 68.1562 61.4219
Q66.0156 63.7656 62.7344 64.2812
Q59.4688 64.7969 53.7188 64.7969
L43.0156 64.7969
Q40.2812 64.7969 39.4062 64.3281
Q38.5312 63.875 37.7969 61.375
L31.3906 35.8906
L38.9219 35.8906
Q42.625 35.8906 44.9219 36.2812
Q47.2188 36.6719 48.7344 37.7969
Q50.25 38.9219 51.25 41.0469
Q52.25 43.1719 53.0781 46.6875
Q53.375 47.6094 54.1094 47.6094
L54.9844 47.6094
Q56 47.6094 56 46.2969
L49.9062 21.5781
Q49.4688 20.7031 48.875 20.7031
L48 20.7031
Q47.0156 20.7031 47.0156 22.0156
Q47.2656 23.0469 47.4062 23.7344
Q47.5625 24.4219 47.7812 25.7031
Q48 27 48 27.9844
Q48 30.8594 45.4531 31.6406
Q42.9219 32.4219 38.8125 32.4219
L30.6094 32.4219
L24.125 6.5
Q23.875 5.51562 23.875 5.51562
Q23.875 4.34375 24.6094 4.20312
Q27.2031 3.51562 34.8125 3.51562
Q35.7969 3.51562 35.7969 2.20312
Q35.4531 0.78125 35.25 0.390625
Q35.0625 0 34.0781 0
z
" id="Cmmi10-46"/>
      <path d="
M14.5938 21.5781
Q14.5938 15.5781 16.9062 11.0156
Q19.2344 6.45312 23.6562 3.875
Q28.0781 1.3125 34.0781 1.3125
Q40.375 1.3125 46.2031 4.53125
Q52.0469 7.76562 56.1719 13.1562
Q60.2969 18.5625 61.8125 24.6094
Q62.0156 25.2031 62.5938 25.2031
L63.8125 25.2031
Q64.2031 25.2031 64.4531 24.9219
Q64.7031 24.6562 64.7031 24.3125
Q64.7031 24.2188 64.5938 24.0312
Q62.8906 17.0938 57.9844 11.0156
Q53.0781 4.9375 46.2344 1.35938
Q39.4062 -2.20312 32.1719 -2.20312
Q24.3594 -2.20312 18.1562 1.3125
Q11.9688 4.82812 8.51562 11.0781
Q5.07812 17.3281 5.07812 25.2031
Q5.07812 33.5938 8.82812 41.8125
Q12.5938 50.0469 18.9375 56.4688
Q25.2969 62.8906 33.4219 66.7031
Q41.5469 70.5156 49.9062 70.5156
Q53.2188 70.5156 56.25 69.5
Q59.2812 68.5 61.8594 66.4531
Q64.4531 64.4062 66.1094 61.7188
L74.0312 70.3125
Q74.0312 70.5156 74.5156 70.5156
L75.0938 70.5156
Q75.4844 70.5156 75.7344 70.1719
Q75.9844 69.8281 75.9844 69.4844
L69.1875 42.4844
Q69.1875 41.7969 68.4062 41.7969
L66.6094 41.7969
Q65.8281 41.7969 65.8281 42.9219
Q66.2188 45.125 66.2188 48.1875
Q66.2188 53.0781 64.5469 57.3906
Q62.8906 61.7188 59.3906 64.3594
Q55.9062 67 50.875 67
Q42.7188 67 35.9375 62.8906
Q29.1562 58.7969 24.4375 52.125
Q19.7344 45.4531 17.1562 37.3281
Q14.5938 29.2031 14.5938 21.5781" id="Cmmi10-43"/>
      <path d="
M2.78125 -7.8125
Q2.78125 -4.25 5.35938 -1.57812
Q7.95312 1.07812 11.5312 2.20312
Q9.51562 3.71875 8.46875 6
Q7.42188 8.29688 7.42188 10.8906
Q7.42188 15.5781 10.4062 19.1875
Q5.8125 23.6875 5.8125 29.5
Q5.8125 32.625 7.15625 35.3594
Q8.5 38.0938 10.8906 40.0938
Q13.2812 42.0938 16.2031 43.1406
Q19.1406 44.1875 22.2188 44.1875
Q28.1719 44.1875 32.9062 40.7188
Q34.9688 42.9219 37.7656 44.1094
Q40.5781 45.3125 43.6094 45.3125
Q45.75 45.3125 47.1094 43.7656
Q48.4844 42.2344 48.4844 40.0938
Q48.4844 38.875 47.5469 37.9375
Q46.625 37.0156 45.4062 37.0156
Q44.1406 37.0156 43.2031 37.9375
Q42.2812 38.875 42.2812 40.0938
Q42.2812 41.9375 43.5 42.6719
Q38.3281 42.6719 34.625 39.1094
Q36.4219 37.3125 37.5156 34.6875
Q38.625 32.0781 38.625 29.5
Q38.625 25.25 36.2812 21.8438
Q33.9375 18.4531 30.0938 16.5781
Q26.2656 14.7031 22.2188 14.7031
Q16.75 14.7031 12.2031 17.6719
Q10.7969 15.7188 10.7969 13.2812
Q10.7969 10.6406 12.5312 8.65625
Q14.2656 6.6875 16.8906 6.6875
L25.0938 6.6875
Q31.0625 6.6875 35.8438 5.60938
Q40.625 4.54688 43.875 1.3125
Q47.125 -1.90625 47.125 -7.8125
Q47.125 -12.2031 43.4062 -15.1094
Q39.7031 -18.0156 34.5469 -19.3125
Q29.3906 -20.6094 25 -20.6094
Q20.5625 -20.6094 15.375 -19.3125
Q10.2031 -18.0156 6.48438 -15.1094
Q2.78125 -12.2031 2.78125 -7.8125
M8.40625 -7.8125
Q8.40625 -11.1875 11.1406 -13.4531
Q13.875 -15.7188 17.7188 -16.8125
Q21.5781 -17.9219 25 -17.9219
Q28.375 -17.9219 32.2188 -16.8125
Q36.0781 -15.7188 38.7812 -13.4531
Q41.5 -11.1875 41.5 -7.8125
Q41.5 -2.59375 36.7188 -1.04688
Q31.9375 0.484375 25.0938 0.484375
L16.8906 0.484375
Q14.5938 0.484375 12.6719 -0.609375
Q10.75 -1.70312 9.57812 -3.6875
Q8.40625 -5.67188 8.40625 -7.8125
M22.2188 17.3906
Q30.7188 17.3906 30.7188 29.5
Q30.7188 34.7188 28.9062 38.1094
Q27.0938 41.5 22.2188 41.5
Q17.3281 41.5 15.5156 38.1094
Q13.7188 34.7188 13.7188 29.5
Q13.7188 26.1719 14.4062 23.4844
Q15.0938 20.7969 16.9375 19.0938
Q18.7969 17.3906 22.2188 17.3906" id="Cmr10-67"/>
     </defs>
     <g transform="translate(271.68 548.01375)scale(0.12 -0.12)">
      <use xlink:href="#Cmr10-6c"/>
      <use transform="translate(27.685546875 0.0)" xlink:href="#Cmr10-6f"/>
      <use transform="translate(77.685546875 0.0)" xlink:href="#Cmr10-67"/>
      <use transform="translate(127.685546875 -25.509375)scale(0.7)" xlink:href="#Cmr10-32"/>
      <use transform="translate(177.685546875 0.0)" xlink:href="#Cmr10-28"/>
      <use transform="translate(216.50390625 0.0)" xlink:href="#Cmmi10-46"/>
      <use transform="translate(280.810546875 0.0)" xlink:href="#Cmmi10-43"/>
      <use transform="translate(352.197265625 0.0)" xlink:href="#Cmr10-29"/>
     </g>
    </g>
   </g>
   <g id="matplotlib.axis_2">
    <g id="ytick_1">
     <g id="line2d_20">
      <defs>
       <path d="
M0 0
L4 0" id="m728421d6d4" style="stroke:#000000;stroke-width:0.5;"/>
      </defs>
      <g>
       <use style="stroke:#000000;stroke-width:0.5;" x="295.2" xlink:href="#m728421d6d4" y="518.4"/>
      </g>
     </g>
     <g id="line2d_21">
      <defs>
       <path d="
M0 0
L-4 0" id="mcb0005524f" style="stroke:#000000;stroke-width:0.5;"/>
      </defs>
      <g>
       <use style="stroke:#000000;stroke-width:0.5;" x="518.4" xlink:href="#mcb0005524f" y="518.4"/>
      </g>
     </g>
     <g id="text_11">
      <!-- 0 -->
      <g transform="translate(285.153125 521.71125)scale(0.12 -0.12)">
       <use xlink:href="#BitstreamVeraSans-Roman-30"/>
      </g>
     </g>
    </g>
    <g id="ytick_2">
     <g id="line2d_22">
      <g>
       <use style="stroke:#000000;stroke-width:0.5;" x="295.2" xlink:href="#m728421d6d4" y="460.8"/>
      </g>
     </g>
     <g id="line2d_23">
      <g>
       <use style="stroke:#000000;stroke-width:0.5;" x="518.4" xlink:href="#mcb0005524f" y="460.8"/>
      </g>
     </g>
     <g id="text_12">
      <!-- 2 -->
      <g transform="translate(285.64625 464.11125)scale(0.12 -0.12)">
       <use xlink:href="#BitstreamVeraSans-Roman-32"/>
      </g>
     </g>
    </g>
    <g id="ytick_3">
     <g id="line2d_24">
      <g>
       <use style="stroke:#000000;stroke-width:0.5;" x="295.2" xlink:href="#m728421d6d4" y="403.2"/>
      </g>
     </g>
     <g id="line2d_25">
      <g>
       <use style="stroke:#000000;stroke-width:0.5;" x="518.4" xlink:href="#mcb0005524f" y="403.2"/>
      </g>
     </g>
     <g id="text_13">
      <!-- 4 -->
      <g transform="translate(284.825 406.51125)scale(0.12 -0.12)">
       <use xlink:href="#BitstreamVeraSans-Roman-34"/>
      </g>
     </g>
    </g>
    <g id="ytick_4">
     <g id="line2d_26">
      <g>
       <use style="stroke:#000000;stroke-width:0.5;" x="295.2" xlink:href="#m728421d6d4" y="345.6"/>
      </g>
     </g>
     <g id="line2d_27">
      <g>
       <use style="stroke:#000000;stroke-width:0.5;" x="518.4" xlink:href="#mcb0005524f" y="345.6"/>
      </g>
     </g>
     <g id="text_14">
      <!-- 6 -->
      <g transform="translate(285.15875 348.91125)scale(0.12 -0.12)">
       <use xlink:href="#BitstreamVeraSans-Roman-36"/>
      </g>
     </g>
    </g>
    <g id="ytick_5">
     <g id="line2d_28">
      <g>
       <use style="stroke:#000000;stroke-width:0.5;" x="295.2" xlink:href="#m728421d6d4" y="288.0"/>
      </g>
     </g>
     <g id="line2d_29">
      <g>
       <use style="stroke:#000000;stroke-width:0.5;" x="518.4" xlink:href="#mcb0005524f" y="288.0"/>
      </g>
     </g>
     <g id="text_15">
      <!-- 8 -->
      <g transform="translate(285.2 291.31125)scale(0.12 -0.12)">
       <use xlink:href="#BitstreamVeraSans-Roman-38"/>
      </g>
     </g>
    </g>
    <g id="ytick_6">
     <g id="line2d_30">
      <g>
       <use style="stroke:#000000;stroke-width:0.5;" x="295.2" xlink:href="#m728421d6d4" y="230.4"/>
      </g>
     </g>
     <g id="line2d_31">
      <g>
       <use style="stroke:#000000;stroke-width:0.5;" x="518.4" xlink:href="#mcb0005524f" y="230.4"/>
      </g>
     </g>
     <g id="text_16">
      <!-- 10 -->
      <defs>
       <path d="
M12.4062 8.29688
L28.5156 8.29688
L28.5156 63.9219
L10.9844 60.4062
L10.9844 69.3906
L28.4219 72.9062
L38.2812 72.9062
L38.2812 8.29688
L54.3906 8.29688
L54.3906 0
L12.4062 0
z
" id="BitstreamVeraSans-Roman-31"/>
      </defs>
      <g transform="translate(278.045 233.71125)scale(0.12 -0.12)">
       <use xlink:href="#BitstreamVeraSans-Roman-31"/>
       <use x="63.623046875" xlink:href="#BitstreamVeraSans-Roman-30"/>
      </g>
     </g>
    </g>
    <g id="ytick_7">
     <g id="line2d_32">
      <g>
       <use style="stroke:#000000;stroke-width:0.5;" x="295.2" xlink:href="#m728421d6d4" y="172.8"/>
      </g>
     </g>
     <g id="line2d_33">
      <g>
       <use style="stroke:#000000;stroke-width:0.5;" x="518.4" xlink:href="#mcb0005524f" y="172.8"/>
      </g>
     </g>
     <g id="text_17">
      <!-- 12 -->
      <g transform="translate(278.45 176.11125)scale(0.12 -0.12)">
       <use xlink:href="#BitstreamVeraSans-Roman-31"/>
       <use x="63.623046875" xlink:href="#BitstreamVeraSans-Roman-32"/>
      </g>
     </g>
    </g>
    <g id="ytick_8">
     <g id="line2d_34">
      <g>
       <use style="stroke:#000000;stroke-width:0.5;" x="295.2" xlink:href="#m728421d6d4" y="115.2"/>
      </g>
     </g>
     <g id="line2d_35">
      <g>
       <use style="stroke:#000000;stroke-width:0.5;" x="518.4" xlink:href="#mcb0005524f" y="115.2"/>
      </g>
     </g>
     <g id="text_18">
      <!-- 14 -->
      <g transform="translate(277.92125 118.51125)scale(0.12 -0.12)">
       <use xlink:href="#BitstreamVeraSans-Roman-31"/>
       <use x="63.623046875" xlink:href="#BitstreamVeraSans-Roman-34"/>
      </g>
     </g>
    </g>
    <g id="ytick_9">
     <g id="line2d_36">
      <g>
       <use style="stroke:#000000;stroke-width:0.5;" x="295.2" xlink:href="#m728421d6d4" y="57.6"/>
      </g>
     </g>
     <g id="line2d_37">
      <g>
       <use style="stroke:#000000;stroke-width:0.5;" x="518.4" xlink:href="#mcb0005524f" y="57.6"/>
      </g>
     </g>
     <g id="text_19">
      <!-- 16 -->
      <g transform="translate(278.00375 60.91125)scale(0.12 -0.12)">
       <use xlink:href="#BitstreamVeraSans-Roman-31"/>
       <use x="63.623046875" xlink:href="#BitstreamVeraSans-Roman-36"/>
      </g>
     </g>
    </g>
    <g id="text_20">
     <!-- $-\log_{10}(p)$ -->
     <defs>
      <path d="
M-2.48438 -19.3906
Q-3.42188 -19.3906 -3.42188 -18.1094
Q-3.07812 -15.9219 -2.09375 -15.9219
Q1.03125 -15.9219 2.26562 -15.3594
Q3.51562 -14.7969 4.20312 -12.5
L15.4844 32.5156
Q16.2188 34.375 16.2188 37.3125
Q16.2188 41.6094 13.2812 41.6094
Q10.1562 41.6094 8.64062 37.8594
Q7.125 34.125 5.71875 28.4219
Q5.71875 27.7812 4.89062 27.7812
L3.71875 27.7812
Q3.46875 27.7812 3.17188 28.1406
Q2.875 28.5156 2.875 28.8125
Q3.95312 33.1562 4.95312 36.1719
Q5.95312 39.2031 8.07812 41.6875
Q10.2031 44.1875 13.375 44.1875
Q16.7969 44.1875 19.375 42.25
Q21.9688 40.3281 22.7031 37.0156
Q25.4375 40.1875 28.75 42.1875
Q32.0781 44.1875 35.5938 44.1875
Q39.7969 44.1875 42.8906 41.9375
Q46 39.7031 47.5625 36.0625
Q49.125 32.4219 49.125 28.2188
Q49.125 21.7812 45.8281 14.8906
Q42.5312 8.01562 36.8906 3.4375
Q31.25 -1.125 24.8125 -1.125
Q21.875 -1.125 19.5 0.53125
Q17.1406 2.20312 15.8281 4.89062
L11.2812 -12.8906
Q11.0312 -14.3594 10.9844 -14.5938
Q10.9844 -15.9219 17.5781 -15.9219
Q18.6094 -15.9219 18.6094 -17.1875
Q18.2656 -18.5 18.0469 -18.9375
Q17.8281 -19.3906 16.8906 -19.3906
z

M24.9062 1.51562
Q28.375 1.51562 31.3438 4.375
Q34.3281 7.23438 36.1875 10.7969
Q37.5469 13.4844 38.7344 17.3594
Q39.9375 21.2344 40.8125 25.625
Q41.7031 30.0312 41.7031 32.625
Q41.7031 34.9062 41.0938 36.9062
Q40.4844 38.9219 39.0938 40.2656
Q37.7031 41.6094 35.4062 41.6094
Q31.7344 41.6094 28.4844 38.9844
Q25.25 36.375 22.6094 32.5156
L22.6094 32.1719
L17.0938 10.1094
Q17.7812 6.54688 19.7344 4.03125
Q21.6875 1.51562 24.9062 1.51562" id="Cmmi10-70"/>
      <path d="
M9.28125 0
L9.28125 3.51562
Q21.7812 3.51562 21.7812 6.6875
L21.7812 59.1875
Q16.6094 56.6875 8.6875 56.6875
L8.6875 60.2031
Q20.9531 60.2031 27.2031 66.6094
L28.6094 66.6094
Q28.9531 66.6094 29.2656 66.3281
Q29.5938 66.0625 29.5938 65.7188
L29.5938 6.6875
Q29.5938 3.51562 42.0938 3.51562
L42.0938 0
z
" id="Cmr10-31"/>
      <path d="
M10.2031 23
Q9.375 23 8.82812 23.625
Q8.29688 24.2656 8.29688 25
Q8.29688 25.7344 8.82812 26.3594
Q9.375 27 10.2031 27
L67.5781 27
Q68.3594 27 68.875 26.3594
Q69.3906 25.7344 69.3906 25
Q69.3906 24.2656 68.875 23.625
Q68.3594 23 67.5781 23
z
" id="Cmsy10-a1"/>
      <path d="
M25 -2.20312
Q12.75 -2.20312 8.32812 7.875
Q3.90625 17.9688 3.90625 31.8906
Q3.90625 40.5781 5.48438 48.2344
Q7.07812 55.9062 11.7812 61.25
Q16.5 66.6094 25 66.6094
Q31.5938 66.6094 35.7812 63.375
Q39.9844 60.1562 42.1875 55.0469
Q44.3906 49.9531 45.1875 44.1094
Q46 38.2812 46 31.8906
Q46 23.2969 44.4062 15.7969
Q42.8281 8.29688 38.1875 3.04688
Q33.5469 -2.20312 25 -2.20312
M25 0.390625
Q30.5625 0.390625 33.2969 6.09375
Q36.0312 11.8125 36.6719 18.75
Q37.3125 25.6875 37.3125 33.5
Q37.3125 41.0156 36.6719 47.3594
Q36.0312 53.7188 33.3125 58.8594
Q30.6094 64.0156 25 64.0156
Q19.3438 64.0156 16.6094 58.8281
Q13.875 53.6562 13.2344 47.3281
Q12.5938 41.0156 12.5938 33.5
Q12.5938 27.9375 12.8594 23
Q13.1406 18.0625 14.3125 12.8125
Q15.4844 7.5625 18.0938 3.96875
Q20.7031 0.390625 25 0.390625" id="Cmr10-30"/>
     </defs>
     <g transform="translate(270.96 31.2)scale(0.12 -0.12)">
      <use xlink:href="#Cmsy10-a1"/>
      <use transform="translate(77.685546875 0.0)" xlink:href="#Cmr10-6c"/>
      <use transform="translate(105.37109375 0.0)" xlink:href="#Cmr10-6f"/>
      <use transform="translate(155.37109375 0.0)" xlink:href="#Cmr10-67"/>
      <use transform="translate(205.37109375 -25.509375)scale(0.7)" xlink:href="#Cmr10-31"/>
      <use transform="translate(240.37109375 -25.509375)scale(0.7)" xlink:href="#Cmr10-30"/>
      <use transform="translate(275.37109375 0.0)" xlink:href="#Cmr10-28"/>
      <use transform="translate(314.189453125 0.0)" xlink:href="#Cmmi10-70"/>
      <use transform="translate(364.482421875 0.0)" xlink:href="#Cmr10-29"/>
     </g>
    </g>
   </g>
   <g id="text_21">
    <!-- $p=0.05$ -->
    <defs>
     <path d="
M8.40625 5.51562
Q8.40625 7.76562 10.0625 9.375
Q11.7188 10.9844 13.9219 10.9844
Q15.2812 10.9844 16.5938 10.25
Q17.9219 9.51562 18.6562 8.20312
Q19.3906 6.89062 19.3906 5.51562
Q19.3906 3.32812 17.7656 1.65625
Q16.1562 0 13.9219 0
Q11.7188 0 10.0625 1.65625
Q8.40625 3.32812 8.40625 5.51562" id="Cmmi10-3a"/>
     <path d="
M8.6875 11.375
Q9.71875 8.45312 11.8438 6.04688
Q13.9688 3.65625 16.875 2.3125
Q19.7812 0.984375 22.9062 0.984375
Q30.125 0.984375 32.8594 6.59375
Q35.5938 12.2031 35.5938 20.2188
Q35.5938 23.6875 35.4688 26.0469
Q35.3594 28.4219 34.8125 30.6094
Q33.8906 34.125 31.5625 36.7656
Q29.25 39.4062 25.875 39.4062
Q22.5156 39.4062 20.0938 38.375
Q17.6719 37.3594 16.1562 35.9844
Q14.6562 34.625 13.4844 33.1094
Q12.3125 31.5938 12.0156 31.5
L10.8906 31.5
Q10.6406 31.5 10.2656 31.8125
Q9.90625 32.125 9.90625 32.4219
L9.90625 65.8281
Q9.90625 66.0625 10.2188 66.3281
Q10.5469 66.6094 10.8906 66.6094
L11.1875 66.6094
Q17.9219 63.375 25.4844 63.375
Q32.9062 63.375 39.7969 66.6094
L40.0938 66.6094
Q40.4375 66.6094 40.7188 66.3594
Q41.0156 66.1094 41.0156 65.8281
L41.0156 64.8906
Q41.0156 64.4062 40.8281 64.4062
Q37.4062 59.8594 32.25 57.3125
Q27.0938 54.7812 21.5781 54.7812
Q17.5781 54.7812 13.375 55.9062
L13.375 37.0156
Q16.7031 39.7031 19.3125 40.8438
Q21.9219 42 25.9844 42
Q31.5 42 35.8594 38.8125
Q40.2344 35.6406 42.5781 30.5312
Q44.9219 25.4375 44.9219 20.125
Q44.9219 14.1094 41.9688 8.98438
Q39.0156 3.85938 33.9375 0.828125
Q28.8594 -2.20312 22.9062 -2.20312
Q17.9688 -2.20312 13.8438 0.328125
Q9.71875 2.875 7.34375 7.17188
Q4.98438 11.4688 4.98438 16.3125
Q4.98438 18.5625 6.4375 19.9688
Q7.90625 21.3906 10.1094 21.3906
Q12.3125 21.3906 13.7969 19.9375
Q15.2812 18.5 15.2812 16.3125
Q15.2812 14.1562 13.7969 12.6719
Q12.3125 11.1875 10.1094 11.1875
Q9.76562 11.1875 9.32812 11.25
Q8.89062 11.3281 8.6875 11.375" id="Cmr10-35"/>
     <path d="
M7.51562 13.2812
Q6.6875 13.2812 6.14062 13.9062
Q5.60938 14.5469 5.60938 15.2812
Q5.60938 16.1094 6.14062 16.6875
Q6.6875 17.2812 7.51562 17.2812
L70.3125 17.2812
Q71.0469 17.2812 71.5781 16.6875
Q72.125 16.1094 72.125 15.2812
Q72.125 14.5469 71.5781 13.9062
Q71.0469 13.2812 70.3125 13.2812
z

M7.51562 32.7188
Q6.6875 32.7188 6.14062 33.2969
Q5.60938 33.8906 5.60938 34.7188
Q5.60938 35.4531 6.14062 36.0781
Q6.6875 36.7188 7.51562 36.7188
L70.3125 36.7188
Q71.0469 36.7188 71.5781 36.0781
Q72.125 35.4531 72.125 34.7188
Q72.125 33.8906 71.5781 33.2969
Q71.0469 32.7188 70.3125 32.7188
z
" id="Cmr10-3d"/>
    </defs>
    <g transform="translate(127.8 475.309886544)scale(0.12 -0.12)">
     <use transform="translate(0.0 0.390625)" xlink:href="#Cmmi10-70"/>
     <use transform="translate(67.8515625 0.390625)" xlink:href="#Cmr10-3d"/>
     <use transform="translate(151.91015625 0.390625)" xlink:href="#Cmr10-30"/>
     <use transform="translate(201.91015625 0.390625)" xlink:href="#Cmmi10-3a"/>
     <use transform="translate(230.453125 0.390625)" xlink:href="#Cmr10-30"/>
     <use transform="translate(280.453125 0.390625)" xlink:href="#Cmr10-35"/>
    </g>
   </g>
   <g id="legend_1">
    <g id="patch_7">
     <path d="
M72 426.24
L155.448 426.24
L155.448 368.008
L72 368.008
z
" style="fill:#ffffff;stroke:#000000;stroke-linejoin:miter;"/>
    </g>
    <g id="PathCollection_4">
     <path d="
M79 384.845
C79.3248 384.845 79.6364 384.716 79.866 384.486
C80.0957 384.256 80.2247 383.945 80.2247 383.62
C80.2247 383.295 80.0957 382.984 79.866 382.754
C79.6364 382.524 79.3248 382.395 79 382.395
C78.6752 382.395 78.3636 382.524 78.134 382.754
C77.9043 382.984 77.7753 383.295 77.7753 383.62
C77.7753 383.945 77.9043 384.256 78.134 384.486
C78.3636 384.716 78.6752 384.845 79 384.845
z
" style="fill:#808080;fill-opacity:0.4;"/>
     <path d="
M86 383.97
C86.3248 383.97 86.6364 383.841 86.866 383.611
C87.0957 383.381 87.2247 383.07 87.2247 382.745
C87.2247 382.42 87.0957 382.109 86.866 381.879
C86.6364 381.649 86.3248 381.52 86 381.52
C85.6752 381.52 85.3636 381.649 85.134 381.879
C84.9043 382.109 84.7753 382.42 84.7753 382.745
C84.7753 383.07 84.9043 383.381 85.134 383.611
C85.3636 383.841 85.6752 383.97 86 383.97
z
" style="fill:#808080;fill-opacity:0.4;"/>
     <path d="
M93 385.282
C93.3248 385.282 93.6364 385.153 93.866 384.924
C94.0957 384.694 94.2247 384.382 94.2247 384.058
C94.2247 383.733 94.0957 383.421 93.866 383.191
C93.6364 382.962 93.3248 382.833 93 382.833
C92.6752 382.833 92.3636 382.962 92.134 383.191
C91.9043 383.421 91.7753 383.733 91.7753 384.058
C91.7753 384.382 91.9043 384.694 92.134 384.924
C92.3636 385.153 92.6752 385.282 93 385.282
z
" style="fill:#808080;fill-opacity:0.4;"/>
    </g>
    <g id="text_22">
     <!-- Both -->
     <defs>
      <path d="
M18.3125 70.2188
L18.3125 54.6875
L36.8125 54.6875
L36.8125 47.7031
L18.3125 47.7031
L18.3125 18.0156
Q18.3125 11.3281 20.1406 9.42188
Q21.9688 7.51562 27.5938 7.51562
L36.8125 7.51562
L36.8125 0
L27.5938 0
Q17.1875 0 13.2344 3.875
Q9.28125 7.76562 9.28125 18.0156
L9.28125 47.7031
L2.6875 47.7031
L2.6875 54.6875
L9.28125 54.6875
L9.28125 70.2188
z
" id="BitstreamVeraSans-Roman-74"/>
      <path d="
M30.6094 48.3906
Q23.3906 48.3906 19.1875 42.75
Q14.9844 37.1094 14.9844 27.2969
Q14.9844 17.4844 19.1562 11.8438
Q23.3438 6.20312 30.6094 6.20312
Q37.7969 6.20312 41.9844 11.8594
Q46.1875 17.5312 46.1875 27.2969
Q46.1875 37.0156 41.9844 42.7031
Q37.7969 48.3906 30.6094 48.3906
M30.6094 56
Q42.3281 56 49.0156 48.375
Q55.7188 40.7656 55.7188 27.2969
Q55.7188 13.875 49.0156 6.21875
Q42.3281 -1.42188 30.6094 -1.42188
Q18.8438 -1.42188 12.1719 6.21875
Q5.51562 13.875 5.51562 27.2969
Q5.51562 40.7656 12.1719 48.375
Q18.8438 56 30.6094 56" id="BitstreamVeraSans-Roman-6f"/>
      <path d="
M19.6719 34.8125
L19.6719 8.10938
L35.5 8.10938
Q43.4531 8.10938 47.2812 11.4062
Q51.125 14.7031 51.125 21.4844
Q51.125 28.3281 47.2812 31.5625
Q43.4531 34.8125 35.5 34.8125
z

M19.6719 64.7969
L19.6719 42.8281
L34.2812 42.8281
Q41.5 42.8281 45.0312 45.5312
Q48.5781 48.25 48.5781 53.8125
Q48.5781 59.3281 45.0312 62.0625
Q41.5 64.7969 34.2812 64.7969
z

M9.8125 72.9062
L35.0156 72.9062
Q46.2969 72.9062 52.3906 68.2188
Q58.5 63.5312 58.5 54.8906
Q58.5 48.1875 55.375 44.2344
Q52.25 40.2812 46.1875 39.3125
Q53.4688 37.75 57.5 32.7812
Q61.5312 27.8281 61.5312 20.4062
Q61.5312 10.6406 54.8906 5.3125
Q48.25 0 35.9844 0
L9.8125 0
z
" id="BitstreamVeraSans-Roman-42"/>
      <path d="
M54.8906 33.0156
L54.8906 0
L45.9062 0
L45.9062 32.7188
Q45.9062 40.4844 42.875 44.3281
Q39.8438 48.1875 33.7969 48.1875
Q26.5156 48.1875 22.3125 43.5469
Q18.1094 38.9219 18.1094 30.9062
L18.1094 0
L9.07812 0
L9.07812 75.9844
L18.1094 75.9844
L18.1094 46.1875
Q21.3438 51.125 25.7031 53.5625
Q30.0781 56 35.7969 56
Q45.2188 56 50.0469 50.1719
Q54.8906 44.3438 54.8906 33.0156" id="BitstreamVeraSans-Roman-68"/>
     </defs>
     <g transform="translate(104.0 379.60625)scale(0.1 -0.1)">
      <use xlink:href="#BitstreamVeraSans-Roman-42"/>
      <use x="68.603515625" xlink:href="#BitstreamVeraSans-Roman-6f"/>
      <use x="129.78515625" xlink:href="#BitstreamVeraSans-Roman-74"/>
      <use x="168.994140625" xlink:href="#BitstreamVeraSans-Roman-68"/>
     </g>
     <!-- cell types -->
     <defs>
      <path id="BitstreamVeraSans-Roman-20"/>
      <path d="
M9.42188 75.9844
L18.4062 75.9844
L18.4062 0
L9.42188 0
z
" id="BitstreamVeraSans-Roman-6c"/>
      <path d="
M48.7812 52.5938
L48.7812 44.1875
Q44.9688 46.2969 41.1406 47.3438
Q37.3125 48.3906 33.4062 48.3906
Q24.6562 48.3906 19.8125 42.8438
Q14.9844 37.3125 14.9844 27.2969
Q14.9844 17.2812 19.8125 11.7344
Q24.6562 6.20312 33.4062 6.20312
Q37.3125 6.20312 41.1406 7.25
Q44.9688 8.29688 48.7812 10.4062
L48.7812 2.09375
Q45.0156 0.34375 40.9844 -0.53125
Q36.9688 -1.42188 32.4219 -1.42188
Q20.0625 -1.42188 12.7812 6.34375
Q5.51562 14.1094 5.51562 27.2969
Q5.51562 40.6719 12.8594 48.3281
Q20.2188 56 33.0156 56
Q37.1562 56 41.1094 55.1406
Q45.0625 54.2969 48.7812 52.5938" id="BitstreamVeraSans-Roman-63"/>
      <path d="
M32.1719 -5.07812
Q28.375 -14.8438 24.75 -17.8125
Q21.1406 -20.7969 15.0938 -20.7969
L7.90625 -20.7969
L7.90625 -13.2812
L13.1875 -13.2812
Q16.8906 -13.2812 18.9375 -11.5156
Q21 -9.76562 23.4844 -3.21875
L25.0938 0.875
L2.98438 54.6875
L12.5 54.6875
L29.5938 11.9219
L46.6875 54.6875
L56.2031 54.6875
z
" id="BitstreamVeraSans-Roman-79"/>
      <path d="
M56.2031 29.5938
L56.2031 25.2031
L14.8906 25.2031
Q15.4844 15.9219 20.4844 11.0625
Q25.4844 6.20312 34.4219 6.20312
Q39.5938 6.20312 44.4531 7.46875
Q49.3125 8.73438 54.1094 11.2812
L54.1094 2.78125
Q49.2656 0.734375 44.1875 -0.34375
Q39.1094 -1.42188 33.8906 -1.42188
Q20.7969 -1.42188 13.1562 6.1875
Q5.51562 13.8125 5.51562 26.8125
Q5.51562 40.2344 12.7656 48.1094
Q20.0156 56 32.3281 56
Q43.3594 56 49.7812 48.8906
Q56.2031 41.7969 56.2031 29.5938
M47.2188 32.2344
Q47.125 39.5938 43.0938 43.9844
Q39.0625 48.3906 32.4219 48.3906
Q24.9062 48.3906 20.3906 44.1406
Q15.875 39.8906 15.1875 32.1719
z
" id="BitstreamVeraSans-Roman-65"/>
      <path d="
M44.2812 53.0781
L44.2812 44.5781
Q40.4844 46.5312 36.375 47.5
Q32.2812 48.4844 27.875 48.4844
Q21.1875 48.4844 17.8438 46.4375
Q14.5 44.3906 14.5 40.2812
Q14.5 37.1562 16.8906 35.375
Q19.2812 33.5938 26.5156 31.9844
L29.5938 31.2969
Q39.1562 29.25 43.1875 25.5156
Q47.2188 21.7812 47.2188 15.0938
Q47.2188 7.46875 41.1875 3.01562
Q35.1562 -1.42188 24.6094 -1.42188
Q20.2188 -1.42188 15.4531 -0.5625
Q10.6875 0.296875 5.42188 2
L5.42188 11.2812
Q10.4062 8.6875 15.2344 7.39062
Q20.0625 6.10938 24.8125 6.10938
Q31.1562 6.10938 34.5625 8.28125
Q37.9844 10.4531 37.9844 14.4062
Q37.9844 18.0625 35.5156 20.0156
Q33.0625 21.9688 24.7031 23.7812
L21.5781 24.5156
Q13.2344 26.2656 9.51562 29.9062
Q5.8125 33.5469 5.8125 39.8906
Q5.8125 47.6094 11.2812 51.7969
Q16.75 56 26.8125 56
Q31.7812 56 36.1719 55.2656
Q40.5781 54.5469 44.2812 53.0781" id="BitstreamVeraSans-Roman-73"/>
      <path d="
M18.1094 8.20312
L18.1094 -20.7969
L9.07812 -20.7969
L9.07812 54.6875
L18.1094 54.6875
L18.1094 46.3906
Q20.9531 51.2656 25.2656 53.625
Q29.5938 56 35.5938 56
Q45.5625 56 51.7812 48.0938
Q58.0156 40.1875 58.0156 27.2969
Q58.0156 14.4062 51.7812 6.48438
Q45.5625 -1.42188 35.5938 -1.42188
Q29.5938 -1.42188 25.2656 0.953125
Q20.9531 3.32812 18.1094 8.20312
M48.6875 27.2969
Q48.6875 37.2031 44.6094 42.8438
Q40.5312 48.4844 33.4062 48.4844
Q26.2656 48.4844 22.1875 42.8438
Q18.1094 37.2031 18.1094 27.2969
Q18.1094 17.3906 22.1875 11.75
Q26.2656 6.10938 33.4062 6.10938
Q40.5312 6.10938 44.6094 11.75
Q48.6875 17.3906 48.6875 27.2969" id="BitstreamVeraSans-Roman-70"/>
     </defs>
     <g transform="translate(104.0 390.8040625)scale(0.1 -0.1)">
      <use xlink:href="#BitstreamVeraSans-Roman-63"/>
      <use x="54.98046875" xlink:href="#BitstreamVeraSans-Roman-65"/>
      <use x="116.50390625" xlink:href="#BitstreamVeraSans-Roman-6c"/>
      <use x="144.287109375" xlink:href="#BitstreamVeraSans-Roman-6c"/>
      <use x="172.0703125" xlink:href="#BitstreamVeraSans-Roman-20"/>
      <use x="203.857421875" xlink:href="#BitstreamVeraSans-Roman-74"/>
      <use x="243.06640625" xlink:href="#BitstreamVeraSans-Roman-79"/>
      <use x="302.24609375" xlink:href="#BitstreamVeraSans-Roman-70"/>
      <use x="365.72265625" xlink:href="#BitstreamVeraSans-Roman-65"/>
      <use x="427.24609375" xlink:href="#BitstreamVeraSans-Roman-73"/>
     </g>
    </g>
    <g id="PathCollection_5">
     <path d="
M79 405.093
C79.593 405.093 80.1618 404.858 80.5811 404.438
C81.0005 404.019 81.2361 403.45 81.2361 402.857
C81.2361 402.264 81.0005 401.695 80.5811 401.276
C80.1618 400.857 79.593 400.621 79 400.621
C78.407 400.621 77.8382 400.857 77.4189 401.276
C76.9995 401.695 76.7639 402.264 76.7639 402.857
C76.7639 403.45 76.9995 404.019 77.4189 404.438
C77.8382 404.858 78.407 405.093 79 405.093
z
" style="fill:#ff0000;fill-opacity:0.7;"/>
     <path d="
M86 404.218
C86.593 404.218 87.1618 403.983 87.5811 403.563
C88.0005 403.144 88.2361 402.575 88.2361 401.982
C88.2361 401.389 88.0005 400.82 87.5811 400.401
C87.1618 399.982 86.593 399.746 86 399.746
C85.407 399.746 84.8382 399.982 84.4189 400.401
C83.9995 400.82 83.7639 401.389 83.7639 401.982
C83.7639 402.575 83.9995 403.144 84.4189 403.563
C84.8382 403.983 85.407 404.218 86 404.218
z
" style="fill:#ff0000;fill-opacity:0.7;"/>
     <path d="
M93 405.531
C93.593 405.531 94.1618 405.295 94.5811 404.876
C95.0005 404.457 95.2361 403.888 95.2361 403.295
C95.2361 402.702 95.0005 402.133 94.5811 401.714
C94.1618 401.294 93.593 401.059 93 401.059
C92.407 401.059 91.8382 401.294 91.4189 401.714
C90.9995 402.133 90.7639 402.702 90.7639 403.295
C90.7639 403.888 90.9995 404.457 91.4189 404.876
C91.8382 405.295 92.407 405.531 93 405.531
z
" style="fill:#ff0000;fill-opacity:0.7;"/>
    </g>
    <g id="text_23">
     <!-- T-specific -->
     <defs>
      <path d="
M9.42188 54.6875
L18.4062 54.6875
L18.4062 0
L9.42188 0
z

M9.42188 75.9844
L18.4062 75.9844
L18.4062 64.5938
L9.42188 64.5938
z
" id="BitstreamVeraSans-Roman-69"/>
      <path d="
M37.1094 75.9844
L37.1094 68.5
L28.5156 68.5
Q23.6875 68.5 21.7969 66.5469
Q19.9219 64.5938 19.9219 59.5156
L19.9219 54.6875
L34.7188 54.6875
L34.7188 47.7031
L19.9219 47.7031
L19.9219 0
L10.8906 0
L10.8906 47.7031
L2.29688 47.7031
L2.29688 54.6875
L10.8906 54.6875
L10.8906 58.5
Q10.8906 67.625 15.1406 71.7969
Q19.3906 75.9844 28.6094 75.9844
z
" id="BitstreamVeraSans-Roman-66"/>
      <path d="
M-0.296875 72.9062
L61.375 72.9062
L61.375 64.5938
L35.5 64.5938
L35.5 0
L25.5938 0
L25.5938 64.5938
L-0.296875 64.5938
z
" id="BitstreamVeraSans-Roman-54"/>
      <path d="
M4.89062 31.3906
L31.2031 31.3906
L31.2031 23.3906
L4.89062 23.3906
z
" id="BitstreamVeraSans-Roman-2d"/>
     </defs>
     <g transform="translate(104.0 405.4821875)scale(0.1 -0.1)">
      <use xlink:href="#BitstreamVeraSans-Roman-54"/>
      <use x="51.958984375" xlink:href="#BitstreamVeraSans-Roman-2d"/>
      <use x="88.04296875" xlink:href="#BitstreamVeraSans-Roman-73"/>
      <use x="140.142578125" xlink:href="#BitstreamVeraSans-Roman-70"/>
      <use x="203.619140625" xlink:href="#BitstreamVeraSans-Roman-65"/>
      <use x="265.142578125" xlink:href="#BitstreamVeraSans-Roman-63"/>
      <use x="320.123046875" xlink:href="#BitstreamVeraSans-Roman-69"/>
      <use x="347.90625" xlink:href="#BitstreamVeraSans-Roman-66"/>
      <use x="383.111328125" xlink:href="#BitstreamVeraSans-Roman-69"/>
      <use x="410.89453125" xlink:href="#BitstreamVeraSans-Roman-63"/>
     </g>
    </g>
    <g id="PathCollection_6">
     <path d="
M79 419.771
C79.593 419.771 80.1618 419.536 80.5811 419.116
C81.0005 418.697 81.2361 418.128 81.2361 417.535
C81.2361 416.942 81.0005 416.373 80.5811 415.954
C80.1618 415.535 79.593 415.299 79 415.299
C78.407 415.299 77.8382 415.535 77.4189 415.954
C76.9995 416.373 76.7639 416.942 76.7639 417.535
C76.7639 418.128 76.9995 418.697 77.4189 419.116
C77.8382 419.536 78.407 419.771 79 419.771
z
" style="fill:#0000ff;fill-opacity:0.7;"/>
     <path d="
M86 418.896
C86.593 418.896 87.1618 418.661 87.5811 418.241
C88.0005 417.822 88.2361 417.253 88.2361 416.66
C88.2361 416.067 88.0005 415.498 87.5811 415.079
C87.1618 414.66 86.593 414.424 86 414.424
C85.407 414.424 84.8382 414.66 84.4189 415.079
C83.9995 415.498 83.7639 416.067 83.7639 416.66
C83.7639 417.253 83.9995 417.822 84.4189 418.241
C84.8382 418.661 85.407 418.896 86 418.896
z
" style="fill:#0000ff;fill-opacity:0.7;"/>
     <path d="
M93 420.209
C93.593 420.209 94.1618 419.973 94.5811 419.554
C95.0005 419.135 95.2361 418.566 95.2361 417.973
C95.2361 417.38 95.0005 416.811 94.5811 416.392
C94.1618 415.972 93.593 415.737 93 415.737
C92.407 415.737 91.8382 415.972 91.4189 416.392
C90.9995 416.811 90.7639 417.38 90.7639 417.973
C90.7639 418.566 90.9995 419.135 91.4189 419.554
C91.8382 419.973 92.407 420.209 93 420.209
z
" style="fill:#0000ff;fill-opacity:0.7;"/>
    </g>
    <g id="text_24">
     <!-- B-specific -->
     <g transform="translate(104.0 420.1603125)scale(0.1 -0.1)">
      <use xlink:href="#BitstreamVeraSans-Roman-42"/>
      <use x="68.603515625" xlink:href="#BitstreamVeraSans-Roman-2d"/>
      <use x="104.6875" xlink:href="#BitstreamVeraSans-Roman-73"/>
      <use x="156.787109375" xlink:href="#BitstreamVeraSans-Roman-70"/>
      <use x="220.263671875" xlink:href="#BitstreamVeraSans-Roman-65"/>
      <use x="281.787109375" xlink:href="#BitstreamVeraSans-Roman-63"/>
      <use x="336.767578125" xlink:href="#BitstreamVeraSans-Roman-69"/>
      <use x="364.55078125" xlink:href="#BitstreamVeraSans-Roman-66"/>
      <use x="399.755859375" xlink:href="#BitstreamVeraSans-Roman-69"/>
      <use x="427.5390625" xlink:href="#BitstreamVeraSans-Roman-63"/>
     </g>
    </g>
   </g>
  </g>
 </g>
 <defs>
  <clipPath id="p4f6257ca6d">
   <rect height="460.8" width="446.4" x="72.0" y="57.6"/>
  </clipPath>
 </defs>
</svg>
